<?xml version="1.0" standalone="no"?>
 <!DOCTYPE svg PUBLIC "-//W3C//DTD SVG 1.1//EN" 
 "http://www.w3.org/Graphics/SVG/1.1/DTD/svg11.dtd"> 
<svg
  xmlns:svg="http://www.w3.org/2000/svg"
  xmlns="http://www.w3.org/2000/svg"
  xmlns:xlink="http://www.w3.org/1999/xlink"
  version="1.1"
  width="419.9890mm" height="297.0022mm" viewBox="0.0000 0.0000 419.9890 297.0022">
<title>SVG Image created as ECAD_main-B_Fab0.svg date 2025/10/27 20:24:39 </title>
  <desc>Image generated by PCBNEW </desc>
<g style="fill:#000000; fill-opacity:1.0000;stroke:#000000; stroke-opacity:1.0000;
stroke-linecap:round; stroke-linejoin:round;"
 transform="translate(0 0) scale(1 1)">
</g>
<g style="fill:none; 
stroke:#000000; stroke-width:0.1500; stroke-opacity:1; 
stroke-linecap:round; stroke-linejoin:round;">
<g transform="rotate(90.000000 371.8090 68.5000)">
<text x="371.8090" y="69.0000"
textLength="7.8214" font-size="1.3333" lengthAdjust="spacingAndGlyphs"
text-anchor="middle" opacity="0" stroke-opacity="0">100n/50V</text>
</g>
<g class="stroked-text"><desc>100n/50V</desc>
<path d="M371.3542 65.4762
L371.3542 64.9048
" />
<path d="M371.3542 65.1905
L372.3542 65.1905
" />
<path d="M372.3542 65.1905
L372.2113 65.0952
" />
<path d="M372.2113 65.0952
L372.1161 65.0000
" />
<path d="M372.1161 65.0000
L372.0685 64.9048
" />
<path d="M372.3542 66.0952
L372.3542 66.1905
" />
<path d="M372.3542 66.1905
L372.3066 66.2857
" />
<path d="M372.3066 66.2857
L372.2589 66.3333
" />
<path d="M372.2589 66.3333
L372.1637 66.3810
" />
<path d="M372.1637 66.3810
L371.9732 66.4286
" />
<path d="M371.9732 66.4286
L371.7351 66.4286
" />
<path d="M371.7351 66.4286
L371.5447 66.3810
" />
<path d="M371.5447 66.3810
L371.4494 66.3333
" />
<path d="M371.4494 66.3333
L371.4018 66.2857
" />
<path d="M371.4018 66.2857
L371.3542 66.1905
" />
<path d="M371.3542 66.1905
L371.3542 66.0952
" />
<path d="M371.3542 66.0952
L371.4018 66.0000
" />
<path d="M371.4018 66.0000
L371.4494 65.9524
" />
<path d="M371.4494 65.9524
L371.5447 65.9048
" />
<path d="M371.5447 65.9048
L371.7351 65.8571
" />
<path d="M371.7351 65.8571
L371.9732 65.8571
" />
<path d="M371.9732 65.8571
L372.1637 65.9048
" />
<path d="M372.1637 65.9048
L372.2589 65.9524
" />
<path d="M372.2589 65.9524
L372.3066 66.0000
" />
<path d="M372.3066 66.0000
L372.3542 66.0952
" />
<path d="M372.3542 67.0476
L372.3542 67.1429
" />
<path d="M372.3542 67.1429
L372.3066 67.2381
" />
<path d="M372.3066 67.2381
L372.2589 67.2857
" />
<path d="M372.2589 67.2857
L372.1637 67.3333
" />
<path d="M372.1637 67.3333
L371.9732 67.3810
" />
<path d="M371.9732 67.3810
L371.7351 67.3810
" />
<path d="M371.7351 67.3810
L371.5447 67.3333
" />
<path d="M371.5447 67.3333
L371.4494 67.2857
" />
<path d="M371.4494 67.2857
L371.4018 67.2381
" />
<path d="M371.4018 67.2381
L371.3542 67.1429
" />
<path d="M371.3542 67.1429
L371.3542 67.0476
" />
<path d="M371.3542 67.0476
L371.4018 66.9524
" />
<path d="M371.4018 66.9524
L371.4494 66.9048
" />
<path d="M371.4494 66.9048
L371.5447 66.8571
" />
<path d="M371.5447 66.8571
L371.7351 66.8095
" />
<path d="M371.7351 66.8095
L371.9732 66.8095
" />
<path d="M371.9732 66.8095
L372.1637 66.8571
" />
<path d="M372.1637 66.8571
L372.2589 66.9048
" />
<path d="M372.2589 66.9048
L372.3066 66.9524
" />
<path d="M372.3066 66.9524
L372.3542 67.0476
" />
<path d="M372.0208 67.8095
L371.3542 67.8095
" />
<path d="M371.9256 67.8095
L371.9732 67.8571
" />
<path d="M371.9732 67.8571
L372.0208 67.9524
" />
<path d="M372.0208 67.9524
L372.0208 68.0952
" />
<path d="M372.0208 68.0952
L371.9732 68.1905
" />
<path d="M371.9732 68.1905
L371.8780 68.2381
" />
<path d="M371.8780 68.2381
L371.3542 68.2381
" />
<path d="M372.4018 69.4286
L371.1161 68.5714
" />
<path d="M372.3542 70.2381
L372.3542 69.7619
" />
<path d="M372.3542 69.7619
L371.8780 69.7143
" />
<path d="M371.8780 69.7143
L371.9256 69.7619
" />
<path d="M371.9256 69.7619
L371.9732 69.8571
" />
<path d="M371.9732 69.8571
L371.9732 70.0952
" />
<path d="M371.9732 70.0952
L371.9256 70.1905
" />
<path d="M371.9256 70.1905
L371.8780 70.2381
" />
<path d="M371.8780 70.2381
L371.7828 70.2857
" />
<path d="M371.7828 70.2857
L371.5447 70.2857
" />
<path d="M371.5447 70.2857
L371.4494 70.2381
" />
<path d="M371.4494 70.2381
L371.4018 70.1905
" />
<path d="M371.4018 70.1905
L371.3542 70.0952
" />
<path d="M371.3542 70.0952
L371.3542 69.8571
" />
<path d="M371.3542 69.8571
L371.4018 69.7619
" />
<path d="M371.4018 69.7619
L371.4494 69.7143
" />
<path d="M372.3542 70.9048
L372.3542 71.0000
" />
<path d="M372.3542 71.0000
L372.3066 71.0952
" />
<path d="M372.3066 71.0952
L372.2589 71.1429
" />
<path d="M372.2589 71.1429
L372.1637 71.1905
" />
<path d="M372.1637 71.1905
L371.9732 71.2381
" />
<path d="M371.9732 71.2381
L371.7351 71.2381
" />
<path d="M371.7351 71.2381
L371.5447 71.1905
" />
<path d="M371.5447 71.1905
L371.4494 71.1429
" />
<path d="M371.4494 71.1429
L371.4018 71.0952
" />
<path d="M371.4018 71.0952
L371.3542 71.0000
" />
<path d="M371.3542 71.0000
L371.3542 70.9048
" />
<path d="M371.3542 70.9048
L371.4018 70.8095
" />
<path d="M371.4018 70.8095
L371.4494 70.7619
" />
<path d="M371.4494 70.7619
L371.5447 70.7143
" />
<path d="M371.5447 70.7143
L371.7351 70.6667
" />
<path d="M371.7351 70.6667
L371.9732 70.6667
" />
<path d="M371.9732 70.6667
L372.1637 70.7143
" />
<path d="M372.1637 70.7143
L372.2589 70.7619
" />
<path d="M372.2589 70.7619
L372.3066 70.8095
" />
<path d="M372.3066 70.8095
L372.3542 70.9048
" />
<path d="M372.3542 71.5238
L371.3542 71.8571
" />
<path d="M371.3542 71.8571
L372.3542 72.1905
" />
</g></g>
<g style="fill:none; 
stroke:#000000; stroke-width:0.0600; stroke-opacity:1; 
stroke-linecap:round; stroke-linejoin:round;">
<g transform="rotate(90.000000 373.2390 68.5000)">
<text x="373.2390" y="68.7000"
textLength="1.2619" font-size="0.5333" lengthAdjust="spacingAndGlyphs"
text-anchor="middle" opacity="0" stroke-opacity="0">C11</text>
</g>
<g class="stroked-text"><desc>C11</desc>
<path d="M373.0952 68.2429
L373.0761 68.2238
" />
<path d="M373.0761 68.2238
L373.0571 68.1667
" />
<path d="M373.0571 68.1667
L373.0571 68.1286
" />
<path d="M373.0571 68.1286
L373.0761 68.0714
" />
<path d="M373.0761 68.0714
L373.1142 68.0333
" />
<path d="M373.1142 68.0333
L373.1523 68.0143
" />
<path d="M373.1523 68.0143
L373.2285 67.9952
" />
<path d="M373.2285 67.9952
L373.2856 67.9952
" />
<path d="M373.2856 67.9952
L373.3618 68.0143
" />
<path d="M373.3618 68.0143
L373.3999 68.0333
" />
<path d="M373.3999 68.0333
L373.4380 68.0714
" />
<path d="M373.4380 68.0714
L373.4571 68.1286
" />
<path d="M373.4571 68.1286
L373.4571 68.1667
" />
<path d="M373.4571 68.1667
L373.4380 68.2238
" />
<path d="M373.4380 68.2238
L373.4190 68.2429
" />
<path d="M373.0571 68.6238
L373.0571 68.3952
" />
<path d="M373.0571 68.5095
L373.4571 68.5095
" />
<path d="M373.4571 68.5095
L373.3999 68.4714
" />
<path d="M373.3999 68.4714
L373.3618 68.4333
" />
<path d="M373.3618 68.4333
L373.3428 68.3952
" />
<path d="M373.0571 69.0048
L373.0571 68.7762
" />
<path d="M373.0571 68.8905
L373.4571 68.8905
" />
<path d="M373.4571 68.8905
L373.3999 68.8524
" />
<path d="M373.3999 68.8524
L373.3618 68.8143
" />
<path d="M373.3618 68.8143
L373.3428 68.7762
" />
</g></g>
<g style="fill:none; 
stroke:#000000; stroke-width:0.1500; stroke-opacity:1; 
stroke-linecap:round; stroke-linejoin:round;">
<text x="397.2390" y="36.4100"
textLength="8.2976" font-size="1.3333" lengthAdjust="spacingAndGlyphs"
text-anchor="middle" opacity="0" stroke-opacity="0">100n/6.3V</text>
<g class="stroked-text"><desc>100n/6.3V</desc>
<path d="M393.9771 36.3648
L393.4057 36.3648
" />
<path d="M393.6914 36.3648
L393.6914 35.3648
" />
<path d="M393.6914 35.3648
L393.5961 35.5077
" />
<path d="M393.5961 35.5077
L393.5009 35.6029
" />
<path d="M393.5009 35.6029
L393.4057 35.6505
" />
<path d="M394.5961 35.3648
L394.6914 35.3648
" />
<path d="M394.6914 35.3648
L394.7866 35.4124
" />
<path d="M394.7866 35.4124
L394.8342 35.4601
" />
<path d="M394.8342 35.4601
L394.8819 35.5553
" />
<path d="M394.8819 35.5553
L394.9295 35.7458
" />
<path d="M394.9295 35.7458
L394.9295 35.9839
" />
<path d="M394.9295 35.9839
L394.8819 36.1743
" />
<path d="M394.8819 36.1743
L394.8342 36.2696
" />
<path d="M394.8342 36.2696
L394.7866 36.3172
" />
<path d="M394.7866 36.3172
L394.6914 36.3648
" />
<path d="M394.6914 36.3648
L394.5961 36.3648
" />
<path d="M394.5961 36.3648
L394.5009 36.3172
" />
<path d="M394.5009 36.3172
L394.4533 36.2696
" />
<path d="M394.4533 36.2696
L394.4057 36.1743
" />
<path d="M394.4057 36.1743
L394.3580 35.9839
" />
<path d="M394.3580 35.9839
L394.3580 35.7458
" />
<path d="M394.3580 35.7458
L394.4057 35.5553
" />
<path d="M394.4057 35.5553
L394.4533 35.4601
" />
<path d="M394.4533 35.4601
L394.5009 35.4124
" />
<path d="M394.5009 35.4124
L394.5961 35.3648
" />
<path d="M395.5485 35.3648
L395.6438 35.3648
" />
<path d="M395.6438 35.3648
L395.7390 35.4124
" />
<path d="M395.7390 35.4124
L395.7866 35.4601
" />
<path d="M395.7866 35.4601
L395.8342 35.5553
" />
<path d="M395.8342 35.5553
L395.8819 35.7458
" />
<path d="M395.8819 35.7458
L395.8819 35.9839
" />
<path d="M395.8819 35.9839
L395.8342 36.1743
" />
<path d="M395.8342 36.1743
L395.7866 36.2696
" />
<path d="M395.7866 36.2696
L395.7390 36.3172
" />
<path d="M395.7390 36.3172
L395.6438 36.3648
" />
<path d="M395.6438 36.3648
L395.5485 36.3648
" />
<path d="M395.5485 36.3648
L395.4533 36.3172
" />
<path d="M395.4533 36.3172
L395.4057 36.2696
" />
<path d="M395.4057 36.2696
L395.3580 36.1743
" />
<path d="M395.3580 36.1743
L395.3104 35.9839
" />
<path d="M395.3104 35.9839
L395.3104 35.7458
" />
<path d="M395.3104 35.7458
L395.3580 35.5553
" />
<path d="M395.3580 35.5553
L395.4057 35.4601
" />
<path d="M395.4057 35.4601
L395.4533 35.4124
" />
<path d="M395.4533 35.4124
L395.5485 35.3648
" />
<path d="M396.3104 35.6982
L396.3104 36.3648
" />
<path d="M396.3104 35.7934
L396.3580 35.7458
" />
<path d="M396.3580 35.7458
L396.4533 35.6982
" />
<path d="M396.4533 35.6982
L396.5961 35.6982
" />
<path d="M396.5961 35.6982
L396.6914 35.7458
" />
<path d="M396.6914 35.7458
L396.7390 35.8410
" />
<path d="M396.7390 35.8410
L396.7390 36.3648
" />
<path d="M397.9295 35.3172
L397.0723 36.6029
" />
<path d="M398.6914 35.3648
L398.5009 35.3648
" />
<path d="M398.5009 35.3648
L398.4057 35.4124
" />
<path d="M398.4057 35.4124
L398.3580 35.4601
" />
<path d="M398.3580 35.4601
L398.2628 35.6029
" />
<path d="M398.2628 35.6029
L398.2152 35.7934
" />
<path d="M398.2152 35.7934
L398.2152 36.1743
" />
<path d="M398.2152 36.1743
L398.2628 36.2696
" />
<path d="M398.2628 36.2696
L398.3104 36.3172
" />
<path d="M398.3104 36.3172
L398.4057 36.3648
" />
<path d="M398.4057 36.3648
L398.5961 36.3648
" />
<path d="M398.5961 36.3648
L398.6914 36.3172
" />
<path d="M398.6914 36.3172
L398.7390 36.2696
" />
<path d="M398.7390 36.2696
L398.7866 36.1743
" />
<path d="M398.7866 36.1743
L398.7866 35.9362
" />
<path d="M398.7866 35.9362
L398.7390 35.8410
" />
<path d="M398.7390 35.8410
L398.6914 35.7934
" />
<path d="M398.6914 35.7934
L398.5961 35.7458
" />
<path d="M398.5961 35.7458
L398.4057 35.7458
" />
<path d="M398.4057 35.7458
L398.3104 35.7934
" />
<path d="M398.3104 35.7934
L398.2628 35.8410
" />
<path d="M398.2628 35.8410
L398.2152 35.9362
" />
<path d="M399.2152 36.2696
L399.2628 36.3172
" />
<path d="M399.2628 36.3172
L399.2152 36.3648
" />
<path d="M399.2152 36.3648
L399.1676 36.3172
" />
<path d="M399.1676 36.3172
L399.2152 36.2696
" />
<path d="M399.2152 36.2696
L399.2152 36.3648
" />
<path d="M399.5961 35.3648
L400.2152 35.3648
" />
<path d="M400.2152 35.3648
L399.8819 35.7458
" />
<path d="M399.8819 35.7458
L400.0247 35.7458
" />
<path d="M400.0247 35.7458
L400.1200 35.7934
" />
<path d="M400.1200 35.7934
L400.1676 35.8410
" />
<path d="M400.1676 35.8410
L400.2152 35.9362
" />
<path d="M400.2152 35.9362
L400.2152 36.1743
" />
<path d="M400.2152 36.1743
L400.1676 36.2696
" />
<path d="M400.1676 36.2696
L400.1200 36.3172
" />
<path d="M400.1200 36.3172
L400.0247 36.3648
" />
<path d="M400.0247 36.3648
L399.7390 36.3648
" />
<path d="M399.7390 36.3648
L399.6438 36.3172
" />
<path d="M399.6438 36.3172
L399.5961 36.2696
" />
<path d="M400.5009 35.3648
L400.8342 36.3648
" />
<path d="M400.8342 36.3648
L401.1676 35.3648
" />
</g></g>
<g style="fill:none; 
stroke:#000000; stroke-width:0.0400; stroke-opacity:1; 
stroke-linecap:round; stroke-linejoin:round;">
<text x="397.2390" y="34.8750"
textLength="0.5581" font-size="0.3333" lengthAdjust="spacingAndGlyphs"
text-anchor="middle" opacity="0" stroke-opacity="0">C2</text>
<g class="stroked-text"><desc>C2</desc>
<path d="M397.1973 34.8398
L397.1854 34.8517
" />
<path d="M397.1854 34.8517
L397.1497 34.8636
" />
<path d="M397.1497 34.8636
L397.1259 34.8636
" />
<path d="M397.1259 34.8636
L397.0902 34.8517
" />
<path d="M397.0902 34.8517
L397.0664 34.8279
" />
<path d="M397.0664 34.8279
L397.0545 34.8040
" />
<path d="M397.0545 34.8040
L397.0426 34.7564
" />
<path d="M397.0426 34.7564
L397.0426 34.7207
" />
<path d="M397.0426 34.7207
L397.0545 34.6731
" />
<path d="M397.0545 34.6731
L397.0664 34.6493
" />
<path d="M397.0664 34.6493
L397.0902 34.6255
" />
<path d="M397.0902 34.6255
L397.1259 34.6136
" />
<path d="M397.1259 34.6136
L397.1497 34.6136
" />
<path d="M397.1497 34.6136
L397.1854 34.6255
" />
<path d="M397.1854 34.6255
L397.1973 34.6374
" />
<path d="M397.2926 34.6374
L397.3045 34.6255
" />
<path d="M397.3045 34.6255
L397.3283 34.6136
" />
<path d="M397.3283 34.6136
L397.3878 34.6136
" />
<path d="M397.3878 34.6136
L397.4116 34.6255
" />
<path d="M397.4116 34.6255
L397.4235 34.6374
" />
<path d="M397.4235 34.6374
L397.4354 34.6612
" />
<path d="M397.4354 34.6612
L397.4354 34.6850
" />
<path d="M397.4354 34.6850
L397.4235 34.7207
" />
<path d="M397.4235 34.7207
L397.2807 34.8636
" />
<path d="M397.2807 34.8636
L397.4354 34.8636
" />
</g></g>
<g style="fill:none; 
stroke:#000000; stroke-width:0.1500; stroke-opacity:1; 
stroke-linecap:round; stroke-linejoin:round;">
<text x="365.9490" y="64.4700"
textLength="9.9167" font-size="1.3333" lengthAdjust="spacingAndGlyphs"
text-anchor="middle" opacity="0" stroke-opacity="0">BT137S-600</text>
<g class="stroked-text"><desc>BT137S-600</desc>
<path d="M361.6871 63.9010
L361.8300 63.9486
" />
<path d="M361.8300 63.9486
L361.8776 63.9962
" />
<path d="M361.8776 63.9962
L361.9252 64.0915
" />
<path d="M361.9252 64.0915
L361.9252 64.2343
" />
<path d="M361.9252 64.2343
L361.8776 64.3296
" />
<path d="M361.8776 64.3296
L361.8300 64.3772
" />
<path d="M361.8300 64.3772
L361.7347 64.4248
" />
<path d="M361.7347 64.4248
L361.3538 64.4248
" />
<path d="M361.3538 64.4248
L361.3538 63.4248
" />
<path d="M361.3538 63.4248
L361.6871 63.4248
" />
<path d="M361.6871 63.4248
L361.7823 63.4724
" />
<path d="M361.7823 63.4724
L361.8300 63.5201
" />
<path d="M361.8300 63.5201
L361.8776 63.6153
" />
<path d="M361.8776 63.6153
L361.8776 63.7105
" />
<path d="M361.8776 63.7105
L361.8300 63.8058
" />
<path d="M361.8300 63.8058
L361.7823 63.8534
" />
<path d="M361.7823 63.8534
L361.6871 63.9010
" />
<path d="M361.6871 63.9010
L361.3538 63.9010
" />
<path d="M362.2109 63.4248
L362.7823 63.4248
" />
<path d="M362.4966 64.4248
L362.4966 63.4248
" />
<path d="M363.6395 64.4248
L363.0680 64.4248
" />
<path d="M363.3538 64.4248
L363.3538 63.4248
" />
<path d="M363.3538 63.4248
L363.2585 63.5677
" />
<path d="M363.2585 63.5677
L363.1633 63.6629
" />
<path d="M363.1633 63.6629
L363.0680 63.7105
" />
<path d="M363.9728 63.4248
L364.5919 63.4248
" />
<path d="M364.5919 63.4248
L364.2585 63.8058
" />
<path d="M364.2585 63.8058
L364.4014 63.8058
" />
<path d="M364.4014 63.8058
L364.4966 63.8534
" />
<path d="M364.4966 63.8534
L364.5442 63.9010
" />
<path d="M364.5442 63.9010
L364.5919 63.9962
" />
<path d="M364.5919 63.9962
L364.5919 64.2343
" />
<path d="M364.5919 64.2343
L364.5442 64.3296
" />
<path d="M364.5442 64.3296
L364.4966 64.3772
" />
<path d="M364.4966 64.3772
L364.4014 64.4248
" />
<path d="M364.4014 64.4248
L364.1157 64.4248
" />
<path d="M364.1157 64.4248
L364.0204 64.3772
" />
<path d="M364.0204 64.3772
L363.9728 64.3296
" />
<path d="M364.9252 63.4248
L365.5919 63.4248
" />
<path d="M365.5919 63.4248
L365.1633 64.4248
" />
<path d="M365.9252 64.3772
L366.0680 64.4248
" />
<path d="M366.0680 64.4248
L366.3061 64.4248
" />
<path d="M366.3061 64.4248
L366.4014 64.3772
" />
<path d="M366.4014 64.3772
L366.4490 64.3296
" />
<path d="M366.4490 64.3296
L366.4966 64.2343
" />
<path d="M366.4966 64.2343
L366.4966 64.1391
" />
<path d="M366.4966 64.1391
L366.4490 64.0439
" />
<path d="M366.4490 64.0439
L366.4014 63.9962
" />
<path d="M366.4014 63.9962
L366.3061 63.9486
" />
<path d="M366.3061 63.9486
L366.1157 63.9010
" />
<path d="M366.1157 63.9010
L366.0204 63.8534
" />
<path d="M366.0204 63.8534
L365.9728 63.8058
" />
<path d="M365.9728 63.8058
L365.9252 63.7105
" />
<path d="M365.9252 63.7105
L365.9252 63.6153
" />
<path d="M365.9252 63.6153
L365.9728 63.5201
" />
<path d="M365.9728 63.5201
L366.0204 63.4724
" />
<path d="M366.0204 63.4724
L366.1157 63.4248
" />
<path d="M366.1157 63.4248
L366.3538 63.4248
" />
<path d="M366.3538 63.4248
L366.4966 63.4724
" />
<path d="M366.9252 64.0439
L367.6871 64.0439
" />
<path d="M368.5919 63.4248
L368.4014 63.4248
" />
<path d="M368.4014 63.4248
L368.3061 63.4724
" />
<path d="M368.3061 63.4724
L368.2585 63.5201
" />
<path d="M368.2585 63.5201
L368.1633 63.6629
" />
<path d="M368.1633 63.6629
L368.1157 63.8534
" />
<path d="M368.1157 63.8534
L368.1157 64.2343
" />
<path d="M368.1157 64.2343
L368.1633 64.3296
" />
<path d="M368.1633 64.3296
L368.2109 64.3772
" />
<path d="M368.2109 64.3772
L368.3061 64.4248
" />
<path d="M368.3061 64.4248
L368.4966 64.4248
" />
<path d="M368.4966 64.4248
L368.5919 64.3772
" />
<path d="M368.5919 64.3772
L368.6395 64.3296
" />
<path d="M368.6395 64.3296
L368.6871 64.2343
" />
<path d="M368.6871 64.2343
L368.6871 63.9962
" />
<path d="M368.6871 63.9962
L368.6395 63.9010
" />
<path d="M368.6395 63.9010
L368.5919 63.8534
" />
<path d="M368.5919 63.8534
L368.4966 63.8058
" />
<path d="M368.4966 63.8058
L368.3061 63.8058
" />
<path d="M368.3061 63.8058
L368.2109 63.8534
" />
<path d="M368.2109 63.8534
L368.1633 63.9010
" />
<path d="M368.1633 63.9010
L368.1157 63.9962
" />
<path d="M369.3061 63.4248
L369.4014 63.4248
" />
<path d="M369.4014 63.4248
L369.4966 63.4724
" />
<path d="M369.4966 63.4724
L369.5442 63.5201
" />
<path d="M369.5442 63.5201
L369.5919 63.6153
" />
<path d="M369.5919 63.6153
L369.6395 63.8058
" />
<path d="M369.6395 63.8058
L369.6395 64.0439
" />
<path d="M369.6395 64.0439
L369.5919 64.2343
" />
<path d="M369.5919 64.2343
L369.5442 64.3296
" />
<path d="M369.5442 64.3296
L369.4966 64.3772
" />
<path d="M369.4966 64.3772
L369.4014 64.4248
" />
<path d="M369.4014 64.4248
L369.3061 64.4248
" />
<path d="M369.3061 64.4248
L369.2109 64.3772
" />
<path d="M369.2109 64.3772
L369.1633 64.3296
" />
<path d="M369.1633 64.3296
L369.1157 64.2343
" />
<path d="M369.1157 64.2343
L369.0680 64.0439
" />
<path d="M369.0680 64.0439
L369.0680 63.8058
" />
<path d="M369.0680 63.8058
L369.1157 63.6153
" />
<path d="M369.1157 63.6153
L369.1633 63.5201
" />
<path d="M369.1633 63.5201
L369.2109 63.4724
" />
<path d="M369.2109 63.4724
L369.3061 63.4248
" />
<path d="M370.2585 63.4248
L370.3538 63.4248
" />
<path d="M370.3538 63.4248
L370.4490 63.4724
" />
<path d="M370.4490 63.4724
L370.4966 63.5201
" />
<path d="M370.4966 63.5201
L370.5442 63.6153
" />
<path d="M370.5442 63.6153
L370.5919 63.8058
" />
<path d="M370.5919 63.8058
L370.5919 64.0439
" />
<path d="M370.5919 64.0439
L370.5442 64.2343
" />
<path d="M370.5442 64.2343
L370.4966 64.3296
" />
<path d="M370.4966 64.3296
L370.4490 64.3772
" />
<path d="M370.4490 64.3772
L370.3538 64.4248
" />
<path d="M370.3538 64.4248
L370.2585 64.4248
" />
<path d="M370.2585 64.4248
L370.1633 64.3772
" />
<path d="M370.1633 64.3772
L370.1157 64.3296
" />
<path d="M370.1157 64.3296
L370.0680 64.2343
" />
<path d="M370.0680 64.2343
L370.0204 64.0439
" />
<path d="M370.0204 64.0439
L370.0204 63.8058
" />
<path d="M370.0204 63.8058
L370.0680 63.6153
" />
<path d="M370.0680 63.6153
L370.1157 63.5201
" />
<path d="M370.1157 63.5201
L370.1633 63.4724
" />
<path d="M370.1633 63.4724
L370.2585 63.4248
" />
</g><text x="365.9490" y="68.9700"
textLength="2.2500" font-size="1.3333" lengthAdjust="spacingAndGlyphs"
text-anchor="middle" opacity="0" stroke-opacity="0">Q1</text>
<g class="stroked-text"><desc>Q1</desc>
<path d="M365.8538 69.0201
L365.7585 68.9724
" />
<path d="M365.7585 68.9724
L365.6633 68.8772
" />
<path d="M365.6633 68.8772
L365.5204 68.7343
" />
<path d="M365.5204 68.7343
L365.4252 68.6867
" />
<path d="M365.4252 68.6867
L365.3300 68.6867
" />
<path d="M365.3776 68.9248
L365.2823 68.8772
" />
<path d="M365.2823 68.8772
L365.1871 68.7820
" />
<path d="M365.1871 68.7820
L365.1395 68.5915
" />
<path d="M365.1395 68.5915
L365.1395 68.2582
" />
<path d="M365.1395 68.2582
L365.1871 68.0677
" />
<path d="M365.1871 68.0677
L365.2823 67.9724
" />
<path d="M365.2823 67.9724
L365.3776 67.9248
" />
<path d="M365.3776 67.9248
L365.5680 67.9248
" />
<path d="M365.5680 67.9248
L365.6633 67.9724
" />
<path d="M365.6633 67.9724
L365.7585 68.0677
" />
<path d="M365.7585 68.0677
L365.8061 68.2582
" />
<path d="M365.8061 68.2582
L365.8061 68.5915
" />
<path d="M365.8061 68.5915
L365.7585 68.7820
" />
<path d="M365.7585 68.7820
L365.6633 68.8772
" />
<path d="M365.6633 68.8772
L365.5680 68.9248
" />
<path d="M365.5680 68.9248
L365.3776 68.9248
" />
<path d="M366.7585 68.9248
L366.1871 68.9248
" />
<path d="M366.4728 68.9248
L366.4728 67.9248
" />
<path d="M366.4728 67.9248
L366.3776 68.0677
" />
<path d="M366.3776 68.0677
L366.2823 68.1629
" />
<path d="M366.2823 68.1629
L366.1871 68.2105
" />
</g><g transform="rotate(90.000000 382.4890 66.0000)">
<text x="382.4890" y="66.5000"
textLength="8.6310" font-size="1.3333" lengthAdjust="spacingAndGlyphs"
text-anchor="middle" opacity="0" stroke-opacity="0">PMLL4148L</text>
</g>
<g class="stroked-text"><desc>PMLL4148L</desc>
<path d="M382.0342 62.0476
L383.0342 62.0476
" />
<path d="M383.0342 62.0476
L383.0342 62.4286
" />
<path d="M383.0342 62.4286
L382.9866 62.5238
" />
<path d="M382.9866 62.5238
L382.9389 62.5714
" />
<path d="M382.9389 62.5714
L382.8437 62.6190
" />
<path d="M382.8437 62.6190
L382.7008 62.6190
" />
<path d="M382.7008 62.6190
L382.6056 62.5714
" />
<path d="M382.6056 62.5714
L382.5580 62.5238
" />
<path d="M382.5580 62.5238
L382.5104 62.4286
" />
<path d="M382.5104 62.4286
L382.5104 62.0476
" />
<path d="M382.0342 63.0476
L383.0342 63.0476
" />
<path d="M383.0342 63.0476
L382.3199 63.3810
" />
<path d="M382.3199 63.3810
L383.0342 63.7143
" />
<path d="M383.0342 63.7143
L382.0342 63.7143
" />
<path d="M382.0342 64.6667
L382.0342 64.1905
" />
<path d="M382.0342 64.1905
L383.0342 64.1905
" />
<path d="M382.0342 65.4762
L382.0342 65.0000
" />
<path d="M382.0342 65.0000
L383.0342 65.0000
" />
<path d="M382.7008 66.2381
L382.0342 66.2381
" />
<path d="M383.0818 66.0000
L382.3675 65.7619
" />
<path d="M382.3675 65.7619
L382.3675 66.3810
" />
<path d="M382.0342 67.2857
L382.0342 66.7143
" />
<path d="M382.0342 67.0000
L383.0342 67.0000
" />
<path d="M383.0342 67.0000
L382.8913 66.9048
" />
<path d="M382.8913 66.9048
L382.7961 66.8095
" />
<path d="M382.7961 66.8095
L382.7485 66.7143
" />
<path d="M382.7008 68.1429
L382.0342 68.1429
" />
<path d="M383.0818 67.9048
L382.3675 67.6667
" />
<path d="M382.3675 67.6667
L382.3675 68.2857
" />
<path d="M382.6056 68.8095
L382.6532 68.7143
" />
<path d="M382.6532 68.7143
L382.7008 68.6667
" />
<path d="M382.7008 68.6667
L382.7961 68.6190
" />
<path d="M382.7961 68.6190
L382.8437 68.6190
" />
<path d="M382.8437 68.6190
L382.9389 68.6667
" />
<path d="M382.9389 68.6667
L382.9866 68.7143
" />
<path d="M382.9866 68.7143
L383.0342 68.8095
" />
<path d="M383.0342 68.8095
L383.0342 69.0000
" />
<path d="M383.0342 69.0000
L382.9866 69.0952
" />
<path d="M382.9866 69.0952
L382.9389 69.1429
" />
<path d="M382.9389 69.1429
L382.8437 69.1905
" />
<path d="M382.8437 69.1905
L382.7961 69.1905
" />
<path d="M382.7961 69.1905
L382.7008 69.1429
" />
<path d="M382.7008 69.1429
L382.6532 69.0952
" />
<path d="M382.6532 69.0952
L382.6056 69.0000
" />
<path d="M382.6056 69.0000
L382.6056 68.8095
" />
<path d="M382.6056 68.8095
L382.5580 68.7143
" />
<path d="M382.5580 68.7143
L382.5104 68.6667
" />
<path d="M382.5104 68.6667
L382.4151 68.6190
" />
<path d="M382.4151 68.6190
L382.2247 68.6190
" />
<path d="M382.2247 68.6190
L382.1294 68.6667
" />
<path d="M382.1294 68.6667
L382.0818 68.7143
" />
<path d="M382.0818 68.7143
L382.0342 68.8095
" />
<path d="M382.0342 68.8095
L382.0342 69.0000
" />
<path d="M382.0342 69.0000
L382.0818 69.0952
" />
<path d="M382.0818 69.0952
L382.1294 69.1429
" />
<path d="M382.1294 69.1429
L382.2247 69.1905
" />
<path d="M382.2247 69.1905
L382.4151 69.1905
" />
<path d="M382.4151 69.1905
L382.5104 69.1429
" />
<path d="M382.5104 69.1429
L382.5580 69.0952
" />
<path d="M382.5580 69.0952
L382.6056 69.0000
" />
<path d="M382.0342 70.0952
L382.0342 69.6190
" />
<path d="M382.0342 69.6190
L383.0342 69.6190
" />
</g><g transform="rotate(90.000000 386.4890 66.0000)">
<text x="386.4890" y="66.5000"
textLength="3.0119" font-size="1.3333" lengthAdjust="spacingAndGlyphs"
text-anchor="middle" opacity="0" stroke-opacity="0">TH1</text>
</g>
<g class="stroked-text"><desc>TH1</desc>
<path d="M387.0342 64.7143
L387.0342 65.2857
" />
<path d="M386.0342 65.0000
L387.0342 65.0000
" />
<path d="M386.0342 65.6190
L387.0342 65.6190
" />
<path d="M386.5580 65.6190
L386.5580 66.1905
" />
<path d="M386.0342 66.1905
L387.0342 66.1905
" />
<path d="M386.0342 67.1905
L386.0342 66.6190
" />
<path d="M386.0342 66.9048
L387.0342 66.9048
" />
<path d="M387.0342 66.9048
L386.8913 66.8095
" />
<path d="M386.8913 66.8095
L386.7961 66.7143
" />
<path d="M386.7961 66.7143
L386.7485 66.6190
" />
</g><g transform="rotate(90.000000 362.0890 57.2500)">
<text x="362.0890" y="57.7500"
textLength="7.7262" font-size="1.3333" lengthAdjust="spacingAndGlyphs"
text-anchor="middle" opacity="0" stroke-opacity="0">SMAJ13CA</text>
</g>
<g class="stroked-text"><desc>SMAJ13CA</desc>
<path d="M361.6818 53.7024
L361.6342 53.8452
" />
<path d="M361.6342 53.8452
L361.6342 54.0833
" />
<path d="M361.6342 54.0833
L361.6818 54.1786
" />
<path d="M361.6818 54.1786
L361.7294 54.2262
" />
<path d="M361.7294 54.2262
L361.8247 54.2738
" />
<path d="M361.8247 54.2738
L361.9199 54.2738
" />
<path d="M361.9199 54.2738
L362.0151 54.2262
" />
<path d="M362.0151 54.2262
L362.0628 54.1786
" />
<path d="M362.0628 54.1786
L362.1104 54.0833
" />
<path d="M362.1104 54.0833
L362.1580 53.8929
" />
<path d="M362.1580 53.8929
L362.2056 53.7976
" />
<path d="M362.2056 53.7976
L362.2532 53.7500
" />
<path d="M362.2532 53.7500
L362.3485 53.7024
" />
<path d="M362.3485 53.7024
L362.4437 53.7024
" />
<path d="M362.4437 53.7024
L362.5389 53.7500
" />
<path d="M362.5389 53.7500
L362.5866 53.7976
" />
<path d="M362.5866 53.7976
L362.6342 53.8929
" />
<path d="M362.6342 53.8929
L362.6342 54.1310
" />
<path d="M362.6342 54.1310
L362.5866 54.2738
" />
<path d="M361.6342 54.7024
L362.6342 54.7024
" />
<path d="M362.6342 54.7024
L361.9199 55.0357
" />
<path d="M361.9199 55.0357
L362.6342 55.3690
" />
<path d="M362.6342 55.3690
L361.6342 55.3690
" />
<path d="M361.9199 55.7976
L361.9199 56.2738
" />
<path d="M361.6342 55.7024
L362.6342 56.0357
" />
<path d="M362.6342 56.0357
L361.6342 56.3690
" />
<path d="M362.6342 56.9881
L361.9199 56.9881
" />
<path d="M361.9199 56.9881
L361.7770 56.9405
" />
<path d="M361.7770 56.9405
L361.6818 56.8452
" />
<path d="M361.6818 56.8452
L361.6342 56.7024
" />
<path d="M361.6342 56.7024
L361.6342 56.6071
" />
<path d="M361.6342 57.9881
L361.6342 57.4167
" />
<path d="M361.6342 57.7024
L362.6342 57.7024
" />
<path d="M362.6342 57.7024
L362.4913 57.6071
" />
<path d="M362.4913 57.6071
L362.3961 57.5119
" />
<path d="M362.3961 57.5119
L362.3485 57.4167
" />
<path d="M362.6342 58.3214
L362.6342 58.9405
" />
<path d="M362.6342 58.9405
L362.2532 58.6071
" />
<path d="M362.2532 58.6071
L362.2532 58.7500
" />
<path d="M362.2532 58.7500
L362.2056 58.8452
" />
<path d="M362.2056 58.8452
L362.1580 58.8929
" />
<path d="M362.1580 58.8929
L362.0628 58.9405
" />
<path d="M362.0628 58.9405
L361.8247 58.9405
" />
<path d="M361.8247 58.9405
L361.7294 58.8929
" />
<path d="M361.7294 58.8929
L361.6818 58.8452
" />
<path d="M361.6818 58.8452
L361.6342 58.7500
" />
<path d="M361.6342 58.7500
L361.6342 58.4643
" />
<path d="M361.6342 58.4643
L361.6818 58.3690
" />
<path d="M361.6818 58.3690
L361.7294 58.3214
" />
<path d="M361.7294 59.9405
L361.6818 59.8929
" />
<path d="M361.6818 59.8929
L361.6342 59.7500
" />
<path d="M361.6342 59.7500
L361.6342 59.6548
" />
<path d="M361.6342 59.6548
L361.6818 59.5119
" />
<path d="M361.6818 59.5119
L361.7770 59.4167
" />
<path d="M361.7770 59.4167
L361.8723 59.3690
" />
<path d="M361.8723 59.3690
L362.0628 59.3214
" />
<path d="M362.0628 59.3214
L362.2056 59.3214
" />
<path d="M362.2056 59.3214
L362.3961 59.3690
" />
<path d="M362.3961 59.3690
L362.4913 59.4167
" />
<path d="M362.4913 59.4167
L362.5866 59.5119
" />
<path d="M362.5866 59.5119
L362.6342 59.6548
" />
<path d="M362.6342 59.6548
L362.6342 59.7500
" />
<path d="M362.6342 59.7500
L362.5866 59.8929
" />
<path d="M362.5866 59.8929
L362.5389 59.9405
" />
<path d="M361.9199 60.3214
L361.9199 60.7976
" />
<path d="M361.6342 60.2262
L362.6342 60.5595
" />
<path d="M362.6342 60.5595
L361.6342 60.8929
" />
</g><g transform="rotate(90.000000 356.9890 57.2500)">
<text x="356.9890" y="57.7500"
textLength="2.2024" font-size="1.3333" lengthAdjust="spacingAndGlyphs"
text-anchor="middle" opacity="0" stroke-opacity="0">D6</text>
</g>
<g class="stroked-text"><desc>D6</desc>
<path d="M356.5342 56.5119
L357.5342 56.5119
" />
<path d="M357.5342 56.5119
L357.5342 56.7500
" />
<path d="M357.5342 56.7500
L357.4866 56.8929
" />
<path d="M357.4866 56.8929
L357.3913 56.9881
" />
<path d="M357.3913 56.9881
L357.2961 57.0357
" />
<path d="M357.2961 57.0357
L357.1056 57.0833
" />
<path d="M357.1056 57.0833
L356.9628 57.0833
" />
<path d="M356.9628 57.0833
L356.7723 57.0357
" />
<path d="M356.7723 57.0357
L356.6770 56.9881
" />
<path d="M356.6770 56.9881
L356.5818 56.8929
" />
<path d="M356.5818 56.8929
L356.5342 56.7500
" />
<path d="M356.5342 56.7500
L356.5342 56.5119
" />
<path d="M357.5342 57.9405
L357.5342 57.7500
" />
<path d="M357.5342 57.7500
L357.4866 57.6548
" />
<path d="M357.4866 57.6548
L357.4389 57.6071
" />
<path d="M357.4389 57.6071
L357.2961 57.5119
" />
<path d="M357.2961 57.5119
L357.1056 57.4643
" />
<path d="M357.1056 57.4643
L356.7247 57.4643
" />
<path d="M356.7247 57.4643
L356.6294 57.5119
" />
<path d="M356.6294 57.5119
L356.5818 57.5595
" />
<path d="M356.5818 57.5595
L356.5342 57.6548
" />
<path d="M356.5342 57.6548
L356.5342 57.8452
" />
<path d="M356.5342 57.8452
L356.5818 57.9405
" />
<path d="M356.5818 57.9405
L356.6294 57.9881
" />
<path d="M356.6294 57.9881
L356.7247 58.0357
" />
<path d="M356.7247 58.0357
L356.9628 58.0357
" />
<path d="M356.9628 58.0357
L357.0580 57.9881
" />
<path d="M357.0580 57.9881
L357.1056 57.9405
" />
<path d="M357.1056 57.9405
L357.1532 57.8452
" />
<path d="M357.1532 57.8452
L357.1532 57.6548
" />
<path d="M357.1532 57.6548
L357.1056 57.5595
" />
<path d="M357.1056 57.5595
L357.0580 57.5119
" />
<path d="M357.0580 57.5119
L356.9628 57.4643
" />
</g><g transform="rotate(90.000000 365.6390 62.5000)">
<text x="365.6390" y="63.0000"
textLength="7.9643" font-size="1.3333" lengthAdjust="spacingAndGlyphs"
text-anchor="middle" opacity="0" stroke-opacity="0">BZX84C13</text>
</g>
<g class="stroked-text"><desc>BZX84C13</desc>
<path d="M365.7080 59.2143
L365.6604 59.3571
" />
<path d="M365.6604 59.3571
L365.6128 59.4048
" />
<path d="M365.6128 59.4048
L365.5175 59.4524
" />
<path d="M365.5175 59.4524
L365.3747 59.4524
" />
<path d="M365.3747 59.4524
L365.2794 59.4048
" />
<path d="M365.2794 59.4048
L365.2318 59.3571
" />
<path d="M365.2318 59.3571
L365.1842 59.2619
" />
<path d="M365.1842 59.2619
L365.1842 58.8810
" />
<path d="M365.1842 58.8810
L366.1842 58.8810
" />
<path d="M366.1842 58.8810
L366.1842 59.2143
" />
<path d="M366.1842 59.2143
L366.1366 59.3095
" />
<path d="M366.1366 59.3095
L366.0889 59.3571
" />
<path d="M366.0889 59.3571
L365.9937 59.4048
" />
<path d="M365.9937 59.4048
L365.8985 59.4048
" />
<path d="M365.8985 59.4048
L365.8032 59.3571
" />
<path d="M365.8032 59.3571
L365.7556 59.3095
" />
<path d="M365.7556 59.3095
L365.7080 59.2143
" />
<path d="M365.7080 59.2143
L365.7080 58.8810
" />
<path d="M366.1842 59.7857
L366.1842 60.4524
" />
<path d="M366.1842 60.4524
L365.1842 59.7857
" />
<path d="M365.1842 59.7857
L365.1842 60.4524
" />
<path d="M366.1842 60.7381
L365.1842 61.4048
" />
<path d="M366.1842 61.4048
L365.1842 60.7381
" />
<path d="M365.7556 61.9286
L365.8032 61.8333
" />
<path d="M365.8032 61.8333
L365.8508 61.7857
" />
<path d="M365.8508 61.7857
L365.9461 61.7381
" />
<path d="M365.9461 61.7381
L365.9937 61.7381
" />
<path d="M365.9937 61.7381
L366.0889 61.7857
" />
<path d="M366.0889 61.7857
L366.1366 61.8333
" />
<path d="M366.1366 61.8333
L366.1842 61.9286
" />
<path d="M366.1842 61.9286
L366.1842 62.1190
" />
<path d="M366.1842 62.1190
L366.1366 62.2143
" />
<path d="M366.1366 62.2143
L366.0889 62.2619
" />
<path d="M366.0889 62.2619
L365.9937 62.3095
" />
<path d="M365.9937 62.3095
L365.9461 62.3095
" />
<path d="M365.9461 62.3095
L365.8508 62.2619
" />
<path d="M365.8508 62.2619
L365.8032 62.2143
" />
<path d="M365.8032 62.2143
L365.7556 62.1190
" />
<path d="M365.7556 62.1190
L365.7556 61.9286
" />
<path d="M365.7556 61.9286
L365.7080 61.8333
" />
<path d="M365.7080 61.8333
L365.6604 61.7857
" />
<path d="M365.6604 61.7857
L365.5651 61.7381
" />
<path d="M365.5651 61.7381
L365.3747 61.7381
" />
<path d="M365.3747 61.7381
L365.2794 61.7857
" />
<path d="M365.2794 61.7857
L365.2318 61.8333
" />
<path d="M365.2318 61.8333
L365.1842 61.9286
" />
<path d="M365.1842 61.9286
L365.1842 62.1190
" />
<path d="M365.1842 62.1190
L365.2318 62.2143
" />
<path d="M365.2318 62.2143
L365.2794 62.2619
" />
<path d="M365.2794 62.2619
L365.3747 62.3095
" />
<path d="M365.3747 62.3095
L365.5651 62.3095
" />
<path d="M365.5651 62.3095
L365.6604 62.2619
" />
<path d="M365.6604 62.2619
L365.7080 62.2143
" />
<path d="M365.7080 62.2143
L365.7556 62.1190
" />
<path d="M365.8508 63.1667
L365.1842 63.1667
" />
<path d="M366.2318 62.9286
L365.5175 62.6905
" />
<path d="M365.5175 62.6905
L365.5175 63.3095
" />
<path d="M365.2794 64.2619
L365.2318 64.2143
" />
<path d="M365.2318 64.2143
L365.1842 64.0714
" />
<path d="M365.1842 64.0714
L365.1842 63.9762
" />
<path d="M365.1842 63.9762
L365.2318 63.8333
" />
<path d="M365.2318 63.8333
L365.3270 63.7381
" />
<path d="M365.3270 63.7381
L365.4223 63.6905
" />
<path d="M365.4223 63.6905
L365.6128 63.6429
" />
<path d="M365.6128 63.6429
L365.7556 63.6429
" />
<path d="M365.7556 63.6429
L365.9461 63.6905
" />
<path d="M365.9461 63.6905
L366.0413 63.7381
" />
<path d="M366.0413 63.7381
L366.1366 63.8333
" />
<path d="M366.1366 63.8333
L366.1842 63.9762
" />
<path d="M366.1842 63.9762
L366.1842 64.0714
" />
<path d="M366.1842 64.0714
L366.1366 64.2143
" />
<path d="M366.1366 64.2143
L366.0889 64.2619
" />
<path d="M365.1842 65.2143
L365.1842 64.6429
" />
<path d="M365.1842 64.9286
L366.1842 64.9286
" />
<path d="M366.1842 64.9286
L366.0413 64.8333
" />
<path d="M366.0413 64.8333
L365.9461 64.7381
" />
<path d="M365.9461 64.7381
L365.8985 64.6429
" />
<path d="M366.1842 65.5476
L366.1842 66.1667
" />
<path d="M366.1842 66.1667
L365.8032 65.8333
" />
<path d="M365.8032 65.8333
L365.8032 65.9762
" />
<path d="M365.8032 65.9762
L365.7556 66.0714
" />
<path d="M365.7556 66.0714
L365.7080 66.1190
" />
<path d="M365.7080 66.1190
L365.6128 66.1667
" />
<path d="M365.6128 66.1667
L365.3747 66.1667
" />
<path d="M365.3747 66.1667
L365.2794 66.1190
" />
<path d="M365.2794 66.1190
L365.2318 66.0714
" />
<path d="M365.2318 66.0714
L365.1842 65.9762
" />
<path d="M365.1842 65.9762
L365.1842 65.6905
" />
<path d="M365.1842 65.6905
L365.2318 65.5952
" />
<path d="M365.2318 65.5952
L365.2794 65.5476
" />
</g></g>
<g style="fill:none; 
stroke:#000000; stroke-width:0.0500; stroke-opacity:1; 
stroke-linecap:round; stroke-linejoin:round;">
<g transform="rotate(90.000000 363.2390 62.5000)">
<text x="363.2390" y="62.6600"
textLength="0.7108" font-size="0.4267" lengthAdjust="spacingAndGlyphs"
text-anchor="middle" opacity="0" stroke-opacity="0">D5</text>
</g>
<g class="stroked-text"><desc>D5</desc>
<path d="M363.0936 62.2638
L363.4136 62.2638
" />
<path d="M363.4136 62.2638
L363.4136 62.3400
" />
<path d="M363.4136 62.3400
L363.3983 62.3857
" />
<path d="M363.3983 62.3857
L363.3678 62.4162
" />
<path d="M363.3678 62.4162
L363.3374 62.4314
" />
<path d="M363.3374 62.4314
L363.2764 62.4467
" />
<path d="M363.2764 62.4467
L363.2307 62.4467
" />
<path d="M363.2307 62.4467
L363.1698 62.4314
" />
<path d="M363.1698 62.4314
L363.1393 62.4162
" />
<path d="M363.1393 62.4162
L363.1088 62.3857
" />
<path d="M363.1088 62.3857
L363.0936 62.3400
" />
<path d="M363.0936 62.3400
L363.0936 62.2638
" />
<path d="M363.4136 62.7362
L363.4136 62.5838
" />
<path d="M363.4136 62.5838
L363.2612 62.5686
" />
<path d="M363.2612 62.5686
L363.2764 62.5838
" />
<path d="M363.2764 62.5838
L363.2917 62.6143
" />
<path d="M363.2917 62.6143
L363.2917 62.6905
" />
<path d="M363.2917 62.6905
L363.2764 62.7210
" />
<path d="M363.2764 62.7210
L363.2612 62.7362
" />
<path d="M363.2612 62.7362
L363.2307 62.7514
" />
<path d="M363.2307 62.7514
L363.1545 62.7514
" />
<path d="M363.1545 62.7514
L363.1240 62.7362
" />
<path d="M363.1240 62.7362
L363.1088 62.7210
" />
<path d="M363.1088 62.7210
L363.0936 62.6905
" />
<path d="M363.0936 62.6905
L363.0936 62.6143
" />
<path d="M363.0936 62.6143
L363.1088 62.5838
" />
<path d="M363.1088 62.5838
L363.1240 62.5686
" />
</g></g>
<g style="fill:none; 
stroke:#000000; stroke-width:0.1500; stroke-opacity:1; 
stroke-linecap:round; stroke-linejoin:round;">
<g transform="rotate(90.000000 369.1890 62.4375)">
<text x="369.1890" y="62.9375"
textLength="7.9643" font-size="1.3333" lengthAdjust="spacingAndGlyphs"
text-anchor="middle" opacity="0" stroke-opacity="0">BZX84C13</text>
</g>
<g class="stroked-text"><desc>BZX84C13</desc>
<path d="M369.2580 59.1518
L369.2104 59.2946
" />
<path d="M369.2104 59.2946
L369.1628 59.3423
" />
<path d="M369.1628 59.3423
L369.0675 59.3899
" />
<path d="M369.0675 59.3899
L368.9247 59.3899
" />
<path d="M368.9247 59.3899
L368.8294 59.3423
" />
<path d="M368.8294 59.3423
L368.7818 59.2946
" />
<path d="M368.7818 59.2946
L368.7342 59.1994
" />
<path d="M368.7342 59.1994
L368.7342 58.8185
" />
<path d="M368.7342 58.8185
L369.7342 58.8185
" />
<path d="M369.7342 58.8185
L369.7342 59.1518
" />
<path d="M369.7342 59.1518
L369.6866 59.2470
" />
<path d="M369.6866 59.2470
L369.6389 59.2946
" />
<path d="M369.6389 59.2946
L369.5437 59.3423
" />
<path d="M369.5437 59.3423
L369.4485 59.3423
" />
<path d="M369.4485 59.3423
L369.3532 59.2946
" />
<path d="M369.3532 59.2946
L369.3056 59.2470
" />
<path d="M369.3056 59.2470
L369.2580 59.1518
" />
<path d="M369.2580 59.1518
L369.2580 58.8185
" />
<path d="M369.7342 59.7232
L369.7342 60.3899
" />
<path d="M369.7342 60.3899
L368.7342 59.7232
" />
<path d="M368.7342 59.7232
L368.7342 60.3899
" />
<path d="M369.7342 60.6756
L368.7342 61.3423
" />
<path d="M369.7342 61.3423
L368.7342 60.6756
" />
<path d="M369.3056 61.8661
L369.3532 61.7708
" />
<path d="M369.3532 61.7708
L369.4008 61.7232
" />
<path d="M369.4008 61.7232
L369.4961 61.6756
" />
<path d="M369.4961 61.6756
L369.5437 61.6756
" />
<path d="M369.5437 61.6756
L369.6389 61.7232
" />
<path d="M369.6389 61.7232
L369.6866 61.7708
" />
<path d="M369.6866 61.7708
L369.7342 61.8661
" />
<path d="M369.7342 61.8661
L369.7342 62.0565
" />
<path d="M369.7342 62.0565
L369.6866 62.1518
" />
<path d="M369.6866 62.1518
L369.6389 62.1994
" />
<path d="M369.6389 62.1994
L369.5437 62.2470
" />
<path d="M369.5437 62.2470
L369.4961 62.2470
" />
<path d="M369.4961 62.2470
L369.4008 62.1994
" />
<path d="M369.4008 62.1994
L369.3532 62.1518
" />
<path d="M369.3532 62.1518
L369.3056 62.0565
" />
<path d="M369.3056 62.0565
L369.3056 61.8661
" />
<path d="M369.3056 61.8661
L369.2580 61.7708
" />
<path d="M369.2580 61.7708
L369.2104 61.7232
" />
<path d="M369.2104 61.7232
L369.1151 61.6756
" />
<path d="M369.1151 61.6756
L368.9247 61.6756
" />
<path d="M368.9247 61.6756
L368.8294 61.7232
" />
<path d="M368.8294 61.7232
L368.7818 61.7708
" />
<path d="M368.7818 61.7708
L368.7342 61.8661
" />
<path d="M368.7342 61.8661
L368.7342 62.0565
" />
<path d="M368.7342 62.0565
L368.7818 62.1518
" />
<path d="M368.7818 62.1518
L368.8294 62.1994
" />
<path d="M368.8294 62.1994
L368.9247 62.2470
" />
<path d="M368.9247 62.2470
L369.1151 62.2470
" />
<path d="M369.1151 62.2470
L369.2104 62.1994
" />
<path d="M369.2104 62.1994
L369.2580 62.1518
" />
<path d="M369.2580 62.1518
L369.3056 62.0565
" />
<path d="M369.4008 63.1042
L368.7342 63.1042
" />
<path d="M369.7818 62.8661
L369.0675 62.6280
" />
<path d="M369.0675 62.6280
L369.0675 63.2470
" />
<path d="M368.8294 64.1994
L368.7818 64.1518
" />
<path d="M368.7818 64.1518
L368.7342 64.0089
" />
<path d="M368.7342 64.0089
L368.7342 63.9137
" />
<path d="M368.7342 63.9137
L368.7818 63.7708
" />
<path d="M368.7818 63.7708
L368.8770 63.6756
" />
<path d="M368.8770 63.6756
L368.9723 63.6280
" />
<path d="M368.9723 63.6280
L369.1628 63.5804
" />
<path d="M369.1628 63.5804
L369.3056 63.5804
" />
<path d="M369.3056 63.5804
L369.4961 63.6280
" />
<path d="M369.4961 63.6280
L369.5913 63.6756
" />
<path d="M369.5913 63.6756
L369.6866 63.7708
" />
<path d="M369.6866 63.7708
L369.7342 63.9137
" />
<path d="M369.7342 63.9137
L369.7342 64.0089
" />
<path d="M369.7342 64.0089
L369.6866 64.1518
" />
<path d="M369.6866 64.1518
L369.6389 64.1994
" />
<path d="M368.7342 65.1518
L368.7342 64.5804
" />
<path d="M368.7342 64.8661
L369.7342 64.8661
" />
<path d="M369.7342 64.8661
L369.5913 64.7708
" />
<path d="M369.5913 64.7708
L369.4961 64.6756
" />
<path d="M369.4961 64.6756
L369.4485 64.5804
" />
<path d="M369.7342 65.4851
L369.7342 66.1042
" />
<path d="M369.7342 66.1042
L369.3532 65.7708
" />
<path d="M369.3532 65.7708
L369.3532 65.9137
" />
<path d="M369.3532 65.9137
L369.3056 66.0089
" />
<path d="M369.3056 66.0089
L369.2580 66.0565
" />
<path d="M369.2580 66.0565
L369.1628 66.1042
" />
<path d="M369.1628 66.1042
L368.9247 66.1042
" />
<path d="M368.9247 66.1042
L368.8294 66.0565
" />
<path d="M368.8294 66.0565
L368.7818 66.0089
" />
<path d="M368.7818 66.0089
L368.7342 65.9137
" />
<path d="M368.7342 65.9137
L368.7342 65.6280
" />
<path d="M368.7342 65.6280
L368.7818 65.5327
" />
<path d="M368.7818 65.5327
L368.8294 65.4851
" />
</g></g>
<g style="fill:none; 
stroke:#000000; stroke-width:0.0500; stroke-opacity:1; 
stroke-linecap:round; stroke-linejoin:round;">
<g transform="rotate(90.000000 366.7890 62.4375)">
<text x="366.7890" y="62.5975"
textLength="0.7108" font-size="0.4267" lengthAdjust="spacingAndGlyphs"
text-anchor="middle" opacity="0" stroke-opacity="0">D7</text>
</g>
<g class="stroked-text"><desc>D7</desc>
<path d="M366.6436 62.2013
L366.9636 62.2013
" />
<path d="M366.9636 62.2013
L366.9636 62.2775
" />
<path d="M366.9636 62.2775
L366.9483 62.3232
" />
<path d="M366.9483 62.3232
L366.9178 62.3537
" />
<path d="M366.9178 62.3537
L366.8874 62.3689
" />
<path d="M366.8874 62.3689
L366.8264 62.3842
" />
<path d="M366.8264 62.3842
L366.7807 62.3842
" />
<path d="M366.7807 62.3842
L366.7198 62.3689
" />
<path d="M366.7198 62.3689
L366.6893 62.3537
" />
<path d="M366.6893 62.3537
L366.6588 62.3232
" />
<path d="M366.6588 62.3232
L366.6436 62.2775
" />
<path d="M366.6436 62.2775
L366.6436 62.2013
" />
<path d="M366.9636 62.4908
L366.9636 62.7042
" />
<path d="M366.9636 62.7042
L366.6436 62.5670
" />
</g></g>
<g style="fill:none; 
stroke:#000000; stroke-width:0.1500; stroke-opacity:1; 
stroke-linecap:round; stroke-linejoin:round;">
<text x="403.5765" y="44.6100"
textLength="8.2976" font-size="1.3333" lengthAdjust="spacingAndGlyphs"
text-anchor="middle" opacity="0" stroke-opacity="0">100n/6.3V</text>
<g class="stroked-text"><desc>100n/6.3V</desc>
<path d="M400.3146 44.5648
L399.7432 44.5648
" />
<path d="M400.0289 44.5648
L400.0289 43.5648
" />
<path d="M400.0289 43.5648
L399.9336 43.7077
" />
<path d="M399.9336 43.7077
L399.8384 43.8029
" />
<path d="M399.8384 43.8029
L399.7432 43.8505
" />
<path d="M400.9336 43.5648
L401.0289 43.5648
" />
<path d="M401.0289 43.5648
L401.1241 43.6124
" />
<path d="M401.1241 43.6124
L401.1717 43.6601
" />
<path d="M401.1717 43.6601
L401.2194 43.7553
" />
<path d="M401.2194 43.7553
L401.2670 43.9458
" />
<path d="M401.2670 43.9458
L401.2670 44.1839
" />
<path d="M401.2670 44.1839
L401.2194 44.3743
" />
<path d="M401.2194 44.3743
L401.1717 44.4696
" />
<path d="M401.1717 44.4696
L401.1241 44.5172
" />
<path d="M401.1241 44.5172
L401.0289 44.5648
" />
<path d="M401.0289 44.5648
L400.9336 44.5648
" />
<path d="M400.9336 44.5648
L400.8384 44.5172
" />
<path d="M400.8384 44.5172
L400.7908 44.4696
" />
<path d="M400.7908 44.4696
L400.7432 44.3743
" />
<path d="M400.7432 44.3743
L400.6955 44.1839
" />
<path d="M400.6955 44.1839
L400.6955 43.9458
" />
<path d="M400.6955 43.9458
L400.7432 43.7553
" />
<path d="M400.7432 43.7553
L400.7908 43.6601
" />
<path d="M400.7908 43.6601
L400.8384 43.6124
" />
<path d="M400.8384 43.6124
L400.9336 43.5648
" />
<path d="M401.8860 43.5648
L401.9813 43.5648
" />
<path d="M401.9813 43.5648
L402.0765 43.6124
" />
<path d="M402.0765 43.6124
L402.1241 43.6601
" />
<path d="M402.1241 43.6601
L402.1717 43.7553
" />
<path d="M402.1717 43.7553
L402.2194 43.9458
" />
<path d="M402.2194 43.9458
L402.2194 44.1839
" />
<path d="M402.2194 44.1839
L402.1717 44.3743
" />
<path d="M402.1717 44.3743
L402.1241 44.4696
" />
<path d="M402.1241 44.4696
L402.0765 44.5172
" />
<path d="M402.0765 44.5172
L401.9813 44.5648
" />
<path d="M401.9813 44.5648
L401.8860 44.5648
" />
<path d="M401.8860 44.5648
L401.7908 44.5172
" />
<path d="M401.7908 44.5172
L401.7432 44.4696
" />
<path d="M401.7432 44.4696
L401.6955 44.3743
" />
<path d="M401.6955 44.3743
L401.6479 44.1839
" />
<path d="M401.6479 44.1839
L401.6479 43.9458
" />
<path d="M401.6479 43.9458
L401.6955 43.7553
" />
<path d="M401.6955 43.7553
L401.7432 43.6601
" />
<path d="M401.7432 43.6601
L401.7908 43.6124
" />
<path d="M401.7908 43.6124
L401.8860 43.5648
" />
<path d="M402.6479 43.8982
L402.6479 44.5648
" />
<path d="M402.6479 43.9934
L402.6955 43.9458
" />
<path d="M402.6955 43.9458
L402.7908 43.8982
" />
<path d="M402.7908 43.8982
L402.9336 43.8982
" />
<path d="M402.9336 43.8982
L403.0289 43.9458
" />
<path d="M403.0289 43.9458
L403.0765 44.0410
" />
<path d="M403.0765 44.0410
L403.0765 44.5648
" />
<path d="M404.2670 43.5172
L403.4098 44.8029
" />
<path d="M405.0289 43.5648
L404.8384 43.5648
" />
<path d="M404.8384 43.5648
L404.7432 43.6124
" />
<path d="M404.7432 43.6124
L404.6955 43.6601
" />
<path d="M404.6955 43.6601
L404.6003 43.8029
" />
<path d="M404.6003 43.8029
L404.5527 43.9934
" />
<path d="M404.5527 43.9934
L404.5527 44.3743
" />
<path d="M404.5527 44.3743
L404.6003 44.4696
" />
<path d="M404.6003 44.4696
L404.6479 44.5172
" />
<path d="M404.6479 44.5172
L404.7432 44.5648
" />
<path d="M404.7432 44.5648
L404.9336 44.5648
" />
<path d="M404.9336 44.5648
L405.0289 44.5172
" />
<path d="M405.0289 44.5172
L405.0765 44.4696
" />
<path d="M405.0765 44.4696
L405.1241 44.3743
" />
<path d="M405.1241 44.3743
L405.1241 44.1362
" />
<path d="M405.1241 44.1362
L405.0765 44.0410
" />
<path d="M405.0765 44.0410
L405.0289 43.9934
" />
<path d="M405.0289 43.9934
L404.9336 43.9458
" />
<path d="M404.9336 43.9458
L404.7432 43.9458
" />
<path d="M404.7432 43.9458
L404.6479 43.9934
" />
<path d="M404.6479 43.9934
L404.6003 44.0410
" />
<path d="M404.6003 44.0410
L404.5527 44.1362
" />
<path d="M405.5527 44.4696
L405.6003 44.5172
" />
<path d="M405.6003 44.5172
L405.5527 44.5648
" />
<path d="M405.5527 44.5648
L405.5051 44.5172
" />
<path d="M405.5051 44.5172
L405.5527 44.4696
" />
<path d="M405.5527 44.4696
L405.5527 44.5648
" />
<path d="M405.9336 43.5648
L406.5527 43.5648
" />
<path d="M406.5527 43.5648
L406.2194 43.9458
" />
<path d="M406.2194 43.9458
L406.3622 43.9458
" />
<path d="M406.3622 43.9458
L406.4575 43.9934
" />
<path d="M406.4575 43.9934
L406.5051 44.0410
" />
<path d="M406.5051 44.0410
L406.5527 44.1362
" />
<path d="M406.5527 44.1362
L406.5527 44.3743
" />
<path d="M406.5527 44.3743
L406.5051 44.4696
" />
<path d="M406.5051 44.4696
L406.4575 44.5172
" />
<path d="M406.4575 44.5172
L406.3622 44.5648
" />
<path d="M406.3622 44.5648
L406.0765 44.5648
" />
<path d="M406.0765 44.5648
L405.9813 44.5172
" />
<path d="M405.9813 44.5172
L405.9336 44.4696
" />
<path d="M406.8384 43.5648
L407.1717 44.5648
" />
<path d="M407.1717 44.5648
L407.5051 43.5648
" />
</g></g>
<g style="fill:none; 
stroke:#000000; stroke-width:0.0400; stroke-opacity:1; 
stroke-linecap:round; stroke-linejoin:round;">
<text x="403.5765" y="45.3950"
textLength="0.5581" font-size="0.3333" lengthAdjust="spacingAndGlyphs"
text-anchor="middle" opacity="0" stroke-opacity="0">C7</text>
<g class="stroked-text"><desc>C7</desc>
<path d="M403.5348 45.3598
L403.5229 45.3717
" />
<path d="M403.5229 45.3717
L403.4872 45.3836
" />
<path d="M403.4872 45.3836
L403.4634 45.3836
" />
<path d="M403.4634 45.3836
L403.4277 45.3717
" />
<path d="M403.4277 45.3717
L403.4039 45.3479
" />
<path d="M403.4039 45.3479
L403.3920 45.3240
" />
<path d="M403.3920 45.3240
L403.3801 45.2764
" />
<path d="M403.3801 45.2764
L403.3801 45.2407
" />
<path d="M403.3801 45.2407
L403.3920 45.1931
" />
<path d="M403.3920 45.1931
L403.4039 45.1693
" />
<path d="M403.4039 45.1693
L403.4277 45.1455
" />
<path d="M403.4277 45.1455
L403.4634 45.1336
" />
<path d="M403.4634 45.1336
L403.4872 45.1336
" />
<path d="M403.4872 45.1336
L403.5229 45.1455
" />
<path d="M403.5229 45.1455
L403.5348 45.1574
" />
<path d="M403.6182 45.1336
L403.7848 45.1336
" />
<path d="M403.7848 45.1336
L403.6777 45.3836
" />
</g></g>
<g style="fill:none; 
stroke:#000000; stroke-width:0.1000; stroke-opacity:1; 
stroke-linecap:round; stroke-linejoin:round;">
<path d="M373.6390 67.7000
L373.6390 69.3000
" />
<path d="M373.6390 69.3000
L372.8390 69.3000
" />
<path d="M372.8390 67.7000
L373.6390 67.7000
" />
<path d="M372.8390 69.3000
L372.8390 67.7000
" />
<path d="M397.7390 34.5000
L397.7390 35.0000
" />
<path d="M397.7390 35.0000
L396.7390 35.0000
" />
<path d="M396.7390 34.5000
L397.7390 34.5000
" />
<path d="M396.7390 35.0000
L396.7390 34.5000
" />
<path d="M371.7590 65.8150
L369.0590 65.8150
" />
<path d="M371.7590 66.5650
L371.7590 65.8150
" />
<path d="M371.7590 70.3750
L369.0590 70.3750
" />
<path d="M371.7590 71.1250
L371.7590 70.3750
" />
<path d="M369.0590 66.5650
L371.7590 66.5650
" />
<path d="M368.6540 71.1250
L371.7590 71.1250
" />
<path d="M362.8390 71.1700
L361.8390 71.1700
" />
<path d="M361.8390 65.7700
L362.8390 65.7700
" />
<path d="M361.8390 71.1700
L361.8390 65.7700
" />
<path style="fill:none; 
stroke:#000000; stroke-width:0.1000; stroke-opacity:1; 
stroke-linecap:round; stroke-linejoin:round;fill:none"
d="M 362.8390,71.7200
368.0590,71.7200
369.0590,70.7200
369.0590,65.2200
362.8390,65.2200
Z" /> 
<path d="M385.2890 64.3500
L385.2890 67.6500
" />
<path d="M385.2890 67.6500
L383.6890 67.6500
" />
<path d="M384.8890 66.2500
L384.0890 66.2500
" />
<path d="M384.4890 65.2500
L384.4890 65.6500
" />
<path d="M384.4890 65.6500
L385.0390 65.6500
" />
<path d="M384.4890 65.6500
L384.8890 66.2500
" />
<path d="M384.4890 65.6500
L383.9390 65.6500
" />
<path d="M384.4890 66.2500
L384.4890 66.7500
" />
<path d="M384.0890 66.2500
L384.4890 65.6500
" />
<path d="M383.6890 64.3500
L385.2890 64.3500
" />
<path d="M383.6890 67.6500
L383.6890 64.3500
" />
<path d="M360.9890 54.9500
L360.9890 59.5500
" />
<path d="M360.9890 59.5500
L357.9890 59.5500
" />
<path d="M360.2393 56.7488
L358.6899 56.7488
" />
<path d="M359.4900 56.7488
L359.4900 55.7506
" />
<path d="M359.4900 57.8994
L360.2393 56.7488
" />
<path d="M359.4900 57.8994
L359.4900 58.8011
" />
<path d="M359.4900 57.8994
L358.6899 56.7488
" />
<path d="M358.6899 57.8994
L360.2901 57.8994
" />
<path d="M357.9890 54.9500
L360.9890 54.9500
" />
<path d="M357.9890 54.9500
L357.9890 59.5500
" />
<path style="fill:none; 
stroke:#000000; stroke-width:0.1000; stroke-opacity:1; 
stroke-linecap:round; stroke-linejoin:round;fill:none"
d="M 361.7890,62.8250
362.1140,63.1500
364.6890,63.1500
364.6890,61.8500
361.7890,61.8500
Z" /> 
<path style="fill:none; 
stroke:#000000; stroke-width:0.1000; stroke-opacity:1; 
stroke-linecap:round; stroke-linejoin:round;fill:none"
d="M 365.3390,62.7625
365.6640,63.0875
368.2390,63.0875
368.2390,61.7875
365.3390,61.7875
Z" /> 
<path d="M404.0765 45.0200
L404.0765 45.5200
" />
<path d="M404.0765 45.5200
L403.0765 45.5200
" />
<path d="M403.0765 45.0200
L404.0765 45.0200
" />
<path d="M403.0765 45.5200
L403.0765 45.0200
" />
</g> 
</svg>
