<?xml version="1.0" standalone="no"?>
 <!DOCTYPE svg PUBLIC "-//W3C//DTD SVG 1.1//EN" 
 "http://www.w3.org/Graphics/SVG/1.1/DTD/svg11.dtd"> 
<svg
  xmlns:svg="http://www.w3.org/2000/svg"
  xmlns="http://www.w3.org/2000/svg"
  xmlns:xlink="http://www.w3.org/1999/xlink"
  version="1.1"
  width="419.9890mm" height="297.0022mm" viewBox="0.0000 0.0000 419.9890 297.0022">
<title>SVG Image created as ECAD_main-B_Paste2.svg date 2025/10/27 20:24:59 </title>
  <desc>Image generated by PCBNEW </desc>
<g style="fill:#000000; fill-opacity:1.0000;stroke:#000000; stroke-opacity:1.0000;
stroke-linecap:round; stroke-linejoin:round;"
 transform="translate(0 0) scale(1 1)">
<path style="fill:#000000; fill-opacity:1.0000; stroke:none;fill-rule:evenodd;"
d="M 373.0015,67.1000
372.9106,67.1181
372.8336,67.1696
372.7821,67.2466
372.7640,67.3375
372.7640,67.9375
372.7821,68.0284
372.8336,68.1054
372.9106,68.1569
373.0015,68.1750
373.4765,68.1750
373.5674,68.1569
373.6444,68.1054
373.6959,68.0284
373.7140,67.9375
373.7140,67.3375
373.6959,67.2466
373.6444,67.1696
373.5674,67.1181
373.4765,67.1000
Z" /> 
<path style="fill:#000000; fill-opacity:1.0000; stroke:none;fill-rule:evenodd;"
d="M 373.0015,68.8250
372.9106,68.8431
372.8336,68.8946
372.7821,68.9716
372.7640,69.0625
372.7640,69.6625
372.7821,69.7534
372.8336,69.8304
372.9106,69.8819
373.0015,69.9000
373.4765,69.9000
373.5674,69.8819
373.6444,69.8304
373.6959,69.7534
373.7140,69.6625
373.7140,69.0625
373.6959,68.9716
373.6444,68.8946
373.5674,68.8431
373.4765,68.8250
Z" /> 
<path style="fill:#000000; fill-opacity:1.0000; stroke:none;fill-rule:evenodd;"
d="M 396.4790,34.9200
396.4897,34.9736
396.5200,35.0190
396.5654,35.0493
396.6190,35.0600
396.8990,35.0600
396.9526,35.0493
396.9980,35.0190
397.0283,34.9736
397.0390,34.9200
397.0390,34.5800
397.0283,34.5264
396.9980,34.4810
396.9526,34.4507
396.8990,34.4400
396.6190,34.4400
396.5654,34.4507
396.5200,34.4810
396.4897,34.5264
396.4790,34.5800
Z" /> 
<path style="fill:#000000; fill-opacity:1.0000; stroke:none;fill-rule:evenodd;"
d="M 397.4390,34.9200
397.4497,34.9736
397.4800,35.0190
397.5254,35.0493
397.5790,35.0600
397.8590,35.0600
397.9126,35.0493
397.9580,35.0190
397.9883,34.9736
397.9990,34.9200
397.9990,34.5800
397.9883,34.5264
397.9580,34.4810
397.9126,34.4507
397.8590,34.4400
397.5790,34.4400
397.5254,34.4507
397.4800,34.4810
397.4497,34.5264
397.4390,34.5800
Z" /> 
<path style="fill:#000000; fill-opacity:1.0000; stroke:none;fill-rule:evenodd;"
d="M 367.8890,65.8200
367.8700,65.7243
367.8158,65.6432
367.7347,65.5890
367.6390,65.5700
365.0890,65.5700
364.9933,65.5890
364.9122,65.6432
364.8580,65.7243
364.8390,65.8200
364.8390,68.0700
364.8580,68.1657
364.9122,68.2468
364.9933,68.3010
365.0890,68.3200
367.6390,68.3200
367.7347,68.3010
367.8158,68.2468
367.8700,68.1657
367.8890,68.0700
Z" /> 
<path style="fill:#000000; fill-opacity:1.0000; stroke:none;fill-rule:evenodd;"
d="M 367.8890,68.8700
367.8700,68.7743
367.8158,68.6932
367.7347,68.6390
367.6390,68.6200
365.0890,68.6200
364.9933,68.6390
364.9122,68.6932
364.8580,68.7743
364.8390,68.8700
364.8390,71.1200
364.8580,71.2157
364.9122,71.2968
364.9933,71.3510
365.0890,71.3700
367.6390,71.3700
367.7347,71.3510
367.8158,71.2968
367.8700,71.2157
367.8890,71.1200
Z" /> 
<path style="fill:#000000; fill-opacity:1.0000; stroke:none;fill-rule:evenodd;"
d="M 364.5390,65.8200
364.5200,65.7243
364.4658,65.6432
364.3847,65.5890
364.2890,65.5700
361.7390,65.5700
361.6433,65.5890
361.5622,65.6432
361.5080,65.7243
361.4890,65.8200
361.4890,68.0700
361.5080,68.1657
361.5622,68.2468
361.6433,68.3010
361.7390,68.3200
364.2890,68.3200
364.3847,68.3010
364.4658,68.2468
364.5200,68.1657
364.5390,68.0700
Z" /> 
<path style="fill:#000000; fill-opacity:1.0000; stroke:none;fill-rule:evenodd;"
d="M 364.5390,68.8700
364.5200,68.7743
364.4658,68.6932
364.3847,68.6390
364.2890,68.6200
361.7390,68.6200
361.6433,68.6390
361.5622,68.6932
361.5080,68.7743
361.4890,68.8700
361.4890,71.1200
361.5080,71.2157
361.5622,71.2968
361.6433,71.3510
361.7390,71.3700
364.2890,71.3700
364.3847,71.3510
364.4658,71.2968
364.5200,71.2157
364.5390,71.1200
Z" /> 
<path style="fill:#000000; fill-opacity:1.0000; stroke:none;fill-rule:evenodd;"
d="M 372.0890,70.4000
372.0700,70.3043
372.0158,70.2232
371.9347,70.1690
371.8390,70.1500
370.1390,70.1500
370.0433,70.1690
369.9622,70.2232
369.9080,70.3043
369.8890,70.4000
369.8890,71.1000
369.9080,71.1957
369.9622,71.2768
370.0433,71.3310
370.1390,71.3500
371.8390,71.3500
371.9347,71.3310
372.0158,71.2768
372.0700,71.1957
372.0890,71.1000
Z" /> 
<path style="fill:#000000; fill-opacity:1.0000; stroke:none;fill-rule:evenodd;"
d="M 372.0890,65.8400
372.0700,65.7443
372.0158,65.6632
371.9347,65.6090
371.8390,65.5900
370.1390,65.5900
370.0433,65.6090
369.9622,65.6632
369.9080,65.7443
369.8890,65.8400
369.8890,66.5400
369.9080,66.6357
369.9622,66.7168
370.0433,66.7710
370.1390,66.7900
371.8390,66.7900
371.9347,66.7710
372.0158,66.7168
372.0700,66.6357
372.0890,66.5400
Z" /> 
<path style="fill:#000000; fill-opacity:1.0000; stroke:none;fill-rule:evenodd;"
d="M 383.8890,63.6000
383.7933,63.6190
383.7122,63.6732
383.6580,63.7543
383.6390,63.8500
383.6390,64.6500
383.6580,64.7457
383.7122,64.8268
383.7933,64.8810
383.8890,64.9000
385.0890,64.9000
385.1847,64.8810
385.2658,64.8268
385.3200,64.7457
385.3390,64.6500
385.3390,63.8500
385.3200,63.7543
385.2658,63.6732
385.1847,63.6190
385.0890,63.6000
Z" /> 
<path style="fill:#000000; fill-opacity:1.0000; stroke:none;fill-rule:evenodd;"
d="M 383.8890,67.1000
383.7933,67.1190
383.7122,67.1732
383.6580,67.2543
383.6390,67.3500
383.6390,68.1500
383.6580,68.2457
383.7122,68.3268
383.7933,68.3810
383.8890,68.4000
385.0890,68.4000
385.1847,68.3810
385.2658,68.3268
385.3200,68.2457
385.3390,68.1500
385.3390,67.3500
385.3200,67.2543
385.2658,67.1732
385.1847,67.1190
385.0890,67.1000
Z" /> 
<path style="fill:#000000; fill-opacity:1.0000; stroke:none;fill-rule:evenodd;"
d="M 360.1390,60.5000
360.2347,60.4810
360.3158,60.4268
360.3700,60.3457
360.3890,60.2500
360.3890,58.2500
360.3700,58.1543
360.3158,58.0732
360.2347,58.0190
360.1390,58.0000
358.8390,58.0000
358.7433,58.0190
358.6622,58.0732
358.6080,58.1543
358.5890,58.2500
358.5890,60.2500
358.6080,60.3457
358.6622,60.4268
358.7433,60.4810
358.8390,60.5000
Z" /> 
<path style="fill:#000000; fill-opacity:1.0000; stroke:none;fill-rule:evenodd;"
d="M 360.1390,56.5000
360.2347,56.4810
360.3158,56.4268
360.3700,56.3457
360.3890,56.2500
360.3890,54.2500
360.3700,54.1543
360.3158,54.0732
360.2347,54.0190
360.1390,54.0000
358.8390,54.0000
358.7433,54.0190
358.6622,54.0732
358.6080,54.1543
358.5890,54.2500
358.5890,56.2500
358.6080,56.3457
358.6622,56.4268
358.7433,56.4810
358.8390,56.5000
Z" /> 
<path style="fill:#000000; fill-opacity:1.0000; stroke:none;fill-rule:evenodd;"
d="M 362.4390,64.1750
362.4964,64.1636
362.5451,64.1311
362.5776,64.0824
362.5890,64.0250
362.5890,62.8500
362.5776,62.7926
362.5451,62.7439
362.4964,62.7114
362.4390,62.7000
362.1390,62.7000
362.0816,62.7114
362.0329,62.7439
362.0004,62.7926
361.9890,62.8500
361.9890,64.0250
362.0004,64.0824
362.0329,64.1311
362.0816,64.1636
362.1390,64.1750
Z" /> 
<path style="fill:#000000; fill-opacity:1.0000; stroke:none;fill-rule:evenodd;"
d="M 364.3390,64.1750
364.3964,64.1636
364.4451,64.1311
364.4776,64.0824
364.4890,64.0250
364.4890,62.8500
364.4776,62.7926
364.4451,62.7439
364.3964,62.7114
364.3390,62.7000
364.0390,62.7000
363.9816,62.7114
363.9329,62.7439
363.9004,62.7926
363.8890,62.8500
363.8890,64.0250
363.9004,64.0824
363.9329,64.1311
363.9816,64.1636
364.0390,64.1750
Z" /> 
<path style="fill:#000000; fill-opacity:1.0000; stroke:none;fill-rule:evenodd;"
d="M 363.3890,62.3000
363.4464,62.2886
363.4951,62.2561
363.5276,62.2074
363.5390,62.1500
363.5390,60.9750
363.5276,60.9176
363.4951,60.8689
363.4464,60.8364
363.3890,60.8250
363.0890,60.8250
363.0316,60.8364
362.9829,60.8689
362.9504,60.9176
362.9390,60.9750
362.9390,62.1500
362.9504,62.2074
362.9829,62.2561
363.0316,62.2886
363.0890,62.3000
Z" /> 
<path style="fill:#000000; fill-opacity:1.0000; stroke:none;fill-rule:evenodd;"
d="M 365.9890,64.1125
366.0464,64.1011
366.0951,64.0686
366.1276,64.0199
366.1390,63.9625
366.1390,62.7875
366.1276,62.7301
366.0951,62.6814
366.0464,62.6489
365.9890,62.6375
365.6890,62.6375
365.6316,62.6489
365.5829,62.6814
365.5504,62.7301
365.5390,62.7875
365.5390,63.9625
365.5504,64.0199
365.5829,64.0686
365.6316,64.1011
365.6890,64.1125
Z" /> 
<path style="fill:#000000; fill-opacity:1.0000; stroke:none;fill-rule:evenodd;"
d="M 367.8890,64.1125
367.9464,64.1011
367.9951,64.0686
368.0276,64.0199
368.0390,63.9625
368.0390,62.7875
368.0276,62.7301
367.9951,62.6814
367.9464,62.6489
367.8890,62.6375
367.5890,62.6375
367.5316,62.6489
367.4829,62.6814
367.4504,62.7301
367.4390,62.7875
367.4390,63.9625
367.4504,64.0199
367.4829,64.0686
367.5316,64.1011
367.5890,64.1125
Z" /> 
<path style="fill:#000000; fill-opacity:1.0000; stroke:none;fill-rule:evenodd;"
d="M 366.9390,62.2375
366.9964,62.2261
367.0451,62.1936
367.0776,62.1449
367.0890,62.0875
367.0890,60.9125
367.0776,60.8551
367.0451,60.8064
366.9964,60.7739
366.9390,60.7625
366.6390,60.7625
366.5816,60.7739
366.5329,60.8064
366.5004,60.8551
366.4890,60.9125
366.4890,62.0875
366.5004,62.1449
366.5329,62.1936
366.5816,62.2261
366.6390,62.2375
Z" /> 
<path style="fill:#000000; fill-opacity:1.0000; stroke:none;fill-rule:evenodd;"
d="M 404.3365,45.1000
404.3258,45.0464
404.2955,45.0010
404.2501,44.9707
404.1965,44.9600
403.9165,44.9600
403.8629,44.9707
403.8175,45.0010
403.7872,45.0464
403.7765,45.1000
403.7765,45.4400
403.7872,45.4936
403.8175,45.5390
403.8629,45.5693
403.9165,45.5800
404.1965,45.5800
404.2501,45.5693
404.2955,45.5390
404.3258,45.4936
404.3365,45.4400
Z" /> 
<path style="fill:#000000; fill-opacity:1.0000; stroke:none;fill-rule:evenodd;"
d="M 403.3765,45.1000
403.3658,45.0464
403.3355,45.0010
403.2901,44.9707
403.2365,44.9600
402.9565,44.9600
402.9029,44.9707
402.8575,45.0010
402.8272,45.0464
402.8165,45.1000
402.8165,45.4400
402.8272,45.4936
402.8575,45.5390
402.9029,45.5693
402.9565,45.5800
403.2365,45.5800
403.2901,45.5693
403.3355,45.5390
403.3658,45.4936
403.3765,45.4400
Z" /> 
</g> 
</svg>
