<?xml version='1.0' encoding='ASCII' standalone='yes'?>
<svg xmlns="http://www.w3.org/2000/svg" version="1.1" width="419.9890mm" height="297.0022mm" viewBox="0.0000 0.0000 419.9890 297.0022">
            <title>Picture generated by PcbDraw </title>
            <desc>Picture generated by PcbDraw</desc>
        <defs><clipPath id="cut-off"><path d="M12.5000 72.5000 L12.5000 23.0000 M 68.0 23.0 L 68.0 72.5 L 12.5 72.5 L 12.5 23.0 L 68.0 23.0 " style="fill-rule: evenodd;"/></clipPath><mask id="pads-mask-silkscreen"><rect x="12.39" y="22.975" width="333.517331" height="49.55" fill="white"/><g style="fill:#000000; fill-opacity:1.0000; stroke:none;">
<circle cx="40.0000" cy="31.7000" r="0.5000"/> 
</g>
<g style="fill:#000000; fill-opacity:1.0000; stroke:none;">
<circle cx="14.1625" cy="45.2500" r="1.0000"/> 
</g>
<g style="fill:#000000; fill-opacity:1.0000; stroke:none;">
<circle cx="14.1625" cy="38.7500" r="1.0000"/> 
</g>
<g style="fill:#000000; fill-opacity:1.0000; stroke:none;">
<circle cx="18.6625" cy="45.2500" r="1.0000"/> 
</g>
<g style="fill:#000000; fill-opacity:1.0000; stroke:none;">
<circle cx="18.6625" cy="38.7500" r="1.0000"/> 
<path style="fill:#000000; fill-opacity:1.0000; stroke:none;fill-rule:evenodd;" d="M 62.7000,59.8000 62.6043,59.7810 62.5232,59.7268 62.4690,59.6457 62.4500,59.5500 62.4500,58.4500 62.4690,58.3543 62.5232,58.2732 62.6043,58.2190 62.7000,58.2000 63.8000,58.2000 63.8957,58.2190 63.9768,58.2732 64.0310,58.3543 64.0500,58.4500 64.0500,59.5500 64.0310,59.6457 63.9768,59.7268 63.8957,59.7810 63.8000,59.8000 Z"/> 
</g>
<g style="fill:#000000; fill-opacity:1.0000; stroke:none;">
<circle cx="63.2500" cy="55.5000" r="0.8000"/> 
<path style="fill:#000000; fill-opacity:1.0000; stroke:none;fill-rule:evenodd;" d="M 13.2625,47.3500 13.2806,47.2591 13.3321,47.1821 13.4091,47.1306 13.5000,47.1125 14.0750,47.1125 14.1659,47.1306 14.2429,47.1821 14.2944,47.2591 14.3125,47.3500 14.3125,47.8250 14.2944,47.9159 14.2429,47.9929 14.1659,48.0444 14.0750,48.0625 13.5000,48.0625 13.4091,48.0444 13.3321,47.9929 13.2806,47.9159 13.2625,47.8250 Z"/> 
<path style="fill:#000000; fill-opacity:1.0000; stroke:none;fill-rule:evenodd;" d="M 15.0125,47.3500 15.0306,47.2591 15.0821,47.1821 15.1591,47.1306 15.2500,47.1125 15.8250,47.1125 15.9159,47.1306 15.9929,47.1821 16.0444,47.2591 16.0625,47.3500 16.0625,47.8250 16.0444,47.9159 15.9929,47.9929 15.9159,48.0444 15.8250,48.0625 15.2500,48.0625 15.1591,48.0444 15.0821,47.9929 15.0306,47.9159 15.0125,47.8250 Z"/> 
<path style="fill:#000000; fill-opacity:1.0000; stroke:none;fill-rule:evenodd;" d="M 29.1875,43.3500 29.2056,43.2591 29.2571,43.1821 29.3341,43.1306 29.4250,43.1125 30.0000,43.1125 30.0909,43.1306 30.1679,43.1821 30.2194,43.2591 30.2375,43.3500 30.2375,43.8250 30.2194,43.9159 30.1679,43.9929 30.0909,44.0444 30.0000,44.0625 29.4250,44.0625 29.3341,44.0444 29.2571,43.9929 29.2056,43.9159 29.1875,43.8250 Z"/> 
<path style="fill:#000000; fill-opacity:1.0000; stroke:none;fill-rule:evenodd;" d="M 30.9375,43.3500 30.9556,43.2591 31.0071,43.1821 31.0841,43.1306 31.1750,43.1125 31.7500,43.1125 31.8409,43.1306 31.9179,43.1821 31.9694,43.2591 31.9875,43.3500 31.9875,43.8250 31.9694,43.9159 31.9179,43.9929 31.8409,44.0444 31.7500,44.0625 31.1750,44.0625 31.0841,44.0444 31.0071,43.9929 30.9556,43.9159 30.9375,43.8250 Z"/> 
<path style="fill:#000000; fill-opacity:1.0000; stroke:none;fill-rule:evenodd;" d="M 35.9875,28.7125 36.0046,28.6264 36.0534,28.5534 36.1264,28.5046 36.2125,28.4875 36.6625,28.4875 36.7486,28.5046 36.8216,28.5534 36.8704,28.6264 36.8875,28.7125 36.8875,29.4625 36.8704,29.5486 36.8216,29.6216 36.7486,29.6704 36.6625,29.6875 36.2125,29.6875 36.1264,29.6704 36.0534,29.6216 36.0046,29.5486 35.9875,29.4625 Z"/> 
<path style="fill:#000000; fill-opacity:1.0000; stroke:none;fill-rule:evenodd;" d="M 39.2875,28.7125 39.3046,28.6264 39.3534,28.5534 39.4264,28.5046 39.5125,28.4875 39.9625,28.4875 40.0486,28.5046 40.1216,28.5534 40.1704,28.6264 40.1875,28.7125 40.1875,29.4625 40.1704,29.5486 40.1216,29.6216 40.0486,29.6704 39.9625,29.6875 39.5125,29.6875 39.4264,29.6704 39.3534,29.6216 39.3046,29.5486 39.2875,29.4625 Z"/> 
<path style="fill:#000000; fill-opacity:1.0000; stroke:none;fill-rule:evenodd;" d="M 22.4200,29.5775 22.4736,29.5882 22.5190,29.6185 22.5493,29.6639 22.5600,29.7175 22.5600,29.9975 22.5493,30.0511 22.5190,30.0965 22.4736,30.1268 22.4200,30.1375 22.0800,30.1375 22.0264,30.1268 21.9810,30.0965 21.9507,30.0511 21.9400,29.9975 21.9400,29.7175 21.9507,29.6639 21.9810,29.6185 22.0264,29.5882 22.0800,29.5775 Z"/> 
<path style="fill:#000000; fill-opacity:1.0000; stroke:none;fill-rule:evenodd;" d="M 22.4200,30.5375 22.4736,30.5482 22.5190,30.5785 22.5493,30.6239 22.5600,30.6775 22.5600,30.9575 22.5493,31.0111 22.5190,31.0565 22.4736,31.0868 22.4200,31.0975 22.0800,31.0975 22.0264,31.0868 21.9810,31.0565 21.9507,31.0111 21.9400,30.9575 21.9400,30.6775 21.9507,30.6239 21.9810,30.5785 22.0264,30.5482 22.0800,30.5375 Z"/> 
</g>
<g style="fill:#000000; fill-opacity:1.0000; stroke:none;">
<circle cx="38.7000" cy="66.5000" r="1.5000"/> 
</g>
<g style="fill:#000000; fill-opacity:1.0000; stroke:none;">
<circle cx="61.3000" cy="66.5000" r="1.5000"/> 
<path style="fill:#000000; fill-opacity:1.0000; stroke:none;fill-rule:evenodd;" d="M 17.8500,36.1000 17.8681,36.0091 17.9196,35.9321 17.9966,35.8806 18.0875,35.8625 18.6875,35.8625 18.7784,35.8806 18.8554,35.9321 18.9069,36.0091 18.9250,36.1000 18.9250,36.5750 18.9069,36.6659 18.8554,36.7429 18.7784,36.7944 18.6875,36.8125 18.0875,36.8125 17.9966,36.7944 17.9196,36.7429 17.8681,36.6659 17.8500,36.5750 Z"/> 
<path style="fill:#000000; fill-opacity:1.0000; stroke:none;fill-rule:evenodd;" d="M 19.5750,36.1000 19.5931,36.0091 19.6446,35.9321 19.7216,35.8806 19.8125,35.8625 20.4125,35.8625 20.5034,35.8806 20.5804,35.9321 20.6319,36.0091 20.6500,36.1000 20.6500,36.5750 20.6319,36.6659 20.5804,36.7429 20.5034,36.7944 20.4125,36.8125 19.8125,36.8125 19.7216,36.7944 19.6446,36.7429 19.5931,36.6659 19.5750,36.5750 Z"/> 
<path style="fill:#000000; fill-opacity:1.0000; stroke:none;fill-rule:evenodd;" d="M 47.6500,56.2750 47.6696,56.1262 47.7270,55.9875 47.8184,55.8684 47.9375,55.7770 48.0762,55.7196 48.2250,55.7000 49.3750,55.7000 49.5238,55.7196 49.6625,55.7770 49.7816,55.8684 49.8730,55.9875 49.9304,56.1262 49.9500,56.2750 49.9500,57.4250 49.9304,57.5738 49.8730,57.7125 49.7816,57.8316 49.6625,57.9230 49.5238,57.9804 49.3750,58.0000 48.2250,58.0000 48.0762,57.9804 47.9375,57.9230 47.8184,57.8316 47.7270,57.7125 47.6696,57.5738 47.6500,57.4250 Z"/> 
<path style="fill:#000000; fill-opacity:1.0000; stroke:none;fill-rule:evenodd;" d="M 41.4500,56.2750 41.4696,56.1262 41.5270,55.9875 41.6184,55.8684 41.7375,55.7770 41.8762,55.7196 42.0250,55.7000 43.1750,55.7000 43.3238,55.7196 43.4625,55.7770 43.5816,55.8684 43.6730,55.9875 43.7304,56.1262 43.7500,56.2750 43.7500,57.4250 43.7304,57.5738 43.6730,57.7125 43.5816,57.8316 43.4625,57.9230 43.3238,57.9804 43.1750,58.0000 42.0250,58.0000 41.8762,57.9804 41.7375,57.9230 41.6184,57.8316 41.5270,57.7125 41.4696,57.5738 41.4500,57.4250 Z"/> 
<path style="fill:#000000; fill-opacity:1.0000; stroke:none;fill-rule:evenodd;" d="M 47.6500,52.7750 47.6696,52.6262 47.7270,52.4875 47.8184,52.3684 47.9375,52.2770 48.0762,52.2196 48.2250,52.2000 49.3750,52.2000 49.5238,52.2196 49.6625,52.2770 49.7816,52.3684 49.8730,52.4875 49.9304,52.6262 49.9500,52.7750 49.9500,53.9250 49.9304,54.0738 49.8730,54.2125 49.7816,54.3316 49.6625,54.4230 49.5238,54.4804 49.3750,54.5000 48.2250,54.5000 48.0762,54.4804 47.9375,54.4230 47.8184,54.3316 47.7270,54.2125 47.6696,54.0738 47.6500,53.9250 Z"/> 
<path style="fill:#000000; fill-opacity:1.0000; stroke:none;fill-rule:evenodd;" d="M 41.4500,52.7750 41.4696,52.6262 41.5270,52.4875 41.6184,52.3684 41.7375,52.2770 41.8762,52.2196 42.0250,52.2000 43.1750,52.2000 43.3238,52.2196 43.4625,52.2770 43.5816,52.3684 43.6730,52.4875 43.7304,52.6262 43.7500,52.7750 43.7500,53.9250 43.7304,54.0738 43.6730,54.2125 43.5816,54.3316 43.4625,54.4230 43.3238,54.4804 43.1750,54.5000 42.0250,54.5000 41.8762,54.4804 41.7375,54.4230 41.6184,54.3316 41.5270,54.2125 41.4696,54.0738 41.4500,53.9250 Z"/> 
<path style="fill:#000000; fill-opacity:1.0000; stroke:none;fill-rule:evenodd;" d="M 34.0800,32.0975 34.0264,32.0868 33.9810,32.0565 33.9507,32.0111 33.9400,31.9575 33.9400,31.6775 33.9507,31.6239 33.9810,31.5785 34.0264,31.5482 34.0800,31.5375 34.4200,31.5375 34.4736,31.5482 34.5190,31.5785 34.5493,31.6239 34.5600,31.6775 34.5600,31.9575 34.5493,32.0111 34.5190,32.0565 34.4736,32.0868 34.4200,32.0975 Z"/> 
<path style="fill:#000000; fill-opacity:1.0000; stroke:none;fill-rule:evenodd;" d="M 34.0800,31.1375 34.0264,31.1268 33.9810,31.0965 33.9507,31.0511 33.9400,30.9975 33.9400,30.7175 33.9507,30.6639 33.9810,30.6185 34.0264,30.5882 34.0800,30.5775 34.4200,30.5775 34.4736,30.5882 34.5190,30.6185 34.5493,30.6639 34.5600,30.7175 34.5600,30.9975 34.5493,31.0511 34.5190,31.0965 34.4736,31.1268 34.4200,31.1375 Z"/> 
<path style="fill:#000000; fill-opacity:1.0000; stroke:none;fill-rule:evenodd;" d="M 16.7625,47.3500 16.7806,47.2591 16.8321,47.1821 16.9091,47.1306 17.0000,47.1125 17.5000,47.1125 17.5909,47.1306 17.6679,47.1821 17.7194,47.2591 17.7375,47.3500 17.7375,47.8250 17.7194,47.9159 17.6679,47.9929 17.5909,48.0444 17.5000,48.0625 17.0000,48.0625 16.9091,48.0444 16.8321,47.9929 16.7806,47.9159 16.7625,47.8250 Z"/> 
<path style="fill:#000000; fill-opacity:1.0000; stroke:none;fill-rule:evenodd;" d="M 18.5875,47.3500 18.6056,47.2591 18.6571,47.1821 18.7341,47.1306 18.8250,47.1125 19.3250,47.1125 19.4159,47.1306 19.4929,47.1821 19.5444,47.2591 19.5625,47.3500 19.5625,47.8250 19.5444,47.9159 19.4929,47.9929 19.4159,48.0444 19.3250,48.0625 18.8250,48.0625 18.7341,48.0444 18.6571,47.9929 18.6056,47.9159 18.5875,47.8250 Z"/> 
<path style="fill:#000000; fill-opacity:1.0000; stroke:none;fill-rule:evenodd;" d="M 24.2250,49.0875 24.3207,49.1065 24.4018,49.1607 24.4560,49.2418 24.4750,49.3375 24.4750,50.0125 24.4560,50.1082 24.4018,50.1893 24.3207,50.2435 24.2250,50.2625 23.2750,50.2625 23.1793,50.2435 23.0982,50.1893 23.0440,50.1082 23.0250,50.0125 23.0250,49.3375 23.0440,49.2418 23.0982,49.1607 23.1793,49.1065 23.2750,49.0875 Z"/> 
<path style="fill:#000000; fill-opacity:1.0000; stroke:none;fill-rule:evenodd;" d="M 24.2250,51.1625 24.3207,51.1815 24.4018,51.2357 24.4560,51.3168 24.4750,51.4125 24.4750,52.0875 24.4560,52.1832 24.4018,52.2643 24.3207,52.3185 24.2250,52.3375 23.2750,52.3375 23.1793,52.3185 23.0982,52.2643 23.0440,52.1832 23.0250,52.0875 23.0250,51.4125 23.0440,51.3168 23.0982,51.2357 23.1793,51.1815 23.2750,51.1625 Z"/> 
<path style="fill:#000000; fill-opacity:1.0000; stroke:none;fill-rule:evenodd;" d="M 13.1375,49.3500 13.1556,49.2591 13.2071,49.1821 13.2841,49.1306 13.3750,49.1125 13.9500,49.1125 14.0409,49.1306 14.1179,49.1821 14.1694,49.2591 14.1875,49.3500 14.1875,49.8250 14.1694,49.9159 14.1179,49.9929 14.0409,50.0444 13.9500,50.0625 13.3750,50.0625 13.2841,50.0444 13.2071,49.9929 13.1556,49.9159 13.1375,49.8250 Z"/> 
<path style="fill:#000000; fill-opacity:1.0000; stroke:none;fill-rule:evenodd;" d="M 14.8875,49.3500 14.9056,49.2591 14.9571,49.1821 15.0341,49.1306 15.1250,49.1125 15.7000,49.1125 15.7909,49.1306 15.8679,49.1821 15.9194,49.2591 15.9375,49.3500 15.9375,49.8250 15.9194,49.9159 15.8679,49.9929 15.7909,50.0444 15.7000,50.0625 15.1250,50.0625 15.0341,50.0444 14.9571,49.9929 14.9056,49.9159 14.8875,49.8250 Z"/> 
<path style="fill:#000000; fill-opacity:1.0000; stroke:none;fill-rule:evenodd;" d="M 26.5100,28.0075 26.4993,28.0611 26.4690,28.1065 26.4236,28.1368 26.3700,28.1475 26.0900,28.1475 26.0364,28.1368 25.9910,28.1065 25.9607,28.0611 25.9500,28.0075 25.9500,27.6675 25.9607,27.6139 25.9910,27.5685 26.0364,27.5382 26.0900,27.5275 26.3700,27.5275 26.4236,27.5382 26.4690,27.5685 26.4993,27.6139 26.5100,27.6675 Z"/> 
<path style="fill:#000000; fill-opacity:1.0000; stroke:none;fill-rule:evenodd;" d="M 25.5500,28.0075 25.5393,28.0611 25.5090,28.1065 25.4636,28.1368 25.4100,28.1475 25.1300,28.1475 25.0764,28.1368 25.0310,28.1065 25.0007,28.0611 24.9900,28.0075 24.9900,27.6675 25.0007,27.6139 25.0310,27.5685 25.0764,27.5382 25.1300,27.5275 25.4100,27.5275 25.4636,27.5382 25.5090,27.5685 25.5393,27.6139 25.5500,27.6675 Z"/> 
<path style="fill:#000000; fill-opacity:1.0000; stroke:none;fill-rule:evenodd;" d="M 30.4900,39.6675 30.5007,39.6139 30.5310,39.5685 30.5764,39.5382 30.6300,39.5275 30.9100,39.5275 30.9636,39.5382 31.0090,39.5685 31.0393,39.6139 31.0500,39.6675 31.0500,40.0075 31.0393,40.0611 31.0090,40.1065 30.9636,40.1368 30.9100,40.1475 30.6300,40.1475 30.5764,40.1368 30.5310,40.1065 30.5007,40.0611 30.4900,40.0075 Z"/> 
<path style="fill:#000000; fill-opacity:1.0000; stroke:none;fill-rule:evenodd;" d="M 31.4500,39.6675 31.4607,39.6139 31.4910,39.5685 31.5364,39.5382 31.5900,39.5275 31.8700,39.5275 31.9236,39.5382 31.9690,39.5685 31.9993,39.6139 32.0100,39.6675 32.0100,40.0075 31.9993,40.0611 31.9690,40.1065 31.9236,40.1368 31.8700,40.1475 31.5900,40.1475 31.5364,40.1368 31.4910,40.1065 31.4607,40.0611 31.4500,40.0075 Z"/> 
</g>
<g style="fill:#000000; fill-opacity:1.0000; stroke:none;">
<circle cx="51.0000" cy="31.0000" r="1.5000"/> 
<path style="fill:#000000; fill-opacity:1.0000; stroke:none;fill-rule:evenodd;" d="M 32.2125,42.0625 32.1935,42.1582 32.1393,42.2393 32.0582,42.2935 31.9625,42.3125 31.2875,42.3125 31.1918,42.2935 31.1107,42.2393 31.0565,42.1582 31.0375,42.0625 31.0375,41.1125 31.0565,41.0168 31.1107,40.9357 31.1918,40.8815 31.2875,40.8625 31.9625,40.8625 32.0582,40.8815 32.1393,40.9357 32.1935,41.0168 32.2125,41.1125 Z"/> 
<path style="fill:#000000; fill-opacity:1.0000; stroke:none;fill-rule:evenodd;" d="M 30.1375,42.0625 30.1185,42.1582 30.0643,42.2393 29.9832,42.2935 29.8875,42.3125 29.2125,42.3125 29.1168,42.2935 29.0357,42.2393 28.9815,42.1582 28.9625,42.0625 28.9625,41.1125 28.9815,41.0168 29.0357,40.9357 29.1168,40.8815 29.2125,40.8625 29.8875,40.8625 29.9832,40.8815 30.0643,40.9357 30.1185,41.0168 30.1375,41.1125 Z"/> 
<path style="fill:#000000; fill-opacity:1.0000; stroke:none;fill-rule:evenodd;" d="M 39.6516,53.3580 39.6900,53.3656 39.7226,53.3874 39.7444,53.4200 39.7520,53.4584 39.7520,54.5816 39.7444,54.6200 39.7226,54.6526 39.6900,54.6744 39.6516,54.6820 38.8484,54.6820 38.8100,54.6744 38.7774,54.6526 38.7556,54.6200 38.7480,54.5816 38.7480,53.4584 38.7556,53.4200 38.7774,53.3874 38.8100,53.3656 38.8484,53.3580 Z"/> 
<path style="fill:#000000; fill-opacity:1.0000; stroke:none;fill-rule:evenodd;" d="M 39.6516,56.8180 39.6900,56.8256 39.7226,56.8474 39.7444,56.8800 39.7520,56.9184 39.7520,58.0416 39.7444,58.0800 39.7226,58.1126 39.6900,58.1344 39.6516,58.1420 38.8484,58.1420 38.8100,58.1344 38.7774,58.1126 38.7556,58.0800 38.7480,58.0416 38.7480,56.9184 38.7556,56.8800 38.7774,56.8474 38.8100,56.8256 38.8484,56.8180 Z"/> 
<path style="fill:#000000; fill-opacity:1.0000; stroke:none;fill-rule:evenodd;" d="M 57.6250,58.4500 57.6060,58.5457 57.5518,58.6268 57.4707,58.6810 57.3750,58.7000 56.5750,58.7000 56.4793,58.6810 56.3982,58.6268 56.3440,58.5457 56.3250,58.4500 56.3250,55.5500 56.3440,55.4543 56.3982,55.3732 56.4793,55.3190 56.5750,55.3000 57.3750,55.3000 57.4707,55.3190 57.5518,55.3732 57.6060,55.4543 57.6250,55.5500 Z"/> 
<path style="fill:#000000; fill-opacity:1.0000; stroke:none;fill-rule:evenodd;" d="M 53.1750,58.4500 53.1560,58.5457 53.1018,58.6268 53.0207,58.6810 52.9250,58.7000 52.1250,58.7000 52.0293,58.6810 51.9482,58.6268 51.8940,58.5457 51.8750,58.4500 51.8750,55.5500 51.8940,55.4543 51.9482,55.3732 52.0293,55.3190 52.1250,55.3000 52.9250,55.3000 53.0207,55.3190 53.1018,55.3732 53.1560,55.4543 53.1750,55.5500 Z"/> 
<path style="fill:#000000; fill-opacity:1.0000; stroke:none;fill-rule:evenodd;" d="M 34.2750,47.6250 34.1793,47.6060 34.0982,47.5518 34.0440,47.4707 34.0250,47.3750 34.0250,46.7000 34.0440,46.6043 34.0982,46.5232 34.1793,46.4690 34.2750,46.4500 35.2250,46.4500 35.3207,46.4690 35.4018,46.5232 35.4560,46.6043 35.4750,46.7000 35.4750,47.3750 35.4560,47.4707 35.4018,47.5518 35.3207,47.6060 35.2250,47.6250 Z"/> 
<path style="fill:#000000; fill-opacity:1.0000; stroke:none;fill-rule:evenodd;" d="M 34.2750,45.5500 34.1793,45.5310 34.0982,45.4768 34.0440,45.3957 34.0250,45.3000 34.0250,44.6250 34.0440,44.5293 34.0982,44.4482 34.1793,44.3940 34.2750,44.3750 35.2250,44.3750 35.3207,44.3940 35.4018,44.4482 35.4560,44.5293 35.4750,44.6250 35.4750,45.3000 35.4560,45.3957 35.4018,45.4768 35.3207,45.5310 35.2250,45.5500 Z"/> 
<path style="fill:#000000; fill-opacity:1.0000; stroke:none;fill-rule:evenodd;" d="M 34.3250,43.5400 34.2293,43.5210 34.1482,43.4668 34.0940,43.3857 34.0750,43.2900 34.0750,42.6150 34.0940,42.5193 34.1482,42.4382 34.2293,42.3840 34.3250,42.3650 35.2750,42.3650 35.3707,42.3840 35.4518,42.4382 35.5060,42.5193 35.5250,42.6150 35.5250,43.2900 35.5060,43.3857 35.4518,43.4668 35.3707,43.5210 35.2750,43.5400 Z"/> 
<path style="fill:#000000; fill-opacity:1.0000; stroke:none;fill-rule:evenodd;" d="M 34.3250,41.4650 34.2293,41.4460 34.1482,41.3918 34.0940,41.3107 34.0750,41.2150 34.0750,40.5400 34.0940,40.4443 34.1482,40.3632 34.2293,40.3090 34.3250,40.2900 35.2750,40.2900 35.3707,40.3090 35.4518,40.3632 35.5060,40.4443 35.5250,40.5400 35.5250,41.2150 35.5060,41.3107 35.4518,41.3918 35.3707,41.4460 35.2750,41.4650 Z"/> 
<path style="fill:#000000; fill-opacity:1.0000; stroke:none;fill-rule:evenodd;" d="M 31.6563,51.2491 31.6174,51.2414 31.5845,51.2193 31.5625,51.1864 31.5547,51.1475 31.5547,48.2775 31.5625,48.2386 31.5845,48.2057 31.6174,48.1836 31.6563,48.1759 32.9063,48.1759 32.9452,48.1836 32.9782,48.2057 33.0002,48.2386 33.0079,48.2775 33.0079,51.1475 33.0002,51.1864 32.9782,51.2193 32.9452,51.2414 32.9063,51.2491 Z"/> 
<path style="fill:#000000; fill-opacity:1.0000; stroke:none;fill-rule:evenodd;" d="M 29.1163,51.2491 29.0774,51.2414 29.0445,51.2193 29.0225,51.1864 29.0147,51.1475 29.0147,48.2775 29.0225,48.2386 29.0445,48.2057 29.0774,48.1836 29.1163,48.1759 30.3663,48.1759 30.4052,48.1836 30.4382,48.2057 30.4602,48.2386 30.4679,48.2775 30.4679,51.1475 30.4602,51.1864 30.4382,51.2193 30.4052,51.2414 30.3663,51.2491 Z"/> 
<path style="fill:#000000; fill-opacity:1.0000; stroke:none;fill-rule:evenodd;" d="M 26.5763,51.2491 26.5374,51.2414 26.5045,51.2193 26.4825,51.1864 26.4747,51.1475 26.4747,48.2775 26.4825,48.2386 26.5045,48.2057 26.5374,48.1836 26.5763,48.1759 27.8263,48.1759 27.8652,48.1836 27.8982,48.2057 27.9202,48.2386 27.9279,48.2775 27.9279,51.1475 27.9202,51.1864 27.8982,51.2193 27.8652,51.2414 27.8263,51.2491 Z"/> 
<path style="fill:#000000; fill-opacity:1.0000; stroke:none;fill-rule:evenodd;" d="M 27.7263,53.8959 27.7652,53.9036 27.7982,53.9257 27.8202,53.9586 27.8279,53.9975 27.8279,55.5775 27.8202,55.6164 27.7982,55.6493 27.7652,55.6714 27.7263,55.6791 26.6763,55.6791 26.6374,55.6714 26.6045,55.6493 26.5825,55.6164 26.5747,55.5775 26.5747,53.9975 26.5825,53.9586 26.6045,53.9257 26.6374,53.9036 26.6763,53.8959 Z"/> 
<path style="fill:#000000; fill-opacity:1.0000; stroke:none;fill-rule:evenodd;" d="M 30.3663,52.6059 30.4052,52.6136 30.4382,52.6357 30.4602,52.6686 30.4679,52.7075 30.4679,55.5775 30.4602,55.6164 30.4382,55.6493 30.4052,55.6714 30.3663,55.6791 29.1163,55.6791 29.0774,55.6714 29.0445,55.6493 29.0225,55.6164 29.0147,55.5775 29.0147,52.7075 29.0225,52.6686 29.0445,52.6357 29.0774,52.6136 29.1163,52.6059 Z"/> 
<path style="fill:#000000; fill-opacity:1.0000; stroke:none;fill-rule:evenodd;" d="M 32.8063,53.8959 32.8452,53.9036 32.8782,53.9257 32.9002,53.9586 32.9079,53.9975 32.9079,55.5775 32.9002,55.6164 32.8782,55.6493 32.8452,55.6714 32.8063,55.6791 31.7563,55.6791 31.7174,55.6714 31.6845,55.6493 31.6625,55.6164 31.6547,55.5775 31.6547,53.9975 31.6625,53.9586 31.6845,53.9257 31.7174,53.9036 31.7563,53.8959 Z"/> 
<path style="fill:#000000; fill-opacity:1.0000; stroke:none;fill-rule:evenodd;" d="M 17.8500,30.1000 17.8681,30.0091 17.9196,29.9321 17.9966,29.8806 18.0875,29.8625 18.6875,29.8625 18.7784,29.8806 18.8554,29.9321 18.9069,30.0091 18.9250,30.1000 18.9250,30.5750 18.9069,30.6659 18.8554,30.7429 18.7784,30.7944 18.6875,30.8125 18.0875,30.8125 17.9966,30.7944 17.9196,30.7429 17.8681,30.6659 17.8500,30.5750 Z"/> 
<path style="fill:#000000; fill-opacity:1.0000; stroke:none;fill-rule:evenodd;" d="M 19.5750,30.1000 19.5931,30.0091 19.6446,29.9321 19.7216,29.8806 19.8125,29.8625 20.4125,29.8625 20.5034,29.8806 20.5804,29.9321 20.6319,30.0091 20.6500,30.1000 20.6500,30.5750 20.6319,30.6659 20.5804,30.7429 20.5034,30.7944 20.4125,30.8125 19.8125,30.8125 19.7216,30.7944 19.6446,30.7429 19.5931,30.6659 19.5750,30.5750 Z"/> 
<path style="fill:#000000; fill-opacity:1.0000; stroke:none;fill-rule:evenodd;" d="M 35.7750,55.6250 35.6793,55.6060 35.5982,55.5518 35.5440,55.4707 35.5250,55.3750 35.5250,54.7000 35.5440,54.6043 35.5982,54.5232 35.6793,54.4690 35.7750,54.4500 36.7250,54.4500 36.8207,54.4690 36.9018,54.5232 36.9560,54.6043 36.9750,54.7000 36.9750,55.3750 36.9560,55.4707 36.9018,55.5518 36.8207,55.6060 36.7250,55.6250 Z"/> 
<path style="fill:#000000; fill-opacity:1.0000; stroke:none;fill-rule:evenodd;" d="M 35.7750,53.5500 35.6793,53.5310 35.5982,53.4768 35.5440,53.3957 35.5250,53.3000 35.5250,52.6250 35.5440,52.5293 35.5982,52.4482 35.6793,52.3940 35.7750,52.3750 36.7250,52.3750 36.8207,52.3940 36.9018,52.4482 36.9560,52.5293 36.9750,52.6250 36.9750,53.3000 36.9560,53.3957 36.9018,53.4768 36.8207,53.5310 36.7250,53.5500 Z"/> 
<path style="fill:#000000; fill-opacity:1.0000; stroke:none;fill-rule:evenodd;" d="M 30.8500,64.8550 30.8500,62.0550 33.6500,62.0550 33.6500,64.8550 Z"/> 
</g>
<g style="fill:#000000; fill-opacity:1.0000; stroke:none;">
<circle cx="32.2500" cy="68.5350" r="1.4000"/> 
<path style="fill:#000000; fill-opacity:1.0000; stroke:none;fill-rule:evenodd;" d="M 21.2000,33.4500 21.2574,33.4614 21.3061,33.4939 21.3386,33.5426 21.3500,33.6000 21.3500,34.8000 21.3386,34.8574 21.3061,34.9061 21.2574,34.9386 21.2000,34.9500 18.8000,34.9500 18.7426,34.9386 18.6939,34.9061 18.6614,34.8574 18.6500,34.8000 18.6500,33.6000 18.6614,33.5426 18.6939,33.4939 18.7426,33.4614 18.8000,33.4500 Z"/> 
<path style="fill:#000000; fill-opacity:1.0000; stroke:none;fill-rule:evenodd;" d="M 21.2000,31.5500 21.2574,31.5614 21.3061,31.5939 21.3386,31.6426 21.3500,31.7000 21.3500,32.9000 21.3386,32.9574 21.3061,33.0061 21.2574,33.0386 21.2000,33.0500 18.8000,33.0500 18.7426,33.0386 18.6939,33.0061 18.6614,32.9574 18.6500,32.9000 18.6500,31.7000 18.6614,31.6426 18.6939,31.5939 18.7426,31.5614 18.8000,31.5500 Z"/> 
<path style="fill:#000000; fill-opacity:1.0000; stroke:none;fill-rule:evenodd;" d="M 16.6375,49.3500 16.6556,49.2591 16.7071,49.1821 16.7841,49.1306 16.8750,49.1125 17.3750,49.1125 17.4659,49.1306 17.5429,49.1821 17.5944,49.2591 17.6125,49.3500 17.6125,49.8250 17.5944,49.9159 17.5429,49.9929 17.4659,50.0444 17.3750,50.0625 16.8750,50.0625 16.7841,50.0444 16.7071,49.9929 16.6556,49.9159 16.6375,49.8250 Z"/> 
<path style="fill:#000000; fill-opacity:1.0000; stroke:none;fill-rule:evenodd;" d="M 18.4625,49.3500 18.4806,49.2591 18.5321,49.1821 18.6091,49.1306 18.7000,49.1125 19.2000,49.1125 19.2909,49.1306 19.3679,49.1821 19.4194,49.2591 19.4375,49.3500 19.4375,49.8250 19.4194,49.9159 19.3679,49.9929 19.2909,50.0444 19.2000,50.0625 18.7000,50.0625 18.6091,50.0444 18.5321,49.9929 18.4806,49.9159 18.4625,49.8250 Z"/> 
<path style="fill:#000000; fill-opacity:1.0000; stroke:none;fill-rule:evenodd;" d="M 24.9400,66.5100 24.9400,60.4900 27.9600,60.4900 27.9600,66.5100 Z"/> 
</g>
<g style="fill:none;  stroke:#000000; stroke-width:3.0200; stroke-opacity:1;  stroke-linecap:round; stroke-linejoin:round;">
<path d="M20.2500 62.0000 L20.2500 65.0000 "/>
</g>
<g style="fill:#000000; fill-opacity:1.0000; stroke:none;">
<circle cx="40.0000" cy="34.0000" r="0.5000"/> 
<path style="fill:#000000; fill-opacity:1.0000; stroke:none;fill-rule:evenodd;" d="M 27.9875,24.8500 28.0784,24.8681 28.1554,24.9196 28.2069,24.9966 28.2250,25.0875 28.2250,25.5875 28.2069,25.6784 28.1554,25.7554 28.0784,25.8069 27.9875,25.8250 27.5125,25.8250 27.4216,25.8069 27.3446,25.7554 27.2931,25.6784 27.2750,25.5875 27.2750,25.0875 27.2931,24.9966 27.3446,24.9196 27.4216,24.8681 27.5125,24.8500 Z"/> 
<path style="fill:#000000; fill-opacity:1.0000; stroke:none;fill-rule:evenodd;" d="M 27.9875,26.6750 28.0784,26.6931 28.1554,26.7446 28.2069,26.8216 28.2250,26.9125 28.2250,27.4125 28.2069,27.5034 28.1554,27.5804 28.0784,27.6319 27.9875,27.6500 27.5125,27.6500 27.4216,27.6319 27.3446,27.5804 27.2931,27.5034 27.2750,27.4125 27.2750,26.9125 27.2931,26.8216 27.3446,26.7446 27.4216,26.6931 27.5125,26.6750 Z"/> 
<path style="fill:#000000; fill-opacity:1.0000; stroke:none;fill-rule:evenodd;" d="M 23.3500,31.1750 23.3557,31.1463 23.3720,31.1220 23.3963,31.1057 23.4250,31.1000 24.7500,31.1000 24.7787,31.1057 24.8030,31.1220 24.8193,31.1463 24.8250,31.1750 24.8250,31.3250 24.8193,31.3537 24.8030,31.3780 24.7787,31.3943 24.7500,31.4000 23.4250,31.4000 23.3963,31.3943 23.3720,31.3780 23.3557,31.3537 23.3500,31.3250 Z"/> 
<path style="fill:#000000; fill-opacity:1.0000; stroke:none;fill-rule:evenodd;" d="M 23.3500,31.6750 23.3557,31.6463 23.3720,31.6220 23.3963,31.6057 23.4250,31.6000 24.7500,31.6000 24.7787,31.6057 24.8030,31.6220 24.8193,31.6463 24.8250,31.6750 24.8250,31.8250 24.8193,31.8537 24.8030,31.8780 24.7787,31.8943 24.7500,31.9000 23.4250,31.9000 23.3963,31.8943 23.3720,31.8780 23.3557,31.8537 23.3500,31.8250 Z"/> 
<path style="fill:#000000; fill-opacity:1.0000; stroke:none;fill-rule:evenodd;" d="M 23.3500,32.1750 23.3557,32.1463 23.3720,32.1220 23.3963,32.1057 23.4250,32.1000 24.7500,32.1000 24.7787,32.1057 24.8030,32.1220 24.8193,32.1463 24.8250,32.1750 24.8250,32.3250 24.8193,32.3537 24.8030,32.3780 24.7787,32.3943 24.7500,32.4000 23.4250,32.4000 23.3963,32.3943 23.3720,32.3780 23.3557,32.3537 23.3500,32.3250 Z"/> 
<path style="fill:#000000; fill-opacity:1.0000; stroke:none;fill-rule:evenodd;" d="M 23.3500,32.6750 23.3557,32.6463 23.3720,32.6220 23.3963,32.6057 23.4250,32.6000 24.7500,32.6000 24.7787,32.6057 24.8030,32.6220 24.8193,32.6463 24.8250,32.6750 24.8250,32.8250 24.8193,32.8537 24.8030,32.8780 24.7787,32.8943 24.7500,32.9000 23.4250,32.9000 23.3963,32.8943 23.3720,32.8780 23.3557,32.8537 23.3500,32.8250 Z"/> 
<path style="fill:#000000; fill-opacity:1.0000; stroke:none;fill-rule:evenodd;" d="M 23.3500,33.1750 23.3557,33.1463 23.3720,33.1220 23.3963,33.1057 23.4250,33.1000 24.7500,33.1000 24.7787,33.1057 24.8030,33.1220 24.8193,33.1463 24.8250,33.1750 24.8250,33.3250 24.8193,33.3537 24.8030,33.3780 24.7787,33.3943 24.7500,33.4000 23.4250,33.4000 23.3963,33.3943 23.3720,33.3780 23.3557,33.3537 23.3500,33.3250 Z"/> 
<path style="fill:#000000; fill-opacity:1.0000; stroke:none;fill-rule:evenodd;" d="M 23.3500,33.6750 23.3557,33.6463 23.3720,33.6220 23.3963,33.6057 23.4250,33.6000 24.7500,33.6000 24.7787,33.6057 24.8030,33.6220 24.8193,33.6463 24.8250,33.6750 24.8250,33.8250 24.8193,33.8537 24.8030,33.8780 24.7787,33.8943 24.7500,33.9000 23.4250,33.9000 23.3963,33.8943 23.3720,33.8780 23.3557,33.8537 23.3500,33.8250 Z"/> 
<path style="fill:#000000; fill-opacity:1.0000; stroke:none;fill-rule:evenodd;" d="M 23.3500,34.1750 23.3557,34.1463 23.3720,34.1220 23.3963,34.1057 23.4250,34.1000 24.7500,34.1000 24.7787,34.1057 24.8030,34.1220 24.8193,34.1463 24.8250,34.1750 24.8250,34.3250 24.8193,34.3537 24.8030,34.3780 24.7787,34.3943 24.7500,34.4000 23.4250,34.4000 23.3963,34.3943 23.3720,34.3780 23.3557,34.3537 23.3500,34.3250 Z"/> 
<path style="fill:#000000; fill-opacity:1.0000; stroke:none;fill-rule:evenodd;" d="M 23.3500,34.6750 23.3557,34.6463 23.3720,34.6220 23.3963,34.6057 23.4250,34.6000 24.7500,34.6000 24.7787,34.6057 24.8030,34.6220 24.8193,34.6463 24.8250,34.6750 24.8250,34.8250 24.8193,34.8537 24.8030,34.8780 24.7787,34.8943 24.7500,34.9000 23.4250,34.9000 23.3963,34.8943 23.3720,34.8780 23.3557,34.8537 23.3500,34.8250 Z"/> 
<path style="fill:#000000; fill-opacity:1.0000; stroke:none;fill-rule:evenodd;" d="M 23.3500,35.1750 23.3557,35.1463 23.3720,35.1220 23.3963,35.1057 23.4250,35.1000 24.7500,35.1000 24.7787,35.1057 24.8030,35.1220 24.8193,35.1463 24.8250,35.1750 24.8250,35.3250 24.8193,35.3537 24.8030,35.3780 24.7787,35.3943 24.7500,35.4000 23.4250,35.4000 23.3963,35.3943 23.3720,35.3780 23.3557,35.3537 23.3500,35.3250 Z"/> 
<path style="fill:#000000; fill-opacity:1.0000; stroke:none;fill-rule:evenodd;" d="M 23.3500,35.6750 23.3557,35.6463 23.3720,35.6220 23.3963,35.6057 23.4250,35.6000 24.7500,35.6000 24.7787,35.6057 24.8030,35.6220 24.8193,35.6463 24.8250,35.6750 24.8250,35.8250 24.8193,35.8537 24.8030,35.8780 24.7787,35.8943 24.7500,35.9000 23.4250,35.9000 23.3963,35.8943 23.3720,35.8780 23.3557,35.8537 23.3500,35.8250 Z"/> 
<path style="fill:#000000; fill-opacity:1.0000; stroke:none;fill-rule:evenodd;" d="M 23.3500,36.1750 23.3557,36.1463 23.3720,36.1220 23.3963,36.1057 23.4250,36.1000 24.7500,36.1000 24.7787,36.1057 24.8030,36.1220 24.8193,36.1463 24.8250,36.1750 24.8250,36.3250 24.8193,36.3537 24.8030,36.3780 24.7787,36.3943 24.7500,36.4000 23.4250,36.4000 23.3963,36.3943 23.3720,36.3780 23.3557,36.3537 23.3500,36.3250 Z"/> 
<path style="fill:#000000; fill-opacity:1.0000; stroke:none;fill-rule:evenodd;" d="M 23.3500,36.6750 23.3557,36.6463 23.3720,36.6220 23.3963,36.6057 23.4250,36.6000 24.7500,36.6000 24.7787,36.6057 24.8030,36.6220 24.8193,36.6463 24.8250,36.6750 24.8250,36.8250 24.8193,36.8537 24.8030,36.8780 24.7787,36.8943 24.7500,36.9000 23.4250,36.9000 23.3963,36.8943 23.3720,36.8780 23.3557,36.8537 23.3500,36.8250 Z"/> 
<path style="fill:#000000; fill-opacity:1.0000; stroke:none;fill-rule:evenodd;" d="M 25.3500,37.5000 25.3557,37.4713 25.3720,37.4470 25.3963,37.4307 25.4250,37.4250 25.5750,37.4250 25.6037,37.4307 25.6280,37.4470 25.6443,37.4713 25.6500,37.5000 25.6500,38.8250 25.6443,38.8537 25.6280,38.8780 25.6037,38.8943 25.5750,38.9000 25.4250,38.9000 25.3963,38.8943 25.3720,38.8780 25.3557,38.8537 25.3500,38.8250 Z"/> 
<path style="fill:#000000; fill-opacity:1.0000; stroke:none;fill-rule:evenodd;" d="M 25.8500,37.5000 25.8557,37.4713 25.8720,37.4470 25.8963,37.4307 25.9250,37.4250 26.0750,37.4250 26.1037,37.4307 26.1280,37.4470 26.1443,37.4713 26.1500,37.5000 26.1500,38.8250 26.1443,38.8537 26.1280,38.8780 26.1037,38.8943 26.0750,38.9000 25.9250,38.9000 25.8963,38.8943 25.8720,38.8780 25.8557,38.8537 25.8500,38.8250 Z"/> 
<path style="fill:#000000; fill-opacity:1.0000; stroke:none;fill-rule:evenodd;" d="M 26.3500,37.5000 26.3557,37.4713 26.3720,37.4470 26.3963,37.4307 26.4250,37.4250 26.5750,37.4250 26.6037,37.4307 26.6280,37.4470 26.6443,37.4713 26.6500,37.5000 26.6500,38.8250 26.6443,38.8537 26.6280,38.8780 26.6037,38.8943 26.5750,38.9000 26.4250,38.9000 26.3963,38.8943 26.3720,38.8780 26.3557,38.8537 26.3500,38.8250 Z"/> 
<path style="fill:#000000; fill-opacity:1.0000; stroke:none;fill-rule:evenodd;" d="M 26.8500,37.5000 26.8557,37.4713 26.8720,37.4470 26.8963,37.4307 26.9250,37.4250 27.0750,37.4250 27.1037,37.4307 27.1280,37.4470 27.1443,37.4713 27.1500,37.5000 27.1500,38.8250 27.1443,38.8537 27.1280,38.8780 27.1037,38.8943 27.0750,38.9000 26.9250,38.9000 26.8963,38.8943 26.8720,38.8780 26.8557,38.8537 26.8500,38.8250 Z"/> 
<path style="fill:#000000; fill-opacity:1.0000; stroke:none;fill-rule:evenodd;" d="M 27.3500,37.5000 27.3557,37.4713 27.3720,37.4470 27.3963,37.4307 27.4250,37.4250 27.5750,37.4250 27.6037,37.4307 27.6280,37.4470 27.6443,37.4713 27.6500,37.5000 27.6500,38.8250 27.6443,38.8537 27.6280,38.8780 27.6037,38.8943 27.5750,38.9000 27.4250,38.9000 27.3963,38.8943 27.3720,38.8780 27.3557,38.8537 27.3500,38.8250 Z"/> 
<path style="fill:#000000; fill-opacity:1.0000; stroke:none;fill-rule:evenodd;" d="M 27.8500,37.5000 27.8557,37.4713 27.8720,37.4470 27.8963,37.4307 27.9250,37.4250 28.0750,37.4250 28.1037,37.4307 28.1280,37.4470 28.1443,37.4713 28.1500,37.5000 28.1500,38.8250 28.1443,38.8537 28.1280,38.8780 28.1037,38.8943 28.0750,38.9000 27.9250,38.9000 27.8963,38.8943 27.8720,38.8780 27.8557,38.8537 27.8500,38.8250 Z"/> 
<path style="fill:#000000; fill-opacity:1.0000; stroke:none;fill-rule:evenodd;" d="M 28.3500,37.5000 28.3557,37.4713 28.3720,37.4470 28.3963,37.4307 28.4250,37.4250 28.5750,37.4250 28.6037,37.4307 28.6280,37.4470 28.6443,37.4713 28.6500,37.5000 28.6500,38.8250 28.6443,38.8537 28.6280,38.8780 28.6037,38.8943 28.5750,38.9000 28.4250,38.9000 28.3963,38.8943 28.3720,38.8780 28.3557,38.8537 28.3500,38.8250 Z"/> 
<path style="fill:#000000; fill-opacity:1.0000; stroke:none;fill-rule:evenodd;" d="M 28.8500,37.5000 28.8557,37.4713 28.8720,37.4470 28.8963,37.4307 28.9250,37.4250 29.0750,37.4250 29.1037,37.4307 29.1280,37.4470 29.1443,37.4713 29.1500,37.5000 29.1500,38.8250 29.1443,38.8537 29.1280,38.8780 29.1037,38.8943 29.0750,38.9000 28.9250,38.9000 28.8963,38.8943 28.8720,38.8780 28.8557,38.8537 28.8500,38.8250 Z"/> 
<path style="fill:#000000; fill-opacity:1.0000; stroke:none;fill-rule:evenodd;" d="M 29.3500,37.5000 29.3557,37.4713 29.3720,37.4470 29.3963,37.4307 29.4250,37.4250 29.5750,37.4250 29.6037,37.4307 29.6280,37.4470 29.6443,37.4713 29.6500,37.5000 29.6500,38.8250 29.6443,38.8537 29.6280,38.8780 29.6037,38.8943 29.5750,38.9000 29.4250,38.9000 29.3963,38.8943 29.3720,38.8780 29.3557,38.8537 29.3500,38.8250 Z"/> 
<path style="fill:#000000; fill-opacity:1.0000; stroke:none;fill-rule:evenodd;" d="M 29.8500,37.5000 29.8557,37.4713 29.8720,37.4470 29.8963,37.4307 29.9250,37.4250 30.0750,37.4250 30.1037,37.4307 30.1280,37.4470 30.1443,37.4713 30.1500,37.5000 30.1500,38.8250 30.1443,38.8537 30.1280,38.8780 30.1037,38.8943 30.0750,38.9000 29.9250,38.9000 29.8963,38.8943 29.8720,38.8780 29.8557,38.8537 29.8500,38.8250 Z"/> 
<path style="fill:#000000; fill-opacity:1.0000; stroke:none;fill-rule:evenodd;" d="M 30.3500,37.5000 30.3557,37.4713 30.3720,37.4470 30.3963,37.4307 30.4250,37.4250 30.5750,37.4250 30.6037,37.4307 30.6280,37.4470 30.6443,37.4713 30.6500,37.5000 30.6500,38.8250 30.6443,38.8537 30.6280,38.8780 30.6037,38.8943 30.5750,38.9000 30.4250,38.9000 30.3963,38.8943 30.3720,38.8780 30.3557,38.8537 30.3500,38.8250 Z"/> 
<path style="fill:#000000; fill-opacity:1.0000; stroke:none;fill-rule:evenodd;" d="M 30.8500,37.5000 30.8557,37.4713 30.8720,37.4470 30.8963,37.4307 30.9250,37.4250 31.0750,37.4250 31.1037,37.4307 31.1280,37.4470 31.1443,37.4713 31.1500,37.5000 31.1500,38.8250 31.1443,38.8537 31.1280,38.8780 31.1037,38.8943 31.0750,38.9000 30.9250,38.9000 30.8963,38.8943 30.8720,38.8780 30.8557,38.8537 30.8500,38.8250 Z"/> 
<path style="fill:#000000; fill-opacity:1.0000; stroke:none;fill-rule:evenodd;" d="M 31.6750,36.6750 31.6807,36.6463 31.6970,36.6220 31.7213,36.6057 31.7500,36.6000 33.0750,36.6000 33.1037,36.6057 33.1280,36.6220 33.1443,36.6463 33.1500,36.6750 33.1500,36.8250 33.1443,36.8537 33.1280,36.8780 33.1037,36.8943 33.0750,36.9000 31.7500,36.9000 31.7213,36.8943 31.6970,36.8780 31.6807,36.8537 31.6750,36.8250 Z"/> 
<path style="fill:#000000; fill-opacity:1.0000; stroke:none;fill-rule:evenodd;" d="M 31.6750,36.1750 31.6807,36.1463 31.6970,36.1220 31.7213,36.1057 31.7500,36.1000 33.0750,36.1000 33.1037,36.1057 33.1280,36.1220 33.1443,36.1463 33.1500,36.1750 33.1500,36.3250 33.1443,36.3537 33.1280,36.3780 33.1037,36.3943 33.0750,36.4000 31.7500,36.4000 31.7213,36.3943 31.6970,36.3780 31.6807,36.3537 31.6750,36.3250 Z"/> 
<path style="fill:#000000; fill-opacity:1.0000; stroke:none;fill-rule:evenodd;" d="M 31.6750,35.6750 31.6807,35.6463 31.6970,35.6220 31.7213,35.6057 31.7500,35.6000 33.0750,35.6000 33.1037,35.6057 33.1280,35.6220 33.1443,35.6463 33.1500,35.6750 33.1500,35.8250 33.1443,35.8537 33.1280,35.8780 33.1037,35.8943 33.0750,35.9000 31.7500,35.9000 31.7213,35.8943 31.6970,35.8780 31.6807,35.8537 31.6750,35.8250 Z"/> 
<path style="fill:#000000; fill-opacity:1.0000; stroke:none;fill-rule:evenodd;" d="M 31.6750,35.1750 31.6807,35.1463 31.6970,35.1220 31.7213,35.1057 31.7500,35.1000 33.0750,35.1000 33.1037,35.1057 33.1280,35.1220 33.1443,35.1463 33.1500,35.1750 33.1500,35.3250 33.1443,35.3537 33.1280,35.3780 33.1037,35.3943 33.0750,35.4000 31.7500,35.4000 31.7213,35.3943 31.6970,35.3780 31.6807,35.3537 31.6750,35.3250 Z"/> 
<path style="fill:#000000; fill-opacity:1.0000; stroke:none;fill-rule:evenodd;" d="M 31.6750,34.6750 31.6807,34.6463 31.6970,34.6220 31.7213,34.6057 31.7500,34.6000 33.0750,34.6000 33.1037,34.6057 33.1280,34.6220 33.1443,34.6463 33.1500,34.6750 33.1500,34.8250 33.1443,34.8537 33.1280,34.8780 33.1037,34.8943 33.0750,34.9000 31.7500,34.9000 31.7213,34.8943 31.6970,34.8780 31.6807,34.8537 31.6750,34.8250 Z"/> 
<path style="fill:#000000; fill-opacity:1.0000; stroke:none;fill-rule:evenodd;" d="M 31.6750,34.1750 31.6807,34.1463 31.6970,34.1220 31.7213,34.1057 31.7500,34.1000 33.0750,34.1000 33.1037,34.1057 33.1280,34.1220 33.1443,34.1463 33.1500,34.1750 33.1500,34.3250 33.1443,34.3537 33.1280,34.3780 33.1037,34.3943 33.0750,34.4000 31.7500,34.4000 31.7213,34.3943 31.6970,34.3780 31.6807,34.3537 31.6750,34.3250 Z"/> 
<path style="fill:#000000; fill-opacity:1.0000; stroke:none;fill-rule:evenodd;" d="M 31.6750,33.6750 31.6807,33.6463 31.6970,33.6220 31.7213,33.6057 31.7500,33.6000 33.0750,33.6000 33.1037,33.6057 33.1280,33.6220 33.1443,33.6463 33.1500,33.6750 33.1500,33.8250 33.1443,33.8537 33.1280,33.8780 33.1037,33.8943 33.0750,33.9000 31.7500,33.9000 31.7213,33.8943 31.6970,33.8780 31.6807,33.8537 31.6750,33.8250 Z"/> 
<path style="fill:#000000; fill-opacity:1.0000; stroke:none;fill-rule:evenodd;" d="M 31.6750,33.1750 31.6807,33.1463 31.6970,33.1220 31.7213,33.1057 31.7500,33.1000 33.0750,33.1000 33.1037,33.1057 33.1280,33.1220 33.1443,33.1463 33.1500,33.1750 33.1500,33.3250 33.1443,33.3537 33.1280,33.3780 33.1037,33.3943 33.0750,33.4000 31.7500,33.4000 31.7213,33.3943 31.6970,33.3780 31.6807,33.3537 31.6750,33.3250 Z"/> 
<path style="fill:#000000; fill-opacity:1.0000; stroke:none;fill-rule:evenodd;" d="M 31.6750,32.6750 31.6807,32.6463 31.6970,32.6220 31.7213,32.6057 31.7500,32.6000 33.0750,32.6000 33.1037,32.6057 33.1280,32.6220 33.1443,32.6463 33.1500,32.6750 33.1500,32.8250 33.1443,32.8537 33.1280,32.8780 33.1037,32.8943 33.0750,32.9000 31.7500,32.9000 31.7213,32.8943 31.6970,32.8780 31.6807,32.8537 31.6750,32.8250 Z"/> 
<path style="fill:#000000; fill-opacity:1.0000; stroke:none;fill-rule:evenodd;" d="M 31.6750,32.1750 31.6807,32.1463 31.6970,32.1220 31.7213,32.1057 31.7500,32.1000 33.0750,32.1000 33.1037,32.1057 33.1280,32.1220 33.1443,32.1463 33.1500,32.1750 33.1500,32.3250 33.1443,32.3537 33.1280,32.3780 33.1037,32.3943 33.0750,32.4000 31.7500,32.4000 31.7213,32.3943 31.6970,32.3780 31.6807,32.3537 31.6750,32.3250 Z"/> 
<path style="fill:#000000; fill-opacity:1.0000; stroke:none;fill-rule:evenodd;" d="M 31.6750,31.6750 31.6807,31.6463 31.6970,31.6220 31.7213,31.6057 31.7500,31.6000 33.0750,31.6000 33.1037,31.6057 33.1280,31.6220 33.1443,31.6463 33.1500,31.6750 33.1500,31.8250 33.1443,31.8537 33.1280,31.8780 33.1037,31.8943 33.0750,31.9000 31.7500,31.9000 31.7213,31.8943 31.6970,31.8780 31.6807,31.8537 31.6750,31.8250 Z"/> 
<path style="fill:#000000; fill-opacity:1.0000; stroke:none;fill-rule:evenodd;" d="M 31.6750,31.1750 31.6807,31.1463 31.6970,31.1220 31.7213,31.1057 31.7500,31.1000 33.0750,31.1000 33.1037,31.1057 33.1280,31.1220 33.1443,31.1463 33.1500,31.1750 33.1500,31.3250 33.1443,31.3537 33.1280,31.3780 33.1037,31.3943 33.0750,31.4000 31.7500,31.4000 31.7213,31.3943 31.6970,31.3780 31.6807,31.3537 31.6750,31.3250 Z"/> 
<path style="fill:#000000; fill-opacity:1.0000; stroke:none;fill-rule:evenodd;" d="M 30.8500,29.1750 30.8557,29.1463 30.8720,29.1220 30.8963,29.1057 30.9250,29.1000 31.0750,29.1000 31.1037,29.1057 31.1280,29.1220 31.1443,29.1463 31.1500,29.1750 31.1500,30.5000 31.1443,30.5287 31.1280,30.5530 31.1037,30.5693 31.0750,30.5750 30.9250,30.5750 30.8963,30.5693 30.8720,30.5530 30.8557,30.5287 30.8500,30.5000 Z"/> 
<path style="fill:#000000; fill-opacity:1.0000; stroke:none;fill-rule:evenodd;" d="M 30.3500,29.1750 30.3557,29.1463 30.3720,29.1220 30.3963,29.1057 30.4250,29.1000 30.5750,29.1000 30.6037,29.1057 30.6280,29.1220 30.6443,29.1463 30.6500,29.1750 30.6500,30.5000 30.6443,30.5287 30.6280,30.5530 30.6037,30.5693 30.5750,30.5750 30.4250,30.5750 30.3963,30.5693 30.3720,30.5530 30.3557,30.5287 30.3500,30.5000 Z"/> 
<path style="fill:#000000; fill-opacity:1.0000; stroke:none;fill-rule:evenodd;" d="M 29.8500,29.1750 29.8557,29.1463 29.8720,29.1220 29.8963,29.1057 29.9250,29.1000 30.0750,29.1000 30.1037,29.1057 30.1280,29.1220 30.1443,29.1463 30.1500,29.1750 30.1500,30.5000 30.1443,30.5287 30.1280,30.5530 30.1037,30.5693 30.0750,30.5750 29.9250,30.5750 29.8963,30.5693 29.8720,30.5530 29.8557,30.5287 29.8500,30.5000 Z"/> 
<path style="fill:#000000; fill-opacity:1.0000; stroke:none;fill-rule:evenodd;" d="M 29.3500,29.1750 29.3557,29.1463 29.3720,29.1220 29.3963,29.1057 29.4250,29.1000 29.5750,29.1000 29.6037,29.1057 29.6280,29.1220 29.6443,29.1463 29.6500,29.1750 29.6500,30.5000 29.6443,30.5287 29.6280,30.5530 29.6037,30.5693 29.5750,30.5750 29.4250,30.5750 29.3963,30.5693 29.3720,30.5530 29.3557,30.5287 29.3500,30.5000 Z"/> 
<path style="fill:#000000; fill-opacity:1.0000; stroke:none;fill-rule:evenodd;" d="M 28.8500,29.1750 28.8557,29.1463 28.8720,29.1220 28.8963,29.1057 28.9250,29.1000 29.0750,29.1000 29.1037,29.1057 29.1280,29.1220 29.1443,29.1463 29.1500,29.1750 29.1500,30.5000 29.1443,30.5287 29.1280,30.5530 29.1037,30.5693 29.0750,30.5750 28.9250,30.5750 28.8963,30.5693 28.8720,30.5530 28.8557,30.5287 28.8500,30.5000 Z"/> 
<path style="fill:#000000; fill-opacity:1.0000; stroke:none;fill-rule:evenodd;" d="M 28.3500,29.1750 28.3557,29.1463 28.3720,29.1220 28.3963,29.1057 28.4250,29.1000 28.5750,29.1000 28.6037,29.1057 28.6280,29.1220 28.6443,29.1463 28.6500,29.1750 28.6500,30.5000 28.6443,30.5287 28.6280,30.5530 28.6037,30.5693 28.5750,30.5750 28.4250,30.5750 28.3963,30.5693 28.3720,30.5530 28.3557,30.5287 28.3500,30.5000 Z"/> 
<path style="fill:#000000; fill-opacity:1.0000; stroke:none;fill-rule:evenodd;" d="M 27.8500,29.1750 27.8557,29.1463 27.8720,29.1220 27.8963,29.1057 27.9250,29.1000 28.0750,29.1000 28.1037,29.1057 28.1280,29.1220 28.1443,29.1463 28.1500,29.1750 28.1500,30.5000 28.1443,30.5287 28.1280,30.5530 28.1037,30.5693 28.0750,30.5750 27.9250,30.5750 27.8963,30.5693 27.8720,30.5530 27.8557,30.5287 27.8500,30.5000 Z"/> 
<path style="fill:#000000; fill-opacity:1.0000; stroke:none;fill-rule:evenodd;" d="M 27.3500,29.1750 27.3557,29.1463 27.3720,29.1220 27.3963,29.1057 27.4250,29.1000 27.5750,29.1000 27.6037,29.1057 27.6280,29.1220 27.6443,29.1463 27.6500,29.1750 27.6500,30.5000 27.6443,30.5287 27.6280,30.5530 27.6037,30.5693 27.5750,30.5750 27.4250,30.5750 27.3963,30.5693 27.3720,30.5530 27.3557,30.5287 27.3500,30.5000 Z"/> 
<path style="fill:#000000; fill-opacity:1.0000; stroke:none;fill-rule:evenodd;" d="M 26.8500,29.1750 26.8557,29.1463 26.8720,29.1220 26.8963,29.1057 26.9250,29.1000 27.0750,29.1000 27.1037,29.1057 27.1280,29.1220 27.1443,29.1463 27.1500,29.1750 27.1500,30.5000 27.1443,30.5287 27.1280,30.5530 27.1037,30.5693 27.0750,30.5750 26.9250,30.5750 26.8963,30.5693 26.8720,30.5530 26.8557,30.5287 26.8500,30.5000 Z"/> 
<path style="fill:#000000; fill-opacity:1.0000; stroke:none;fill-rule:evenodd;" d="M 26.3500,29.1750 26.3557,29.1463 26.3720,29.1220 26.3963,29.1057 26.4250,29.1000 26.5750,29.1000 26.6037,29.1057 26.6280,29.1220 26.6443,29.1463 26.6500,29.1750 26.6500,30.5000 26.6443,30.5287 26.6280,30.5530 26.6037,30.5693 26.5750,30.5750 26.4250,30.5750 26.3963,30.5693 26.3720,30.5530 26.3557,30.5287 26.3500,30.5000 Z"/> 
<path style="fill:#000000; fill-opacity:1.0000; stroke:none;fill-rule:evenodd;" d="M 25.8500,29.1750 25.8557,29.1463 25.8720,29.1220 25.8963,29.1057 25.9250,29.1000 26.0750,29.1000 26.1037,29.1057 26.1280,29.1220 26.1443,29.1463 26.1500,29.1750 26.1500,30.5000 26.1443,30.5287 26.1280,30.5530 26.1037,30.5693 26.0750,30.5750 25.9250,30.5750 25.8963,30.5693 25.8720,30.5530 25.8557,30.5287 25.8500,30.5000 Z"/> 
<path style="fill:#000000; fill-opacity:1.0000; stroke:none;fill-rule:evenodd;" d="M 25.3500,29.1750 25.3557,29.1463 25.3720,29.1220 25.3963,29.1057 25.4250,29.1000 25.5750,29.1000 25.6037,29.1057 25.6280,29.1220 25.6443,29.1463 25.6500,29.1750 25.6500,30.5000 25.6443,30.5287 25.6280,30.5530 25.6037,30.5693 25.5750,30.5750 25.4250,30.5750 25.3963,30.5693 25.3720,30.5530 25.3557,30.5287 25.3500,30.5000 Z"/> 
<path style="fill:#000000; fill-opacity:1.0000; stroke:none;fill-rule:evenodd;" d="M 36.3500,40.5750 36.3656,40.4680 36.4198,40.3571 36.5071,40.2698 36.6180,40.2156 36.7250,40.2000 37.9750,40.2000 38.0820,40.2156 38.1929,40.2698 38.2802,40.3571 38.3344,40.4680 38.3500,40.5750 38.3500,41.3250 38.3344,41.4320 38.2802,41.5429 38.1929,41.6302 38.0820,41.6844 37.9750,41.7000 36.7250,41.7000 36.6180,41.6844 36.5071,41.6302 36.4198,41.5429 36.3656,41.4320 36.3500,41.3250 Z"/> 
<path style="fill:#000000; fill-opacity:1.0000; stroke:none;fill-rule:evenodd;" d="M 36.3500,42.8750 36.3656,42.7680 36.4198,42.6571 36.5071,42.5698 36.6180,42.5156 36.7250,42.5000 37.9750,42.5000 38.0820,42.5156 38.1929,42.5698 38.2802,42.6571 38.3344,42.7680 38.3500,42.8750 38.3500,43.6250 38.3344,43.7320 38.2802,43.8429 38.1929,43.9302 38.0820,43.9844 37.9750,44.0000 36.7250,44.0000 36.6180,43.9844 36.5071,43.9302 36.4198,43.8429 36.3656,43.7320 36.3500,43.6250 Z"/> 
<path style="fill:#000000; fill-opacity:1.0000; stroke:none;fill-rule:evenodd;" d="M 42.6500,41.8500 42.6614,41.7437 42.7112,41.6104 42.7964,41.4964 42.9104,41.4112 43.0437,41.3614 43.1500,41.3500 44.1500,41.3500 44.2563,41.3614 44.3896,41.4112 44.5036,41.4964 44.5888,41.6104 44.6386,41.7437 44.6500,41.8500 44.6500,44.6500 44.6386,44.7563 44.5888,44.8896 44.5036,45.0036 44.3896,45.0888 44.2563,45.1386 44.1500,45.1500 43.1500,45.1500 43.0437,45.1386 42.9104,45.0888 42.7964,45.0036 42.7112,44.8896 42.6614,44.7563 42.6500,44.6500 Z"/> 
<path style="fill:#000000; fill-opacity:1.0000; stroke:none;fill-rule:evenodd;" d="M 36.3500,45.1750 36.3656,45.0680 36.4198,44.9571 36.5071,44.8698 36.6180,44.8156 36.7250,44.8000 37.9750,44.8000 38.0820,44.8156 38.1929,44.8698 38.2802,44.9571 38.3344,45.0680 38.3500,45.1750 38.3500,45.9250 38.3344,46.0320 38.2802,46.1429 38.1929,46.2302 38.0820,46.2844 37.9750,46.3000 36.7250,46.3000 36.6180,46.2844 36.5071,46.2302 36.4198,46.1429 36.3656,46.0320 36.3500,45.9250 Z"/> 
<path style="fill:#000000; fill-opacity:1.0000; stroke:none;fill-rule:evenodd;" d="M 38.5475,25.2375 40.2475,25.2375 40.2475,26.9375 38.5475,26.9375 Z"/> 
</g>
<g style="fill:#000000; fill-opacity:1.0000; stroke:none;">
<circle cx="36.8575" cy="26.0875" r="0.8500"/> 
</g>
<g style="fill:#000000; fill-opacity:1.0000; stroke:none;">
<circle cx="34.3175" cy="26.0875" r="0.8500"/> 
</g>
<g style="fill:#000000; fill-opacity:1.0000; stroke:none;">
<circle cx="31.7775" cy="26.0875" r="0.8500"/> 
<path style="fill:#000000; fill-opacity:1.0000; stroke:none;fill-rule:evenodd;" d="M 39.4875,49.8500 39.5784,49.8681 39.6554,49.9196 39.7069,49.9966 39.7250,50.0875 39.7250,50.6625 39.7069,50.7534 39.6554,50.8304 39.5784,50.8819 39.4875,50.9000 39.0125,50.9000 38.9216,50.8819 38.8446,50.8304 38.7931,50.7534 38.7750,50.6625 38.7750,50.0875 38.7931,49.9966 38.8446,49.9196 38.9216,49.8681 39.0125,49.8500 Z"/> 
<path style="fill:#000000; fill-opacity:1.0000; stroke:none;fill-rule:evenodd;" d="M 39.4875,51.6000 39.5784,51.6181 39.6554,51.6696 39.7069,51.7466 39.7250,51.8375 39.7250,52.4125 39.7069,52.5034 39.6554,52.5804 39.5784,52.6319 39.4875,52.6500 39.0125,52.6500 38.9216,52.6319 38.8446,52.5804 38.7931,52.5034 38.7750,52.4125 38.7750,51.8375 38.7931,51.7466 38.8446,51.6696 38.9216,51.6181 39.0125,51.6000 Z"/> 
</g> 
</mask></defs><g transform="" id="boardContainer"><g id="substrate" clip-path="url(#cut-off)" mask="url(#pads-mask-silkscreen)"><g id="substrate-board" style="fill:#143324; fill-opacity:0.25098039215686274; stroke:#143324; stroke-width:0;"><path d="M12.5000 72.5000 L12.5000 23.0000 M 68.0 23.0 L 68.0 72.5 L 12.5 72.5 L 12.5 23.0 L 68.0 23.0 " style="fill-rule: evenodd;"/><g style="fill: #4ca06c;fill-opacity: 1.0000;stroke: #4ca06c;stroke-opacity: 1.0000;stroke-linecap: round;stroke-linejoin: round" transform="translate(0 0) scale(1 1)">
<path style="fill: none;stroke: #4ca06c;stroke-width: 0.0500;stroke-opacity: 1;stroke-linecap: round;stroke-linejoin: round" d="M 12.5000,23.0000 68.0000,23.0000 68.0000,72.5000 12.5000,72.5000 Z"/> 
</g> 
</g></g></g></svg>
