%TF.GenerationSoftware,KiCad,Pcbnew,9.0.1+1*%
%TF.CreationDate,2025-10-27T20:24:24+00:00*%
%TF.ProjectId,ECAD_main,45434144-5f6d-4616-996e-2e6b69636164,rev?*%
%TF.SameCoordinates,Original*%
%TF.FileFunction,Drillmap*%
%TF.FilePolarity,Positive*%
%FSLAX45Y45*%
G04 Gerber Fmt 4.5, Leading zero omitted, Abs format (unit mm)*
G04 Created by KiCad (PCBNEW 9.0.1+1) date 2025-10-27 20:24:24*
%MOMM*%
%LPD*%
G01*
G04 APERTURE LIST*
%ADD10C,0.050000*%
%ADD11C,0.200000*%
%ADD12C,0.100000*%
%ADD13C,0.110000*%
%ADD14C,0.150000*%
%ADD15C,0.160000*%
%ADD16C,0.175000*%
G04 APERTURE END LIST*
D10*
X1250000Y-2300000D02*
X6800000Y-2300000D01*
X6800000Y-7250000D01*
X1250000Y-7250000D01*
X1250000Y-2300000D01*
D11*
D12*
X1660000Y-3035000D02*
X1690000Y-3065000D01*
X1690000Y-3035000D02*
X1660000Y-3065000D01*
X1660000Y-3610000D02*
X1690000Y-3640000D01*
X1690000Y-3610000D02*
X1660000Y-3640000D01*
X1760000Y-2835000D02*
X1790000Y-2865000D01*
X1790000Y-2835000D02*
X1760000Y-2865000D01*
X2160000Y-2835000D02*
X2190000Y-2865000D01*
X2190000Y-2835000D02*
X2160000Y-2865000D01*
X2189927Y-3564926D02*
X2219927Y-3594926D01*
X2219927Y-3564926D02*
X2189927Y-3594926D01*
X2210000Y-3160000D02*
X2240000Y-3190000D01*
X2240000Y-3160000D02*
X2210000Y-3190000D01*
X2235000Y-5160000D02*
X2265000Y-5190000D01*
X2265000Y-5160000D02*
X2235000Y-5190000D01*
X2335000Y-2960000D02*
X2365000Y-2990000D01*
X2365000Y-2960000D02*
X2335000Y-2990000D01*
X2385000Y-2785000D02*
X2415000Y-2815000D01*
X2415000Y-2785000D02*
X2385000Y-2815000D01*
X2460000Y-5335000D02*
X2490000Y-5365000D01*
X2490000Y-5335000D02*
X2460000Y-5365000D01*
X2610000Y-2460000D02*
X2640000Y-2490000D01*
X2640000Y-2460000D02*
X2610000Y-2490000D01*
X2610000Y-2610000D02*
X2640000Y-2640000D01*
X2640000Y-2610000D02*
X2610000Y-2640000D01*
X2660000Y-5185000D02*
X2690000Y-5215000D01*
X2690000Y-5185000D02*
X2660000Y-5215000D01*
X2735000Y-4160000D02*
X2765000Y-4190000D01*
X2765000Y-4160000D02*
X2735000Y-4190000D01*
X2760000Y-2360000D02*
X2790000Y-2390000D01*
X2790000Y-2360000D02*
X2760000Y-2390000D01*
X2910000Y-2510000D02*
X2940000Y-2540000D01*
X2940000Y-2510000D02*
X2910000Y-2540000D01*
X2910000Y-3960000D02*
X2940000Y-3990000D01*
X2940000Y-3960000D02*
X2910000Y-3990000D01*
X3260000Y-3960000D02*
X3290000Y-3990000D01*
X3290000Y-3960000D02*
X3260000Y-3990000D01*
X3285000Y-4485000D02*
X3315000Y-4515000D01*
X3315000Y-4485000D02*
X3285000Y-4515000D01*
X3310000Y-4310000D02*
X3340000Y-4340000D01*
X3340000Y-4310000D02*
X3310000Y-4340000D01*
X3510000Y-3060000D02*
X3540000Y-3090000D01*
X3540000Y-3060000D02*
X3510000Y-3090000D01*
X3635000Y-3060000D02*
X3665000Y-3090000D01*
X3665000Y-3060000D02*
X3635000Y-3090000D01*
X3735000Y-3160000D02*
X3765000Y-3190000D01*
X3765000Y-3160000D02*
X3735000Y-3190000D01*
X6365000Y-5550000D02*
G75*
G02*
X6285000Y-5550000I-40000J0D01*
G01*
X6285000Y-5550000D02*
G75*
G02*
X6365000Y-5550000I40000J0D01*
G01*
X6365000Y-5900000D02*
G75*
G02*
X6285000Y-5900000I-40000J0D01*
G01*
X6285000Y-5900000D02*
G75*
G02*
X6365000Y-5900000I40000J0D01*
G01*
X3177750Y-2558750D02*
X3177750Y-2658750D01*
X3127750Y-2608750D02*
X3227750Y-2608750D01*
X3431750Y-2558750D02*
X3431750Y-2658750D01*
X3381750Y-2608750D02*
X3481750Y-2608750D01*
X3685750Y-2558750D02*
X3685750Y-2658750D01*
X3635750Y-2608750D02*
X3735750Y-2608750D01*
X3939750Y-2558750D02*
X3939750Y-2658750D01*
X3889750Y-2608750D02*
X3989750Y-2608750D01*
D13*
X1455141Y-3913891D02*
X1455141Y-3836109D01*
X1377359Y-3836109D01*
X1377359Y-3913891D01*
X1455141Y-3913891D01*
X1455141Y-4563891D02*
X1455141Y-4486109D01*
X1377359Y-4486109D01*
X1377359Y-4563891D01*
X1455141Y-4563891D01*
X1905141Y-3913891D02*
X1905141Y-3836109D01*
X1827359Y-3836109D01*
X1827359Y-3913891D01*
X1905141Y-3913891D01*
X1905141Y-4563891D02*
X1905141Y-4486109D01*
X1827359Y-4486109D01*
X1827359Y-4563891D01*
X1905141Y-4563891D01*
D14*
X2025000Y-6425000D02*
X2100000Y-6350000D01*
X2025000Y-6275000D01*
X1950000Y-6350000D01*
X2025000Y-6425000D01*
D12*
X1950000Y-6224000D02*
X1950000Y-6476000D01*
X2100000Y-6476000D02*
G75*
G02*
X1950000Y-6476000I-75000J0D01*
G01*
X2100000Y-6476000D02*
X2100000Y-6224000D01*
X2100000Y-6224000D02*
G75*
G03*
X1950000Y-6224000I-75000J0D01*
G01*
D14*
X2645000Y-6425000D02*
X2720000Y-6350000D01*
X2645000Y-6275000D01*
X2570000Y-6350000D01*
X2645000Y-6425000D01*
D12*
X2570000Y-6224000D02*
X2570000Y-6476000D01*
X2720000Y-6476000D02*
G75*
G02*
X2570000Y-6476000I-75000J0D01*
G01*
X2720000Y-6476000D02*
X2720000Y-6224000D01*
X2720000Y-6224000D02*
G75*
G03*
X2570000Y-6224000I-75000J0D01*
G01*
D14*
X3870000Y-6725000D02*
X3945000Y-6650000D01*
X3870000Y-6575000D01*
X3795000Y-6650000D01*
X3870000Y-6725000D01*
X6130000Y-6725000D02*
X6205000Y-6650000D01*
X6130000Y-6575000D01*
X6055000Y-6650000D01*
X6130000Y-6725000D01*
D15*
X5020000Y-3020000D02*
X5180000Y-3180000D01*
X5180000Y-3020000D02*
X5020000Y-3180000D01*
X5180000Y-3100000D02*
G75*
G02*
X5020000Y-3100000I-80000J0D01*
G01*
X5020000Y-3100000D02*
G75*
G02*
X5180000Y-3100000I80000J0D01*
G01*
D16*
X3137500Y-6258000D02*
X3312500Y-6433000D01*
X3312500Y-6258000D02*
X3137500Y-6433000D01*
X3225000Y-6258000D02*
X3225000Y-6433000D01*
X3137500Y-6345500D02*
X3312500Y-6345500D01*
X3137500Y-6766000D02*
X3312500Y-6941000D01*
X3312500Y-6766000D02*
X3137500Y-6941000D01*
X3225000Y-6766000D02*
X3225000Y-6941000D01*
X3137500Y-6853500D02*
X3312500Y-6853500D01*
D11*
X1508277Y-7563984D02*
X1508277Y-7363984D01*
X1508277Y-7363984D02*
X1555896Y-7363984D01*
X1555896Y-7363984D02*
X1584467Y-7373508D01*
X1584467Y-7373508D02*
X1603515Y-7392555D01*
X1603515Y-7392555D02*
X1613039Y-7411603D01*
X1613039Y-7411603D02*
X1622562Y-7449698D01*
X1622562Y-7449698D02*
X1622562Y-7478269D01*
X1622562Y-7478269D02*
X1613039Y-7516365D01*
X1613039Y-7516365D02*
X1603515Y-7535412D01*
X1603515Y-7535412D02*
X1584467Y-7554460D01*
X1584467Y-7554460D02*
X1555896Y-7563984D01*
X1555896Y-7563984D02*
X1508277Y-7563984D01*
X1708277Y-7563984D02*
X1708277Y-7430650D01*
X1708277Y-7468746D02*
X1717801Y-7449698D01*
X1717801Y-7449698D02*
X1727324Y-7440174D01*
X1727324Y-7440174D02*
X1746372Y-7430650D01*
X1746372Y-7430650D02*
X1765420Y-7430650D01*
X1832086Y-7563984D02*
X1832086Y-7430650D01*
X1832086Y-7363984D02*
X1822562Y-7373508D01*
X1822562Y-7373508D02*
X1832086Y-7383031D01*
X1832086Y-7383031D02*
X1841610Y-7373508D01*
X1841610Y-7373508D02*
X1832086Y-7363984D01*
X1832086Y-7363984D02*
X1832086Y-7383031D01*
X1955896Y-7563984D02*
X1936848Y-7554460D01*
X1936848Y-7554460D02*
X1927324Y-7535412D01*
X1927324Y-7535412D02*
X1927324Y-7363984D01*
X2060658Y-7563984D02*
X2041610Y-7554460D01*
X2041610Y-7554460D02*
X2032086Y-7535412D01*
X2032086Y-7535412D02*
X2032086Y-7363984D01*
X2289229Y-7563984D02*
X2289229Y-7363984D01*
X2289229Y-7363984D02*
X2355896Y-7506841D01*
X2355896Y-7506841D02*
X2422563Y-7363984D01*
X2422563Y-7363984D02*
X2422563Y-7563984D01*
X2603515Y-7563984D02*
X2603515Y-7459222D01*
X2603515Y-7459222D02*
X2593991Y-7440174D01*
X2593991Y-7440174D02*
X2574944Y-7430650D01*
X2574944Y-7430650D02*
X2536848Y-7430650D01*
X2536848Y-7430650D02*
X2517801Y-7440174D01*
X2603515Y-7554460D02*
X2584467Y-7563984D01*
X2584467Y-7563984D02*
X2536848Y-7563984D01*
X2536848Y-7563984D02*
X2517801Y-7554460D01*
X2517801Y-7554460D02*
X2508277Y-7535412D01*
X2508277Y-7535412D02*
X2508277Y-7516365D01*
X2508277Y-7516365D02*
X2517801Y-7497317D01*
X2517801Y-7497317D02*
X2536848Y-7487793D01*
X2536848Y-7487793D02*
X2584467Y-7487793D01*
X2584467Y-7487793D02*
X2603515Y-7478269D01*
X2698753Y-7430650D02*
X2698753Y-7630650D01*
X2698753Y-7440174D02*
X2717801Y-7430650D01*
X2717801Y-7430650D02*
X2755896Y-7430650D01*
X2755896Y-7430650D02*
X2774944Y-7440174D01*
X2774944Y-7440174D02*
X2784467Y-7449698D01*
X2784467Y-7449698D02*
X2793991Y-7468746D01*
X2793991Y-7468746D02*
X2793991Y-7525888D01*
X2793991Y-7525888D02*
X2784467Y-7544936D01*
X2784467Y-7544936D02*
X2774944Y-7554460D01*
X2774944Y-7554460D02*
X2755896Y-7563984D01*
X2755896Y-7563984D02*
X2717801Y-7563984D01*
X2717801Y-7563984D02*
X2698753Y-7554460D01*
X2879705Y-7544936D02*
X2889229Y-7554460D01*
X2889229Y-7554460D02*
X2879705Y-7563984D01*
X2879705Y-7563984D02*
X2870182Y-7554460D01*
X2870182Y-7554460D02*
X2879705Y-7544936D01*
X2879705Y-7544936D02*
X2879705Y-7563984D01*
X2879705Y-7440174D02*
X2889229Y-7449698D01*
X2889229Y-7449698D02*
X2879705Y-7459222D01*
X2879705Y-7459222D02*
X2870182Y-7449698D01*
X2870182Y-7449698D02*
X2879705Y-7440174D01*
X2879705Y-7440174D02*
X2879705Y-7459222D01*
D12*
X1217500Y-7877500D02*
X1247500Y-7907500D01*
X1247500Y-7877500D02*
X1217500Y-7907500D01*
D11*
X1546372Y-7783984D02*
X1565420Y-7783984D01*
X1565420Y-7783984D02*
X1584467Y-7793508D01*
X1584467Y-7793508D02*
X1593991Y-7803031D01*
X1593991Y-7803031D02*
X1603515Y-7822079D01*
X1603515Y-7822079D02*
X1613039Y-7860174D01*
X1613039Y-7860174D02*
X1613039Y-7907793D01*
X1613039Y-7907793D02*
X1603515Y-7945888D01*
X1603515Y-7945888D02*
X1593991Y-7964936D01*
X1593991Y-7964936D02*
X1584467Y-7974460D01*
X1584467Y-7974460D02*
X1565420Y-7983984D01*
X1565420Y-7983984D02*
X1546372Y-7983984D01*
X1546372Y-7983984D02*
X1527324Y-7974460D01*
X1527324Y-7974460D02*
X1517801Y-7964936D01*
X1517801Y-7964936D02*
X1508277Y-7945888D01*
X1508277Y-7945888D02*
X1498753Y-7907793D01*
X1498753Y-7907793D02*
X1498753Y-7860174D01*
X1498753Y-7860174D02*
X1508277Y-7822079D01*
X1508277Y-7822079D02*
X1517801Y-7803031D01*
X1517801Y-7803031D02*
X1527324Y-7793508D01*
X1527324Y-7793508D02*
X1546372Y-7783984D01*
X1698753Y-7964936D02*
X1708277Y-7974460D01*
X1708277Y-7974460D02*
X1698753Y-7983984D01*
X1698753Y-7983984D02*
X1689229Y-7974460D01*
X1689229Y-7974460D02*
X1698753Y-7964936D01*
X1698753Y-7964936D02*
X1698753Y-7983984D01*
X1774943Y-7783984D02*
X1898753Y-7783984D01*
X1898753Y-7783984D02*
X1832086Y-7860174D01*
X1832086Y-7860174D02*
X1860658Y-7860174D01*
X1860658Y-7860174D02*
X1879705Y-7869698D01*
X1879705Y-7869698D02*
X1889229Y-7879222D01*
X1889229Y-7879222D02*
X1898753Y-7898269D01*
X1898753Y-7898269D02*
X1898753Y-7945888D01*
X1898753Y-7945888D02*
X1889229Y-7964936D01*
X1889229Y-7964936D02*
X1879705Y-7974460D01*
X1879705Y-7974460D02*
X1860658Y-7983984D01*
X1860658Y-7983984D02*
X1803515Y-7983984D01*
X1803515Y-7983984D02*
X1784467Y-7974460D01*
X1784467Y-7974460D02*
X1774943Y-7964936D01*
X2022562Y-7783984D02*
X2041610Y-7783984D01*
X2041610Y-7783984D02*
X2060658Y-7793508D01*
X2060658Y-7793508D02*
X2070182Y-7803031D01*
X2070182Y-7803031D02*
X2079705Y-7822079D01*
X2079705Y-7822079D02*
X2089229Y-7860174D01*
X2089229Y-7860174D02*
X2089229Y-7907793D01*
X2089229Y-7907793D02*
X2079705Y-7945888D01*
X2079705Y-7945888D02*
X2070182Y-7964936D01*
X2070182Y-7964936D02*
X2060658Y-7974460D01*
X2060658Y-7974460D02*
X2041610Y-7983984D01*
X2041610Y-7983984D02*
X2022562Y-7983984D01*
X2022562Y-7983984D02*
X2003515Y-7974460D01*
X2003515Y-7974460D02*
X1993991Y-7964936D01*
X1993991Y-7964936D02*
X1984467Y-7945888D01*
X1984467Y-7945888D02*
X1974943Y-7907793D01*
X1974943Y-7907793D02*
X1974943Y-7860174D01*
X1974943Y-7860174D02*
X1984467Y-7822079D01*
X1984467Y-7822079D02*
X1993991Y-7803031D01*
X1993991Y-7803031D02*
X2003515Y-7793508D01*
X2003515Y-7793508D02*
X2022562Y-7783984D01*
X2213039Y-7783984D02*
X2232086Y-7783984D01*
X2232086Y-7783984D02*
X2251134Y-7793508D01*
X2251134Y-7793508D02*
X2260658Y-7803031D01*
X2260658Y-7803031D02*
X2270182Y-7822079D01*
X2270182Y-7822079D02*
X2279705Y-7860174D01*
X2279705Y-7860174D02*
X2279705Y-7907793D01*
X2279705Y-7907793D02*
X2270182Y-7945888D01*
X2270182Y-7945888D02*
X2260658Y-7964936D01*
X2260658Y-7964936D02*
X2251134Y-7974460D01*
X2251134Y-7974460D02*
X2232086Y-7983984D01*
X2232086Y-7983984D02*
X2213039Y-7983984D01*
X2213039Y-7983984D02*
X2193991Y-7974460D01*
X2193991Y-7974460D02*
X2184467Y-7964936D01*
X2184467Y-7964936D02*
X2174944Y-7945888D01*
X2174944Y-7945888D02*
X2165420Y-7907793D01*
X2165420Y-7907793D02*
X2165420Y-7860174D01*
X2165420Y-7860174D02*
X2174944Y-7822079D01*
X2174944Y-7822079D02*
X2184467Y-7803031D01*
X2184467Y-7803031D02*
X2193991Y-7793508D01*
X2193991Y-7793508D02*
X2213039Y-7783984D01*
X2365420Y-7983984D02*
X2365420Y-7850650D01*
X2365420Y-7869698D02*
X2374944Y-7860174D01*
X2374944Y-7860174D02*
X2393991Y-7850650D01*
X2393991Y-7850650D02*
X2422563Y-7850650D01*
X2422563Y-7850650D02*
X2441610Y-7860174D01*
X2441610Y-7860174D02*
X2451134Y-7879222D01*
X2451134Y-7879222D02*
X2451134Y-7983984D01*
X2451134Y-7879222D02*
X2460658Y-7860174D01*
X2460658Y-7860174D02*
X2479705Y-7850650D01*
X2479705Y-7850650D02*
X2508277Y-7850650D01*
X2508277Y-7850650D02*
X2527325Y-7860174D01*
X2527325Y-7860174D02*
X2536848Y-7879222D01*
X2536848Y-7879222D02*
X2536848Y-7983984D01*
X2632086Y-7983984D02*
X2632086Y-7850650D01*
X2632086Y-7869698D02*
X2641610Y-7860174D01*
X2641610Y-7860174D02*
X2660658Y-7850650D01*
X2660658Y-7850650D02*
X2689229Y-7850650D01*
X2689229Y-7850650D02*
X2708277Y-7860174D01*
X2708277Y-7860174D02*
X2717801Y-7879222D01*
X2717801Y-7879222D02*
X2717801Y-7983984D01*
X2717801Y-7879222D02*
X2727325Y-7860174D01*
X2727325Y-7860174D02*
X2746372Y-7850650D01*
X2746372Y-7850650D02*
X2774944Y-7850650D01*
X2774944Y-7850650D02*
X2793991Y-7860174D01*
X2793991Y-7860174D02*
X2803515Y-7879222D01*
X2803515Y-7879222D02*
X2803515Y-7983984D01*
X3193991Y-7774460D02*
X3022563Y-8031603D01*
X3451134Y-7783984D02*
X3470182Y-7783984D01*
X3470182Y-7783984D02*
X3489229Y-7793508D01*
X3489229Y-7793508D02*
X3498753Y-7803031D01*
X3498753Y-7803031D02*
X3508277Y-7822079D01*
X3508277Y-7822079D02*
X3517801Y-7860174D01*
X3517801Y-7860174D02*
X3517801Y-7907793D01*
X3517801Y-7907793D02*
X3508277Y-7945888D01*
X3508277Y-7945888D02*
X3498753Y-7964936D01*
X3498753Y-7964936D02*
X3489229Y-7974460D01*
X3489229Y-7974460D02*
X3470182Y-7983984D01*
X3470182Y-7983984D02*
X3451134Y-7983984D01*
X3451134Y-7983984D02*
X3432086Y-7974460D01*
X3432086Y-7974460D02*
X3422563Y-7964936D01*
X3422563Y-7964936D02*
X3413039Y-7945888D01*
X3413039Y-7945888D02*
X3403515Y-7907793D01*
X3403515Y-7907793D02*
X3403515Y-7860174D01*
X3403515Y-7860174D02*
X3413039Y-7822079D01*
X3413039Y-7822079D02*
X3422563Y-7803031D01*
X3422563Y-7803031D02*
X3432086Y-7793508D01*
X3432086Y-7793508D02*
X3451134Y-7783984D01*
X3603515Y-7964936D02*
X3613039Y-7974460D01*
X3613039Y-7974460D02*
X3603515Y-7983984D01*
X3603515Y-7983984D02*
X3593991Y-7974460D01*
X3593991Y-7974460D02*
X3603515Y-7964936D01*
X3603515Y-7964936D02*
X3603515Y-7983984D01*
X3736848Y-7783984D02*
X3755896Y-7783984D01*
X3755896Y-7783984D02*
X3774944Y-7793508D01*
X3774944Y-7793508D02*
X3784467Y-7803031D01*
X3784467Y-7803031D02*
X3793991Y-7822079D01*
X3793991Y-7822079D02*
X3803515Y-7860174D01*
X3803515Y-7860174D02*
X3803515Y-7907793D01*
X3803515Y-7907793D02*
X3793991Y-7945888D01*
X3793991Y-7945888D02*
X3784467Y-7964936D01*
X3784467Y-7964936D02*
X3774944Y-7974460D01*
X3774944Y-7974460D02*
X3755896Y-7983984D01*
X3755896Y-7983984D02*
X3736848Y-7983984D01*
X3736848Y-7983984D02*
X3717801Y-7974460D01*
X3717801Y-7974460D02*
X3708277Y-7964936D01*
X3708277Y-7964936D02*
X3698753Y-7945888D01*
X3698753Y-7945888D02*
X3689229Y-7907793D01*
X3689229Y-7907793D02*
X3689229Y-7860174D01*
X3689229Y-7860174D02*
X3698753Y-7822079D01*
X3698753Y-7822079D02*
X3708277Y-7803031D01*
X3708277Y-7803031D02*
X3717801Y-7793508D01*
X3717801Y-7793508D02*
X3736848Y-7783984D01*
X3993991Y-7983984D02*
X3879706Y-7983984D01*
X3936848Y-7983984D02*
X3936848Y-7783984D01*
X3936848Y-7783984D02*
X3917801Y-7812555D01*
X3917801Y-7812555D02*
X3898753Y-7831603D01*
X3898753Y-7831603D02*
X3879706Y-7841127D01*
X4184467Y-7983984D02*
X4070182Y-7983984D01*
X4127325Y-7983984D02*
X4127325Y-7783984D01*
X4127325Y-7783984D02*
X4108277Y-7812555D01*
X4108277Y-7812555D02*
X4089229Y-7831603D01*
X4089229Y-7831603D02*
X4070182Y-7841127D01*
X4298753Y-7869698D02*
X4279706Y-7860174D01*
X4279706Y-7860174D02*
X4270182Y-7850650D01*
X4270182Y-7850650D02*
X4260658Y-7831603D01*
X4260658Y-7831603D02*
X4260658Y-7822079D01*
X4260658Y-7822079D02*
X4270182Y-7803031D01*
X4270182Y-7803031D02*
X4279706Y-7793508D01*
X4279706Y-7793508D02*
X4298753Y-7783984D01*
X4298753Y-7783984D02*
X4336849Y-7783984D01*
X4336849Y-7783984D02*
X4355896Y-7793508D01*
X4355896Y-7793508D02*
X4365420Y-7803031D01*
X4365420Y-7803031D02*
X4374944Y-7822079D01*
X4374944Y-7822079D02*
X4374944Y-7831603D01*
X4374944Y-7831603D02*
X4365420Y-7850650D01*
X4365420Y-7850650D02*
X4355896Y-7860174D01*
X4355896Y-7860174D02*
X4336849Y-7869698D01*
X4336849Y-7869698D02*
X4298753Y-7869698D01*
X4298753Y-7869698D02*
X4279706Y-7879222D01*
X4279706Y-7879222D02*
X4270182Y-7888746D01*
X4270182Y-7888746D02*
X4260658Y-7907793D01*
X4260658Y-7907793D02*
X4260658Y-7945888D01*
X4260658Y-7945888D02*
X4270182Y-7964936D01*
X4270182Y-7964936D02*
X4279706Y-7974460D01*
X4279706Y-7974460D02*
X4298753Y-7983984D01*
X4298753Y-7983984D02*
X4336849Y-7983984D01*
X4336849Y-7983984D02*
X4355896Y-7974460D01*
X4355896Y-7974460D02*
X4365420Y-7964936D01*
X4365420Y-7964936D02*
X4374944Y-7945888D01*
X4374944Y-7945888D02*
X4374944Y-7907793D01*
X4374944Y-7907793D02*
X4365420Y-7888746D01*
X4365420Y-7888746D02*
X4355896Y-7879222D01*
X4355896Y-7879222D02*
X4336849Y-7869698D01*
X4451134Y-7783984D02*
X4451134Y-7822079D01*
X4527325Y-7783984D02*
X4527325Y-7822079D01*
X4822563Y-8060174D02*
X4813039Y-8050650D01*
X4813039Y-8050650D02*
X4793991Y-8022079D01*
X4793991Y-8022079D02*
X4784468Y-8003031D01*
X4784468Y-8003031D02*
X4774944Y-7974460D01*
X4774944Y-7974460D02*
X4765420Y-7926841D01*
X4765420Y-7926841D02*
X4765420Y-7888746D01*
X4765420Y-7888746D02*
X4774944Y-7841127D01*
X4774944Y-7841127D02*
X4784468Y-7812555D01*
X4784468Y-7812555D02*
X4793991Y-7793508D01*
X4793991Y-7793508D02*
X4813039Y-7764936D01*
X4813039Y-7764936D02*
X4822563Y-7755412D01*
X4889230Y-7803031D02*
X4898753Y-7793508D01*
X4898753Y-7793508D02*
X4917801Y-7783984D01*
X4917801Y-7783984D02*
X4965420Y-7783984D01*
X4965420Y-7783984D02*
X4984468Y-7793508D01*
X4984468Y-7793508D02*
X4993991Y-7803031D01*
X4993991Y-7803031D02*
X5003515Y-7822079D01*
X5003515Y-7822079D02*
X5003515Y-7841127D01*
X5003515Y-7841127D02*
X4993991Y-7869698D01*
X4993991Y-7869698D02*
X4879706Y-7983984D01*
X4879706Y-7983984D02*
X5003515Y-7983984D01*
X5070182Y-7783984D02*
X5193991Y-7783984D01*
X5193991Y-7783984D02*
X5127325Y-7860174D01*
X5127325Y-7860174D02*
X5155896Y-7860174D01*
X5155896Y-7860174D02*
X5174944Y-7869698D01*
X5174944Y-7869698D02*
X5184468Y-7879222D01*
X5184468Y-7879222D02*
X5193991Y-7898269D01*
X5193991Y-7898269D02*
X5193991Y-7945888D01*
X5193991Y-7945888D02*
X5184468Y-7964936D01*
X5184468Y-7964936D02*
X5174944Y-7974460D01*
X5174944Y-7974460D02*
X5155896Y-7983984D01*
X5155896Y-7983984D02*
X5098753Y-7983984D01*
X5098753Y-7983984D02*
X5079706Y-7974460D01*
X5079706Y-7974460D02*
X5070182Y-7964936D01*
X5432087Y-7983984D02*
X5432087Y-7783984D01*
X5517801Y-7983984D02*
X5517801Y-7879222D01*
X5517801Y-7879222D02*
X5508277Y-7860174D01*
X5508277Y-7860174D02*
X5489230Y-7850650D01*
X5489230Y-7850650D02*
X5460658Y-7850650D01*
X5460658Y-7850650D02*
X5441611Y-7860174D01*
X5441611Y-7860174D02*
X5432087Y-7869698D01*
X5641610Y-7983984D02*
X5622563Y-7974460D01*
X5622563Y-7974460D02*
X5613039Y-7964936D01*
X5613039Y-7964936D02*
X5603515Y-7945888D01*
X5603515Y-7945888D02*
X5603515Y-7888746D01*
X5603515Y-7888746D02*
X5613039Y-7869698D01*
X5613039Y-7869698D02*
X5622563Y-7860174D01*
X5622563Y-7860174D02*
X5641610Y-7850650D01*
X5641610Y-7850650D02*
X5670182Y-7850650D01*
X5670182Y-7850650D02*
X5689230Y-7860174D01*
X5689230Y-7860174D02*
X5698753Y-7869698D01*
X5698753Y-7869698D02*
X5708277Y-7888746D01*
X5708277Y-7888746D02*
X5708277Y-7945888D01*
X5708277Y-7945888D02*
X5698753Y-7964936D01*
X5698753Y-7964936D02*
X5689230Y-7974460D01*
X5689230Y-7974460D02*
X5670182Y-7983984D01*
X5670182Y-7983984D02*
X5641610Y-7983984D01*
X5822563Y-7983984D02*
X5803515Y-7974460D01*
X5803515Y-7974460D02*
X5793991Y-7955412D01*
X5793991Y-7955412D02*
X5793991Y-7783984D01*
X5974944Y-7974460D02*
X5955896Y-7983984D01*
X5955896Y-7983984D02*
X5917801Y-7983984D01*
X5917801Y-7983984D02*
X5898753Y-7974460D01*
X5898753Y-7974460D02*
X5889230Y-7955412D01*
X5889230Y-7955412D02*
X5889230Y-7879222D01*
X5889230Y-7879222D02*
X5898753Y-7860174D01*
X5898753Y-7860174D02*
X5917801Y-7850650D01*
X5917801Y-7850650D02*
X5955896Y-7850650D01*
X5955896Y-7850650D02*
X5974944Y-7860174D01*
X5974944Y-7860174D02*
X5984468Y-7879222D01*
X5984468Y-7879222D02*
X5984468Y-7898269D01*
X5984468Y-7898269D02*
X5889230Y-7917317D01*
X6060658Y-7974460D02*
X6079706Y-7983984D01*
X6079706Y-7983984D02*
X6117801Y-7983984D01*
X6117801Y-7983984D02*
X6136849Y-7974460D01*
X6136849Y-7974460D02*
X6146372Y-7955412D01*
X6146372Y-7955412D02*
X6146372Y-7945888D01*
X6146372Y-7945888D02*
X6136849Y-7926841D01*
X6136849Y-7926841D02*
X6117801Y-7917317D01*
X6117801Y-7917317D02*
X6089230Y-7917317D01*
X6089230Y-7917317D02*
X6070182Y-7907793D01*
X6070182Y-7907793D02*
X6060658Y-7888746D01*
X6060658Y-7888746D02*
X6060658Y-7879222D01*
X6060658Y-7879222D02*
X6070182Y-7860174D01*
X6070182Y-7860174D02*
X6089230Y-7850650D01*
X6089230Y-7850650D02*
X6117801Y-7850650D01*
X6117801Y-7850650D02*
X6136849Y-7860174D01*
X6213039Y-8060174D02*
X6222563Y-8050650D01*
X6222563Y-8050650D02*
X6241611Y-8022079D01*
X6241611Y-8022079D02*
X6251134Y-8003031D01*
X6251134Y-8003031D02*
X6260658Y-7974460D01*
X6260658Y-7974460D02*
X6270182Y-7926841D01*
X6270182Y-7926841D02*
X6270182Y-7888746D01*
X6270182Y-7888746D02*
X6260658Y-7841127D01*
X6260658Y-7841127D02*
X6251134Y-7812555D01*
X6251134Y-7812555D02*
X6241611Y-7793508D01*
X6241611Y-7793508D02*
X6222563Y-7764936D01*
X6222563Y-7764936D02*
X6213039Y-7755412D01*
D12*
X1247500Y-8156500D02*
G75*
G02*
X1167500Y-8156500I-40000J0D01*
G01*
X1167500Y-8156500D02*
G75*
G02*
X1247500Y-8156500I40000J0D01*
G01*
D11*
X1546372Y-8047984D02*
X1565420Y-8047984D01*
X1565420Y-8047984D02*
X1584467Y-8057508D01*
X1584467Y-8057508D02*
X1593991Y-8067031D01*
X1593991Y-8067031D02*
X1603515Y-8086079D01*
X1603515Y-8086079D02*
X1613039Y-8124174D01*
X1613039Y-8124174D02*
X1613039Y-8171793D01*
X1613039Y-8171793D02*
X1603515Y-8209888D01*
X1603515Y-8209888D02*
X1593991Y-8228936D01*
X1593991Y-8228936D02*
X1584467Y-8238460D01*
X1584467Y-8238460D02*
X1565420Y-8247984D01*
X1565420Y-8247984D02*
X1546372Y-8247984D01*
X1546372Y-8247984D02*
X1527324Y-8238460D01*
X1527324Y-8238460D02*
X1517801Y-8228936D01*
X1517801Y-8228936D02*
X1508277Y-8209888D01*
X1508277Y-8209888D02*
X1498753Y-8171793D01*
X1498753Y-8171793D02*
X1498753Y-8124174D01*
X1498753Y-8124174D02*
X1508277Y-8086079D01*
X1508277Y-8086079D02*
X1517801Y-8067031D01*
X1517801Y-8067031D02*
X1527324Y-8057508D01*
X1527324Y-8057508D02*
X1546372Y-8047984D01*
X1698753Y-8228936D02*
X1708277Y-8238460D01*
X1708277Y-8238460D02*
X1698753Y-8247984D01*
X1698753Y-8247984D02*
X1689229Y-8238460D01*
X1689229Y-8238460D02*
X1698753Y-8228936D01*
X1698753Y-8228936D02*
X1698753Y-8247984D01*
X1822562Y-8133698D02*
X1803515Y-8124174D01*
X1803515Y-8124174D02*
X1793991Y-8114650D01*
X1793991Y-8114650D02*
X1784467Y-8095603D01*
X1784467Y-8095603D02*
X1784467Y-8086079D01*
X1784467Y-8086079D02*
X1793991Y-8067031D01*
X1793991Y-8067031D02*
X1803515Y-8057508D01*
X1803515Y-8057508D02*
X1822562Y-8047984D01*
X1822562Y-8047984D02*
X1860658Y-8047984D01*
X1860658Y-8047984D02*
X1879705Y-8057508D01*
X1879705Y-8057508D02*
X1889229Y-8067031D01*
X1889229Y-8067031D02*
X1898753Y-8086079D01*
X1898753Y-8086079D02*
X1898753Y-8095603D01*
X1898753Y-8095603D02*
X1889229Y-8114650D01*
X1889229Y-8114650D02*
X1879705Y-8124174D01*
X1879705Y-8124174D02*
X1860658Y-8133698D01*
X1860658Y-8133698D02*
X1822562Y-8133698D01*
X1822562Y-8133698D02*
X1803515Y-8143222D01*
X1803515Y-8143222D02*
X1793991Y-8152746D01*
X1793991Y-8152746D02*
X1784467Y-8171793D01*
X1784467Y-8171793D02*
X1784467Y-8209888D01*
X1784467Y-8209888D02*
X1793991Y-8228936D01*
X1793991Y-8228936D02*
X1803515Y-8238460D01*
X1803515Y-8238460D02*
X1822562Y-8247984D01*
X1822562Y-8247984D02*
X1860658Y-8247984D01*
X1860658Y-8247984D02*
X1879705Y-8238460D01*
X1879705Y-8238460D02*
X1889229Y-8228936D01*
X1889229Y-8228936D02*
X1898753Y-8209888D01*
X1898753Y-8209888D02*
X1898753Y-8171793D01*
X1898753Y-8171793D02*
X1889229Y-8152746D01*
X1889229Y-8152746D02*
X1879705Y-8143222D01*
X1879705Y-8143222D02*
X1860658Y-8133698D01*
X2022562Y-8047984D02*
X2041610Y-8047984D01*
X2041610Y-8047984D02*
X2060658Y-8057508D01*
X2060658Y-8057508D02*
X2070182Y-8067031D01*
X2070182Y-8067031D02*
X2079705Y-8086079D01*
X2079705Y-8086079D02*
X2089229Y-8124174D01*
X2089229Y-8124174D02*
X2089229Y-8171793D01*
X2089229Y-8171793D02*
X2079705Y-8209888D01*
X2079705Y-8209888D02*
X2070182Y-8228936D01*
X2070182Y-8228936D02*
X2060658Y-8238460D01*
X2060658Y-8238460D02*
X2041610Y-8247984D01*
X2041610Y-8247984D02*
X2022562Y-8247984D01*
X2022562Y-8247984D02*
X2003515Y-8238460D01*
X2003515Y-8238460D02*
X1993991Y-8228936D01*
X1993991Y-8228936D02*
X1984467Y-8209888D01*
X1984467Y-8209888D02*
X1974943Y-8171793D01*
X1974943Y-8171793D02*
X1974943Y-8124174D01*
X1974943Y-8124174D02*
X1984467Y-8086079D01*
X1984467Y-8086079D02*
X1993991Y-8067031D01*
X1993991Y-8067031D02*
X2003515Y-8057508D01*
X2003515Y-8057508D02*
X2022562Y-8047984D01*
X2213039Y-8047984D02*
X2232086Y-8047984D01*
X2232086Y-8047984D02*
X2251134Y-8057508D01*
X2251134Y-8057508D02*
X2260658Y-8067031D01*
X2260658Y-8067031D02*
X2270182Y-8086079D01*
X2270182Y-8086079D02*
X2279705Y-8124174D01*
X2279705Y-8124174D02*
X2279705Y-8171793D01*
X2279705Y-8171793D02*
X2270182Y-8209888D01*
X2270182Y-8209888D02*
X2260658Y-8228936D01*
X2260658Y-8228936D02*
X2251134Y-8238460D01*
X2251134Y-8238460D02*
X2232086Y-8247984D01*
X2232086Y-8247984D02*
X2213039Y-8247984D01*
X2213039Y-8247984D02*
X2193991Y-8238460D01*
X2193991Y-8238460D02*
X2184467Y-8228936D01*
X2184467Y-8228936D02*
X2174944Y-8209888D01*
X2174944Y-8209888D02*
X2165420Y-8171793D01*
X2165420Y-8171793D02*
X2165420Y-8124174D01*
X2165420Y-8124174D02*
X2174944Y-8086079D01*
X2174944Y-8086079D02*
X2184467Y-8067031D01*
X2184467Y-8067031D02*
X2193991Y-8057508D01*
X2193991Y-8057508D02*
X2213039Y-8047984D01*
X2365420Y-8247984D02*
X2365420Y-8114650D01*
X2365420Y-8133698D02*
X2374944Y-8124174D01*
X2374944Y-8124174D02*
X2393991Y-8114650D01*
X2393991Y-8114650D02*
X2422563Y-8114650D01*
X2422563Y-8114650D02*
X2441610Y-8124174D01*
X2441610Y-8124174D02*
X2451134Y-8143222D01*
X2451134Y-8143222D02*
X2451134Y-8247984D01*
X2451134Y-8143222D02*
X2460658Y-8124174D01*
X2460658Y-8124174D02*
X2479705Y-8114650D01*
X2479705Y-8114650D02*
X2508277Y-8114650D01*
X2508277Y-8114650D02*
X2527325Y-8124174D01*
X2527325Y-8124174D02*
X2536848Y-8143222D01*
X2536848Y-8143222D02*
X2536848Y-8247984D01*
X2632086Y-8247984D02*
X2632086Y-8114650D01*
X2632086Y-8133698D02*
X2641610Y-8124174D01*
X2641610Y-8124174D02*
X2660658Y-8114650D01*
X2660658Y-8114650D02*
X2689229Y-8114650D01*
X2689229Y-8114650D02*
X2708277Y-8124174D01*
X2708277Y-8124174D02*
X2717801Y-8143222D01*
X2717801Y-8143222D02*
X2717801Y-8247984D01*
X2717801Y-8143222D02*
X2727325Y-8124174D01*
X2727325Y-8124174D02*
X2746372Y-8114650D01*
X2746372Y-8114650D02*
X2774944Y-8114650D01*
X2774944Y-8114650D02*
X2793991Y-8124174D01*
X2793991Y-8124174D02*
X2803515Y-8143222D01*
X2803515Y-8143222D02*
X2803515Y-8247984D01*
X3193991Y-8038460D02*
X3022563Y-8295603D01*
X3451134Y-8047984D02*
X3470182Y-8047984D01*
X3470182Y-8047984D02*
X3489229Y-8057508D01*
X3489229Y-8057508D02*
X3498753Y-8067031D01*
X3498753Y-8067031D02*
X3508277Y-8086079D01*
X3508277Y-8086079D02*
X3517801Y-8124174D01*
X3517801Y-8124174D02*
X3517801Y-8171793D01*
X3517801Y-8171793D02*
X3508277Y-8209888D01*
X3508277Y-8209888D02*
X3498753Y-8228936D01*
X3498753Y-8228936D02*
X3489229Y-8238460D01*
X3489229Y-8238460D02*
X3470182Y-8247984D01*
X3470182Y-8247984D02*
X3451134Y-8247984D01*
X3451134Y-8247984D02*
X3432086Y-8238460D01*
X3432086Y-8238460D02*
X3422563Y-8228936D01*
X3422563Y-8228936D02*
X3413039Y-8209888D01*
X3413039Y-8209888D02*
X3403515Y-8171793D01*
X3403515Y-8171793D02*
X3403515Y-8124174D01*
X3403515Y-8124174D02*
X3413039Y-8086079D01*
X3413039Y-8086079D02*
X3422563Y-8067031D01*
X3422563Y-8067031D02*
X3432086Y-8057508D01*
X3432086Y-8057508D02*
X3451134Y-8047984D01*
X3603515Y-8228936D02*
X3613039Y-8238460D01*
X3613039Y-8238460D02*
X3603515Y-8247984D01*
X3603515Y-8247984D02*
X3593991Y-8238460D01*
X3593991Y-8238460D02*
X3603515Y-8228936D01*
X3603515Y-8228936D02*
X3603515Y-8247984D01*
X3736848Y-8047984D02*
X3755896Y-8047984D01*
X3755896Y-8047984D02*
X3774944Y-8057508D01*
X3774944Y-8057508D02*
X3784467Y-8067031D01*
X3784467Y-8067031D02*
X3793991Y-8086079D01*
X3793991Y-8086079D02*
X3803515Y-8124174D01*
X3803515Y-8124174D02*
X3803515Y-8171793D01*
X3803515Y-8171793D02*
X3793991Y-8209888D01*
X3793991Y-8209888D02*
X3784467Y-8228936D01*
X3784467Y-8228936D02*
X3774944Y-8238460D01*
X3774944Y-8238460D02*
X3755896Y-8247984D01*
X3755896Y-8247984D02*
X3736848Y-8247984D01*
X3736848Y-8247984D02*
X3717801Y-8238460D01*
X3717801Y-8238460D02*
X3708277Y-8228936D01*
X3708277Y-8228936D02*
X3698753Y-8209888D01*
X3698753Y-8209888D02*
X3689229Y-8171793D01*
X3689229Y-8171793D02*
X3689229Y-8124174D01*
X3689229Y-8124174D02*
X3698753Y-8086079D01*
X3698753Y-8086079D02*
X3708277Y-8067031D01*
X3708277Y-8067031D02*
X3717801Y-8057508D01*
X3717801Y-8057508D02*
X3736848Y-8047984D01*
X3870182Y-8047984D02*
X3993991Y-8047984D01*
X3993991Y-8047984D02*
X3927325Y-8124174D01*
X3927325Y-8124174D02*
X3955896Y-8124174D01*
X3955896Y-8124174D02*
X3974944Y-8133698D01*
X3974944Y-8133698D02*
X3984467Y-8143222D01*
X3984467Y-8143222D02*
X3993991Y-8162269D01*
X3993991Y-8162269D02*
X3993991Y-8209888D01*
X3993991Y-8209888D02*
X3984467Y-8228936D01*
X3984467Y-8228936D02*
X3974944Y-8238460D01*
X3974944Y-8238460D02*
X3955896Y-8247984D01*
X3955896Y-8247984D02*
X3898753Y-8247984D01*
X3898753Y-8247984D02*
X3879706Y-8238460D01*
X3879706Y-8238460D02*
X3870182Y-8228936D01*
X4184467Y-8247984D02*
X4070182Y-8247984D01*
X4127325Y-8247984D02*
X4127325Y-8047984D01*
X4127325Y-8047984D02*
X4108277Y-8076555D01*
X4108277Y-8076555D02*
X4089229Y-8095603D01*
X4089229Y-8095603D02*
X4070182Y-8105127D01*
X4365420Y-8047984D02*
X4270182Y-8047984D01*
X4270182Y-8047984D02*
X4260658Y-8143222D01*
X4260658Y-8143222D02*
X4270182Y-8133698D01*
X4270182Y-8133698D02*
X4289229Y-8124174D01*
X4289229Y-8124174D02*
X4336849Y-8124174D01*
X4336849Y-8124174D02*
X4355896Y-8133698D01*
X4355896Y-8133698D02*
X4365420Y-8143222D01*
X4365420Y-8143222D02*
X4374944Y-8162269D01*
X4374944Y-8162269D02*
X4374944Y-8209888D01*
X4374944Y-8209888D02*
X4365420Y-8228936D01*
X4365420Y-8228936D02*
X4355896Y-8238460D01*
X4355896Y-8238460D02*
X4336849Y-8247984D01*
X4336849Y-8247984D02*
X4289229Y-8247984D01*
X4289229Y-8247984D02*
X4270182Y-8238460D01*
X4270182Y-8238460D02*
X4260658Y-8228936D01*
X4451134Y-8047984D02*
X4451134Y-8086079D01*
X4527325Y-8047984D02*
X4527325Y-8086079D01*
X4822563Y-8324174D02*
X4813039Y-8314650D01*
X4813039Y-8314650D02*
X4793991Y-8286079D01*
X4793991Y-8286079D02*
X4784468Y-8267031D01*
X4784468Y-8267031D02*
X4774944Y-8238460D01*
X4774944Y-8238460D02*
X4765420Y-8190841D01*
X4765420Y-8190841D02*
X4765420Y-8152746D01*
X4765420Y-8152746D02*
X4774944Y-8105127D01*
X4774944Y-8105127D02*
X4784468Y-8076555D01*
X4784468Y-8076555D02*
X4793991Y-8057508D01*
X4793991Y-8057508D02*
X4813039Y-8028936D01*
X4813039Y-8028936D02*
X4822563Y-8019412D01*
X4889230Y-8067031D02*
X4898753Y-8057508D01*
X4898753Y-8057508D02*
X4917801Y-8047984D01*
X4917801Y-8047984D02*
X4965420Y-8047984D01*
X4965420Y-8047984D02*
X4984468Y-8057508D01*
X4984468Y-8057508D02*
X4993991Y-8067031D01*
X4993991Y-8067031D02*
X5003515Y-8086079D01*
X5003515Y-8086079D02*
X5003515Y-8105127D01*
X5003515Y-8105127D02*
X4993991Y-8133698D01*
X4993991Y-8133698D02*
X4879706Y-8247984D01*
X4879706Y-8247984D02*
X5003515Y-8247984D01*
X5241611Y-8247984D02*
X5241611Y-8047984D01*
X5327325Y-8247984D02*
X5327325Y-8143222D01*
X5327325Y-8143222D02*
X5317801Y-8124174D01*
X5317801Y-8124174D02*
X5298753Y-8114650D01*
X5298753Y-8114650D02*
X5270182Y-8114650D01*
X5270182Y-8114650D02*
X5251134Y-8124174D01*
X5251134Y-8124174D02*
X5241611Y-8133698D01*
X5451134Y-8247984D02*
X5432087Y-8238460D01*
X5432087Y-8238460D02*
X5422563Y-8228936D01*
X5422563Y-8228936D02*
X5413039Y-8209888D01*
X5413039Y-8209888D02*
X5413039Y-8152746D01*
X5413039Y-8152746D02*
X5422563Y-8133698D01*
X5422563Y-8133698D02*
X5432087Y-8124174D01*
X5432087Y-8124174D02*
X5451134Y-8114650D01*
X5451134Y-8114650D02*
X5479706Y-8114650D01*
X5479706Y-8114650D02*
X5498753Y-8124174D01*
X5498753Y-8124174D02*
X5508277Y-8133698D01*
X5508277Y-8133698D02*
X5517801Y-8152746D01*
X5517801Y-8152746D02*
X5517801Y-8209888D01*
X5517801Y-8209888D02*
X5508277Y-8228936D01*
X5508277Y-8228936D02*
X5498753Y-8238460D01*
X5498753Y-8238460D02*
X5479706Y-8247984D01*
X5479706Y-8247984D02*
X5451134Y-8247984D01*
X5632087Y-8247984D02*
X5613039Y-8238460D01*
X5613039Y-8238460D02*
X5603515Y-8219412D01*
X5603515Y-8219412D02*
X5603515Y-8047984D01*
X5784468Y-8238460D02*
X5765420Y-8247984D01*
X5765420Y-8247984D02*
X5727325Y-8247984D01*
X5727325Y-8247984D02*
X5708277Y-8238460D01*
X5708277Y-8238460D02*
X5698753Y-8219412D01*
X5698753Y-8219412D02*
X5698753Y-8143222D01*
X5698753Y-8143222D02*
X5708277Y-8124174D01*
X5708277Y-8124174D02*
X5727325Y-8114650D01*
X5727325Y-8114650D02*
X5765420Y-8114650D01*
X5765420Y-8114650D02*
X5784468Y-8124174D01*
X5784468Y-8124174D02*
X5793991Y-8143222D01*
X5793991Y-8143222D02*
X5793991Y-8162269D01*
X5793991Y-8162269D02*
X5698753Y-8181317D01*
X5870182Y-8238460D02*
X5889230Y-8247984D01*
X5889230Y-8247984D02*
X5927325Y-8247984D01*
X5927325Y-8247984D02*
X5946372Y-8238460D01*
X5946372Y-8238460D02*
X5955896Y-8219412D01*
X5955896Y-8219412D02*
X5955896Y-8209888D01*
X5955896Y-8209888D02*
X5946372Y-8190841D01*
X5946372Y-8190841D02*
X5927325Y-8181317D01*
X5927325Y-8181317D02*
X5898753Y-8181317D01*
X5898753Y-8181317D02*
X5879706Y-8171793D01*
X5879706Y-8171793D02*
X5870182Y-8152746D01*
X5870182Y-8152746D02*
X5870182Y-8143222D01*
X5870182Y-8143222D02*
X5879706Y-8124174D01*
X5879706Y-8124174D02*
X5898753Y-8114650D01*
X5898753Y-8114650D02*
X5927325Y-8114650D01*
X5927325Y-8114650D02*
X5946372Y-8124174D01*
X6022563Y-8324174D02*
X6032087Y-8314650D01*
X6032087Y-8314650D02*
X6051134Y-8286079D01*
X6051134Y-8286079D02*
X6060658Y-8267031D01*
X6060658Y-8267031D02*
X6070182Y-8238460D01*
X6070182Y-8238460D02*
X6079706Y-8190841D01*
X6079706Y-8190841D02*
X6079706Y-8152746D01*
X6079706Y-8152746D02*
X6070182Y-8105127D01*
X6070182Y-8105127D02*
X6060658Y-8076555D01*
X6060658Y-8076555D02*
X6051134Y-8057508D01*
X6051134Y-8057508D02*
X6032087Y-8028936D01*
X6032087Y-8028936D02*
X6022563Y-8019412D01*
D12*
X1197500Y-8370500D02*
X1197500Y-8470500D01*
X1147500Y-8420500D02*
X1247500Y-8420500D01*
D11*
X1613039Y-8511984D02*
X1498753Y-8511984D01*
X1555896Y-8511984D02*
X1555896Y-8311984D01*
X1555896Y-8311984D02*
X1536848Y-8340555D01*
X1536848Y-8340555D02*
X1517801Y-8359603D01*
X1517801Y-8359603D02*
X1498753Y-8369127D01*
X1698753Y-8492936D02*
X1708277Y-8502460D01*
X1708277Y-8502460D02*
X1698753Y-8511984D01*
X1698753Y-8511984D02*
X1689229Y-8502460D01*
X1689229Y-8502460D02*
X1698753Y-8492936D01*
X1698753Y-8492936D02*
X1698753Y-8511984D01*
X1832086Y-8311984D02*
X1851134Y-8311984D01*
X1851134Y-8311984D02*
X1870182Y-8321508D01*
X1870182Y-8321508D02*
X1879705Y-8331031D01*
X1879705Y-8331031D02*
X1889229Y-8350079D01*
X1889229Y-8350079D02*
X1898753Y-8388174D01*
X1898753Y-8388174D02*
X1898753Y-8435793D01*
X1898753Y-8435793D02*
X1889229Y-8473889D01*
X1889229Y-8473889D02*
X1879705Y-8492936D01*
X1879705Y-8492936D02*
X1870182Y-8502460D01*
X1870182Y-8502460D02*
X1851134Y-8511984D01*
X1851134Y-8511984D02*
X1832086Y-8511984D01*
X1832086Y-8511984D02*
X1813039Y-8502460D01*
X1813039Y-8502460D02*
X1803515Y-8492936D01*
X1803515Y-8492936D02*
X1793991Y-8473889D01*
X1793991Y-8473889D02*
X1784467Y-8435793D01*
X1784467Y-8435793D02*
X1784467Y-8388174D01*
X1784467Y-8388174D02*
X1793991Y-8350079D01*
X1793991Y-8350079D02*
X1803515Y-8331031D01*
X1803515Y-8331031D02*
X1813039Y-8321508D01*
X1813039Y-8321508D02*
X1832086Y-8311984D01*
X2022562Y-8311984D02*
X2041610Y-8311984D01*
X2041610Y-8311984D02*
X2060658Y-8321508D01*
X2060658Y-8321508D02*
X2070182Y-8331031D01*
X2070182Y-8331031D02*
X2079705Y-8350079D01*
X2079705Y-8350079D02*
X2089229Y-8388174D01*
X2089229Y-8388174D02*
X2089229Y-8435793D01*
X2089229Y-8435793D02*
X2079705Y-8473889D01*
X2079705Y-8473889D02*
X2070182Y-8492936D01*
X2070182Y-8492936D02*
X2060658Y-8502460D01*
X2060658Y-8502460D02*
X2041610Y-8511984D01*
X2041610Y-8511984D02*
X2022562Y-8511984D01*
X2022562Y-8511984D02*
X2003515Y-8502460D01*
X2003515Y-8502460D02*
X1993991Y-8492936D01*
X1993991Y-8492936D02*
X1984467Y-8473889D01*
X1984467Y-8473889D02*
X1974943Y-8435793D01*
X1974943Y-8435793D02*
X1974943Y-8388174D01*
X1974943Y-8388174D02*
X1984467Y-8350079D01*
X1984467Y-8350079D02*
X1993991Y-8331031D01*
X1993991Y-8331031D02*
X2003515Y-8321508D01*
X2003515Y-8321508D02*
X2022562Y-8311984D01*
X2213039Y-8311984D02*
X2232086Y-8311984D01*
X2232086Y-8311984D02*
X2251134Y-8321508D01*
X2251134Y-8321508D02*
X2260658Y-8331031D01*
X2260658Y-8331031D02*
X2270182Y-8350079D01*
X2270182Y-8350079D02*
X2279705Y-8388174D01*
X2279705Y-8388174D02*
X2279705Y-8435793D01*
X2279705Y-8435793D02*
X2270182Y-8473889D01*
X2270182Y-8473889D02*
X2260658Y-8492936D01*
X2260658Y-8492936D02*
X2251134Y-8502460D01*
X2251134Y-8502460D02*
X2232086Y-8511984D01*
X2232086Y-8511984D02*
X2213039Y-8511984D01*
X2213039Y-8511984D02*
X2193991Y-8502460D01*
X2193991Y-8502460D02*
X2184467Y-8492936D01*
X2184467Y-8492936D02*
X2174944Y-8473889D01*
X2174944Y-8473889D02*
X2165420Y-8435793D01*
X2165420Y-8435793D02*
X2165420Y-8388174D01*
X2165420Y-8388174D02*
X2174944Y-8350079D01*
X2174944Y-8350079D02*
X2184467Y-8331031D01*
X2184467Y-8331031D02*
X2193991Y-8321508D01*
X2193991Y-8321508D02*
X2213039Y-8311984D01*
X2365420Y-8511984D02*
X2365420Y-8378650D01*
X2365420Y-8397698D02*
X2374944Y-8388174D01*
X2374944Y-8388174D02*
X2393991Y-8378650D01*
X2393991Y-8378650D02*
X2422563Y-8378650D01*
X2422563Y-8378650D02*
X2441610Y-8388174D01*
X2441610Y-8388174D02*
X2451134Y-8407222D01*
X2451134Y-8407222D02*
X2451134Y-8511984D01*
X2451134Y-8407222D02*
X2460658Y-8388174D01*
X2460658Y-8388174D02*
X2479705Y-8378650D01*
X2479705Y-8378650D02*
X2508277Y-8378650D01*
X2508277Y-8378650D02*
X2527325Y-8388174D01*
X2527325Y-8388174D02*
X2536848Y-8407222D01*
X2536848Y-8407222D02*
X2536848Y-8511984D01*
X2632086Y-8511984D02*
X2632086Y-8378650D01*
X2632086Y-8397698D02*
X2641610Y-8388174D01*
X2641610Y-8388174D02*
X2660658Y-8378650D01*
X2660658Y-8378650D02*
X2689229Y-8378650D01*
X2689229Y-8378650D02*
X2708277Y-8388174D01*
X2708277Y-8388174D02*
X2717801Y-8407222D01*
X2717801Y-8407222D02*
X2717801Y-8511984D01*
X2717801Y-8407222D02*
X2727325Y-8388174D01*
X2727325Y-8388174D02*
X2746372Y-8378650D01*
X2746372Y-8378650D02*
X2774944Y-8378650D01*
X2774944Y-8378650D02*
X2793991Y-8388174D01*
X2793991Y-8388174D02*
X2803515Y-8407222D01*
X2803515Y-8407222D02*
X2803515Y-8511984D01*
X3193991Y-8302460D02*
X3022563Y-8559603D01*
X3451134Y-8311984D02*
X3470182Y-8311984D01*
X3470182Y-8311984D02*
X3489229Y-8321508D01*
X3489229Y-8321508D02*
X3498753Y-8331031D01*
X3498753Y-8331031D02*
X3508277Y-8350079D01*
X3508277Y-8350079D02*
X3517801Y-8388174D01*
X3517801Y-8388174D02*
X3517801Y-8435793D01*
X3517801Y-8435793D02*
X3508277Y-8473889D01*
X3508277Y-8473889D02*
X3498753Y-8492936D01*
X3498753Y-8492936D02*
X3489229Y-8502460D01*
X3489229Y-8502460D02*
X3470182Y-8511984D01*
X3470182Y-8511984D02*
X3451134Y-8511984D01*
X3451134Y-8511984D02*
X3432086Y-8502460D01*
X3432086Y-8502460D02*
X3422563Y-8492936D01*
X3422563Y-8492936D02*
X3413039Y-8473889D01*
X3413039Y-8473889D02*
X3403515Y-8435793D01*
X3403515Y-8435793D02*
X3403515Y-8388174D01*
X3403515Y-8388174D02*
X3413039Y-8350079D01*
X3413039Y-8350079D02*
X3422563Y-8331031D01*
X3422563Y-8331031D02*
X3432086Y-8321508D01*
X3432086Y-8321508D02*
X3451134Y-8311984D01*
X3603515Y-8492936D02*
X3613039Y-8502460D01*
X3613039Y-8502460D02*
X3603515Y-8511984D01*
X3603515Y-8511984D02*
X3593991Y-8502460D01*
X3593991Y-8502460D02*
X3603515Y-8492936D01*
X3603515Y-8492936D02*
X3603515Y-8511984D01*
X3736848Y-8311984D02*
X3755896Y-8311984D01*
X3755896Y-8311984D02*
X3774944Y-8321508D01*
X3774944Y-8321508D02*
X3784467Y-8331031D01*
X3784467Y-8331031D02*
X3793991Y-8350079D01*
X3793991Y-8350079D02*
X3803515Y-8388174D01*
X3803515Y-8388174D02*
X3803515Y-8435793D01*
X3803515Y-8435793D02*
X3793991Y-8473889D01*
X3793991Y-8473889D02*
X3784467Y-8492936D01*
X3784467Y-8492936D02*
X3774944Y-8502460D01*
X3774944Y-8502460D02*
X3755896Y-8511984D01*
X3755896Y-8511984D02*
X3736848Y-8511984D01*
X3736848Y-8511984D02*
X3717801Y-8502460D01*
X3717801Y-8502460D02*
X3708277Y-8492936D01*
X3708277Y-8492936D02*
X3698753Y-8473889D01*
X3698753Y-8473889D02*
X3689229Y-8435793D01*
X3689229Y-8435793D02*
X3689229Y-8388174D01*
X3689229Y-8388174D02*
X3698753Y-8350079D01*
X3698753Y-8350079D02*
X3708277Y-8331031D01*
X3708277Y-8331031D02*
X3717801Y-8321508D01*
X3717801Y-8321508D02*
X3736848Y-8311984D01*
X3870182Y-8311984D02*
X3993991Y-8311984D01*
X3993991Y-8311984D02*
X3927325Y-8388174D01*
X3927325Y-8388174D02*
X3955896Y-8388174D01*
X3955896Y-8388174D02*
X3974944Y-8397698D01*
X3974944Y-8397698D02*
X3984467Y-8407222D01*
X3984467Y-8407222D02*
X3993991Y-8426270D01*
X3993991Y-8426270D02*
X3993991Y-8473889D01*
X3993991Y-8473889D02*
X3984467Y-8492936D01*
X3984467Y-8492936D02*
X3974944Y-8502460D01*
X3974944Y-8502460D02*
X3955896Y-8511984D01*
X3955896Y-8511984D02*
X3898753Y-8511984D01*
X3898753Y-8511984D02*
X3879706Y-8502460D01*
X3879706Y-8502460D02*
X3870182Y-8492936D01*
X4089229Y-8511984D02*
X4127325Y-8511984D01*
X4127325Y-8511984D02*
X4146372Y-8502460D01*
X4146372Y-8502460D02*
X4155896Y-8492936D01*
X4155896Y-8492936D02*
X4174944Y-8464365D01*
X4174944Y-8464365D02*
X4184467Y-8426270D01*
X4184467Y-8426270D02*
X4184467Y-8350079D01*
X4184467Y-8350079D02*
X4174944Y-8331031D01*
X4174944Y-8331031D02*
X4165420Y-8321508D01*
X4165420Y-8321508D02*
X4146372Y-8311984D01*
X4146372Y-8311984D02*
X4108277Y-8311984D01*
X4108277Y-8311984D02*
X4089229Y-8321508D01*
X4089229Y-8321508D02*
X4079706Y-8331031D01*
X4079706Y-8331031D02*
X4070182Y-8350079D01*
X4070182Y-8350079D02*
X4070182Y-8397698D01*
X4070182Y-8397698D02*
X4079706Y-8416746D01*
X4079706Y-8416746D02*
X4089229Y-8426270D01*
X4089229Y-8426270D02*
X4108277Y-8435793D01*
X4108277Y-8435793D02*
X4146372Y-8435793D01*
X4146372Y-8435793D02*
X4165420Y-8426270D01*
X4165420Y-8426270D02*
X4174944Y-8416746D01*
X4174944Y-8416746D02*
X4184467Y-8397698D01*
X4355896Y-8378650D02*
X4355896Y-8511984D01*
X4308277Y-8302460D02*
X4260658Y-8445317D01*
X4260658Y-8445317D02*
X4384468Y-8445317D01*
X4451134Y-8311984D02*
X4451134Y-8350079D01*
X4527325Y-8311984D02*
X4527325Y-8350079D01*
X4822563Y-8588174D02*
X4813039Y-8578650D01*
X4813039Y-8578650D02*
X4793991Y-8550079D01*
X4793991Y-8550079D02*
X4784468Y-8531031D01*
X4784468Y-8531031D02*
X4774944Y-8502460D01*
X4774944Y-8502460D02*
X4765420Y-8454841D01*
X4765420Y-8454841D02*
X4765420Y-8416746D01*
X4765420Y-8416746D02*
X4774944Y-8369127D01*
X4774944Y-8369127D02*
X4784468Y-8340555D01*
X4784468Y-8340555D02*
X4793991Y-8321508D01*
X4793991Y-8321508D02*
X4813039Y-8292936D01*
X4813039Y-8292936D02*
X4822563Y-8283412D01*
X4984468Y-8378650D02*
X4984468Y-8511984D01*
X4936849Y-8302460D02*
X4889230Y-8445317D01*
X4889230Y-8445317D02*
X5013039Y-8445317D01*
X5241611Y-8511984D02*
X5241611Y-8311984D01*
X5327325Y-8511984D02*
X5327325Y-8407222D01*
X5327325Y-8407222D02*
X5317801Y-8388174D01*
X5317801Y-8388174D02*
X5298753Y-8378650D01*
X5298753Y-8378650D02*
X5270182Y-8378650D01*
X5270182Y-8378650D02*
X5251134Y-8388174D01*
X5251134Y-8388174D02*
X5241611Y-8397698D01*
X5451134Y-8511984D02*
X5432087Y-8502460D01*
X5432087Y-8502460D02*
X5422563Y-8492936D01*
X5422563Y-8492936D02*
X5413039Y-8473889D01*
X5413039Y-8473889D02*
X5413039Y-8416746D01*
X5413039Y-8416746D02*
X5422563Y-8397698D01*
X5422563Y-8397698D02*
X5432087Y-8388174D01*
X5432087Y-8388174D02*
X5451134Y-8378650D01*
X5451134Y-8378650D02*
X5479706Y-8378650D01*
X5479706Y-8378650D02*
X5498753Y-8388174D01*
X5498753Y-8388174D02*
X5508277Y-8397698D01*
X5508277Y-8397698D02*
X5517801Y-8416746D01*
X5517801Y-8416746D02*
X5517801Y-8473889D01*
X5517801Y-8473889D02*
X5508277Y-8492936D01*
X5508277Y-8492936D02*
X5498753Y-8502460D01*
X5498753Y-8502460D02*
X5479706Y-8511984D01*
X5479706Y-8511984D02*
X5451134Y-8511984D01*
X5632087Y-8511984D02*
X5613039Y-8502460D01*
X5613039Y-8502460D02*
X5603515Y-8483412D01*
X5603515Y-8483412D02*
X5603515Y-8311984D01*
X5784468Y-8502460D02*
X5765420Y-8511984D01*
X5765420Y-8511984D02*
X5727325Y-8511984D01*
X5727325Y-8511984D02*
X5708277Y-8502460D01*
X5708277Y-8502460D02*
X5698753Y-8483412D01*
X5698753Y-8483412D02*
X5698753Y-8407222D01*
X5698753Y-8407222D02*
X5708277Y-8388174D01*
X5708277Y-8388174D02*
X5727325Y-8378650D01*
X5727325Y-8378650D02*
X5765420Y-8378650D01*
X5765420Y-8378650D02*
X5784468Y-8388174D01*
X5784468Y-8388174D02*
X5793991Y-8407222D01*
X5793991Y-8407222D02*
X5793991Y-8426270D01*
X5793991Y-8426270D02*
X5698753Y-8445317D01*
X5870182Y-8502460D02*
X5889230Y-8511984D01*
X5889230Y-8511984D02*
X5927325Y-8511984D01*
X5927325Y-8511984D02*
X5946372Y-8502460D01*
X5946372Y-8502460D02*
X5955896Y-8483412D01*
X5955896Y-8483412D02*
X5955896Y-8473889D01*
X5955896Y-8473889D02*
X5946372Y-8454841D01*
X5946372Y-8454841D02*
X5927325Y-8445317D01*
X5927325Y-8445317D02*
X5898753Y-8445317D01*
X5898753Y-8445317D02*
X5879706Y-8435793D01*
X5879706Y-8435793D02*
X5870182Y-8416746D01*
X5870182Y-8416746D02*
X5870182Y-8407222D01*
X5870182Y-8407222D02*
X5879706Y-8388174D01*
X5879706Y-8388174D02*
X5898753Y-8378650D01*
X5898753Y-8378650D02*
X5927325Y-8378650D01*
X5927325Y-8378650D02*
X5946372Y-8388174D01*
X6022563Y-8588174D02*
X6032087Y-8578650D01*
X6032087Y-8578650D02*
X6051134Y-8550079D01*
X6051134Y-8550079D02*
X6060658Y-8531031D01*
X6060658Y-8531031D02*
X6070182Y-8502460D01*
X6070182Y-8502460D02*
X6079706Y-8454841D01*
X6079706Y-8454841D02*
X6079706Y-8416746D01*
X6079706Y-8416746D02*
X6070182Y-8369127D01*
X6070182Y-8369127D02*
X6060658Y-8340555D01*
X6060658Y-8340555D02*
X6051134Y-8321508D01*
X6051134Y-8321508D02*
X6032087Y-8292936D01*
X6032087Y-8292936D02*
X6022563Y-8283412D01*
D13*
X1231391Y-8723391D02*
X1231391Y-8645609D01*
X1153609Y-8645609D01*
X1153609Y-8723391D01*
X1231391Y-8723391D01*
D11*
X1613039Y-8775984D02*
X1498753Y-8775984D01*
X1555896Y-8775984D02*
X1555896Y-8575984D01*
X1555896Y-8575984D02*
X1536848Y-8604555D01*
X1536848Y-8604555D02*
X1517801Y-8623603D01*
X1517801Y-8623603D02*
X1498753Y-8633127D01*
X1698753Y-8756936D02*
X1708277Y-8766460D01*
X1708277Y-8766460D02*
X1698753Y-8775984D01*
X1698753Y-8775984D02*
X1689229Y-8766460D01*
X1689229Y-8766460D02*
X1698753Y-8756936D01*
X1698753Y-8756936D02*
X1698753Y-8775984D01*
X1898753Y-8775984D02*
X1784467Y-8775984D01*
X1841610Y-8775984D02*
X1841610Y-8575984D01*
X1841610Y-8575984D02*
X1822562Y-8604555D01*
X1822562Y-8604555D02*
X1803515Y-8623603D01*
X1803515Y-8623603D02*
X1784467Y-8633127D01*
X2022562Y-8575984D02*
X2041610Y-8575984D01*
X2041610Y-8575984D02*
X2060658Y-8585508D01*
X2060658Y-8585508D02*
X2070182Y-8595031D01*
X2070182Y-8595031D02*
X2079705Y-8614079D01*
X2079705Y-8614079D02*
X2089229Y-8652174D01*
X2089229Y-8652174D02*
X2089229Y-8699793D01*
X2089229Y-8699793D02*
X2079705Y-8737889D01*
X2079705Y-8737889D02*
X2070182Y-8756936D01*
X2070182Y-8756936D02*
X2060658Y-8766460D01*
X2060658Y-8766460D02*
X2041610Y-8775984D01*
X2041610Y-8775984D02*
X2022562Y-8775984D01*
X2022562Y-8775984D02*
X2003515Y-8766460D01*
X2003515Y-8766460D02*
X1993991Y-8756936D01*
X1993991Y-8756936D02*
X1984467Y-8737889D01*
X1984467Y-8737889D02*
X1974943Y-8699793D01*
X1974943Y-8699793D02*
X1974943Y-8652174D01*
X1974943Y-8652174D02*
X1984467Y-8614079D01*
X1984467Y-8614079D02*
X1993991Y-8595031D01*
X1993991Y-8595031D02*
X2003515Y-8585508D01*
X2003515Y-8585508D02*
X2022562Y-8575984D01*
X2213039Y-8575984D02*
X2232086Y-8575984D01*
X2232086Y-8575984D02*
X2251134Y-8585508D01*
X2251134Y-8585508D02*
X2260658Y-8595031D01*
X2260658Y-8595031D02*
X2270182Y-8614079D01*
X2270182Y-8614079D02*
X2279705Y-8652174D01*
X2279705Y-8652174D02*
X2279705Y-8699793D01*
X2279705Y-8699793D02*
X2270182Y-8737889D01*
X2270182Y-8737889D02*
X2260658Y-8756936D01*
X2260658Y-8756936D02*
X2251134Y-8766460D01*
X2251134Y-8766460D02*
X2232086Y-8775984D01*
X2232086Y-8775984D02*
X2213039Y-8775984D01*
X2213039Y-8775984D02*
X2193991Y-8766460D01*
X2193991Y-8766460D02*
X2184467Y-8756936D01*
X2184467Y-8756936D02*
X2174944Y-8737889D01*
X2174944Y-8737889D02*
X2165420Y-8699793D01*
X2165420Y-8699793D02*
X2165420Y-8652174D01*
X2165420Y-8652174D02*
X2174944Y-8614079D01*
X2174944Y-8614079D02*
X2184467Y-8595031D01*
X2184467Y-8595031D02*
X2193991Y-8585508D01*
X2193991Y-8585508D02*
X2213039Y-8575984D01*
X2365420Y-8775984D02*
X2365420Y-8642650D01*
X2365420Y-8661698D02*
X2374944Y-8652174D01*
X2374944Y-8652174D02*
X2393991Y-8642650D01*
X2393991Y-8642650D02*
X2422563Y-8642650D01*
X2422563Y-8642650D02*
X2441610Y-8652174D01*
X2441610Y-8652174D02*
X2451134Y-8671222D01*
X2451134Y-8671222D02*
X2451134Y-8775984D01*
X2451134Y-8671222D02*
X2460658Y-8652174D01*
X2460658Y-8652174D02*
X2479705Y-8642650D01*
X2479705Y-8642650D02*
X2508277Y-8642650D01*
X2508277Y-8642650D02*
X2527325Y-8652174D01*
X2527325Y-8652174D02*
X2536848Y-8671222D01*
X2536848Y-8671222D02*
X2536848Y-8775984D01*
X2632086Y-8775984D02*
X2632086Y-8642650D01*
X2632086Y-8661698D02*
X2641610Y-8652174D01*
X2641610Y-8652174D02*
X2660658Y-8642650D01*
X2660658Y-8642650D02*
X2689229Y-8642650D01*
X2689229Y-8642650D02*
X2708277Y-8652174D01*
X2708277Y-8652174D02*
X2717801Y-8671222D01*
X2717801Y-8671222D02*
X2717801Y-8775984D01*
X2717801Y-8671222D02*
X2727325Y-8652174D01*
X2727325Y-8652174D02*
X2746372Y-8642650D01*
X2746372Y-8642650D02*
X2774944Y-8642650D01*
X2774944Y-8642650D02*
X2793991Y-8652174D01*
X2793991Y-8652174D02*
X2803515Y-8671222D01*
X2803515Y-8671222D02*
X2803515Y-8775984D01*
X3193991Y-8566460D02*
X3022563Y-8823603D01*
X3451134Y-8575984D02*
X3470182Y-8575984D01*
X3470182Y-8575984D02*
X3489229Y-8585508D01*
X3489229Y-8585508D02*
X3498753Y-8595031D01*
X3498753Y-8595031D02*
X3508277Y-8614079D01*
X3508277Y-8614079D02*
X3517801Y-8652174D01*
X3517801Y-8652174D02*
X3517801Y-8699793D01*
X3517801Y-8699793D02*
X3508277Y-8737889D01*
X3508277Y-8737889D02*
X3498753Y-8756936D01*
X3498753Y-8756936D02*
X3489229Y-8766460D01*
X3489229Y-8766460D02*
X3470182Y-8775984D01*
X3470182Y-8775984D02*
X3451134Y-8775984D01*
X3451134Y-8775984D02*
X3432086Y-8766460D01*
X3432086Y-8766460D02*
X3422563Y-8756936D01*
X3422563Y-8756936D02*
X3413039Y-8737889D01*
X3413039Y-8737889D02*
X3403515Y-8699793D01*
X3403515Y-8699793D02*
X3403515Y-8652174D01*
X3403515Y-8652174D02*
X3413039Y-8614079D01*
X3413039Y-8614079D02*
X3422563Y-8595031D01*
X3422563Y-8595031D02*
X3432086Y-8585508D01*
X3432086Y-8585508D02*
X3451134Y-8575984D01*
X3603515Y-8756936D02*
X3613039Y-8766460D01*
X3613039Y-8766460D02*
X3603515Y-8775984D01*
X3603515Y-8775984D02*
X3593991Y-8766460D01*
X3593991Y-8766460D02*
X3603515Y-8756936D01*
X3603515Y-8756936D02*
X3603515Y-8775984D01*
X3736848Y-8575984D02*
X3755896Y-8575984D01*
X3755896Y-8575984D02*
X3774944Y-8585508D01*
X3774944Y-8585508D02*
X3784467Y-8595031D01*
X3784467Y-8595031D02*
X3793991Y-8614079D01*
X3793991Y-8614079D02*
X3803515Y-8652174D01*
X3803515Y-8652174D02*
X3803515Y-8699793D01*
X3803515Y-8699793D02*
X3793991Y-8737889D01*
X3793991Y-8737889D02*
X3784467Y-8756936D01*
X3784467Y-8756936D02*
X3774944Y-8766460D01*
X3774944Y-8766460D02*
X3755896Y-8775984D01*
X3755896Y-8775984D02*
X3736848Y-8775984D01*
X3736848Y-8775984D02*
X3717801Y-8766460D01*
X3717801Y-8766460D02*
X3708277Y-8756936D01*
X3708277Y-8756936D02*
X3698753Y-8737889D01*
X3698753Y-8737889D02*
X3689229Y-8699793D01*
X3689229Y-8699793D02*
X3689229Y-8652174D01*
X3689229Y-8652174D02*
X3698753Y-8614079D01*
X3698753Y-8614079D02*
X3708277Y-8595031D01*
X3708277Y-8595031D02*
X3717801Y-8585508D01*
X3717801Y-8585508D02*
X3736848Y-8575984D01*
X3974944Y-8642650D02*
X3974944Y-8775984D01*
X3927325Y-8566460D02*
X3879706Y-8709317D01*
X3879706Y-8709317D02*
X4003515Y-8709317D01*
X4060658Y-8575984D02*
X4184467Y-8575984D01*
X4184467Y-8575984D02*
X4117801Y-8652174D01*
X4117801Y-8652174D02*
X4146372Y-8652174D01*
X4146372Y-8652174D02*
X4165420Y-8661698D01*
X4165420Y-8661698D02*
X4174944Y-8671222D01*
X4174944Y-8671222D02*
X4184467Y-8690270D01*
X4184467Y-8690270D02*
X4184467Y-8737889D01*
X4184467Y-8737889D02*
X4174944Y-8756936D01*
X4174944Y-8756936D02*
X4165420Y-8766460D01*
X4165420Y-8766460D02*
X4146372Y-8775984D01*
X4146372Y-8775984D02*
X4089229Y-8775984D01*
X4089229Y-8775984D02*
X4070182Y-8766460D01*
X4070182Y-8766460D02*
X4060658Y-8756936D01*
X4251134Y-8575984D02*
X4374944Y-8575984D01*
X4374944Y-8575984D02*
X4308277Y-8652174D01*
X4308277Y-8652174D02*
X4336849Y-8652174D01*
X4336849Y-8652174D02*
X4355896Y-8661698D01*
X4355896Y-8661698D02*
X4365420Y-8671222D01*
X4365420Y-8671222D02*
X4374944Y-8690270D01*
X4374944Y-8690270D02*
X4374944Y-8737889D01*
X4374944Y-8737889D02*
X4365420Y-8756936D01*
X4365420Y-8756936D02*
X4355896Y-8766460D01*
X4355896Y-8766460D02*
X4336849Y-8775984D01*
X4336849Y-8775984D02*
X4279706Y-8775984D01*
X4279706Y-8775984D02*
X4260658Y-8766460D01*
X4260658Y-8766460D02*
X4251134Y-8756936D01*
X4451134Y-8575984D02*
X4451134Y-8614079D01*
X4527325Y-8575984D02*
X4527325Y-8614079D01*
X4822563Y-8852174D02*
X4813039Y-8842650D01*
X4813039Y-8842650D02*
X4793991Y-8814079D01*
X4793991Y-8814079D02*
X4784468Y-8795031D01*
X4784468Y-8795031D02*
X4774944Y-8766460D01*
X4774944Y-8766460D02*
X4765420Y-8718841D01*
X4765420Y-8718841D02*
X4765420Y-8680746D01*
X4765420Y-8680746D02*
X4774944Y-8633127D01*
X4774944Y-8633127D02*
X4784468Y-8604555D01*
X4784468Y-8604555D02*
X4793991Y-8585508D01*
X4793991Y-8585508D02*
X4813039Y-8556936D01*
X4813039Y-8556936D02*
X4822563Y-8547412D01*
X4984468Y-8642650D02*
X4984468Y-8775984D01*
X4936849Y-8566460D02*
X4889230Y-8709317D01*
X4889230Y-8709317D02*
X5013039Y-8709317D01*
X5241611Y-8775984D02*
X5241611Y-8575984D01*
X5327325Y-8775984D02*
X5327325Y-8671222D01*
X5327325Y-8671222D02*
X5317801Y-8652174D01*
X5317801Y-8652174D02*
X5298753Y-8642650D01*
X5298753Y-8642650D02*
X5270182Y-8642650D01*
X5270182Y-8642650D02*
X5251134Y-8652174D01*
X5251134Y-8652174D02*
X5241611Y-8661698D01*
X5451134Y-8775984D02*
X5432087Y-8766460D01*
X5432087Y-8766460D02*
X5422563Y-8756936D01*
X5422563Y-8756936D02*
X5413039Y-8737889D01*
X5413039Y-8737889D02*
X5413039Y-8680746D01*
X5413039Y-8680746D02*
X5422563Y-8661698D01*
X5422563Y-8661698D02*
X5432087Y-8652174D01*
X5432087Y-8652174D02*
X5451134Y-8642650D01*
X5451134Y-8642650D02*
X5479706Y-8642650D01*
X5479706Y-8642650D02*
X5498753Y-8652174D01*
X5498753Y-8652174D02*
X5508277Y-8661698D01*
X5508277Y-8661698D02*
X5517801Y-8680746D01*
X5517801Y-8680746D02*
X5517801Y-8737889D01*
X5517801Y-8737889D02*
X5508277Y-8756936D01*
X5508277Y-8756936D02*
X5498753Y-8766460D01*
X5498753Y-8766460D02*
X5479706Y-8775984D01*
X5479706Y-8775984D02*
X5451134Y-8775984D01*
X5632087Y-8775984D02*
X5613039Y-8766460D01*
X5613039Y-8766460D02*
X5603515Y-8747412D01*
X5603515Y-8747412D02*
X5603515Y-8575984D01*
X5784468Y-8766460D02*
X5765420Y-8775984D01*
X5765420Y-8775984D02*
X5727325Y-8775984D01*
X5727325Y-8775984D02*
X5708277Y-8766460D01*
X5708277Y-8766460D02*
X5698753Y-8747412D01*
X5698753Y-8747412D02*
X5698753Y-8671222D01*
X5698753Y-8671222D02*
X5708277Y-8652174D01*
X5708277Y-8652174D02*
X5727325Y-8642650D01*
X5727325Y-8642650D02*
X5765420Y-8642650D01*
X5765420Y-8642650D02*
X5784468Y-8652174D01*
X5784468Y-8652174D02*
X5793991Y-8671222D01*
X5793991Y-8671222D02*
X5793991Y-8690270D01*
X5793991Y-8690270D02*
X5698753Y-8709317D01*
X5870182Y-8766460D02*
X5889230Y-8775984D01*
X5889230Y-8775984D02*
X5927325Y-8775984D01*
X5927325Y-8775984D02*
X5946372Y-8766460D01*
X5946372Y-8766460D02*
X5955896Y-8747412D01*
X5955896Y-8747412D02*
X5955896Y-8737889D01*
X5955896Y-8737889D02*
X5946372Y-8718841D01*
X5946372Y-8718841D02*
X5927325Y-8709317D01*
X5927325Y-8709317D02*
X5898753Y-8709317D01*
X5898753Y-8709317D02*
X5879706Y-8699793D01*
X5879706Y-8699793D02*
X5870182Y-8680746D01*
X5870182Y-8680746D02*
X5870182Y-8671222D01*
X5870182Y-8671222D02*
X5879706Y-8652174D01*
X5879706Y-8652174D02*
X5898753Y-8642650D01*
X5898753Y-8642650D02*
X5927325Y-8642650D01*
X5927325Y-8642650D02*
X5946372Y-8652174D01*
X6022563Y-8852174D02*
X6032087Y-8842650D01*
X6032087Y-8842650D02*
X6051134Y-8814079D01*
X6051134Y-8814079D02*
X6060658Y-8795031D01*
X6060658Y-8795031D02*
X6070182Y-8766460D01*
X6070182Y-8766460D02*
X6079706Y-8718841D01*
X6079706Y-8718841D02*
X6079706Y-8680746D01*
X6079706Y-8680746D02*
X6070182Y-8633127D01*
X6070182Y-8633127D02*
X6060658Y-8604555D01*
X6060658Y-8604555D02*
X6051134Y-8585508D01*
X6051134Y-8585508D02*
X6032087Y-8556936D01*
X6032087Y-8556936D02*
X6022563Y-8547412D01*
D14*
X1172500Y-9023500D02*
X1247500Y-8948500D01*
X1172500Y-8873500D01*
X1097500Y-8948500D01*
X1172500Y-9023500D01*
D11*
X1613039Y-9039984D02*
X1498753Y-9039984D01*
X1555896Y-9039984D02*
X1555896Y-8839984D01*
X1555896Y-8839984D02*
X1536848Y-8868555D01*
X1536848Y-8868555D02*
X1517801Y-8887603D01*
X1517801Y-8887603D02*
X1498753Y-8897127D01*
X1698753Y-9020936D02*
X1708277Y-9030460D01*
X1708277Y-9030460D02*
X1698753Y-9039984D01*
X1698753Y-9039984D02*
X1689229Y-9030460D01*
X1689229Y-9030460D02*
X1698753Y-9020936D01*
X1698753Y-9020936D02*
X1698753Y-9039984D01*
X1889229Y-8839984D02*
X1793991Y-8839984D01*
X1793991Y-8839984D02*
X1784467Y-8935222D01*
X1784467Y-8935222D02*
X1793991Y-8925698D01*
X1793991Y-8925698D02*
X1813039Y-8916174D01*
X1813039Y-8916174D02*
X1860658Y-8916174D01*
X1860658Y-8916174D02*
X1879705Y-8925698D01*
X1879705Y-8925698D02*
X1889229Y-8935222D01*
X1889229Y-8935222D02*
X1898753Y-8954270D01*
X1898753Y-8954270D02*
X1898753Y-9001889D01*
X1898753Y-9001889D02*
X1889229Y-9020936D01*
X1889229Y-9020936D02*
X1879705Y-9030460D01*
X1879705Y-9030460D02*
X1860658Y-9039984D01*
X1860658Y-9039984D02*
X1813039Y-9039984D01*
X1813039Y-9039984D02*
X1793991Y-9030460D01*
X1793991Y-9030460D02*
X1784467Y-9020936D01*
X2022562Y-8839984D02*
X2041610Y-8839984D01*
X2041610Y-8839984D02*
X2060658Y-8849508D01*
X2060658Y-8849508D02*
X2070182Y-8859031D01*
X2070182Y-8859031D02*
X2079705Y-8878079D01*
X2079705Y-8878079D02*
X2089229Y-8916174D01*
X2089229Y-8916174D02*
X2089229Y-8963793D01*
X2089229Y-8963793D02*
X2079705Y-9001889D01*
X2079705Y-9001889D02*
X2070182Y-9020936D01*
X2070182Y-9020936D02*
X2060658Y-9030460D01*
X2060658Y-9030460D02*
X2041610Y-9039984D01*
X2041610Y-9039984D02*
X2022562Y-9039984D01*
X2022562Y-9039984D02*
X2003515Y-9030460D01*
X2003515Y-9030460D02*
X1993991Y-9020936D01*
X1993991Y-9020936D02*
X1984467Y-9001889D01*
X1984467Y-9001889D02*
X1974943Y-8963793D01*
X1974943Y-8963793D02*
X1974943Y-8916174D01*
X1974943Y-8916174D02*
X1984467Y-8878079D01*
X1984467Y-8878079D02*
X1993991Y-8859031D01*
X1993991Y-8859031D02*
X2003515Y-8849508D01*
X2003515Y-8849508D02*
X2022562Y-8839984D01*
X2213039Y-8839984D02*
X2232086Y-8839984D01*
X2232086Y-8839984D02*
X2251134Y-8849508D01*
X2251134Y-8849508D02*
X2260658Y-8859031D01*
X2260658Y-8859031D02*
X2270182Y-8878079D01*
X2270182Y-8878079D02*
X2279705Y-8916174D01*
X2279705Y-8916174D02*
X2279705Y-8963793D01*
X2279705Y-8963793D02*
X2270182Y-9001889D01*
X2270182Y-9001889D02*
X2260658Y-9020936D01*
X2260658Y-9020936D02*
X2251134Y-9030460D01*
X2251134Y-9030460D02*
X2232086Y-9039984D01*
X2232086Y-9039984D02*
X2213039Y-9039984D01*
X2213039Y-9039984D02*
X2193991Y-9030460D01*
X2193991Y-9030460D02*
X2184467Y-9020936D01*
X2184467Y-9020936D02*
X2174944Y-9001889D01*
X2174944Y-9001889D02*
X2165420Y-8963793D01*
X2165420Y-8963793D02*
X2165420Y-8916174D01*
X2165420Y-8916174D02*
X2174944Y-8878079D01*
X2174944Y-8878079D02*
X2184467Y-8859031D01*
X2184467Y-8859031D02*
X2193991Y-8849508D01*
X2193991Y-8849508D02*
X2213039Y-8839984D01*
X2365420Y-9039984D02*
X2365420Y-8906650D01*
X2365420Y-8925698D02*
X2374944Y-8916174D01*
X2374944Y-8916174D02*
X2393991Y-8906650D01*
X2393991Y-8906650D02*
X2422563Y-8906650D01*
X2422563Y-8906650D02*
X2441610Y-8916174D01*
X2441610Y-8916174D02*
X2451134Y-8935222D01*
X2451134Y-8935222D02*
X2451134Y-9039984D01*
X2451134Y-8935222D02*
X2460658Y-8916174D01*
X2460658Y-8916174D02*
X2479705Y-8906650D01*
X2479705Y-8906650D02*
X2508277Y-8906650D01*
X2508277Y-8906650D02*
X2527325Y-8916174D01*
X2527325Y-8916174D02*
X2536848Y-8935222D01*
X2536848Y-8935222D02*
X2536848Y-9039984D01*
X2632086Y-9039984D02*
X2632086Y-8906650D01*
X2632086Y-8925698D02*
X2641610Y-8916174D01*
X2641610Y-8916174D02*
X2660658Y-8906650D01*
X2660658Y-8906650D02*
X2689229Y-8906650D01*
X2689229Y-8906650D02*
X2708277Y-8916174D01*
X2708277Y-8916174D02*
X2717801Y-8935222D01*
X2717801Y-8935222D02*
X2717801Y-9039984D01*
X2717801Y-8935222D02*
X2727325Y-8916174D01*
X2727325Y-8916174D02*
X2746372Y-8906650D01*
X2746372Y-8906650D02*
X2774944Y-8906650D01*
X2774944Y-8906650D02*
X2793991Y-8916174D01*
X2793991Y-8916174D02*
X2803515Y-8935222D01*
X2803515Y-8935222D02*
X2803515Y-9039984D01*
X3193991Y-8830460D02*
X3022563Y-9087603D01*
X3451134Y-8839984D02*
X3470182Y-8839984D01*
X3470182Y-8839984D02*
X3489229Y-8849508D01*
X3489229Y-8849508D02*
X3498753Y-8859031D01*
X3498753Y-8859031D02*
X3508277Y-8878079D01*
X3508277Y-8878079D02*
X3517801Y-8916174D01*
X3517801Y-8916174D02*
X3517801Y-8963793D01*
X3517801Y-8963793D02*
X3508277Y-9001889D01*
X3508277Y-9001889D02*
X3498753Y-9020936D01*
X3498753Y-9020936D02*
X3489229Y-9030460D01*
X3489229Y-9030460D02*
X3470182Y-9039984D01*
X3470182Y-9039984D02*
X3451134Y-9039984D01*
X3451134Y-9039984D02*
X3432086Y-9030460D01*
X3432086Y-9030460D02*
X3422563Y-9020936D01*
X3422563Y-9020936D02*
X3413039Y-9001889D01*
X3413039Y-9001889D02*
X3403515Y-8963793D01*
X3403515Y-8963793D02*
X3403515Y-8916174D01*
X3403515Y-8916174D02*
X3413039Y-8878079D01*
X3413039Y-8878079D02*
X3422563Y-8859031D01*
X3422563Y-8859031D02*
X3432086Y-8849508D01*
X3432086Y-8849508D02*
X3451134Y-8839984D01*
X3603515Y-9020936D02*
X3613039Y-9030460D01*
X3613039Y-9030460D02*
X3603515Y-9039984D01*
X3603515Y-9039984D02*
X3593991Y-9030460D01*
X3593991Y-9030460D02*
X3603515Y-9020936D01*
X3603515Y-9020936D02*
X3603515Y-9039984D01*
X3736848Y-8839984D02*
X3755896Y-8839984D01*
X3755896Y-8839984D02*
X3774944Y-8849508D01*
X3774944Y-8849508D02*
X3784467Y-8859031D01*
X3784467Y-8859031D02*
X3793991Y-8878079D01*
X3793991Y-8878079D02*
X3803515Y-8916174D01*
X3803515Y-8916174D02*
X3803515Y-8963793D01*
X3803515Y-8963793D02*
X3793991Y-9001889D01*
X3793991Y-9001889D02*
X3784467Y-9020936D01*
X3784467Y-9020936D02*
X3774944Y-9030460D01*
X3774944Y-9030460D02*
X3755896Y-9039984D01*
X3755896Y-9039984D02*
X3736848Y-9039984D01*
X3736848Y-9039984D02*
X3717801Y-9030460D01*
X3717801Y-9030460D02*
X3708277Y-9020936D01*
X3708277Y-9020936D02*
X3698753Y-9001889D01*
X3698753Y-9001889D02*
X3689229Y-8963793D01*
X3689229Y-8963793D02*
X3689229Y-8916174D01*
X3689229Y-8916174D02*
X3698753Y-8878079D01*
X3698753Y-8878079D02*
X3708277Y-8859031D01*
X3708277Y-8859031D02*
X3717801Y-8849508D01*
X3717801Y-8849508D02*
X3736848Y-8839984D01*
X3984467Y-8839984D02*
X3889229Y-8839984D01*
X3889229Y-8839984D02*
X3879706Y-8935222D01*
X3879706Y-8935222D02*
X3889229Y-8925698D01*
X3889229Y-8925698D02*
X3908277Y-8916174D01*
X3908277Y-8916174D02*
X3955896Y-8916174D01*
X3955896Y-8916174D02*
X3974944Y-8925698D01*
X3974944Y-8925698D02*
X3984467Y-8935222D01*
X3984467Y-8935222D02*
X3993991Y-8954270D01*
X3993991Y-8954270D02*
X3993991Y-9001889D01*
X3993991Y-9001889D02*
X3984467Y-9020936D01*
X3984467Y-9020936D02*
X3974944Y-9030460D01*
X3974944Y-9030460D02*
X3955896Y-9039984D01*
X3955896Y-9039984D02*
X3908277Y-9039984D01*
X3908277Y-9039984D02*
X3889229Y-9030460D01*
X3889229Y-9030460D02*
X3879706Y-9020936D01*
X4089229Y-9039984D02*
X4127325Y-9039984D01*
X4127325Y-9039984D02*
X4146372Y-9030460D01*
X4146372Y-9030460D02*
X4155896Y-9020936D01*
X4155896Y-9020936D02*
X4174944Y-8992365D01*
X4174944Y-8992365D02*
X4184467Y-8954270D01*
X4184467Y-8954270D02*
X4184467Y-8878079D01*
X4184467Y-8878079D02*
X4174944Y-8859031D01*
X4174944Y-8859031D02*
X4165420Y-8849508D01*
X4165420Y-8849508D02*
X4146372Y-8839984D01*
X4146372Y-8839984D02*
X4108277Y-8839984D01*
X4108277Y-8839984D02*
X4089229Y-8849508D01*
X4089229Y-8849508D02*
X4079706Y-8859031D01*
X4079706Y-8859031D02*
X4070182Y-8878079D01*
X4070182Y-8878079D02*
X4070182Y-8925698D01*
X4070182Y-8925698D02*
X4079706Y-8944746D01*
X4079706Y-8944746D02*
X4089229Y-8954270D01*
X4089229Y-8954270D02*
X4108277Y-8963793D01*
X4108277Y-8963793D02*
X4146372Y-8963793D01*
X4146372Y-8963793D02*
X4165420Y-8954270D01*
X4165420Y-8954270D02*
X4174944Y-8944746D01*
X4174944Y-8944746D02*
X4184467Y-8925698D01*
X4374944Y-9039984D02*
X4260658Y-9039984D01*
X4317801Y-9039984D02*
X4317801Y-8839984D01*
X4317801Y-8839984D02*
X4298753Y-8868555D01*
X4298753Y-8868555D02*
X4279706Y-8887603D01*
X4279706Y-8887603D02*
X4260658Y-8897127D01*
X4451134Y-8839984D02*
X4451134Y-8878079D01*
X4527325Y-8839984D02*
X4527325Y-8878079D01*
X4822563Y-9116174D02*
X4813039Y-9106650D01*
X4813039Y-9106650D02*
X4793991Y-9078079D01*
X4793991Y-9078079D02*
X4784468Y-9059031D01*
X4784468Y-9059031D02*
X4774944Y-9030460D01*
X4774944Y-9030460D02*
X4765420Y-8982841D01*
X4765420Y-8982841D02*
X4765420Y-8944746D01*
X4765420Y-8944746D02*
X4774944Y-8897127D01*
X4774944Y-8897127D02*
X4784468Y-8868555D01*
X4784468Y-8868555D02*
X4793991Y-8849508D01*
X4793991Y-8849508D02*
X4813039Y-8820936D01*
X4813039Y-8820936D02*
X4822563Y-8811412D01*
X4889230Y-8859031D02*
X4898753Y-8849508D01*
X4898753Y-8849508D02*
X4917801Y-8839984D01*
X4917801Y-8839984D02*
X4965420Y-8839984D01*
X4965420Y-8839984D02*
X4984468Y-8849508D01*
X4984468Y-8849508D02*
X4993991Y-8859031D01*
X4993991Y-8859031D02*
X5003515Y-8878079D01*
X5003515Y-8878079D02*
X5003515Y-8897127D01*
X5003515Y-8897127D02*
X4993991Y-8925698D01*
X4993991Y-8925698D02*
X4879706Y-9039984D01*
X4879706Y-9039984D02*
X5003515Y-9039984D01*
X5241611Y-9039984D02*
X5241611Y-8839984D01*
X5327325Y-9039984D02*
X5327325Y-8935222D01*
X5327325Y-8935222D02*
X5317801Y-8916174D01*
X5317801Y-8916174D02*
X5298753Y-8906650D01*
X5298753Y-8906650D02*
X5270182Y-8906650D01*
X5270182Y-8906650D02*
X5251134Y-8916174D01*
X5251134Y-8916174D02*
X5241611Y-8925698D01*
X5451134Y-9039984D02*
X5432087Y-9030460D01*
X5432087Y-9030460D02*
X5422563Y-9020936D01*
X5422563Y-9020936D02*
X5413039Y-9001889D01*
X5413039Y-9001889D02*
X5413039Y-8944746D01*
X5413039Y-8944746D02*
X5422563Y-8925698D01*
X5422563Y-8925698D02*
X5432087Y-8916174D01*
X5432087Y-8916174D02*
X5451134Y-8906650D01*
X5451134Y-8906650D02*
X5479706Y-8906650D01*
X5479706Y-8906650D02*
X5498753Y-8916174D01*
X5498753Y-8916174D02*
X5508277Y-8925698D01*
X5508277Y-8925698D02*
X5517801Y-8944746D01*
X5517801Y-8944746D02*
X5517801Y-9001889D01*
X5517801Y-9001889D02*
X5508277Y-9020936D01*
X5508277Y-9020936D02*
X5498753Y-9030460D01*
X5498753Y-9030460D02*
X5479706Y-9039984D01*
X5479706Y-9039984D02*
X5451134Y-9039984D01*
X5632087Y-9039984D02*
X5613039Y-9030460D01*
X5613039Y-9030460D02*
X5603515Y-9011412D01*
X5603515Y-9011412D02*
X5603515Y-8839984D01*
X5784468Y-9030460D02*
X5765420Y-9039984D01*
X5765420Y-9039984D02*
X5727325Y-9039984D01*
X5727325Y-9039984D02*
X5708277Y-9030460D01*
X5708277Y-9030460D02*
X5698753Y-9011412D01*
X5698753Y-9011412D02*
X5698753Y-8935222D01*
X5698753Y-8935222D02*
X5708277Y-8916174D01*
X5708277Y-8916174D02*
X5727325Y-8906650D01*
X5727325Y-8906650D02*
X5765420Y-8906650D01*
X5765420Y-8906650D02*
X5784468Y-8916174D01*
X5784468Y-8916174D02*
X5793991Y-8935222D01*
X5793991Y-8935222D02*
X5793991Y-8954270D01*
X5793991Y-8954270D02*
X5698753Y-8973317D01*
X5870182Y-9030460D02*
X5889230Y-9039984D01*
X5889230Y-9039984D02*
X5927325Y-9039984D01*
X5927325Y-9039984D02*
X5946372Y-9030460D01*
X5946372Y-9030460D02*
X5955896Y-9011412D01*
X5955896Y-9011412D02*
X5955896Y-9001889D01*
X5955896Y-9001889D02*
X5946372Y-8982841D01*
X5946372Y-8982841D02*
X5927325Y-8973317D01*
X5927325Y-8973317D02*
X5898753Y-8973317D01*
X5898753Y-8973317D02*
X5879706Y-8963793D01*
X5879706Y-8963793D02*
X5870182Y-8944746D01*
X5870182Y-8944746D02*
X5870182Y-8935222D01*
X5870182Y-8935222D02*
X5879706Y-8916174D01*
X5879706Y-8916174D02*
X5898753Y-8906650D01*
X5898753Y-8906650D02*
X5927325Y-8906650D01*
X5927325Y-8906650D02*
X5946372Y-8916174D01*
X6193992Y-8963793D02*
X6346373Y-8963793D01*
X6270182Y-9039984D02*
X6270182Y-8887603D01*
X6584468Y-8859031D02*
X6593992Y-8849508D01*
X6593992Y-8849508D02*
X6613039Y-8839984D01*
X6613039Y-8839984D02*
X6660658Y-8839984D01*
X6660658Y-8839984D02*
X6679706Y-8849508D01*
X6679706Y-8849508D02*
X6689230Y-8859031D01*
X6689230Y-8859031D02*
X6698753Y-8878079D01*
X6698753Y-8878079D02*
X6698753Y-8897127D01*
X6698753Y-8897127D02*
X6689230Y-8925698D01*
X6689230Y-8925698D02*
X6574944Y-9039984D01*
X6574944Y-9039984D02*
X6698753Y-9039984D01*
X6927325Y-9030460D02*
X6946373Y-9039984D01*
X6946373Y-9039984D02*
X6984468Y-9039984D01*
X6984468Y-9039984D02*
X7003515Y-9030460D01*
X7003515Y-9030460D02*
X7013039Y-9011412D01*
X7013039Y-9011412D02*
X7013039Y-9001889D01*
X7013039Y-9001889D02*
X7003515Y-8982841D01*
X7003515Y-8982841D02*
X6984468Y-8973317D01*
X6984468Y-8973317D02*
X6955896Y-8973317D01*
X6955896Y-8973317D02*
X6936849Y-8963793D01*
X6936849Y-8963793D02*
X6927325Y-8944746D01*
X6927325Y-8944746D02*
X6927325Y-8935222D01*
X6927325Y-8935222D02*
X6936849Y-8916174D01*
X6936849Y-8916174D02*
X6955896Y-8906650D01*
X6955896Y-8906650D02*
X6984468Y-8906650D01*
X6984468Y-8906650D02*
X7003515Y-8916174D01*
X7127325Y-9039984D02*
X7108277Y-9030460D01*
X7108277Y-9030460D02*
X7098754Y-9011412D01*
X7098754Y-9011412D02*
X7098754Y-8839984D01*
X7232087Y-9039984D02*
X7213039Y-9030460D01*
X7213039Y-9030460D02*
X7203515Y-9020936D01*
X7203515Y-9020936D02*
X7193992Y-9001889D01*
X7193992Y-9001889D02*
X7193992Y-8944746D01*
X7193992Y-8944746D02*
X7203515Y-8925698D01*
X7203515Y-8925698D02*
X7213039Y-8916174D01*
X7213039Y-8916174D02*
X7232087Y-8906650D01*
X7232087Y-8906650D02*
X7260658Y-8906650D01*
X7260658Y-8906650D02*
X7279706Y-8916174D01*
X7279706Y-8916174D02*
X7289230Y-8925698D01*
X7289230Y-8925698D02*
X7298754Y-8944746D01*
X7298754Y-8944746D02*
X7298754Y-9001889D01*
X7298754Y-9001889D02*
X7289230Y-9020936D01*
X7289230Y-9020936D02*
X7279706Y-9030460D01*
X7279706Y-9030460D02*
X7260658Y-9039984D01*
X7260658Y-9039984D02*
X7232087Y-9039984D01*
X7355896Y-8906650D02*
X7432087Y-8906650D01*
X7384468Y-8839984D02*
X7384468Y-9011412D01*
X7384468Y-9011412D02*
X7393992Y-9030460D01*
X7393992Y-9030460D02*
X7413039Y-9039984D01*
X7413039Y-9039984D02*
X7432087Y-9039984D01*
X7489230Y-9030460D02*
X7508277Y-9039984D01*
X7508277Y-9039984D02*
X7546373Y-9039984D01*
X7546373Y-9039984D02*
X7565420Y-9030460D01*
X7565420Y-9030460D02*
X7574944Y-9011412D01*
X7574944Y-9011412D02*
X7574944Y-9001889D01*
X7574944Y-9001889D02*
X7565420Y-8982841D01*
X7565420Y-8982841D02*
X7546373Y-8973317D01*
X7546373Y-8973317D02*
X7517801Y-8973317D01*
X7517801Y-8973317D02*
X7498754Y-8963793D01*
X7498754Y-8963793D02*
X7489230Y-8944746D01*
X7489230Y-8944746D02*
X7489230Y-8935222D01*
X7489230Y-8935222D02*
X7498754Y-8916174D01*
X7498754Y-8916174D02*
X7517801Y-8906650D01*
X7517801Y-8906650D02*
X7546373Y-8906650D01*
X7546373Y-8906650D02*
X7565420Y-8916174D01*
X7641611Y-9116174D02*
X7651135Y-9106650D01*
X7651135Y-9106650D02*
X7670182Y-9078079D01*
X7670182Y-9078079D02*
X7679706Y-9059031D01*
X7679706Y-9059031D02*
X7689230Y-9030460D01*
X7689230Y-9030460D02*
X7698754Y-8982841D01*
X7698754Y-8982841D02*
X7698754Y-8944746D01*
X7698754Y-8944746D02*
X7689230Y-8897127D01*
X7689230Y-8897127D02*
X7679706Y-8868555D01*
X7679706Y-8868555D02*
X7670182Y-8849508D01*
X7670182Y-8849508D02*
X7651135Y-8820936D01*
X7651135Y-8820936D02*
X7641611Y-8811412D01*
D15*
X1087500Y-9138500D02*
X1247500Y-9298500D01*
X1247500Y-9138500D02*
X1087500Y-9298500D01*
X1247500Y-9218500D02*
G75*
G02*
X1087500Y-9218500I-80000J0D01*
G01*
X1087500Y-9218500D02*
G75*
G02*
X1247500Y-9218500I80000J0D01*
G01*
D11*
X1613039Y-9309984D02*
X1498753Y-9309984D01*
X1555896Y-9309984D02*
X1555896Y-9109984D01*
X1555896Y-9109984D02*
X1536848Y-9138555D01*
X1536848Y-9138555D02*
X1517801Y-9157603D01*
X1517801Y-9157603D02*
X1498753Y-9167127D01*
X1698753Y-9290936D02*
X1708277Y-9300460D01*
X1708277Y-9300460D02*
X1698753Y-9309984D01*
X1698753Y-9309984D02*
X1689229Y-9300460D01*
X1689229Y-9300460D02*
X1698753Y-9290936D01*
X1698753Y-9290936D02*
X1698753Y-9309984D01*
X1879705Y-9109984D02*
X1841610Y-9109984D01*
X1841610Y-9109984D02*
X1822562Y-9119508D01*
X1822562Y-9119508D02*
X1813039Y-9129031D01*
X1813039Y-9129031D02*
X1793991Y-9157603D01*
X1793991Y-9157603D02*
X1784467Y-9195698D01*
X1784467Y-9195698D02*
X1784467Y-9271889D01*
X1784467Y-9271889D02*
X1793991Y-9290936D01*
X1793991Y-9290936D02*
X1803515Y-9300460D01*
X1803515Y-9300460D02*
X1822562Y-9309984D01*
X1822562Y-9309984D02*
X1860658Y-9309984D01*
X1860658Y-9309984D02*
X1879705Y-9300460D01*
X1879705Y-9300460D02*
X1889229Y-9290936D01*
X1889229Y-9290936D02*
X1898753Y-9271889D01*
X1898753Y-9271889D02*
X1898753Y-9224270D01*
X1898753Y-9224270D02*
X1889229Y-9205222D01*
X1889229Y-9205222D02*
X1879705Y-9195698D01*
X1879705Y-9195698D02*
X1860658Y-9186174D01*
X1860658Y-9186174D02*
X1822562Y-9186174D01*
X1822562Y-9186174D02*
X1803515Y-9195698D01*
X1803515Y-9195698D02*
X1793991Y-9205222D01*
X1793991Y-9205222D02*
X1784467Y-9224270D01*
X2022562Y-9109984D02*
X2041610Y-9109984D01*
X2041610Y-9109984D02*
X2060658Y-9119508D01*
X2060658Y-9119508D02*
X2070182Y-9129031D01*
X2070182Y-9129031D02*
X2079705Y-9148079D01*
X2079705Y-9148079D02*
X2089229Y-9186174D01*
X2089229Y-9186174D02*
X2089229Y-9233793D01*
X2089229Y-9233793D02*
X2079705Y-9271889D01*
X2079705Y-9271889D02*
X2070182Y-9290936D01*
X2070182Y-9290936D02*
X2060658Y-9300460D01*
X2060658Y-9300460D02*
X2041610Y-9309984D01*
X2041610Y-9309984D02*
X2022562Y-9309984D01*
X2022562Y-9309984D02*
X2003515Y-9300460D01*
X2003515Y-9300460D02*
X1993991Y-9290936D01*
X1993991Y-9290936D02*
X1984467Y-9271889D01*
X1984467Y-9271889D02*
X1974943Y-9233793D01*
X1974943Y-9233793D02*
X1974943Y-9186174D01*
X1974943Y-9186174D02*
X1984467Y-9148079D01*
X1984467Y-9148079D02*
X1993991Y-9129031D01*
X1993991Y-9129031D02*
X2003515Y-9119508D01*
X2003515Y-9119508D02*
X2022562Y-9109984D01*
X2213039Y-9109984D02*
X2232086Y-9109984D01*
X2232086Y-9109984D02*
X2251134Y-9119508D01*
X2251134Y-9119508D02*
X2260658Y-9129031D01*
X2260658Y-9129031D02*
X2270182Y-9148079D01*
X2270182Y-9148079D02*
X2279705Y-9186174D01*
X2279705Y-9186174D02*
X2279705Y-9233793D01*
X2279705Y-9233793D02*
X2270182Y-9271889D01*
X2270182Y-9271889D02*
X2260658Y-9290936D01*
X2260658Y-9290936D02*
X2251134Y-9300460D01*
X2251134Y-9300460D02*
X2232086Y-9309984D01*
X2232086Y-9309984D02*
X2213039Y-9309984D01*
X2213039Y-9309984D02*
X2193991Y-9300460D01*
X2193991Y-9300460D02*
X2184467Y-9290936D01*
X2184467Y-9290936D02*
X2174944Y-9271889D01*
X2174944Y-9271889D02*
X2165420Y-9233793D01*
X2165420Y-9233793D02*
X2165420Y-9186174D01*
X2165420Y-9186174D02*
X2174944Y-9148079D01*
X2174944Y-9148079D02*
X2184467Y-9129031D01*
X2184467Y-9129031D02*
X2193991Y-9119508D01*
X2193991Y-9119508D02*
X2213039Y-9109984D01*
X2365420Y-9309984D02*
X2365420Y-9176650D01*
X2365420Y-9195698D02*
X2374944Y-9186174D01*
X2374944Y-9186174D02*
X2393991Y-9176650D01*
X2393991Y-9176650D02*
X2422563Y-9176650D01*
X2422563Y-9176650D02*
X2441610Y-9186174D01*
X2441610Y-9186174D02*
X2451134Y-9205222D01*
X2451134Y-9205222D02*
X2451134Y-9309984D01*
X2451134Y-9205222D02*
X2460658Y-9186174D01*
X2460658Y-9186174D02*
X2479705Y-9176650D01*
X2479705Y-9176650D02*
X2508277Y-9176650D01*
X2508277Y-9176650D02*
X2527325Y-9186174D01*
X2527325Y-9186174D02*
X2536848Y-9205222D01*
X2536848Y-9205222D02*
X2536848Y-9309984D01*
X2632086Y-9309984D02*
X2632086Y-9176650D01*
X2632086Y-9195698D02*
X2641610Y-9186174D01*
X2641610Y-9186174D02*
X2660658Y-9176650D01*
X2660658Y-9176650D02*
X2689229Y-9176650D01*
X2689229Y-9176650D02*
X2708277Y-9186174D01*
X2708277Y-9186174D02*
X2717801Y-9205222D01*
X2717801Y-9205222D02*
X2717801Y-9309984D01*
X2717801Y-9205222D02*
X2727325Y-9186174D01*
X2727325Y-9186174D02*
X2746372Y-9176650D01*
X2746372Y-9176650D02*
X2774944Y-9176650D01*
X2774944Y-9176650D02*
X2793991Y-9186174D01*
X2793991Y-9186174D02*
X2803515Y-9205222D01*
X2803515Y-9205222D02*
X2803515Y-9309984D01*
X3193991Y-9100460D02*
X3022563Y-9357603D01*
X3451134Y-9109984D02*
X3470182Y-9109984D01*
X3470182Y-9109984D02*
X3489229Y-9119508D01*
X3489229Y-9119508D02*
X3498753Y-9129031D01*
X3498753Y-9129031D02*
X3508277Y-9148079D01*
X3508277Y-9148079D02*
X3517801Y-9186174D01*
X3517801Y-9186174D02*
X3517801Y-9233793D01*
X3517801Y-9233793D02*
X3508277Y-9271889D01*
X3508277Y-9271889D02*
X3498753Y-9290936D01*
X3498753Y-9290936D02*
X3489229Y-9300460D01*
X3489229Y-9300460D02*
X3470182Y-9309984D01*
X3470182Y-9309984D02*
X3451134Y-9309984D01*
X3451134Y-9309984D02*
X3432086Y-9300460D01*
X3432086Y-9300460D02*
X3422563Y-9290936D01*
X3422563Y-9290936D02*
X3413039Y-9271889D01*
X3413039Y-9271889D02*
X3403515Y-9233793D01*
X3403515Y-9233793D02*
X3403515Y-9186174D01*
X3403515Y-9186174D02*
X3413039Y-9148079D01*
X3413039Y-9148079D02*
X3422563Y-9129031D01*
X3422563Y-9129031D02*
X3432086Y-9119508D01*
X3432086Y-9119508D02*
X3451134Y-9109984D01*
X3603515Y-9290936D02*
X3613039Y-9300460D01*
X3613039Y-9300460D02*
X3603515Y-9309984D01*
X3603515Y-9309984D02*
X3593991Y-9300460D01*
X3593991Y-9300460D02*
X3603515Y-9290936D01*
X3603515Y-9290936D02*
X3603515Y-9309984D01*
X3736848Y-9109984D02*
X3755896Y-9109984D01*
X3755896Y-9109984D02*
X3774944Y-9119508D01*
X3774944Y-9119508D02*
X3784467Y-9129031D01*
X3784467Y-9129031D02*
X3793991Y-9148079D01*
X3793991Y-9148079D02*
X3803515Y-9186174D01*
X3803515Y-9186174D02*
X3803515Y-9233793D01*
X3803515Y-9233793D02*
X3793991Y-9271889D01*
X3793991Y-9271889D02*
X3784467Y-9290936D01*
X3784467Y-9290936D02*
X3774944Y-9300460D01*
X3774944Y-9300460D02*
X3755896Y-9309984D01*
X3755896Y-9309984D02*
X3736848Y-9309984D01*
X3736848Y-9309984D02*
X3717801Y-9300460D01*
X3717801Y-9300460D02*
X3708277Y-9290936D01*
X3708277Y-9290936D02*
X3698753Y-9271889D01*
X3698753Y-9271889D02*
X3689229Y-9233793D01*
X3689229Y-9233793D02*
X3689229Y-9186174D01*
X3689229Y-9186174D02*
X3698753Y-9148079D01*
X3698753Y-9148079D02*
X3708277Y-9129031D01*
X3708277Y-9129031D02*
X3717801Y-9119508D01*
X3717801Y-9119508D02*
X3736848Y-9109984D01*
X3974944Y-9109984D02*
X3936848Y-9109984D01*
X3936848Y-9109984D02*
X3917801Y-9119508D01*
X3917801Y-9119508D02*
X3908277Y-9129031D01*
X3908277Y-9129031D02*
X3889229Y-9157603D01*
X3889229Y-9157603D02*
X3879706Y-9195698D01*
X3879706Y-9195698D02*
X3879706Y-9271889D01*
X3879706Y-9271889D02*
X3889229Y-9290936D01*
X3889229Y-9290936D02*
X3898753Y-9300460D01*
X3898753Y-9300460D02*
X3917801Y-9309984D01*
X3917801Y-9309984D02*
X3955896Y-9309984D01*
X3955896Y-9309984D02*
X3974944Y-9300460D01*
X3974944Y-9300460D02*
X3984467Y-9290936D01*
X3984467Y-9290936D02*
X3993991Y-9271889D01*
X3993991Y-9271889D02*
X3993991Y-9224270D01*
X3993991Y-9224270D02*
X3984467Y-9205222D01*
X3984467Y-9205222D02*
X3974944Y-9195698D01*
X3974944Y-9195698D02*
X3955896Y-9186174D01*
X3955896Y-9186174D02*
X3917801Y-9186174D01*
X3917801Y-9186174D02*
X3898753Y-9195698D01*
X3898753Y-9195698D02*
X3889229Y-9205222D01*
X3889229Y-9205222D02*
X3879706Y-9224270D01*
X4060658Y-9109984D02*
X4184467Y-9109984D01*
X4184467Y-9109984D02*
X4117801Y-9186174D01*
X4117801Y-9186174D02*
X4146372Y-9186174D01*
X4146372Y-9186174D02*
X4165420Y-9195698D01*
X4165420Y-9195698D02*
X4174944Y-9205222D01*
X4174944Y-9205222D02*
X4184467Y-9224270D01*
X4184467Y-9224270D02*
X4184467Y-9271889D01*
X4184467Y-9271889D02*
X4174944Y-9290936D01*
X4174944Y-9290936D02*
X4165420Y-9300460D01*
X4165420Y-9300460D02*
X4146372Y-9309984D01*
X4146372Y-9309984D02*
X4089229Y-9309984D01*
X4089229Y-9309984D02*
X4070182Y-9300460D01*
X4070182Y-9300460D02*
X4060658Y-9290936D01*
X4308277Y-9109984D02*
X4327325Y-9109984D01*
X4327325Y-9109984D02*
X4346372Y-9119508D01*
X4346372Y-9119508D02*
X4355896Y-9129031D01*
X4355896Y-9129031D02*
X4365420Y-9148079D01*
X4365420Y-9148079D02*
X4374944Y-9186174D01*
X4374944Y-9186174D02*
X4374944Y-9233793D01*
X4374944Y-9233793D02*
X4365420Y-9271889D01*
X4365420Y-9271889D02*
X4355896Y-9290936D01*
X4355896Y-9290936D02*
X4346372Y-9300460D01*
X4346372Y-9300460D02*
X4327325Y-9309984D01*
X4327325Y-9309984D02*
X4308277Y-9309984D01*
X4308277Y-9309984D02*
X4289229Y-9300460D01*
X4289229Y-9300460D02*
X4279706Y-9290936D01*
X4279706Y-9290936D02*
X4270182Y-9271889D01*
X4270182Y-9271889D02*
X4260658Y-9233793D01*
X4260658Y-9233793D02*
X4260658Y-9186174D01*
X4260658Y-9186174D02*
X4270182Y-9148079D01*
X4270182Y-9148079D02*
X4279706Y-9129031D01*
X4279706Y-9129031D02*
X4289229Y-9119508D01*
X4289229Y-9119508D02*
X4308277Y-9109984D01*
X4451134Y-9109984D02*
X4451134Y-9148079D01*
X4527325Y-9109984D02*
X4527325Y-9148079D01*
X4822563Y-9386174D02*
X4813039Y-9376650D01*
X4813039Y-9376650D02*
X4793991Y-9348079D01*
X4793991Y-9348079D02*
X4784468Y-9329031D01*
X4784468Y-9329031D02*
X4774944Y-9300460D01*
X4774944Y-9300460D02*
X4765420Y-9252841D01*
X4765420Y-9252841D02*
X4765420Y-9214746D01*
X4765420Y-9214746D02*
X4774944Y-9167127D01*
X4774944Y-9167127D02*
X4784468Y-9138555D01*
X4784468Y-9138555D02*
X4793991Y-9119508D01*
X4793991Y-9119508D02*
X4813039Y-9090936D01*
X4813039Y-9090936D02*
X4822563Y-9081412D01*
X5003515Y-9309984D02*
X4889230Y-9309984D01*
X4946372Y-9309984D02*
X4946372Y-9109984D01*
X4946372Y-9109984D02*
X4927325Y-9138555D01*
X4927325Y-9138555D02*
X4908277Y-9157603D01*
X4908277Y-9157603D02*
X4889230Y-9167127D01*
X5241611Y-9309984D02*
X5241611Y-9109984D01*
X5327325Y-9309984D02*
X5327325Y-9205222D01*
X5327325Y-9205222D02*
X5317801Y-9186174D01*
X5317801Y-9186174D02*
X5298753Y-9176650D01*
X5298753Y-9176650D02*
X5270182Y-9176650D01*
X5270182Y-9176650D02*
X5251134Y-9186174D01*
X5251134Y-9186174D02*
X5241611Y-9195698D01*
X5451134Y-9309984D02*
X5432087Y-9300460D01*
X5432087Y-9300460D02*
X5422563Y-9290936D01*
X5422563Y-9290936D02*
X5413039Y-9271889D01*
X5413039Y-9271889D02*
X5413039Y-9214746D01*
X5413039Y-9214746D02*
X5422563Y-9195698D01*
X5422563Y-9195698D02*
X5432087Y-9186174D01*
X5432087Y-9186174D02*
X5451134Y-9176650D01*
X5451134Y-9176650D02*
X5479706Y-9176650D01*
X5479706Y-9176650D02*
X5498753Y-9186174D01*
X5498753Y-9186174D02*
X5508277Y-9195698D01*
X5508277Y-9195698D02*
X5517801Y-9214746D01*
X5517801Y-9214746D02*
X5517801Y-9271889D01*
X5517801Y-9271889D02*
X5508277Y-9290936D01*
X5508277Y-9290936D02*
X5498753Y-9300460D01*
X5498753Y-9300460D02*
X5479706Y-9309984D01*
X5479706Y-9309984D02*
X5451134Y-9309984D01*
X5632087Y-9309984D02*
X5613039Y-9300460D01*
X5613039Y-9300460D02*
X5603515Y-9281412D01*
X5603515Y-9281412D02*
X5603515Y-9109984D01*
X5784468Y-9300460D02*
X5765420Y-9309984D01*
X5765420Y-9309984D02*
X5727325Y-9309984D01*
X5727325Y-9309984D02*
X5708277Y-9300460D01*
X5708277Y-9300460D02*
X5698753Y-9281412D01*
X5698753Y-9281412D02*
X5698753Y-9205222D01*
X5698753Y-9205222D02*
X5708277Y-9186174D01*
X5708277Y-9186174D02*
X5727325Y-9176650D01*
X5727325Y-9176650D02*
X5765420Y-9176650D01*
X5765420Y-9176650D02*
X5784468Y-9186174D01*
X5784468Y-9186174D02*
X5793991Y-9205222D01*
X5793991Y-9205222D02*
X5793991Y-9224270D01*
X5793991Y-9224270D02*
X5698753Y-9243317D01*
X5860658Y-9386174D02*
X5870182Y-9376650D01*
X5870182Y-9376650D02*
X5889230Y-9348079D01*
X5889230Y-9348079D02*
X5898753Y-9329031D01*
X5898753Y-9329031D02*
X5908277Y-9300460D01*
X5908277Y-9300460D02*
X5917801Y-9252841D01*
X5917801Y-9252841D02*
X5917801Y-9214746D01*
X5917801Y-9214746D02*
X5908277Y-9167127D01*
X5908277Y-9167127D02*
X5898753Y-9138555D01*
X5898753Y-9138555D02*
X5889230Y-9119508D01*
X5889230Y-9119508D02*
X5870182Y-9090936D01*
X5870182Y-9090936D02*
X5860658Y-9081412D01*
D16*
X1072500Y-9411000D02*
X1247500Y-9586000D01*
X1247500Y-9411000D02*
X1072500Y-9586000D01*
X1160000Y-9411000D02*
X1160000Y-9586000D01*
X1072500Y-9498500D02*
X1247500Y-9498500D01*
D11*
X1613039Y-9589984D02*
X1498753Y-9589984D01*
X1555896Y-9589984D02*
X1555896Y-9389984D01*
X1555896Y-9389984D02*
X1536848Y-9418555D01*
X1536848Y-9418555D02*
X1517801Y-9437603D01*
X1517801Y-9437603D02*
X1498753Y-9447127D01*
X1698753Y-9570936D02*
X1708277Y-9580460D01*
X1708277Y-9580460D02*
X1698753Y-9589984D01*
X1698753Y-9589984D02*
X1689229Y-9580460D01*
X1689229Y-9580460D02*
X1698753Y-9570936D01*
X1698753Y-9570936D02*
X1698753Y-9589984D01*
X1774943Y-9389984D02*
X1908277Y-9389984D01*
X1908277Y-9389984D02*
X1822562Y-9589984D01*
X2079705Y-9389984D02*
X1984467Y-9389984D01*
X1984467Y-9389984D02*
X1974943Y-9485222D01*
X1974943Y-9485222D02*
X1984467Y-9475698D01*
X1984467Y-9475698D02*
X2003515Y-9466174D01*
X2003515Y-9466174D02*
X2051134Y-9466174D01*
X2051134Y-9466174D02*
X2070182Y-9475698D01*
X2070182Y-9475698D02*
X2079705Y-9485222D01*
X2079705Y-9485222D02*
X2089229Y-9504270D01*
X2089229Y-9504270D02*
X2089229Y-9551889D01*
X2089229Y-9551889D02*
X2079705Y-9570936D01*
X2079705Y-9570936D02*
X2070182Y-9580460D01*
X2070182Y-9580460D02*
X2051134Y-9589984D01*
X2051134Y-9589984D02*
X2003515Y-9589984D01*
X2003515Y-9589984D02*
X1984467Y-9580460D01*
X1984467Y-9580460D02*
X1974943Y-9570936D01*
X2213039Y-9389984D02*
X2232086Y-9389984D01*
X2232086Y-9389984D02*
X2251134Y-9399508D01*
X2251134Y-9399508D02*
X2260658Y-9409031D01*
X2260658Y-9409031D02*
X2270182Y-9428079D01*
X2270182Y-9428079D02*
X2279705Y-9466174D01*
X2279705Y-9466174D02*
X2279705Y-9513793D01*
X2279705Y-9513793D02*
X2270182Y-9551889D01*
X2270182Y-9551889D02*
X2260658Y-9570936D01*
X2260658Y-9570936D02*
X2251134Y-9580460D01*
X2251134Y-9580460D02*
X2232086Y-9589984D01*
X2232086Y-9589984D02*
X2213039Y-9589984D01*
X2213039Y-9589984D02*
X2193991Y-9580460D01*
X2193991Y-9580460D02*
X2184467Y-9570936D01*
X2184467Y-9570936D02*
X2174944Y-9551889D01*
X2174944Y-9551889D02*
X2165420Y-9513793D01*
X2165420Y-9513793D02*
X2165420Y-9466174D01*
X2165420Y-9466174D02*
X2174944Y-9428079D01*
X2174944Y-9428079D02*
X2184467Y-9409031D01*
X2184467Y-9409031D02*
X2193991Y-9399508D01*
X2193991Y-9399508D02*
X2213039Y-9389984D01*
X2365420Y-9589984D02*
X2365420Y-9456650D01*
X2365420Y-9475698D02*
X2374944Y-9466174D01*
X2374944Y-9466174D02*
X2393991Y-9456650D01*
X2393991Y-9456650D02*
X2422563Y-9456650D01*
X2422563Y-9456650D02*
X2441610Y-9466174D01*
X2441610Y-9466174D02*
X2451134Y-9485222D01*
X2451134Y-9485222D02*
X2451134Y-9589984D01*
X2451134Y-9485222D02*
X2460658Y-9466174D01*
X2460658Y-9466174D02*
X2479705Y-9456650D01*
X2479705Y-9456650D02*
X2508277Y-9456650D01*
X2508277Y-9456650D02*
X2527325Y-9466174D01*
X2527325Y-9466174D02*
X2536848Y-9485222D01*
X2536848Y-9485222D02*
X2536848Y-9589984D01*
X2632086Y-9589984D02*
X2632086Y-9456650D01*
X2632086Y-9475698D02*
X2641610Y-9466174D01*
X2641610Y-9466174D02*
X2660658Y-9456650D01*
X2660658Y-9456650D02*
X2689229Y-9456650D01*
X2689229Y-9456650D02*
X2708277Y-9466174D01*
X2708277Y-9466174D02*
X2717801Y-9485222D01*
X2717801Y-9485222D02*
X2717801Y-9589984D01*
X2717801Y-9485222D02*
X2727325Y-9466174D01*
X2727325Y-9466174D02*
X2746372Y-9456650D01*
X2746372Y-9456650D02*
X2774944Y-9456650D01*
X2774944Y-9456650D02*
X2793991Y-9466174D01*
X2793991Y-9466174D02*
X2803515Y-9485222D01*
X2803515Y-9485222D02*
X2803515Y-9589984D01*
X3193991Y-9380460D02*
X3022563Y-9637603D01*
X3451134Y-9389984D02*
X3470182Y-9389984D01*
X3470182Y-9389984D02*
X3489229Y-9399508D01*
X3489229Y-9399508D02*
X3498753Y-9409031D01*
X3498753Y-9409031D02*
X3508277Y-9428079D01*
X3508277Y-9428079D02*
X3517801Y-9466174D01*
X3517801Y-9466174D02*
X3517801Y-9513793D01*
X3517801Y-9513793D02*
X3508277Y-9551889D01*
X3508277Y-9551889D02*
X3498753Y-9570936D01*
X3498753Y-9570936D02*
X3489229Y-9580460D01*
X3489229Y-9580460D02*
X3470182Y-9589984D01*
X3470182Y-9589984D02*
X3451134Y-9589984D01*
X3451134Y-9589984D02*
X3432086Y-9580460D01*
X3432086Y-9580460D02*
X3422563Y-9570936D01*
X3422563Y-9570936D02*
X3413039Y-9551889D01*
X3413039Y-9551889D02*
X3403515Y-9513793D01*
X3403515Y-9513793D02*
X3403515Y-9466174D01*
X3403515Y-9466174D02*
X3413039Y-9428079D01*
X3413039Y-9428079D02*
X3422563Y-9409031D01*
X3422563Y-9409031D02*
X3432086Y-9399508D01*
X3432086Y-9399508D02*
X3451134Y-9389984D01*
X3603515Y-9570936D02*
X3613039Y-9580460D01*
X3613039Y-9580460D02*
X3603515Y-9589984D01*
X3603515Y-9589984D02*
X3593991Y-9580460D01*
X3593991Y-9580460D02*
X3603515Y-9570936D01*
X3603515Y-9570936D02*
X3603515Y-9589984D01*
X3736848Y-9389984D02*
X3755896Y-9389984D01*
X3755896Y-9389984D02*
X3774944Y-9399508D01*
X3774944Y-9399508D02*
X3784467Y-9409031D01*
X3784467Y-9409031D02*
X3793991Y-9428079D01*
X3793991Y-9428079D02*
X3803515Y-9466174D01*
X3803515Y-9466174D02*
X3803515Y-9513793D01*
X3803515Y-9513793D02*
X3793991Y-9551889D01*
X3793991Y-9551889D02*
X3784467Y-9570936D01*
X3784467Y-9570936D02*
X3774944Y-9580460D01*
X3774944Y-9580460D02*
X3755896Y-9589984D01*
X3755896Y-9589984D02*
X3736848Y-9589984D01*
X3736848Y-9589984D02*
X3717801Y-9580460D01*
X3717801Y-9580460D02*
X3708277Y-9570936D01*
X3708277Y-9570936D02*
X3698753Y-9551889D01*
X3698753Y-9551889D02*
X3689229Y-9513793D01*
X3689229Y-9513793D02*
X3689229Y-9466174D01*
X3689229Y-9466174D02*
X3698753Y-9428079D01*
X3698753Y-9428079D02*
X3708277Y-9409031D01*
X3708277Y-9409031D02*
X3717801Y-9399508D01*
X3717801Y-9399508D02*
X3736848Y-9389984D01*
X3974944Y-9389984D02*
X3936848Y-9389984D01*
X3936848Y-9389984D02*
X3917801Y-9399508D01*
X3917801Y-9399508D02*
X3908277Y-9409031D01*
X3908277Y-9409031D02*
X3889229Y-9437603D01*
X3889229Y-9437603D02*
X3879706Y-9475698D01*
X3879706Y-9475698D02*
X3879706Y-9551889D01*
X3879706Y-9551889D02*
X3889229Y-9570936D01*
X3889229Y-9570936D02*
X3898753Y-9580460D01*
X3898753Y-9580460D02*
X3917801Y-9589984D01*
X3917801Y-9589984D02*
X3955896Y-9589984D01*
X3955896Y-9589984D02*
X3974944Y-9580460D01*
X3974944Y-9580460D02*
X3984467Y-9570936D01*
X3984467Y-9570936D02*
X3993991Y-9551889D01*
X3993991Y-9551889D02*
X3993991Y-9504270D01*
X3993991Y-9504270D02*
X3984467Y-9485222D01*
X3984467Y-9485222D02*
X3974944Y-9475698D01*
X3974944Y-9475698D02*
X3955896Y-9466174D01*
X3955896Y-9466174D02*
X3917801Y-9466174D01*
X3917801Y-9466174D02*
X3898753Y-9475698D01*
X3898753Y-9475698D02*
X3889229Y-9485222D01*
X3889229Y-9485222D02*
X3879706Y-9504270D01*
X4108277Y-9475698D02*
X4089229Y-9466174D01*
X4089229Y-9466174D02*
X4079706Y-9456650D01*
X4079706Y-9456650D02*
X4070182Y-9437603D01*
X4070182Y-9437603D02*
X4070182Y-9428079D01*
X4070182Y-9428079D02*
X4079706Y-9409031D01*
X4079706Y-9409031D02*
X4089229Y-9399508D01*
X4089229Y-9399508D02*
X4108277Y-9389984D01*
X4108277Y-9389984D02*
X4146372Y-9389984D01*
X4146372Y-9389984D02*
X4165420Y-9399508D01*
X4165420Y-9399508D02*
X4174944Y-9409031D01*
X4174944Y-9409031D02*
X4184467Y-9428079D01*
X4184467Y-9428079D02*
X4184467Y-9437603D01*
X4184467Y-9437603D02*
X4174944Y-9456650D01*
X4174944Y-9456650D02*
X4165420Y-9466174D01*
X4165420Y-9466174D02*
X4146372Y-9475698D01*
X4146372Y-9475698D02*
X4108277Y-9475698D01*
X4108277Y-9475698D02*
X4089229Y-9485222D01*
X4089229Y-9485222D02*
X4079706Y-9494746D01*
X4079706Y-9494746D02*
X4070182Y-9513793D01*
X4070182Y-9513793D02*
X4070182Y-9551889D01*
X4070182Y-9551889D02*
X4079706Y-9570936D01*
X4079706Y-9570936D02*
X4089229Y-9580460D01*
X4089229Y-9580460D02*
X4108277Y-9589984D01*
X4108277Y-9589984D02*
X4146372Y-9589984D01*
X4146372Y-9589984D02*
X4165420Y-9580460D01*
X4165420Y-9580460D02*
X4174944Y-9570936D01*
X4174944Y-9570936D02*
X4184467Y-9551889D01*
X4184467Y-9551889D02*
X4184467Y-9513793D01*
X4184467Y-9513793D02*
X4174944Y-9494746D01*
X4174944Y-9494746D02*
X4165420Y-9485222D01*
X4165420Y-9485222D02*
X4146372Y-9475698D01*
X4279706Y-9589984D02*
X4317801Y-9589984D01*
X4317801Y-9589984D02*
X4336849Y-9580460D01*
X4336849Y-9580460D02*
X4346372Y-9570936D01*
X4346372Y-9570936D02*
X4365420Y-9542365D01*
X4365420Y-9542365D02*
X4374944Y-9504270D01*
X4374944Y-9504270D02*
X4374944Y-9428079D01*
X4374944Y-9428079D02*
X4365420Y-9409031D01*
X4365420Y-9409031D02*
X4355896Y-9399508D01*
X4355896Y-9399508D02*
X4336849Y-9389984D01*
X4336849Y-9389984D02*
X4298753Y-9389984D01*
X4298753Y-9389984D02*
X4279706Y-9399508D01*
X4279706Y-9399508D02*
X4270182Y-9409031D01*
X4270182Y-9409031D02*
X4260658Y-9428079D01*
X4260658Y-9428079D02*
X4260658Y-9475698D01*
X4260658Y-9475698D02*
X4270182Y-9494746D01*
X4270182Y-9494746D02*
X4279706Y-9504270D01*
X4279706Y-9504270D02*
X4298753Y-9513793D01*
X4298753Y-9513793D02*
X4336849Y-9513793D01*
X4336849Y-9513793D02*
X4355896Y-9504270D01*
X4355896Y-9504270D02*
X4365420Y-9494746D01*
X4365420Y-9494746D02*
X4374944Y-9475698D01*
X4451134Y-9389984D02*
X4451134Y-9428079D01*
X4527325Y-9389984D02*
X4527325Y-9428079D01*
X4822563Y-9666174D02*
X4813039Y-9656650D01*
X4813039Y-9656650D02*
X4793991Y-9628079D01*
X4793991Y-9628079D02*
X4784468Y-9609031D01*
X4784468Y-9609031D02*
X4774944Y-9580460D01*
X4774944Y-9580460D02*
X4765420Y-9532841D01*
X4765420Y-9532841D02*
X4765420Y-9494746D01*
X4765420Y-9494746D02*
X4774944Y-9447127D01*
X4774944Y-9447127D02*
X4784468Y-9418555D01*
X4784468Y-9418555D02*
X4793991Y-9399508D01*
X4793991Y-9399508D02*
X4813039Y-9370936D01*
X4813039Y-9370936D02*
X4822563Y-9361412D01*
X4889230Y-9409031D02*
X4898753Y-9399508D01*
X4898753Y-9399508D02*
X4917801Y-9389984D01*
X4917801Y-9389984D02*
X4965420Y-9389984D01*
X4965420Y-9389984D02*
X4984468Y-9399508D01*
X4984468Y-9399508D02*
X4993991Y-9409031D01*
X4993991Y-9409031D02*
X5003515Y-9428079D01*
X5003515Y-9428079D02*
X5003515Y-9447127D01*
X5003515Y-9447127D02*
X4993991Y-9475698D01*
X4993991Y-9475698D02*
X4879706Y-9589984D01*
X4879706Y-9589984D02*
X5003515Y-9589984D01*
X5241611Y-9589984D02*
X5241611Y-9389984D01*
X5327325Y-9589984D02*
X5327325Y-9485222D01*
X5327325Y-9485222D02*
X5317801Y-9466174D01*
X5317801Y-9466174D02*
X5298753Y-9456650D01*
X5298753Y-9456650D02*
X5270182Y-9456650D01*
X5270182Y-9456650D02*
X5251134Y-9466174D01*
X5251134Y-9466174D02*
X5241611Y-9475698D01*
X5451134Y-9589984D02*
X5432087Y-9580460D01*
X5432087Y-9580460D02*
X5422563Y-9570936D01*
X5422563Y-9570936D02*
X5413039Y-9551889D01*
X5413039Y-9551889D02*
X5413039Y-9494746D01*
X5413039Y-9494746D02*
X5422563Y-9475698D01*
X5422563Y-9475698D02*
X5432087Y-9466174D01*
X5432087Y-9466174D02*
X5451134Y-9456650D01*
X5451134Y-9456650D02*
X5479706Y-9456650D01*
X5479706Y-9456650D02*
X5498753Y-9466174D01*
X5498753Y-9466174D02*
X5508277Y-9475698D01*
X5508277Y-9475698D02*
X5517801Y-9494746D01*
X5517801Y-9494746D02*
X5517801Y-9551889D01*
X5517801Y-9551889D02*
X5508277Y-9570936D01*
X5508277Y-9570936D02*
X5498753Y-9580460D01*
X5498753Y-9580460D02*
X5479706Y-9589984D01*
X5479706Y-9589984D02*
X5451134Y-9589984D01*
X5632087Y-9589984D02*
X5613039Y-9580460D01*
X5613039Y-9580460D02*
X5603515Y-9561412D01*
X5603515Y-9561412D02*
X5603515Y-9389984D01*
X5784468Y-9580460D02*
X5765420Y-9589984D01*
X5765420Y-9589984D02*
X5727325Y-9589984D01*
X5727325Y-9589984D02*
X5708277Y-9580460D01*
X5708277Y-9580460D02*
X5698753Y-9561412D01*
X5698753Y-9561412D02*
X5698753Y-9485222D01*
X5698753Y-9485222D02*
X5708277Y-9466174D01*
X5708277Y-9466174D02*
X5727325Y-9456650D01*
X5727325Y-9456650D02*
X5765420Y-9456650D01*
X5765420Y-9456650D02*
X5784468Y-9466174D01*
X5784468Y-9466174D02*
X5793991Y-9485222D01*
X5793991Y-9485222D02*
X5793991Y-9504270D01*
X5793991Y-9504270D02*
X5698753Y-9523317D01*
X5870182Y-9580460D02*
X5889230Y-9589984D01*
X5889230Y-9589984D02*
X5927325Y-9589984D01*
X5927325Y-9589984D02*
X5946372Y-9580460D01*
X5946372Y-9580460D02*
X5955896Y-9561412D01*
X5955896Y-9561412D02*
X5955896Y-9551889D01*
X5955896Y-9551889D02*
X5946372Y-9532841D01*
X5946372Y-9532841D02*
X5927325Y-9523317D01*
X5927325Y-9523317D02*
X5898753Y-9523317D01*
X5898753Y-9523317D02*
X5879706Y-9513793D01*
X5879706Y-9513793D02*
X5870182Y-9494746D01*
X5870182Y-9494746D02*
X5870182Y-9485222D01*
X5870182Y-9485222D02*
X5879706Y-9466174D01*
X5879706Y-9466174D02*
X5898753Y-9456650D01*
X5898753Y-9456650D02*
X5927325Y-9456650D01*
X5927325Y-9456650D02*
X5946372Y-9466174D01*
X6022563Y-9666174D02*
X6032087Y-9656650D01*
X6032087Y-9656650D02*
X6051134Y-9628079D01*
X6051134Y-9628079D02*
X6060658Y-9609031D01*
X6060658Y-9609031D02*
X6070182Y-9580460D01*
X6070182Y-9580460D02*
X6079706Y-9532841D01*
X6079706Y-9532841D02*
X6079706Y-9494746D01*
X6079706Y-9494746D02*
X6070182Y-9447127D01*
X6070182Y-9447127D02*
X6060658Y-9418555D01*
X6060658Y-9418555D02*
X6051134Y-9399508D01*
X6051134Y-9399508D02*
X6032087Y-9370936D01*
X6032087Y-9370936D02*
X6022563Y-9361412D01*
M02*
