%TF.GenerationSoftware,KiCad,Pcbnew,9.0.1+1*%
%TF.CreationDate,2025-10-27T20:24:24+00:00*%
%TF.ProjectId,ECAD_main,45434144-5f6d-4616-996e-2e6b69636164,rev?*%
%TF.SameCoordinates,Original*%
%TF.FileFunction,Drillmap*%
%TF.FilePolarity,Positive*%
%FSLAX45Y45*%
G04 Gerber Fmt 4.5, Leading zero omitted, Abs format (unit mm)*
G04 Created by KiCad (PCBNEW 9.0.1+1) date 2025-10-27 20:24:24*
%MOMM*%
%LPD*%
G01*
G04 APERTURE LIST*
%ADD10C,0.050000*%
%ADD11C,0.200000*%
G04 APERTURE END LIST*
D10*
X1250000Y-2300000D02*
X6800000Y-2300000D01*
X6800000Y-7250000D01*
X1250000Y-7250000D01*
X1250000Y-2300000D01*
D11*
X1508277Y-7563984D02*
X1508277Y-7363984D01*
X1508277Y-7363984D02*
X1555896Y-7363984D01*
X1555896Y-7363984D02*
X1584467Y-7373508D01*
X1584467Y-7373508D02*
X1603515Y-7392555D01*
X1603515Y-7392555D02*
X1613039Y-7411603D01*
X1613039Y-7411603D02*
X1622562Y-7449698D01*
X1622562Y-7449698D02*
X1622562Y-7478269D01*
X1622562Y-7478269D02*
X1613039Y-7516365D01*
X1613039Y-7516365D02*
X1603515Y-7535412D01*
X1603515Y-7535412D02*
X1584467Y-7554460D01*
X1584467Y-7554460D02*
X1555896Y-7563984D01*
X1555896Y-7563984D02*
X1508277Y-7563984D01*
X1708277Y-7563984D02*
X1708277Y-7430650D01*
X1708277Y-7468746D02*
X1717801Y-7449698D01*
X1717801Y-7449698D02*
X1727324Y-7440174D01*
X1727324Y-7440174D02*
X1746372Y-7430650D01*
X1746372Y-7430650D02*
X1765420Y-7430650D01*
X1832086Y-7563984D02*
X1832086Y-7430650D01*
X1832086Y-7363984D02*
X1822562Y-7373508D01*
X1822562Y-7373508D02*
X1832086Y-7383031D01*
X1832086Y-7383031D02*
X1841610Y-7373508D01*
X1841610Y-7373508D02*
X1832086Y-7363984D01*
X1832086Y-7363984D02*
X1832086Y-7383031D01*
X1955896Y-7563984D02*
X1936848Y-7554460D01*
X1936848Y-7554460D02*
X1927324Y-7535412D01*
X1927324Y-7535412D02*
X1927324Y-7363984D01*
X2060658Y-7563984D02*
X2041610Y-7554460D01*
X2041610Y-7554460D02*
X2032086Y-7535412D01*
X2032086Y-7535412D02*
X2032086Y-7363984D01*
X2289229Y-7563984D02*
X2289229Y-7363984D01*
X2289229Y-7363984D02*
X2355896Y-7506841D01*
X2355896Y-7506841D02*
X2422563Y-7363984D01*
X2422563Y-7363984D02*
X2422563Y-7563984D01*
X2603515Y-7563984D02*
X2603515Y-7459222D01*
X2603515Y-7459222D02*
X2593991Y-7440174D01*
X2593991Y-7440174D02*
X2574944Y-7430650D01*
X2574944Y-7430650D02*
X2536848Y-7430650D01*
X2536848Y-7430650D02*
X2517801Y-7440174D01*
X2603515Y-7554460D02*
X2584467Y-7563984D01*
X2584467Y-7563984D02*
X2536848Y-7563984D01*
X2536848Y-7563984D02*
X2517801Y-7554460D01*
X2517801Y-7554460D02*
X2508277Y-7535412D01*
X2508277Y-7535412D02*
X2508277Y-7516365D01*
X2508277Y-7516365D02*
X2517801Y-7497317D01*
X2517801Y-7497317D02*
X2536848Y-7487793D01*
X2536848Y-7487793D02*
X2584467Y-7487793D01*
X2584467Y-7487793D02*
X2603515Y-7478269D01*
X2698753Y-7430650D02*
X2698753Y-7630650D01*
X2698753Y-7440174D02*
X2717801Y-7430650D01*
X2717801Y-7430650D02*
X2755896Y-7430650D01*
X2755896Y-7430650D02*
X2774944Y-7440174D01*
X2774944Y-7440174D02*
X2784467Y-7449698D01*
X2784467Y-7449698D02*
X2793991Y-7468746D01*
X2793991Y-7468746D02*
X2793991Y-7525888D01*
X2793991Y-7525888D02*
X2784467Y-7544936D01*
X2784467Y-7544936D02*
X2774944Y-7554460D01*
X2774944Y-7554460D02*
X2755896Y-7563984D01*
X2755896Y-7563984D02*
X2717801Y-7563984D01*
X2717801Y-7563984D02*
X2698753Y-7554460D01*
X2879705Y-7544936D02*
X2889229Y-7554460D01*
X2889229Y-7554460D02*
X2879705Y-7563984D01*
X2879705Y-7563984D02*
X2870182Y-7554460D01*
X2870182Y-7554460D02*
X2879705Y-7544936D01*
X2879705Y-7544936D02*
X2879705Y-7563984D01*
X2879705Y-7440174D02*
X2889229Y-7449698D01*
X2889229Y-7449698D02*
X2879705Y-7459222D01*
X2879705Y-7459222D02*
X2870182Y-7449698D01*
X2870182Y-7449698D02*
X2879705Y-7440174D01*
X2879705Y-7440174D02*
X2879705Y-7459222D01*
M02*
