%TF.GenerationSoftware,KiCad,Pcbnew,9.0.1+1*%
%TF.CreationDate,2025-10-27T20:24:24+00:00*%
%TF.ProjectId,ECAD_main,45434144-5f6d-4616-996e-2e6b69636164,rev?*%
%TF.SameCoordinates,Original*%
%TF.FileFunction,Plated,1,4,PTH,Mixed*%
%TF.FilePolarity,Positive*%
%FSLAX46Y46*%
G04 Gerber Fmt 4.6, Leading zero omitted, Abs format (unit mm)*
G04 Created by KiCad (PCBNEW 9.0.1+1) date 2025-10-27 20:24:24*
%MOMM*%
%LPD*%
G01*
G04 APERTURE LIST*
%TA.AperFunction,ViaDrill*%
%ADD10C,0.300000*%
%TD*%
%TA.AperFunction,ComponentDrill*%
%ADD11C,0.800000*%
%TD*%
%TA.AperFunction,ComponentDrill*%
%ADD12C,1.000000*%
%TD*%
%TA.AperFunction,ComponentDrill*%
%ADD13C,1.100000*%
%TD*%
G04 aperture for slot hole*
%TA.AperFunction,ComponentDrill*%
%ADD14C,1.500000*%
%TD*%
%TA.AperFunction,ComponentDrill*%
%ADD15C,1.500000*%
%TD*%
%TA.AperFunction,ComponentDrill*%
%ADD16C,1.600000*%
%TD*%
%TA.AperFunction,ComponentDrill*%
%ADD17C,1.750000*%
%TD*%
G04 APERTURE END LIST*
D10*
X16750000Y-30500000D03*
X16750000Y-36250000D03*
X17750000Y-28500000D03*
X21750000Y-28500000D03*
X22049265Y-35799265D03*
X22250000Y-31750000D03*
X22500000Y-51750000D03*
X23500000Y-29750000D03*
X24000000Y-28000000D03*
X24750000Y-53500000D03*
X26250000Y-24750000D03*
X26250000Y-26250000D03*
X26750000Y-52000000D03*
X27500000Y-41750000D03*
X27750000Y-23750000D03*
X29250000Y-25250000D03*
X29250000Y-39750000D03*
X32750000Y-39750000D03*
X33000000Y-45000000D03*
X33250000Y-43250000D03*
X35250000Y-30750000D03*
X36500000Y-30750000D03*
X37500000Y-31750000D03*
D11*
%TO.C,C10*%
X63250000Y-55500000D03*
X63250000Y-59000000D03*
D12*
%TO.C,J1*%
X31777500Y-26087500D03*
X34317500Y-26087500D03*
X36857500Y-26087500D03*
X39397500Y-26087500D03*
D13*
%TO.C,SW1*%
X14162500Y-38750000D03*
X14162500Y-45250000D03*
X18662500Y-38750000D03*
X18662500Y-45250000D03*
D14*
%TO.C,J3*%
X20250000Y-64760000D02*
X20250000Y-62240000D01*
X26450000Y-64760000D02*
X26450000Y-62240000D01*
D15*
%TO.C,F1*%
X38700000Y-66500000D03*
X61300000Y-66500000D03*
D16*
%TO.C,TP3*%
X51000000Y-31000000D03*
D17*
%TO.C,J2*%
X32250000Y-63455000D03*
X32250000Y-68535000D03*
M02*
