<?xml version="1.0" standalone="no"?>
 <!DOCTYPE svg PUBLIC "-//W3C//DTD SVG 1.1//EN" 
 "http://www.w3.org/Graphics/SVG/1.1/DTD/svg11.dtd"> 
<svg
  xmlns:svg="http://www.w3.org/2000/svg"
  xmlns="http://www.w3.org/2000/svg"
  xmlns:xlink="http://www.w3.org/1999/xlink"
  version="1.1"
  width="419.9890mm" height="297.0022mm" viewBox="0.0000 0.0000 419.9890 297.0022">
<title>SVG Image created as ECAD_main-F_Courtyard0.svg date 2025/10/27 20:25:23 </title>
  <desc>Image generated by PCBNEW </desc>
<g style="fill:#000000; fill-opacity:1.0000;stroke:#000000; stroke-opacity:1.0000;
stroke-linecap:round; stroke-linejoin:round;"
 transform="translate(0 0) scale(1 1)">
</g>
<g style="fill:none; 
stroke:#000000; stroke-width:0.0500; stroke-opacity:1; 
stroke-linecap:round; stroke-linejoin:round;">
<circle cx="40.0000" cy="31.7000" r="1.0000" /> 
<path d="M12.6625 37.2500
L12.9125 37.2500
" />
<path d="M12.6625 37.5000
L12.6625 37.2500
" />
<path d="M12.6625 46.5000
L12.6625 37.5000
" />
<path d="M12.6625 46.7500
L12.6625 46.5000
" />
<path d="M12.9125 37.2500
L19.9125 37.2500
" />
<path d="M12.9125 46.7500
L12.6625 46.7500
" />
<path d="M19.9125 46.7500
L12.9125 46.7500
" />
<path d="M19.9125 46.7500
L20.1625 46.7500
" />
<path d="M20.1625 37.2500
L19.9125 37.2500
" />
<path d="M20.1625 37.5000
L20.1625 37.2500
" />
<path d="M20.1625 37.5000
L20.1625 46.5000
" />
<path d="M20.1625 46.7500
L20.1625 46.5000
" />
<circle cx="63.2500" cy="57.2500" r="4.2500" /> 
<path d="M13.0125 46.8575
L16.3125 46.8575
" />
<path d="M13.0125 48.3175
L13.0125 46.8575
" />
<path d="M16.3125 46.8575
L16.3125 48.3175
" />
<path d="M16.3125 48.3175
L13.0125 48.3175
" />
<path d="M28.9375 42.8575
L32.2375 42.8575
" />
<path d="M28.9375 44.3175
L28.9375 42.8575
" />
<path d="M32.2375 42.8575
L32.2375 44.3175
" />
<path d="M32.2375 44.3175
L28.9375 44.3175
" />
<path d="M35.7375 27.9375
L35.7375 30.2375
" />
<path d="M35.7375 27.9375
L40.4375 27.9375
" />
<path d="M40.4375 27.9375
L40.4375 30.2375
" />
<path d="M40.4375 30.2375
L35.7375 30.2375
" />
<path d="M21.7900 29.4275
L22.7100 29.4275
" />
<path d="M21.7900 31.2475
L21.7900 29.4275
" />
<path d="M22.7100 29.4275
L22.7100 31.2475
" />
<path d="M22.7100 31.2475
L21.7900 31.2475
" />
<path d="M36.8500 66.0500
L36.8500 66.9500
" />
<path d="M36.8500 66.0500
L37.2500 65.2500
" />
<path d="M37.2500 67.7500
L36.8500 66.9500
" />
<path d="M37.2500 67.7500
L37.9500 68.2500
" />
<path d="M37.9500 64.7500
L37.2500 65.2500
" />
<path d="M37.9500 68.2500
L38.3000 68.3500
" />
<path d="M38.3000 64.6500
L37.9500 64.7500
" />
<path d="M38.3000 68.3500
L38.5500 68.3500
" />
<path d="M38.5500 61.5500
L61.4500 61.5500
" />
<path d="M38.5500 64.6500
L38.3000 64.6500
" />
<path d="M38.5500 64.6500
L38.5500 61.5500
" />
<path d="M38.5500 71.4500
L38.5500 68.3500
" />
<path d="M61.4500 64.6500
L61.4500 61.5500
" />
<path d="M61.4500 64.6500
L61.7000 64.6500
" />
<path d="M61.4500 68.3500
L61.4500 71.4500
" />
<path d="M61.4500 68.3500
L61.7000 68.3500
" />
<path d="M61.4500 71.4500
L38.5500 71.4500
" />
<path d="M61.7000 68.3500
L62.0500 68.2500
" />
<path d="M62.0500 64.7500
L61.7000 64.6500
" />
<path d="M62.0500 68.2500
L62.7500 67.7500
" />
<path d="M62.7500 65.2500
L62.0500 64.7500
" />
<path d="M62.7500 67.7500
L63.1500 66.9500
" />
<path d="M63.1500 66.0500
L62.7500 65.2500
" />
<path d="M63.1500 66.9500
L63.1500 66.0500
" />
<path d="M17.6000 35.6075
L20.9000 35.6075
" />
<path d="M17.6000 37.0675
L17.6000 35.6075
" />
<path d="M20.9000 35.6075
L20.9000 37.0675
" />
<path d="M20.9000 37.0675
L17.6000 37.0675
" />
<path d="M41.2500 51.3500
L41.2500 58.8500
" />
<path d="M41.2500 58.8500
L49.2500 58.8500
" />
<path d="M49.2500 51.3500
L41.2500 51.3500
" />
<path d="M49.2500 58.8500
L50.2500 57.8500
" />
<path d="M50.2500 52.3500
L49.2500 51.3500
" />
<path d="M50.2500 57.8500
L50.2500 52.3500
" />
<path d="M33.7900 30.4275
L34.7100 30.4275
" />
<path d="M33.7900 32.2475
L33.7900 30.4275
" />
<path d="M34.7100 30.4275
L34.7100 32.2475
" />
<path d="M34.7100 32.2475
L33.7900 32.2475
" />
<path d="M16.5125 46.8575
L19.8125 46.8575
" />
<path d="M16.5125 48.3175
L16.5125 46.8575
" />
<path d="M19.8125 46.8575
L19.8125 48.3175
" />
<path d="M19.8125 48.3175
L16.5125 48.3175
" />
<path d="M22.7700 48.8325
L24.7300 48.8325
" />
<path d="M22.7700 52.5925
L22.7700 48.8325
" />
<path d="M24.7300 48.8325
L24.7300 52.5925
" />
<path d="M24.7300 52.5925
L22.7700 52.5925
" />
<path d="M12.8875 48.8575
L16.1875 48.8575
" />
<path d="M12.8875 50.3175
L12.8875 48.8575
" />
<path d="M16.1875 48.8575
L16.1875 50.3175
" />
<path d="M16.1875 50.3175
L12.8875 50.3175
" />
<path d="M24.8400 27.3775
L26.6600 27.3775
" />
<path d="M24.8400 28.2975
L24.8400 27.3775
" />
<path d="M26.6600 27.3775
L26.6600 28.2975
" />
<path d="M26.6600 28.2975
L24.8400 28.2975
" />
<path d="M30.3400 39.3775
L32.1600 39.3775
" />
<path d="M30.3400 40.2975
L30.3400 39.3775
" />
<path d="M32.1600 39.3775
L32.1600 40.2975
" />
<path d="M32.1600 40.2975
L30.3400 40.2975
" />
<circle cx="51.0000" cy="31.0000" r="2.0000" /> 
<path d="M28.7075 40.6075
L32.4675 40.6075
" />
<path d="M28.7075 42.5675
L28.7075 40.6075
" />
<path d="M32.4675 40.6075
L32.4675 42.5675
" />
<path d="M32.4675 42.5675
L28.7075 42.5675
" />
<path d="M38.1000 53.2100
L40.4000 53.2100
" />
<path d="M38.1000 58.2900
L38.1000 53.2100
" />
<path d="M40.4000 53.2100
L40.4000 58.2900
" />
<path d="M40.4000 58.2900
L38.1000 58.2900
" />
<path d="M51.6200 55.0500
L57.8800 55.0500
" />
<path d="M51.6200 58.9500
L51.6200 55.0500
" />
<path d="M57.8800 55.0500
L57.8800 58.9500
" />
<path d="M57.8800 58.9500
L51.6200 58.9500
" />
<path d="M33.7700 44.1200
L35.7300 44.1200
" />
<path d="M33.7700 47.8800
L33.7700 44.1200
" />
<path d="M35.7300 44.1200
L35.7300 47.8800
" />
<path d="M35.7300 47.8800
L33.7700 47.8800
" />
<path d="M33.8200 40.0350
L35.7800 40.0350
" />
<path d="M33.8200 43.7950
L33.8200 40.0350
" />
<path d="M35.7800 40.0350
L35.7800 43.7950
" />
<path d="M35.7800 43.7950
L33.8200 43.7950
" />
<path d="M17.6000 29.6075
L20.9000 29.6075
" />
<path d="M17.6000 31.0675
L17.6000 29.6075
" />
<path d="M20.9000 29.6075
L20.9000 31.0675
" />
<path d="M20.9000 31.0675
L17.6000 31.0675
" />
<path d="M35.2700 52.1200
L37.2300 52.1200
" />
<path d="M35.2700 55.8800
L35.2700 52.1200
" />
<path d="M37.2300 52.1200
L37.2300 55.8800
" />
<path d="M37.2300 55.8800
L35.2700 55.8800
" />
<path d="M28.5700 60.4150
L28.5700 71.5850
" />
<path d="M28.5700 71.5850
L35.9300 71.5850
" />
<path d="M35.9300 60.4150
L28.5700 60.4150
" />
<path d="M35.9300 71.5850
L35.9300 60.4150
" />
<path d="M18.6500 31.5500
L18.6500 34.9500
" />
<path d="M21.3500 31.5500
L18.6500 31.5500
" />
<path d="M21.3500 31.5500
L21.3500 34.9500
" />
<path d="M21.3500 34.9500
L18.6500 34.9500
" />
<path d="M16.3875 48.8575
L19.6875 48.8575
" />
<path d="M16.3875 50.3175
L16.3875 48.8575
" />
<path d="M19.6875 48.8575
L19.6875 50.3175
" />
<path d="M19.6875 50.3175
L16.3875 50.3175
" />
<path d="M12.4500 57.0300
L27.9600 57.0300
" />
<path d="M12.4500 69.9700
L12.4500 57.0300
" />
<path d="M27.9600 57.0300
L27.9600 69.9700
" />
<path d="M27.9600 69.9700
L12.4500 69.9700
" />
<circle cx="40.0000" cy="34.0000" r="1.0000" /> 
<path d="M27.0200 24.6000
L28.4800 24.6000
" />
<path d="M27.0200 27.9000
L27.0200 24.6000
" />
<path d="M28.4800 24.6000
L28.4800 27.9000
" />
<path d="M28.4800 27.9000
L27.0200 27.9000
" />
<path d="M23.1000 30.8500
L24.5000 30.8500
" />
<path d="M23.1000 37.1500
L23.1000 30.8500
" />
<path d="M24.5000 30.2500
L25.1000 30.2500
" />
<path d="M24.5000 30.8500
L24.5000 30.2500
" />
<path d="M24.5000 37.1500
L23.1000 37.1500
" />
<path d="M24.5000 37.7500
L24.5000 37.1500
" />
<path d="M25.1000 28.8500
L31.4000 28.8500
" />
<path d="M25.1000 30.2500
L25.1000 28.8500
" />
<path d="M25.1000 37.7500
L24.5000 37.7500
" />
<path d="M25.1000 39.1500
L25.1000 37.7500
" />
<path d="M31.4000 28.8500
L31.4000 30.2500
" />
<path d="M31.4000 30.2500
L32.0000 30.2500
" />
<path d="M31.4000 37.7500
L31.4000 39.1500
" />
<path d="M31.4000 39.1500
L25.1000 39.1500
" />
<path d="M32.0000 30.2500
L32.0000 30.8500
" />
<path d="M32.0000 30.8500
L33.4000 30.8500
" />
<path d="M32.0000 37.1500
L32.0000 37.7500
" />
<path d="M32.0000 37.7500
L31.4000 37.7500
" />
<path d="M33.4000 30.8500
L33.4000 37.1500
" />
<path d="M33.4000 37.1500
L32.0000 37.1500
" />
<path d="M36.1000 39.6500
L36.1000 46.8500
" />
<path d="M36.1000 46.8500
L44.9000 46.8500
" />
<path d="M44.9000 39.6500
L36.1000 39.6500
" />
<path d="M44.9000 46.8500
L44.9000 39.6500
" />
<path d="M30.0075 24.3175
L30.0075 27.8575
" />
<path d="M30.0075 27.8575
L41.1675 27.8575
" />
<path d="M41.1675 24.3175
L30.0075 24.3175
" />
<path d="M41.1675 27.8575
L41.1675 24.3175
" />
<path d="M38.5200 49.6000
L39.9800 49.6000
" />
<path d="M38.5200 52.9000
L38.5200 49.6000
" />
<path d="M39.9800 49.6000
L39.9800 52.9000
" />
<path d="M39.9800 52.9000
L38.5200 52.9000
" />
</g> 
</svg>
