G04 #@! TF.GenerationSoftware,KiCad,Pcbnew,9.0.1+1*
G04 #@! TF.CreationDate,2025-10-27T20:26:38+00:00*
G04 #@! TF.ProjectId,stencil,7374656e-6369-46c2-9e6b-696361645f70,rev?*
G04 #@! TF.SameCoordinates,Original*
G04 #@! TF.FileFunction,Paste,Top*
G04 #@! TF.FilePolarity,Positive*
%FSLAX46Y46*%
G04 Gerber Fmt 4.6, Leading zero omitted, Abs format (unit mm)*
G04 Created by KiCad (PCBNEW 9.0.1+1) date 2025-10-27 20:26:38*
%MOMM*%
%LPD*%
G01*
G04 APERTURE LIST*
G04 Aperture macros list*
%AMRoundRect*
0 Rectangle with rounded corners*
0 $1 Rounding radius*
0 $2 $3 $4 $5 $6 $7 $8 $9 X,Y pos of 4 corners*
0 Add a 4 corners polygon primitive as box body*
4,1,4,$2,$3,$4,$5,$6,$7,$8,$9,$2,$3,0*
0 Add four circle primitives for the rounded corners*
1,1,$1+$1,$2,$3*
1,1,$1+$1,$4,$5*
1,1,$1+$1,$6,$7*
1,1,$1+$1,$8,$9*
0 Add four rect primitives between the rounded corners*
20,1,$1+$1,$2,$3,$4,$5,0*
20,1,$1+$1,$4,$5,$6,$7,0*
20,1,$1+$1,$6,$7,$8,$9,0*
20,1,$1+$1,$8,$9,$2,$3,0*%
G04 Aperture macros list end*
%ADD10C,0.500000*%
%ADD11C,1.000000*%
%ADD12C,1.050000*%
%ADD13RoundRect,0.237500X-0.287500X-0.237500X0.287500X-0.237500X0.287500X0.237500X-0.287500X0.237500X0*%
%ADD14RoundRect,0.225000X-0.225000X-0.375000X0.225000X-0.375000X0.225000X0.375000X-0.225000X0.375000X0*%
%ADD15RoundRect,0.140000X-0.170000X0.140000X-0.170000X-0.140000X0.170000X-0.140000X0.170000X0.140000X0*%
%ADD16RoundRect,0.237500X-0.300000X-0.237500X0.300000X-0.237500X0.300000X0.237500X-0.300000X0.237500X0*%
%ADD17RoundRect,0.575000X-0.575000X-0.575000X0.575000X-0.575000X0.575000X0.575000X-0.575000X0.575000X0*%
%ADD18RoundRect,0.140000X0.170000X-0.140000X0.170000X0.140000X-0.170000X0.140000X-0.170000X-0.140000X0*%
%ADD19RoundRect,0.237500X-0.250000X-0.237500X0.250000X-0.237500X0.250000X0.237500X-0.250000X0.237500X0*%
%ADD20RoundRect,0.250000X-0.475000X0.337500X-0.475000X-0.337500X0.475000X-0.337500X0.475000X0.337500X0*%
%ADD21RoundRect,0.140000X0.140000X0.170000X-0.140000X0.170000X-0.140000X-0.170000X0.140000X-0.170000X0*%
%ADD22RoundRect,0.140000X-0.140000X-0.170000X0.140000X-0.170000X0.140000X0.170000X-0.140000X0.170000X0*%
%ADD23RoundRect,0.250000X0.337500X0.475000X-0.337500X0.475000X-0.337500X-0.475000X0.337500X-0.475000X0*%
%ADD24RoundRect,0.080000X-0.320000X0.480000X-0.320000X-0.480000X0.320000X-0.480000X0.320000X0.480000X0*%
%ADD25RoundRect,0.250000X0.400000X1.450000X-0.400000X1.450000X-0.400000X-1.450000X0.400000X-1.450000X0*%
%ADD26RoundRect,0.250000X0.475000X-0.337500X0.475000X0.337500X-0.475000X0.337500X-0.475000X-0.337500X0*%
%ADD27R,1.250000X2.870000*%
%ADD28R,1.050000X1.580000*%
%ADD29RoundRect,0.150000X-1.200000X0.600000X-1.200000X-0.600000X1.200000X-0.600000X1.200000X0.600000X0*%
%ADD30RoundRect,0.237500X-0.237500X0.250000X-0.237500X-0.250000X0.237500X-0.250000X0.237500X0.250000X0*%
%ADD31RoundRect,0.075000X-0.662500X-0.075000X0.662500X-0.075000X0.662500X0.075000X-0.662500X0.075000X0*%
%ADD32RoundRect,0.075000X-0.075000X-0.662500X0.075000X-0.662500X0.075000X0.662500X-0.075000X0.662500X0*%
%ADD33RoundRect,0.375000X-0.625000X-0.375000X0.625000X-0.375000X0.625000X0.375000X-0.625000X0.375000X0*%
%ADD34RoundRect,0.500000X-0.500000X-1.400000X0.500000X-1.400000X0.500000X1.400000X-0.500000X1.400000X0*%
%ADD35RoundRect,0.237500X-0.237500X0.287500X-0.237500X-0.287500X0.237500X-0.287500X0.237500X0.287500X0*%
G04 APERTURE END LIST*
D10*
X-18650000Y286750000D02*
X-8250000Y286750000D01*
X-7750000Y163250000D02*
G75*
G02*
X-8250000Y162750000I-500000J0D01*
G01*
X29450000Y163250000D02*
G75*
G02*
X28950000Y162750000I-500000J0D01*
G01*
X18050000Y286250000D02*
G75*
G02*
X18550000Y286750000I500000J0D01*
G01*
X18550000Y162750000D02*
G75*
G02*
X18050000Y163250000I0J500000D01*
G01*
X4650000Y163250000D02*
G75*
G02*
X4150000Y162750000I-500000J0D01*
G01*
D11*
X-6750000Y283500000D02*
G75*
G02*
X-7750000Y283500000I-500000J0D01*
G01*
X-7750000Y283500000D02*
G75*
G02*
X-6750000Y283500000I500000J0D01*
G01*
D10*
X-6250000Y286750000D02*
X4150000Y286750000D01*
X41850000Y163250000D02*
G75*
G02*
X41350000Y162750000I-500000J0D01*
G01*
D12*
X52025000Y283500000D02*
G75*
G02*
X50975000Y283500000I-525000J0D01*
G01*
X50975000Y283500000D02*
G75*
G02*
X52025000Y283500000I525000J0D01*
G01*
D10*
X-19150000Y286250000D02*
G75*
G02*
X-18650000Y286750000I500000J0D01*
G01*
X-20150000Y163250000D02*
G75*
G02*
X-20650000Y162750000I-500000J0D01*
G01*
X41350000Y286750000D02*
G75*
G02*
X41850000Y286250000I0J-500000D01*
G01*
X-69250000Y211350000D02*
G75*
G02*
X-68750000Y211850000I500001J-1D01*
G01*
X54250000Y261450000D02*
G75*
G02*
X54750000Y260950000I0J-500000D01*
G01*
X-69250000Y186550000D02*
G75*
G02*
X-68750000Y187050000I500001J-1D01*
G01*
X4150000Y286750000D02*
G75*
G02*
X4650000Y286250000I0J-500000D01*
G01*
X5650000Y286250000D02*
G75*
G02*
X6150000Y286750000I500000J0D01*
G01*
X6150000Y162750000D02*
G75*
G02*
X5650000Y163250000I0J500000D01*
G01*
X-68250000Y162750000D02*
G75*
G02*
X-69250000Y163750000I-1J999999D01*
G01*
X6150000Y162750000D02*
X16550000Y162750000D01*
X30950000Y162750000D02*
G75*
G02*
X30450000Y163250000I0J500000D01*
G01*
X-69250000Y223750000D02*
X-69250000Y213350000D01*
X43350000Y286750000D02*
X53750000Y286750000D01*
X43350000Y162750000D02*
G75*
G02*
X42850000Y163250000I0J500000D01*
G01*
X28950000Y286750000D02*
G75*
G02*
X29450000Y286250000I0J-500000D01*
G01*
X30950000Y162750000D02*
X41350000Y162750000D01*
X-18650000Y162750000D02*
X-8250000Y162750000D01*
X-69250000Y248550000D02*
X-69250000Y238150000D01*
D11*
X22625000Y283500000D02*
G75*
G02*
X21625000Y283500000I-500000J0D01*
G01*
X21625000Y283500000D02*
G75*
G02*
X22625000Y283500000I500000J0D01*
G01*
D10*
X-69250000Y174150000D02*
G75*
G02*
X-68750000Y174650000I500001J-1D01*
G01*
X54750000Y174150000D02*
X54750000Y163750000D01*
D12*
X52025000Y166000000D02*
G75*
G02*
X50975000Y166000000I-525000J0D01*
G01*
X50975000Y166000000D02*
G75*
G02*
X52025000Y166000000I525000J0D01*
G01*
D10*
X-69250000Y236150000D02*
X-69250000Y225750000D01*
X-69250000Y260950000D02*
X-69250000Y250550000D01*
D11*
X-36125000Y283500000D02*
G75*
G02*
X-37125000Y283500000I-500000J0D01*
G01*
X-37125000Y283500000D02*
G75*
G02*
X-36125000Y283500000I500000J0D01*
G01*
D10*
X-69250000Y198950000D02*
X-69250000Y188550000D01*
X54750000Y250550000D02*
G75*
G02*
X54250000Y250050000I-500000J0D01*
G01*
X16550000Y286750000D02*
G75*
G02*
X17050000Y286250000I0J-500000D01*
G01*
X-45450000Y286750000D02*
G75*
G02*
X-44950000Y286250000I0J-500000D01*
G01*
X-68750000Y262450000D02*
G75*
G02*
X-69250000Y262950000I1J500001D01*
G01*
X-18650000Y162750000D02*
G75*
G02*
X-19150000Y163250000I0J500000D01*
G01*
X43350000Y162750000D02*
X53750000Y162750000D01*
X54250000Y174650000D02*
G75*
G02*
X54750000Y174150000I0J-500000D01*
G01*
X-68250000Y162750000D02*
X-57850000Y162750000D01*
X-69250000Y223750000D02*
G75*
G02*
X-68750000Y224250000I500001J-1D01*
G01*
X54250000Y211850000D02*
G75*
G02*
X54750000Y211350000I0J-500000D01*
G01*
X54750000Y236150000D02*
X54750000Y225750000D01*
D11*
X-65500000Y224750000D02*
G75*
G02*
X-66500000Y224750000I-500000J0D01*
G01*
X-66500000Y224750000D02*
G75*
G02*
X-65500000Y224750000I500000J0D01*
G01*
D10*
X-32550000Y163250000D02*
G75*
G02*
X-33050000Y162750000I-500000J0D01*
G01*
X54250000Y199450000D02*
G75*
G02*
X54750000Y198950000I0J-500000D01*
G01*
X54750000Y188550000D02*
G75*
G02*
X54250000Y188050000I-500000J0D01*
G01*
X-69250000Y285750000D02*
G75*
G02*
X-68250000Y286750000I999999J1D01*
G01*
X53750000Y286750000D02*
G75*
G02*
X54750000Y285750000I0J-1000000D01*
G01*
X6150000Y286750000D02*
X16550000Y286750000D01*
X54750000Y260950000D02*
X54750000Y250550000D01*
X-69250000Y174150000D02*
X-69250000Y163750000D01*
X-31050000Y162750000D02*
X-20650000Y162750000D01*
X54750000Y211350000D02*
X54750000Y200950000D01*
X-31050000Y162750000D02*
G75*
G02*
X-31550000Y163250000I0J500000D01*
G01*
X-69250000Y211350000D02*
X-69250000Y200950000D01*
D11*
X-65500000Y254125000D02*
G75*
G02*
X-66500000Y254125000I-500000J0D01*
G01*
X-66500000Y254125000D02*
G75*
G02*
X-65500000Y254125000I500000J0D01*
G01*
D10*
X54250000Y236650000D02*
G75*
G02*
X54750000Y236150000I0J-500000D01*
G01*
X-6250000Y162750000D02*
X4150000Y162750000D01*
D11*
X52000000Y195375000D02*
G75*
G02*
X51000000Y195375000I-500000J0D01*
G01*
X51000000Y195375000D02*
G75*
G02*
X52000000Y195375000I500000J0D01*
G01*
D10*
X-68750000Y175650000D02*
G75*
G02*
X-69250000Y176150000I1J500001D01*
G01*
X-6750000Y286250000D02*
G75*
G02*
X-6250000Y286750000I500000J0D01*
G01*
X-43450000Y286750000D02*
X-33050000Y286750000D01*
X-31550000Y286250000D02*
G75*
G02*
X-31050000Y286750000I500000J0D01*
G01*
X-68750000Y212850000D02*
G75*
G02*
X-69250000Y213350000I1J500001D01*
G01*
X30950000Y286750000D02*
X41350000Y286750000D01*
D11*
X-6750000Y166000000D02*
G75*
G02*
X-7750000Y166000000I-500000J0D01*
G01*
X-7750000Y166000000D02*
G75*
G02*
X-6750000Y166000000I500000J0D01*
G01*
D10*
X18550000Y162750000D02*
X28950000Y162750000D01*
X-33050000Y286750000D02*
G75*
G02*
X-32550000Y286250000I0J-500000D01*
G01*
X-68750000Y237650000D02*
G75*
G02*
X-69250000Y238150000I1J500001D01*
G01*
X54250000Y187050000D02*
G75*
G02*
X54750000Y186550000I0J-500000D01*
G01*
X54750000Y285750000D02*
X54750000Y275350000D01*
X-68750000Y250050000D02*
G75*
G02*
X-69250000Y250550000I1J500001D01*
G01*
X54750000Y186550000D02*
X54750000Y176150000D01*
X54750000Y213350000D02*
G75*
G02*
X54250000Y212850000I-500000J0D01*
G01*
X-68750000Y225250000D02*
G75*
G02*
X-69250000Y225750000I1J500001D01*
G01*
X-69250000Y186550000D02*
X-69250000Y176150000D01*
X54250000Y249050000D02*
G75*
G02*
X54750000Y248550000I0J-500000D01*
G01*
X-8250000Y286750000D02*
G75*
G02*
X-7750000Y286250000I0J-500000D01*
G01*
X-43950000Y286250000D02*
G75*
G02*
X-43450000Y286750000I500000J0D01*
G01*
X17050000Y163250000D02*
G75*
G02*
X16550000Y162750000I-500000J0D01*
G01*
X-69250000Y285750000D02*
X-69250000Y275350000D01*
D11*
X-65500000Y195375000D02*
G75*
G02*
X-66500000Y195375000I-500000J0D01*
G01*
X-66500000Y195375000D02*
G75*
G02*
X-65500000Y195375000I500000J0D01*
G01*
D10*
X-56350000Y286250000D02*
G75*
G02*
X-55850000Y286750000I500001J-1D01*
G01*
X-68750000Y200450000D02*
G75*
G02*
X-69250000Y200950000I1J500001D01*
G01*
X-68250000Y286750000D02*
X-57850000Y286750000D01*
X-43450000Y162750000D02*
X-33050000Y162750000D01*
X-44950000Y163250000D02*
G75*
G02*
X-45450000Y162750000I-500000J0D01*
G01*
X-69250000Y198950000D02*
G75*
G02*
X-68750000Y199450000I500001J-1D01*
G01*
X54750000Y200950000D02*
G75*
G02*
X54250000Y200450000I-500000J0D01*
G01*
X42850000Y286250000D02*
G75*
G02*
X43350000Y286750000I500000J0D01*
G01*
X30450000Y286250000D02*
G75*
G02*
X30950000Y286750000I500000J0D01*
G01*
X-69250000Y248550000D02*
G75*
G02*
X-68750000Y249050000I500001J-1D01*
G01*
X-68750000Y188050000D02*
G75*
G02*
X-69250000Y188550000I1J500001D01*
G01*
X54250000Y224250000D02*
G75*
G02*
X54750000Y223750000I0J-500000D01*
G01*
X54750000Y238150000D02*
G75*
G02*
X54250000Y237650000I-500000J0D01*
G01*
X-31050000Y286750000D02*
X-20650000Y286750000D01*
X54750000Y273350000D02*
X54750000Y262950000D01*
X54750000Y275350000D02*
G75*
G02*
X54250000Y274850000I-500000J0D01*
G01*
X54750000Y225750000D02*
G75*
G02*
X54250000Y225250000I-500000J0D01*
G01*
X-55850000Y162750000D02*
G75*
G02*
X-56350000Y163250000I1J500001D01*
G01*
X-6250000Y162750000D02*
G75*
G02*
X-6750000Y163250000I0J500000D01*
G01*
X54750000Y262950000D02*
G75*
G02*
X54250000Y262450000I-500000J0D01*
G01*
D11*
X52000000Y224750000D02*
G75*
G02*
X51000000Y224750000I-500000J0D01*
G01*
X51000000Y224750000D02*
G75*
G02*
X52000000Y224750000I500000J0D01*
G01*
D10*
X18550000Y286750000D02*
X28950000Y286750000D01*
D11*
X22625000Y166000000D02*
G75*
G02*
X21625000Y166000000I-500000J0D01*
G01*
X21625000Y166000000D02*
G75*
G02*
X22625000Y166000000I500000J0D01*
G01*
D10*
X54750000Y163750000D02*
G75*
G02*
X53750000Y162750000I-1000000J0D01*
G01*
X-69250000Y273350000D02*
G75*
G02*
X-68750000Y273850000I500001J-1D01*
G01*
D12*
X-65475000Y283500000D02*
G75*
G02*
X-66525000Y283500000I-525000J0D01*
G01*
X-66525000Y283500000D02*
G75*
G02*
X-65475000Y283500000I525000J0D01*
G01*
D10*
X-55850000Y162750000D02*
X-45450000Y162750000D01*
X54750000Y248550000D02*
X54750000Y238150000D01*
X54750000Y198950000D02*
X54750000Y188550000D01*
D11*
X52000000Y254125000D02*
G75*
G02*
X51000000Y254125000I-500000J0D01*
G01*
X51000000Y254125000D02*
G75*
G02*
X52000000Y254125000I500000J0D01*
G01*
D10*
X-68750000Y274850000D02*
G75*
G02*
X-69250000Y275350000I1J500001D01*
G01*
X-69250000Y273350000D02*
X-69250000Y262950000D01*
X-57350000Y163250000D02*
G75*
G02*
X-57850000Y162750000I-500001J1D01*
G01*
X-69250000Y236150000D02*
G75*
G02*
X-68750000Y236650000I500001J-1D01*
G01*
X-43450000Y162750000D02*
G75*
G02*
X-43950000Y163250000I0J500000D01*
G01*
X54250000Y273850000D02*
G75*
G02*
X54750000Y273350000I0J-500000D01*
G01*
X-57850000Y286750000D02*
G75*
G02*
X-57350000Y286250000I-1J-500001D01*
G01*
X-55850000Y286750000D02*
X-45450000Y286750000D01*
D11*
X-36125000Y166000000D02*
G75*
G02*
X-37125000Y166000000I-500000J0D01*
G01*
X-37125000Y166000000D02*
G75*
G02*
X-36125000Y166000000I500000J0D01*
G01*
D10*
X54750000Y176150000D02*
G75*
G02*
X54250000Y175650000I-500000J0D01*
G01*
X54750000Y223750000D02*
X54750000Y213350000D01*
X-69250000Y260950000D02*
G75*
G02*
X-68750000Y261450000I500001J-1D01*
G01*
X-20650000Y286750000D02*
G75*
G02*
X-20150000Y286250000I0J-500000D01*
G01*
D12*
X-65475000Y166000000D02*
G75*
G02*
X-66525000Y166000000I-525000J0D01*
G01*
X-66525000Y166000000D02*
G75*
G02*
X-65475000Y166000000I525000J0D01*
G01*
D13*
G04 #@! TO.C,D2*
X-33712500Y224912500D03*
X-31962500Y224912500D03*
G04 #@! TD*
G04 #@! TO.C,FB1*
X-17787500Y228912500D03*
X-16037500Y228912500D03*
G04 #@! TD*
D14*
G04 #@! TO.C,D1*
X-11062500Y243412500D03*
X-7762500Y243412500D03*
G04 #@! TD*
D15*
G04 #@! TO.C,C6*
X-25250000Y242642500D03*
X-25250000Y241682500D03*
G04 #@! TD*
D16*
G04 #@! TO.C,C9*
X-29112500Y236162500D03*
X-27387500Y236162500D03*
G04 #@! TD*
D17*
G04 #@! TO.C,FL1*
X1300000Y215650000D03*
X-4900000Y215650000D03*
X1300000Y219150000D03*
X-4900000Y219150000D03*
G04 #@! TD*
D18*
G04 #@! TO.C,C4*
X-13250000Y240682500D03*
X-13250000Y241642500D03*
G04 #@! TD*
D19*
G04 #@! TO.C,R2*
X-30250000Y224912500D03*
X-28425000Y224912500D03*
G04 #@! TD*
D20*
G04 #@! TO.C,C12*
X-23750000Y222825000D03*
X-23750000Y220750000D03*
G04 #@! TD*
D13*
G04 #@! TO.C,D3*
X-33837500Y222912500D03*
X-32087500Y222912500D03*
G04 #@! TD*
D21*
G04 #@! TO.C,C5*
X-21270000Y244662500D03*
X-22230000Y244662500D03*
G04 #@! TD*
D22*
G04 #@! TO.C,C3*
X-16730000Y232662500D03*
X-15770000Y232662500D03*
G04 #@! TD*
D23*
G04 #@! TO.C,C1*
X-15875000Y230912500D03*
X-17950000Y230912500D03*
G04 #@! TD*
D24*
G04 #@! TO.C,D4*
X-8250000Y218480000D03*
X-8250000Y215020000D03*
G04 #@! TD*
D25*
G04 #@! TO.C,F2*
X9475000Y215500000D03*
X5025000Y215500000D03*
G04 #@! TD*
D26*
G04 #@! TO.C,C14*
X-12750000Y225462500D03*
X-12750000Y227537500D03*
G04 #@! TD*
G04 #@! TO.C,C13*
X-12700000Y229547500D03*
X-12700000Y231622500D03*
G04 #@! TD*
D27*
G04 #@! TO.C,D9*
X-15218670Y222787500D03*
X-17758670Y222787500D03*
X-20298670Y222787500D03*
D28*
X-20298670Y217712500D03*
D27*
X-17758670Y218357500D03*
D28*
X-15218670Y217712500D03*
G04 #@! TD*
D16*
G04 #@! TO.C,C8*
X-29112500Y242162500D03*
X-27387500Y242162500D03*
G04 #@! TD*
D26*
G04 #@! TO.C,C15*
X-11250000Y217462500D03*
X-11250000Y219537500D03*
G04 #@! TD*
D29*
G04 #@! TO.C,Y1*
X-27500000Y238300000D03*
X-27500000Y240200000D03*
G04 #@! TD*
D19*
G04 #@! TO.C,R3*
X-30375000Y222912500D03*
X-28550000Y222912500D03*
G04 #@! TD*
D30*
G04 #@! TO.C,R1*
X-19750000Y247162500D03*
X-19750000Y245337500D03*
G04 #@! TD*
D31*
G04 #@! TO.C,U1*
X-23412500Y241250000D03*
X-23412500Y240750000D03*
X-23412500Y240250000D03*
X-23412500Y239750000D03*
X-23412500Y239250000D03*
X-23412500Y238750000D03*
X-23412500Y238250000D03*
X-23412500Y237750000D03*
X-23412500Y237250000D03*
X-23412500Y236750000D03*
X-23412500Y236250000D03*
X-23412500Y235750000D03*
D32*
X-22000000Y234337500D03*
X-21500000Y234337500D03*
X-21000000Y234337500D03*
X-20500000Y234337500D03*
X-20000000Y234337500D03*
X-19500000Y234337500D03*
X-19000000Y234337500D03*
X-18500000Y234337500D03*
X-18000000Y234337500D03*
X-17500000Y234337500D03*
X-17000000Y234337500D03*
X-16500000Y234337500D03*
D31*
X-15087500Y235750000D03*
X-15087500Y236250000D03*
X-15087500Y236750000D03*
X-15087500Y237250000D03*
X-15087500Y237750000D03*
X-15087500Y238250000D03*
X-15087500Y238750000D03*
X-15087500Y239250000D03*
X-15087500Y239750000D03*
X-15087500Y240250000D03*
X-15087500Y240750000D03*
X-15087500Y241250000D03*
D32*
X-16500000Y242662500D03*
X-17000000Y242662500D03*
X-17500000Y242662500D03*
X-18000000Y242662500D03*
X-18500000Y242662500D03*
X-19000000Y242662500D03*
X-19500000Y242662500D03*
X-20000000Y242662500D03*
X-20500000Y242662500D03*
X-21000000Y242662500D03*
X-21500000Y242662500D03*
X-22000000Y242662500D03*
G04 #@! TD*
D33*
G04 #@! TO.C,U2*
X-10150000Y231550000D03*
X-10150000Y229250000D03*
D34*
X-3850000Y229250000D03*
D33*
X-10150000Y226950000D03*
G04 #@! TD*
D35*
G04 #@! TO.C,D8*
X-8250000Y222125000D03*
X-8250000Y220375000D03*
G04 #@! TD*
M02*
