  0
SECTION
  2
HEADER
  9
$ANGBASE
  50
0.0
  9
$ANGDIR
  70
1
  9
$MEASUREMENT
  70
1
  0
ENDSEC
  0
SECTION
  2
TABLES
  0
TABLE
  2
LTYPE
  70
4
  0
LTYPE
  5
40F
  2
CONTINUOUS
  70
0
  3
Solid line
  72
65
  73
0
  40
0.0
  0
LTYPE
  5
410
  2
DASHDOT
 70
0
  3
Dash Dot ____ _ ____ _
 72
65
 73
4
 40
2.0
 49
1.25
 49
-0.25
 49
0.25
 49
-0.25
  0
LTYPE
  5
411
  2
DASHED
 70
0
  3
Dashed __ __ __ __ __
 72
65
 73
2
 40
0.75
 49
0.5
 49
-0.25
  0
LTYPE
  5
43B
  2
DOTTED
 70
0
  3
Dotted .  .  .  .
 72
65
 73
2
 40
0.2
 49
0.0
 49
-0.2
  0
ENDTAB
  0
TABLE
  2
STYLE
  70
4
  0
STYLE
  2
KICAD
  70
0
  40
0
  41
1
  42
1
  50
0
  71
0
  3
isocp.shx
  0
STYLE
  2
KICADB
  70
0
  40
0
  41
1
  42
1
  50
0
  71
0
  3
isocp.shx
  0
STYLE
  2
KICADI
  70
0
  40
0
  41
1
  42
1
  50
15
  71
0
  3
isocp.shx
  0
STYLE
  2
KICADBI
  70
0
  40
0
  41
1
  42
1
  50
15
  71
0
  3
isocp.shx
  0
ENDTAB
  0
TABLE
  2
LAYER
  70
1
  0
LAYER
  2
BLACK
  70
0
  62
7
  6
CONTINUOUS
  0
ENDTAB
  0
ENDSEC
  0
SECTION
  2
ENTITIES
0
LINE
8
BLACK
6
CONTINUOUS
10
54.9956709999999944
20
-68.6390299999999911
11
55.0767769999999999
21
-68.6932230000000033
0
LINE
8
BLACK
6
CONTINUOUS
10
55.0767769999999999
20
-68.6932230000000033
11
55.1309699999999978
21
-68.7743289999999945
0
LINE
8
BLACK
6
CONTINUOUS
10
55.1309699999999978
20
-68.7743289999999945
11
55.1499999999999986
21
-68.8699999999999903
0
LINE
8
BLACK
6
CONTINUOUS
10
55.1499999999999986
20
-68.8699999999999903
11
55.1499999999999986
21
-71.1199999999999903
0
LINE
8
BLACK
6
CONTINUOUS
10
55.1499999999999986
20
-71.1199999999999903
11
55.1309699999999978
21
-71.2156710000000004
0
LINE
8
BLACK
6
CONTINUOUS
10
55.1309699999999978
20
-71.2156710000000004
11
55.0767769999999999
21
-71.2967769999999916
0
LINE
8
BLACK
6
CONTINUOUS
10
55.0767769999999999
20
-71.2967769999999916
11
54.9956709999999944
21
-71.3509700000000038
0
LINE
8
BLACK
6
CONTINUOUS
10
54.9956709999999944
20
-71.3509700000000038
11
54.8999999999999986
21
-71.3699999999999903
0
LINE
8
BLACK
6
CONTINUOUS
10
54.8999999999999986
20
-71.3699999999999903
11
52.3499999999999943
21
-71.3699999999999903
0
LINE
8
BLACK
6
CONTINUOUS
10
52.3499999999999943
20
-71.3699999999999903
11
52.2543289999999985
21
-71.3509700000000038
0
LINE
8
BLACK
6
CONTINUOUS
10
52.2543289999999985
20
-71.3509700000000038
11
52.1732230000000001
21
-71.2967769999999916
0
LINE
8
BLACK
6
CONTINUOUS
10
52.1732230000000001
20
-71.2967769999999916
11
52.1190299999999951
21
-71.2156710000000004
0
LINE
8
BLACK
6
CONTINUOUS
10
52.1190299999999951
20
-71.2156710000000004
11
52.0999999999999943
21
-71.1199999999999903
0
LINE
8
BLACK
6
CONTINUOUS
10
52.0999999999999943
20
-71.1199999999999903
11
52.0999999999999943
21
-68.8699999999999903
0
LINE
8
BLACK
6
CONTINUOUS
10
52.0999999999999943
20
-68.8699999999999903
11
52.1190299999999951
21
-68.7743289999999945
0
LINE
8
BLACK
6
CONTINUOUS
10
52.1190299999999951
20
-68.7743289999999945
11
52.1732230000000001
21
-68.6932230000000033
0
LINE
8
BLACK
6
CONTINUOUS
10
52.1732230000000001
20
-68.6932230000000033
11
52.2543289999999985
21
-68.6390299999999911
0
LINE
8
BLACK
6
CONTINUOUS
10
52.2543289999999985
20
-68.6390299999999911
11
52.3499999999999943
21
-68.6199999999999903
0
LINE
8
BLACK
6
CONTINUOUS
10
52.3499999999999943
20
-68.6199999999999903
11
54.8999999999999986
21
-68.6199999999999903
0
LINE
8
BLACK
6
CONTINUOUS
10
54.8999999999999986
20
-68.6199999999999903
11
54.9956709999999944
21
-68.6390299999999911
0
LINE
8
BLACK
6
CONTINUOUS
10
58.3456709999999958
20
-68.6390299999999911
11
58.4267769999999942
21
-68.6932230000000033
0
LINE
8
BLACK
6
CONTINUOUS
10
58.4267769999999942
20
-68.6932230000000033
11
58.4809699999999992
21
-68.7743289999999945
0
LINE
8
BLACK
6
CONTINUOUS
10
58.4809699999999992
20
-68.7743289999999945
11
58.5
21
-68.8699999999999903
0
LINE
8
BLACK
6
CONTINUOUS
10
58.5
20
-68.8699999999999903
11
58.5
21
-71.1199999999999903
0
LINE
8
BLACK
6
CONTINUOUS
10
58.5
20
-71.1199999999999903
11
58.4809699999999992
21
-71.2156710000000004
0
LINE
8
BLACK
6
CONTINUOUS
10
58.4809699999999992
20
-71.2156710000000004
11
58.4267769999999942
21
-71.2967769999999916
0
LINE
8
BLACK
6
CONTINUOUS
10
58.4267769999999942
20
-71.2967769999999916
11
58.3456709999999958
21
-71.3509700000000038
0
LINE
8
BLACK
6
CONTINUOUS
10
58.3456709999999958
20
-71.3509700000000038
11
58.25
21
-71.3699999999999903
0
LINE
8
BLACK
6
CONTINUOUS
10
58.25
20
-71.3699999999999903
11
55.6999999999999957
21
-71.3699999999999903
0
LINE
8
BLACK
6
CONTINUOUS
10
55.6999999999999957
20
-71.3699999999999903
11
55.6043289999999999
21
-71.3509700000000038
0
LINE
8
BLACK
6
CONTINUOUS
10
55.6043289999999999
20
-71.3509700000000038
11
55.5232229999999944
21
-71.2967769999999916
0
LINE
8
BLACK
6
CONTINUOUS
10
55.5232229999999944
20
-71.2967769999999916
11
55.4690299999999965
21
-71.2156710000000004
0
LINE
8
BLACK
6
CONTINUOUS
10
55.4690299999999965
20
-71.2156710000000004
11
55.4499999999999957
21
-71.1199999999999903
0
LINE
8
BLACK
6
CONTINUOUS
10
55.4499999999999957
20
-71.1199999999999903
11
55.4499999999999957
21
-68.8699999999999903
0
LINE
8
BLACK
6
CONTINUOUS
10
55.4499999999999957
20
-68.8699999999999903
11
55.4690299999999965
21
-68.7743289999999945
0
LINE
8
BLACK
6
CONTINUOUS
10
55.4690299999999965
20
-68.7743289999999945
11
55.5232229999999944
21
-68.6932230000000033
0
LINE
8
BLACK
6
CONTINUOUS
10
55.5232229999999944
20
-68.6932230000000033
11
55.6043289999999999
21
-68.6390299999999911
0
LINE
8
BLACK
6
CONTINUOUS
10
55.6043289999999999
20
-68.6390299999999911
11
55.6999999999999957
21
-68.6199999999999903
0
LINE
8
BLACK
6
CONTINUOUS
10
55.6999999999999957
20
-68.6199999999999903
11
58.25
21
-68.6199999999999903
0
LINE
8
BLACK
6
CONTINUOUS
10
58.25
20
-68.6199999999999903
11
58.3456709999999958
21
-68.6390299999999911
0
LINE
8
BLACK
6
CONTINUOUS
10
49.9456709999999973
20
-70.1690299999999922
11
50.0267769999999956
21
-70.2232229999999902
0
LINE
8
BLACK
6
CONTINUOUS
10
50.0267769999999956
20
-70.2232229999999902
11
50.0809700000000007
21
-70.3043289999999956
0
LINE
8
BLACK
6
CONTINUOUS
10
50.0809700000000007
20
-70.3043289999999956
11
50.0999999999999943
21
-70.3999999999999915
0
LINE
8
BLACK
6
CONTINUOUS
10
50.0999999999999943
20
-70.3999999999999915
11
50.0999999999999943
21
-71.0999999999999943
0
LINE
8
BLACK
6
CONTINUOUS
10
50.0999999999999943
20
-71.0999999999999943
11
50.0809700000000007
21
-71.1956709999999902
0
LINE
8
BLACK
6
CONTINUOUS
10
50.0809700000000007
20
-71.1956709999999902
11
50.0267769999999956
21
-71.2767769999999956
0
LINE
8
BLACK
6
CONTINUOUS
10
50.0267769999999956
20
-71.2767769999999956
11
49.9456709999999973
21
-71.3309699999999935
0
LINE
8
BLACK
6
CONTINUOUS
10
49.9456709999999973
20
-71.3309699999999935
11
49.8499999999999943
21
-71.3499999999999943
0
LINE
8
BLACK
6
CONTINUOUS
10
49.8499999999999943
20
-71.3499999999999943
11
48.1499999999999986
21
-71.3499999999999943
0
LINE
8
BLACK
6
CONTINUOUS
10
48.1499999999999986
20
-71.3499999999999943
11
48.0543289999999956
21
-71.3309699999999935
0
LINE
8
BLACK
6
CONTINUOUS
10
48.0543289999999956
20
-71.3309699999999935
11
47.9732229999999973
21
-71.2767769999999956
0
LINE
8
BLACK
6
CONTINUOUS
10
47.9732229999999973
20
-71.2767769999999956
11
47.9190299999999993
21
-71.1956709999999902
0
LINE
8
BLACK
6
CONTINUOUS
10
47.9190299999999993
20
-71.1956709999999902
11
47.8999999999999986
21
-71.0999999999999943
0
LINE
8
BLACK
6
CONTINUOUS
10
47.8999999999999986
20
-71.0999999999999943
11
47.8999999999999986
21
-70.3999999999999915
0
LINE
8
BLACK
6
CONTINUOUS
10
47.8999999999999986
20
-70.3999999999999915
11
47.9190299999999993
21
-70.3043289999999956
0
LINE
8
BLACK
6
CONTINUOUS
10
47.9190299999999993
20
-70.3043289999999956
11
47.9732229999999973
21
-70.2232229999999902
0
LINE
8
BLACK
6
CONTINUOUS
10
47.9732229999999973
20
-70.2232229999999902
11
48.0543289999999956
21
-70.1690299999999922
0
LINE
8
BLACK
6
CONTINUOUS
10
48.0543289999999956
20
-70.1690299999999922
11
48.1499999999999986
21
-70.1499999999999915
0
LINE
8
BLACK
6
CONTINUOUS
10
48.1499999999999986
20
-70.1499999999999915
11
49.8499999999999943
21
-70.1499999999999915
0
LINE
8
BLACK
6
CONTINUOUS
10
49.8499999999999943
20
-70.1499999999999915
11
49.9456709999999973
21
-70.1690299999999922
0
LINE
8
BLACK
6
CONTINUOUS
10
47.0783869999999993
20
-68.843079000000003
11
47.1554379999999966
21
-68.8945619999999934
0
LINE
8
BLACK
6
CONTINUOUS
10
47.1554379999999966
20
-68.8945619999999934
11
47.2069210000000012
21
-68.9716129999999907
0
LINE
8
BLACK
6
CONTINUOUS
10
47.2069210000000012
20
-68.9716129999999907
11
47.2249999999999943
21
-69.0625
0
LINE
8
BLACK
6
CONTINUOUS
10
47.2249999999999943
20
-69.0625
11
47.2249999999999943
21
-69.6624999999999943
0
LINE
8
BLACK
6
CONTINUOUS
10
47.2249999999999943
20
-69.6624999999999943
11
47.2069210000000012
21
-69.7533870000000036
0
LINE
8
BLACK
6
CONTINUOUS
10
47.2069210000000012
20
-69.7533870000000036
11
47.1554379999999966
21
-69.8304380000000009
0
LINE
8
BLACK
6
CONTINUOUS
10
47.1554379999999966
20
-69.8304380000000009
11
47.0783869999999993
21
-69.8819209999999913
0
LINE
8
BLACK
6
CONTINUOUS
10
47.0783869999999993
20
-69.8819209999999913
11
46.9874999999999972
21
-69.8999999999999915
0
LINE
8
BLACK
6
CONTINUOUS
10
46.9874999999999972
20
-69.8999999999999915
11
46.5124999999999957
21
-69.8999999999999915
0
LINE
8
BLACK
6
CONTINUOUS
10
46.5124999999999957
20
-69.8999999999999915
11
46.4216130000000007
21
-69.8819209999999913
0
LINE
8
BLACK
6
CONTINUOUS
10
46.4216130000000007
20
-69.8819209999999913
11
46.3445619999999963
21
-69.8304380000000009
0
LINE
8
BLACK
6
CONTINUOUS
10
46.3445619999999963
20
-69.8304380000000009
11
46.2930789999999988
21
-69.7533870000000036
0
LINE
8
BLACK
6
CONTINUOUS
10
46.2930789999999988
20
-69.7533870000000036
11
46.2749999999999986
21
-69.6624999999999943
0
LINE
8
BLACK
6
CONTINUOUS
10
46.2749999999999986
20
-69.6624999999999943
11
46.2749999999999986
21
-69.0625
0
LINE
8
BLACK
6
CONTINUOUS
10
46.2749999999999986
20
-69.0625
11
46.2930789999999988
21
-68.9716129999999907
0
LINE
8
BLACK
6
CONTINUOUS
10
46.2930789999999988
20
-68.9716129999999907
11
46.3445619999999963
21
-68.8945619999999934
0
LINE
8
BLACK
6
CONTINUOUS
10
46.3445619999999963
20
-68.8945619999999934
11
46.4216130000000007
21
-68.843079000000003
0
LINE
8
BLACK
6
CONTINUOUS
10
46.4216130000000007
20
-68.843079000000003
11
46.5124999999999957
21
-68.8250000000000028
0
LINE
8
BLACK
6
CONTINUOUS
10
46.5124999999999957
20
-68.8250000000000028
11
46.9874999999999972
21
-68.8250000000000028
0
LINE
8
BLACK
6
CONTINUOUS
10
46.9874999999999972
20
-68.8250000000000028
11
47.0783869999999993
21
-68.843079000000003
0
LINE
8
BLACK
6
CONTINUOUS
10
36.1956709999999973
20
-67.1190299999999951
11
36.2767769999999956
21
-67.173222999999993
0
LINE
8
BLACK
6
CONTINUOUS
10
36.2767769999999956
20
-67.173222999999993
11
36.3309700000000007
21
-67.2543289999999985
0
LINE
8
BLACK
6
CONTINUOUS
10
36.3309700000000007
20
-67.2543289999999985
11
36.3500000000000014
21
-67.3499999999999943
0
LINE
8
BLACK
6
CONTINUOUS
10
36.3500000000000014
20
-67.3499999999999943
11
36.3500000000000014
21
-68.1499999999999915
0
LINE
8
BLACK
6
CONTINUOUS
10
36.3500000000000014
20
-68.1499999999999915
11
36.3309700000000007
21
-68.2456710000000015
0
LINE
8
BLACK
6
CONTINUOUS
10
36.3309700000000007
20
-68.2456710000000015
11
36.2767769999999956
21
-68.3267769999999928
0
LINE
8
BLACK
6
CONTINUOUS
10
36.2767769999999956
20
-68.3267769999999928
11
36.1956709999999973
21
-68.3809699999999907
0
LINE
8
BLACK
6
CONTINUOUS
10
36.1956709999999973
20
-68.3809699999999907
11
36.1000000000000014
21
-68.3999999999999915
0
LINE
8
BLACK
6
CONTINUOUS
10
36.1000000000000014
20
-68.3999999999999915
11
34.8999999999999986
21
-68.3999999999999915
0
LINE
8
BLACK
6
CONTINUOUS
10
34.8999999999999986
20
-68.3999999999999915
11
34.8043289999999956
21
-68.3809699999999907
0
LINE
8
BLACK
6
CONTINUOUS
10
34.8043289999999956
20
-68.3809699999999907
11
34.7232229999999973
21
-68.3267769999999928
0
LINE
8
BLACK
6
CONTINUOUS
10
34.7232229999999973
20
-68.3267769999999928
11
34.6690299999999993
21
-68.2456710000000015
0
LINE
8
BLACK
6
CONTINUOUS
10
34.6690299999999993
20
-68.2456710000000015
11
34.6499999999999986
21
-68.1499999999999915
0
LINE
8
BLACK
6
CONTINUOUS
10
34.6499999999999986
20
-68.1499999999999915
11
34.6499999999999986
21
-67.3499999999999943
0
LINE
8
BLACK
6
CONTINUOUS
10
34.6499999999999986
20
-67.3499999999999943
11
34.6690299999999993
21
-67.2543289999999985
0
LINE
8
BLACK
6
CONTINUOUS
10
34.6690299999999993
20
-67.2543289999999985
11
34.7232229999999973
21
-67.173222999999993
0
LINE
8
BLACK
6
CONTINUOUS
10
34.7232229999999973
20
-67.173222999999993
11
34.8043289999999956
21
-67.1190299999999951
0
LINE
8
BLACK
6
CONTINUOUS
10
34.8043289999999956
20
-67.1190299999999951
11
34.8999999999999986
21
-67.0999999999999943
0
LINE
8
BLACK
6
CONTINUOUS
10
34.8999999999999986
20
-67.0999999999999943
11
36.1000000000000014
21
-67.0999999999999943
0
LINE
8
BLACK
6
CONTINUOUS
10
36.1000000000000014
20
-67.0999999999999943
11
36.1956709999999973
21
-67.1190299999999951
0
LINE
8
BLACK
6
CONTINUOUS
10
54.9956709999999944
20
-65.5890299999999939
11
55.0767769999999999
21
-65.6432229999999919
0
LINE
8
BLACK
6
CONTINUOUS
10
55.0767769999999999
20
-65.6432229999999919
11
55.1309699999999978
21
-65.7243289999999973
0
LINE
8
BLACK
6
CONTINUOUS
10
55.1309699999999978
20
-65.7243289999999973
11
55.1499999999999986
21
-65.8199999999999932
0
LINE
8
BLACK
6
CONTINUOUS
10
55.1499999999999986
20
-65.8199999999999932
11
55.1499999999999986
21
-68.0699999999999932
0
LINE
8
BLACK
6
CONTINUOUS
10
55.1499999999999986
20
-68.0699999999999932
11
55.1309699999999978
21
-68.1656710000000032
0
LINE
8
BLACK
6
CONTINUOUS
10
55.1309699999999978
20
-68.1656710000000032
11
55.0767769999999999
21
-68.2467769999999945
0
LINE
8
BLACK
6
CONTINUOUS
10
55.0767769999999999
20
-68.2467769999999945
11
54.9956709999999944
21
-68.3009699999999924
0
LINE
8
BLACK
6
CONTINUOUS
10
54.9956709999999944
20
-68.3009699999999924
11
54.8999999999999986
21
-68.3199999999999932
0
LINE
8
BLACK
6
CONTINUOUS
10
54.8999999999999986
20
-68.3199999999999932
11
52.3499999999999943
21
-68.3199999999999932
0
LINE
8
BLACK
6
CONTINUOUS
10
52.3499999999999943
20
-68.3199999999999932
11
52.2543289999999985
21
-68.3009699999999924
0
LINE
8
BLACK
6
CONTINUOUS
10
52.2543289999999985
20
-68.3009699999999924
11
52.1732230000000001
21
-68.2467769999999945
0
LINE
8
BLACK
6
CONTINUOUS
10
52.1732230000000001
20
-68.2467769999999945
11
52.1190299999999951
21
-68.1656710000000032
0
LINE
8
BLACK
6
CONTINUOUS
10
52.1190299999999951
20
-68.1656710000000032
11
52.0999999999999943
21
-68.0699999999999932
0
LINE
8
BLACK
6
CONTINUOUS
10
52.0999999999999943
20
-68.0699999999999932
11
52.0999999999999943
21
-65.8199999999999932
0
LINE
8
BLACK
6
CONTINUOUS
10
52.0999999999999943
20
-65.8199999999999932
11
52.1190299999999951
21
-65.7243289999999973
0
LINE
8
BLACK
6
CONTINUOUS
10
52.1190299999999951
20
-65.7243289999999973
11
52.1732230000000001
21
-65.6432229999999919
0
LINE
8
BLACK
6
CONTINUOUS
10
52.1732230000000001
20
-65.6432229999999919
11
52.2543289999999985
21
-65.5890299999999939
0
LINE
8
BLACK
6
CONTINUOUS
10
52.2543289999999985
20
-65.5890299999999939
11
52.3499999999999943
21
-65.5699999999999932
0
LINE
8
BLACK
6
CONTINUOUS
10
52.3499999999999943
20
-65.5699999999999932
11
54.8999999999999986
21
-65.5699999999999932
0
LINE
8
BLACK
6
CONTINUOUS
10
54.8999999999999986
20
-65.5699999999999932
11
54.9956709999999944
21
-65.5890299999999939
0
LINE
8
BLACK
6
CONTINUOUS
10
58.3456709999999958
20
-65.5890299999999939
11
58.4267769999999942
21
-65.6432229999999919
0
LINE
8
BLACK
6
CONTINUOUS
10
58.4267769999999942
20
-65.6432229999999919
11
58.4809699999999992
21
-65.7243289999999973
0
LINE
8
BLACK
6
CONTINUOUS
10
58.4809699999999992
20
-65.7243289999999973
11
58.5
21
-65.8199999999999932
0
LINE
8
BLACK
6
CONTINUOUS
10
58.5
20
-65.8199999999999932
11
58.5
21
-68.0699999999999932
0
LINE
8
BLACK
6
CONTINUOUS
10
58.5
20
-68.0699999999999932
11
58.4809699999999992
21
-68.1656710000000032
0
LINE
8
BLACK
6
CONTINUOUS
10
58.4809699999999992
20
-68.1656710000000032
11
58.4267769999999942
21
-68.2467769999999945
0
LINE
8
BLACK
6
CONTINUOUS
10
58.4267769999999942
20
-68.2467769999999945
11
58.3456709999999958
21
-68.3009699999999924
0
LINE
8
BLACK
6
CONTINUOUS
10
58.3456709999999958
20
-68.3009699999999924
11
58.25
21
-68.3199999999999932
0
LINE
8
BLACK
6
CONTINUOUS
10
58.25
20
-68.3199999999999932
11
55.6999999999999957
21
-68.3199999999999932
0
LINE
8
BLACK
6
CONTINUOUS
10
55.6999999999999957
20
-68.3199999999999932
11
55.6043289999999999
21
-68.3009699999999924
0
LINE
8
BLACK
6
CONTINUOUS
10
55.6043289999999999
20
-68.3009699999999924
11
55.5232229999999944
21
-68.2467769999999945
0
LINE
8
BLACK
6
CONTINUOUS
10
55.5232229999999944
20
-68.2467769999999945
11
55.4690299999999965
21
-68.1656710000000032
0
LINE
8
BLACK
6
CONTINUOUS
10
55.4690299999999965
20
-68.1656710000000032
11
55.4499999999999957
21
-68.0699999999999932
0
LINE
8
BLACK
6
CONTINUOUS
10
55.4499999999999957
20
-68.0699999999999932
11
55.4499999999999957
21
-65.8199999999999932
0
LINE
8
BLACK
6
CONTINUOUS
10
55.4499999999999957
20
-65.8199999999999932
11
55.4690299999999965
21
-65.7243289999999973
0
LINE
8
BLACK
6
CONTINUOUS
10
55.4690299999999965
20
-65.7243289999999973
11
55.5232229999999944
21
-65.6432229999999919
0
LINE
8
BLACK
6
CONTINUOUS
10
55.5232229999999944
20
-65.6432229999999919
11
55.6043289999999999
21
-65.5890299999999939
0
LINE
8
BLACK
6
CONTINUOUS
10
55.6043289999999999
20
-65.5890299999999939
11
55.6999999999999957
21
-65.5699999999999932
0
LINE
8
BLACK
6
CONTINUOUS
10
55.6999999999999957
20
-65.5699999999999932
11
58.25
21
-65.5699999999999932
0
LINE
8
BLACK
6
CONTINUOUS
10
58.25
20
-65.5699999999999932
11
58.3456709999999958
21
-65.5890299999999939
0
LINE
8
BLACK
6
CONTINUOUS
10
47.0783869999999993
20
-67.1180789999999945
11
47.1554379999999966
21
-67.1695619999999991
0
LINE
8
BLACK
6
CONTINUOUS
10
47.1554379999999966
20
-67.1695619999999991
11
47.2069210000000012
21
-67.2466129999999964
0
LINE
8
BLACK
6
CONTINUOUS
10
47.2069210000000012
20
-67.2466129999999964
11
47.2249999999999943
21
-67.3374999999999915
0
LINE
8
BLACK
6
CONTINUOUS
10
47.2249999999999943
20
-67.3374999999999915
11
47.2249999999999943
21
-67.9375
0
LINE
8
BLACK
6
CONTINUOUS
10
47.2249999999999943
20
-67.9375
11
47.2069210000000012
21
-68.0283869999999951
0
LINE
8
BLACK
6
CONTINUOUS
10
47.2069210000000012
20
-68.0283869999999951
11
47.1554379999999966
21
-68.1054379999999924
0
LINE
8
BLACK
6
CONTINUOUS
10
47.1554379999999966
20
-68.1054379999999924
11
47.0783869999999993
21
-68.156920999999997
0
LINE
8
BLACK
6
CONTINUOUS
10
47.0783869999999993
20
-68.156920999999997
11
46.9874999999999972
21
-68.1749999999999972
0
LINE
8
BLACK
6
CONTINUOUS
10
46.9874999999999972
20
-68.1749999999999972
11
46.5124999999999957
21
-68.1749999999999972
0
LINE
8
BLACK
6
CONTINUOUS
10
46.5124999999999957
20
-68.1749999999999972
11
46.4216130000000007
21
-68.156920999999997
0
LINE
8
BLACK
6
CONTINUOUS
10
46.4216130000000007
20
-68.156920999999997
11
46.3445619999999963
21
-68.1054379999999924
0
LINE
8
BLACK
6
CONTINUOUS
10
46.3445619999999963
20
-68.1054379999999924
11
46.2930789999999988
21
-68.0283869999999951
0
LINE
8
BLACK
6
CONTINUOUS
10
46.2930789999999988
20
-68.0283869999999951
11
46.2749999999999986
21
-67.9375
0
LINE
8
BLACK
6
CONTINUOUS
10
46.2749999999999986
20
-67.9375
11
46.2749999999999986
21
-67.3374999999999915
0
LINE
8
BLACK
6
CONTINUOUS
10
46.2749999999999986
20
-67.3374999999999915
11
46.2930789999999988
21
-67.2466129999999964
0
LINE
8
BLACK
6
CONTINUOUS
10
46.2930789999999988
20
-67.2466129999999964
11
46.3445619999999963
21
-67.1695619999999991
0
LINE
8
BLACK
6
CONTINUOUS
10
46.3445619999999963
20
-67.1695619999999991
11
46.4216130000000007
21
-67.1180789999999945
0
LINE
8
BLACK
6
CONTINUOUS
10
46.4216130000000007
20
-67.1180789999999945
11
46.5124999999999957
21
-67.0999999999999943
0
LINE
8
BLACK
6
CONTINUOUS
10
46.5124999999999957
20
-67.0999999999999943
11
46.9874999999999972
21
-67.0999999999999943
0
LINE
8
BLACK
6
CONTINUOUS
10
46.9874999999999972
20
-67.0999999999999943
11
47.0783869999999993
21
-67.1180789999999945
0
LINE
8
BLACK
6
CONTINUOUS
10
49.9456709999999973
20
-65.60902999999999
11
50.0267769999999956
21
-65.6632230000000021
0
LINE
8
BLACK
6
CONTINUOUS
10
50.0267769999999956
20
-65.6632230000000021
11
50.0809700000000007
21
-65.7443289999999934
0
LINE
8
BLACK
6
CONTINUOUS
10
50.0809700000000007
20
-65.7443289999999934
11
50.0999999999999943
21
-65.8400000000000034
0
LINE
8
BLACK
6
CONTINUOUS
10
50.0999999999999943
20
-65.8400000000000034
11
50.0999999999999943
21
-66.539999999999992
0
LINE
8
BLACK
6
CONTINUOUS
10
50.0999999999999943
20
-66.539999999999992
11
50.0809700000000007
21
-66.6356710000000021
0
LINE
8
BLACK
6
CONTINUOUS
10
50.0809700000000007
20
-66.6356710000000021
11
50.0267769999999956
21
-66.7167769999999933
0
LINE
8
BLACK
6
CONTINUOUS
10
50.0267769999999956
20
-66.7167769999999933
11
49.9456709999999973
21
-66.7709699999999913
0
LINE
8
BLACK
6
CONTINUOUS
10
49.9456709999999973
20
-66.7709699999999913
11
49.8499999999999943
21
-66.789999999999992
0
LINE
8
BLACK
6
CONTINUOUS
10
49.8499999999999943
20
-66.789999999999992
11
48.1499999999999986
21
-66.789999999999992
0
LINE
8
BLACK
6
CONTINUOUS
10
48.1499999999999986
20
-66.789999999999992
11
48.0543289999999956
21
-66.7709699999999913
0
LINE
8
BLACK
6
CONTINUOUS
10
48.0543289999999956
20
-66.7709699999999913
11
47.9732229999999973
21
-66.7167769999999933
0
LINE
8
BLACK
6
CONTINUOUS
10
47.9732229999999973
20
-66.7167769999999933
11
47.9190299999999993
21
-66.6356710000000021
0
LINE
8
BLACK
6
CONTINUOUS
10
47.9190299999999993
20
-66.6356710000000021
11
47.8999999999999986
21
-66.539999999999992
0
LINE
8
BLACK
6
CONTINUOUS
10
47.8999999999999986
20
-66.539999999999992
11
47.8999999999999986
21
-65.8400000000000034
0
LINE
8
BLACK
6
CONTINUOUS
10
47.8999999999999986
20
-65.8400000000000034
11
47.9190299999999993
21
-65.7443289999999934
0
LINE
8
BLACK
6
CONTINUOUS
10
47.9190299999999993
20
-65.7443289999999934
11
47.9732229999999973
21
-65.6632230000000021
0
LINE
8
BLACK
6
CONTINUOUS
10
47.9732229999999973
20
-65.6632230000000021
11
48.0543289999999956
21
-65.60902999999999
0
LINE
8
BLACK
6
CONTINUOUS
10
48.0543289999999956
20
-65.60902999999999
11
48.1499999999999986
21
-65.5900000000000034
0
LINE
8
BLACK
6
CONTINUOUS
10
48.1499999999999986
20
-65.5900000000000034
11
49.8499999999999943
21
-65.5900000000000034
0
LINE
8
BLACK
6
CONTINUOUS
10
49.8499999999999943
20
-65.5900000000000034
11
49.9456709999999973
21
-65.60902999999999
0
LINE
8
BLACK
6
CONTINUOUS
10
36.1956709999999973
20
-63.6190299999999951
11
36.2767769999999956
21
-63.6732230000000001
0
LINE
8
BLACK
6
CONTINUOUS
10
36.2767769999999956
20
-63.6732230000000001
11
36.3309700000000007
21
-63.7543289999999985
0
LINE
8
BLACK
6
CONTINUOUS
10
36.3309700000000007
20
-63.7543289999999985
11
36.3500000000000014
21
-63.8499999999999943
0
LINE
8
BLACK
6
CONTINUOUS
10
36.3500000000000014
20
-63.8499999999999943
11
36.3500000000000014
21
-64.6499999999999915
0
LINE
8
BLACK
6
CONTINUOUS
10
36.3500000000000014
20
-64.6499999999999915
11
36.3309700000000007
21
-64.7456710000000015
0
LINE
8
BLACK
6
CONTINUOUS
10
36.3309700000000007
20
-64.7456710000000015
11
36.2767769999999956
21
-64.8267769999999928
0
LINE
8
BLACK
6
CONTINUOUS
10
36.2767769999999956
20
-64.8267769999999928
11
36.1956709999999973
21
-64.8809699999999907
0
LINE
8
BLACK
6
CONTINUOUS
10
36.1956709999999973
20
-64.8809699999999907
11
36.1000000000000014
21
-64.8999999999999915
0
LINE
8
BLACK
6
CONTINUOUS
10
36.1000000000000014
20
-64.8999999999999915
11
34.8999999999999986
21
-64.8999999999999915
0
LINE
8
BLACK
6
CONTINUOUS
10
34.8999999999999986
20
-64.8999999999999915
11
34.8043289999999956
21
-64.8809699999999907
0
LINE
8
BLACK
6
CONTINUOUS
10
34.8043289999999956
20
-64.8809699999999907
11
34.7232229999999973
21
-64.8267769999999928
0
LINE
8
BLACK
6
CONTINUOUS
10
34.7232229999999973
20
-64.8267769999999928
11
34.6690299999999993
21
-64.7456710000000015
0
LINE
8
BLACK
6
CONTINUOUS
10
34.6690299999999993
20
-64.7456710000000015
11
34.6499999999999986
21
-64.6499999999999915
0
LINE
8
BLACK
6
CONTINUOUS
10
34.6499999999999986
20
-64.6499999999999915
11
34.6499999999999986
21
-63.8499999999999943
0
LINE
8
BLACK
6
CONTINUOUS
10
34.6499999999999986
20
-63.8499999999999943
11
34.6690299999999993
21
-63.7543289999999985
0
LINE
8
BLACK
6
CONTINUOUS
10
34.6690299999999993
20
-63.7543289999999985
11
34.7232229999999973
21
-63.6732230000000001
0
LINE
8
BLACK
6
CONTINUOUS
10
34.7232229999999973
20
-63.6732230000000001
11
34.8043289999999956
21
-63.6190299999999951
0
LINE
8
BLACK
6
CONTINUOUS
10
34.8043289999999956
20
-63.6190299999999951
11
34.8999999999999986
21
-63.5999999999999943
0
LINE
8
BLACK
6
CONTINUOUS
10
34.8999999999999986
20
-63.5999999999999943
11
36.1000000000000014
21
-63.5999999999999943
0
LINE
8
BLACK
6
CONTINUOUS
10
36.1000000000000014
20
-63.5999999999999943
11
36.1956709999999973
21
-63.6190299999999951
0
LINE
8
BLACK
6
CONTINUOUS
10
56.0074029999999965
20
-62.7114179999999948
11
56.0560659999999942
21
-62.7439339999999959
0
LINE
8
BLACK
6
CONTINUOUS
10
56.0560659999999942
20
-62.7439339999999959
11
56.0885819999999953
21
-62.7925970000000007
0
LINE
8
BLACK
6
CONTINUOUS
10
56.0885819999999953
20
-62.7925970000000007
11
56.0999999999999943
21
-62.8499999999999943
0
LINE
8
BLACK
6
CONTINUOUS
10
56.0999999999999943
20
-62.8499999999999943
11
56.0999999999999943
21
-64.0249999999999915
0
LINE
8
BLACK
6
CONTINUOUS
10
56.0999999999999943
20
-64.0249999999999915
11
56.0885819999999953
21
-64.0824029999999993
0
LINE
8
BLACK
6
CONTINUOUS
10
56.0885819999999953
20
-64.0824029999999993
11
56.0560659999999942
21
-64.1310660000000041
0
LINE
8
BLACK
6
CONTINUOUS
10
56.0560659999999942
20
-64.1310660000000041
11
56.0074029999999965
21
-64.163581999999991
0
LINE
8
BLACK
6
CONTINUOUS
10
56.0074029999999965
20
-64.163581999999991
11
55.9499999999999957
21
-64.1749999999999972
0
LINE
8
BLACK
6
CONTINUOUS
10
55.9499999999999957
20
-64.1749999999999972
11
55.6499999999999986
21
-64.1749999999999972
0
LINE
8
BLACK
6
CONTINUOUS
10
55.6499999999999986
20
-64.1749999999999972
11
55.5925969999999978
21
-64.163581999999991
0
LINE
8
BLACK
6
CONTINUOUS
10
55.5925969999999978
20
-64.163581999999991
11
55.5439340000000001
21
-64.1310660000000041
0
LINE
8
BLACK
6
CONTINUOUS
10
55.5439340000000001
20
-64.1310660000000041
11
55.511417999999999
21
-64.0824029999999993
0
LINE
8
BLACK
6
CONTINUOUS
10
55.511417999999999
20
-64.0824029999999993
11
55.5
21
-64.0249999999999915
0
LINE
8
BLACK
6
CONTINUOUS
10
55.5
20
-64.0249999999999915
11
55.5
21
-62.8499999999999943
0
LINE
8
BLACK
6
CONTINUOUS
10
55.5
20
-62.8499999999999943
11
55.511417999999999
21
-62.7925970000000007
0
LINE
8
BLACK
6
CONTINUOUS
10
55.511417999999999
20
-62.7925970000000007
11
55.5439340000000001
21
-62.7439339999999959
0
LINE
8
BLACK
6
CONTINUOUS
10
55.5439340000000001
20
-62.7439339999999959
11
55.5925969999999978
21
-62.7114179999999948
0
LINE
8
BLACK
6
CONTINUOUS
10
55.5925969999999978
20
-62.7114179999999948
11
55.6499999999999986
21
-62.6999999999999957
0
LINE
8
BLACK
6
CONTINUOUS
10
55.6499999999999986
20
-62.6999999999999957
11
55.9499999999999957
21
-62.6999999999999957
0
LINE
8
BLACK
6
CONTINUOUS
10
55.9499999999999957
20
-62.6999999999999957
11
56.0074029999999965
21
-62.7114179999999948
0
LINE
8
BLACK
6
CONTINUOUS
10
57.9074029999999951
20
-62.7114179999999948
11
57.9560659999999999
21
-62.7439339999999959
0
LINE
8
BLACK
6
CONTINUOUS
10
57.9560659999999999
20
-62.7439339999999959
11
57.9885819999999939
21
-62.7925970000000007
0
LINE
8
BLACK
6
CONTINUOUS
10
57.9885819999999939
20
-62.7925970000000007
11
58.
21
-62.8499999999999943
0
LINE
8
BLACK
6
CONTINUOUS
10
58.
20
-62.8499999999999943
11
58.
21
-64.0249999999999915
0
LINE
8
BLACK
6
CONTINUOUS
10
58.
20
-64.0249999999999915
11
57.9885819999999939
21
-64.0824029999999993
0
LINE
8
BLACK
6
CONTINUOUS
10
57.9885819999999939
20
-64.0824029999999993
11
57.9560659999999999
21
-64.1310660000000041
0
LINE
8
BLACK
6
CONTINUOUS
10
57.9560659999999999
20
-64.1310660000000041
11
57.9074029999999951
21
-64.163581999999991
0
LINE
8
BLACK
6
CONTINUOUS
10
57.9074029999999951
20
-64.163581999999991
11
57.8499999999999943
21
-64.1749999999999972
0
LINE
8
BLACK
6
CONTINUOUS
10
57.8499999999999943
20
-64.1749999999999972
11
57.5499999999999972
21
-64.1749999999999972
0
LINE
8
BLACK
6
CONTINUOUS
10
57.5499999999999972
20
-64.1749999999999972
11
57.4925969999999964
21
-64.163581999999991
0
LINE
8
BLACK
6
CONTINUOUS
10
57.4925969999999964
20
-64.163581999999991
11
57.4439339999999987
21
-64.1310660000000041
0
LINE
8
BLACK
6
CONTINUOUS
10
57.4439339999999987
20
-64.1310660000000041
11
57.4114179999999976
21
-64.0824029999999993
0
LINE
8
BLACK
6
CONTINUOUS
10
57.4114179999999976
20
-64.0824029999999993
11
57.3999999999999986
21
-64.0249999999999915
0
LINE
8
BLACK
6
CONTINUOUS
10
57.3999999999999986
20
-64.0249999999999915
11
57.3999999999999986
21
-62.8499999999999943
0
LINE
8
BLACK
6
CONTINUOUS
10
57.3999999999999986
20
-62.8499999999999943
11
57.4114179999999976
21
-62.7925970000000007
0
LINE
8
BLACK
6
CONTINUOUS
10
57.4114179999999976
20
-62.7925970000000007
11
57.4439339999999987
21
-62.7439339999999959
0
LINE
8
BLACK
6
CONTINUOUS
10
57.4439339999999987
20
-62.7439339999999959
11
57.4925969999999964
21
-62.7114179999999948
0
LINE
8
BLACK
6
CONTINUOUS
10
57.4925969999999964
20
-62.7114179999999948
11
57.5499999999999972
21
-62.6999999999999957
0
LINE
8
BLACK
6
CONTINUOUS
10
57.5499999999999972
20
-62.6999999999999957
11
57.8499999999999943
21
-62.6999999999999957
0
LINE
8
BLACK
6
CONTINUOUS
10
57.8499999999999943
20
-62.6999999999999957
11
57.9074029999999951
21
-62.7114179999999948
0
LINE
8
BLACK
6
CONTINUOUS
10
52.4574029999999993
20
-62.6489179999999948
11
52.506065999999997
21
-62.6814339999999959
0
LINE
8
BLACK
6
CONTINUOUS
10
52.506065999999997
20
-62.6814339999999959
11
52.5385819999999981
21
-62.7300970000000007
0
LINE
8
BLACK
6
CONTINUOUS
10
52.5385819999999981
20
-62.7300970000000007
11
52.5499999999999972
21
-62.7874999999999943
0
LINE
8
BLACK
6
CONTINUOUS
10
52.5499999999999972
20
-62.7874999999999943
11
52.5499999999999972
21
-63.9624999999999986
0
LINE
8
BLACK
6
CONTINUOUS
10
52.5499999999999972
20
-63.9624999999999986
11
52.5385819999999981
21
-64.0199029999999993
0
LINE
8
BLACK
6
CONTINUOUS
10
52.5385819999999981
20
-64.0199029999999993
11
52.506065999999997
21
-64.0685660000000041
0
LINE
8
BLACK
6
CONTINUOUS
10
52.506065999999997
20
-64.0685660000000041
11
52.4574029999999993
21
-64.101081999999991
0
LINE
8
BLACK
6
CONTINUOUS
10
52.4574029999999993
20
-64.101081999999991
11
52.3999999999999986
21
-64.1124999999999972
0
LINE
8
BLACK
6
CONTINUOUS
10
52.3999999999999986
20
-64.1124999999999972
11
52.0999999999999943
21
-64.1124999999999972
0
LINE
8
BLACK
6
CONTINUOUS
10
52.0999999999999943
20
-64.1124999999999972
11
52.0425970000000007
21
-64.101081999999991
0
LINE
8
BLACK
6
CONTINUOUS
10
52.0425970000000007
20
-64.101081999999991
11
51.9939339999999959
21
-64.0685660000000041
0
LINE
8
BLACK
6
CONTINUOUS
10
51.9939339999999959
20
-64.0685660000000041
11
51.9614179999999948
21
-64.0199029999999993
0
LINE
8
BLACK
6
CONTINUOUS
10
51.9614179999999948
20
-64.0199029999999993
11
51.9499999999999957
21
-63.9624999999999986
0
LINE
8
BLACK
6
CONTINUOUS
10
51.9499999999999957
20
-63.9624999999999986
11
51.9499999999999957
21
-62.7874999999999943
0
LINE
8
BLACK
6
CONTINUOUS
10
51.9499999999999957
20
-62.7874999999999943
11
51.9614179999999948
21
-62.7300970000000007
0
LINE
8
BLACK
6
CONTINUOUS
10
51.9614179999999948
20
-62.7300970000000007
11
51.9939339999999959
21
-62.6814339999999959
0
LINE
8
BLACK
6
CONTINUOUS
10
51.9939339999999959
20
-62.6814339999999959
11
52.0425970000000007
21
-62.6489179999999948
0
LINE
8
BLACK
6
CONTINUOUS
10
52.0425970000000007
20
-62.6489179999999948
11
52.0999999999999943
21
-62.6374999999999957
0
LINE
8
BLACK
6
CONTINUOUS
10
52.0999999999999943
20
-62.6374999999999957
11
52.3999999999999986
21
-62.6374999999999957
0
LINE
8
BLACK
6
CONTINUOUS
10
52.3999999999999986
20
-62.6374999999999957
11
52.4574029999999993
21
-62.6489179999999948
0
LINE
8
BLACK
6
CONTINUOUS
10
54.3574029999999979
20
-62.6489179999999948
11
54.4060659999999956
21
-62.6814339999999959
0
LINE
8
BLACK
6
CONTINUOUS
10
54.4060659999999956
20
-62.6814339999999959
11
54.4385819999999967
21
-62.7300970000000007
0
LINE
8
BLACK
6
CONTINUOUS
10
54.4385819999999967
20
-62.7300970000000007
11
54.4499999999999957
21
-62.7874999999999943
0
LINE
8
BLACK
6
CONTINUOUS
10
54.4499999999999957
20
-62.7874999999999943
11
54.4499999999999957
21
-63.9624999999999986
0
LINE
8
BLACK
6
CONTINUOUS
10
54.4499999999999957
20
-63.9624999999999986
11
54.4385819999999967
21
-64.0199029999999993
0
LINE
8
BLACK
6
CONTINUOUS
10
54.4385819999999967
20
-64.0199029999999993
11
54.4060659999999956
21
-64.0685660000000041
0
LINE
8
BLACK
6
CONTINUOUS
10
54.4060659999999956
20
-64.0685660000000041
11
54.3574029999999979
21
-64.101081999999991
0
LINE
8
BLACK
6
CONTINUOUS
10
54.3574029999999979
20
-64.101081999999991
11
54.2999999999999972
21
-64.1124999999999972
0
LINE
8
BLACK
6
CONTINUOUS
10
54.2999999999999972
20
-64.1124999999999972
11
54.
21
-64.1124999999999972
0
LINE
8
BLACK
6
CONTINUOUS
10
54.
20
-64.1124999999999972
11
53.9425969999999992
21
-64.101081999999991
0
LINE
8
BLACK
6
CONTINUOUS
10
53.9425969999999992
20
-64.101081999999991
11
53.8939339999999945
21
-64.0685660000000041
0
LINE
8
BLACK
6
CONTINUOUS
10
53.8939339999999945
20
-64.0685660000000041
11
53.8614180000000005
21
-64.0199029999999993
0
LINE
8
BLACK
6
CONTINUOUS
10
53.8614180000000005
20
-64.0199029999999993
11
53.8499999999999943
21
-63.9624999999999986
0
LINE
8
BLACK
6
CONTINUOUS
10
53.8499999999999943
20
-63.9624999999999986
11
53.8499999999999943
21
-62.7874999999999943
0
LINE
8
BLACK
6
CONTINUOUS
10
53.8499999999999943
20
-62.7874999999999943
11
53.8614180000000005
21
-62.7300970000000007
0
LINE
8
BLACK
6
CONTINUOUS
10
53.8614180000000005
20
-62.7300970000000007
11
53.8939339999999945
21
-62.6814339999999959
0
LINE
8
BLACK
6
CONTINUOUS
10
53.8939339999999945
20
-62.6814339999999959
11
53.9425969999999992
21
-62.6489179999999948
0
LINE
8
BLACK
6
CONTINUOUS
10
53.9425969999999992
20
-62.6489179999999948
11
54.
21
-62.6374999999999957
0
LINE
8
BLACK
6
CONTINUOUS
10
54.
20
-62.6374999999999957
11
54.2999999999999972
21
-62.6374999999999957
0
LINE
8
BLACK
6
CONTINUOUS
10
54.2999999999999972
20
-62.6374999999999957
11
54.3574029999999979
21
-62.6489179999999948
0
LINE
8
BLACK
6
CONTINUOUS
10
56.9574029999999993
20
-60.8364179999999948
11
57.006065999999997
21
-60.8689339999999959
0
LINE
8
BLACK
6
CONTINUOUS
10
57.006065999999997
20
-60.8689339999999959
11
57.0385819999999981
21
-60.9175970000000007
0
LINE
8
BLACK
6
CONTINUOUS
10
57.0385819999999981
20
-60.9175970000000007
11
57.0499999999999972
21
-60.9749999999999943
0
LINE
8
BLACK
6
CONTINUOUS
10
57.0499999999999972
20
-60.9749999999999943
11
57.0499999999999972
21
-62.1499999999999986
0
LINE
8
BLACK
6
CONTINUOUS
10
57.0499999999999972
20
-62.1499999999999986
11
57.0385819999999981
21
-62.2074029999999993
0
LINE
8
BLACK
6
CONTINUOUS
10
57.0385819999999981
20
-62.2074029999999993
11
57.006065999999997
21
-62.256065999999997
0
LINE
8
BLACK
6
CONTINUOUS
10
57.006065999999997
20
-62.256065999999997
11
56.9574029999999993
21
-62.2885819999999981
0
LINE
8
BLACK
6
CONTINUOUS
10
56.9574029999999993
20
-62.2885819999999981
11
56.8999999999999986
21
-62.2999999999999972
0
LINE
8
BLACK
6
CONTINUOUS
10
56.8999999999999986
20
-62.2999999999999972
11
56.5999999999999943
21
-62.2999999999999972
0
LINE
8
BLACK
6
CONTINUOUS
10
56.5999999999999943
20
-62.2999999999999972
11
56.5425970000000007
21
-62.2885819999999981
0
LINE
8
BLACK
6
CONTINUOUS
10
56.5425970000000007
20
-62.2885819999999981
11
56.4939339999999959
21
-62.256065999999997
0
LINE
8
BLACK
6
CONTINUOUS
10
56.4939339999999959
20
-62.256065999999997
11
56.4614179999999948
21
-62.2074029999999993
0
LINE
8
BLACK
6
CONTINUOUS
10
56.4614179999999948
20
-62.2074029999999993
11
56.4499999999999957
21
-62.1499999999999986
0
LINE
8
BLACK
6
CONTINUOUS
10
56.4499999999999957
20
-62.1499999999999986
11
56.4499999999999957
21
-60.9749999999999943
0
LINE
8
BLACK
6
CONTINUOUS
10
56.4499999999999957
20
-60.9749999999999943
11
56.4614179999999948
21
-60.9175970000000007
0
LINE
8
BLACK
6
CONTINUOUS
10
56.4614179999999948
20
-60.9175970000000007
11
56.4939339999999959
21
-60.8689339999999959
0
LINE
8
BLACK
6
CONTINUOUS
10
56.4939339999999959
20
-60.8689339999999959
11
56.5425970000000007
21
-60.8364179999999948
0
LINE
8
BLACK
6
CONTINUOUS
10
56.5425970000000007
20
-60.8364179999999948
11
56.5999999999999943
21
-60.8249999999999957
0
LINE
8
BLACK
6
CONTINUOUS
10
56.5999999999999943
20
-60.8249999999999957
11
56.8999999999999986
21
-60.8249999999999957
0
LINE
8
BLACK
6
CONTINUOUS
10
56.8999999999999986
20
-60.8249999999999957
11
56.9574029999999993
21
-60.8364179999999948
0
LINE
8
BLACK
6
CONTINUOUS
10
53.4074029999999951
20
-60.7739179999999948
11
53.4560659999999999
21
-60.8064339999999959
0
LINE
8
BLACK
6
CONTINUOUS
10
53.4560659999999999
20
-60.8064339999999959
11
53.488582000000001
21
-60.8550970000000007
0
LINE
8
BLACK
6
CONTINUOUS
10
53.488582000000001
20
-60.8550970000000007
11
53.5
21
-60.9124999999999943
0
LINE
8
BLACK
6
CONTINUOUS
10
53.5
20
-60.9124999999999943
11
53.5
21
-62.0874999999999986
0
LINE
8
BLACK
6
CONTINUOUS
10
53.5
20
-62.0874999999999986
11
53.488582000000001
21
-62.1449029999999993
0
LINE
8
BLACK
6
CONTINUOUS
10
53.488582000000001
20
-62.1449029999999993
11
53.4560659999999999
21
-62.193565999999997
0
LINE
8
BLACK
6
CONTINUOUS
10
53.4560659999999999
20
-62.193565999999997
11
53.4074029999999951
21
-62.2260819999999981
0
LINE
8
BLACK
6
CONTINUOUS
10
53.4074029999999951
20
-62.2260819999999981
11
53.3499999999999943
21
-62.2374999999999972
0
LINE
8
BLACK
6
CONTINUOUS
10
53.3499999999999943
20
-62.2374999999999972
11
53.0499999999999972
21
-62.2374999999999972
0
LINE
8
BLACK
6
CONTINUOUS
10
53.0499999999999972
20
-62.2374999999999972
11
52.9925969999999964
21
-62.2260819999999981
0
LINE
8
BLACK
6
CONTINUOUS
10
52.9925969999999964
20
-62.2260819999999981
11
52.9439339999999987
21
-62.193565999999997
0
LINE
8
BLACK
6
CONTINUOUS
10
52.9439339999999987
20
-62.193565999999997
11
52.9114179999999976
21
-62.1449029999999993
0
LINE
8
BLACK
6
CONTINUOUS
10
52.9114179999999976
20
-62.1449029999999993
11
52.8999999999999986
21
-62.0874999999999986
0
LINE
8
BLACK
6
CONTINUOUS
10
52.8999999999999986
20
-62.0874999999999986
11
52.8999999999999986
21
-60.9124999999999943
0
LINE
8
BLACK
6
CONTINUOUS
10
52.8999999999999986
20
-60.9124999999999943
11
52.9114179999999976
21
-60.8550970000000007
0
LINE
8
BLACK
6
CONTINUOUS
10
52.9114179999999976
20
-60.8550970000000007
11
52.9439339999999987
21
-60.8064339999999959
0
LINE
8
BLACK
6
CONTINUOUS
10
52.9439339999999987
20
-60.8064339999999959
11
52.9925969999999964
21
-60.7739179999999948
0
LINE
8
BLACK
6
CONTINUOUS
10
52.9925969999999964
20
-60.7739179999999948
11
53.0499999999999972
21
-60.7624999999999957
0
LINE
8
BLACK
6
CONTINUOUS
10
53.0499999999999972
20
-60.7624999999999957
11
53.3499999999999943
21
-60.7624999999999957
0
LINE
8
BLACK
6
CONTINUOUS
10
53.3499999999999943
20
-60.7624999999999957
11
53.4074029999999951
21
-60.7739179999999948
0
LINE
8
BLACK
6
CONTINUOUS
10
61.2456709999999944
20
-58.0190300000000008
11
61.3267769999999999
21
-58.0732229999999987
0
LINE
8
BLACK
6
CONTINUOUS
10
61.3267769999999999
20
-58.0732229999999987
11
61.3809699999999978
21
-58.1543289999999971
0
LINE
8
BLACK
6
CONTINUOUS
10
61.3809699999999978
20
-58.1543289999999971
11
61.3999999999999986
21
-58.25
0
LINE
8
BLACK
6
CONTINUOUS
10
61.3999999999999986
20
-58.25
11
61.3999999999999986
21
-60.25
0
LINE
8
BLACK
6
CONTINUOUS
10
61.3999999999999986
20
-60.25
11
61.3809699999999978
21
-60.3456709999999958
0
LINE
8
BLACK
6
CONTINUOUS
10
61.3809699999999978
20
-60.3456709999999958
11
61.3267769999999999
21
-60.4267769999999942
0
LINE
8
BLACK
6
CONTINUOUS
10
61.3267769999999999
20
-60.4267769999999942
11
61.2456709999999944
21
-60.4809699999999992
0
LINE
8
BLACK
6
CONTINUOUS
10
61.2456709999999944
20
-60.4809699999999992
11
61.1499999999999986
21
-60.5
0
LINE
8
BLACK
6
CONTINUOUS
10
61.1499999999999986
20
-60.5
11
59.8499999999999943
21
-60.5
0
LINE
8
BLACK
6
CONTINUOUS
10
59.8499999999999943
20
-60.5
11
59.7543289999999985
21
-60.4809699999999992
0
LINE
8
BLACK
6
CONTINUOUS
10
59.7543289999999985
20
-60.4809699999999992
11
59.6732230000000001
21
-60.4267769999999942
0
LINE
8
BLACK
6
CONTINUOUS
10
59.6732230000000001
20
-60.4267769999999942
11
59.6190299999999951
21
-60.3456709999999958
0
LINE
8
BLACK
6
CONTINUOUS
10
59.6190299999999951
20
-60.3456709999999958
11
59.5999999999999943
21
-60.25
0
LINE
8
BLACK
6
CONTINUOUS
10
59.5999999999999943
20
-60.25
11
59.5999999999999943
21
-58.25
0
LINE
8
BLACK
6
CONTINUOUS
10
59.5999999999999943
20
-58.25
11
59.6190299999999951
21
-58.1543289999999971
0
LINE
8
BLACK
6
CONTINUOUS
10
59.6190299999999951
20
-58.1543289999999971
11
59.6732230000000001
21
-58.0732229999999987
0
LINE
8
BLACK
6
CONTINUOUS
10
59.6732230000000001
20
-58.0732229999999987
11
59.7543289999999985
21
-58.0190300000000008
0
LINE
8
BLACK
6
CONTINUOUS
10
59.7543289999999985
20
-58.0190300000000008
11
59.8499999999999943
21
-58.
0
LINE
8
BLACK
6
CONTINUOUS
10
59.8499999999999943
20
-58.
11
61.1499999999999986
21
-58.
0
LINE
8
BLACK
6
CONTINUOUS
10
61.1499999999999986
20
-58.
11
61.2456709999999944
21
-58.0190300000000008
0
LINE
8
BLACK
6
CONTINUOUS
10
61.2456709999999944
20
-54.0190300000000008
11
61.3267769999999999
21
-54.0732229999999987
0
LINE
8
BLACK
6
CONTINUOUS
10
61.3267769999999999
20
-54.0732229999999987
11
61.3809699999999978
21
-54.1543289999999971
0
LINE
8
BLACK
6
CONTINUOUS
10
61.3809699999999978
20
-54.1543289999999971
11
61.3999999999999986
21
-54.25
0
LINE
8
BLACK
6
CONTINUOUS
10
61.3999999999999986
20
-54.25
11
61.3999999999999986
21
-56.25
0
LINE
8
BLACK
6
CONTINUOUS
10
61.3999999999999986
20
-56.25
11
61.3809699999999978
21
-56.3456709999999958
0
LINE
8
BLACK
6
CONTINUOUS
10
61.3809699999999978
20
-56.3456709999999958
11
61.3267769999999999
21
-56.4267769999999942
0
LINE
8
BLACK
6
CONTINUOUS
10
61.3267769999999999
20
-56.4267769999999942
11
61.2456709999999944
21
-56.4809699999999992
0
LINE
8
BLACK
6
CONTINUOUS
10
61.2456709999999944
20
-56.4809699999999992
11
61.1499999999999986
21
-56.5
0
LINE
8
BLACK
6
CONTINUOUS
10
61.1499999999999986
20
-56.5
11
59.8499999999999943
21
-56.5
0
LINE
8
BLACK
6
CONTINUOUS
10
59.8499999999999943
20
-56.5
11
59.7543289999999985
21
-56.4809699999999992
0
LINE
8
BLACK
6
CONTINUOUS
10
59.7543289999999985
20
-56.4809699999999992
11
59.6732230000000001
21
-56.4267769999999942
0
LINE
8
BLACK
6
CONTINUOUS
10
59.6732230000000001
20
-56.4267769999999942
11
59.6190299999999951
21
-56.3456709999999958
0
LINE
8
BLACK
6
CONTINUOUS
10
59.6190299999999951
20
-56.3456709999999958
11
59.5999999999999943
21
-56.25
0
LINE
8
BLACK
6
CONTINUOUS
10
59.5999999999999943
20
-56.25
11
59.5999999999999943
21
-54.25
0
LINE
8
BLACK
6
CONTINUOUS
10
59.5999999999999943
20
-54.25
11
59.6190299999999951
21
-54.1543289999999971
0
LINE
8
BLACK
6
CONTINUOUS
10
59.6190299999999951
20
-54.1543289999999971
11
59.6732230000000001
21
-54.0732229999999987
0
LINE
8
BLACK
6
CONTINUOUS
10
59.6732230000000001
20
-54.0732229999999987
11
59.7543289999999985
21
-54.0190300000000008
0
LINE
8
BLACK
6
CONTINUOUS
10
59.7543289999999985
20
-54.0190300000000008
11
59.8499999999999943
21
-54.
0
LINE
8
BLACK
6
CONTINUOUS
10
59.8499999999999943
20
-54.
11
61.1499999999999986
21
-54.
0
LINE
8
BLACK
6
CONTINUOUS
10
61.1499999999999986
20
-54.
11
61.2456709999999944
21
-54.0190300000000008
0
LINE
8
BLACK
6
CONTINUOUS
10
16.1260759999999976
20
-44.9706569999999957
11
16.1714950000000002
21
-45.0010049999999993
0
LINE
8
BLACK
6
CONTINUOUS
10
16.1714950000000002
20
-45.0010049999999993
11
16.2018430000000002
21
-45.0464239999999947
0
LINE
8
BLACK
6
CONTINUOUS
10
16.2018430000000002
20
-45.0464239999999947
11
16.2124999999999986
21
-45.1000000000000014
0
LINE
8
BLACK
6
CONTINUOUS
10
16.2124999999999986
20
-45.1000000000000014
11
16.2124999999999986
21
-45.4399999999999977
0
LINE
8
BLACK
6
CONTINUOUS
10
16.2124999999999986
20
-45.4399999999999977
11
16.2018430000000002
21
-45.4935759999999974
0
LINE
8
BLACK
6
CONTINUOUS
10
16.2018430000000002
20
-45.4935759999999974
11
16.1714950000000002
21
-45.5389949999999999
0
LINE
8
BLACK
6
CONTINUOUS
10
16.1714950000000002
20
-45.5389949999999999
11
16.1260759999999976
21
-45.5693429999999964
0
LINE
8
BLACK
6
CONTINUOUS
10
16.1260759999999976
20
-45.5693429999999964
11
16.072499999999998
21
-45.5799999999999983
0
LINE
8
BLACK
6
CONTINUOUS
10
16.072499999999998
20
-45.5799999999999983
11
15.7924999999999986
21
-45.5799999999999983
0
LINE
8
BLACK
6
CONTINUOUS
10
15.7924999999999986
20
-45.5799999999999983
11
15.738923999999999
21
-45.5693429999999964
0
LINE
8
BLACK
6
CONTINUOUS
10
15.738923999999999
20
-45.5693429999999964
11
15.693505
21
-45.5389949999999999
0
LINE
8
BLACK
6
CONTINUOUS
10
15.693505
20
-45.5389949999999999
11
15.663157
21
-45.4935759999999974
0
LINE
8
BLACK
6
CONTINUOUS
10
15.663157
20
-45.4935759999999974
11
15.6524999999999999
21
-45.4399999999999977
0
LINE
8
BLACK
6
CONTINUOUS
10
15.6524999999999999
20
-45.4399999999999977
11
15.6524999999999999
21
-45.1000000000000014
0
LINE
8
BLACK
6
CONTINUOUS
10
15.6524999999999999
20
-45.1000000000000014
11
15.663157
21
-45.0464239999999947
0
LINE
8
BLACK
6
CONTINUOUS
10
15.663157
20
-45.0464239999999947
11
15.693505
21
-45.0010049999999993
0
LINE
8
BLACK
6
CONTINUOUS
10
15.693505
20
-45.0010049999999993
11
15.738923999999999
21
-44.9706569999999957
0
LINE
8
BLACK
6
CONTINUOUS
10
15.738923999999999
20
-44.9706569999999957
11
15.7924999999999986
21
-44.9600000000000009
0
LINE
8
BLACK
6
CONTINUOUS
10
15.7924999999999986
20
-44.9600000000000009
11
16.072499999999998
21
-44.9600000000000009
0
LINE
8
BLACK
6
CONTINUOUS
10
16.072499999999998
20
-44.9600000000000009
11
16.1260759999999976
21
-44.9706569999999957
0
LINE
8
BLACK
6
CONTINUOUS
10
17.0860759999999985
20
-44.9706569999999957
11
17.1314949999999975
21
-45.0010049999999993
0
LINE
8
BLACK
6
CONTINUOUS
10
17.1314949999999975
20
-45.0010049999999993
11
17.1618429999999975
21
-45.0464239999999947
0
LINE
8
BLACK
6
CONTINUOUS
10
17.1618429999999975
20
-45.0464239999999947
11
17.1724999999999994
21
-45.1000000000000014
0
LINE
8
BLACK
6
CONTINUOUS
10
17.1724999999999994
20
-45.1000000000000014
11
17.1724999999999994
21
-45.4399999999999977
0
LINE
8
BLACK
6
CONTINUOUS
10
17.1724999999999994
20
-45.4399999999999977
11
17.1618429999999975
21
-45.4935759999999974
0
LINE
8
BLACK
6
CONTINUOUS
10
17.1618429999999975
20
-45.4935759999999974
11
17.1314949999999975
21
-45.5389949999999999
0
LINE
8
BLACK
6
CONTINUOUS
10
17.1314949999999975
20
-45.5389949999999999
11
17.0860759999999985
21
-45.5693429999999964
0
LINE
8
BLACK
6
CONTINUOUS
10
17.0860759999999985
20
-45.5693429999999964
11
17.0324999999999989
21
-45.5799999999999983
0
LINE
8
BLACK
6
CONTINUOUS
10
17.0324999999999989
20
-45.5799999999999983
11
16.7524999999999977
21
-45.5799999999999983
0
LINE
8
BLACK
6
CONTINUOUS
10
16.7524999999999977
20
-45.5799999999999983
11
16.6989239999999981
21
-45.5693429999999964
0
LINE
8
BLACK
6
CONTINUOUS
10
16.6989239999999981
20
-45.5693429999999964
11
16.6535049999999991
21
-45.5389949999999999
0
LINE
8
BLACK
6
CONTINUOUS
10
16.6535049999999991
20
-45.5389949999999999
11
16.6231569999999991
21
-45.4935759999999974
0
LINE
8
BLACK
6
CONTINUOUS
10
16.6231569999999991
20
-45.4935759999999974
11
16.6125000000000007
21
-45.4399999999999977
0
LINE
8
BLACK
6
CONTINUOUS
10
16.6125000000000007
20
-45.4399999999999977
11
16.6125000000000007
21
-45.1000000000000014
0
LINE
8
BLACK
6
CONTINUOUS
10
16.6125000000000007
20
-45.1000000000000014
11
16.6231569999999991
21
-45.0464239999999947
0
LINE
8
BLACK
6
CONTINUOUS
10
16.6231569999999991
20
-45.0464239999999947
11
16.6535049999999991
21
-45.0010049999999993
0
LINE
8
BLACK
6
CONTINUOUS
10
16.6535049999999991
20
-45.0010049999999993
11
16.6989239999999981
21
-44.9706569999999957
0
LINE
8
BLACK
6
CONTINUOUS
10
16.6989239999999981
20
-44.9706569999999957
11
16.7524999999999977
21
-44.9600000000000009
0
LINE
8
BLACK
6
CONTINUOUS
10
16.7524999999999977
20
-44.9600000000000009
11
17.0324999999999989
21
-44.9600000000000009
0
LINE
8
BLACK
6
CONTINUOUS
10
17.0324999999999989
20
-44.9600000000000009
11
17.0860759999999985
21
-44.9706569999999957
0
LINE
8
BLACK
6
CONTINUOUS
10
22.4635759999999998
20
-34.4506569999999996
11
22.5089949999999988
21
-34.4810049999999961
0
LINE
8
BLACK
6
CONTINUOUS
10
22.5089949999999988
20
-34.4810049999999961
11
22.5393429999999988
21
-34.5264239999999987
0
LINE
8
BLACK
6
CONTINUOUS
10
22.5393429999999988
20
-34.5264239999999987
11
22.5500000000000007
21
-34.5799999999999983
0
LINE
8
BLACK
6
CONTINUOUS
10
22.5500000000000007
20
-34.5799999999999983
11
22.5500000000000007
21
-34.9200000000000017
0
LINE
8
BLACK
6
CONTINUOUS
10
22.5500000000000007
20
-34.9200000000000017
11
22.5393429999999988
21
-34.9735760000000013
0
LINE
8
BLACK
6
CONTINUOUS
10
22.5393429999999988
20
-34.9735760000000013
11
22.5089949999999988
21
-35.0189949999999968
0
LINE
8
BLACK
6
CONTINUOUS
10
22.5089949999999988
20
-35.0189949999999968
11
22.4635759999999998
21
-35.0493430000000004
0
LINE
8
BLACK
6
CONTINUOUS
10
22.4635759999999998
20
-35.0493430000000004
11
22.4100000000000001
21
-35.0599999999999952
0
LINE
8
BLACK
6
CONTINUOUS
10
22.4100000000000001
20
-35.0599999999999952
11
22.129999999999999
21
-35.0599999999999952
0
LINE
8
BLACK
6
CONTINUOUS
10
22.129999999999999
20
-35.0599999999999952
11
22.0764239999999994
21
-35.0493430000000004
0
LINE
8
BLACK
6
CONTINUOUS
10
22.0764239999999994
20
-35.0493430000000004
11
22.0310050000000004
21
-35.0189949999999968
0
LINE
8
BLACK
6
CONTINUOUS
10
22.0310050000000004
20
-35.0189949999999968
11
22.0006570000000004
21
-34.9735760000000013
0
LINE
8
BLACK
6
CONTINUOUS
10
22.0006570000000004
20
-34.9735760000000013
11
21.9899999999999984
21
-34.9200000000000017
0
LINE
8
BLACK
6
CONTINUOUS
10
21.9899999999999984
20
-34.9200000000000017
11
21.9899999999999984
21
-34.5799999999999983
0
LINE
8
BLACK
6
CONTINUOUS
10
21.9899999999999984
20
-34.5799999999999983
11
22.0006570000000004
21
-34.5264239999999987
0
LINE
8
BLACK
6
CONTINUOUS
10
22.0006570000000004
20
-34.5264239999999987
11
22.0310050000000004
21
-34.4810049999999961
0
LINE
8
BLACK
6
CONTINUOUS
10
22.0310050000000004
20
-34.4810049999999961
11
22.0764239999999994
21
-34.4506569999999996
0
LINE
8
BLACK
6
CONTINUOUS
10
22.0764239999999994
20
-34.4506569999999996
11
22.129999999999999
21
-34.4399999999999977
0
LINE
8
BLACK
6
CONTINUOUS
10
22.129999999999999
20
-34.4399999999999977
11
22.4100000000000001
21
-34.4399999999999977
0
LINE
8
BLACK
6
CONTINUOUS
10
22.4100000000000001
20
-34.4399999999999977
11
22.4635759999999998
21
-34.4506569999999996
0
LINE
8
BLACK
6
CONTINUOUS
10
23.4235760000000006
20
-34.4506569999999996
11
23.4689949999999996
21
-34.4810049999999961
0
LINE
8
BLACK
6
CONTINUOUS
10
23.4689949999999996
20
-34.4810049999999961
11
23.4993429999999996
21
-34.5264239999999987
0
LINE
8
BLACK
6
CONTINUOUS
10
23.4993429999999996
20
-34.5264239999999987
11
23.509999999999998
21
-34.5799999999999983
0
LINE
8
BLACK
6
CONTINUOUS
10
23.509999999999998
20
-34.5799999999999983
11
23.509999999999998
21
-34.9200000000000017
0
LINE
8
BLACK
6
CONTINUOUS
10
23.509999999999998
20
-34.9200000000000017
11
23.4993429999999996
21
-34.9735760000000013
0
LINE
8
BLACK
6
CONTINUOUS
10
23.4993429999999996
20
-34.9735760000000013
11
23.4689949999999996
21
-35.0189949999999968
0
LINE
8
BLACK
6
CONTINUOUS
10
23.4689949999999996
20
-35.0189949999999968
11
23.4235760000000006
21
-35.0493430000000004
0
LINE
8
BLACK
6
CONTINUOUS
10
23.4235760000000006
20
-35.0493430000000004
11
23.3699999999999974
21
-35.0599999999999952
0
LINE
8
BLACK
6
CONTINUOUS
10
23.3699999999999974
20
-35.0599999999999952
11
23.0899999999999999
21
-35.0599999999999952
0
LINE
8
BLACK
6
CONTINUOUS
10
23.0899999999999999
20
-35.0599999999999952
11
23.0364240000000002
21
-35.0493430000000004
0
LINE
8
BLACK
6
CONTINUOUS
10
23.0364240000000002
20
-35.0493430000000004
11
22.9910049999999977
21
-35.0189949999999968
0
LINE
8
BLACK
6
CONTINUOUS
10
22.9910049999999977
20
-35.0189949999999968
11
22.9606569999999977
21
-34.9735760000000013
0
LINE
8
BLACK
6
CONTINUOUS
10
22.9606569999999977
20
-34.9735760000000013
11
22.9499999999999993
21
-34.9200000000000017
0
LINE
8
BLACK
6
CONTINUOUS
10
22.9499999999999993
20
-34.9200000000000017
11
22.9499999999999993
21
-34.5799999999999983
0
LINE
8
BLACK
6
CONTINUOUS
10
22.9499999999999993
20
-34.5799999999999983
11
22.9606569999999977
21
-34.5264239999999987
0
LINE
8
BLACK
6
CONTINUOUS
10
22.9606569999999977
20
-34.5264239999999987
11
22.9910049999999977
21
-34.4810049999999961
0
LINE
8
BLACK
6
CONTINUOUS
10
22.9910049999999977
20
-34.4810049999999961
11
23.0364240000000002
21
-34.4506569999999996
0
LINE
8
BLACK
6
CONTINUOUS
10
23.0364240000000002
20
-34.4506569999999996
11
23.0899999999999999
21
-34.4399999999999977
0
LINE
8
BLACK
6
CONTINUOUS
10
23.0899999999999999
20
-34.4399999999999977
11
23.3699999999999974
21
-34.4399999999999977
0
LINE
8
BLACK
6
CONTINUOUS
10
23.3699999999999974
20
-34.4399999999999977
11
23.4235760000000006
21
-34.4506569999999996
  0
ENDSEC
  0
EOF
