<?xml version="1.0" standalone="no"?>
 <!DOCTYPE svg PUBLIC "-//W3C//DTD SVG 1.1//EN" 
 "http://www.w3.org/Graphics/SVG/1.1/DTD/svg11.dtd"> 
<svg
  xmlns:svg="http://www.w3.org/2000/svg"
  xmlns="http://www.w3.org/2000/svg"
  xmlns:xlink="http://www.w3.org/1999/xlink"
  version="1.1"
  width="419.9890mm" height="297.0022mm" viewBox="0.0000 0.0000 419.9890 297.0022">
<title>SVG Image created as ECAD_main-User_Drawings0.svg date 2025/10/27 20:25:24 </title>
  <desc>Image generated by PCBNEW </desc>
<g style="fill:#000000; fill-opacity:1.0000;stroke:#000000; stroke-opacity:1.0000;
stroke-linecap:round; stroke-linejoin:round;"
 transform="translate(0 0) scale(1 1)">
</g>
<g style="fill:none; 
stroke:#000000; stroke-width:0.1750; stroke-opacity:1; 
stroke-linecap:round; stroke-linejoin:round;">
<path d="M31.3750 68.5350
L33.1250 68.5350
" />
<path d="M32.2500 67.6600
L32.2500 69.4100
" />
<path d="M33.1250 67.6600
L31.3750 69.4100
" />
<path d="M31.3750 67.6600
L33.1250 69.4100
" />
<path d="M31.3750 63.4550
L33.1250 63.4550
" />
<path d="M32.2500 62.5800
L32.2500 64.3300
" />
<path d="M33.1250 62.5800
L31.3750 64.3300
" />
<path d="M31.3750 62.5800
L33.1250 64.3300
" />
</g>
<g style="fill:none; 
stroke:#000000; stroke-width:0.1600; stroke-opacity:1; 
stroke-linecap:round; stroke-linejoin:round;">
<circle cx="51.0000" cy="31.0000" r="0.8000" /> 
<path d="M51.8000 30.2000
L50.2000 31.8000
" />
<path d="M50.2000 30.2000
L51.8000 31.8000
" />
</g>
<g style="fill:none; 
stroke:#000000; stroke-width:0.1000; stroke-opacity:1; 
stroke-linecap:round; stroke-linejoin:round;">
<path d="M27.2000 62.2400 A0.7500 0.7500 0.0 0 0 25.7000 62.2400" />
<path d="M27.2000 64.7600
L27.2000 62.2400
" />
<path d="M25.7000 64.7600 A0.7500 0.7500 0.0 0 0 27.2000 64.7600" />
<path d="M25.7000 62.2400
L25.7000 64.7600
" />
<path style="fill:none; 
stroke:#000000; stroke-width:0.1500; stroke-opacity:1; 
stroke-linecap:round; stroke-linejoin:round;fill:none"
d="M 27.2000,63.5000
26.4500,64.2500
25.7000,63.5000
26.4500,62.7500
Z" /> 
</g>
<g style="fill:none; 
stroke:#000000; stroke-width:0.1000; stroke-opacity:1; 
stroke-linecap:round; stroke-linejoin:round;">
<path d="M21.0000 62.2400 A0.7500 0.7500 0.0 0 0 19.5000 62.2400" />
<path d="M21.0000 64.7600
L21.0000 62.2400
" />
<path d="M19.5000 64.7600 A0.7500 0.7500 0.0 0 0 21.0000 64.7600" />
<path d="M19.5000 62.2400
L19.5000 64.7600
" />
<path style="fill:none; 
stroke:#000000; stroke-width:0.1500; stroke-opacity:1; 
stroke-linecap:round; stroke-linejoin:round;fill:none"
d="M 21.0000,63.5000
20.2500,64.2500
19.5000,63.5000
20.2500,62.7500
Z" /> 
<path style="fill:none; 
stroke:#000000; stroke-width:0.1500; stroke-opacity:1; 
stroke-linecap:round; stroke-linejoin:round;fill:none"
d="M 62.0500,66.5000
61.3000,67.2500
60.5500,66.5000
61.3000,65.7500
Z" /> 
<path style="fill:none; 
stroke:#000000; stroke-width:0.1500; stroke-opacity:1; 
stroke-linecap:round; stroke-linejoin:round;fill:none"
d="M 39.4500,66.5000
38.7000,67.2500
37.9500,66.5000
38.7000,65.7500
Z" /> 
<path style="fill:none; 
stroke:#000000; stroke-width:0.1100; stroke-opacity:1; 
stroke-linecap:round; stroke-linejoin:round;fill:none"
d="M 18.2736,44.8611
19.0514,44.8611
19.0514,45.6389
18.2736,45.6389
Z" /> 
<path style="fill:none; 
stroke:#000000; stroke-width:0.1100; stroke-opacity:1; 
stroke-linecap:round; stroke-linejoin:round;fill:none"
d="M 18.2736,38.3611
19.0514,38.3611
19.0514,39.1389
18.2736,39.1389
Z" /> 
<path style="fill:none; 
stroke:#000000; stroke-width:0.1100; stroke-opacity:1; 
stroke-linecap:round; stroke-linejoin:round;fill:none"
d="M 13.7736,44.8611
14.5514,44.8611
14.5514,45.6389
13.7736,45.6389
Z" /> 
<path style="fill:none; 
stroke:#000000; stroke-width:0.1100; stroke-opacity:1; 
stroke-linecap:round; stroke-linejoin:round;fill:none"
d="M 13.7736,38.3611
14.5514,38.3611
14.5514,39.1389
13.7736,39.1389
Z" /> 
</g>
<g style="fill:none; 
stroke:#000000; stroke-width:0.1000; stroke-opacity:1; 
stroke-linecap:round; stroke-linejoin:round;">
<path d="M38.8975 26.0875
L39.8975 26.0875
" />
<path d="M39.3975 25.5875
L39.3975 26.5875
" />
<path d="M36.3575 26.0875
L37.3575 26.0875
" />
<path d="M36.8575 25.5875
L36.8575 26.5875
" />
<path d="M33.8175 26.0875
L34.8175 26.0875
" />
<path d="M34.3175 25.5875
L34.3175 26.5875
" />
<path d="M31.2775 26.0875
L32.2775 26.0875
" />
<path d="M31.7775 25.5875
L31.7775 26.5875
" />
<circle cx="63.2500" cy="59.0000" r="0.4000" /> 
<circle cx="63.2500" cy="55.5000" r="0.4000" /> 
<path d="M37.6500 31.6000
L37.3500 31.9000
" />
<path d="M37.3500 31.6000
L37.6500 31.9000
" />
<path d="M36.6500 30.6000
L36.3500 30.9000
" />
<path d="M36.3500 30.6000
L36.6500 30.9000
" />
<path d="M35.4000 30.6000
L35.1000 30.9000
" />
<path d="M35.1000 30.6000
L35.4000 30.9000
" />
<path d="M33.4000 43.1000
L33.1000 43.4000
" />
<path d="M33.1000 43.1000
L33.4000 43.4000
" />
<path d="M33.1500 44.8500
L32.8500 45.1500
" />
<path d="M32.8500 44.8500
L33.1500 45.1500
" />
<path d="M32.9000 39.6000
L32.6000 39.9000
" />
<path d="M32.6000 39.6000
L32.9000 39.9000
" />
<path d="M29.4000 39.6000
L29.1000 39.9000
" />
<path d="M29.1000 39.6000
L29.4000 39.9000
" />
<path d="M29.4000 25.1000
L29.1000 25.4000
" />
<path d="M29.1000 25.1000
L29.4000 25.4000
" />
<path d="M27.9000 23.6000
L27.6000 23.9000
" />
<path d="M27.6000 23.6000
L27.9000 23.9000
" />
<path d="M27.6500 41.6000
L27.3500 41.9000
" />
<path d="M27.3500 41.6000
L27.6500 41.9000
" />
<path d="M26.9000 51.8500
L26.6000 52.1500
" />
<path d="M26.6000 51.8500
L26.9000 52.1500
" />
<path d="M26.4000 26.1000
L26.1000 26.4000
" />
<path d="M26.1000 26.1000
L26.4000 26.4000
" />
<path d="M26.4000 24.6000
L26.1000 24.9000
" />
<path d="M26.1000 24.6000
L26.4000 24.9000
" />
<path d="M24.9000 53.3500
L24.6000 53.6500
" />
<path d="M24.6000 53.3500
L24.9000 53.6500
" />
<path d="M24.1500 27.8500
L23.8500 28.1500
" />
<path d="M23.8500 27.8500
L24.1500 28.1500
" />
<path d="M23.6500 29.6000
L23.3500 29.9000
" />
<path d="M23.3500 29.6000
L23.6500 29.9000
" />
<path d="M22.6500 51.6000
L22.3500 51.9000
" />
<path d="M22.3500 51.6000
L22.6500 51.9000
" />
<path d="M22.4000 31.6000
L22.1000 31.9000
" />
<path d="M22.1000 31.6000
L22.4000 31.9000
" />
<path d="M22.1993 35.6493
L21.8993 35.9493
" />
<path d="M21.8993 35.6493
L22.1993 35.9493
" />
<path d="M21.9000 28.3500
L21.6000 28.6500
" />
<path d="M21.6000 28.3500
L21.9000 28.6500
" />
<path d="M17.9000 28.3500
L17.6000 28.6500
" />
<path d="M17.6000 28.3500
L17.9000 28.6500
" />
<path d="M16.9000 36.1000
L16.6000 36.4000
" />
<path d="M16.6000 36.1000
L16.9000 36.4000
" />
<path d="M16.9000 30.3500
L16.6000 30.6500
" />
<path d="M16.6000 30.3500
L16.9000 30.6500
" />
<path d="M41.7500 51.3500
L48.7500 51.3500
" />
<path d="M41.7500 58.8500
L41.7500 51.3500
" />
<path d="M48.7500 51.3500
L49.6500 52.2500
" />
<path d="M48.7500 58.8500
L41.7500 58.8500
" />
<path d="M48.7500 58.8500
L49.6500 57.9500
" />
<path d="M49.6500 52.2500
L49.6500 57.9500
" />
</g> 
</svg>
