<?xml version='1.0' encoding='ASCII' standalone='yes'?>
<svg xmlns="http://www.w3.org/2000/svg" version="1.1" width="419.9890mm" height="297.0022mm" viewBox="0.0000 0.0000 419.9890 297.0022">
            <title>Picture generated by PcbDraw </title>
            <desc>Picture generated by PcbDraw</desc>
        <defs><clipPath id="cut-off"><path d="M12.5000 72.5000 L12.5000 23.0000 M 68.0 23.0 L 68.0 72.5 L 12.5 72.5 L 12.5 23.0 L 68.0 23.0 " style="fill-rule: evenodd;"/></clipPath><mask id="pads-mask-silkscreen"><rect x="12.475" y="22.975" width="55.55" height="49.55" fill="white"/><g style="fill:#000000; fill-opacity:1.0000; stroke:none;">
<circle cx="14.1625" cy="45.2500" r="1.0000"/> 
</g>
<g style="fill:#000000; fill-opacity:1.0000; stroke:none;">
<circle cx="14.1625" cy="38.7500" r="1.0000"/> 
</g>
<g style="fill:#000000; fill-opacity:1.0000; stroke:none;">
<circle cx="18.6625" cy="45.2500" r="1.0000"/> 
</g>
<g style="fill:#000000; fill-opacity:1.0000; stroke:none;">
<circle cx="18.6625" cy="38.7500" r="1.0000"/> 
<path style="fill:#000000; fill-opacity:1.0000; stroke:none;fill-rule:evenodd;" d="M 62.7000,59.8000 62.6043,59.7810 62.5232,59.7268 62.4690,59.6457 62.4500,59.5500 62.4500,58.4500 62.4690,58.3543 62.5232,58.2732 62.6043,58.2190 62.7000,58.2000 63.8000,58.2000 63.8957,58.2190 63.9768,58.2732 64.0310,58.3543 64.0500,58.4500 64.0500,59.5500 64.0310,59.6457 63.9768,59.7268 63.8957,59.7810 63.8000,59.8000 Z"/> 
</g>
<g style="fill:#000000; fill-opacity:1.0000; stroke:none;">
<circle cx="63.2500" cy="55.5000" r="0.8000"/> 
</g>
<g style="fill:#000000; fill-opacity:1.0000; stroke:none;">
<circle cx="38.7000" cy="66.5000" r="1.5000"/> 
</g>
<g style="fill:#000000; fill-opacity:1.0000; stroke:none;">
<circle cx="61.3000" cy="66.5000" r="1.5000"/> 
</g>
<g style="fill:#000000; fill-opacity:1.0000; stroke:none;">
<circle cx="51.0000" cy="31.0000" r="1.5000"/> 
<path style="fill:#000000; fill-opacity:1.0000; stroke:none;fill-rule:evenodd;" d="M 30.8500,64.8550 30.8500,62.0550 33.6500,62.0550 33.6500,64.8550 Z"/> 
</g>
<g style="fill:#000000; fill-opacity:1.0000; stroke:none;">
<circle cx="32.2500" cy="68.5350" r="1.4000"/> 
<path style="fill:#000000; fill-opacity:1.0000; stroke:none;fill-rule:evenodd;" d="M 24.9400,66.5100 24.9400,60.4900 27.9600,60.4900 27.9600,66.5100 Z"/> 
</g>
<g style="fill:none;  stroke:#000000; stroke-width:3.0200; stroke-opacity:1;  stroke-linecap:round; stroke-linejoin:round;">
<path d="M20.2500 62.0000 L20.2500 65.0000 "/>
<path style="fill:#000000; fill-opacity:1.0000; stroke:none;fill-rule:evenodd;" d="M 38.5475,25.2375 40.2475,25.2375 40.2475,26.9375 38.5475,26.9375 Z"/> 
</g>
<g style="fill:#000000; fill-opacity:1.0000; stroke:none;">
<circle cx="36.8575" cy="26.0875" r="0.8500"/> 
</g>
<g style="fill:#000000; fill-opacity:1.0000; stroke:none;">
<circle cx="34.3175" cy="26.0875" r="0.8500"/> 
</g>
<g style="fill:#000000; fill-opacity:1.0000; stroke:none;">
<circle cx="31.7775" cy="26.0875" r="0.8500"/> 
<path style="fill:#000000; fill-opacity:1.0000; stroke:none;fill-rule:evenodd;" d="M 46.9875,67.1000 47.0784,67.1181 47.1554,67.1696 47.2069,67.2466 47.2250,67.3375 47.2250,67.9375 47.2069,68.0284 47.1554,68.1054 47.0784,68.1569 46.9875,68.1750 46.5125,68.1750 46.4216,68.1569 46.3446,68.1054 46.2931,68.0284 46.2750,67.9375 46.2750,67.3375 46.2931,67.2466 46.3446,67.1696 46.4216,67.1181 46.5125,67.1000 Z"/> 
<path style="fill:#000000; fill-opacity:1.0000; stroke:none;fill-rule:evenodd;" d="M 46.9875,68.8250 47.0784,68.8431 47.1554,68.8946 47.2069,68.9716 47.2250,69.0625 47.2250,69.6625 47.2069,69.7534 47.1554,69.8304 47.0784,69.8819 46.9875,69.9000 46.5125,69.9000 46.4216,69.8819 46.3446,69.8304 46.2931,69.7534 46.2750,69.6625 46.2750,69.0625 46.2931,68.9716 46.3446,68.8946 46.4216,68.8431 46.5125,68.8250 Z"/> 
<path style="fill:#000000; fill-opacity:1.0000; stroke:none;fill-rule:evenodd;" d="M 23.5100,34.9200 23.4993,34.9736 23.4690,35.0190 23.4236,35.0493 23.3700,35.0600 23.0900,35.0600 23.0364,35.0493 22.9910,35.0190 22.9607,34.9736 22.9500,34.9200 22.9500,34.5800 22.9607,34.5264 22.9910,34.4810 23.0364,34.4507 23.0900,34.4400 23.3700,34.4400 23.4236,34.4507 23.4690,34.4810 23.4993,34.5264 23.5100,34.5800 Z"/> 
<path style="fill:#000000; fill-opacity:1.0000; stroke:none;fill-rule:evenodd;" d="M 22.5500,34.9200 22.5393,34.9736 22.5090,35.0190 22.4636,35.0493 22.4100,35.0600 22.1300,35.0600 22.0764,35.0493 22.0310,35.0190 22.0007,34.9736 21.9900,34.9200 21.9900,34.5800 22.0007,34.5264 22.0310,34.4810 22.0764,34.4507 22.1300,34.4400 22.4100,34.4400 22.4636,34.4507 22.5090,34.4810 22.5393,34.5264 22.5500,34.5800 Z"/> 
<path style="fill:#000000; fill-opacity:1.0000; stroke:none;fill-rule:evenodd;" d="M 47.9000,70.4000 47.9190,70.3043 47.9732,70.2232 48.0543,70.1690 48.1500,70.1500 49.8500,70.1500 49.9457,70.1690 50.0268,70.2232 50.0810,70.3043 50.1000,70.4000 50.1000,71.1000 50.0810,71.1957 50.0268,71.2768 49.9457,71.3310 49.8500,71.3500 48.1500,71.3500 48.0543,71.3310 47.9732,71.2768 47.9190,71.1957 47.9000,71.1000 Z"/> 
<path style="fill:#000000; fill-opacity:1.0000; stroke:none;fill-rule:evenodd;" d="M 52.1000,65.8200 52.1190,65.7243 52.1732,65.6432 52.2543,65.5890 52.3500,65.5700 58.2500,65.5700 58.3457,65.5890 58.4268,65.6432 58.4810,65.7243 58.5000,65.8200 58.5000,71.1200 58.4810,71.2157 58.4268,71.2968 58.3457,71.3510 58.2500,71.3700 52.3500,71.3700 52.2543,71.3510 52.1732,71.2968 52.1190,71.2157 52.1000,71.1200 Z"/> 
<path style="fill:#000000; fill-opacity:1.0000; stroke:none;fill-rule:evenodd;" d="M 47.9000,65.8400 47.9190,65.7443 47.9732,65.6632 48.0543,65.6090 48.1500,65.5900 49.8500,65.5900 49.9457,65.6090 50.0268,65.6632 50.0810,65.7443 50.1000,65.8400 50.1000,66.5400 50.0810,66.6357 50.0268,66.7168 49.9457,66.7710 49.8500,66.7900 48.1500,66.7900 48.0543,66.7710 47.9732,66.7168 47.9190,66.6357 47.9000,66.5400 Z"/> 
<path style="fill:#000000; fill-opacity:1.0000; stroke:none;fill-rule:evenodd;" d="M 36.1000,63.6000 36.1957,63.6190 36.2768,63.6732 36.3310,63.7543 36.3500,63.8500 36.3500,64.6500 36.3310,64.7457 36.2768,64.8268 36.1957,64.8810 36.1000,64.9000 34.9000,64.9000 34.8043,64.8810 34.7232,64.8268 34.6690,64.7457 34.6500,64.6500 34.6500,63.8500 34.6690,63.7543 34.7232,63.6732 34.8043,63.6190 34.9000,63.6000 Z"/> 
<path style="fill:#000000; fill-opacity:1.0000; stroke:none;fill-rule:evenodd;" d="M 36.1000,67.1000 36.1957,67.1190 36.2768,67.1732 36.3310,67.2543 36.3500,67.3500 36.3500,68.1500 36.3310,68.2457 36.2768,68.3268 36.1957,68.3810 36.1000,68.4000 34.9000,68.4000 34.8043,68.3810 34.7232,68.3268 34.6690,68.2457 34.6500,68.1500 34.6500,67.3500 34.6690,67.2543 34.7232,67.1732 34.8043,67.1190 34.9000,67.1000 Z"/> 
<path style="fill:#000000; fill-opacity:1.0000; stroke:none;fill-rule:evenodd;" d="M 59.8500,60.5000 59.7543,60.4810 59.6732,60.4268 59.6190,60.3457 59.6000,60.2500 59.6000,58.2500 59.6190,58.1543 59.6732,58.0732 59.7543,58.0190 59.8500,58.0000 61.1500,58.0000 61.2457,58.0190 61.3268,58.0732 61.3810,58.1543 61.4000,58.2500 61.4000,60.2500 61.3810,60.3457 61.3268,60.4268 61.2457,60.4810 61.1500,60.5000 Z"/> 
<path style="fill:#000000; fill-opacity:1.0000; stroke:none;fill-rule:evenodd;" d="M 59.8500,56.5000 59.7543,56.4810 59.6732,56.4268 59.6190,56.3457 59.6000,56.2500 59.6000,54.2500 59.6190,54.1543 59.6732,54.0732 59.7543,54.0190 59.8500,54.0000 61.1500,54.0000 61.2457,54.0190 61.3268,54.0732 61.3810,54.1543 61.4000,54.2500 61.4000,56.2500 61.3810,56.3457 61.3268,56.4268 61.2457,56.4810 61.1500,56.5000 Z"/> 
<path style="fill:#000000; fill-opacity:1.0000; stroke:none;fill-rule:evenodd;" d="M 57.5500,64.1750 57.4926,64.1636 57.4439,64.1311 57.4114,64.0824 57.4000,64.0250 57.4000,62.8500 57.4114,62.7926 57.4439,62.7439 57.4926,62.7114 57.5500,62.7000 57.8500,62.7000 57.9074,62.7114 57.9561,62.7439 57.9886,62.7926 58.0000,62.8500 58.0000,64.0250 57.9886,64.0824 57.9561,64.1311 57.9074,64.1636 57.8500,64.1750 Z"/> 
<path style="fill:#000000; fill-opacity:1.0000; stroke:none;fill-rule:evenodd;" d="M 55.6500,64.1750 55.5926,64.1636 55.5439,64.1311 55.5114,64.0824 55.5000,64.0250 55.5000,62.8500 55.5114,62.7926 55.5439,62.7439 55.5926,62.7114 55.6500,62.7000 55.9500,62.7000 56.0074,62.7114 56.0561,62.7439 56.0886,62.7926 56.1000,62.8500 56.1000,64.0250 56.0886,64.0824 56.0561,64.1311 56.0074,64.1636 55.9500,64.1750 Z"/> 
<path style="fill:#000000; fill-opacity:1.0000; stroke:none;fill-rule:evenodd;" d="M 56.6000,62.3000 56.5426,62.2886 56.4939,62.2561 56.4614,62.2074 56.4500,62.1500 56.4500,60.9750 56.4614,60.9176 56.4939,60.8689 56.5426,60.8364 56.6000,60.8250 56.9000,60.8250 56.9574,60.8364 57.0061,60.8689 57.0386,60.9176 57.0500,60.9750 57.0500,62.1500 57.0386,62.2074 57.0061,62.2561 56.9574,62.2886 56.9000,62.3000 Z"/> 
<path style="fill:#000000; fill-opacity:1.0000; stroke:none;fill-rule:evenodd;" d="M 54.0000,64.1125 53.9426,64.1011 53.8939,64.0686 53.8614,64.0199 53.8500,63.9625 53.8500,62.7875 53.8614,62.7301 53.8939,62.6814 53.9426,62.6489 54.0000,62.6375 54.3000,62.6375 54.3574,62.6489 54.4061,62.6814 54.4386,62.7301 54.4500,62.7875 54.4500,63.9625 54.4386,64.0199 54.4061,64.0686 54.3574,64.1011 54.3000,64.1125 Z"/> 
<path style="fill:#000000; fill-opacity:1.0000; stroke:none;fill-rule:evenodd;" d="M 52.1000,64.1125 52.0426,64.1011 51.9939,64.0686 51.9614,64.0199 51.9500,63.9625 51.9500,62.7875 51.9614,62.7301 51.9939,62.6814 52.0426,62.6489 52.1000,62.6375 52.4000,62.6375 52.4574,62.6489 52.5061,62.6814 52.5386,62.7301 52.5500,62.7875 52.5500,63.9625 52.5386,64.0199 52.5061,64.0686 52.4574,64.1011 52.4000,64.1125 Z"/> 
<path style="fill:#000000; fill-opacity:1.0000; stroke:none;fill-rule:evenodd;" d="M 53.0500,62.2375 52.9926,62.2261 52.9439,62.1936 52.9114,62.1449 52.9000,62.0875 52.9000,60.9125 52.9114,60.8551 52.9439,60.8064 52.9926,60.7739 53.0500,60.7625 53.3500,60.7625 53.4074,60.7739 53.4561,60.8064 53.4886,60.8551 53.5000,60.9125 53.5000,62.0875 53.4886,62.1449 53.4561,62.1936 53.4074,62.2261 53.3500,62.2375 Z"/> 
<path style="fill:#000000; fill-opacity:1.0000; stroke:none;fill-rule:evenodd;" d="M 15.6525,45.1000 15.6632,45.0464 15.6935,45.0010 15.7389,44.9707 15.7925,44.9600 16.0725,44.9600 16.1261,44.9707 16.1715,45.0010 16.2018,45.0464 16.2125,45.1000 16.2125,45.4400 16.2018,45.4936 16.1715,45.5390 16.1261,45.5693 16.0725,45.5800 15.7925,45.5800 15.7389,45.5693 15.6935,45.5390 15.6632,45.4936 15.6525,45.4400 Z"/> 
<path style="fill:#000000; fill-opacity:1.0000; stroke:none;fill-rule:evenodd;" d="M 16.6125,45.1000 16.6232,45.0464 16.6535,45.0010 16.6989,44.9707 16.7525,44.9600 17.0325,44.9600 17.0861,44.9707 17.1315,45.0010 17.1618,45.0464 17.1725,45.1000 17.1725,45.4400 17.1618,45.4936 17.1315,45.5390 17.0861,45.5693 17.0325,45.5800 16.7525,45.5800 16.6989,45.5693 16.6535,45.5390 16.6232,45.4936 16.6125,45.4400 Z"/> 
</g> 
</mask></defs><g transform="scale(-1,1) translate(-419.989,0)" id="boardContainer"><g id="substrate" clip-path="url(#cut-off)" mask="url(#pads-mask-silkscreen)"><g id="substrate-board" style="fill:#143324; fill-opacity:0.25098039215686274; stroke:#143324; stroke-width:0;"><path d="M12.5000 72.5000 L12.5000 23.0000 M 68.0 23.0 L 68.0 72.5 L 12.5 72.5 L 12.5 23.0 L 68.0 23.0 " style="fill-rule: evenodd;"/><g style="fill: #4ca06c;fill-opacity: 1.0000;stroke: #4ca06c;stroke-opacity: 1.0000;stroke-linecap: round;stroke-linejoin: round" transform="translate(0 0) scale(1 1)">
<path style="fill: none;stroke: #4ca06c;stroke-width: 0.0500;stroke-opacity: 1;stroke-linecap: round;stroke-linejoin: round" d="M 12.5000,23.0000 68.0000,23.0000 68.0000,72.5000 12.5000,72.5000 Z"/> 
</g> 
</g></g></g></svg>
