<?xml version="1.0" standalone="no"?>
 <!DOCTYPE svg PUBLIC "-//W3C//DTD SVG 1.1//EN" 
 "http://www.w3.org/Graphics/SVG/1.1/DTD/svg11.dtd"> 
<svg
  xmlns:svg="http://www.w3.org/2000/svg"
  xmlns="http://www.w3.org/2000/svg"
  xmlns:xlink="http://www.w3.org/1999/xlink"
  version="1.1"
  width="419.9890mm" height="297.0022mm" viewBox="0.0000 0.0000 419.9890 297.0022">
<title>SVG Image created as ECAD_main-B_Cu0.svg date 2025/10/27 20:24:35 </title>
  <desc>Image generated by PCBNEW </desc>
<g style="fill:#000000; fill-opacity:1.0000;stroke:#000000; stroke-opacity:1.0000;
stroke-linecap:round; stroke-linejoin:round;"
 transform="translate(0 0) scale(1 1)">
</g>
<g style="fill:#000000; fill-opacity:1.0000; stroke:none;">
<circle cx="405.8265" cy="45.2500" r="1.0000" /> 
</g>
<g style="fill:#000000; fill-opacity:1.0000; stroke:none;">
<circle cx="405.8265" cy="38.7500" r="1.0000" /> 
</g>
<g style="fill:#000000; fill-opacity:1.0000; stroke:none;">
<circle cx="401.3265" cy="45.2500" r="1.0000" /> 
</g>
<g style="fill:#000000; fill-opacity:1.0000; stroke:none;">
<circle cx="401.3265" cy="38.7500" r="1.0000" /> 
<path style="fill:#000000; fill-opacity:1.0000; stroke:none;fill-rule:evenodd;"
d="M 357.2890,59.8000
357.3847,59.7810
357.4658,59.7268
357.5200,59.6457
357.5390,59.5500
357.5390,58.4500
357.5200,58.3543
357.4658,58.2732
357.3847,58.2190
357.2890,58.2000
356.1890,58.2000
356.0933,58.2190
356.0122,58.2732
355.9580,58.3543
355.9390,58.4500
355.9390,59.5500
355.9580,59.6457
356.0122,59.7268
356.0933,59.7810
356.1890,59.8000
Z" /> 
</g>
<g style="fill:#000000; fill-opacity:1.0000; stroke:none;">
<circle cx="356.7390" cy="55.5000" r="0.8000" /> 
</g>
<g style="fill:#000000; fill-opacity:1.0000; stroke:none;">
<circle cx="381.2890" cy="66.5000" r="1.5000" /> 
</g>
<g style="fill:#000000; fill-opacity:1.0000; stroke:none;">
<circle cx="358.6890" cy="66.5000" r="1.5000" /> 
</g>
<g style="fill:#000000; fill-opacity:1.0000; stroke:none;">
<circle cx="368.9890" cy="31.0000" r="1.5000" /> 
<path style="fill:#000000; fill-opacity:1.0000; stroke:none;fill-rule:evenodd;"
d="M 389.1390,64.8550
389.1390,62.0550
386.3390,62.0550
386.3390,64.8550
Z" /> 
</g>
<g style="fill:#000000; fill-opacity:1.0000; stroke:none;">
<circle cx="387.7390" cy="68.5350" r="1.4000" /> 
<path style="fill:#000000; fill-opacity:1.0000; stroke:none;fill-rule:evenodd;"
d="M 395.0490,66.5100
395.0490,60.4900
392.0290,60.4900
392.0290,66.5100
Z" /> 
</g>
<g style="fill:none; 
stroke:#000000; stroke-width:3.0200; stroke-opacity:1; 
stroke-linecap:round; stroke-linejoin:round;">
<path d="M399.7390 62.0000
L399.7390 65.0000
" />
<path style="fill:#000000; fill-opacity:1.0000; stroke:none;fill-rule:evenodd;"
d="M 381.4415,25.2375
379.7415,25.2375
379.7415,26.9375
381.4415,26.9375
Z" /> 
</g>
<g style="fill:#000000; fill-opacity:1.0000; stroke:none;">
<circle cx="383.1315" cy="26.0875" r="0.8500" /> 
</g>
<g style="fill:#000000; fill-opacity:1.0000; stroke:none;">
<circle cx="385.6715" cy="26.0875" r="0.8500" /> 
</g>
<g style="fill:#000000; fill-opacity:1.0000; stroke:none;">
<circle cx="388.2115" cy="26.0875" r="0.8500" /> 
<path style="fill:#000000; fill-opacity:1.0000; stroke:none;fill-rule:evenodd;"
d="M 373.0015,67.1000
372.9106,67.1181
372.8336,67.1696
372.7821,67.2466
372.7640,67.3375
372.7640,67.9375
372.7821,68.0284
372.8336,68.1054
372.9106,68.1569
373.0015,68.1750
373.4765,68.1750
373.5674,68.1569
373.6444,68.1054
373.6959,68.0284
373.7140,67.9375
373.7140,67.3375
373.6959,67.2466
373.6444,67.1696
373.5674,67.1181
373.4765,67.1000
Z" /> 
<path style="fill:#000000; fill-opacity:1.0000; stroke:none;fill-rule:evenodd;"
d="M 373.0015,68.8250
372.9106,68.8431
372.8336,68.8946
372.7821,68.9716
372.7640,69.0625
372.7640,69.6625
372.7821,69.7534
372.8336,69.8304
372.9106,69.8819
373.0015,69.9000
373.4765,69.9000
373.5674,69.8819
373.6444,69.8304
373.6959,69.7534
373.7140,69.6625
373.7140,69.0625
373.6959,68.9716
373.6444,68.8946
373.5674,68.8431
373.4765,68.8250
Z" /> 
<path style="fill:#000000; fill-opacity:1.0000; stroke:none;fill-rule:evenodd;"
d="M 396.4790,34.9200
396.4897,34.9736
396.5200,35.0190
396.5654,35.0493
396.6190,35.0600
396.8990,35.0600
396.9526,35.0493
396.9980,35.0190
397.0283,34.9736
397.0390,34.9200
397.0390,34.5800
397.0283,34.5264
396.9980,34.4810
396.9526,34.4507
396.8990,34.4400
396.6190,34.4400
396.5654,34.4507
396.5200,34.4810
396.4897,34.5264
396.4790,34.5800
Z" /> 
<path style="fill:#000000; fill-opacity:1.0000; stroke:none;fill-rule:evenodd;"
d="M 397.4390,34.9200
397.4497,34.9736
397.4800,35.0190
397.5254,35.0493
397.5790,35.0600
397.8590,35.0600
397.9126,35.0493
397.9580,35.0190
397.9883,34.9736
397.9990,34.9200
397.9990,34.5800
397.9883,34.5264
397.9580,34.4810
397.9126,34.4507
397.8590,34.4400
397.5790,34.4400
397.5254,34.4507
397.4800,34.4810
397.4497,34.5264
397.4390,34.5800
Z" /> 
<path style="fill:#000000; fill-opacity:1.0000; stroke:none;fill-rule:evenodd;"
d="M 372.0890,70.4000
372.0700,70.3043
372.0158,70.2232
371.9347,70.1690
371.8390,70.1500
370.1390,70.1500
370.0433,70.1690
369.9622,70.2232
369.9080,70.3043
369.8890,70.4000
369.8890,71.1000
369.9080,71.1957
369.9622,71.2768
370.0433,71.3310
370.1390,71.3500
371.8390,71.3500
371.9347,71.3310
372.0158,71.2768
372.0700,71.1957
372.0890,71.1000
Z" /> 
<path style="fill:#000000; fill-opacity:1.0000; stroke:none;fill-rule:evenodd;"
d="M 367.8890,65.8200
367.8700,65.7243
367.8158,65.6432
367.7347,65.5890
367.6390,65.5700
361.7390,65.5700
361.6433,65.5890
361.5622,65.6432
361.5080,65.7243
361.4890,65.8200
361.4890,71.1200
361.5080,71.2157
361.5622,71.2968
361.6433,71.3510
361.7390,71.3700
367.6390,71.3700
367.7347,71.3510
367.8158,71.2968
367.8700,71.2157
367.8890,71.1200
Z" /> 
<path style="fill:#000000; fill-opacity:1.0000; stroke:none;fill-rule:evenodd;"
d="M 372.0890,65.8400
372.0700,65.7443
372.0158,65.6632
371.9347,65.6090
371.8390,65.5900
370.1390,65.5900
370.0433,65.6090
369.9622,65.6632
369.9080,65.7443
369.8890,65.8400
369.8890,66.5400
369.9080,66.6357
369.9622,66.7168
370.0433,66.7710
370.1390,66.7900
371.8390,66.7900
371.9347,66.7710
372.0158,66.7168
372.0700,66.6357
372.0890,66.5400
Z" /> 
<path style="fill:#000000; fill-opacity:1.0000; stroke:none;fill-rule:evenodd;"
d="M 383.8890,63.6000
383.7933,63.6190
383.7122,63.6732
383.6580,63.7543
383.6390,63.8500
383.6390,64.6500
383.6580,64.7457
383.7122,64.8268
383.7933,64.8810
383.8890,64.9000
385.0890,64.9000
385.1847,64.8810
385.2658,64.8268
385.3200,64.7457
385.3390,64.6500
385.3390,63.8500
385.3200,63.7543
385.2658,63.6732
385.1847,63.6190
385.0890,63.6000
Z" /> 
<path style="fill:#000000; fill-opacity:1.0000; stroke:none;fill-rule:evenodd;"
d="M 383.8890,67.1000
383.7933,67.1190
383.7122,67.1732
383.6580,67.2543
383.6390,67.3500
383.6390,68.1500
383.6580,68.2457
383.7122,68.3268
383.7933,68.3810
383.8890,68.4000
385.0890,68.4000
385.1847,68.3810
385.2658,68.3268
385.3200,68.2457
385.3390,68.1500
385.3390,67.3500
385.3200,67.2543
385.2658,67.1732
385.1847,67.1190
385.0890,67.1000
Z" /> 
<path style="fill:#000000; fill-opacity:1.0000; stroke:none;fill-rule:evenodd;"
d="M 360.1390,60.5000
360.2347,60.4810
360.3158,60.4268
360.3700,60.3457
360.3890,60.2500
360.3890,58.2500
360.3700,58.1543
360.3158,58.0732
360.2347,58.0190
360.1390,58.0000
358.8390,58.0000
358.7433,58.0190
358.6622,58.0732
358.6080,58.1543
358.5890,58.2500
358.5890,60.2500
358.6080,60.3457
358.6622,60.4268
358.7433,60.4810
358.8390,60.5000
Z" /> 
<path style="fill:#000000; fill-opacity:1.0000; stroke:none;fill-rule:evenodd;"
d="M 360.1390,56.5000
360.2347,56.4810
360.3158,56.4268
360.3700,56.3457
360.3890,56.2500
360.3890,54.2500
360.3700,54.1543
360.3158,54.0732
360.2347,54.0190
360.1390,54.0000
358.8390,54.0000
358.7433,54.0190
358.6622,54.0732
358.6080,54.1543
358.5890,54.2500
358.5890,56.2500
358.6080,56.3457
358.6622,56.4268
358.7433,56.4810
358.8390,56.5000
Z" /> 
<path style="fill:#000000; fill-opacity:1.0000; stroke:none;fill-rule:evenodd;"
d="M 362.4390,64.1750
362.4964,64.1636
362.5451,64.1311
362.5776,64.0824
362.5890,64.0250
362.5890,62.8500
362.5776,62.7926
362.5451,62.7439
362.4964,62.7114
362.4390,62.7000
362.1390,62.7000
362.0816,62.7114
362.0329,62.7439
362.0004,62.7926
361.9890,62.8500
361.9890,64.0250
362.0004,64.0824
362.0329,64.1311
362.0816,64.1636
362.1390,64.1750
Z" /> 
<path style="fill:#000000; fill-opacity:1.0000; stroke:none;fill-rule:evenodd;"
d="M 364.3390,64.1750
364.3964,64.1636
364.4451,64.1311
364.4776,64.0824
364.4890,64.0250
364.4890,62.8500
364.4776,62.7926
364.4451,62.7439
364.3964,62.7114
364.3390,62.7000
364.0390,62.7000
363.9816,62.7114
363.9329,62.7439
363.9004,62.7926
363.8890,62.8500
363.8890,64.0250
363.9004,64.0824
363.9329,64.1311
363.9816,64.1636
364.0390,64.1750
Z" /> 
<path style="fill:#000000; fill-opacity:1.0000; stroke:none;fill-rule:evenodd;"
d="M 363.3890,62.3000
363.4464,62.2886
363.4951,62.2561
363.5276,62.2074
363.5390,62.1500
363.5390,60.9750
363.5276,60.9176
363.4951,60.8689
363.4464,60.8364
363.3890,60.8250
363.0890,60.8250
363.0316,60.8364
362.9829,60.8689
362.9504,60.9176
362.9390,60.9750
362.9390,62.1500
362.9504,62.2074
362.9829,62.2561
363.0316,62.2886
363.0890,62.3000
Z" /> 
<path style="fill:#000000; fill-opacity:1.0000; stroke:none;fill-rule:evenodd;"
d="M 365.9890,64.1125
366.0464,64.1011
366.0951,64.0686
366.1276,64.0199
366.1390,63.9625
366.1390,62.7875
366.1276,62.7301
366.0951,62.6814
366.0464,62.6489
365.9890,62.6375
365.6890,62.6375
365.6316,62.6489
365.5829,62.6814
365.5504,62.7301
365.5390,62.7875
365.5390,63.9625
365.5504,64.0199
365.5829,64.0686
365.6316,64.1011
365.6890,64.1125
Z" /> 
<path style="fill:#000000; fill-opacity:1.0000; stroke:none;fill-rule:evenodd;"
d="M 367.8890,64.1125
367.9464,64.1011
367.9951,64.0686
368.0276,64.0199
368.0390,63.9625
368.0390,62.7875
368.0276,62.7301
367.9951,62.6814
367.9464,62.6489
367.8890,62.6375
367.5890,62.6375
367.5316,62.6489
367.4829,62.6814
367.4504,62.7301
367.4390,62.7875
367.4390,63.9625
367.4504,64.0199
367.4829,64.0686
367.5316,64.1011
367.5890,64.1125
Z" /> 
<path style="fill:#000000; fill-opacity:1.0000; stroke:none;fill-rule:evenodd;"
d="M 366.9390,62.2375
366.9964,62.2261
367.0451,62.1936
367.0776,62.1449
367.0890,62.0875
367.0890,60.9125
367.0776,60.8551
367.0451,60.8064
366.9964,60.7739
366.9390,60.7625
366.6390,60.7625
366.5816,60.7739
366.5329,60.8064
366.5004,60.8551
366.4890,60.9125
366.4890,62.0875
366.5004,62.1449
366.5329,62.1936
366.5816,62.2261
366.6390,62.2375
Z" /> 
<path style="fill:#000000; fill-opacity:1.0000; stroke:none;fill-rule:evenodd;"
d="M 404.3365,45.1000
404.3258,45.0464
404.2955,45.0010
404.2501,44.9707
404.1965,44.9600
403.9165,44.9600
403.8629,44.9707
403.8175,45.0010
403.7872,45.0464
403.7765,45.1000
403.7765,45.4400
403.7872,45.4936
403.8175,45.5390
403.8629,45.5693
403.9165,45.5800
404.1965,45.5800
404.2501,45.5693
404.2955,45.5390
404.3258,45.4936
404.3365,45.4400
Z" /> 
<path style="fill:#000000; fill-opacity:1.0000; stroke:none;fill-rule:evenodd;"
d="M 403.3765,45.1000
403.3658,45.0464
403.3355,45.0010
403.2901,44.9707
403.2365,44.9600
402.9565,44.9600
402.9029,44.9707
402.8575,45.0010
402.8272,45.0464
402.8165,45.1000
402.8165,45.4400
402.8272,45.4936
402.8575,45.5390
402.9029,45.5693
402.9565,45.5800
403.2365,45.5800
403.2901,45.5693
403.3355,45.5390
403.3658,45.4936
403.3765,45.4400
Z" /> 
</g>
<g style="fill:#000000; fill-opacity:1.0000; stroke:none;">
<circle cx="393.7390" cy="24.7500" r="0.4000" /> 
</g>
<g style="fill:#000000; fill-opacity:1.0000; stroke:none;">
<circle cx="393.2390" cy="52.0000" r="0.4000" /> 
</g>
<g style="fill:#000000; fill-opacity:1.0000; stroke:none;">
<circle cx="393.7390" cy="26.2500" r="0.4000" /> 
</g>
<g style="fill:#000000; fill-opacity:1.0000; stroke:none;">
<circle cx="392.4890" cy="41.7500" r="0.4000" /> 
</g>
<g style="fill:#000000; fill-opacity:1.0000; stroke:none;">
<circle cx="390.7390" cy="39.7500" r="0.4000" /> 
</g>
<g style="fill:#000000; fill-opacity:1.0000; stroke:none;">
<circle cx="382.4890" cy="31.7500" r="0.4000" /> 
</g>
<g style="fill:#000000; fill-opacity:1.0000; stroke:none;">
<circle cx="397.4890" cy="51.7500" r="0.4000" /> 
</g>
<g style="fill:#000000; fill-opacity:1.0000; stroke:none;">
<circle cx="395.2390" cy="53.5000" r="0.4000" /> 
</g>
<g style="fill:#000000; fill-opacity:1.0000; stroke:none;">
<circle cx="390.7390" cy="25.2500" r="0.4000" /> 
</g>
<g style="fill:#000000; fill-opacity:1.0000; stroke:none;">
<circle cx="398.2390" cy="28.5000" r="0.4000" /> 
</g>
<g style="fill:#000000; fill-opacity:1.0000; stroke:none;">
<circle cx="386.9890" cy="45.0000" r="0.4000" /> 
</g>
<g style="fill:#000000; fill-opacity:1.0000; stroke:none;">
<circle cx="392.2390" cy="23.7500" r="0.4000" /> 
</g>
<g style="fill:#000000; fill-opacity:1.0000; stroke:none;">
<circle cx="396.4890" cy="29.7500" r="0.4000" /> 
</g>
<g style="fill:#000000; fill-opacity:1.0000; stroke:none;">
<circle cx="403.2390" cy="30.5000" r="0.4000" /> 
</g>
<g style="fill:#000000; fill-opacity:1.0000; stroke:none;">
<circle cx="402.2390" cy="28.5000" r="0.4000" /> 
</g>
<g style="fill:#000000; fill-opacity:1.0000; stroke:none;">
<circle cx="403.2390" cy="36.2500" r="0.4000" /> 
</g>
<g style="fill:#000000; fill-opacity:1.0000; stroke:none;">
<circle cx="386.7390" cy="43.2500" r="0.3000" /> 
</g>
<g style="fill:#000000; fill-opacity:1.0000; stroke:none;">
<circle cx="383.4890" cy="30.7500" r="0.3000" /> 
</g>
<g style="fill:#000000; fill-opacity:1.0000; stroke:none;">
<circle cx="397.7390" cy="31.7500" r="0.4000" /> 
</g>
<g style="fill:#000000; fill-opacity:1.0000; stroke:none;">
<circle cx="395.9890" cy="28.0000" r="0.4000" /> 
</g>
<g style="fill:#000000; fill-opacity:1.0000; stroke:none;">
<circle cx="387.2390" cy="39.7500" r="0.4000" /> 
</g>
<g style="fill:#000000; fill-opacity:1.0000; stroke:none;">
<circle cx="384.7390" cy="30.7500" r="0.4000" /> 
</g>
<g style="fill:#000000; fill-opacity:1.0000; stroke:none;">
<circle cx="397.9397" cy="35.7993" r="0.4000" /> 
</g>
<g style="fill:none; 
stroke:#000000; stroke-width:0.2000; stroke-opacity:1; 
stroke-linecap:round; stroke-linejoin:round;">
<path d="M402.1640 45.0200
L402.4140 45.2700
" />
<path d="M401.5565 45.0200
L402.1640 45.0200
" />
<path d="M402.4140 45.2700
L403.0965 45.2700
" />
<path d="M401.3265 45.2500
L401.5565 45.0200
" />
</g>
<g style="fill:none; 
stroke:#000000; stroke-width:0.3000; stroke-opacity:1; 
stroke-linecap:round; stroke-linejoin:round;">
<path d="M358.6890 66.5000
L361.7515 63.4375
" />
<path d="M360.6590 68.4700
L358.6890 66.5000
" />
<path d="M364.6890 68.4700
L360.6590 68.4700
" />
<path d="M361.7515 63.4375
L362.2890 63.4375
" />
<path d="M356.7390 59.0000
L359.2390 59.0000
" />
<path d="M359.4890 59.2500
L359.4890 65.7000
" />
<path d="M359.4890 65.7000
L358.6890 66.5000
" />
<path d="M359.2390 59.0000
L359.4890 59.2500
" />
</g>
<g style="fill:none; 
stroke:#000000; stroke-width:0.2000; stroke-opacity:1; 
stroke-linecap:round; stroke-linejoin:round;">
<path d="M365.8390 64.6000
L366.2390 65.0000
" />
<path d="M373.2390 67.6375
L373.2390 66.5000
" />
<path d="M368.2390 65.0000
L369.4290 66.1900
" />
<path d="M373.2390 66.5000
L372.9290 66.1900
" />
<path d="M365.8390 63.3750
L365.8390 64.6000
" />
<path d="M372.9290 66.1900
L370.9890 66.1900
" />
<path d="M369.4290 66.1900
L370.9890 66.1900
" />
<path d="M366.2390 65.0000
L368.2390 65.0000
" />
</g>
<g style="fill:none; 
stroke:#000000; stroke-width:0.3000; stroke-opacity:1; 
stroke-linecap:round; stroke-linejoin:round;">
<path d="M363.2390 61.5625
L366.7265 61.5625
" />
<path d="M366.7265 61.5625
L366.7890 61.5000
" />
<path d="M382.8390 67.7500
L381.5890 66.5000
" />
<path d="M386.5240 68.5350
L385.7390 67.7500
" />
<path d="M387.7890 68.5350
L386.5240 68.5350
" />
<path d="M384.7890 67.7500
L382.8390 67.7500
" />
<path d="M385.7390 67.7500
L384.7890 67.7500
" />
<path d="M384.7890 64.2500
L386.9940 64.2500
" />
<path d="M386.9940 64.2500
L387.7890 63.4550
" />
<path d="M383.4890 41.0000
L383.4890 30.7500
" />
<path d="M385.7390 43.2500
L383.4890 41.0000
" />
<path d="M386.7390 43.2500
L385.7390 43.2500
" />
</g>
<g style="fill:none; 
stroke:#000000; stroke-width:0.2000; stroke-opacity:1; 
stroke-linecap:round; stroke-linejoin:round;">
<path d="M387.2390 39.7500
L384.7390 37.2500
" />
<path d="M384.7390 37.2500
L384.7390 30.7500
" />
<path d="M397.7390 29.7500
L397.7390 30.5000
" />
<path d="M384.7390 30.7500
L397.4890 30.7500
" />
<path d="M395.9890 28.0000
L397.7390 29.7500
" />
<path d="M397.7390 31.0000
L397.7390 31.7500
" />
<path d="M397.4890 30.7500
L397.7390 31.0000
" />
<path d="M397.9397 35.2007
L397.7390 35.0000
" />
<path d="M397.7390 30.5000
L397.7390 31.0000
" />
<path d="M397.9397 35.7993
L397.9397 35.2007
" />
<path d="M397.7390 35.0000
L397.7390 31.7500
" />
<path style="fill:#000000; fill-opacity:1.0000; stroke:none;fill-rule:evenodd;"
d="M 352.1575,23.1685
352.1395,23.2120
352.1395,50.4330
352.1575,50.4765
352.2010,50.4945
372.1775,50.4945
372.3041,50.5066
372.3674,50.5126
372.5623,50.5710
372.6058,50.5891
372.7636,50.6715
372.7636,50.6715
372.9229,50.7981
372.9229,50.7981
373.0535,50.9541
373.0535,50.9541
373.1499,51.1332
373.1500,51.1332
373.1680,51.1767
373.1680,51.1767
373.2239,51.3591
373.2239,51.3591
373.2445,51.5615
373.2445,58.1830
373.2625,58.2265
373.3060,58.2445
382.1720,58.2445
382.2155,58.2265
382.2335,58.1830
382.2335,57.0615
382.2335,57.0615
382.2516,56.8716
382.3100,56.6767
382.3281,56.6332
382.4105,56.4754
382.5371,56.3161
382.5586,56.2981
382.6931,56.1855
382.6931,56.1855
382.8722,56.0891
382.8722,56.0891
382.8722,56.0891
382.8722,56.0890
382.8722,56.0890
382.9157,56.0710
382.9157,56.0710
382.9157,56.0710
383.0981,56.0151
383.0981,56.0151
383.0981,56.0151
383.0981,56.0151
383.3005,55.9945
383.3005,55.9945
407.2770,55.9945
407.3205,55.9765
407.3385,55.9330
407.3385,45.8389
407.3205,45.7955
407.2770,45.7774
407.2335,45.7955
407.2185,45.8199
407.2166,45.8258
407.1094,46.0362
406.9748,46.2215
406.2938,45.5406
406.2666,45.5877
406.1642,45.6901
406.1171,45.7173
406.7980,46.3983
406.6127,46.5329
406.4023,46.6401
406.1778,46.7131
406.1778,46.7131
405.9446,46.7500
405.9445,46.7500
405.7085,46.7500
405.7084,46.7500
405.4752,46.7131
405.2507,46.6401
405.0403,46.5329
404.8550,46.3983
405.5359,45.7173
405.4888,45.6901
405.3864,45.5877
405.3592,45.5406
404.6782,46.2215
404.5471,46.0410
404.5069,46.0164
404.4660,46.0242
404.4527,46.0320
404.2974,46.0771
404.2611,46.0800
404.1815,46.0800
404.1815,44.4600
403.9315,44.4600
403.9315,46.0800
403.8519,46.0800
403.8156,46.0771
403.6603,46.0320
403.5211,45.9497
403.5211,45.9497
403.4056,45.8342
403.3622,45.8162
403.3525,45.8170
403.2672,45.8305
402.9258,45.8305
402.8343,45.8160
402.7241,45.7599
402.6366,45.6724
402.6273,45.6541
402.6198,45.6477
402.6160,45.6385
402.6026,45.6330
402.5915,45.6235
402.5725,45.6205
402.5657,45.6205
402.5222,45.6385
402.5072,45.6630
402.5041,45.6724
402.4854,45.7300
402.3960,45.9054
402.2803,46.0646
402.1411,46.2038
401.9819,46.3195
401.9819,46.3195
401.8065,46.4089
401.6193,46.4697
401.6193,46.4697
401.4249,46.5005
401.4249,46.5005
401.2281,46.5005
401.2281,46.5005
401.0337,46.4697
400.8465,46.4089
400.6711,46.3195
400.5119,46.2038
400.3727,46.0646
400.2570,45.9054
400.1676,45.7300
400.1068,45.5428
400.0760,45.3484
400.0760,45.1516
400.1068,44.9572
400.1676,44.7700
400.2570,44.5946
400.3199,44.5080
400.3727,44.4354
400.5119,44.2962
400.6711,44.1805
400.8465,44.0911
401.0337,44.0303
401.0337,44.0303
401.2281,43.9995
401.2281,43.9995
401.4249,43.9995
401.4249,43.9995
401.6193,44.0303
401.8065,44.0911
401.9819,44.1805
402.1411,44.2962
402.1411,44.2962
402.1411,44.2962
402.2803,44.4354
402.2803,44.4354
402.2803,44.4354
402.3960,44.5946
402.4854,44.7700
402.5173,44.8681
402.5322,44.8926
402.5331,44.8934
402.5766,44.9115
402.6201,44.8935
402.6314,44.8779
402.6366,44.8676
402.6366,44.8676
402.6366,44.8676
402.7241,44.7801
402.7241,44.7801
402.8343,44.7240
402.8343,44.7240
402.8343,44.7240
402.9098,44.7120
402.9258,44.7095
402.9258,44.7095
403.2672,44.7095
403.2672,44.7095
403.3525,44.7230
403.3983,44.7120
403.4056,44.7058
403.5211,44.5903
403.6603,44.5080
403.6603,44.5080
403.8156,44.4629
403.8519,44.4600
403.9315,44.4600
404.1815,44.4600
404.2611,44.4600
404.2974,44.4629
404.4527,44.5080
404.4557,44.5093
404.5028,44.5100
404.5350,44.4808
404.5436,44.4638
404.6782,44.2785
405.3592,44.9594
405.3864,44.9123
405.4888,44.8099
405.5359,44.7827
404.8550,44.1017
405.0403,43.9671
405.2507,43.8599
405.4752,43.7869
405.4752,43.7869
405.7084,43.7500
405.9446,43.7500
406.1778,43.7869
406.4023,43.8599
406.6127,43.9671
406.7980,44.1017
406.1171,44.7827
406.1642,44.8099
406.2666,44.9123
406.2938,44.9594
406.9748,44.2785
407.1094,44.4638
407.2166,44.6742
407.2166,44.6742
407.2185,44.6801
407.2491,44.7159
407.2960,44.7195
407.3318,44.6890
407.3385,44.6611
407.3385,39.3389
407.3205,39.2955
407.2770,39.2774
407.2335,39.2955
407.2185,39.3199
407.2166,39.3258
407.1094,39.5362
406.9748,39.7215
406.2938,39.0406
406.2666,39.0877
406.1642,39.1901
406.1171,39.2173
406.7980,39.8983
406.6127,40.0329
406.4023,40.1401
406.1778,40.2131
406.1778,40.2131
405.9446,40.2500
405.9445,40.2500
405.7085,40.2500
405.7084,40.2500
405.4752,40.2131
405.2507,40.1401
405.0403,40.0329
404.8550,39.8983
405.5359,39.2173
405.4888,39.1901
405.3864,39.0877
405.3592,39.0406
404.6782,39.7215
404.5436,39.5362
404.4364,39.3258
404.3634,39.1013
404.3265,38.8681
404.3265,38.8680
404.3265,38.6516
402.5770,38.6516
402.5770,38.8484
402.5462,39.0428
402.4854,39.2300
402.3960,39.4054
402.2803,39.5646
402.1411,39.7038
401.9894,39.8141
401.9819,39.8195
401.8065,39.9089
401.6193,39.9697
401.6193,39.9697
401.4249,40.0005
401.4249,40.0005
401.2281,40.0005
401.2281,40.0005
401.0337,39.9697
400.8465,39.9089
400.6711,39.8195
400.5119,39.7038
400.3727,39.5646
400.2570,39.4054
400.1676,39.2300
400.1068,39.0428
400.0760,38.8484
400.0760,38.6516
400.1068,38.4572
400.1676,38.2700
400.2570,38.0946
400.3727,37.9354
400.5119,37.7962
400.5119,37.7962
400.5119,37.7962
400.6711,37.6805
400.8465,37.5911
401.0337,37.5303
401.0337,37.5303
401.2281,37.4995
401.2281,37.4995
401.4249,37.4995
401.4249,37.4995
401.6193,37.5303
401.8065,37.5911
401.9819,37.6805
402.1411,37.7962
402.1411,37.7962
402.1411,37.7962
402.2803,37.9354
402.2803,37.9354
402.2803,37.9354
402.3960,38.0946
402.4854,38.2700
402.5462,38.4572
402.5770,38.6516
404.3265,38.6516
404.3265,38.6320
404.3265,38.6319
404.3634,38.3987
404.4364,38.1742
404.5436,37.9638
404.6782,37.7785
405.3592,38.4594
405.3864,38.4123
405.4888,38.3099
405.5359,38.2827
404.8550,37.6017
405.0403,37.4671
405.2507,37.3599
405.4752,37.2869
405.4752,37.2869
405.7084,37.2500
405.9446,37.2500
406.1778,37.2869
406.4023,37.3599
406.6127,37.4671
406.7980,37.6017
406.1171,38.2827
406.1642,38.3099
406.2666,38.4123
406.2938,38.4594
406.9748,37.7785
407.1094,37.9638
407.2166,38.1742
407.2166,38.1742
407.2185,38.1801
407.2491,38.2159
407.2960,38.2195
407.3318,38.1890
407.3385,38.1611
407.3385,29.5000
401.9890,29.5000
401.9890,37.0000
398.2390,37.0000
398.2390,36.4714
398.2210,36.4280
398.1775,36.4099
398.1540,36.4146
398.1295,36.4248
398.1295,36.4248
398.0038,36.4498
398.0038,36.4498
398.0038,36.4498
397.8757,36.4498
397.8757,36.4498
397.7500,36.4248
397.7500,36.4248
397.7500,36.4248
397.7142,36.4099
397.6316,36.3757
397.5251,36.3045
397.4345,36.2139
397.3633,36.1074
397.3142,35.9890
397.2892,35.8633
397.2892,35.8633
397.2892,35.7352
397.2892,35.7352
397.3142,35.6095
397.3142,35.6095
397.3142,35.6095
397.3488,35.5261
397.3488,35.4791
397.3155,35.4458
397.2684,35.4458
397.2606,35.4497
397.1552,35.5120
396.9999,35.5571
396.9636,35.5600
396.8840,35.5600
396.6340,35.5600
396.5544,35.5600
396.5181,35.5571
396.3628,35.5120
396.2236,35.4297
396.2236,35.4297
396.1093,35.3154
396.1093,35.3154
396.0270,35.1762
395.9819,35.0209
395.9790,34.9846
395.9790,34.8750
396.6340,34.8750
396.6340,35.5600
396.8840,35.5600
396.8840,34.6250
396.6340,34.6250
395.9790,34.6250
395.9790,34.5154
395.9819,34.4791
396.0270,34.3238
396.1093,34.1846
396.1093,34.1846
396.2236,34.0703
396.3628,33.9880
396.3628,33.9880
396.5181,33.9429
396.5544,33.9400
396.6340,33.9400
396.6340,34.6250
396.8840,34.6250
396.8840,33.9400
396.9636,33.9400
396.9999,33.9429
397.1552,33.9880
397.2957,34.0711
397.3423,34.0777
397.3799,34.0494
397.3885,34.0181
397.3885,32.3310
397.3705,32.2875
397.3612,32.2799
397.3243,32.2553
397.2337,32.1647
397.1625,32.0581
397.1135,31.9397
397.0885,31.8141
397.0885,31.8141
397.0885,31.6859
397.0885,31.6859
397.1135,31.5603
397.1135,31.5602
397.1625,31.4419
397.1625,31.4419
397.2337,31.3353
397.3243,31.2447
397.3243,31.2447
397.3602,31.2208
397.3637,31.2155
397.3695,31.2131
397.3763,31.1966
397.3863,31.1816
397.3851,31.1755
397.3875,31.1696
397.3806,31.1531
397.3771,31.1355
397.3695,31.1262
397.3618,31.1185
397.3602,31.1178
397.3183,31.1005
385.3200,31.1005
385.2765,31.1185
385.2689,31.1278
385.2443,31.1647
385.2443,31.1647
385.2443,31.1647
385.1537,31.2553
385.1168,31.2799
385.0907,31.3190
385.0895,31.3310
385.0895,37.0793
385.1075,37.1228
387.0760,39.0913
387.1195,39.1093
387.1315,39.1081
387.1749,39.0995
387.1749,39.0995
387.3031,39.0995
387.3031,39.0995
387.4287,39.1245
387.4288,39.1245
387.5471,39.1735
387.5471,39.1735
387.6537,39.2447
387.7443,39.3353
387.8155,39.4419
387.8155,39.4419
387.8645,39.5602
387.8645,39.5603
387.8895,39.6859
387.8895,39.8141
387.8645,39.9397
387.8645,39.9398
387.8155,40.0581
387.8155,40.0581
387.8155,40.0581
387.7443,40.1647
387.6537,40.2553
387.6537,40.2553
387.6002,40.2910
387.5471,40.3265
387.4998,40.3461
387.4288,40.3755
387.4287,40.3755
387.4287,40.3755
387.3031,40.4005
387.3031,40.4005
387.3031,40.4005
387.1749,40.4005
387.1749,40.4005
387.0493,40.3755
387.0493,40.3755
387.0492,40.3755
387.0186,40.3628
386.9309,40.3265
386.8243,40.2553
386.7337,40.1647
386.6625,40.0581
386.6135,39.9397
386.5885,39.8141
386.5885,39.8141
386.5885,39.6859
386.5905,39.6756
386.5971,39.6425
386.5880,39.5963
386.5803,39.5870
384.4585,37.4652
384.4124,37.3853
384.4031,37.3507
384.3885,37.2961
384.3885,31.3310
384.3705,31.2875
384.3612,31.2799
384.3243,31.2553
384.2337,31.1647
384.1625,31.0581
384.1188,30.9526
384.0855,30.9193
384.0385,30.9193
384.0052,30.9526
384.0026,30.9602
384.0020,30.9625
384.0020,30.9625
384.0020,30.9625
383.9295,31.0880
383.9295,31.0880
383.9075,31.1100
383.8895,31.1535
383.8895,40.8086
383.9075,40.8521
385.8869,42.8315
385.9304,42.8495
386.3355,42.8495
386.3790,42.8315
386.4010,42.8095
386.4010,42.8095
386.5265,42.7370
386.5265,42.7370
386.5265,42.7370
386.6665,42.6995
386.6665,42.6995
386.8115,42.6995
386.8115,42.6995
386.9515,42.7370
386.9515,42.7370
387.0770,42.8095
387.0770,42.8095
387.1795,42.9120
387.1795,42.9120
387.2520,43.0375
387.2520,43.0375
387.2895,43.1775
387.2895,43.3225
387.2520,43.4625
387.2520,43.4625
387.2520,43.4625
387.1795,43.5880
387.0770,43.6905
386.9515,43.7630
386.9515,43.7630
386.8115,43.8005
386.8115,43.8005
386.6665,43.8005
386.6048,43.7840
386.5265,43.7630
386.4010,43.6905
386.3790,43.6685
386.3355,43.6505
385.6863,43.6505
385.6863,43.6505
385.5844,43.6232
385.5844,43.6232
385.5844,43.6232
385.4931,43.5705
383.2482,41.3255
383.2481,41.3255
383.2431,41.3205
383.2431,41.3205
383.1685,41.2459
383.1158,41.1546
383.1052,41.1151
383.0885,41.0527
383.0885,40.9435
383.0885,40.9435
383.0885,31.1535
383.0705,31.1100
383.0610,31.1005
383.0485,31.0880
382.9760,30.9625
382.9642,30.9182
382.9509,30.8689
370.9890,30.8689
370.9890,31.1311
370.9548,31.3910
370.8869,31.6442
370.8869,31.6443
370.7866,31.8865
370.6555,32.1135
370.4959,32.3215
370.4916,32.3258
369.6366,31.4708
369.6104,31.5100
369.4990,31.6214
369.4598,31.6476
370.3148,32.5026
370.3105,32.5069
370.1025,32.6665
369.8755,32.7976
369.6333,32.8979
369.6332,32.8979
369.3800,32.9658
369.3800,32.9658
369.1201,33.0000
369.1201,33.0000
368.8579,33.0000
368.8579,33.0000
368.5980,32.9658
368.3448,32.8979
368.3447,32.8979
368.1025,32.7976
367.8755,32.6665
367.6675,32.5069
367.6632,32.5026
368.5182,31.6476
368.4790,31.6214
368.3676,31.5100
368.3414,31.4708
367.4864,32.3258
367.4821,32.3215
367.3225,32.1135
367.1914,31.8865
367.0911,31.6443
367.0911,31.6442
367.0232,31.3910
366.9890,31.1311
366.9890,31.1311
366.9890,30.8689
366.9890,30.8689
367.0232,30.6090
367.0911,30.3557
367.0911,30.3557
367.1914,30.1135
367.3225,29.8865
367.4821,29.6785
367.4864,29.6742
368.3414,30.5292
368.3676,30.4900
368.4790,30.3786
368.5182,30.3524
367.6632,29.4974
367.6675,29.4931
367.8755,29.3335
368.1025,29.2024
368.3447,29.1021
368.3448,29.1021
368.5980,29.0342
368.5980,29.0342
368.8579,29.0000
369.1201,29.0000
369.3800,29.0342
369.6332,29.1021
369.6333,29.1021
369.8755,29.2024
370.1025,29.3335
370.3105,29.4931
370.3105,29.4931
370.3148,29.4974
369.4598,30.3524
369.4990,30.3786
369.6104,30.4900
369.6366,30.5292
370.4916,29.6742
370.4959,29.6785
370.4959,29.6785
370.6555,29.8865
370.7866,30.1135
370.8869,30.3557
370.8869,30.3557
370.9548,30.6090
370.9890,30.8689
382.9509,30.8689
382.9461,30.8510
382.9385,30.8225
382.9385,30.6775
382.9752,30.5407
382.9760,30.5375
383.0485,30.4120
383.1510,30.3095
383.2765,30.2370
383.2765,30.2370
383.2765,30.2370
383.4165,30.1995
383.4165,30.1995
383.5615,30.1995
383.5615,30.1995
383.7015,30.2370
383.7015,30.2370
383.8270,30.3095
383.8270,30.3095
383.9295,30.4120
383.9295,30.4120
384.0020,30.5375
384.0020,30.5375
384.0026,30.5398
384.0033,30.5407
384.0035,30.5412
384.0037,30.5412
384.0313,30.5771
384.0779,30.5833
384.1153,30.5546
384.1188,30.5474
384.1455,30.4829
384.1625,30.4419
384.2337,30.3353
384.3243,30.2447
384.3243,30.2447
384.3243,30.2447
384.4309,30.1735
384.4309,30.1735
384.4309,30.1735
384.4309,30.1735
384.5492,30.1245
384.5493,30.1245
384.6749,30.0995
384.6749,30.0995
384.8031,30.0995
384.8031,30.0995
384.9287,30.1245
384.9288,30.1245
385.0471,30.1735
385.0471,30.1735
385.1537,30.2447
385.2443,30.3353
385.2443,30.3353
385.2689,30.3722
385.3080,30.3983
385.3200,30.3995
397.3270,30.3995
397.3705,30.3815
397.3885,30.3380
397.3885,29.9207
397.3705,29.8772
396.1520,28.6587
396.1085,28.6407
396.0965,28.6419
396.0633,28.6485
396.0531,28.6505
396.0531,28.6505
395.9249,28.6505
395.9249,28.6505
395.7993,28.6255
395.7993,28.6255
395.7992,28.6255
395.7686,28.6128
395.6809,28.5765
395.5743,28.5053
395.4837,28.4147
395.4125,28.3081
395.3635,28.1897
395.3385,28.0641
395.3385,28.0641
395.3385,27.9359
395.3385,27.9359
395.3635,27.8103
395.3635,27.8102
395.4125,27.6919
395.4125,27.6919
395.4837,27.5853
395.5743,27.4947
395.5743,27.4947
395.5743,27.4947
395.6809,27.4235
395.6809,27.4235
395.6809,27.4235
395.6809,27.4235
395.7992,27.3745
395.7993,27.3745
395.9249,27.3495
395.9249,27.3495
396.0531,27.3495
396.0531,27.3495
396.1787,27.3745
396.1788,27.3745
396.2971,27.4235
396.2971,27.4235
396.4037,27.4947
396.4943,27.5853
396.5655,27.6919
396.5655,27.6919
396.6145,27.8102
396.6145,27.8103
396.6395,27.9359
396.6395,28.0641
396.6309,28.1075
396.6400,28.1537
396.6477,28.1630
398.0195,29.5348
398.0195,29.5348
398.0656,29.6147
398.0656,29.6147
398.0895,29.7039
398.0895,31.1690
398.0919,31.1748
398.0907,31.1810
398.1006,31.1959
398.1075,31.2125
398.1168,31.2201
398.1433,31.2378
398.1895,31.2470
398.2286,31.2208
398.2390,31.1867
398.2390,29.5000
401.9890,29.5000
407.3385,29.5000
407.3385,25.9812
389.5615,25.9812
389.5615,26.1937
389.5283,26.4036
389.4626,26.6057
389.4626,26.6057
389.3661,26.7951
389.2524,26.9516
388.6422,26.3415
388.6116,26.3945
388.5185,26.4876
388.4655,26.5182
389.0756,27.1284
388.9191,27.2421
388.7297,27.3386
388.7297,27.3386
388.5276,27.4043
388.3178,27.4375
388.3177,27.4375
388.1053,27.4375
388.1052,27.4375
387.8954,27.4043
387.6933,27.3386
387.6933,27.3386
387.5039,27.2421
387.3474,27.1284
387.9575,26.5182
387.9045,26.4876
387.8114,26.3945
387.7808,26.3415
387.1706,26.9516
387.0569,26.7951
386.9604,26.6057
386.9604,26.6057
386.8947,26.4036
386.8759,26.2849
386.8513,26.2448
386.8056,26.2338
386.7654,26.2584
386.7545,26.2849
386.7449,26.3452
386.6914,26.5099
386.6127,26.6643
386.5109,26.8044
386.3884,26.9269
386.3544,26.9516
386.2483,27.0287
386.0939,27.1074
385.9292,27.1609
385.9292,27.1609
385.7581,27.1880
385.7581,27.1880
385.5849,27.1880
385.5849,27.1880
385.4138,27.1609
385.2491,27.1074
385.0947,27.0287
384.9546,26.9269
384.8321,26.8044
384.7303,26.6643
384.6516,26.5099
384.5981,26.3452
384.5710,26.1741
384.5710,26.0009
384.5710,26.0009
384.2320,26.0009
384.2320,26.1741
384.2049,26.3452
384.1514,26.5099
384.0727,26.6643
383.9709,26.8044
383.8484,26.9269
383.8144,26.9516
383.7083,27.0287
383.5539,27.1074
383.3892,27.1609
383.3892,27.1609
383.2181,27.1880
383.2181,27.1880
383.0449,27.1880
383.0449,27.1880
382.8738,27.1609
382.7091,27.1074
382.5547,27.0287
382.4146,26.9269
382.2921,26.8044
382.1903,26.6643
382.1116,26.5099
382.0581,26.3452
382.0310,26.1741
382.0310,26.0009
382.0581,25.8298
382.1116,25.6651
382.1903,25.5107
382.2921,25.3706
382.4146,25.2481
382.4146,25.2481
382.4146,25.2481
382.4631,25.2128
381.6920,25.2128
381.6920,26.9622
381.6775,27.0352
381.6499,27.0765
381.6221,27.1181
381.5599,27.1597
381.5392,27.1735
381.4810,27.1850
381.4662,27.1880
381.4662,27.1880
381.4662,27.1880
379.7168,27.1880
379.7168,27.1880
379.6875,27.1822
379.6438,27.1735
379.6438,27.1735
379.6438,27.1735
379.5609,27.1181
379.5055,27.0352
379.5055,27.0352
379.5055,27.0352
379.4910,26.9622
379.4910,26.9622
379.4910,25.2128
379.4910,25.2128
379.5055,25.1398
379.5193,25.1191
379.5609,25.0569
379.6250,25.0141
379.6438,25.0015
379.7168,24.9870
379.7168,24.9870
381.4662,24.9870
381.4662,24.9870
381.5392,25.0015
381.6221,25.0569
381.6775,25.1398
381.6920,25.2128
382.4631,25.2128
382.5547,25.1463
382.7091,25.0676
382.8738,25.0141
382.8738,25.0141
383.0449,24.9870
383.0449,24.9870
383.2181,24.9870
383.2181,24.9870
383.3892,25.0141
383.5539,25.0676
383.7083,25.1463
383.8484,25.2481
383.8484,25.2481
383.8484,25.2481
383.9709,25.3706
383.9709,25.3706
383.9709,25.3706
384.0727,25.5107
384.1514,25.6651
384.2049,25.8298
384.2320,26.0009
384.5710,26.0009
384.5981,25.8298
384.6516,25.6651
384.7303,25.5107
384.8321,25.3706
384.9546,25.2481
384.9546,25.2481
384.9546,25.2481
385.0947,25.1463
385.2491,25.0676
385.4138,25.0141
385.4138,25.0141
385.5849,24.9870
385.5849,24.9870
385.7581,24.9870
385.7581,24.9870
385.9292,25.0141
386.0939,25.0676
386.2483,25.1463
386.3884,25.2481
386.3884,25.2481
386.3884,25.2481
386.5109,25.3706
386.5109,25.3706
386.5109,25.3706
386.6127,25.5107
386.6914,25.6651
386.7449,25.8298
386.7545,25.8901
386.7790,25.9302
386.8248,25.9412
386.8650,25.9166
386.8759,25.8901
386.8947,25.7714
386.9604,25.5693
386.9604,25.5693
387.0569,25.3799
387.1706,25.2234
387.7808,25.8335
387.8114,25.7805
387.9045,25.6874
387.9575,25.6568
387.3474,25.0466
387.5039,24.9329
387.6933,24.8364
387.6933,24.8364
387.8954,24.7707
388.1052,24.7375
388.3178,24.7375
388.5276,24.7707
388.7297,24.8364
388.7297,24.8364
388.9191,24.9329
389.0756,25.0466
388.4655,25.6568
388.5185,25.6874
388.6116,25.7805
388.6422,25.8335
389.2524,25.2234
389.3661,25.3799
389.4626,25.5693
389.4626,25.5693
389.5283,25.7714
389.5615,25.9812
407.3385,25.9812
407.3385,23.2120
407.3205,23.1685
407.2770,23.1505
352.2010,23.1505
Z" /> 
<path style="fill:#000000; fill-opacity:1.0000; stroke:none;fill-rule:evenodd;"
d="M 352.1575,51.5180
352.1395,51.5615
352.1395,72.2880
352.1575,72.3315
352.2010,72.3495
361.1380,72.3495
361.1815,72.3315
361.1995,72.2880
361.1815,72.2445
361.1634,72.2320
361.1194,72.2120
361.1194,72.2120
361.1194,72.2120
360.9343,72.0838
360.7752,71.9247
360.6470,71.7396
360.5539,71.5347
360.4989,71.3164
360.4885,71.1842
360.4885,69.6604
360.4705,69.6169
360.4366,69.5996
360.3896,69.5922
360.2174,69.5362
360.0560,69.4540
359.9095,69.3476
359.7814,69.2195
359.7814,69.2195
359.7780,69.2160
359.7779,69.2160
359.4735,68.9115
359.4300,68.8935
359.4097,68.8970
359.3823,68.9066
359.1085,68.9691
359.1085,68.9691
358.8294,69.0005
358.8294,69.0005
358.5486,69.0005
358.5486,69.0005
358.3293,68.9758
358.2695,68.9691
357.9957,68.9066
357.7306,68.8138
357.4776,68.6919
357.4776,68.6919
357.4775,68.6919
357.2531,68.5509
357.2398,68.5425
357.0202,68.3674
356.8216,68.1688
356.6465,67.9492
356.6264,67.9173
356.4971,67.7115
356.4971,67.7114
356.4971,67.7114
356.3752,67.4584
356.2824,67.1933
356.2199,66.9195
356.2000,66.7423
356.1885,66.6404
356.1885,66.6404
356.1885,66.3596
356.1885,66.3596
356.2199,66.0805
356.2199,66.0805
356.2824,65.8067
356.3752,65.5416
356.4971,65.2886
356.4971,65.2886
356.4971,65.2885
356.6465,65.0508
356.7857,64.8762
356.8216,64.8312
357.0202,64.6326
357.2398,64.4575
357.2398,64.4575
357.4775,64.3081
357.5901,64.2538
357.7306,64.1862
357.7306,64.1862
357.7306,64.1862
357.9957,64.0934
358.2695,64.0309
358.2839,64.0293
358.3251,64.0066
358.3385,63.9682
358.3385,61.4357
358.3205,61.3922
358.3024,61.3797
358.2194,61.3420
358.0343,61.2138
357.8752,61.0547
357.7470,60.8696
357.7089,60.7859
357.6746,60.7537
357.6379,60.7517
357.4854,60.7901
357.3532,60.8005
356.1248,60.8005
356.1248,60.8005
355.9926,60.7901
355.9758,60.7859
355.7743,60.7351
355.5694,60.6420
355.3843,60.5138
355.2252,60.3547
355.0970,60.1696
355.0039,59.9647
354.9489,59.7464
354.9385,59.6142
354.9385,58.3858
354.9489,58.2536
355.0039,58.0353
355.0970,57.8304
355.2252,57.6453
355.3843,57.4862
355.3843,57.4862
355.5694,57.3580
355.5694,57.3580
355.7743,57.2649
355.9926,57.2099
356.1248,57.1995
357.3532,57.1995
357.4854,57.2099
357.7037,57.2649
357.9069,57.3572
357.9539,57.3588
357.9758,57.3447
358.0343,57.2862
358.2194,57.1580
358.2194,57.1580
358.4243,57.0649
358.4378,57.0615
358.5013,57.0455
358.5390,57.0174
358.5459,56.9708
358.5185,56.9335
358.3707,56.8423
358.2467,56.7183
358.1546,56.5691
358.1546,56.5691
358.1192,56.4623
358.0995,56.4027
358.0995,56.4027
358.0890,56.3000
358.0890,55.9403
358.0710,55.8968
358.0275,55.8788
357.9840,55.8968
357.9690,55.9213
357.9438,55.9990
357.8509,56.1813
357.7441,56.3283
357.0965,55.6807
357.0591,55.7456
356.9846,55.8201
356.9197,55.8575
357.5673,56.5051
357.4204,56.6119
357.2380,56.7048
357.0434,56.7680
357.0434,56.7680
356.8413,56.8000
356.8413,56.8000
356.6367,56.8000
356.6367,56.8000
356.4346,56.7680
356.2400,56.7048
356.0576,56.6119
355.9107,56.5051
356.5583,55.8575
356.4934,55.8201
356.4189,55.7456
356.3815,55.6807
355.7339,56.3283
355.6271,56.1814
355.5342,55.9990
355.4710,55.8044
355.4390,55.6023
355.4390,55.6023
355.4390,55.3977
355.4390,55.3977
355.4710,55.1956
355.5342,55.0010
355.6271,54.8186
355.7339,54.6717
356.3815,55.3192
356.4189,55.2544
356.4934,55.1799
356.5583,55.1425
355.9107,54.4949
356.0577,54.3881
356.2400,54.2952
356.4346,54.2320
356.4346,54.2320
356.6367,54.2000
356.8413,54.2000
357.0434,54.2320
357.2380,54.2952
357.4203,54.3881
357.5673,54.4949
356.9197,55.1425
356.9846,55.1799
357.0591,55.2544
357.0965,55.3193
357.7441,54.6717
357.8509,54.8187
357.9438,55.0010
357.9690,55.0787
357.9996,55.1145
358.0465,55.1182
358.0823,55.0876
358.0890,55.0597
358.0890,54.2000
358.0890,54.2000
358.0995,54.0973
358.1546,53.9309
358.1546,53.9309
358.2467,53.7817
358.3707,53.6577
358.5199,53.5656
358.5199,53.5656
358.6863,53.5105
358.6863,53.5105
358.7890,53.5000
359.3640,53.5000
359.3640,55.1885
359.3820,55.2320
359.4255,55.2500
359.4890,55.2500
359.4890,55.3135
359.5070,55.3570
359.5505,55.3750
360.8890,55.3750
360.8890,56.3000
360.8785,56.4027
360.8234,56.5691
360.8234,56.5691
360.7313,56.7183
360.6073,56.8423
360.4595,56.9335
360.4319,56.9717
360.4394,57.0182
360.4767,57.0455
360.5537,57.0649
360.7586,57.1580
360.7586,57.1580
360.9437,57.2862
360.9437,57.2862
360.9437,57.2862
361.1028,57.4453
361.1028,57.4453
361.1028,57.4453
361.2310,57.6304
361.2310,57.6304
361.3241,57.8353
361.3791,58.0536
361.3895,58.1858
361.3895,60.3142
361.3791,60.4464
361.3241,60.6647
361.2310,60.8696
361.2310,60.8696
361.1028,61.0547
360.9437,61.2138
360.7586,61.3420
360.7586,61.3420
360.7586,61.3420
360.6756,61.3797
360.6434,61.4141
360.6395,61.4357
360.6395,62.7740
360.6575,62.8175
360.7010,62.8355
360.7445,62.8175
360.8718,62.6902
360.8718,62.6901
361.0020,62.5599
361.0116,62.5529
361.0354,62.5173
361.0435,62.4828
361.1296,62.2878
361.2501,62.1119
361.2501,62.1119
361.4009,61.9611
361.5768,61.8406
361.5768,61.8406
361.5768,61.8406
361.7718,61.7545
361.7718,61.7545
361.7718,61.7545
361.8911,61.7264
361.9293,61.6989
361.9385,61.6665
361.9385,60.9040
361.9385,60.9040
361.9447,60.8154
361.9854,60.6420
361.9935,60.6078
362.0796,60.4128
362.2001,60.2369
362.2001,60.2369
362.3509,60.0861
362.5268,59.9656
362.5268,59.9656
362.5268,59.9656
362.7218,59.8795
362.7218,59.8795
362.7218,59.8795
362.9294,59.8306
362.9294,59.8306
363.0180,59.8245
363.0180,59.8245
363.4600,59.8245
363.4600,59.8245
363.5486,59.8306
363.7562,59.8795
363.7562,59.8795
363.7562,59.8795
363.9512,59.9656
363.9512,59.9656
363.9512,59.9656
364.1271,60.0861
364.2779,60.2369
364.3796,60.3853
364.4190,60.4110
364.4303,60.4120
365.5623,60.4120
365.6057,60.3940
365.6185,60.3753
365.6296,60.3503
365.7501,60.1744
365.7501,60.1744
365.9009,60.0236
366.0768,59.9031
366.0768,59.9031
366.0768,59.9031
366.2718,59.8170
366.2718,59.8170
366.2718,59.8170
366.4794,59.7681
366.4794,59.7681
366.5680,59.7620
366.5680,59.7620
367.0100,59.7620
367.0100,59.7620
367.0986,59.7681
367.3062,59.8170
367.3062,59.8170
367.3062,59.8170
367.5012,59.9031
367.5012,59.9031
367.5012,59.9031
367.6771,60.0236
367.8279,60.1744
367.9484,60.3503
367.9484,60.3503
367.9484,60.3503
368.0345,60.5453
368.0345,60.5453
368.0833,60.7529
368.0895,60.8415
368.0895,61.6040
368.1075,61.6475
368.1369,61.6639
368.2562,61.6920
368.2562,61.6920
368.2562,61.6920
368.4512,61.7781
368.4512,61.7781
368.4512,61.7781
368.6271,61.8986
368.7779,62.0494
368.8984,62.2253
368.8984,62.2253
368.8984,62.2253
368.8984,62.2253
368.9845,62.4203
368.9845,62.4203
369.0333,62.6279
369.0395,62.7165
369.0395,64.0335
369.0333,64.1221
369.0191,64.1826
369.0267,64.2291
369.0355,64.2402
369.5057,64.7104
369.5492,64.7284
369.5746,64.7229
369.7243,64.6549
369.9426,64.5999
370.0748,64.5895
371.9032,64.5895
372.0354,64.5999
372.2537,64.6549
372.4586,64.7480
372.4586,64.7480
372.6437,64.8762
372.6437,64.8762
372.6437,64.8762
372.8028,65.0353
372.8028,65.0353
372.8028,65.0353
372.8220,65.0630
372.8616,65.0885
372.8725,65.0895
373.0156,65.0895
373.1867,65.1166
373.3514,65.1701
373.5058,65.2488
373.6459,65.3506
373.6459,65.3506
373.6459,65.3506
373.9559,65.6606
374.0784,65.7831
374.0784,65.7831
374.0784,65.7831
374.1802,65.9232
374.2589,66.0776
374.3124,66.2423
374.3395,66.4134
374.3395,66.4242
374.3575,66.4677
374.4307,66.5409
374.4307,66.5409
374.4307,66.5409
374.5576,66.7241
374.5576,66.7241
374.6497,66.9270
374.7042,67.1431
374.7145,67.2739
374.7145,68.0011
374.7042,68.1319
374.6497,68.3480
374.5576,68.5509
374.5576,68.5509
374.4307,68.7341
374.4307,68.7341
374.4307,68.7341
374.2731,68.8917
374.2361,68.9173
374.2107,68.9569
374.2100,68.9741
374.2140,69.0133
374.2140,69.2375
372.2640,69.2375
372.2640,69.0134
372.2640,69.0134
372.2680,68.9741
372.2545,68.9290
372.2419,68.9173
372.2049,68.8917
372.0473,68.7341
371.9204,68.5509
371.8282,68.3480
371.7738,68.1319
371.7635,68.0011
371.7635,67.8520
371.7455,67.8085
371.7020,67.7905
370.0748,67.7905
369.9426,67.7801
369.7243,67.7251
369.5194,67.6320
369.3343,67.5038
369.1752,67.3447
369.1155,67.2585
369.0866,67.2360
369.0853,67.2355
369.0066,67.2099
368.9759,67.1942
368.9727,67.1930
368.9523,67.1937
368.9320,67.1921
368.9292,67.1944
368.9256,67.1946
368.9117,67.2094
368.8962,67.2227
368.8951,67.2271
368.8934,67.2289
368.8936,67.2335
368.8895,67.2506
368.8895,71.1842
368.8791,71.3164
368.8241,71.5347
368.7310,71.7396
368.7310,71.7396
368.6028,71.9247
368.4437,72.0838
368.2586,72.2120
368.2586,72.2120
368.2586,72.2120
368.2586,72.2120
368.2586,72.2120
368.2146,72.2320
368.1825,72.2664
368.1840,72.3134
368.2184,72.3456
368.2400,72.3495
407.2770,72.3495
407.3205,72.3315
407.3385,72.2880
407.3385,71.1500
372.5890,71.1500
372.5785,71.2527
372.5234,71.4191
372.5234,71.4191
372.4313,71.5683
372.3073,71.6923
372.1581,71.7844
372.1581,71.7844
371.9917,71.8395
371.9917,71.8395
371.8890,71.8500
371.1140,71.8500
370.8640,71.8500
370.0890,71.8500
370.0890,71.8500
369.9863,71.8395
369.8199,71.7844
369.8199,71.7844
369.6707,71.6923
369.5467,71.5683
369.4546,71.4191
369.4546,71.4191
369.3995,71.2527
369.3995,71.2527
369.3890,71.1500
369.3890,71.1500
369.3890,70.8750
370.8640,70.8750
370.8640,71.8500
371.1140,71.8500
371.1140,70.8750
372.5890,70.8750
372.5890,71.1500
407.3385,71.1500
407.3385,61.8683
401.7490,61.8683
401.7490,63.3750
400.4890,63.3750
400.4890,63.6250
401.7490,63.6250
401.7490,65.1317
401.7146,65.3930
401.6464,65.6475
401.6464,65.6475
401.5456,65.8909
401.4138,66.1191
401.2534,66.3281
401.0671,66.5144
400.8581,66.6748
400.6299,66.8066
400.3865,66.9074
400.3865,66.9074
400.1320,66.9756
399.8707,67.0100
399.8707,67.0100
399.8640,67.0100
399.8640,65.4998
399.8129,65.5100
399.6651,65.5100
399.6140,65.4998
399.6140,67.0100
399.6073,67.0100
399.6073,67.0100
399.3460,66.9756
399.0915,66.9074
399.0915,66.9074
398.8481,66.8066
398.6199,66.6748
398.4109,66.5144
398.2246,66.3281
398.0642,66.1191
397.9324,65.8909
397.8316,65.6475
397.8316,65.6475
397.7634,65.3930
397.7290,65.1317
397.7290,65.1317
397.7290,63.6250
398.9890,63.6250
398.9890,63.3750
397.7290,63.3750
397.7290,61.8683
397.7290,61.8683
397.7634,61.6070
397.8316,61.3525
397.8316,61.3525
397.9324,61.1091
398.0642,60.8809
398.2246,60.6719
398.4109,60.4856
398.4189,60.4794
398.4807,60.4320
396.0495,60.4320
396.0495,66.5680
396.0389,66.6874
396.0389,66.6874
395.9829,66.8830
395.9829,66.8830
395.8887,67.0634
395.8887,67.0634
395.8887,67.0634
395.7601,67.2211
395.6024,67.3497
395.6024,67.3497
395.6024,67.3497
395.4220,67.4439
395.3714,67.4584
395.2264,67.4999
395.1070,67.5105
391.9710,67.5105
391.9710,67.5105
391.8516,67.4999
391.8516,67.4999
391.8516,67.4999
391.6560,67.4439
391.4756,67.3497
391.3179,67.2211
391.1893,67.0634
391.0951,66.8830
391.0391,66.6874
391.0285,66.5680
391.0285,61.9970
390.1395,61.9970
390.1395,64.9130
390.1289,65.0324
390.1289,65.0324
390.0729,65.2280
390.0729,65.2280
389.9787,65.4084
389.9787,65.4084
389.9787,65.4084
389.8501,65.5661
389.6924,65.6947
389.6924,65.6947
389.6924,65.6947
389.5120,65.7889
389.4561,65.8049
389.3164,65.8449
389.1970,65.8555
386.2810,65.8555
386.2810,65.8555
386.1616,65.8449
386.1616,65.8449
386.1616,65.8449
385.9660,65.7889
385.8136,65.7093
385.7667,65.7052
385.7501,65.7133
385.7086,65.7420
385.7086,65.7420
385.7086,65.7420
385.5037,65.8351
385.5037,65.8351
385.5037,65.8351
385.3409,65.8761
385.2854,65.8901
385.2751,65.8909
385.1532,65.9005
383.8248,65.9005
383.7984,65.8984
383.7893,65.9014
383.7799,65.8998
383.7678,65.9084
383.7536,65.9130
383.7493,65.9215
383.7415,65.9270
383.7390,65.9417
383.7323,65.9549
383.7336,65.9734
383.7517,66.0525
383.7789,66.0909
383.8165,66.1002
383.8248,66.0995
385.1532,66.0995
385.2854,66.1099
385.5037,66.1649
385.7086,66.2580
385.7086,66.2580
385.8937,66.3862
385.8937,66.3862
386.0528,66.5453
386.1276,66.6534
386.1592,66.6768
386.1702,66.6804
386.2171,66.6767
386.2275,66.6700
386.3477,66.5742
386.3477,66.5742
386.3477,66.5742
386.5760,66.4307
386.7890,66.3281
386.8189,66.3137
386.8189,66.3137
386.8189,66.3137
387.0734,66.2247
387.3363,66.1647
387.6042,66.1345
387.6042,66.1345
387.8738,66.1345
387.8738,66.1345
388.1417,66.1647
388.4046,66.2247
388.6591,66.3137
388.9020,66.4307
389.1303,66.5742
389.3411,66.7423
389.5317,66.9329
389.6998,67.1437
389.8433,67.3720
389.9603,67.6149
390.0493,67.8694
390.1093,68.1323
390.1395,68.4002
390.1395,68.6698
390.1093,68.9377
390.0493,69.2006
389.9603,69.4551
389.8433,69.6980
389.6998,69.9263
389.6998,69.9263
389.5317,70.1371
389.3411,70.3277
389.2505,70.4000
389.1303,70.4958
388.9020,70.6393
388.9020,70.6393
388.9020,70.6393
388.6591,70.7563
388.4046,70.8453
388.1417,70.9053
387.8738,70.9355
387.8738,70.9355
387.6042,70.9355
387.6042,70.9355
387.3363,70.9053
387.0734,70.8453
386.8189,70.7563
386.5760,70.6393
386.5760,70.6393
386.5760,70.6393
386.3477,70.4958
386.3477,70.4958
386.3477,70.4958
386.1369,70.3277
385.9463,70.1371
385.7782,69.9263
385.7068,69.8127
385.6433,69.7116
374.2140,69.7116
374.2037,69.8127
374.2037,69.8127
374.1495,69.9763
374.1495,69.9763
374.0589,70.1230
373.9370,70.2449
373.7903,70.3355
373.7903,70.3355
373.6267,70.3897
373.6267,70.3897
373.5256,70.4000
373.3640,70.4000
373.1140,70.4000
372.9524,70.4000
372.9524,70.4000
372.8513,70.3897
372.8513,70.3897
372.6877,70.3355
372.6877,70.3355
372.6828,70.3324
372.6363,70.3249
372.5982,70.3525
372.5890,70.3848
372.5890,70.6250
371.1140,70.6250
370.8640,70.6250
369.3890,70.6250
369.3890,70.3500
369.3890,70.3500
369.3995,70.2473
369.4546,70.0809
369.4546,70.0809
369.5467,69.9317
369.6707,69.8077
369.8199,69.7156
369.8199,69.7156
369.9863,69.6605
369.9863,69.6605
370.0890,69.6500
370.8640,69.6500
370.8640,70.6250
371.1140,70.6250
371.1140,69.6500
371.8890,69.6500
371.8890,69.6500
371.9917,69.6605
372.1581,69.7156
372.1581,69.7156
372.1702,69.7231
372.2167,69.7306
372.2548,69.7030
372.2640,69.6708
372.2640,69.4875
373.1140,69.4875
373.1140,70.4000
373.3640,70.4000
373.3640,69.4875
374.2140,69.4875
374.2140,69.7116
385.6433,69.7116
385.6347,69.6980
385.6347,69.6980
385.6347,69.6980
385.5177,69.4551
385.4966,69.3946
385.4652,69.3595
385.4235,69.3553
385.3495,69.3739
385.2854,69.3901
385.2718,69.3912
385.1532,69.4005
383.8248,69.4005
383.8248,69.4005
383.6926,69.3901
383.4743,69.3351
383.2694,69.2420
383.0843,69.1138
382.9252,68.9547
382.9060,68.9270
382.8664,68.9015
382.8555,68.9005
382.7485,68.9005
382.7485,68.9005
382.5696,68.8722
382.3974,68.8162
382.3492,68.7917
382.3023,68.7880
382.2946,68.7911
382.2474,68.8138
382.2474,68.8138
382.2474,68.8138
381.9823,68.9066
381.7085,68.9691
381.7085,68.9691
381.4294,69.0005
381.4294,69.0005
381.1486,69.0005
381.1486,69.0005
380.9293,68.9758
380.8695,68.9691
380.5957,68.9066
380.3306,68.8138
380.0776,68.6919
380.0776,68.6919
380.0775,68.6919
379.8531,68.5509
379.8398,68.5425
379.6202,68.3674
379.4216,68.1688
379.2465,67.9492
379.2264,67.9173
379.0971,67.7115
379.0971,67.7114
379.0971,67.7114
378.9752,67.4584
378.8824,67.1933
378.8199,66.9195
378.8000,66.7423
378.7885,66.6404
378.7885,66.6404
378.7885,66.3596
378.7885,66.3596
378.8199,66.0805
378.8199,66.0805
378.8824,65.8067
378.9752,65.5416
379.0971,65.2886
379.0971,65.2886
379.0971,65.2885
379.2465,65.0508
379.3857,64.8762
379.4216,64.8312
379.6202,64.6326
379.8398,64.4575
379.8398,64.4575
380.0775,64.3081
380.1901,64.2538
380.3306,64.1862
380.3306,64.1862
380.3306,64.1862
380.5957,64.0934
380.8695,64.0309
380.8695,64.0309
381.1486,63.9995
381.1486,63.9995
381.4294,63.9995
381.4294,63.9995
381.7085,64.0309
381.7085,64.0309
381.9823,64.0934
382.2474,64.1862
382.5005,64.3081
382.5443,64.3356
382.5907,64.3435
382.6291,64.3162
382.6385,64.2835
382.6385,63.7858
382.6489,63.6536
382.6629,63.5981
382.7039,63.4353
382.7970,63.2304
382.9252,63.0453
383.0843,62.8862
383.0843,62.8862
383.2694,62.7580
383.2694,62.7580
383.4743,62.6649
383.6926,62.6099
383.8248,62.5995
385.1532,62.5995
385.2722,62.6089
385.3169,62.5943
385.3383,62.5524
385.3385,62.5476
385.3385,61.9970
385.3491,61.8776
385.3491,61.8776
385.3491,61.8776
385.4051,61.6820
385.4051,61.6820
385.4051,61.6820
385.4993,61.5016
385.5530,61.4357
385.6279,61.3439
385.7856,61.2153
385.7856,61.2153
385.7856,61.2153
385.7856,61.2153
385.9660,61.1211
386.1616,61.0651
386.2810,61.0545
389.1970,61.0545
389.3164,61.0651
389.3164,61.0651
389.5120,61.1211
389.6924,61.2153
389.8501,61.3439
389.9787,61.5016
390.0729,61.6820
390.1289,61.8776
390.1395,61.9970
391.0285,61.9970
391.0285,60.4320
391.0285,60.4320
391.0391,60.3126
391.0391,60.3126
391.0391,60.3126
391.0951,60.1170
391.0951,60.1169
391.0951,60.1169
391.1893,59.9366
391.1893,59.9366
391.3179,59.7789
391.4756,59.6503
391.4756,59.6503
391.4756,59.6503
391.4756,59.6503
391.6560,59.5561
391.8516,59.5001
391.9710,59.4895
395.1070,59.4895
395.2264,59.5001
395.2264,59.5001
395.4220,59.5561
395.6024,59.6503
395.7601,59.7789
395.8887,59.9366
395.9829,60.1169
396.0389,60.3126
396.0495,60.4320
398.4807,60.4320
398.6199,60.3252
398.8481,60.1934
399.0915,60.0926
399.0915,60.0926
399.3460,60.0244
399.6073,59.9900
399.6140,59.9900
399.6140,61.5002
399.6651,61.4900
399.8129,61.4900
399.8640,61.5002
399.8640,59.9900
399.8707,59.9900
400.1320,60.0244
400.3865,60.0926
400.3865,60.0926
400.6299,60.1934
400.8581,60.3252
401.0671,60.4856
401.2534,60.6719
401.4138,60.8809
401.5456,61.1091
401.6464,61.3525
401.6464,61.3525
401.7146,61.6070
401.7490,61.8683
407.3385,61.8683
407.3385,57.0615
407.3205,57.0180
407.2770,57.0000
383.3005,57.0000
383.2570,57.0180
383.2390,57.0615
383.2390,59.2500
372.2390,59.2500
372.2390,54.2000
360.8890,54.2000
360.8890,55.1250
359.6140,55.1250
359.6140,53.5000
360.1890,53.5000
360.1890,53.5000
360.2917,53.5105
360.4581,53.5656
360.4581,53.5656
360.6073,53.6577
360.7313,53.7817
360.8234,53.9309
360.8234,53.9309
360.8785,54.0973
360.8785,54.0973
360.8890,54.2000
372.2390,54.2000
372.2390,51.5615
372.2210,51.5180
372.1775,51.5000
352.2010,51.5000
Z" /> 
</g>
<g style="fill:#FFFFFF; fill-opacity:1.0000; stroke:none;">
<circle cx="393.7390" cy="24.7500" r="0.1500" /> 
</g>
<g style="fill:#FFFFFF; fill-opacity:1.0000; stroke:none;">
<circle cx="393.2390" cy="52.0000" r="0.1500" /> 
</g>
<g style="fill:#FFFFFF; fill-opacity:1.0000; stroke:none;">
<circle cx="393.7390" cy="26.2500" r="0.1500" /> 
</g>
<g style="fill:#FFFFFF; fill-opacity:1.0000; stroke:none;">
<circle cx="392.4890" cy="41.7500" r="0.1500" /> 
</g>
<g style="fill:#FFFFFF; fill-opacity:1.0000; stroke:none;">
<circle cx="390.7390" cy="39.7500" r="0.1500" /> 
</g>
<g style="fill:#FFFFFF; fill-opacity:1.0000; stroke:none;">
<circle cx="382.4890" cy="31.7500" r="0.1500" /> 
</g>
<g style="fill:#FFFFFF; fill-opacity:1.0000; stroke:none;">
<circle cx="397.4890" cy="51.7500" r="0.1500" /> 
</g>
<g style="fill:#FFFFFF; fill-opacity:1.0000; stroke:none;">
<circle cx="395.2390" cy="53.5000" r="0.1500" /> 
</g>
<g style="fill:#FFFFFF; fill-opacity:1.0000; stroke:none;">
<circle cx="390.7390" cy="25.2500" r="0.1500" /> 
</g>
<g style="fill:#FFFFFF; fill-opacity:1.0000; stroke:none;">
<circle cx="398.2390" cy="28.5000" r="0.1500" /> 
</g>
<g style="fill:#FFFFFF; fill-opacity:1.0000; stroke:none;">
<circle cx="386.9890" cy="45.0000" r="0.1500" /> 
</g>
<g style="fill:#FFFFFF; fill-opacity:1.0000; stroke:none;">
<circle cx="392.2390" cy="23.7500" r="0.1500" /> 
</g>
<g style="fill:#FFFFFF; fill-opacity:1.0000; stroke:none;">
<circle cx="396.4890" cy="29.7500" r="0.1500" /> 
</g>
<g style="fill:#FFFFFF; fill-opacity:1.0000; stroke:none;">
<circle cx="403.2390" cy="30.5000" r="0.1500" /> 
</g>
<g style="fill:#FFFFFF; fill-opacity:1.0000; stroke:none;">
<circle cx="402.2390" cy="28.5000" r="0.1500" /> 
</g>
<g style="fill:#FFFFFF; fill-opacity:1.0000; stroke:none;">
<circle cx="403.2390" cy="36.2500" r="0.1500" /> 
</g>
<g style="fill:#FFFFFF; fill-opacity:1.0000; stroke:none;">
<circle cx="386.7390" cy="43.2500" r="0.1500" /> 
</g>
<g style="fill:#FFFFFF; fill-opacity:1.0000; stroke:none;">
<circle cx="383.4890" cy="30.7500" r="0.1500" /> 
</g>
<g style="fill:#FFFFFF; fill-opacity:1.0000; stroke:none;">
<circle cx="397.7390" cy="31.7500" r="0.1500" /> 
</g>
<g style="fill:#FFFFFF; fill-opacity:1.0000; stroke:none;">
<circle cx="395.9890" cy="28.0000" r="0.1500" /> 
</g>
<g style="fill:#FFFFFF; fill-opacity:1.0000; stroke:none;">
<circle cx="387.2390" cy="39.7500" r="0.1500" /> 
</g>
<g style="fill:#FFFFFF; fill-opacity:1.0000; stroke:none;">
<circle cx="384.7390" cy="30.7500" r="0.1500" /> 
</g>
<g style="fill:#FFFFFF; fill-opacity:1.0000; stroke:none;">
<circle cx="397.9397" cy="35.7993" r="0.1500" /> 
</g>
<g style="fill:#FFFFFF; fill-opacity:1.0000; stroke:none;">
<circle cx="405.8265" cy="45.2500" r="0.5500" /> 
</g>
<g style="fill:#FFFFFF; fill-opacity:1.0000; stroke:none;">
<circle cx="405.8265" cy="38.7500" r="0.5500" /> 
</g>
<g style="fill:#FFFFFF; fill-opacity:1.0000; stroke:none;">
<circle cx="401.3265" cy="45.2500" r="0.5500" /> 
</g>
<g style="fill:#FFFFFF; fill-opacity:1.0000; stroke:none;">
<circle cx="401.3265" cy="38.7500" r="0.5500" /> 
</g>
<g style="fill:#FFFFFF; fill-opacity:1.0000; stroke:none;">
<circle cx="356.7390" cy="59.0000" r="0.4000" /> 
</g>
<g style="fill:#FFFFFF; fill-opacity:1.0000; stroke:none;">
<circle cx="356.7390" cy="55.5000" r="0.4000" /> 
</g>
<g style="fill:#FFFFFF; fill-opacity:1.0000; stroke:none;">
<circle cx="381.2890" cy="66.5000" r="0.7500" /> 
</g>
<g style="fill:#FFFFFF; fill-opacity:1.0000; stroke:none;">
<circle cx="358.6890" cy="66.5000" r="0.7500" /> 
</g>
<g style="fill:#FFFFFF; fill-opacity:1.0000; stroke:none;">
<circle cx="368.9890" cy="31.0000" r="0.8000" /> 
</g>
<g style="fill:#FFFFFF; fill-opacity:1.0000; stroke:none;">
<circle cx="387.7390" cy="63.4550" r="0.8750" /> 
</g>
<g style="fill:#FFFFFF; fill-opacity:1.0000; stroke:none;">
<circle cx="387.7390" cy="68.5350" r="0.8750" /> 
</g>
<g style="fill:none; 
stroke:#FFFFFF; stroke-width:1.5000; stroke-opacity:1; 
stroke-linecap:round; stroke-linejoin:round;">
<path d="M393.5390 62.2400
L393.5390 64.7600
" />
<path d="M399.7390 62.2400
L399.7390 64.7600
" />
</g>
<g style="fill:#FFFFFF; fill-opacity:1.0000; stroke:none;">
<circle cx="380.5915" cy="26.0875" r="0.5000" /> 
</g>
<g style="fill:#FFFFFF; fill-opacity:1.0000; stroke:none;">
<circle cx="383.1315" cy="26.0875" r="0.5000" /> 
</g>
<g style="fill:#FFFFFF; fill-opacity:1.0000; stroke:none;">
<circle cx="385.6715" cy="26.0875" r="0.5000" /> 
</g>
<g style="fill:#FFFFFF; fill-opacity:1.0000; stroke:none;">
<circle cx="388.2115" cy="26.0875" r="0.5000" /> 
</g> 
</svg>
