<?xml version="1.0" standalone="no"?>
 <!DOCTYPE svg PUBLIC "-//W3C//DTD SVG 1.1//EN" 
 "http://www.w3.org/Graphics/SVG/1.1/DTD/svg11.dtd"> 
<svg
  xmlns:svg="http://www.w3.org/2000/svg"
  xmlns="http://www.w3.org/2000/svg"
  xmlns:xlink="http://www.w3.org/1999/xlink"
  version="1.1"
  width="419.9890mm" height="297.0022mm" viewBox="0.0000 0.0000 419.9890 297.0022">
<title>SVG Image created as ECAD_main-B_Silkscreen3.svg date 2025/10/27 20:24:38 </title>
  <desc>Image generated by PCBNEW </desc>
<g style="fill:#000000; fill-opacity:1.0000;stroke:#000000; stroke-opacity:1.0000;
stroke-linecap:round; stroke-linejoin:round;"
 transform="translate(0 0) scale(1 1)">
</g>
<g style="fill:none; 
stroke:#000000; stroke-width:0.1500; stroke-opacity:1; 
stroke-linecap:round; stroke-linejoin:round;">
<text x="375.7390" y="69.0000"
textLength="3.1548" font-size="1.3333" lengthAdjust="spacingAndGlyphs"
text-anchor="middle" opacity="0" stroke-opacity="0">C11</text>
<g class="stroked-text"><desc>C11</desc>
<path d="M375.0961 68.8596
L375.0485 68.9072
" />
<path d="M375.0485 68.9072
L374.9057 68.9548
" />
<path d="M374.9057 68.9548
L374.8104 68.9548
" />
<path d="M374.8104 68.9548
L374.6676 68.9072
" />
<path d="M374.6676 68.9072
L374.5723 68.8120
" />
<path d="M374.5723 68.8120
L374.5247 68.7167
" />
<path d="M374.5247 68.7167
L374.4771 68.5262
" />
<path d="M374.4771 68.5262
L374.4771 68.3834
" />
<path d="M374.4771 68.3834
L374.5247 68.1929
" />
<path d="M374.5247 68.1929
L374.5723 68.0977
" />
<path d="M374.5723 68.0977
L374.6676 68.0024
" />
<path d="M374.6676 68.0024
L374.8104 67.9548
" />
<path d="M374.8104 67.9548
L374.9057 67.9548
" />
<path d="M374.9057 67.9548
L375.0485 68.0024
" />
<path d="M375.0485 68.0024
L375.0961 68.0501
" />
<path d="M376.0485 68.9548
L375.4771 68.9548
" />
<path d="M375.7628 68.9548
L375.7628 67.9548
" />
<path d="M375.7628 67.9548
L375.6676 68.0977
" />
<path d="M375.6676 68.0977
L375.5723 68.1929
" />
<path d="M375.5723 68.1929
L375.4771 68.2405
" />
<path d="M377.0009 68.9548
L376.4295 68.9548
" />
<path d="M376.7152 68.9548
L376.7152 67.9548
" />
<path d="M376.7152 67.9548
L376.6200 68.0977
" />
<path d="M376.6200 68.0977
L376.5247 68.1929
" />
<path d="M376.5247 68.1929
L376.4295 68.2405
" />
</g><text x="395.9890" y="33.7500"
textLength="2.2024" font-size="1.3333" lengthAdjust="spacingAndGlyphs"
text-anchor="middle" opacity="0" stroke-opacity="0">C2</text>
<g class="stroked-text"><desc>C2</desc>
<path d="M395.8223 33.6096
L395.7747 33.6572
" />
<path d="M395.7747 33.6572
L395.6319 33.7048
" />
<path d="M395.6319 33.7048
L395.5366 33.7048
" />
<path d="M395.5366 33.7048
L395.3938 33.6572
" />
<path d="M395.3938 33.6572
L395.2985 33.5620
" />
<path d="M395.2985 33.5620
L395.2509 33.4667
" />
<path d="M395.2509 33.4667
L395.2033 33.2762
" />
<path d="M395.2033 33.2762
L395.2033 33.1334
" />
<path d="M395.2033 33.1334
L395.2509 32.9429
" />
<path d="M395.2509 32.9429
L395.2985 32.8477
" />
<path d="M395.2985 32.8477
L395.3938 32.7524
" />
<path d="M395.3938 32.7524
L395.5366 32.7048
" />
<path d="M395.5366 32.7048
L395.6319 32.7048
" />
<path d="M395.6319 32.7048
L395.7747 32.7524
" />
<path d="M395.7747 32.7524
L395.8223 32.8001
" />
<path d="M396.2033 32.8001
L396.2509 32.7524
" />
<path d="M396.2509 32.7524
L396.3461 32.7048
" />
<path d="M396.3461 32.7048
L396.5842 32.7048
" />
<path d="M396.5842 32.7048
L396.6795 32.7524
" />
<path d="M396.6795 32.7524
L396.7271 32.8001
" />
<path d="M396.7271 32.8001
L396.7747 32.8953
" />
<path d="M396.7747 32.8953
L396.7747 32.9905
" />
<path d="M396.7747 32.9905
L396.7271 33.1334
" />
<path d="M396.7271 33.1334
L396.1557 33.7048
" />
<path d="M396.1557 33.7048
L396.7747 33.7048
" />
</g><text x="359.7390" y="70.7500"
textLength="2.2500" font-size="1.3333" lengthAdjust="spacingAndGlyphs"
text-anchor="middle" opacity="0" stroke-opacity="0">Q1</text>
<g class="stroked-text"><desc>Q1</desc>
<path d="M359.6438 70.8001
L359.5485 70.7524
" />
<path d="M359.5485 70.7524
L359.4533 70.6572
" />
<path d="M359.4533 70.6572
L359.3104 70.5143
" />
<path d="M359.3104 70.5143
L359.2152 70.4667
" />
<path d="M359.2152 70.4667
L359.1200 70.4667
" />
<path d="M359.1676 70.7048
L359.0723 70.6572
" />
<path d="M359.0723 70.6572
L358.9771 70.5620
" />
<path d="M358.9771 70.5620
L358.9295 70.3715
" />
<path d="M358.9295 70.3715
L358.9295 70.0382
" />
<path d="M358.9295 70.0382
L358.9771 69.8477
" />
<path d="M358.9771 69.8477
L359.0723 69.7524
" />
<path d="M359.0723 69.7524
L359.1676 69.7048
" />
<path d="M359.1676 69.7048
L359.3580 69.7048
" />
<path d="M359.3580 69.7048
L359.4533 69.7524
" />
<path d="M359.4533 69.7524
L359.5485 69.8477
" />
<path d="M359.5485 69.8477
L359.5961 70.0382
" />
<path d="M359.5961 70.0382
L359.5961 70.3715
" />
<path d="M359.5961 70.3715
L359.5485 70.5620
" />
<path d="M359.5485 70.5620
L359.4533 70.6572
" />
<path d="M359.4533 70.6572
L359.3580 70.7048
" />
<path d="M359.3580 70.7048
L359.1676 70.7048
" />
<path d="M360.5485 70.7048
L359.9771 70.7048
" />
<path d="M360.2628 70.7048
L360.2628 69.7048
" />
<path d="M360.2628 69.7048
L360.1676 69.8477
" />
<path d="M360.1676 69.8477
L360.0723 69.9429
" />
<path d="M360.0723 69.9429
L359.9771 69.9905
" />
</g><text x="383.4890" y="62.5000"
textLength="3.0119" font-size="1.3333" lengthAdjust="spacingAndGlyphs"
text-anchor="middle" opacity="0" stroke-opacity="0">TH1</text>
<g class="stroked-text"><desc>TH1</desc>
<path d="M382.2033 61.4548
L382.7747 61.4548
" />
<path d="M382.4890 62.4548
L382.4890 61.4548
" />
<path d="M383.1080 62.4548
L383.1080 61.4548
" />
<path d="M383.1080 61.9310
L383.6795 61.9310
" />
<path d="M383.6795 62.4548
L383.6795 61.4548
" />
<path d="M384.6795 62.4548
L384.1080 62.4548
" />
<path d="M384.3938 62.4548
L384.3938 61.4548
" />
<path d="M384.3938 61.4548
L384.2985 61.5977
" />
<path d="M384.2985 61.5977
L384.2033 61.6929
" />
<path d="M384.2033 61.6929
L384.1080 61.7405
" />
</g><text x="362.4890" y="57.5000"
textLength="2.2024" font-size="1.3333" lengthAdjust="spacingAndGlyphs"
text-anchor="middle" opacity="0" stroke-opacity="0">D6</text>
<g class="stroked-text"><desc>D6</desc>
<path d="M361.7509 57.4548
L361.7509 56.4548
" />
<path d="M361.7509 56.4548
L361.9890 56.4548
" />
<path d="M361.9890 56.4548
L362.1319 56.5024
" />
<path d="M362.1319 56.5024
L362.2271 56.5977
" />
<path d="M362.2271 56.5977
L362.2747 56.6929
" />
<path d="M362.2747 56.6929
L362.3223 56.8834
" />
<path d="M362.3223 56.8834
L362.3223 57.0262
" />
<path d="M362.3223 57.0262
L362.2747 57.2167
" />
<path d="M362.2747 57.2167
L362.2271 57.3120
" />
<path d="M362.2271 57.3120
L362.1319 57.4072
" />
<path d="M362.1319 57.4072
L361.9890 57.4548
" />
<path d="M361.9890 57.4548
L361.7509 57.4548
" />
<path d="M363.1795 56.4548
L362.9890 56.4548
" />
<path d="M362.9890 56.4548
L362.8938 56.5024
" />
<path d="M362.8938 56.5024
L362.8461 56.5501
" />
<path d="M362.8461 56.5501
L362.7509 56.6929
" />
<path d="M362.7509 56.6929
L362.7033 56.8834
" />
<path d="M362.7033 56.8834
L362.7033 57.2643
" />
<path d="M362.7033 57.2643
L362.7509 57.3596
" />
<path d="M362.7509 57.3596
L362.7985 57.4072
" />
<path d="M362.7985 57.4072
L362.8938 57.4548
" />
<path d="M362.8938 57.4548
L363.0842 57.4548
" />
<path d="M363.0842 57.4548
L363.1795 57.4072
" />
<path d="M363.1795 57.4072
L363.2271 57.3596
" />
<path d="M363.2271 57.3596
L363.2747 57.2643
" />
<path d="M363.2747 57.2643
L363.2747 57.0262
" />
<path d="M363.2747 57.0262
L363.2271 56.9310
" />
<path d="M363.2271 56.9310
L363.1795 56.8834
" />
<path d="M363.1795 56.8834
L363.0842 56.8358
" />
<path d="M363.0842 56.8358
L362.8938 56.8358
" />
<path d="M362.8938 56.8358
L362.7985 56.8834
" />
<path d="M362.7985 56.8834
L362.7509 56.9310
" />
<path d="M362.7509 56.9310
L362.7033 57.0262
" />
</g><text x="359.7390" y="63.5000"
textLength="2.2024" font-size="1.3333" lengthAdjust="spacingAndGlyphs"
text-anchor="middle" opacity="0" stroke-opacity="0">D5</text>
<g class="stroked-text"><desc>D5</desc>
<path d="M359.0009 63.4548
L359.0009 62.4548
" />
<path d="M359.0009 62.4548
L359.2390 62.4548
" />
<path d="M359.2390 62.4548
L359.3819 62.5024
" />
<path d="M359.3819 62.5024
L359.4771 62.5977
" />
<path d="M359.4771 62.5977
L359.5247 62.6929
" />
<path d="M359.5247 62.6929
L359.5723 62.8834
" />
<path d="M359.5723 62.8834
L359.5723 63.0262
" />
<path d="M359.5723 63.0262
L359.5247 63.2167
" />
<path d="M359.5247 63.2167
L359.4771 63.3120
" />
<path d="M359.4771 63.3120
L359.3819 63.4072
" />
<path d="M359.3819 63.4072
L359.2390 63.4548
" />
<path d="M359.2390 63.4548
L359.0009 63.4548
" />
<path d="M360.4771 62.4548
L360.0009 62.4548
" />
<path d="M360.0009 62.4548
L359.9533 62.9310
" />
<path d="M359.9533 62.9310
L360.0009 62.8834
" />
<path d="M360.0009 62.8834
L360.0961 62.8358
" />
<path d="M360.0961 62.8358
L360.3342 62.8358
" />
<path d="M360.3342 62.8358
L360.4295 62.8834
" />
<path d="M360.4295 62.8834
L360.4771 62.9310
" />
<path d="M360.4771 62.9310
L360.5247 63.0262
" />
<path d="M360.5247 63.0262
L360.5247 63.2643
" />
<path d="M360.5247 63.2643
L360.4771 63.3596
" />
<path d="M360.4771 63.3596
L360.4295 63.4072
" />
<path d="M360.4295 63.4072
L360.3342 63.4548
" />
<path d="M360.3342 63.4548
L360.0961 63.4548
" />
<path d="M360.0961 63.4548
L360.0009 63.4072
" />
<path d="M360.0009 63.4072
L359.9533 63.3596
" />
</g><text x="369.7390" y="62.9375"
textLength="2.2024" font-size="1.3333" lengthAdjust="spacingAndGlyphs"
text-anchor="middle" opacity="0" stroke-opacity="0">D7</text>
<g class="stroked-text"><desc>D7</desc>
<path d="M369.0009 62.8923
L369.0009 61.8923
" />
<path d="M369.0009 61.8923
L369.2390 61.8923
" />
<path d="M369.2390 61.8923
L369.3819 61.9399
" />
<path d="M369.3819 61.9399
L369.4771 62.0352
" />
<path d="M369.4771 62.0352
L369.5247 62.1304
" />
<path d="M369.5247 62.1304
L369.5723 62.3209
" />
<path d="M369.5723 62.3209
L369.5723 62.4637
" />
<path d="M369.5723 62.4637
L369.5247 62.6542
" />
<path d="M369.5247 62.6542
L369.4771 62.7495
" />
<path d="M369.4771 62.7495
L369.3819 62.8447
" />
<path d="M369.3819 62.8447
L369.2390 62.8923
" />
<path d="M369.2390 62.8923
L369.0009 62.8923
" />
<path d="M369.9057 61.8923
L370.5723 61.8923
" />
<path d="M370.5723 61.8923
L370.1438 62.8923
" />
</g><text x="403.4687" y="44.2500"
textLength="2.2024" font-size="1.3333" lengthAdjust="spacingAndGlyphs"
text-anchor="middle" opacity="0" stroke-opacity="0">C7</text>
<g class="stroked-text"><desc>C7</desc>
<path d="M403.3020 44.1096
L403.2544 44.1572
" />
<path d="M403.2544 44.1572
L403.1115 44.2048
" />
<path d="M403.1115 44.2048
L403.0163 44.2048
" />
<path d="M403.0163 44.2048
L402.8734 44.1572
" />
<path d="M402.8734 44.1572
L402.7782 44.0620
" />
<path d="M402.7782 44.0620
L402.7306 43.9667
" />
<path d="M402.7306 43.9667
L402.6830 43.7762
" />
<path d="M402.6830 43.7762
L402.6830 43.6334
" />
<path d="M402.6830 43.6334
L402.7306 43.4429
" />
<path d="M402.7306 43.4429
L402.7782 43.3477
" />
<path d="M402.7782 43.3477
L402.8734 43.2524
" />
<path d="M402.8734 43.2524
L403.0163 43.2048
" />
<path d="M403.0163 43.2048
L403.1115 43.2048
" />
<path d="M403.1115 43.2048
L403.2544 43.2524
" />
<path d="M403.2544 43.2524
L403.3020 43.3001
" />
<path d="M403.6353 43.2048
L404.3020 43.2048
" />
<path d="M404.3020 43.2048
L403.8734 44.2048
" />
</g></g>
<g style="fill:none; 
stroke:#000000; stroke-width:0.1200; stroke-opacity:1; 
stroke-linecap:round; stroke-linejoin:round;">
<path d="M373.7490 68.3537
L373.7490 68.6463
" />
<path d="M372.7290 68.3537
L372.7290 68.6463
" />
<path d="M397.1312 34.3900
L397.3468 34.3900
" />
<path d="M397.1312 35.1100
L397.3468 35.1100
" />
<path d="M369.2590 65.0200
L369.2590 65.2900
" />
<path d="M369.2590 71.9200
L369.2590 71.6500
" />
<path d="M362.8390 65.0200
L369.2590 65.0200
" />
<path d="M362.8390 71.9200
L369.2590 71.9200
" />
<path style="fill:#000000; fill-opacity:1.0000; 
stroke:#000000; stroke-width:0.1200; stroke-opacity:1; 
stroke-linecap:round; stroke-linejoin:round;fill-rule:evenodd;"
d="M 370.6490,72.0800
371.3290,72.0800
370.9890,71.6100
Z" /> 
</g>
<g style="fill:none; 
stroke:#000000; stroke-width:0.1200; stroke-opacity:1; 
stroke-linecap:round; stroke-linejoin:round;">
<path d="M385.5990 63.3400
L383.3790 63.3400
" />
<path d="M385.5990 67.7500
L385.5990 63.3400
" />
<path d="M383.3790 63.3400
L383.3790 67.7500
" />
<path d="M361.1390 60.7600
L361.1390 55.2500
" />
<path d="M357.8390 60.7600
L361.1390 60.7600
" />
<path d="M357.8390 60.7600
L357.8390 55.2500
" />
<path d="M364.7990 62.5000
L364.7990 61.8500
" />
<path d="M364.7990 62.5000
L364.7990 63.1500
" />
<path d="M361.6790 62.5000
L361.6790 61.8500
" />
<path d="M361.6790 62.5000
L361.6790 63.1500
" />
<path style="fill:#000000; fill-opacity:1.0000; 
stroke:#000000; stroke-width:0.1200; stroke-opacity:1; 
stroke-linecap:round; stroke-linejoin:round;fill-rule:evenodd;"
d="M 361.3990,63.9025
361.7290,63.6625
361.3990,63.4225
Z" /> 
</g>
<g style="fill:none; 
stroke:#000000; stroke-width:0.1200; stroke-opacity:1; 
stroke-linecap:round; stroke-linejoin:round;">
<path d="M368.3490 62.4375
L368.3490 61.7875
" />
<path d="M368.3490 62.4375
L368.3490 63.0875
" />
<path d="M365.2290 62.4375
L365.2290 61.7875
" />
<path d="M365.2290 62.4375
L365.2290 63.0875
" />
<path style="fill:#000000; fill-opacity:1.0000; 
stroke:#000000; stroke-width:0.1200; stroke-opacity:1; 
stroke-linecap:round; stroke-linejoin:round;fill-rule:evenodd;"
d="M 364.9490,63.8400
365.2790,63.6000
364.9490,63.3600
Z" /> 
</g>
<g style="fill:none; 
stroke:#000000; stroke-width:0.1200; stroke-opacity:1; 
stroke-linecap:round; stroke-linejoin:round;">
<path d="M403.6843 44.9100
L403.4687 44.9100
" />
<path d="M403.6843 45.6300
L403.4687 45.6300
" />
</g> 
</svg>
