<?xml version="1.0" standalone="no"?>
 <!DOCTYPE svg PUBLIC "-//W3C//DTD SVG 1.1//EN" 
 "http://www.w3.org/Graphics/SVG/1.1/DTD/svg11.dtd"> 
<svg
  xmlns:svg="http://www.w3.org/2000/svg"
  xmlns="http://www.w3.org/2000/svg"
  xmlns:xlink="http://www.w3.org/1999/xlink"
  version="1.1"
  width="419.9890mm" height="297.0022mm" viewBox="0.0000 0.0000 419.9890 297.0022">
<title>SVG Image created as ECAD_main-B_Courtyard0.svg date 2025/10/27 20:25:42 </title>
  <desc>Image generated by PCBNEW </desc>
<g style="fill:#000000; fill-opacity:1.0000;stroke:#000000; stroke-opacity:1.0000;
stroke-linecap:round; stroke-linejoin:round;"
 transform="translate(0 0) scale(1 1)">
</g>
<g style="fill:none; 
stroke:#000000; stroke-width:0.0500; stroke-opacity:1; 
stroke-linecap:round; stroke-linejoin:round;">
<path d="M373.9690 66.8500
L373.9690 70.1500
" />
<path d="M373.9690 70.1500
L372.5090 70.1500
" />
<path d="M372.5090 66.8500
L373.9690 66.8500
" />
<path d="M372.5090 70.1500
L372.5090 66.8500
" />
<path d="M398.1490 34.2900
L398.1490 35.2100
" />
<path d="M398.1490 35.2100
L396.3290 35.2100
" />
<path d="M396.3290 34.2900
L398.1490 34.2900
" />
<path d="M396.3290 35.2100
L396.3290 34.2900
" />
<path style="fill:none; 
stroke:#000000; stroke-width:0.0500; stroke-opacity:1; 
stroke-linecap:round; stroke-linejoin:round;fill:none"
d="M 372.3390,71.9700
361.2390,71.9700
361.2390,64.9700
372.3390,64.9700
Z" /> 
<path d="M385.5890 63.3500
L385.5890 68.6500
" />
<path d="M385.5890 68.6500
L383.3890 68.6500
" />
<path d="M383.3890 63.3500
L385.5890 63.3500
" />
<path d="M383.3890 68.6500
L383.3890 63.3500
" />
<path d="M361.2390 53.7500
L361.2390 60.7500
" />
<path d="M361.2390 60.7500
L357.7390 60.7500
" />
<path d="M357.7390 53.7500
L361.2390 53.7500
" />
<path d="M357.7390 60.7500
L357.7390 53.7500
" />
<path d="M364.9390 61.6000
L364.9390 63.4000
" />
<path d="M364.9390 63.4000
L364.7390 63.4000
" />
<path d="M364.7390 63.4000
L364.7390 64.4300
" />
<path d="M364.7390 64.4300
L361.7390 64.4300
" />
<path d="M363.7890 60.5700
L363.7890 61.6000
" />
<path d="M363.7890 61.6000
L364.9390 61.6000
" />
<path d="M362.6890 60.5700
L363.7890 60.5700
" />
<path d="M362.6890 61.6000
L362.6890 60.5700
" />
<path d="M361.7390 63.4000
L361.5390 63.4000
" />
<path d="M361.7390 64.4300
L361.7390 63.4000
" />
<path d="M361.5390 61.6000
L362.6890 61.6000
" />
<path d="M361.5390 63.4000
L361.5390 61.6000
" />
<path d="M368.4890 61.5375
L368.4890 63.3375
" />
<path d="M368.4890 63.3375
L368.2890 63.3375
" />
<path d="M368.2890 63.3375
L368.2890 64.3675
" />
<path d="M368.2890 64.3675
L365.2890 64.3675
" />
<path d="M367.3390 60.5075
L367.3390 61.5375
" />
<path d="M367.3390 61.5375
L368.4890 61.5375
" />
<path d="M366.2390 60.5075
L367.3390 60.5075
" />
<path d="M366.2390 61.5375
L366.2390 60.5075
" />
<path d="M365.2890 63.3375
L365.0890 63.3375
" />
<path d="M365.2890 64.3675
L365.2890 63.3375
" />
<path d="M365.0890 61.5375
L366.2390 61.5375
" />
<path d="M365.0890 63.3375
L365.0890 61.5375
" />
<path d="M404.4865 44.8100
L404.4865 45.7300
" />
<path d="M404.4865 45.7300
L402.6665 45.7300
" />
<path d="M402.6665 44.8100
L404.4865 44.8100
" />
<path d="M402.6665 45.7300
L402.6665 44.8100
" />
</g> 
</svg>
