<?xml version="1.0" standalone="no"?>
 <!DOCTYPE svg PUBLIC "-//W3C//DTD SVG 1.1//EN" 
 "http://www.w3.org/Graphics/SVG/1.1/DTD/svg11.dtd"> 
<svg
  xmlns:svg="http://www.w3.org/2000/svg"
  xmlns="http://www.w3.org/2000/svg"
  xmlns:xlink="http://www.w3.org/1999/xlink"
  version="1.1"
  width="419.9890mm" height="297.0022mm" viewBox="0.0000 0.0000 419.9890 297.0022">
<title>SVG Image created as ECAD_main-F_Silkscreen3.svg date 2025/10/27 20:24:46 </title>
  <desc>Image generated by PCBNEW </desc>
<g style="fill:#000000; fill-opacity:1.0000;stroke:#000000; stroke-opacity:1.0000;
stroke-linecap:round; stroke-linejoin:round;"
 transform="translate(0 0) scale(1 1)">
</g>
<g style="fill:none; 
stroke:#000000; stroke-width:0.1500; stroke-opacity:1; 
stroke-linecap:round; stroke-linejoin:round;">
<text x="42.7500" y="32.2500"
textLength="2.9643" font-size="1.3333" lengthAdjust="spacingAndGlyphs"
text-anchor="middle" opacity="0" stroke-opacity="0">TP2</text>
<g class="stroked-text"><desc>TP2</desc>
<path d="M41.4881 31.2048
L42.0595 31.2048
" />
<path d="M41.7738 32.2048
L41.7738 31.2048
" />
<path d="M42.3929 32.2048
L42.3929 31.2048
" />
<path d="M42.3929 31.2048
L42.7738 31.2048
" />
<path d="M42.7738 31.2048
L42.8690 31.2524
" />
<path d="M42.8690 31.2524
L42.9167 31.3001
" />
<path d="M42.9167 31.3001
L42.9643 31.3953
" />
<path d="M42.9643 31.3953
L42.9643 31.5382
" />
<path d="M42.9643 31.5382
L42.9167 31.6334
" />
<path d="M42.9167 31.6334
L42.8690 31.6810
" />
<path d="M42.8690 31.6810
L42.7738 31.7286
" />
<path d="M42.7738 31.7286
L42.3929 31.7286
" />
<path d="M43.3452 31.3001
L43.3929 31.2524
" />
<path d="M43.3929 31.2524
L43.4881 31.2048
" />
<path d="M43.4881 31.2048
L43.7262 31.2048
" />
<path d="M43.7262 31.2048
L43.8214 31.2524
" />
<path d="M43.8214 31.2524
L43.8690 31.3001
" />
<path d="M43.8690 31.3001
L43.9167 31.3953
" />
<path d="M43.9167 31.3953
L43.9167 31.4905
" />
<path d="M43.9167 31.4905
L43.8690 31.6334
" />
<path d="M43.8690 31.6334
L43.2976 32.2048
" />
<path d="M43.2976 32.2048
L43.9167 32.2048
" />
</g><g transform="rotate(-90.000000 21.0000 42.0000)">
<text x="21.0000" y="42.5000"
textLength="3.2976" font-size="1.3333" lengthAdjust="spacingAndGlyphs"
text-anchor="middle" opacity="0" stroke-opacity="0">SW1</text>
</g>
<g class="stroked-text"><desc>SW1</desc>
<path d="M21.4072 43.3333
L21.4548 43.1905
" />
<path d="M21.4548 43.1905
L21.4548 42.9524
" />
<path d="M21.4548 42.9524
L21.4072 42.8571
" />
<path d="M21.4072 42.8571
L21.3596 42.8095
" />
<path d="M21.3596 42.8095
L21.2643 42.7619
" />
<path d="M21.2643 42.7619
L21.1691 42.7619
" />
<path d="M21.1691 42.7619
L21.0739 42.8095
" />
<path d="M21.0739 42.8095
L21.0262 42.8571
" />
<path d="M21.0262 42.8571
L20.9786 42.9524
" />
<path d="M20.9786 42.9524
L20.9310 43.1429
" />
<path d="M20.9310 43.1429
L20.8834 43.2381
" />
<path d="M20.8834 43.2381
L20.8358 43.2857
" />
<path d="M20.8358 43.2857
L20.7405 43.3333
" />
<path d="M20.7405 43.3333
L20.6453 43.3333
" />
<path d="M20.6453 43.3333
L20.5501 43.2857
" />
<path d="M20.5501 43.2857
L20.5024 43.2381
" />
<path d="M20.5024 43.2381
L20.4548 43.1429
" />
<path d="M20.4548 43.1429
L20.4548 42.9048
" />
<path d="M20.4548 42.9048
L20.5024 42.7619
" />
<path d="M20.4548 42.4286
L21.4548 42.1905
" />
<path d="M21.4548 42.1905
L20.7405 42.0000
" />
<path d="M20.7405 42.0000
L21.4548 41.8095
" />
<path d="M21.4548 41.8095
L20.4548 41.5714
" />
<path d="M21.4548 40.6667
L21.4548 41.2381
" />
<path d="M21.4548 40.9524
L20.4548 40.9524
" />
<path d="M20.4548 40.9524
L20.5977 41.0476
" />
<path d="M20.5977 41.0476
L20.6929 41.1429
" />
<path d="M20.6929 41.1429
L20.7405 41.2381
" />
</g><text x="59.2500" y="53.2500"
textLength="3.1548" font-size="1.3333" lengthAdjust="spacingAndGlyphs"
text-anchor="middle" opacity="0" stroke-opacity="0">C10</text>
<g class="stroked-text"><desc>C10</desc>
<path d="M58.6071 53.1096
L58.5595 53.1572
" />
<path d="M58.5595 53.1572
L58.4167 53.2048
" />
<path d="M58.4167 53.2048
L58.3214 53.2048
" />
<path d="M58.3214 53.2048
L58.1786 53.1572
" />
<path d="M58.1786 53.1572
L58.0833 53.0620
" />
<path d="M58.0833 53.0620
L58.0357 52.9667
" />
<path d="M58.0357 52.9667
L57.9881 52.7762
" />
<path d="M57.9881 52.7762
L57.9881 52.6334
" />
<path d="M57.9881 52.6334
L58.0357 52.4429
" />
<path d="M58.0357 52.4429
L58.0833 52.3477
" />
<path d="M58.0833 52.3477
L58.1786 52.2524
" />
<path d="M58.1786 52.2524
L58.3214 52.2048
" />
<path d="M58.3214 52.2048
L58.4167 52.2048
" />
<path d="M58.4167 52.2048
L58.5595 52.2524
" />
<path d="M58.5595 52.2524
L58.6071 52.3001
" />
<path d="M59.5595 53.2048
L58.9881 53.2048
" />
<path d="M59.2738 53.2048
L59.2738 52.2048
" />
<path d="M59.2738 52.2048
L59.1786 52.3477
" />
<path d="M59.1786 52.3477
L59.0833 52.4429
" />
<path d="M59.0833 52.4429
L58.9881 52.4905
" />
<path d="M60.1786 52.2048
L60.2738 52.2048
" />
<path d="M60.2738 52.2048
L60.3690 52.2524
" />
<path d="M60.3690 52.2524
L60.4167 52.3001
" />
<path d="M60.4167 52.3001
L60.4643 52.3953
" />
<path d="M60.4643 52.3953
L60.5119 52.5858
" />
<path d="M60.5119 52.5858
L60.5119 52.8239
" />
<path d="M60.5119 52.8239
L60.4643 53.0143
" />
<path d="M60.4643 53.0143
L60.4167 53.1096
" />
<path d="M60.4167 53.1096
L60.3690 53.1572
" />
<path d="M60.3690 53.1572
L60.2738 53.2048
" />
<path d="M60.2738 53.2048
L60.1786 53.2048
" />
<path d="M60.1786 53.2048
L60.0833 53.1572
" />
<path d="M60.0833 53.1572
L60.0357 53.1096
" />
<path d="M60.0357 53.1096
L59.9881 53.0143
" />
<path d="M59.9881 53.0143
L59.9405 52.8239
" />
<path d="M59.9405 52.8239
L59.9405 52.5858
" />
<path d="M59.9405 52.5858
L59.9881 52.3953
" />
<path d="M59.9881 52.3953
L60.0357 52.3001
" />
<path d="M60.0357 52.3001
L60.0833 52.2524
" />
<path d="M60.0833 52.2524
L60.1786 52.2048
" />
</g><text x="21.0000" y="48.0000"
textLength="2.2024" font-size="1.3333" lengthAdjust="spacingAndGlyphs"
text-anchor="middle" opacity="0" stroke-opacity="0">D2</text>
<g class="stroked-text"><desc>D2</desc>
<path d="M20.2619 47.9548
L20.2619 46.9548
" />
<path d="M20.2619 46.9548
L20.5000 46.9548
" />
<path d="M20.5000 46.9548
L20.6429 47.0024
" />
<path d="M20.6429 47.0024
L20.7381 47.0977
" />
<path d="M20.7381 47.0977
L20.7857 47.1929
" />
<path d="M20.7857 47.1929
L20.8333 47.3834
" />
<path d="M20.8333 47.3834
L20.8333 47.5262
" />
<path d="M20.8333 47.5262
L20.7857 47.7167
" />
<path d="M20.7857 47.7167
L20.7381 47.8120
" />
<path d="M20.7381 47.8120
L20.6429 47.9072
" />
<path d="M20.6429 47.9072
L20.5000 47.9548
" />
<path d="M20.5000 47.9548
L20.2619 47.9548
" />
<path d="M21.2143 47.0501
L21.2619 47.0024
" />
<path d="M21.2619 47.0024
L21.3571 46.9548
" />
<path d="M21.3571 46.9548
L21.5952 46.9548
" />
<path d="M21.5952 46.9548
L21.6905 47.0024
" />
<path d="M21.6905 47.0024
L21.7381 47.0501
" />
<path d="M21.7381 47.0501
L21.7857 47.1453
" />
<path d="M21.7857 47.1453
L21.7857 47.2405
" />
<path d="M21.7857 47.2405
L21.7381 47.3834
" />
<path d="M21.7381 47.3834
L21.1667 47.9548
" />
<path d="M21.1667 47.9548
L21.7857 47.9548
" />
</g><text x="27.5000" y="41.0000"
textLength="3.0595" font-size="1.3333" lengthAdjust="spacingAndGlyphs"
text-anchor="middle" opacity="0" stroke-opacity="0">FB1</text>
<g class="stroked-text"><desc>FB1</desc>
<path d="M26.6667 40.4310
L26.3333 40.4310
" />
<path d="M26.3333 40.9548
L26.3333 39.9548
" />
<path d="M26.3333 39.9548
L26.8095 39.9548
" />
<path d="M27.5238 40.4310
L27.6667 40.4786
" />
<path d="M27.6667 40.4786
L27.7143 40.5262
" />
<path d="M27.7143 40.5262
L27.7619 40.6215
" />
<path d="M27.7619 40.6215
L27.7619 40.7643
" />
<path d="M27.7619 40.7643
L27.7143 40.8596
" />
<path d="M27.7143 40.8596
L27.6667 40.9072
" />
<path d="M27.6667 40.9072
L27.5714 40.9548
" />
<path d="M27.5714 40.9548
L27.1905 40.9548
" />
<path d="M27.1905 40.9548
L27.1905 39.9548
" />
<path d="M27.1905 39.9548
L27.5238 39.9548
" />
<path d="M27.5238 39.9548
L27.6190 40.0024
" />
<path d="M27.6190 40.0024
L27.6667 40.0501
" />
<path d="M27.6667 40.0501
L27.7143 40.1453
" />
<path d="M27.7143 40.1453
L27.7143 40.2405
" />
<path d="M27.7143 40.2405
L27.6667 40.3358
" />
<path d="M27.6667 40.3358
L27.6190 40.3834
" />
<path d="M27.6190 40.3834
L27.5238 40.4310
" />
<path d="M27.5238 40.4310
L27.1905 40.4310
" />
<path d="M28.7143 40.9548
L28.1429 40.9548
" />
<path d="M28.4286 40.9548
L28.4286 39.9548
" />
<path d="M28.4286 39.9548
L28.3333 40.0977
" />
<path d="M28.3333 40.0977
L28.2381 40.1929
" />
<path d="M28.2381 40.1929
L28.1429 40.2405
" />
</g><text x="41.7500" y="30.0000"
textLength="2.2024" font-size="1.3333" lengthAdjust="spacingAndGlyphs"
text-anchor="middle" opacity="0" stroke-opacity="0">D1</text>
<g class="stroked-text"><desc>D1</desc>
<path d="M41.0119 29.9548
L41.0119 28.9548
" />
<path d="M41.0119 28.9548
L41.2500 28.9548
" />
<path d="M41.2500 28.9548
L41.3929 29.0024
" />
<path d="M41.3929 29.0024
L41.4881 29.0977
" />
<path d="M41.4881 29.0977
L41.5357 29.1929
" />
<path d="M41.5357 29.1929
L41.5833 29.3834
" />
<path d="M41.5833 29.3834
L41.5833 29.5262
" />
<path d="M41.5833 29.5262
L41.5357 29.7167
" />
<path d="M41.5357 29.7167
L41.4881 29.8120
" />
<path d="M41.4881 29.8120
L41.3929 29.9072
" />
<path d="M41.3929 29.9072
L41.2500 29.9548
" />
<path d="M41.2500 29.9548
L41.0119 29.9548
" />
<path d="M42.5357 29.9548
L41.9643 29.9548
" />
<path d="M42.2500 29.9548
L42.2500 28.9548
" />
<path d="M42.2500 28.9548
L42.1548 29.0977
" />
<path d="M42.1548 29.0977
L42.0595 29.1929
" />
<path d="M42.0595 29.1929
L41.9643 29.2405
" />
</g><g transform="rotate(-90.000000 23.4100 30.3375)">
<text x="23.4100" y="30.8375"
textLength="2.2024" font-size="1.3333" lengthAdjust="spacingAndGlyphs"
text-anchor="middle" opacity="0" stroke-opacity="0">C6</text>
</g>
<g class="stroked-text"><desc>C6</desc>
<path d="M23.7696 30.5042
L23.8172 30.5518
" />
<path d="M23.8172 30.5518
L23.8648 30.6946
" />
<path d="M23.8648 30.6946
L23.8648 30.7899
" />
<path d="M23.8648 30.7899
L23.8172 30.9327
" />
<path d="M23.8172 30.9327
L23.7220 31.0280
" />
<path d="M23.7220 31.0280
L23.6267 31.0756
" />
<path d="M23.6267 31.0756
L23.4362 31.1232
" />
<path d="M23.4362 31.1232
L23.2934 31.1232
" />
<path d="M23.2934 31.1232
L23.1029 31.0756
" />
<path d="M23.1029 31.0756
L23.0077 31.0280
" />
<path d="M23.0077 31.0280
L22.9124 30.9327
" />
<path d="M22.9124 30.9327
L22.8648 30.7899
" />
<path d="M22.8648 30.7899
L22.8648 30.6946
" />
<path d="M22.8648 30.6946
L22.9124 30.5518
" />
<path d="M22.9124 30.5518
L22.9601 30.5042
" />
<path d="M22.8648 29.6470
L22.8648 29.8375
" />
<path d="M22.8648 29.8375
L22.9124 29.9327
" />
<path d="M22.9124 29.9327
L22.9601 29.9804
" />
<path d="M22.9601 29.9804
L23.1029 30.0756
" />
<path d="M23.1029 30.0756
L23.2934 30.1232
" />
<path d="M23.2934 30.1232
L23.6743 30.1232
" />
<path d="M23.6743 30.1232
L23.7696 30.0756
" />
<path d="M23.7696 30.0756
L23.8172 30.0280
" />
<path d="M23.8172 30.0280
L23.8648 29.9327
" />
<path d="M23.8648 29.9327
L23.8648 29.7423
" />
<path d="M23.8648 29.7423
L23.8172 29.6470
" />
<path d="M23.8172 29.6470
L23.7696 29.5994
" />
<path d="M23.7696 29.5994
L23.6743 29.5518
" />
<path d="M23.6743 29.5518
L23.4362 29.5518
" />
<path d="M23.4362 29.5518
L23.3410 29.5994
" />
<path d="M23.3410 29.5994
L23.2934 29.6470
" />
<path d="M23.2934 29.6470
L23.2458 29.7423
" />
<path d="M23.2458 29.7423
L23.2458 29.9327
" />
<path d="M23.2458 29.9327
L23.2934 30.0280
" />
<path d="M23.2934 30.0280
L23.3410 30.0756
" />
<path d="M23.3410 30.0756
L23.4362 30.1232
" />
</g><text x="49.9500" y="61.0000"
textLength="2.0595" font-size="1.3333" lengthAdjust="spacingAndGlyphs"
text-anchor="middle" opacity="0" stroke-opacity="0">F1</text>
<g class="stroked-text"><desc>F1</desc>
<path d="M49.6167 60.4310
L49.2833 60.4310
" />
<path d="M49.2833 60.9548
L49.2833 59.9548
" />
<path d="M49.2833 59.9548
L49.7595 59.9548
" />
<path d="M50.6643 60.9548
L50.0929 60.9548
" />
<path d="M50.3786 60.9548
L50.3786 59.9548
" />
<path d="M50.3786 59.9548
L50.2833 60.0977
" />
<path d="M50.2833 60.0977
L50.1881 60.1929
" />
<path d="M50.1881 60.1929
L50.0929 60.2405
" />
</g><text x="19.2500" y="35.4075"
textLength="2.2024" font-size="1.3333" lengthAdjust="spacingAndGlyphs"
text-anchor="middle" opacity="0" stroke-opacity="0">C9</text>
<g class="stroked-text"><desc>C9</desc>
<path d="M19.0833 35.2671
L19.0357 35.3147
" />
<path d="M19.0357 35.3147
L18.8929 35.3623
" />
<path d="M18.8929 35.3623
L18.7976 35.3623
" />
<path d="M18.7976 35.3623
L18.6548 35.3147
" />
<path d="M18.6548 35.3147
L18.5595 35.2195
" />
<path d="M18.5595 35.2195
L18.5119 35.1242
" />
<path d="M18.5119 35.1242
L18.4643 34.9337
" />
<path d="M18.4643 34.9337
L18.4643 34.7909
" />
<path d="M18.4643 34.7909
L18.5119 34.6004
" />
<path d="M18.5119 34.6004
L18.5595 34.5052
" />
<path d="M18.5595 34.5052
L18.6548 34.4099
" />
<path d="M18.6548 34.4099
L18.7976 34.3623
" />
<path d="M18.7976 34.3623
L18.8929 34.3623
" />
<path d="M18.8929 34.3623
L19.0357 34.4099
" />
<path d="M19.0357 34.4099
L19.0833 34.4576
" />
<path d="M19.5595 35.3623
L19.7500 35.3623
" />
<path d="M19.7500 35.3623
L19.8452 35.3147
" />
<path d="M19.8452 35.3147
L19.8929 35.2671
" />
<path d="M19.8929 35.2671
L19.9881 35.1242
" />
<path d="M19.9881 35.1242
L20.0357 34.9337
" />
<path d="M20.0357 34.9337
L20.0357 34.5528
" />
<path d="M20.0357 34.5528
L19.9881 34.4576
" />
<path d="M19.9881 34.4576
L19.9405 34.4099
" />
<path d="M19.9405 34.4099
L19.8452 34.3623
" />
<path d="M19.8452 34.3623
L19.6548 34.3623
" />
<path d="M19.6548 34.3623
L19.5595 34.4099
" />
<path d="M19.5595 34.4099
L19.5119 34.4576
" />
<path d="M19.5119 34.4576
L19.4643 34.5528
" />
<path d="M19.4643 34.5528
L19.4643 34.7909
" />
<path d="M19.4643 34.7909
L19.5119 34.8861
" />
<path d="M19.5119 34.8861
L19.5595 34.9337
" />
<path d="M19.5595 34.9337
L19.6548 34.9814
" />
<path d="M19.6548 34.9814
L19.8452 34.9814
" />
<path d="M19.8452 34.9814
L19.9405 34.9337
" />
<path d="M19.9405 34.9337
L19.9881 34.8861
" />
<path d="M19.9881 34.8861
L20.0357 34.7909
" />
</g><text x="44.0000" y="50.5000"
textLength="2.8690" font-size="1.3333" lengthAdjust="spacingAndGlyphs"
text-anchor="middle" opacity="0" stroke-opacity="0">FL1</text>
<g class="stroked-text"><desc>FL1</desc>
<path d="M43.2619 49.9310
L42.9286 49.9310
" />
<path d="M42.9286 50.4548
L42.9286 49.4548
" />
<path d="M42.9286 49.4548
L43.4048 49.4548
" />
<path d="M44.2619 50.4548
L43.7857 50.4548
" />
<path d="M43.7857 50.4548
L43.7857 49.4548
" />
<path d="M45.1190 50.4548
L44.5476 50.4548
" />
<path d="M44.8333 50.4548
L44.8333 49.4548
" />
<path d="M44.8333 49.4548
L44.7381 49.5977
" />
<path d="M44.7381 49.5977
L44.6429 49.6929
" />
<path d="M44.6429 49.6929
L44.5476 49.7405
" />
</g><text x="36.0000" y="33.0000"
textLength="2.2024" font-size="1.3333" lengthAdjust="spacingAndGlyphs"
text-anchor="middle" opacity="0" stroke-opacity="0">C4</text>
<g class="stroked-text"><desc>C4</desc>
<path d="M35.8333 32.8596
L35.7857 32.9072
" />
<path d="M35.7857 32.9072
L35.6429 32.9548
" />
<path d="M35.6429 32.9548
L35.5476 32.9548
" />
<path d="M35.5476 32.9548
L35.4048 32.9072
" />
<path d="M35.4048 32.9072
L35.3095 32.8120
" />
<path d="M35.3095 32.8120
L35.2619 32.7167
" />
<path d="M35.2619 32.7167
L35.2143 32.5262
" />
<path d="M35.2143 32.5262
L35.2143 32.3834
" />
<path d="M35.2143 32.3834
L35.2619 32.1929
" />
<path d="M35.2619 32.1929
L35.3095 32.0977
" />
<path d="M35.3095 32.0977
L35.4048 32.0024
" />
<path d="M35.4048 32.0024
L35.5476 31.9548
" />
<path d="M35.5476 31.9548
L35.6429 31.9548
" />
<path d="M35.6429 31.9548
L35.7857 32.0024
" />
<path d="M35.7857 32.0024
L35.8333 32.0501
" />
<path d="M36.6905 32.2882
L36.6905 32.9548
" />
<path d="M36.4524 31.9072
L36.2143 32.6215
" />
<path d="M36.2143 32.6215
L36.8333 32.6215
" />
</g></g>
<g style="fill:none; 
stroke:#000000; stroke-width:0.3000; stroke-opacity:1; 
stroke-linecap:round; stroke-linejoin:round;">
<text x="337.9736" y="71.2167"
textLength="5.1714" font-size="2.0000" lengthAdjust="spacingAndGlyphs"
text-anchor="middle" opacity="0" stroke-opacity="0">HU1</text>
<g class="stroked-text"><desc>HU1</desc>
<path d="M336.0450 71.1450
L336.0450 69.6450
" />
<path d="M336.0450 70.3593
L336.9022 70.3593
" />
<path d="M336.9022 71.1450
L336.9022 69.6450
" />
<path d="M337.6165 69.6450
L337.6165 70.8593
" />
<path d="M337.6165 70.8593
L337.6879 71.0022
" />
<path d="M337.6879 71.0022
L337.7593 71.0736
" />
<path d="M337.7593 71.0736
L337.9022 71.1450
" />
<path d="M337.9022 71.1450
L338.1879 71.1450
" />
<path d="M338.1879 71.1450
L338.3307 71.0736
" />
<path d="M338.3307 71.0736
L338.4022 71.0022
" />
<path d="M338.4022 71.0022
L338.4736 70.8593
" />
<path d="M338.4736 70.8593
L338.4736 69.6450
" />
<path d="M339.9736 71.1450
L339.1165 71.1450
" />
<path d="M339.5450 71.1450
L339.5450 69.6450
" />
<path d="M339.5450 69.6450
L339.4022 69.8593
" />
<path d="M339.4022 69.8593
L339.2593 70.0022
" />
<path d="M339.2593 70.0022
L339.1165 70.0736
" />
</g></g>
<g style="fill:none; 
stroke:#000000; stroke-width:0.1500; stroke-opacity:1; 
stroke-linecap:round; stroke-linejoin:round;">
<text x="23.2500" y="48.0000"
textLength="2.2024" font-size="1.3333" lengthAdjust="spacingAndGlyphs"
text-anchor="middle" opacity="0" stroke-opacity="0">R2</text>
<g class="stroked-text"><desc>R2</desc>
<path d="M23.0833 47.9548
L22.7500 47.4786
" />
<path d="M22.5119 47.9548
L22.5119 46.9548
" />
<path d="M22.5119 46.9548
L22.8929 46.9548
" />
<path d="M22.8929 46.9548
L22.9881 47.0024
" />
<path d="M22.9881 47.0024
L23.0357 47.0501
" />
<path d="M23.0357 47.0501
L23.0833 47.1453
" />
<path d="M23.0833 47.1453
L23.0833 47.2882
" />
<path d="M23.0833 47.2882
L23.0357 47.3834
" />
<path d="M23.0357 47.3834
L22.9881 47.4310
" />
<path d="M22.9881 47.4310
L22.8929 47.4786
" />
<path d="M22.8929 47.4786
L22.5119 47.4786
" />
<path d="M23.4643 47.0501
L23.5119 47.0024
" />
<path d="M23.5119 47.0024
L23.6071 46.9548
" />
<path d="M23.6071 46.9548
L23.8452 46.9548
" />
<path d="M23.8452 46.9548
L23.9405 47.0024
" />
<path d="M23.9405 47.0024
L23.9881 47.0501
" />
<path d="M23.9881 47.0501
L24.0357 47.1453
" />
<path d="M24.0357 47.1453
L24.0357 47.2405
" />
<path d="M24.0357 47.2405
L23.9881 47.3834
" />
<path d="M23.9881 47.3834
L23.4167 47.9548
" />
<path d="M23.4167 47.9548
L24.0357 47.9548
" />
</g><g transform="rotate(-90.000000 21.5000 50.7125)">
<text x="21.5000" y="51.2125"
textLength="3.1548" font-size="1.3333" lengthAdjust="spacingAndGlyphs"
text-anchor="middle" opacity="0" stroke-opacity="0">C12</text>
</g>
<g class="stroked-text"><desc>C12</desc>
<path d="M21.8596 51.3554
L21.9072 51.4030
" />
<path d="M21.9072 51.4030
L21.9548 51.5458
" />
<path d="M21.9548 51.5458
L21.9548 51.6411
" />
<path d="M21.9548 51.6411
L21.9072 51.7839
" />
<path d="M21.9072 51.7839
L21.8120 51.8792
" />
<path d="M21.8120 51.8792
L21.7167 51.9268
" />
<path d="M21.7167 51.9268
L21.5262 51.9744
" />
<path d="M21.5262 51.9744
L21.3834 51.9744
" />
<path d="M21.3834 51.9744
L21.1929 51.9268
" />
<path d="M21.1929 51.9268
L21.0977 51.8792
" />
<path d="M21.0977 51.8792
L21.0024 51.7839
" />
<path d="M21.0024 51.7839
L20.9548 51.6411
" />
<path d="M20.9548 51.6411
L20.9548 51.5458
" />
<path d="M20.9548 51.5458
L21.0024 51.4030
" />
<path d="M21.0024 51.4030
L21.0501 51.3554
" />
<path d="M21.9548 50.4030
L21.9548 50.9744
" />
<path d="M21.9548 50.6887
L20.9548 50.6887
" />
<path d="M20.9548 50.6887
L21.0977 50.7839
" />
<path d="M21.0977 50.7839
L21.1929 50.8792
" />
<path d="M21.1929 50.8792
L21.2405 50.9744
" />
<path d="M21.0501 50.0220
L21.0024 49.9744
" />
<path d="M21.0024 49.9744
L20.9548 49.8792
" />
<path d="M20.9548 49.8792
L20.9548 49.6411
" />
<path d="M20.9548 49.6411
L21.0024 49.5458
" />
<path d="M21.0024 49.5458
L21.0501 49.4982
" />
<path d="M21.0501 49.4982
L21.1453 49.4506
" />
<path d="M21.1453 49.4506
L21.2405 49.4506
" />
<path d="M21.2405 49.4506
L21.3834 49.4982
" />
<path d="M21.3834 49.4982
L21.9548 50.0696
" />
<path d="M21.9548 50.0696
L21.9548 49.4506
" />
</g><text x="14.5375" y="52.2500"
textLength="2.2024" font-size="1.3333" lengthAdjust="spacingAndGlyphs"
text-anchor="middle" opacity="0" stroke-opacity="0">D3</text>
<g class="stroked-text"><desc>D3</desc>
<path d="M13.7994 52.2048
L13.7994 51.2048
" />
<path d="M13.7994 51.2048
L14.0375 51.2048
" />
<path d="M14.0375 51.2048
L14.1804 51.2524
" />
<path d="M14.1804 51.2524
L14.2756 51.3477
" />
<path d="M14.2756 51.3477
L14.3232 51.4429
" />
<path d="M14.3232 51.4429
L14.3708 51.6334
" />
<path d="M14.3708 51.6334
L14.3708 51.7762
" />
<path d="M14.3708 51.7762
L14.3232 51.9667
" />
<path d="M14.3232 51.9667
L14.2756 52.0620
" />
<path d="M14.2756 52.0620
L14.1804 52.1572
" />
<path d="M14.1804 52.1572
L14.0375 52.2048
" />
<path d="M14.0375 52.2048
L13.7994 52.2048
" />
<path d="M14.7042 51.2048
L15.3232 51.2048
" />
<path d="M15.3232 51.2048
L14.9899 51.5858
" />
<path d="M14.9899 51.5858
L15.1327 51.5858
" />
<path d="M15.1327 51.5858
L15.2280 51.6334
" />
<path d="M15.2280 51.6334
L15.2756 51.6810
" />
<path d="M15.2756 51.6810
L15.3232 51.7762
" />
<path d="M15.3232 51.7762
L15.3232 52.0143
" />
<path d="M15.3232 52.0143
L15.2756 52.1096
" />
<path d="M15.2756 52.1096
L15.2280 52.1572
" />
<path d="M15.2280 52.1572
L15.1327 52.2048
" />
<path d="M15.1327 52.2048
L14.8470 52.2048
" />
<path d="M14.8470 52.2048
L14.7518 52.1572
" />
<path d="M14.7518 52.1572
L14.7042 52.1096
" />
</g><text x="24.5000" y="27.2500"
textLength="2.2024" font-size="1.3333" lengthAdjust="spacingAndGlyphs"
text-anchor="middle" opacity="0" stroke-opacity="0">C5</text>
<g class="stroked-text"><desc>C5</desc>
<path d="M24.3333 27.1096
L24.2857 27.1572
" />
<path d="M24.2857 27.1572
L24.1429 27.2048
" />
<path d="M24.1429 27.2048
L24.0476 27.2048
" />
<path d="M24.0476 27.2048
L23.9048 27.1572
" />
<path d="M23.9048 27.1572
L23.8095 27.0620
" />
<path d="M23.8095 27.0620
L23.7619 26.9667
" />
<path d="M23.7619 26.9667
L23.7143 26.7762
" />
<path d="M23.7143 26.7762
L23.7143 26.6334
" />
<path d="M23.7143 26.6334
L23.7619 26.4429
" />
<path d="M23.7619 26.4429
L23.8095 26.3477
" />
<path d="M23.8095 26.3477
L23.9048 26.2524
" />
<path d="M23.9048 26.2524
L24.0476 26.2048
" />
<path d="M24.0476 26.2048
L24.1429 26.2048
" />
<path d="M24.1429 26.2048
L24.2857 26.2524
" />
<path d="M24.2857 26.2524
L24.3333 26.3001
" />
<path d="M25.2381 26.2048
L24.7619 26.2048
" />
<path d="M24.7619 26.2048
L24.7143 26.6810
" />
<path d="M24.7143 26.6810
L24.7619 26.6334
" />
<path d="M24.7619 26.6334
L24.8571 26.5858
" />
<path d="M24.8571 26.5858
L25.0952 26.5858
" />
<path d="M25.0952 26.5858
L25.1905 26.6334
" />
<path d="M25.1905 26.6334
L25.2381 26.6810
" />
<path d="M25.2381 26.6810
L25.2857 26.7762
" />
<path d="M25.2857 26.7762
L25.2857 27.0143
" />
<path d="M25.2857 27.0143
L25.2381 27.1096
" />
<path d="M25.2381 27.1096
L25.1905 27.1572
" />
<path d="M25.1905 27.1572
L25.0952 27.2048
" />
<path d="M25.0952 27.2048
L24.8571 27.2048
" />
<path d="M24.8571 27.2048
L24.7619 27.1572
" />
<path d="M24.7619 27.1572
L24.7143 27.1096
" />
</g><text x="32.7500" y="39.0000"
textLength="2.2024" font-size="1.3333" lengthAdjust="spacingAndGlyphs"
text-anchor="middle" opacity="0" stroke-opacity="0">C3</text>
<g class="stroked-text"><desc>C3</desc>
<path d="M32.5833 38.8596
L32.5357 38.9072
" />
<path d="M32.5357 38.9072
L32.3929 38.9548
" />
<path d="M32.3929 38.9548
L32.2976 38.9548
" />
<path d="M32.2976 38.9548
L32.1548 38.9072
" />
<path d="M32.1548 38.9072
L32.0595 38.8120
" />
<path d="M32.0595 38.8120
L32.0119 38.7167
" />
<path d="M32.0119 38.7167
L31.9643 38.5262
" />
<path d="M31.9643 38.5262
L31.9643 38.3834
" />
<path d="M31.9643 38.3834
L32.0119 38.1929
" />
<path d="M32.0119 38.1929
L32.0595 38.0977
" />
<path d="M32.0595 38.0977
L32.1548 38.0024
" />
<path d="M32.1548 38.0024
L32.2976 37.9548
" />
<path d="M32.2976 37.9548
L32.3929 37.9548
" />
<path d="M32.3929 37.9548
L32.5357 38.0024
" />
<path d="M32.5357 38.0024
L32.5833 38.0501
" />
<path d="M32.9167 37.9548
L33.5357 37.9548
" />
<path d="M33.5357 37.9548
L33.2024 38.3358
" />
<path d="M33.2024 38.3358
L33.3452 38.3358
" />
<path d="M33.3452 38.3358
L33.4405 38.3834
" />
<path d="M33.4405 38.3834
L33.4881 38.4310
" />
<path d="M33.4881 38.4310
L33.5357 38.5262
" />
<path d="M33.5357 38.5262
L33.5357 38.7643
" />
<path d="M33.5357 38.7643
L33.4881 38.8596
" />
<path d="M33.4881 38.8596
L33.4405 38.9072
" />
<path d="M33.4405 38.9072
L33.3452 38.9548
" />
<path d="M33.3452 38.9548
L33.0595 38.9548
" />
<path d="M33.0595 38.9548
L32.9643 38.9072
" />
<path d="M32.9643 38.9072
L32.9167 38.8596
" />
</g><text x="51.7000" y="34.5000"
textLength="2.9643" font-size="1.3333" lengthAdjust="spacingAndGlyphs"
text-anchor="middle" opacity="0" stroke-opacity="0">TP3</text>
<g class="stroked-text"><desc>TP3</desc>
<path d="M50.4381 33.4548
L51.0095 33.4548
" />
<path d="M50.7238 34.4548
L50.7238 33.4548
" />
<path d="M51.3429 34.4548
L51.3429 33.4548
" />
<path d="M51.3429 33.4548
L51.7238 33.4548
" />
<path d="M51.7238 33.4548
L51.8190 33.5024
" />
<path d="M51.8190 33.5024
L51.8667 33.5501
" />
<path d="M51.8667 33.5501
L51.9143 33.6453
" />
<path d="M51.9143 33.6453
L51.9143 33.7882
" />
<path d="M51.9143 33.7882
L51.8667 33.8834
" />
<path d="M51.8667 33.8834
L51.8190 33.9310
" />
<path d="M51.8190 33.9310
L51.7238 33.9786
" />
<path d="M51.7238 33.9786
L51.3429 33.9786
" />
<path d="M52.2476 33.4548
L52.8667 33.4548
" />
<path d="M52.8667 33.4548
L52.5333 33.8358
" />
<path d="M52.5333 33.8358
L52.6762 33.8358
" />
<path d="M52.6762 33.8358
L52.7714 33.8834
" />
<path d="M52.7714 33.8834
L52.8190 33.9310
" />
<path d="M52.8190 33.9310
L52.8667 34.0262
" />
<path d="M52.8667 34.0262
L52.8667 34.2643
" />
<path d="M52.8667 34.2643
L52.8190 34.3596
" />
<path d="M52.8190 34.3596
L52.7714 34.4072
" />
<path d="M52.7714 34.4072
L52.6762 34.4548
" />
<path d="M52.6762 34.4548
L52.3905 34.4548
" />
<path d="M52.3905 34.4548
L52.2952 34.4072
" />
<path d="M52.2952 34.4072
L52.2476 34.3596
" />
</g><text x="27.7500" y="44.0000"
textLength="2.2024" font-size="1.3333" lengthAdjust="spacingAndGlyphs"
text-anchor="middle" opacity="0" stroke-opacity="0">C1</text>
<g class="stroked-text"><desc>C1</desc>
<path d="M27.5833 43.8596
L27.5357 43.9072
" />
<path d="M27.5357 43.9072
L27.3929 43.9548
" />
<path d="M27.3929 43.9548
L27.2976 43.9548
" />
<path d="M27.2976 43.9548
L27.1548 43.9072
" />
<path d="M27.1548 43.9072
L27.0595 43.8120
" />
<path d="M27.0595 43.8120
L27.0119 43.7167
" />
<path d="M27.0119 43.7167
L26.9643 43.5262
" />
<path d="M26.9643 43.5262
L26.9643 43.3834
" />
<path d="M26.9643 43.3834
L27.0119 43.1929
" />
<path d="M27.0119 43.1929
L27.0595 43.0977
" />
<path d="M27.0595 43.0977
L27.1548 43.0024
" />
<path d="M27.1548 43.0024
L27.2976 42.9548
" />
<path d="M27.2976 42.9548
L27.3929 42.9548
" />
<path d="M27.3929 42.9548
L27.5357 43.0024
" />
<path d="M27.5357 43.0024
L27.5833 43.0501
" />
<path d="M28.5357 43.9548
L27.9643 43.9548
" />
<path d="M28.2500 43.9548
L28.2500 42.9548
" />
<path d="M28.2500 42.9548
L28.1548 43.0977
" />
<path d="M28.1548 43.0977
L28.0595 43.1929
" />
<path d="M28.0595 43.1929
L27.9643 43.2405
" />
</g><text x="39.2500" y="59.9000"
textLength="1.8520" font-size="1.0668" lengthAdjust="spacingAndGlyphs"
text-anchor="middle" opacity="0" stroke-opacity="0">D4</text>
<g class="stroked-text"><desc>D4</desc>
<path d="M38.6595 59.8623
L38.6595 59.0623
" />
<path d="M38.6595 59.0623
L38.8500 59.0623
" />
<path d="M38.8500 59.0623
L38.9643 59.1004
" />
<path d="M38.9643 59.1004
L39.0405 59.1765
" />
<path d="M39.0405 59.1765
L39.0786 59.2527
" />
<path d="M39.0786 59.2527
L39.1167 59.4051
" />
<path d="M39.1167 59.4051
L39.1167 59.5194
" />
<path d="M39.1167 59.5194
L39.0786 59.6718
" />
<path d="M39.0786 59.6718
L39.0405 59.7480
" />
<path d="M39.0405 59.7480
L38.9643 59.8242
" />
<path d="M38.9643 59.8242
L38.8500 59.8623
" />
<path d="M38.8500 59.8623
L38.6595 59.8623
" />
<path d="M39.8024 59.3289
L39.8024 59.8623
" />
<path d="M39.6119 59.0242
L39.4214 59.5956
" />
<path d="M39.4214 59.5956
L39.9167 59.5956
" />
</g><text x="54.7500" y="60.5000"
textLength="2.0595" font-size="1.3333" lengthAdjust="spacingAndGlyphs"
text-anchor="middle" opacity="0" stroke-opacity="0">F2</text>
<g class="stroked-text"><desc>F2</desc>
<path d="M54.4167 59.9310
L54.0833 59.9310
" />
<path d="M54.0833 60.4548
L54.0833 59.4548
" />
<path d="M54.0833 59.4548
L54.5595 59.4548
" />
<path d="M54.8929 59.5501
L54.9405 59.5024
" />
<path d="M54.9405 59.5024
L55.0357 59.4548
" />
<path d="M55.0357 59.4548
L55.2738 59.4548
" />
<path d="M55.2738 59.4548
L55.3690 59.5024
" />
<path d="M55.3690 59.5024
L55.4167 59.5501
" />
<path d="M55.4167 59.5501
L55.4643 59.6453
" />
<path d="M55.4643 59.6453
L55.4643 59.7405
" />
<path d="M55.4643 59.7405
L55.4167 59.8834
" />
<path d="M55.4167 59.8834
L54.8452 60.4548
" />
<path d="M54.8452 60.4548
L55.4643 60.4548
" />
</g><text x="31.7500" y="46.5000"
textLength="3.1548" font-size="1.3333" lengthAdjust="spacingAndGlyphs"
text-anchor="middle" opacity="0" stroke-opacity="0">C14</text>
<g class="stroked-text"><desc>C14</desc>
<path d="M31.1071 46.3596
L31.0595 46.4072
" />
<path d="M31.0595 46.4072
L30.9167 46.4548
" />
<path d="M30.9167 46.4548
L30.8214 46.4548
" />
<path d="M30.8214 46.4548
L30.6786 46.4072
" />
<path d="M30.6786 46.4072
L30.5833 46.3120
" />
<path d="M30.5833 46.3120
L30.5357 46.2167
" />
<path d="M30.5357 46.2167
L30.4881 46.0262
" />
<path d="M30.4881 46.0262
L30.4881 45.8834
" />
<path d="M30.4881 45.8834
L30.5357 45.6929
" />
<path d="M30.5357 45.6929
L30.5833 45.5977
" />
<path d="M30.5833 45.5977
L30.6786 45.5024
" />
<path d="M30.6786 45.5024
L30.8214 45.4548
" />
<path d="M30.8214 45.4548
L30.9167 45.4548
" />
<path d="M30.9167 45.4548
L31.0595 45.5024
" />
<path d="M31.0595 45.5024
L31.1071 45.5501
" />
<path d="M32.0595 46.4548
L31.4881 46.4548
" />
<path d="M31.7738 46.4548
L31.7738 45.4548
" />
<path d="M31.7738 45.4548
L31.6786 45.5977
" />
<path d="M31.6786 45.5977
L31.5833 45.6929
" />
<path d="M31.5833 45.6929
L31.4881 45.7405
" />
<path d="M32.9167 45.7882
L32.9167 46.4548
" />
<path d="M32.6786 45.4072
L32.4405 46.1215
" />
<path d="M32.4405 46.1215
L33.0595 46.1215
" />
</g><text x="35.2500" y="39.0000"
textLength="3.1548" font-size="1.3333" lengthAdjust="spacingAndGlyphs"
text-anchor="middle" opacity="0" stroke-opacity="0">C13</text>
<g class="stroked-text"><desc>C13</desc>
<path d="M34.6071 38.8596
L34.5595 38.9072
" />
<path d="M34.5595 38.9072
L34.4167 38.9548
" />
<path d="M34.4167 38.9548
L34.3214 38.9548
" />
<path d="M34.3214 38.9548
L34.1786 38.9072
" />
<path d="M34.1786 38.9072
L34.0833 38.8120
" />
<path d="M34.0833 38.8120
L34.0357 38.7167
" />
<path d="M34.0357 38.7167
L33.9881 38.5262
" />
<path d="M33.9881 38.5262
L33.9881 38.3834
" />
<path d="M33.9881 38.3834
L34.0357 38.1929
" />
<path d="M34.0357 38.1929
L34.0833 38.0977
" />
<path d="M34.0833 38.0977
L34.1786 38.0024
" />
<path d="M34.1786 38.0024
L34.3214 37.9548
" />
<path d="M34.3214 37.9548
L34.4167 37.9548
" />
<path d="M34.4167 37.9548
L34.5595 38.0024
" />
<path d="M34.5595 38.0024
L34.6071 38.0501
" />
<path d="M35.5595 38.9548
L34.9881 38.9548
" />
<path d="M35.2738 38.9548
L35.2738 37.9548
" />
<path d="M35.2738 37.9548
L35.1786 38.0977
" />
<path d="M35.1786 38.0977
L35.0833 38.1929
" />
<path d="M35.0833 38.1929
L34.9881 38.2405
" />
<path d="M35.8929 37.9548
L36.5119 37.9548
" />
<path d="M36.5119 37.9548
L36.1786 38.3358
" />
<path d="M36.1786 38.3358
L36.3214 38.3358
" />
<path d="M36.3214 38.3358
L36.4167 38.3834
" />
<path d="M36.4167 38.3834
L36.4643 38.4310
" />
<path d="M36.4643 38.4310
L36.5119 38.5262
" />
<path d="M36.5119 38.5262
L36.5119 38.7643
" />
<path d="M36.5119 38.7643
L36.4643 38.8596
" />
<path d="M36.4643 38.8596
L36.4167 38.9072
" />
<path d="M36.4167 38.9072
L36.3214 38.9548
" />
<path d="M36.3214 38.9548
L36.0357 38.9548
" />
<path d="M36.0357 38.9548
L35.9405 38.9072
" />
<path d="M35.9405 38.9072
L35.8929 38.8596
" />
</g><text x="27.0000" y="47.0000"
textLength="2.2024" font-size="1.3333" lengthAdjust="spacingAndGlyphs"
text-anchor="middle" opacity="0" stroke-opacity="0">D9</text>
<g class="stroked-text"><desc>D9</desc>
<path d="M26.2619 46.9548
L26.2619 45.9548
" />
<path d="M26.2619 45.9548
L26.5000 45.9548
" />
<path d="M26.5000 45.9548
L26.6429 46.0024
" />
<path d="M26.6429 46.0024
L26.7381 46.0977
" />
<path d="M26.7381 46.0977
L26.7857 46.1929
" />
<path d="M26.7857 46.1929
L26.8333 46.3834
" />
<path d="M26.8333 46.3834
L26.8333 46.5262
" />
<path d="M26.8333 46.5262
L26.7857 46.7167
" />
<path d="M26.7857 46.7167
L26.7381 46.8120
" />
<path d="M26.7381 46.8120
L26.6429 46.9072
" />
<path d="M26.6429 46.9072
L26.5000 46.9548
" />
<path d="M26.5000 46.9548
L26.2619 46.9548
" />
<path d="M27.3095 46.9548
L27.5000 46.9548
" />
<path d="M27.5000 46.9548
L27.5952 46.9072
" />
<path d="M27.5952 46.9072
L27.6429 46.8596
" />
<path d="M27.6429 46.8596
L27.7381 46.7167
" />
<path d="M27.7381 46.7167
L27.7857 46.5262
" />
<path d="M27.7857 46.5262
L27.7857 46.1453
" />
<path d="M27.7857 46.1453
L27.7381 46.0501
" />
<path d="M27.7381 46.0501
L27.6905 46.0024
" />
<path d="M27.6905 46.0024
L27.5952 45.9548
" />
<path d="M27.5952 45.9548
L27.4048 45.9548
" />
<path d="M27.4048 45.9548
L27.3095 46.0024
" />
<path d="M27.3095 46.0024
L27.2619 46.0501
" />
<path d="M27.2619 46.0501
L27.2143 46.1453
" />
<path d="M27.2143 46.1453
L27.2143 46.3834
" />
<path d="M27.2143 46.3834
L27.2619 46.4786
" />
<path d="M27.2619 46.4786
L27.3095 46.5262
" />
<path d="M27.3095 46.5262
L27.4048 46.5739
" />
<path d="M27.4048 46.5739
L27.5952 46.5739
" />
<path d="M27.5952 46.5739
L27.6905 46.5262
" />
<path d="M27.6905 46.5262
L27.7381 46.4786
" />
<path d="M27.7381 46.4786
L27.7857 46.3834
" />
</g><text x="19.2500" y="29.4075"
textLength="2.2024" font-size="1.3333" lengthAdjust="spacingAndGlyphs"
text-anchor="middle" opacity="0" stroke-opacity="0">C8</text>
<g class="stroked-text"><desc>C8</desc>
<path d="M19.0833 29.2671
L19.0357 29.3147
" />
<path d="M19.0357 29.3147
L18.8929 29.3623
" />
<path d="M18.8929 29.3623
L18.7976 29.3623
" />
<path d="M18.7976 29.3623
L18.6548 29.3147
" />
<path d="M18.6548 29.3147
L18.5595 29.2195
" />
<path d="M18.5595 29.2195
L18.5119 29.1242
" />
<path d="M18.5119 29.1242
L18.4643 28.9337
" />
<path d="M18.4643 28.9337
L18.4643 28.7909
" />
<path d="M18.4643 28.7909
L18.5119 28.6004
" />
<path d="M18.5119 28.6004
L18.5595 28.5052
" />
<path d="M18.5595 28.5052
L18.6548 28.4099
" />
<path d="M18.6548 28.4099
L18.7976 28.3623
" />
<path d="M18.7976 28.3623
L18.8929 28.3623
" />
<path d="M18.8929 28.3623
L19.0357 28.4099
" />
<path d="M19.0357 28.4099
L19.0833 28.4576
" />
<path d="M19.6548 28.7909
L19.5595 28.7433
" />
<path d="M19.5595 28.7433
L19.5119 28.6957
" />
<path d="M19.5119 28.6957
L19.4643 28.6004
" />
<path d="M19.4643 28.6004
L19.4643 28.5528
" />
<path d="M19.4643 28.5528
L19.5119 28.4576
" />
<path d="M19.5119 28.4576
L19.5595 28.4099
" />
<path d="M19.5595 28.4099
L19.6548 28.3623
" />
<path d="M19.6548 28.3623
L19.8452 28.3623
" />
<path d="M19.8452 28.3623
L19.9405 28.4099
" />
<path d="M19.9405 28.4099
L19.9881 28.4576
" />
<path d="M19.9881 28.4576
L20.0357 28.5528
" />
<path d="M20.0357 28.5528
L20.0357 28.6004
" />
<path d="M20.0357 28.6004
L19.9881 28.6957
" />
<path d="M19.9881 28.6957
L19.9405 28.7433
" />
<path d="M19.9405 28.7433
L19.8452 28.7909
" />
<path d="M19.8452 28.7909
L19.6548 28.7909
" />
<path d="M19.6548 28.7909
L19.5595 28.8385
" />
<path d="M19.5595 28.8385
L19.5119 28.8861
" />
<path d="M19.5119 28.8861
L19.4643 28.9814
" />
<path d="M19.4643 28.9814
L19.4643 29.1718
" />
<path d="M19.4643 29.1718
L19.5119 29.2671
" />
<path d="M19.5119 29.2671
L19.5595 29.3147
" />
<path d="M19.5595 29.3147
L19.6548 29.3623
" />
<path d="M19.6548 29.3623
L19.8452 29.3623
" />
<path d="M19.8452 29.3623
L19.9405 29.3147
" />
<path d="M19.9405 29.3147
L19.9881 29.2671
" />
<path d="M19.9881 29.2671
L20.0357 29.1718
" />
<path d="M20.0357 29.1718
L20.0357 28.9814
" />
<path d="M20.0357 28.9814
L19.9881 28.8861
" />
<path d="M19.9881 28.8861
L19.9405 28.8385
" />
<path d="M19.9405 28.8385
L19.8452 28.7909
" />
</g><g transform="rotate(-90.000000 36.2500 50.0000)">
<text x="36.2500" y="50.5000"
textLength="3.1548" font-size="1.3333" lengthAdjust="spacingAndGlyphs"
text-anchor="middle" opacity="0" stroke-opacity="0">C15</text>
</g>
<g class="stroked-text"><desc>C15</desc>
<path d="M36.6096 50.6429
L36.6572 50.6905
" />
<path d="M36.6572 50.6905
L36.7048 50.8333
" />
<path d="M36.7048 50.8333
L36.7048 50.9286
" />
<path d="M36.7048 50.9286
L36.6572 51.0714
" />
<path d="M36.6572 51.0714
L36.5620 51.1667
" />
<path d="M36.5620 51.1667
L36.4667 51.2143
" />
<path d="M36.4667 51.2143
L36.2762 51.2619
" />
<path d="M36.2762 51.2619
L36.1334 51.2619
" />
<path d="M36.1334 51.2619
L35.9429 51.2143
" />
<path d="M35.9429 51.2143
L35.8477 51.1667
" />
<path d="M35.8477 51.1667
L35.7524 51.0714
" />
<path d="M35.7524 51.0714
L35.7048 50.9286
" />
<path d="M35.7048 50.9286
L35.7048 50.8333
" />
<path d="M35.7048 50.8333
L35.7524 50.6905
" />
<path d="M35.7524 50.6905
L35.8001 50.6429
" />
<path d="M36.7048 49.6905
L36.7048 50.2619
" />
<path d="M36.7048 49.9762
L35.7048 49.9762
" />
<path d="M35.7048 49.9762
L35.8477 50.0714
" />
<path d="M35.8477 50.0714
L35.9429 50.1667
" />
<path d="M35.9429 50.1667
L35.9905 50.2619
" />
<path d="M35.7048 48.7857
L35.7048 49.2619
" />
<path d="M35.7048 49.2619
L36.1810 49.3095
" />
<path d="M36.1810 49.3095
L36.1334 49.2619
" />
<path d="M36.1334 49.2619
L36.0858 49.1667
" />
<path d="M36.0858 49.1667
L36.0858 48.9286
" />
<path d="M36.0858 48.9286
L36.1334 48.8333
" />
<path d="M36.1334 48.8333
L36.1810 48.7857
" />
<path d="M36.1810 48.7857
L36.2762 48.7381
" />
<path d="M36.2762 48.7381
L36.5143 48.7381
" />
<path d="M36.5143 48.7381
L36.6096 48.7857
" />
<path d="M36.6096 48.7857
L36.6572 48.8333
" />
<path d="M36.6572 48.8333
L36.7048 48.9286
" />
<path d="M36.7048 48.9286
L36.7048 49.1667
" />
<path d="M36.7048 49.1667
L36.6572 49.2619
" />
<path d="M36.6572 49.2619
L36.6096 49.3095
" />
</g><text x="32.2500" y="60.3050"
textLength="1.9643" font-size="1.3333" lengthAdjust="spacingAndGlyphs"
text-anchor="middle" opacity="0" stroke-opacity="0">J2</text>
<g class="stroked-text"><desc>J2</desc>
<path d="M31.9167 59.2598
L31.9167 59.9741
" />
<path d="M31.9167 59.9741
L31.8690 60.1170
" />
<path d="M31.8690 60.1170
L31.7738 60.2122
" />
<path d="M31.7738 60.2122
L31.6310 60.2598
" />
<path d="M31.6310 60.2598
L31.5357 60.2598
" />
<path d="M32.3452 59.3551
L32.3929 59.3074
" />
<path d="M32.3929 59.3074
L32.4881 59.2598
" />
<path d="M32.4881 59.2598
L32.7262 59.2598
" />
<path d="M32.7262 59.2598
L32.8214 59.3074
" />
<path d="M32.8214 59.3074
L32.8690 59.3551
" />
<path d="M32.8690 59.3551
L32.9167 59.4503
" />
<path d="M32.9167 59.4503
L32.9167 59.5455
" />
<path d="M32.9167 59.5455
L32.8690 59.6884
" />
<path d="M32.8690 59.6884
L32.2976 60.2598
" />
<path d="M32.2976 60.2598
L32.9167 60.2598
" />
</g><g transform="rotate(-90.000000 22.1000 33.2500)">
<text x="22.1000" y="33.7500"
textLength="2.0595" font-size="1.3333" lengthAdjust="spacingAndGlyphs"
text-anchor="middle" opacity="0" stroke-opacity="0">Y1</text>
</g>
<g class="stroked-text"><desc>Y1</desc>
<path d="M22.0786 33.7262
L22.5548 33.7262
" />
<path d="M21.5548 34.0595
L22.0786 33.7262
" />
<path d="M22.0786 33.7262
L21.5548 33.3929
" />
<path d="M22.5548 32.5357
L22.5548 33.1071
" />
<path d="M22.5548 32.8214
L21.5548 32.8214
" />
<path d="M21.5548 32.8214
L21.6977 32.9167
" />
<path d="M21.6977 32.9167
L21.7929 33.0119
" />
<path d="M21.7929 33.0119
L21.8405 33.1071
" />
</g><text x="18.0375" y="52.2500"
textLength="2.2024" font-size="1.3333" lengthAdjust="spacingAndGlyphs"
text-anchor="middle" opacity="0" stroke-opacity="0">R3</text>
<g class="stroked-text"><desc>R3</desc>
<path d="M17.8708 52.2048
L17.5375 51.7286
" />
<path d="M17.2994 52.2048
L17.2994 51.2048
" />
<path d="M17.2994 51.2048
L17.6804 51.2048
" />
<path d="M17.6804 51.2048
L17.7756 51.2524
" />
<path d="M17.7756 51.2524
L17.8232 51.3001
" />
<path d="M17.8232 51.3001
L17.8708 51.3953
" />
<path d="M17.8708 51.3953
L17.8708 51.5382
" />
<path d="M17.8708 51.5382
L17.8232 51.6334
" />
<path d="M17.8232 51.6334
L17.7756 51.6810
" />
<path d="M17.7756 51.6810
L17.6804 51.7286
" />
<path d="M17.6804 51.7286
L17.2994 51.7286
" />
<path d="M18.2042 51.2048
L18.8232 51.2048
" />
<path d="M18.8232 51.2048
L18.4899 51.5858
" />
<path d="M18.4899 51.5858
L18.6327 51.5858
" />
<path d="M18.6327 51.5858
L18.7280 51.6334
" />
<path d="M18.7280 51.6334
L18.7756 51.6810
" />
<path d="M18.7756 51.6810
L18.8232 51.7762
" />
<path d="M18.8232 51.7762
L18.8232 52.0143
" />
<path d="M18.8232 52.0143
L18.7756 52.1096
" />
<path d="M18.7756 52.1096
L18.7280 52.1572
" />
<path d="M18.7280 52.1572
L18.6327 52.2048
" />
<path d="M18.6327 52.2048
L18.3470 52.2048
" />
<path d="M18.3470 52.2048
L18.2518 52.1572
" />
<path d="M18.2518 52.1572
L18.2042 52.1096
" />
</g><text x="15.6500" y="57.0000"
textLength="1.9643" font-size="1.3333" lengthAdjust="spacingAndGlyphs"
text-anchor="middle" opacity="0" stroke-opacity="0">J3</text>
<g class="stroked-text"><desc>J3</desc>
<path d="M15.3167 55.9548
L15.3167 56.6691
" />
<path d="M15.3167 56.6691
L15.2690 56.8120
" />
<path d="M15.2690 56.8120
L15.1738 56.9072
" />
<path d="M15.1738 56.9072
L15.0310 56.9548
" />
<path d="M15.0310 56.9548
L14.9357 56.9548
" />
<path d="M15.6976 55.9548
L16.3167 55.9548
" />
<path d="M16.3167 55.9548
L15.9833 56.3358
" />
<path d="M15.9833 56.3358
L16.1262 56.3358
" />
<path d="M16.1262 56.3358
L16.2214 56.3834
" />
<path d="M16.2214 56.3834
L16.2690 56.4310
" />
<path d="M16.2690 56.4310
L16.3167 56.5262
" />
<path d="M16.3167 56.5262
L16.3167 56.7643
" />
<path d="M16.3167 56.7643
L16.2690 56.8596
" />
<path d="M16.2690 56.8596
L16.2214 56.9072
" />
<path d="M16.2214 56.9072
L16.1262 56.9548
" />
<path d="M16.1262 56.9548
L15.8405 56.9548
" />
<path d="M15.8405 56.9548
L15.7452 56.9072
" />
<path d="M15.7452 56.9072
L15.6976 56.8596
" />
</g><text x="42.7500" y="34.5000"
textLength="2.9643" font-size="1.3333" lengthAdjust="spacingAndGlyphs"
text-anchor="middle" opacity="0" stroke-opacity="0">TP1</text>
<g class="stroked-text"><desc>TP1</desc>
<path d="M41.4881 33.4548
L42.0595 33.4548
" />
<path d="M41.7738 34.4548
L41.7738 33.4548
" />
<path d="M42.3929 34.4548
L42.3929 33.4548
" />
<path d="M42.3929 33.4548
L42.7738 33.4548
" />
<path d="M42.7738 33.4548
L42.8690 33.5024
" />
<path d="M42.8690 33.5024
L42.9167 33.5501
" />
<path d="M42.9167 33.5501
L42.9643 33.6453
" />
<path d="M42.9643 33.6453
L42.9643 33.7882
" />
<path d="M42.9643 33.7882
L42.9167 33.8834
" />
<path d="M42.9167 33.8834
L42.8690 33.9310
" />
<path d="M42.8690 33.9310
L42.7738 33.9786
" />
<path d="M42.7738 33.9786
L42.3929 33.9786
" />
<path d="M43.9167 34.4548
L43.3452 34.4548
" />
<path d="M43.6310 34.4548
L43.6310 33.4548
" />
<path d="M43.6310 33.4548
L43.5357 33.5977
" />
<path d="M43.5357 33.5977
L43.4405 33.6929
" />
<path d="M43.4405 33.6929
L43.3452 33.7405
" />
</g><g transform="rotate(-90.000000 29.1800 26.2500)">
<text x="29.1800" y="26.7500"
textLength="2.2024" font-size="1.3333" lengthAdjust="spacingAndGlyphs"
text-anchor="middle" opacity="0" stroke-opacity="0">R1</text>
</g>
<g class="stroked-text"><desc>R1</desc>
<path d="M29.6348 26.4167
L29.1586 26.7500
" />
<path d="M29.6348 26.9881
L28.6348 26.9881
" />
<path d="M28.6348 26.9881
L28.6348 26.6071
" />
<path d="M28.6348 26.6071
L28.6824 26.5119
" />
<path d="M28.6824 26.5119
L28.7301 26.4643
" />
<path d="M28.7301 26.4643
L28.8253 26.4167
" />
<path d="M28.8253 26.4167
L28.9682 26.4167
" />
<path d="M28.9682 26.4167
L29.0634 26.4643
" />
<path d="M29.0634 26.4643
L29.1110 26.5119
" />
<path d="M29.1110 26.5119
L29.1586 26.6071
" />
<path d="M29.1586 26.6071
L29.1586 26.9881
" />
<path d="M29.6348 25.4643
L29.6348 26.0357
" />
<path d="M29.6348 25.7500
L28.6348 25.7500
" />
<path d="M28.6348 25.7500
L28.7777 25.8452
" />
<path d="M28.7777 25.8452
L28.8729 25.9405
" />
<path d="M28.8729 25.9405
L28.9205 26.0357
" />
</g><text x="33.0000" y="29.7500"
textLength="2.2500" font-size="1.3333" lengthAdjust="spacingAndGlyphs"
text-anchor="middle" opacity="0" stroke-opacity="0">U1</text>
<g class="stroked-text"><desc>U1</desc>
<path d="M32.2381 28.7048
L32.2381 29.5143
" />
<path d="M32.2381 29.5143
L32.2857 29.6096
" />
<path d="M32.2857 29.6096
L32.3333 29.6572
" />
<path d="M32.3333 29.6572
L32.4286 29.7048
" />
<path d="M32.4286 29.7048
L32.6190 29.7048
" />
<path d="M32.6190 29.7048
L32.7143 29.6572
" />
<path d="M32.7143 29.6572
L32.7619 29.6096
" />
<path d="M32.7619 29.6096
L32.8095 29.5143
" />
<path d="M32.8095 29.5143
L32.8095 28.7048
" />
<path d="M33.8095 29.7048
L33.2381 29.7048
" />
<path d="M33.5238 29.7048
L33.5238 28.7048
" />
<path d="M33.5238 28.7048
L33.4286 28.8477
" />
<path d="M33.4286 28.8477
L33.3333 28.9429
" />
<path d="M33.3333 28.9429
L33.2381 28.9905
" />
</g><text x="40.5000" y="39.2500"
textLength="2.2500" font-size="1.3333" lengthAdjust="spacingAndGlyphs"
text-anchor="middle" opacity="0" stroke-opacity="0">U2</text>
<g class="stroked-text"><desc>U2</desc>
<path d="M39.7381 38.2048
L39.7381 39.0143
" />
<path d="M39.7381 39.0143
L39.7857 39.1096
" />
<path d="M39.7857 39.1096
L39.8333 39.1572
" />
<path d="M39.8333 39.1572
L39.9286 39.2048
" />
<path d="M39.9286 39.2048
L40.1190 39.2048
" />
<path d="M40.1190 39.2048
L40.2143 39.1572
" />
<path d="M40.2143 39.1572
L40.2619 39.1096
" />
<path d="M40.2619 39.1096
L40.3095 39.0143
" />
<path d="M40.3095 39.0143
L40.3095 38.2048
" />
<path d="M40.7381 38.3001
L40.7857 38.2524
" />
<path d="M40.7857 38.2524
L40.8810 38.2048
" />
<path d="M40.8810 38.2048
L41.1190 38.2048
" />
<path d="M41.1190 38.2048
L41.2143 38.2524
" />
<path d="M41.2143 38.2524
L41.2619 38.3001
" />
<path d="M41.2619 38.3001
L41.3095 38.3953
" />
<path d="M41.3095 38.3953
L41.3095 38.4905
" />
<path d="M41.3095 38.4905
L41.2619 38.6334
" />
<path d="M41.2619 38.6334
L40.6905 39.2048
" />
<path d="M40.6905 39.2048
L41.3095 39.2048
" />
</g><g transform="rotate(-90.000000 42.2500 26.0875)">
<text x="42.2500" y="26.5875"
textLength="1.9643" font-size="1.3333" lengthAdjust="spacingAndGlyphs"
text-anchor="middle" opacity="0" stroke-opacity="0">J1</text>
</g>
<g class="stroked-text"><desc>J1</desc>
<path d="M41.7048 26.4208
L42.4191 26.4208
" />
<path d="M42.4191 26.4208
L42.5620 26.4685
" />
<path d="M42.5620 26.4685
L42.6572 26.5637
" />
<path d="M42.6572 26.5637
L42.7048 26.7065
" />
<path d="M42.7048 26.7065
L42.7048 26.8018
" />
<path d="M42.7048 25.4208
L42.7048 25.9923
" />
<path d="M42.7048 25.7065
L41.7048 25.7065
" />
<path d="M41.7048 25.7065
L41.8477 25.8018
" />
<path d="M41.8477 25.8018
L41.9429 25.8970
" />
<path d="M41.9429 25.8970
L41.9905 25.9923
" />
</g><text x="39.2500" y="49.2500"
textLength="2.2024" font-size="1.3333" lengthAdjust="spacingAndGlyphs"
text-anchor="middle" opacity="0" stroke-opacity="0">D8</text>
<g class="stroked-text"><desc>D8</desc>
<path d="M38.5119 49.2048
L38.5119 48.2048
" />
<path d="M38.5119 48.2048
L38.7500 48.2048
" />
<path d="M38.7500 48.2048
L38.8929 48.2524
" />
<path d="M38.8929 48.2524
L38.9881 48.3477
" />
<path d="M38.9881 48.3477
L39.0357 48.4429
" />
<path d="M39.0357 48.4429
L39.0833 48.6334
" />
<path d="M39.0833 48.6334
L39.0833 48.7762
" />
<path d="M39.0833 48.7762
L39.0357 48.9667
" />
<path d="M39.0357 48.9667
L38.9881 49.0620
" />
<path d="M38.9881 49.0620
L38.8929 49.1572
" />
<path d="M38.8929 49.1572
L38.7500 49.2048
" />
<path d="M38.7500 49.2048
L38.5119 49.2048
" />
<path d="M39.6548 48.6334
L39.5595 48.5858
" />
<path d="M39.5595 48.5858
L39.5119 48.5382
" />
<path d="M39.5119 48.5382
L39.4643 48.4429
" />
<path d="M39.4643 48.4429
L39.4643 48.3953
" />
<path d="M39.4643 48.3953
L39.5119 48.3001
" />
<path d="M39.5119 48.3001
L39.5595 48.2524
" />
<path d="M39.5595 48.2524
L39.6548 48.2048
" />
<path d="M39.6548 48.2048
L39.8452 48.2048
" />
<path d="M39.8452 48.2048
L39.9405 48.2524
" />
<path d="M39.9405 48.2524
L39.9881 48.3001
" />
<path d="M39.9881 48.3001
L40.0357 48.3953
" />
<path d="M40.0357 48.3953
L40.0357 48.4429
" />
<path d="M40.0357 48.4429
L39.9881 48.5382
" />
<path d="M39.9881 48.5382
L39.9405 48.5858
" />
<path d="M39.9405 48.5858
L39.8452 48.6334
" />
<path d="M39.8452 48.6334
L39.6548 48.6334
" />
<path d="M39.6548 48.6334
L39.5595 48.6810
" />
<path d="M39.5595 48.6810
L39.5119 48.7286
" />
<path d="M39.5119 48.7286
L39.4643 48.8239
" />
<path d="M39.4643 48.8239
L39.4643 49.0143
" />
<path d="M39.4643 49.0143
L39.5119 49.1096
" />
<path d="M39.5119 49.1096
L39.5595 49.1572
" />
<path d="M39.5595 49.1572
L39.6548 49.2048
" />
<path d="M39.6548 49.2048
L39.8452 49.2048
" />
<path d="M39.8452 49.2048
L39.9405 49.1572
" />
<path d="M39.9405 49.1572
L39.9881 49.1096
" />
<path d="M39.9881 49.1096
L40.0357 49.0143
" />
<path d="M40.0357 49.0143
L40.0357 48.8239
" />
<path d="M40.0357 48.8239
L39.9881 48.7286
" />
<path d="M39.9881 48.7286
L39.9405 48.6810
" />
<path d="M39.9405 48.6810
L39.8452 48.6334
" />
</g></g>
<g style="fill:none; 
stroke:#000000; stroke-width:0.1200; stroke-opacity:1; 
stroke-linecap:round; stroke-linejoin:round;">
<circle cx="40.0000" cy="31.7000" r="0.7000" /> 
<path d="M13.1625 39.7500
L13.1625 44.2500
" />
<path d="M15.6625 45.5000
L17.1625 45.5000
" />
<path d="M17.1625 38.5000
L15.6625 38.5000
" />
<path d="M19.6625 44.2500
L19.6625 39.7500
" />
<path d="M59.1700 57.2100
L67.3300 57.2100
" />
<path d="M59.1700 57.2500
L67.3300 57.2500
" />
<path d="M59.1710 57.1700
L67.3290 57.1700
" />
<path d="M59.1720 57.1300
L67.3280 57.1300
" />
<path d="M59.1730 57.0900
L67.3270 57.0900
" />
<path d="M59.1750 57.0500
L67.3250 57.0500
" />
<path d="M59.1770 57.0100
L67.3230 57.0100
" />
<path d="M59.1800 56.9700
L67.3200 56.9700
" />
<path d="M59.1820 56.9300
L67.3180 56.9300
" />
<path d="M59.1860 56.8900
L67.3140 56.8900
" />
<path d="M59.1890 56.8500
L67.3110 56.8500
" />
<path d="M59.1940 56.8100
L67.3060 56.8100
" />
<path d="M59.1980 56.7700
L67.3020 56.7700
" />
<path d="M59.2030 56.7300
L67.2970 56.7300
" />
<path d="M59.2080 56.6900
L67.2920 56.6900
" />
<path d="M59.2140 56.6500
L67.2860 56.6500
" />
<path d="M59.2200 56.6100
L67.2800 56.6100
" />
<path d="M59.2270 56.5700
L67.2730 56.5700
" />
<path d="M59.2330 56.5300
L62.2100 56.5300
" />
<path d="M59.2410 56.4900
L62.2100 56.4900
" />
<path d="M59.2480 56.4500
L62.2100 56.4500
" />
<path d="M59.2570 56.4100
L62.2100 56.4100
" />
<path d="M59.2650 56.3700
L62.2100 56.3700
" />
<path d="M59.2740 56.3300
L62.2100 56.3300
" />
<path d="M59.2830 56.2900
L62.2100 56.2900
" />
<path d="M59.2930 56.2500
L62.2100 56.2500
" />
<path d="M59.3030 56.2100
L62.2100 56.2100
" />
<path d="M59.3140 56.1700
L62.2100 56.1700
" />
<path d="M59.3250 56.1300
L62.2100 56.1300
" />
<path d="M59.3370 56.0900
L62.2100 56.0900
" />
<path d="M59.3490 56.0500
L62.2100 56.0500
" />
<path d="M59.3610 56.0100
L62.2100 56.0100
" />
<path d="M59.3740 55.9700
L62.2100 55.9700
" />
<path d="M59.3870 55.9300
L62.2100 55.9300
" />
<path d="M59.4010 55.8900
L62.2100 55.8900
" />
<path d="M59.4150 55.8500
L62.2100 55.8500
" />
<path d="M59.4300 55.8100
L62.2100 55.8100
" />
<path d="M59.4450 55.7700
L62.2100 55.7700
" />
<path d="M59.4610 55.7300
L62.2100 55.7300
" />
<path d="M59.4770 55.6900
L62.2100 55.6900
" />
<path d="M59.4930 55.6500
L62.2100 55.6500
" />
<path d="M59.5100 55.6100
L62.2100 55.6100
" />
<path d="M59.5280 55.5700
L62.2100 55.5700
" />
<path d="M59.5460 55.5300
L62.2100 55.5300
" />
<path d="M59.5650 55.4900
L62.2100 55.4900
" />
<path d="M59.5840 55.4500
L62.2100 55.4500
" />
<path d="M59.6040 55.4100
L62.2100 55.4100
" />
<path d="M59.6240 55.3700
L62.2100 55.3700
" />
<path d="M59.6450 55.3300
L62.2100 55.3300
" />
<path d="M59.6660 55.2900
L62.2100 55.2900
" />
<path d="M59.6880 55.2500
L62.2100 55.2500
" />
<path d="M59.7110 55.2100
L62.2100 55.2100
" />
<path d="M59.7340 55.1700
L62.2100 55.1700
" />
<path d="M59.7570 55.1300
L62.2100 55.1300
" />
<path d="M59.7820 55.0900
L62.2100 55.0900
" />
<path d="M59.8070 55.0500
L62.2100 55.0500
" />
<path d="M59.8320 55.0100
L62.2100 55.0100
" />
<path d="M59.8580 54.9700
L62.2100 54.9700
" />
<path d="M59.8850 54.9300
L62.2100 54.9300
" />
<path d="M59.9130 54.8900
L62.2100 54.8900
" />
<path d="M59.9410 54.8500
L62.2100 54.8500
" />
<path d="M59.9700 54.8100
L62.2100 54.8100
" />
<path d="M60.0000 54.7700
L62.2100 54.7700
" />
<path d="M60.0310 54.7300
L62.2100 54.7300
" />
<path d="M60.0620 54.6900
L62.2100 54.6900
" />
<path d="M60.0940 54.6500
L62.2100 54.6500
" />
<path d="M60.1270 54.6100
L62.2100 54.6100
" />
<path d="M60.1610 54.5700
L62.2100 54.5700
" />
<path d="M60.1950 54.5300
L62.2100 54.5300
" />
<path d="M60.2310 54.4900
L62.2100 54.4900
" />
<path d="M60.2680 54.4500
L66.2320 54.4500
" />
<path d="M60.3050 54.4100
L66.1950 54.4100
" />
<path d="M60.3440 54.3700
L66.1560 54.3700
" />
<path d="M60.3830 54.3300
L66.1170 54.3300
" />
<path d="M60.4240 54.2900
L66.0760 54.2900
" />
<path d="M60.4660 54.2500
L66.0340 54.2500
" />
<path d="M60.5090 54.2100
L65.9910 54.2100
" />
<path d="M60.5350 61.2597
L61.3350 61.2597
" />
<path d="M60.5540 54.1700
L65.9460 54.1700
" />
<path d="M60.5990 54.1300
L65.9010 54.1300
" />
<path d="M60.6460 54.0900
L65.8540 54.0900
" />
<path d="M60.6950 54.0500
L65.8050 54.0500
" />
<path d="M60.7450 54.0100
L65.7550 54.0100
" />
<path d="M60.7970 53.9700
L65.7030 53.9700
" />
<path d="M60.8500 53.9300
L65.6500 53.9300
" />
<path d="M60.9060 53.8900
L65.5940 53.8900
" />
<path d="M60.9350 61.6597
L60.9350 60.8597
" />
<path d="M60.9630 53.8500
L65.5370 53.8500
" />
<path d="M61.0230 53.8100
L65.4770 53.8100
" />
<path d="M61.0850 53.7700
L65.4150 53.7700
" />
<path d="M61.1490 53.7300
L65.3510 53.7300
" />
<path d="M61.2160 53.6900
L65.2840 53.6900
" />
<path d="M61.2860 53.6500
L65.2140 53.6500
" />
<path d="M61.3600 53.6100
L65.1400 53.6100
" />
<path d="M61.4370 53.5700
L65.0630 53.5700
" />
<path d="M61.5190 53.5300
L64.9810 53.5300
" />
<path d="M61.6060 53.4900
L64.8940 53.4900
" />
<path d="M61.6980 53.4500
L64.8020 53.4500
" />
<path d="M61.7970 53.4100
L64.7030 53.4100
" />
<path d="M61.9040 53.3700
L64.5960 53.3700
" />
<path d="M62.0220 53.3300
L64.4780 53.3300
" />
<path d="M62.1530 53.2900
L64.3470 53.2900
" />
<path d="M62.3030 53.2500
L64.1970 53.2500
" />
<path d="M62.4820 53.2100
L64.0180 53.2100
" />
<path d="M62.7170 53.1700
L63.7830 53.1700
" />
<path d="M64.2900 54.4900
L66.2690 54.4900
" />
<path d="M64.2900 54.5300
L66.3050 54.5300
" />
<path d="M64.2900 54.5700
L66.3390 54.5700
" />
<path d="M64.2900 54.6100
L66.3730 54.6100
" />
<path d="M64.2900 54.6500
L66.4060 54.6500
" />
<path d="M64.2900 54.6900
L66.4380 54.6900
" />
<path d="M64.2900 54.7300
L66.4690 54.7300
" />
<path d="M64.2900 54.7700
L66.5000 54.7700
" />
<path d="M64.2900 54.8100
L66.5300 54.8100
" />
<path d="M64.2900 54.8500
L66.5590 54.8500
" />
<path d="M64.2900 54.8900
L66.5870 54.8900
" />
<path d="M64.2900 54.9300
L66.6150 54.9300
" />
<path d="M64.2900 54.9700
L66.6420 54.9700
" />
<path d="M64.2900 55.0100
L66.6680 55.0100
" />
<path d="M64.2900 55.0500
L66.6930 55.0500
" />
<path d="M64.2900 55.0900
L66.7180 55.0900
" />
<path d="M64.2900 55.1300
L66.7430 55.1300
" />
<path d="M64.2900 55.1700
L66.7660 55.1700
" />
<path d="M64.2900 55.2100
L66.7890 55.2100
" />
<path d="M64.2900 55.2500
L66.8120 55.2500
" />
<path d="M64.2900 55.2900
L66.8340 55.2900
" />
<path d="M64.2900 55.3300
L66.8550 55.3300
" />
<path d="M64.2900 55.3700
L66.8760 55.3700
" />
<path d="M64.2900 55.4100
L66.8960 55.4100
" />
<path d="M64.2900 55.4500
L66.9160 55.4500
" />
<path d="M64.2900 55.4900
L66.9350 55.4900
" />
<path d="M64.2900 55.5300
L66.9540 55.5300
" />
<path d="M64.2900 55.5700
L66.9720 55.5700
" />
<path d="M64.2900 55.6100
L66.9900 55.6100
" />
<path d="M64.2900 55.6500
L67.0070 55.6500
" />
<path d="M64.2900 55.6900
L67.0230 55.6900
" />
<path d="M64.2900 55.7300
L67.0390 55.7300
" />
<path d="M64.2900 55.7700
L67.0550 55.7700
" />
<path d="M64.2900 55.8100
L67.0700 55.8100
" />
<path d="M64.2900 55.8500
L67.0850 55.8500
" />
<path d="M64.2900 55.8900
L67.0990 55.8900
" />
<path d="M64.2900 55.9300
L67.1130 55.9300
" />
<path d="M64.2900 55.9700
L67.1260 55.9700
" />
<path d="M64.2900 56.0100
L67.1390 56.0100
" />
<path d="M64.2900 56.0500
L67.1510 56.0500
" />
<path d="M64.2900 56.0900
L67.1630 56.0900
" />
<path d="M64.2900 56.1300
L67.1750 56.1300
" />
<path d="M64.2900 56.1700
L67.1860 56.1700
" />
<path d="M64.2900 56.2100
L67.1970 56.2100
" />
<path d="M64.2900 56.2500
L67.2070 56.2500
" />
<path d="M64.2900 56.2900
L67.2170 56.2900
" />
<path d="M64.2900 56.3300
L67.2260 56.3300
" />
<path d="M64.2900 56.3700
L67.2350 56.3700
" />
<path d="M64.2900 56.4100
L67.2430 56.4100
" />
<path d="M64.2900 56.4500
L67.2520 56.4500
" />
<path d="M64.2900 56.4900
L67.2590 56.4900
" />
<path d="M64.2900 56.5300
L67.2670 56.5300
" />
<circle cx="63.2500" cy="57.2500" r="4.1200" /> 
<path d="M13.0025 46.8525
L13.0025 48.3225
" />
<path d="M13.0025 48.3225
L15.4625 48.3225
" />
<path d="M15.4625 46.8525
L13.0025 46.8525
" />
<path d="M30.4162 43.0775
L30.7588 43.0775
" />
<path d="M30.4162 44.0975
L30.7588 44.0975
" />
<path d="M35.7275 28.0875
L35.7275 30.0875
" />
<path d="M35.7275 28.0875
L39.7375 28.0875
" />
<path d="M35.7275 30.0875
L39.7375 30.0875
" />
<path d="M21.8900 30.2297
L21.8900 30.4453
" />
<path d="M22.6100 30.2297
L22.6100 30.4453
" />
<path d="M38.7000 61.7000
L61.3000 61.7000
" />
<path d="M38.7000 64.5000
L38.7000 61.7000
" />
<path d="M38.7000 71.3000
L38.7000 68.5000
" />
<path d="M38.7000 71.3000
L61.3000 71.3000
" />
<path d="M61.3000 64.5000
L61.3000 61.7000
" />
<path d="M61.3000 71.3000
L61.3000 68.5000
" />
<path d="M19.1037 35.8275
L19.3963 35.8275
" />
<path d="M19.1037 36.8475
L19.3963 36.8475
" />
</g>
<g style="fill:none; 
stroke:#000000; stroke-width:0.1000; stroke-opacity:1; 
stroke-linecap:round; stroke-linejoin:round;">
<path d="M41.2500 51.3500
L41.2500 58.8500
" />
<path d="M49.2500 51.3500
L50.2500 52.3500
" />
<path d="M50.2500 52.3500
L50.2500 57.8500
" />
<path d="M50.2500 57.8500
L49.2500 58.8500
" />
</g>
<g style="fill:none; 
stroke:#000000; stroke-width:0.1200; stroke-opacity:1; 
stroke-linecap:round; stroke-linejoin:round;">
<path d="M33.8900 31.4453
L33.8900 31.2297
" />
<path d="M34.6100 31.4453
L34.6100 31.2297
" />
<path style="fill:#000000; fill-opacity:1.0000; stroke:none;fill-rule:evenodd;"
d="M 331.0825,69.6385
331.2271,69.6781
331.3632,69.7406
331.4883,69.8251
331.6000,69.9308
331.6955,70.0566
331.7572,70.1680
331.8019,70.2754
331.8298,70.3778
331.8434,70.4867
331.8457,70.5704
331.8395,70.6989
331.8198,70.8125
331.7842,70.9219
331.7472,71.0042
331.6662,71.1380
331.5650,71.2547
331.4467,71.3529
331.3142,71.4308
331.1704,71.4869
331.0185,71.5196
330.8613,71.5273
330.7866,71.5218
330.6323,71.4909
330.4880,71.4356
330.3560,71.3584
330.2383,71.2615
330.1374,71.1473
330.0553,71.0182
329.9942,70.8765
329.9565,70.7245
329.9464,70.6344
329.9472,70.5673
330.3992,70.5673
330.4111,70.6899
330.4472,70.7989
330.5067,70.8935
330.5890,70.9725
330.6935,71.0350
330.7167,71.0453
330.8066,71.0703
330.9075,71.0770
331.0100,71.0657
331.1043,71.0368
331.1122,71.0333
331.2085,70.9751
331.2857,70.9002
331.3433,70.8122
331.3811,70.7151
331.3985,70.6125
331.3954,70.5083
331.3712,70.4061
331.3255,70.3098
331.2581,70.2232
331.1998,70.1719
331.1055,70.1147
331.0049,70.0825
330.8941,70.0732
330.7857,70.0839
330.6909,70.1153
330.6039,70.1701
330.5455,70.2223
330.4743,70.3064
330.4280,70.3935
330.4041,70.4899
330.3992,70.5673
329.9472,70.5673
329.9482,70.4873
329.9740,70.3442
330.0248,70.1997
330.0490,70.1474
330.0853,70.0779
330.1213,70.0214
330.1641,69.9681
330.2210,69.9081
330.2262,69.9030
330.2871,69.8447
330.3405,69.8010
330.3964,69.7648
330.4646,69.7288
330.4706,69.7258
330.6236,69.6653
330.7782,69.6312
330.9320,69.6225
Z" /> 
<path style="fill:#000000; fill-opacity:1.0000; stroke:none;fill-rule:evenodd;"
d="M 343.4174,69.6294
343.5702,69.6651
343.6840,69.7103
343.7589,69.7487
343.8097,69.7825
343.8394,69.8139
343.8508,69.8454
343.8512,69.8522
343.8429,69.8781
343.8198,69.9209
343.7846,69.9761
343.7515,70.0235
343.7039,70.0874
343.6669,70.1302
343.6359,70.1539
343.6065,70.1608
343.5739,70.1529
343.5336,70.1322
343.5257,70.1276
343.4169,70.0785
343.3066,70.0558
343.1978,70.0584
343.0936,70.0853
342.9971,70.1357
342.9113,70.2083
342.8394,70.3023
342.8065,70.3635
342.7687,70.4674
342.7560,70.5675
342.7679,70.6705
342.7796,70.7145
342.8275,70.8282
342.8974,70.9254
342.9900,71.0069
343.0522,71.0461
343.0872,71.0643
343.1188,71.0757
343.1553,71.0820
343.2047,71.0846
343.2606,71.0850
343.3253,71.0845
343.3713,71.0816
343.4075,71.0743
343.4430,71.0606
343.4869,71.0384
343.4993,71.0317
343.5491,71.0073
343.5920,70.9901
343.6205,70.9830
343.6244,70.9832
343.6446,70.9968
343.6753,71.0286
343.7125,71.0731
343.7521,71.1250
343.7901,71.1787
343.8225,71.2288
343.8454,71.2698
343.8546,71.2962
343.8546,71.2973
343.8490,71.3238
343.8299,71.3494
343.7937,71.3768
343.7370,71.4089
343.6914,71.4317
343.5559,71.4851
343.4138,71.5183
343.2727,71.5299
343.1703,71.5234
343.0112,71.4886
342.8627,71.4296
342.7278,71.3475
342.6603,71.2929
342.5519,71.1786
342.4659,71.0513
342.4025,70.9142
342.3615,70.7701
342.3429,70.6223
342.3466,70.4735
342.3726,70.3270
342.4208,70.1857
342.4912,70.0525
342.5837,69.9306
342.6859,69.8329
342.8171,69.7426
342.9591,69.6767
343.1086,69.6356
343.2624,69.6197
Z" /> 
<path style="fill:#000000; fill-opacity:1.0000; stroke:none;fill-rule:evenodd;"
d="M 335.5249,69.6408
335.7067,69.6774
335.8755,69.7303
336.0297,69.7979
336.1683,69.8788
336.2896,69.9714
336.3925,70.0742
336.4756,70.1856
336.5375,70.3041
336.5769,70.4282
336.5924,70.5564
336.5828,70.6871
336.5503,70.8088
336.4893,70.9411
336.4064,71.0609
336.2999,71.1700
336.1682,71.2705
335.9959,71.3690
335.8098,71.4436
335.6099,71.4940
335.3964,71.5204
335.1695,71.5226
335.1182,71.5199
334.9247,71.4951
334.7314,71.4467
334.5458,71.3770
334.3916,71.2981
334.3213,71.2492
334.2454,71.1841
334.1701,71.1094
334.1020,71.0316
334.0474,70.9574
334.0234,70.9167
333.9668,70.7809
333.9380,70.6458
333.9373,70.5703
334.3797,70.5703
334.3871,70.6274
334.4246,70.7152
334.4871,70.7978
334.5721,70.8735
334.6768,70.9405
334.7987,70.9971
334.9353,71.0416
335.0394,71.0648
335.1021,71.0717
335.1844,71.0743
335.2782,71.0729
335.3758,71.0679
335.4692,71.0597
335.5505,71.0487
335.6028,71.0378
335.7359,70.9934
335.8573,70.9348
335.9630,70.8647
336.0489,70.7856
336.1068,70.7076
336.1274,70.6676
336.1370,70.6308
336.1384,70.5847
336.1371,70.5589
336.1306,70.5019
336.1165,70.4582
336.0899,70.4135
336.0825,70.4030
336.0036,70.3155
335.9025,70.2394
335.7828,70.1760
335.6482,70.1263
335.5022,70.0918
335.3486,70.0737
335.1909,70.0731
335.1290,70.0780
334.9523,70.1065
334.7943,70.1541
334.6557,70.2205
334.5373,70.3053
334.5053,70.3348
334.4359,70.4152
334.3940,70.4936
334.3797,70.5703
333.9373,70.5703
333.9368,70.5108
333.9632,70.3752
333.9726,70.3455
334.0311,70.2154
334.1134,70.0952
334.2173,69.9861
334.3403,69.8891
334.4799,69.8053
334.6338,69.7359
334.7995,69.6819
334.9747,69.6444
335.1568,69.6245
335.3435,69.6233
Z" /> 
<path style="fill:#000000; fill-opacity:1.0000; stroke:none;fill-rule:evenodd;"
d="M 341.4176,69.6327
341.5570,69.6723
341.6884,69.7362
341.8084,69.8227
341.9138,69.9300
341.9393,69.9622
342.0060,70.0639
342.0521,70.1671
342.0821,70.2825
342.0879,70.3167
342.1000,70.4276
342.0976,70.5176
342.0800,70.5902
342.0464,70.6487
341.9978,70.6951
341.9872,70.7023
341.9746,70.7082
341.9573,70.7131
341.9325,70.7170
341.8977,70.7201
341.8499,70.7226
341.7866,70.7247
341.7050,70.7264
341.6024,70.7281
341.4760,70.7298
341.4047,70.7307
340.8499,70.7377
340.8899,70.8210
340.9520,70.9198
341.0327,70.9988
341.1301,71.0567
341.2419,71.0921
341.3292,71.1029
341.4476,71.1001
341.5634,71.0782
341.6836,71.0356
341.7570,71.0012
341.8208,70.9706
341.8649,70.9537
341.8928,70.9491
341.9033,70.9519
341.9196,70.9682
341.9463,71.0032
341.9797,71.0517
342.0147,71.1061
342.0569,71.1757
342.0831,71.2272
342.0931,71.2654
342.0864,71.2950
342.0628,71.3208
342.0219,71.3478
341.9965,71.3622
341.8572,71.4283
341.7057,71.4792
341.5490,71.5134
341.3944,71.5294
341.2488,71.5259
341.2181,71.5223
341.0622,71.4877
340.9173,71.4294
340.7860,71.3492
340.6708,71.2491
340.5743,71.1309
340.4989,70.9965
340.4961,70.9902
340.4547,70.8686
340.4287,70.7315
340.4189,70.5867
340.4257,70.4420
340.4406,70.3546
340.8776,70.3546
340.8894,70.3595
340.9252,70.3635
340.9858,70.3664
341.0721,70.3683
341.1849,70.3693
341.2598,70.3694
341.6419,70.3694
341.6417,70.3382
341.6324,70.2922
341.6081,70.2365
341.5741,70.1806
341.5357,70.1340
341.5221,70.1215
341.4684,70.0848
341.4100,70.0624
341.3388,70.0519
341.2806,70.0502
341.1920,70.0588
341.1146,70.0862
341.0404,70.1357
341.0111,70.1612
340.9724,70.2016
340.9348,70.2486
340.9034,70.2951
340.8829,70.3342
340.8776,70.3546
340.4406,70.3546
340.4472,70.3156
340.4952,70.1686
340.5641,70.0346
340.6516,69.9155
340.7550,69.8136
340.8720,69.7309
341.0000,69.6695
341.1365,69.6316
341.2737,69.6191
Z" /> 
<path style="fill:#000000; fill-opacity:1.0000; stroke:none;fill-rule:evenodd;"
d="M 336.9866,69.6694
337.0209,69.6937
337.0728,69.7323
337.1403,69.7836
337.2212,69.8460
337.3136,69.9179
337.4154,69.9979
337.5246,70.0842
337.5951,70.1403
337.7073,70.2297
337.8130,70.3137
337.9100,70.3906
337.9965,70.4591
338.0705,70.5174
338.1299,70.5640
338.1729,70.5975
338.1974,70.6161
338.2024,70.6196
338.2041,70.6062
338.2059,70.5686
338.2077,70.5099
338.2095,70.4338
338.2110,70.3436
338.2124,70.2428
338.2127,70.2106
338.2140,70.0867
338.2156,69.9873
338.2183,69.9093
338.2228,69.8494
338.2298,69.8046
338.2399,69.7715
338.2541,69.7469
338.2728,69.7277
338.2970,69.7107
338.3272,69.6926
338.3292,69.6914
338.3954,69.6675
338.4650,69.6675
338.5318,69.6893
338.5893,69.7309
338.6314,69.7902
338.6317,69.7906
338.6365,69.8032
338.6406,69.8202
338.6441,69.8438
338.6469,69.8762
338.6492,69.9196
338.6510,69.9763
338.6523,70.0484
338.6533,70.1382
338.6539,70.2478
338.6543,70.3794
338.6544,70.5353
338.6545,70.6432
338.6543,70.8242
338.6539,70.9789
338.6531,71.1091
338.6519,71.2162
338.6503,71.3019
338.6483,71.3678
338.6458,71.4153
338.6427,71.4463
338.6392,71.4621
338.6378,71.4644
338.6110,71.4780
338.5900,71.4810
338.5715,71.4722
338.5323,71.4462
338.4730,71.4033
338.3942,71.3441
338.2965,71.2690
338.1805,71.1786
338.0470,71.0732
337.9571,71.0018
337.3553,70.5226
337.3483,70.9364
337.3462,71.0566
337.3440,71.1521
337.3416,71.2262
337.3387,71.2819
337.3352,71.3226
337.3308,71.3512
337.3252,71.3711
337.3184,71.3853
337.3169,71.3877
337.2674,71.4395
337.2028,71.4731
337.1316,71.4851
337.0913,71.4809
337.0298,71.4603
336.9807,71.4244
336.9494,71.3882
336.9106,71.3373
336.9067,70.5250
336.9060,70.3534
336.9054,70.2076
336.9052,70.0852
336.9054,69.9842
336.9060,69.9024
336.9070,69.8376
336.9086,69.7878
336.9107,69.7507
336.9134,69.7243
336.9168,69.7063
336.9209,69.6947
336.9258,69.6872
336.9263,69.6867
336.9527,69.6666
336.9718,69.6610
Z" /> 
<path style="fill:#000000; fill-opacity:1.0000; stroke:none;fill-rule:evenodd;"
d="M 333.2167,69.6611
333.3744,69.6619
333.5070,69.6634
333.6140,69.6653
333.6948,69.6678
333.7490,69.6708
333.7760,69.6744
333.7782,69.6752
333.7999,69.7002
333.8051,69.7237
333.7976,69.7420
333.7748,69.7792
333.7365,69.8358
333.6824,69.9122
333.6121,70.0088
333.5254,70.1260
333.4220,70.2642
333.3245,70.3936
332.8439,71.0295
333.2540,71.0364
333.3720,71.0385
333.4654,71.0405
333.5376,71.0426
333.5916,71.0452
333.6309,71.0485
333.6587,71.0527
333.6781,71.0581
333.6924,71.0650
333.7034,71.0724
333.7599,71.1289
333.7948,71.1955
333.8071,71.2668
333.7955,71.3375
333.7712,71.3855
333.7581,71.4049
333.7457,71.4215
333.7319,71.4355
333.7145,71.4471
333.6913,71.4565
333.6601,71.4640
333.6189,71.4698
333.5653,71.4741
333.4973,71.4772
333.4127,71.4792
333.3094,71.4803
333.1851,71.4809
333.0377,71.4810
332.8650,71.4810
332.8343,71.4810
332.6644,71.4810
332.5202,71.4809
332.3994,71.4806
332.3000,71.4801
332.2198,71.4793
332.1567,71.4781
332.1085,71.4765
332.0730,71.4743
332.0482,71.4715
332.0319,71.4681
332.0220,71.4639
332.0162,71.4589
332.0127,71.4533
332.0054,71.4195
332.0144,71.3942
332.0257,71.3775
332.0523,71.3408
332.0924,71.2862
332.1446,71.2158
332.2074,71.1316
332.2790,71.0359
332.3580,70.9307
332.4428,70.8182
332.5012,70.7407
332.5883,70.6254
332.6702,70.5168
332.7453,70.4168
332.8122,70.3276
332.8693,70.2512
332.9153,70.1894
332.9484,70.1444
332.9674,70.1182
332.9714,70.1120
332.9582,70.1102
332.9209,70.1085
332.8634,70.1072
332.7896,70.1062
332.7031,70.1056
332.6375,70.1054
332.5210,70.1051
332.4287,70.1036
332.3573,70.1004
332.3031,70.0950
332.2627,70.0866
332.2327,70.0748
332.2095,70.0590
332.1896,70.0385
332.1818,70.0289
332.1451,69.9617
332.1328,69.8888
332.1447,69.8165
332.1808,69.7510
332.1911,69.7390
332.2069,69.7222
332.2221,69.7080
332.2391,69.6962
332.2603,69.6865
332.2881,69.6788
332.3247,69.6728
332.3725,69.6683
332.4339,69.6651
332.5113,69.6630
332.6069,69.6617
332.7232,69.6611
332.8625,69.6608
333.0271,69.6608
333.0344,69.6608
Z" /> 
<path style="fill:#000000; fill-opacity:1.0000; stroke:none;fill-rule:evenodd;"
d="M 339.9326,68.6885
339.9853,68.6899
340.0196,68.6929
340.0402,68.6983
340.0518,68.7067
340.0574,68.7150
340.0633,68.7407
340.0677,68.7891
340.0706,68.8551
340.0720,68.9338
340.0719,69.0200
340.0705,69.1087
340.0677,69.1950
340.0636,69.2737
340.0582,69.3398
340.0516,69.3882
340.0515,69.3888
340.0119,69.5268
339.9491,69.6537
339.8655,69.7654
339.7843,69.8419
339.7262,69.8885
339.8140,69.9689
339.9003,70.0587
339.9661,70.1536
340.0181,70.2638
340.0277,70.2894
340.0644,70.3903
340.0715,71.0181
340.0732,71.1724
340.0748,71.3015
340.0768,71.4077
340.0794,71.4936
340.0832,71.5616
340.0885,71.6143
340.0959,71.6540
340.1057,71.6833
340.1183,71.7046
340.1341,71.7204
340.1537,71.7332
340.1773,71.7456
340.1971,71.7555
340.2295,71.7700
340.2632,71.7793
340.3056,71.7844
340.3641,71.7865
340.4077,71.7867
340.4747,71.7872
340.5192,71.7893
340.5466,71.7938
340.5623,71.8015
340.5714,71.8135
340.5715,71.8136
340.5772,71.8377
340.5818,71.8829
340.5848,71.9426
340.5859,72.0050
340.5853,72.0890
340.5814,72.1491
340.5711,72.1894
340.5512,72.2136
340.5188,72.2259
340.4706,72.2301
340.4079,72.2303
340.3372,72.2277
340.2655,72.2219
340.2051,72.2139
340.1886,72.2108
340.0577,72.1686
339.9400,72.1026
339.8370,72.0143
339.7507,71.9052
339.6825,71.7768
339.6706,71.7475
339.6349,71.6547
339.6275,71.0360
339.6202,70.4172
339.5847,70.3483
339.5399,70.2812
339.4798,70.2268
339.4009,70.1830
339.3001,70.1478
339.2311,70.1307
339.1477,70.1124
339.1439,69.9025
339.1430,69.8150
339.1440,69.7520
339.1471,69.7102
339.1526,69.6863
339.1578,69.6787
339.1802,69.6689
339.2206,69.6574
339.2623,69.6482
339.3467,69.6284
339.4126,69.6030
339.4692,69.5678
339.5094,69.5339
339.5446,69.4988
339.5720,69.4634
339.5927,69.4237
339.6076,69.3758
339.6176,69.3158
339.6235,69.2396
339.6264,69.1434
339.6271,69.0291
339.6274,68.9283
339.6283,68.8517
339.6303,68.7957
339.6334,68.7569
339.6379,68.7315
339.6441,68.7161
339.6489,68.7100
339.6633,68.7008
339.6876,68.6945
339.7266,68.6906
339.7846,68.6886
339.8569,68.6882
Z" /> 
<path style="fill:#000000; fill-opacity:1.0000; stroke:none;fill-rule:evenodd;"
d="M 344.4280,68.6891
344.4883,68.6922
344.5365,68.6970
344.5662,68.7034
344.5718,68.7067
344.5764,68.7244
344.5804,68.7660
344.5837,68.8323
344.5865,68.9240
344.5887,69.0417
344.5903,69.1862
344.5909,69.2616
344.5946,69.7979
344.6743,69.7443
344.7786,69.6841
344.8834,69.6458
344.9988,69.6260
345.0392,69.6230
345.1867,69.6282
345.3261,69.6586
345.4552,69.7127
345.5721,69.7885
345.6747,69.8842
345.7609,69.9982
345.8286,70.1287
345.8760,70.2737
345.8932,70.3639
345.8970,70.4038
345.9002,70.4648
345.9028,70.5430
345.9048,70.6346
345.9062,70.7358
345.9071,70.8429
345.9073,70.9521
345.9070,71.0595
345.9061,71.1614
345.9046,71.2539
345.9025,71.3334
345.8998,71.3959
345.8965,71.4377
345.8932,71.4542
345.8854,71.4649
345.8721,71.4723
345.8488,71.4771
345.8110,71.4797
345.7540,71.4808
345.6853,71.4810
345.6079,71.4807
345.5536,71.4795
345.5180,71.4766
345.4963,71.4715
345.4840,71.4637
345.4774,71.4542
345.4732,71.4321
345.4697,71.3836
345.4669,71.3097
345.4648,71.2119
345.4635,71.0912
345.4630,70.9491
345.4630,70.9287
345.4628,70.7846
345.4620,70.6653
345.4601,70.5678
345.4569,70.4891
345.4519,70.4262
345.4448,70.3762
345.4352,70.3359
345.4227,70.3025
345.4069,70.2730
345.3875,70.2443
345.3754,70.2280
345.3015,70.1526
345.2140,70.0989
345.1174,70.0673
345.0160,70.0582
344.9141,70.0720
344.8161,70.1092
344.7305,70.1666
344.7015,70.1986
344.6688,70.2459
344.6402,70.2970
344.5946,70.3896
344.5904,70.9173
344.5888,71.0767
344.5866,71.2088
344.5837,71.3135
344.5803,71.3908
344.5763,71.4404
344.5718,71.4625
344.5714,71.4630
344.5559,71.4709
344.5227,71.4764
344.4689,71.4796
344.3912,71.4810
344.3641,71.4810
344.2870,71.4808
344.2331,71.4795
344.1977,71.4766
344.1762,71.4715
344.1639,71.4636
344.1571,71.4538
344.1544,71.4364
344.1521,71.3948
344.1501,71.3287
344.1484,71.2376
344.1472,71.1212
344.1462,70.9791
344.1457,70.8108
344.1455,70.6161
344.1456,70.3944
344.1460,70.1454
344.1462,70.0707
344.1469,69.8440
344.1476,69.6435
344.1483,69.4676
344.1491,69.3147
344.1500,69.1834
344.1511,69.0718
344.1523,68.9786
344.1537,68.9021
344.1554,68.8407
344.1572,68.7929
344.1594,68.7570
344.1619,68.7315
344.1647,68.7148
344.1679,68.7053
344.1708,68.7018
344.1950,68.6952
344.2392,68.6907
344.2971,68.6883
344.3622,68.6877
Z" /> 
</g>
<g style="fill:none; 
stroke:#000000; stroke-width:0.1200; stroke-opacity:1; 
stroke-linecap:round; stroke-linejoin:round;">
<path d="M17.9078 47.0650
L18.4172 47.0650
" />
<path d="M17.9078 48.1100
L18.4172 48.1100
" />
<path d="M23.0150 50.4512
L23.0150 50.9738
" />
<path d="M24.4850 50.4512
L24.4850 50.9738
" />
<path d="M12.8775 48.8525
L12.8775 50.3225
" />
<path d="M12.8775 50.3225
L15.3375 50.3225
" />
<path d="M15.3375 48.8525
L12.8775 48.8525
" />
<path d="M25.8578 27.4775
L25.6422 27.4775
" />
<path d="M25.8578 28.1975
L25.6422 28.1975
" />
<path d="M31.1422 39.4775
L31.3578 39.4775
" />
<path d="M31.1422 40.1975
L31.3578 40.1975
" />
<circle cx="51.0000" cy="31.0000" r="1.7000" /> 
<path d="M30.8488 40.8525
L30.3262 40.8525
" />
<path d="M30.8488 42.3225
L30.3262 42.3225
" />
</g>
<g style="fill:none; 
stroke:#000000; stroke-width:0.1270; stroke-opacity:1; 
stroke-linecap:round; stroke-linejoin:round;">
<path d="M38.3500 54.4000
L38.3500 57.1000
" />
<path d="M39.2500 56.5000
L39.2500 55.0000
" />
<path d="M39.7500 55.3750
L38.7500 55.3750
" />
<path d="M40.1500 54.4000
L40.1500 57.1000
" />
<path style="fill:#000000; fill-opacity:1.0000; 
stroke:#000000; stroke-width:0.1270; stroke-opacity:1; 
stroke-linecap:round; stroke-linejoin:round;fill-rule:evenodd;"
d="M 39.7500,56.1250
38.7500,56.1250
39.2500,55.3750
Z" /> 
</g>
<g style="fill:none; 
stroke:#000000; stroke-width:0.1200; stroke-opacity:1; 
stroke-linecap:round; stroke-linejoin:round;">
<path d="M56.1363 55.2900
L53.3637 55.2900
" />
<path d="M56.1363 58.7100
L53.3637 58.7100
" />
<path d="M34.0150 46.2613
L34.0150 45.7387
" />
<path d="M35.4850 46.2613
L35.4850 45.7387
" />
<path d="M34.0650 42.1763
L34.0650 41.6537
" />
<path d="M35.5350 42.1763
L35.5350 41.6537
" />
</g>
<g style="fill:none; 
stroke:#000000; stroke-width:0.2000; stroke-opacity:1; 
stroke-linecap:round; stroke-linejoin:round;">
<path d="M25.0913 48.2775
L25.0913 55.5775
" />
<path d="M26.1827 48.2775
L25.0973 48.2800
" />
<path d="M26.1827 55.5775
L25.0913 55.5775
" />
<path d="M34.3913 48.2775
L33.3060 48.2800
" />
<path d="M34.3913 48.2775
L34.3913 55.5775
" />
<path d="M34.3913 55.5775
L33.3000 55.5775
" />
</g>
<g style="fill:none; 
stroke:#000000; stroke-width:0.5000; stroke-opacity:1; 
stroke-linecap:round; stroke-linejoin:round;">
<path d="M32.1053 47.5155 A0.2000 0.2000 0.0 1 0 32.1141 47.4771" />
</g>
<g style="fill:none; 
stroke:#000000; stroke-width:0.1200; stroke-opacity:1; 
stroke-linecap:round; stroke-linejoin:round;">
<path d="M19.1037 29.8275
L19.3963 29.8275
" />
<path d="M19.1037 30.8475
L19.3963 30.8475
" />
<path d="M35.5150 54.2613
L35.5150 53.7387
" />
<path d="M36.9850 54.2613
L36.9850 53.7387
" />
<path d="M28.9650 60.8050
L32.2500 60.8050
" />
<path d="M28.9650 63.4550
L28.9650 60.8050
" />
<path d="M28.9650 65.9950
L28.9650 71.1850
" />
<path d="M28.9650 65.9950
L35.5350 65.9950
" />
<path d="M28.9650 71.1850
L35.5350 71.1850
" />
<path d="M35.5350 65.9950
L35.5350 71.1850
" />
<path d="M18.5500 32.5750
L18.5500 33.9250
" />
<path d="M21.4500 32.5750
L21.4500 33.9250
" />
<path d="M17.7828 49.0650
L18.2922 49.0650
" />
<path d="M17.7828 50.1100
L18.2922 50.1100
" />
<path d="M12.4500 68.4500
L21.9000 68.4450
" />
<path d="M21.9000 58.5550
L12.4500 58.5550
" />
<path d="M21.9000 59.7600
L21.9000 58.5550
" />
<path d="M21.9000 67.2400
L27.6700 67.2400
" />
<path d="M21.9000 68.4450
L21.9000 67.2400
" />
<path d="M27.6700 59.7600
L21.9000 59.7600
" />
<path d="M27.6700 67.2400
L27.6700 59.7600
" />
<circle cx="40.0000" cy="34.0000" r="0.7000" /> 
<path d="M27.2275 25.9953
L27.2275 26.5047
" />
<path d="M28.2725 25.9953
L28.2725 26.5047
" />
<path d="M24.6400 30.3900
L24.6400 30.8400
" />
<path d="M24.6400 37.6100
L24.6400 37.1600
" />
<path d="M25.0900 30.3900
L24.6400 30.3900
" />
<path d="M25.0900 37.6100
L24.6400 37.6100
" />
<path d="M31.4100 30.3900
L31.8600 30.3900
" />
<path d="M31.4100 37.6100
L31.8600 37.6100
" />
<path d="M31.8600 30.3900
L31.8600 30.8400
" />
<path d="M31.8600 37.6100
L31.8600 37.1600
" />
<path style="fill:#000000; fill-opacity:1.0000; 
stroke:#000000; stroke-width:0.1200; stroke-opacity:1; 
stroke-linecap:round; stroke-linejoin:round;fill-rule:evenodd;"
d="M 24.0500,30.8400
23.7100,30.3700
24.3900,30.3700
Z" /> 
</g>
<g style="fill:none; 
stroke:#000000; stroke-width:0.1200; stroke-opacity:1; 
stroke-linecap:round; stroke-linejoin:round;">
<path d="M38.6500 39.8400
L42.4100 39.8400
" />
<path d="M38.6500 46.6600
L42.4100 46.6600
" />
<path d="M42.4100 39.8400
L42.4100 41.1000
" />
<path d="M42.4100 46.6600
L42.4100 45.4000
" />
<path style="fill:#000000; fill-opacity:1.0000; 
stroke:#000000; stroke-width:0.1200; stroke-opacity:1; 
stroke-linecap:round; stroke-linejoin:round;fill-rule:evenodd;"
d="M 37.3700,39.9400
37.1300,39.6100
37.6100,39.6100
Z" /> 
</g>
<g style="fill:none; 
stroke:#000000; stroke-width:0.1200; stroke-opacity:1; 
stroke-linecap:round; stroke-linejoin:round;">
<path d="M30.3975 24.7075
L30.3975 27.4675
" />
<path d="M38.1275 24.7075
L30.3975 24.7075
" />
<path d="M38.1275 24.7075
L38.1275 27.4675
" />
<path d="M38.1275 27.4675
L30.3975 27.4675
" />
<path d="M39.3975 24.7075
L40.7775 24.7075
" />
<path d="M40.7775 24.7075
L40.7775 26.0875
" />
<path d="M38.5150 49.5900
L38.5150 52.0500
" />
<path d="M39.9850 49.5900
L38.5150 49.5900
" />
<path d="M39.9850 52.0500
L39.9850 49.5900
" />
</g> 
</svg>
