%TF.GenerationSoftware,KiCad,Pcbnew,9.0.4*%
%TF.CreationDate,2025-10-16T14:37:17+03:00*%
%TF.ProjectId,ECAD_main,45434144-5f6d-4616-996e-2e6b69636164,rev?*%
%TF.SameCoordinates,Original*%
%TF.FileFunction,Soldermask,Top*%
%TF.FilePolarity,Negative*%
%FSLAX46Y46*%
G04 Gerber Fmt 4.6, Leading zero omitted, Abs format (unit mm)*
G04 Created by KiCad (PCBNEW 9.0.4) date 2025-10-16 14:37:17*
%MOMM*%
%LPD*%
G01*
G04 APERTURE LIST*
G04 Aperture macros list*
%AMRoundRect*
0 Rectangle with rounded corners*
0 $1 Rounding radius*
0 $2 $3 $4 $5 $6 $7 $8 $9 X,Y pos of 4 corners*
0 Add a 4 corners polygon primitive as box body*
4,1,4,$2,$3,$4,$5,$6,$7,$8,$9,$2,$3,0*
0 Add four circle primitives for the rounded corners*
1,1,$1+$1,$2,$3*
1,1,$1+$1,$4,$5*
1,1,$1+$1,$6,$7*
1,1,$1+$1,$8,$9*
0 Add four rect primitives between the rounded corners*
20,1,$1+$1,$2,$3,$4,$5,0*
20,1,$1+$1,$4,$5,$6,$7,0*
20,1,$1+$1,$6,$7,$8,$9,0*
20,1,$1+$1,$8,$9,$2,$3,0*%
G04 Aperture macros list end*
%ADD10C,1.000000*%
%ADD11C,2.000000*%
%ADD12RoundRect,0.250000X0.550000X-0.550000X0.550000X0.550000X-0.550000X0.550000X-0.550000X-0.550000X0*%
%ADD13C,1.600000*%
%ADD14RoundRect,0.237500X-0.287500X-0.237500X0.287500X-0.237500X0.287500X0.237500X-0.287500X0.237500X0*%
%ADD15RoundRect,0.225000X-0.225000X-0.375000X0.225000X-0.375000X0.225000X0.375000X-0.225000X0.375000X0*%
%ADD16RoundRect,0.140000X-0.170000X0.140000X-0.170000X-0.140000X0.170000X-0.140000X0.170000X0.140000X0*%
%ADD17C,3.000000*%
%ADD18RoundRect,0.237500X-0.300000X-0.237500X0.300000X-0.237500X0.300000X0.237500X-0.300000X0.237500X0*%
%ADD19RoundRect,0.575000X-0.575000X-0.575000X0.575000X-0.575000X0.575000X0.575000X-0.575000X0.575000X0*%
%ADD20RoundRect,0.140000X0.170000X-0.140000X0.170000X0.140000X-0.170000X0.140000X-0.170000X-0.140000X0*%
%ADD21RoundRect,0.237500X-0.250000X-0.237500X0.250000X-0.237500X0.250000X0.237500X-0.250000X0.237500X0*%
%ADD22RoundRect,0.250000X-0.475000X0.337500X-0.475000X-0.337500X0.475000X-0.337500X0.475000X0.337500X0*%
%ADD23RoundRect,0.140000X0.140000X0.170000X-0.140000X0.170000X-0.140000X-0.170000X0.140000X-0.170000X0*%
%ADD24RoundRect,0.140000X-0.140000X-0.170000X0.140000X-0.170000X0.140000X0.170000X-0.140000X0.170000X0*%
%ADD25RoundRect,0.250000X0.337500X0.475000X-0.337500X0.475000X-0.337500X-0.475000X0.337500X-0.475000X0*%
%ADD26RoundRect,0.100400X-0.401600X0.561600X-0.401600X-0.561600X0.401600X-0.561600X0.401600X0.561600X0*%
%ADD27RoundRect,0.250000X0.400000X1.450000X-0.400000X1.450000X-0.400000X-1.450000X0.400000X-1.450000X0*%
%ADD28RoundRect,0.250000X0.475000X-0.337500X0.475000X0.337500X-0.475000X0.337500X-0.475000X-0.337500X0*%
%ADD29RoundRect,0.101600X0.625000X-1.435000X0.625000X1.435000X-0.625000X1.435000X-0.625000X-1.435000X0*%
%ADD30RoundRect,0.101600X-0.525000X0.790000X-0.525000X-0.790000X0.525000X-0.790000X0.525000X0.790000X0*%
%ADD31RoundRect,0.101600X-0.625000X1.435000X-0.625000X-1.435000X0.625000X-1.435000X0.625000X1.435000X0*%
%ADD32R,2.800000X2.800000*%
%ADD33C,2.800000*%
%ADD34RoundRect,0.150000X-1.200000X0.600000X-1.200000X-0.600000X1.200000X-0.600000X1.200000X0.600000X0*%
%ADD35R,3.020000X6.020000*%
%ADD36O,3.020000X6.020000*%
%ADD37RoundRect,0.237500X-0.237500X0.250000X-0.237500X-0.250000X0.237500X-0.250000X0.237500X0.250000X0*%
%ADD38RoundRect,0.075000X-0.662500X-0.075000X0.662500X-0.075000X0.662500X0.075000X-0.662500X0.075000X0*%
%ADD39RoundRect,0.075000X-0.075000X-0.662500X0.075000X-0.662500X0.075000X0.662500X-0.075000X0.662500X0*%
%ADD40RoundRect,0.375000X-0.625000X-0.375000X0.625000X-0.375000X0.625000X0.375000X-0.625000X0.375000X0*%
%ADD41RoundRect,0.500000X-0.500000X-1.400000X0.500000X-1.400000X0.500000X1.400000X-0.500000X1.400000X0*%
%ADD42R,1.700000X1.700000*%
%ADD43C,1.700000*%
%ADD44RoundRect,0.237500X-0.237500X0.287500X-0.237500X-0.287500X0.237500X-0.287500X0.237500X0.287500X0*%
G04 APERTURE END LIST*
D10*
%TO.C,TP2*%
X40000000Y-31700000D03*
%TD*%
D11*
%TO.C,SW1*%
X14162500Y-45250000D03*
X14162500Y-38750000D03*
X18662500Y-45250000D03*
X18662500Y-38750000D03*
%TD*%
D12*
%TO.C,C10*%
X63250000Y-59000000D03*
D13*
X63250000Y-55500000D03*
%TD*%
D14*
%TO.C,D2*%
X13787500Y-47587500D03*
X15537500Y-47587500D03*
%TD*%
%TO.C,FB1*%
X29712500Y-43587500D03*
X31462500Y-43587500D03*
%TD*%
D15*
%TO.C,D1*%
X36437500Y-29087500D03*
X39737500Y-29087500D03*
%TD*%
D16*
%TO.C,C6*%
X22250000Y-29857500D03*
X22250000Y-30817500D03*
%TD*%
D17*
%TO.C,F1*%
X38700000Y-66500000D03*
X61300000Y-66500000D03*
%TD*%
D18*
%TO.C,C9*%
X18387500Y-36337500D03*
X20112500Y-36337500D03*
%TD*%
D19*
%TO.C,FL1*%
X48800000Y-56850000D03*
X42600000Y-56850000D03*
X48800000Y-53350000D03*
X42600000Y-53350000D03*
%TD*%
D20*
%TO.C,C4*%
X34250000Y-31817500D03*
X34250000Y-30857500D03*
%TD*%
D21*
%TO.C,R2*%
X17250000Y-47587500D03*
X19075000Y-47587500D03*
%TD*%
D22*
%TO.C,C12*%
X23750000Y-49675000D03*
X23750000Y-51750000D03*
%TD*%
D14*
%TO.C,D3*%
X13662500Y-49587500D03*
X15412500Y-49587500D03*
%TD*%
D23*
%TO.C,C5*%
X26230000Y-27837500D03*
X25270000Y-27837500D03*
%TD*%
D24*
%TO.C,C3*%
X30770000Y-39837500D03*
X31730000Y-39837500D03*
%TD*%
D17*
%TO.C,TP3*%
X51000000Y-31000000D03*
%TD*%
D25*
%TO.C,C1*%
X31625000Y-41587500D03*
X29550000Y-41587500D03*
%TD*%
D26*
%TO.C,D4*%
X39250000Y-54020000D03*
X39250000Y-57480000D03*
%TD*%
D27*
%TO.C,F2*%
X56975000Y-57000000D03*
X52525000Y-57000000D03*
%TD*%
D28*
%TO.C,C14*%
X34750000Y-47037500D03*
X34750000Y-44962500D03*
%TD*%
%TO.C,C13*%
X34800000Y-42952500D03*
X34800000Y-40877500D03*
%TD*%
D29*
%TO.C,D9*%
X32281330Y-49712500D03*
X29741330Y-49712500D03*
X27201330Y-49712500D03*
D30*
X27201330Y-54787500D03*
D31*
X29741330Y-54142500D03*
D30*
X32281330Y-54787500D03*
%TD*%
D18*
%TO.C,C8*%
X18387500Y-30337500D03*
X20112500Y-30337500D03*
%TD*%
D28*
%TO.C,C15*%
X36250000Y-55037500D03*
X36250000Y-52962500D03*
%TD*%
D32*
%TO.C,J2*%
X32250000Y-63455000D03*
D33*
X32250000Y-68535000D03*
%TD*%
D34*
%TO.C,Y1*%
X20000000Y-34200000D03*
X20000000Y-32300000D03*
%TD*%
D21*
%TO.C,R3*%
X17125000Y-49587500D03*
X18950000Y-49587500D03*
%TD*%
D35*
%TO.C,J3*%
X26450000Y-63500000D03*
D36*
X20250000Y-63500000D03*
%TD*%
D10*
%TO.C,TP1*%
X40000000Y-34000000D03*
%TD*%
D37*
%TO.C,R1*%
X27750000Y-25337500D03*
X27750000Y-27162500D03*
%TD*%
D38*
%TO.C,U1*%
X24087500Y-31250000D03*
X24087500Y-31750000D03*
X24087500Y-32250000D03*
X24087500Y-32750000D03*
X24087500Y-33250000D03*
X24087500Y-33750000D03*
X24087500Y-34250000D03*
X24087500Y-34750000D03*
X24087500Y-35250000D03*
X24087500Y-35750000D03*
X24087500Y-36250000D03*
X24087500Y-36750000D03*
D39*
X25500000Y-38162500D03*
X26000000Y-38162500D03*
X26500000Y-38162500D03*
X27000000Y-38162500D03*
X27500000Y-38162500D03*
X28000000Y-38162500D03*
X28500000Y-38162500D03*
X29000000Y-38162500D03*
X29500000Y-38162500D03*
X30000000Y-38162500D03*
X30500000Y-38162500D03*
X31000000Y-38162500D03*
D38*
X32412500Y-36750000D03*
X32412500Y-36250000D03*
X32412500Y-35750000D03*
X32412500Y-35250000D03*
X32412500Y-34750000D03*
X32412500Y-34250000D03*
X32412500Y-33750000D03*
X32412500Y-33250000D03*
X32412500Y-32750000D03*
X32412500Y-32250000D03*
X32412500Y-31750000D03*
X32412500Y-31250000D03*
D39*
X31000000Y-29837500D03*
X30500000Y-29837500D03*
X30000000Y-29837500D03*
X29500000Y-29837500D03*
X29000000Y-29837500D03*
X28500000Y-29837500D03*
X28000000Y-29837500D03*
X27500000Y-29837500D03*
X27000000Y-29837500D03*
X26500000Y-29837500D03*
X26000000Y-29837500D03*
X25500000Y-29837500D03*
%TD*%
D40*
%TO.C,U2*%
X37350000Y-40950000D03*
X37350000Y-43250000D03*
D41*
X43650000Y-43250000D03*
D40*
X37350000Y-45550000D03*
%TD*%
D42*
%TO.C,J1*%
X39397500Y-26087500D03*
D43*
X36857500Y-26087500D03*
X34317500Y-26087500D03*
X31777500Y-26087500D03*
%TD*%
D44*
%TO.C,D8*%
X39250000Y-50375000D03*
X39250000Y-52125000D03*
%TD*%
M02*
