%TF.GenerationSoftware,KiCad,Pcbnew,9.0.4*%
%TF.CreationDate,2025-10-16T14:37:17+03:00*%
%TF.ProjectId,ECAD_main,45434144-5f6d-4616-996e-2e6b69636164,rev?*%
%TF.SameCoordinates,Original*%
%TF.FileFunction,Legend,Bot*%
%TF.FilePolarity,Positive*%
%FSLAX46Y46*%
G04 Gerber Fmt 4.6, Leading zero omitted, Abs format (unit mm)*
G04 Created by KiCad (PCBNEW 9.0.4) date 2025-10-16 14:37:17*
%MOMM*%
%LPD*%
G01*
G04 APERTURE LIST*
%ADD10C,0.150000*%
%ADD11C,0.120000*%
G04 APERTURE END LIST*
D10*
X44892857Y-68859580D02*
X44940476Y-68907200D01*
X44940476Y-68907200D02*
X45083333Y-68954819D01*
X45083333Y-68954819D02*
X45178571Y-68954819D01*
X45178571Y-68954819D02*
X45321428Y-68907200D01*
X45321428Y-68907200D02*
X45416666Y-68811961D01*
X45416666Y-68811961D02*
X45464285Y-68716723D01*
X45464285Y-68716723D02*
X45511904Y-68526247D01*
X45511904Y-68526247D02*
X45511904Y-68383390D01*
X45511904Y-68383390D02*
X45464285Y-68192914D01*
X45464285Y-68192914D02*
X45416666Y-68097676D01*
X45416666Y-68097676D02*
X45321428Y-68002438D01*
X45321428Y-68002438D02*
X45178571Y-67954819D01*
X45178571Y-67954819D02*
X45083333Y-67954819D01*
X45083333Y-67954819D02*
X44940476Y-68002438D01*
X44940476Y-68002438D02*
X44892857Y-68050057D01*
X43940476Y-68954819D02*
X44511904Y-68954819D01*
X44226190Y-68954819D02*
X44226190Y-67954819D01*
X44226190Y-67954819D02*
X44321428Y-68097676D01*
X44321428Y-68097676D02*
X44416666Y-68192914D01*
X44416666Y-68192914D02*
X44511904Y-68240533D01*
X42988095Y-68954819D02*
X43559523Y-68954819D01*
X43273809Y-68954819D02*
X43273809Y-67954819D01*
X43273809Y-67954819D02*
X43369047Y-68097676D01*
X43369047Y-68097676D02*
X43464285Y-68192914D01*
X43464285Y-68192914D02*
X43559523Y-68240533D01*
X24166666Y-33609580D02*
X24214285Y-33657200D01*
X24214285Y-33657200D02*
X24357142Y-33704819D01*
X24357142Y-33704819D02*
X24452380Y-33704819D01*
X24452380Y-33704819D02*
X24595237Y-33657200D01*
X24595237Y-33657200D02*
X24690475Y-33561961D01*
X24690475Y-33561961D02*
X24738094Y-33466723D01*
X24738094Y-33466723D02*
X24785713Y-33276247D01*
X24785713Y-33276247D02*
X24785713Y-33133390D01*
X24785713Y-33133390D02*
X24738094Y-32942914D01*
X24738094Y-32942914D02*
X24690475Y-32847676D01*
X24690475Y-32847676D02*
X24595237Y-32752438D01*
X24595237Y-32752438D02*
X24452380Y-32704819D01*
X24452380Y-32704819D02*
X24357142Y-32704819D01*
X24357142Y-32704819D02*
X24214285Y-32752438D01*
X24214285Y-32752438D02*
X24166666Y-32800057D01*
X23785713Y-32800057D02*
X23738094Y-32752438D01*
X23738094Y-32752438D02*
X23642856Y-32704819D01*
X23642856Y-32704819D02*
X23404761Y-32704819D01*
X23404761Y-32704819D02*
X23309523Y-32752438D01*
X23309523Y-32752438D02*
X23261904Y-32800057D01*
X23261904Y-32800057D02*
X23214285Y-32895295D01*
X23214285Y-32895295D02*
X23214285Y-32990533D01*
X23214285Y-32990533D02*
X23261904Y-33133390D01*
X23261904Y-33133390D02*
X23833332Y-33704819D01*
X23833332Y-33704819D02*
X23214285Y-33704819D01*
X60345238Y-70800057D02*
X60440476Y-70752438D01*
X60440476Y-70752438D02*
X60535714Y-70657200D01*
X60535714Y-70657200D02*
X60678571Y-70514342D01*
X60678571Y-70514342D02*
X60773809Y-70466723D01*
X60773809Y-70466723D02*
X60869047Y-70466723D01*
X60821428Y-70704819D02*
X60916666Y-70657200D01*
X60916666Y-70657200D02*
X61011904Y-70561961D01*
X61011904Y-70561961D02*
X61059523Y-70371485D01*
X61059523Y-70371485D02*
X61059523Y-70038152D01*
X61059523Y-70038152D02*
X61011904Y-69847676D01*
X61011904Y-69847676D02*
X60916666Y-69752438D01*
X60916666Y-69752438D02*
X60821428Y-69704819D01*
X60821428Y-69704819D02*
X60630952Y-69704819D01*
X60630952Y-69704819D02*
X60535714Y-69752438D01*
X60535714Y-69752438D02*
X60440476Y-69847676D01*
X60440476Y-69847676D02*
X60392857Y-70038152D01*
X60392857Y-70038152D02*
X60392857Y-70371485D01*
X60392857Y-70371485D02*
X60440476Y-70561961D01*
X60440476Y-70561961D02*
X60535714Y-70657200D01*
X60535714Y-70657200D02*
X60630952Y-70704819D01*
X60630952Y-70704819D02*
X60821428Y-70704819D01*
X59440476Y-70704819D02*
X60011904Y-70704819D01*
X59726190Y-70704819D02*
X59726190Y-69704819D01*
X59726190Y-69704819D02*
X59821428Y-69847676D01*
X59821428Y-69847676D02*
X59916666Y-69942914D01*
X59916666Y-69942914D02*
X60011904Y-69990533D01*
X37785713Y-61454819D02*
X37214285Y-61454819D01*
X37499999Y-62454819D02*
X37499999Y-61454819D01*
X36880951Y-62454819D02*
X36880951Y-61454819D01*
X36880951Y-61931009D02*
X36309523Y-61931009D01*
X36309523Y-62454819D02*
X36309523Y-61454819D01*
X35309523Y-62454819D02*
X35880951Y-62454819D01*
X35595237Y-62454819D02*
X35595237Y-61454819D01*
X35595237Y-61454819D02*
X35690475Y-61597676D01*
X35690475Y-61597676D02*
X35785713Y-61692914D01*
X35785713Y-61692914D02*
X35880951Y-61740533D01*
X58238094Y-57454819D02*
X58238094Y-56454819D01*
X58238094Y-56454819D02*
X57999999Y-56454819D01*
X57999999Y-56454819D02*
X57857142Y-56502438D01*
X57857142Y-56502438D02*
X57761904Y-56597676D01*
X57761904Y-56597676D02*
X57714285Y-56692914D01*
X57714285Y-56692914D02*
X57666666Y-56883390D01*
X57666666Y-56883390D02*
X57666666Y-57026247D01*
X57666666Y-57026247D02*
X57714285Y-57216723D01*
X57714285Y-57216723D02*
X57761904Y-57311961D01*
X57761904Y-57311961D02*
X57857142Y-57407200D01*
X57857142Y-57407200D02*
X57999999Y-57454819D01*
X57999999Y-57454819D02*
X58238094Y-57454819D01*
X56809523Y-56454819D02*
X56999999Y-56454819D01*
X56999999Y-56454819D02*
X57095237Y-56502438D01*
X57095237Y-56502438D02*
X57142856Y-56550057D01*
X57142856Y-56550057D02*
X57238094Y-56692914D01*
X57238094Y-56692914D02*
X57285713Y-56883390D01*
X57285713Y-56883390D02*
X57285713Y-57264342D01*
X57285713Y-57264342D02*
X57238094Y-57359580D01*
X57238094Y-57359580D02*
X57190475Y-57407200D01*
X57190475Y-57407200D02*
X57095237Y-57454819D01*
X57095237Y-57454819D02*
X56904761Y-57454819D01*
X56904761Y-57454819D02*
X56809523Y-57407200D01*
X56809523Y-57407200D02*
X56761904Y-57359580D01*
X56761904Y-57359580D02*
X56714285Y-57264342D01*
X56714285Y-57264342D02*
X56714285Y-57026247D01*
X56714285Y-57026247D02*
X56761904Y-56931009D01*
X56761904Y-56931009D02*
X56809523Y-56883390D01*
X56809523Y-56883390D02*
X56904761Y-56835771D01*
X56904761Y-56835771D02*
X57095237Y-56835771D01*
X57095237Y-56835771D02*
X57190475Y-56883390D01*
X57190475Y-56883390D02*
X57238094Y-56931009D01*
X57238094Y-56931009D02*
X57285713Y-57026247D01*
X60988094Y-63454819D02*
X60988094Y-62454819D01*
X60988094Y-62454819D02*
X60749999Y-62454819D01*
X60749999Y-62454819D02*
X60607142Y-62502438D01*
X60607142Y-62502438D02*
X60511904Y-62597676D01*
X60511904Y-62597676D02*
X60464285Y-62692914D01*
X60464285Y-62692914D02*
X60416666Y-62883390D01*
X60416666Y-62883390D02*
X60416666Y-63026247D01*
X60416666Y-63026247D02*
X60464285Y-63216723D01*
X60464285Y-63216723D02*
X60511904Y-63311961D01*
X60511904Y-63311961D02*
X60607142Y-63407200D01*
X60607142Y-63407200D02*
X60749999Y-63454819D01*
X60749999Y-63454819D02*
X60988094Y-63454819D01*
X59511904Y-62454819D02*
X59988094Y-62454819D01*
X59988094Y-62454819D02*
X60035713Y-62931009D01*
X60035713Y-62931009D02*
X59988094Y-62883390D01*
X59988094Y-62883390D02*
X59892856Y-62835771D01*
X59892856Y-62835771D02*
X59654761Y-62835771D01*
X59654761Y-62835771D02*
X59559523Y-62883390D01*
X59559523Y-62883390D02*
X59511904Y-62931009D01*
X59511904Y-62931009D02*
X59464285Y-63026247D01*
X59464285Y-63026247D02*
X59464285Y-63264342D01*
X59464285Y-63264342D02*
X59511904Y-63359580D01*
X59511904Y-63359580D02*
X59559523Y-63407200D01*
X59559523Y-63407200D02*
X59654761Y-63454819D01*
X59654761Y-63454819D02*
X59892856Y-63454819D01*
X59892856Y-63454819D02*
X59988094Y-63407200D01*
X59988094Y-63407200D02*
X60035713Y-63359580D01*
X50988094Y-62892319D02*
X50988094Y-61892319D01*
X50988094Y-61892319D02*
X50749999Y-61892319D01*
X50749999Y-61892319D02*
X50607142Y-61939938D01*
X50607142Y-61939938D02*
X50511904Y-62035176D01*
X50511904Y-62035176D02*
X50464285Y-62130414D01*
X50464285Y-62130414D02*
X50416666Y-62320890D01*
X50416666Y-62320890D02*
X50416666Y-62463747D01*
X50416666Y-62463747D02*
X50464285Y-62654223D01*
X50464285Y-62654223D02*
X50511904Y-62749461D01*
X50511904Y-62749461D02*
X50607142Y-62844700D01*
X50607142Y-62844700D02*
X50749999Y-62892319D01*
X50749999Y-62892319D02*
X50988094Y-62892319D01*
X50083332Y-61892319D02*
X49416666Y-61892319D01*
X49416666Y-61892319D02*
X49845237Y-62892319D01*
X16687002Y-44109580D02*
X16734621Y-44157200D01*
X16734621Y-44157200D02*
X16877478Y-44204819D01*
X16877478Y-44204819D02*
X16972716Y-44204819D01*
X16972716Y-44204819D02*
X17115573Y-44157200D01*
X17115573Y-44157200D02*
X17210811Y-44061961D01*
X17210811Y-44061961D02*
X17258430Y-43966723D01*
X17258430Y-43966723D02*
X17306049Y-43776247D01*
X17306049Y-43776247D02*
X17306049Y-43633390D01*
X17306049Y-43633390D02*
X17258430Y-43442914D01*
X17258430Y-43442914D02*
X17210811Y-43347676D01*
X17210811Y-43347676D02*
X17115573Y-43252438D01*
X17115573Y-43252438D02*
X16972716Y-43204819D01*
X16972716Y-43204819D02*
X16877478Y-43204819D01*
X16877478Y-43204819D02*
X16734621Y-43252438D01*
X16734621Y-43252438D02*
X16687002Y-43300057D01*
X16353668Y-43204819D02*
X15687002Y-43204819D01*
X15687002Y-43204819D02*
X16115573Y-44204819D01*
D11*
%TO.C,C11*%
X46240000Y-68353733D02*
X46240000Y-68646267D01*
X47260000Y-68353733D02*
X47260000Y-68646267D01*
%TO.C,C2*%
X22857836Y-34390000D02*
X22642164Y-34390000D01*
X22857836Y-35110000D02*
X22642164Y-35110000D01*
%TO.C,Q1*%
X50730000Y-65020000D02*
X50730000Y-65290000D01*
X50730000Y-71920000D02*
X50730000Y-71650000D01*
X57150000Y-65020000D02*
X50730000Y-65020000D01*
X57150000Y-71920000D02*
X50730000Y-71920000D01*
X49340000Y-72080000D02*
X48660000Y-72080000D01*
X49000000Y-71610000D01*
X49340000Y-72080000D01*
G36*
X49340000Y-72080000D02*
G01*
X48660000Y-72080000D01*
X49000000Y-71610000D01*
X49340000Y-72080000D01*
G37*
%TO.C,TH1*%
X34390000Y-63340000D02*
X36610000Y-63340000D01*
X34390000Y-67750000D02*
X34390000Y-63340000D01*
X36610000Y-63340000D02*
X36610000Y-67750000D01*
%TO.C,D6*%
X58850000Y-60760000D02*
X58850000Y-55250000D01*
X62150000Y-60760000D02*
X58850000Y-60760000D01*
X62150000Y-60760000D02*
X62150000Y-55250000D01*
%TO.C,D5*%
X55190000Y-62500000D02*
X55190000Y-61850000D01*
X55190000Y-62500000D02*
X55190000Y-63150000D01*
X58310000Y-62500000D02*
X58310000Y-61850000D01*
X58310000Y-62500000D02*
X58310000Y-63150000D01*
X58590000Y-63902500D02*
X58260000Y-63662500D01*
X58590000Y-63422500D01*
X58590000Y-63902500D01*
G36*
X58590000Y-63902500D02*
G01*
X58260000Y-63662500D01*
X58590000Y-63422500D01*
X58590000Y-63902500D01*
G37*
%TO.C,D7*%
X51640000Y-62437500D02*
X51640000Y-61787500D01*
X51640000Y-62437500D02*
X51640000Y-63087500D01*
X54760000Y-62437500D02*
X54760000Y-61787500D01*
X54760000Y-62437500D02*
X54760000Y-63087500D01*
X55040000Y-63840000D02*
X54710000Y-63600000D01*
X55040000Y-63360000D01*
X55040000Y-63840000D01*
G36*
X55040000Y-63840000D02*
G01*
X54710000Y-63600000D01*
X55040000Y-63360000D01*
X55040000Y-63840000D01*
G37*
%TO.C,C7*%
X16304664Y-44910000D02*
X16520336Y-44910000D01*
X16304664Y-45630000D02*
X16520336Y-45630000D01*
%TD*%
M02*
