<?xml version="1.0" standalone="no"?>
 <!DOCTYPE svg PUBLIC "-//W3C//DTD SVG 1.1//EN" 
 "http://www.w3.org/Graphics/SVG/1.1/DTD/svg11.dtd"> 
<svg
  xmlns:svg="http://www.w3.org/2000/svg"
  xmlns="http://www.w3.org/2000/svg"
  xmlns:xlink="http://www.w3.org/1999/xlink"
  version="1.1"
  width="5.755cm" height="5.155cm" viewBox="11.475 21.975 57.55 51.55">
<title>SVG Image created as ECAD_main-B_Cu.svg date 2025/10/27 20:20:28 </title>
  <desc>Image generated by PCBNEW </desc>
<g style="fill:#000000; fill-opacity:1.000000;stroke:#000000; stroke-opacity:1.000000;
stroke-linecap:round; stroke-linejoin:round;"
 transform="translate(0 0) scale(1 1)">
</g>
<g style="fill:#000000; fill-opacity:1.000000; stroke:none;">
<circle cx="14.162500" cy="45.250000" r="1.000000" /> 
</g>
<g style="fill:#000000; fill-opacity:1.000000; stroke:none;">
<circle cx="14.162500" cy="38.750000" r="1.000000" /> 
</g>
<g style="fill:#000000; fill-opacity:1.000000; stroke:none;">
<circle cx="18.662500" cy="45.250000" r="1.000000" /> 
</g>
<g style="fill:#000000; fill-opacity:1.000000; stroke:none;">
<circle cx="18.662500" cy="38.750000" r="1.000000" /> 
<path style="fill:#000000; fill-opacity:1.000000; stroke:none;fill-rule:evenodd;"
d="M 62.700000,59.800000
62.604329,59.780970
62.523223,59.726777
62.469030,59.645671
62.450000,59.550000
62.450000,58.450000
62.469030,58.354329
62.523223,58.273223
62.604329,58.219030
62.700000,58.200000
63.800000,58.200000
63.895671,58.219030
63.976777,58.273223
64.030970,58.354329
64.050000,58.450000
64.050000,59.550000
64.030970,59.645671
63.976777,59.726777
63.895671,59.780970
63.800000,59.800000
Z" /> 
</g>
<g style="fill:#000000; fill-opacity:1.000000; stroke:none;">
<circle cx="63.250000" cy="55.500000" r="0.800000" /> 
</g>
<g style="fill:#000000; fill-opacity:1.000000; stroke:none;">
<circle cx="38.700000" cy="66.500000" r="1.500000" /> 
</g>
<g style="fill:#000000; fill-opacity:1.000000; stroke:none;">
<circle cx="61.300000" cy="66.500000" r="1.500000" /> 
</g>
<g style="fill:#000000; fill-opacity:1.000000; stroke:none;">
<circle cx="51.000000" cy="31.000000" r="1.500000" /> 
<path style="fill:#000000; fill-opacity:1.000000; stroke:none;fill-rule:evenodd;"
d="M 30.850000,64.855000
30.850000,62.055000
33.650000,62.055000
33.650000,64.855000
Z" /> 
</g>
<g style="fill:#000000; fill-opacity:1.000000; stroke:none;">
<circle cx="32.250000" cy="68.535000" r="1.400000" /> 
<path style="fill:#000000; fill-opacity:1.000000; stroke:none;fill-rule:evenodd;"
d="M 24.940000,66.510000
24.940000,60.490000
27.960000,60.490000
27.960000,66.510000
Z" /> 
</g>
<g style="fill:none; 
stroke:#000000; stroke-width:3.020000; stroke-opacity:1; 
stroke-linecap:round; stroke-linejoin:round;">
<path d="M20.250000 62.000000
L20.250000 65.000000
" />
<path style="fill:#000000; fill-opacity:1.000000; stroke:none;fill-rule:evenodd;"
d="M 38.547500,25.237500
40.247500,25.237500
40.247500,26.937500
38.547500,26.937500
Z" /> 
</g>
<g style="fill:#000000; fill-opacity:1.000000; stroke:none;">
<circle cx="36.857500" cy="26.087500" r="0.850000" /> 
</g>
<g style="fill:#000000; fill-opacity:1.000000; stroke:none;">
<circle cx="34.317500" cy="26.087500" r="0.850000" /> 
</g>
<g style="fill:#000000; fill-opacity:1.000000; stroke:none;">
<circle cx="31.777500" cy="26.087500" r="0.850000" /> 
<path style="fill:#000000; fill-opacity:1.000000; stroke:none;fill-rule:evenodd;"
d="M 46.987500,67.100000
47.078387,67.118079
47.155438,67.169562
47.206921,67.246613
47.225000,67.337500
47.225000,67.937500
47.206921,68.028387
47.155438,68.105438
47.078387,68.156921
46.987500,68.175000
46.512500,68.175000
46.421613,68.156921
46.344562,68.105438
46.293079,68.028387
46.275000,67.937500
46.275000,67.337500
46.293079,67.246613
46.344562,67.169562
46.421613,67.118079
46.512500,67.100000
Z" /> 
<path style="fill:#000000; fill-opacity:1.000000; stroke:none;fill-rule:evenodd;"
d="M 46.987500,68.825000
47.078387,68.843079
47.155438,68.894562
47.206921,68.971613
47.225000,69.062500
47.225000,69.662500
47.206921,69.753387
47.155438,69.830438
47.078387,69.881921
46.987500,69.900000
46.512500,69.900000
46.421613,69.881921
46.344562,69.830438
46.293079,69.753387
46.275000,69.662500
46.275000,69.062500
46.293079,68.971613
46.344562,68.894562
46.421613,68.843079
46.512500,68.825000
Z" /> 
<path style="fill:#000000; fill-opacity:1.000000; stroke:none;fill-rule:evenodd;"
d="M 23.510000,34.920000
23.499343,34.973576
23.468995,35.018995
23.423576,35.049343
23.370000,35.060000
23.090000,35.060000
23.036424,35.049343
22.991005,35.018995
22.960657,34.973576
22.950000,34.920000
22.950000,34.580000
22.960657,34.526424
22.991005,34.481005
23.036424,34.450657
23.090000,34.440000
23.370000,34.440000
23.423576,34.450657
23.468995,34.481005
23.499343,34.526424
23.510000,34.580000
Z" /> 
<path style="fill:#000000; fill-opacity:1.000000; stroke:none;fill-rule:evenodd;"
d="M 22.550000,34.920000
22.539343,34.973576
22.508995,35.018995
22.463576,35.049343
22.410000,35.060000
22.130000,35.060000
22.076424,35.049343
22.031005,35.018995
22.000657,34.973576
21.990000,34.920000
21.990000,34.580000
22.000657,34.526424
22.031005,34.481005
22.076424,34.450657
22.130000,34.440000
22.410000,34.440000
22.463576,34.450657
22.508995,34.481005
22.539343,34.526424
22.550000,34.580000
Z" /> 
<path style="fill:#000000; fill-opacity:1.000000; stroke:none;fill-rule:evenodd;"
d="M 47.900000,70.400000
47.919030,70.304329
47.973223,70.223223
48.054329,70.169030
48.150000,70.150000
49.850000,70.150000
49.945671,70.169030
50.026777,70.223223
50.080970,70.304329
50.100000,70.400000
50.100000,71.100000
50.080970,71.195671
50.026777,71.276777
49.945671,71.330970
49.850000,71.350000
48.150000,71.350000
48.054329,71.330970
47.973223,71.276777
47.919030,71.195671
47.900000,71.100000
Z" /> 
<path style="fill:#000000; fill-opacity:1.000000; stroke:none;fill-rule:evenodd;"
d="M 52.100000,65.819997
52.119030,65.724327
52.173222,65.643222
52.254327,65.589030
52.349998,65.570001
58.250003,65.570000
58.345673,65.589030
58.426778,65.643222
58.480970,65.724327
58.499999,65.819998
58.500000,71.120003
58.480970,71.215673
58.426778,71.296778
58.345673,71.350970
58.250002,71.369999
52.349997,71.370000
52.254327,71.350970
52.173222,71.296778
52.119030,71.215673
52.100001,71.120002
Z" /> 
<path style="fill:#000000; fill-opacity:1.000000; stroke:none;fill-rule:evenodd;"
d="M 47.900000,65.840000
47.919030,65.744329
47.973223,65.663223
48.054329,65.609030
48.150000,65.590000
49.850000,65.590000
49.945671,65.609030
50.026777,65.663223
50.080970,65.744329
50.100000,65.840000
50.100000,66.540000
50.080970,66.635671
50.026777,66.716777
49.945671,66.770970
49.850000,66.790000
48.150000,66.790000
48.054329,66.770970
47.973223,66.716777
47.919030,66.635671
47.900000,66.540000
Z" /> 
<path style="fill:#000000; fill-opacity:1.000000; stroke:none;fill-rule:evenodd;"
d="M 36.100000,63.600000
36.195671,63.619030
36.276777,63.673223
36.330970,63.754329
36.350000,63.850000
36.350000,64.650000
36.330970,64.745671
36.276777,64.826777
36.195671,64.880970
36.100000,64.900000
34.900000,64.900000
34.804329,64.880970
34.723223,64.826777
34.669030,64.745671
34.650000,64.650000
34.650000,63.850000
34.669030,63.754329
34.723223,63.673223
34.804329,63.619030
34.900000,63.600000
Z" /> 
<path style="fill:#000000; fill-opacity:1.000000; stroke:none;fill-rule:evenodd;"
d="M 36.100000,67.100000
36.195671,67.119030
36.276777,67.173223
36.330970,67.254329
36.350000,67.350000
36.350000,68.150000
36.330970,68.245671
36.276777,68.326777
36.195671,68.380970
36.100000,68.400000
34.900000,68.400000
34.804329,68.380970
34.723223,68.326777
34.669030,68.245671
34.650000,68.150000
34.650000,67.350000
34.669030,67.254329
34.723223,67.173223
34.804329,67.119030
34.900000,67.100000
Z" /> 
<path style="fill:#000000; fill-opacity:1.000000; stroke:none;fill-rule:evenodd;"
d="M 59.850000,60.500000
59.754329,60.480970
59.673223,60.426777
59.619030,60.345671
59.600000,60.250000
59.600000,58.250000
59.619030,58.154329
59.673223,58.073223
59.754329,58.019030
59.850000,58.000000
61.150000,58.000000
61.245671,58.019030
61.326777,58.073223
61.380970,58.154329
61.400000,58.250000
61.400000,60.250000
61.380970,60.345671
61.326777,60.426777
61.245671,60.480970
61.150000,60.500000
Z" /> 
<path style="fill:#000000; fill-opacity:1.000000; stroke:none;fill-rule:evenodd;"
d="M 59.850000,56.500000
59.754329,56.480970
59.673223,56.426777
59.619030,56.345671
59.600000,56.250000
59.600000,54.250000
59.619030,54.154329
59.673223,54.073223
59.754329,54.019030
59.850000,54.000000
61.150000,54.000000
61.245671,54.019030
61.326777,54.073223
61.380970,54.154329
61.400000,54.250000
61.400000,56.250000
61.380970,56.345671
61.326777,56.426777
61.245671,56.480970
61.150000,56.500000
Z" /> 
<path style="fill:#000000; fill-opacity:1.000000; stroke:none;fill-rule:evenodd;"
d="M 57.550000,64.175000
57.492597,64.163582
57.443934,64.131066
57.411418,64.082403
57.400000,64.025000
57.400000,62.850000
57.411418,62.792597
57.443934,62.743934
57.492597,62.711418
57.550000,62.700000
57.850000,62.700000
57.907403,62.711418
57.956066,62.743934
57.988582,62.792597
58.000000,62.850000
58.000000,64.025000
57.988582,64.082403
57.956066,64.131066
57.907403,64.163582
57.850000,64.175000
Z" /> 
<path style="fill:#000000; fill-opacity:1.000000; stroke:none;fill-rule:evenodd;"
d="M 55.650000,64.175000
55.592597,64.163582
55.543934,64.131066
55.511418,64.082403
55.500000,64.025000
55.500000,62.850000
55.511418,62.792597
55.543934,62.743934
55.592597,62.711418
55.650000,62.700000
55.950000,62.700000
56.007403,62.711418
56.056066,62.743934
56.088582,62.792597
56.100000,62.850000
56.100000,64.025000
56.088582,64.082403
56.056066,64.131066
56.007403,64.163582
55.950000,64.175000
Z" /> 
<path style="fill:#000000; fill-opacity:1.000000; stroke:none;fill-rule:evenodd;"
d="M 56.600000,62.300000
56.542597,62.288582
56.493934,62.256066
56.461418,62.207403
56.450000,62.150000
56.450000,60.975000
56.461418,60.917597
56.493934,60.868934
56.542597,60.836418
56.600000,60.825000
56.900000,60.825000
56.957403,60.836418
57.006066,60.868934
57.038582,60.917597
57.050000,60.975000
57.050000,62.150000
57.038582,62.207403
57.006066,62.256066
56.957403,62.288582
56.900000,62.300000
Z" /> 
<path style="fill:#000000; fill-opacity:1.000000; stroke:none;fill-rule:evenodd;"
d="M 54.000000,64.112500
53.942597,64.101082
53.893934,64.068566
53.861418,64.019903
53.850000,63.962500
53.850000,62.787500
53.861418,62.730097
53.893934,62.681434
53.942597,62.648918
54.000000,62.637500
54.300000,62.637500
54.357403,62.648918
54.406066,62.681434
54.438582,62.730097
54.450000,62.787500
54.450000,63.962500
54.438582,64.019903
54.406066,64.068566
54.357403,64.101082
54.300000,64.112500
Z" /> 
<path style="fill:#000000; fill-opacity:1.000000; stroke:none;fill-rule:evenodd;"
d="M 52.100000,64.112500
52.042597,64.101082
51.993934,64.068566
51.961418,64.019903
51.950000,63.962500
51.950000,62.787500
51.961418,62.730097
51.993934,62.681434
52.042597,62.648918
52.100000,62.637500
52.400000,62.637500
52.457403,62.648918
52.506066,62.681434
52.538582,62.730097
52.550000,62.787500
52.550000,63.962500
52.538582,64.019903
52.506066,64.068566
52.457403,64.101082
52.400000,64.112500
Z" /> 
<path style="fill:#000000; fill-opacity:1.000000; stroke:none;fill-rule:evenodd;"
d="M 53.050000,62.237500
52.992597,62.226082
52.943934,62.193566
52.911418,62.144903
52.900000,62.087500
52.900000,60.912500
52.911418,60.855097
52.943934,60.806434
52.992597,60.773918
53.050000,60.762500
53.350000,60.762500
53.407403,60.773918
53.456066,60.806434
53.488582,60.855097
53.500000,60.912500
53.500000,62.087500
53.488582,62.144903
53.456066,62.193566
53.407403,62.226082
53.350000,62.237500
Z" /> 
<path style="fill:#000000; fill-opacity:1.000000; stroke:none;fill-rule:evenodd;"
d="M 15.652500,45.100000
15.663157,45.046424
15.693505,45.001005
15.738924,44.970657
15.792500,44.960000
16.072500,44.960000
16.126076,44.970657
16.171495,45.001005
16.201843,45.046424
16.212500,45.100000
16.212500,45.440000
16.201843,45.493576
16.171495,45.538995
16.126076,45.569343
16.072500,45.580000
15.792500,45.580000
15.738924,45.569343
15.693505,45.538995
15.663157,45.493576
15.652500,45.440000
Z" /> 
<path style="fill:#000000; fill-opacity:1.000000; stroke:none;fill-rule:evenodd;"
d="M 16.612500,45.100000
16.623157,45.046424
16.653505,45.001005
16.698924,44.970657
16.752500,44.960000
17.032500,44.960000
17.086076,44.970657
17.131495,45.001005
17.161843,45.046424
17.172500,45.100000
17.172500,45.440000
17.161843,45.493576
17.131495,45.538995
17.086076,45.569343
17.032500,45.580000
16.752500,45.580000
16.698924,45.569343
16.653505,45.538995
16.623157,45.493576
16.612500,45.440000
Z" /> 
</g>
<g style="fill:#000000; fill-opacity:1.000000; stroke:none;">
<circle cx="26.250000" cy="24.750000" r="0.400000" /> 
</g>
<g style="fill:#000000; fill-opacity:1.000000; stroke:none;">
<circle cx="26.750000" cy="52.000000" r="0.400000" /> 
</g>
<g style="fill:#000000; fill-opacity:1.000000; stroke:none;">
<circle cx="26.250000" cy="26.250000" r="0.400000" /> 
</g>
<g style="fill:#000000; fill-opacity:1.000000; stroke:none;">
<circle cx="27.500000" cy="41.750000" r="0.400000" /> 
</g>
<g style="fill:#000000; fill-opacity:1.000000; stroke:none;">
<circle cx="29.250000" cy="39.750000" r="0.400000" /> 
</g>
<g style="fill:#000000; fill-opacity:1.000000; stroke:none;">
<circle cx="37.500000" cy="31.750000" r="0.400000" /> 
</g>
<g style="fill:#000000; fill-opacity:1.000000; stroke:none;">
<circle cx="22.500000" cy="51.750000" r="0.400000" /> 
</g>
<g style="fill:#000000; fill-opacity:1.000000; stroke:none;">
<circle cx="24.750000" cy="53.500000" r="0.400000" /> 
</g>
<g style="fill:#000000; fill-opacity:1.000000; stroke:none;">
<circle cx="29.250000" cy="25.250000" r="0.400000" /> 
</g>
<g style="fill:#000000; fill-opacity:1.000000; stroke:none;">
<circle cx="21.750000" cy="28.500000" r="0.400000" /> 
</g>
<g style="fill:#000000; fill-opacity:1.000000; stroke:none;">
<circle cx="33.000000" cy="45.000000" r="0.400000" /> 
</g>
<g style="fill:#000000; fill-opacity:1.000000; stroke:none;">
<circle cx="27.750000" cy="23.750000" r="0.400000" /> 
</g>
<g style="fill:#000000; fill-opacity:1.000000; stroke:none;">
<circle cx="23.500000" cy="29.750000" r="0.400000" /> 
</g>
<g style="fill:#000000; fill-opacity:1.000000; stroke:none;">
<circle cx="16.750000" cy="30.500000" r="0.400000" /> 
</g>
<g style="fill:#000000; fill-opacity:1.000000; stroke:none;">
<circle cx="17.750000" cy="28.500000" r="0.400000" /> 
</g>
<g style="fill:#000000; fill-opacity:1.000000; stroke:none;">
<circle cx="16.750000" cy="36.250000" r="0.400000" /> 
</g>
<g style="fill:#000000; fill-opacity:1.000000; stroke:none;">
<circle cx="33.250000" cy="43.250000" r="0.300000" /> 
</g>
<g style="fill:#000000; fill-opacity:1.000000; stroke:none;">
<circle cx="36.500000" cy="30.750000" r="0.300000" /> 
</g>
<g style="fill:#000000; fill-opacity:1.000000; stroke:none;">
<circle cx="22.250000" cy="31.750000" r="0.400000" /> 
</g>
<g style="fill:#000000; fill-opacity:1.000000; stroke:none;">
<circle cx="24.000000" cy="28.000000" r="0.400000" /> 
</g>
<g style="fill:#000000; fill-opacity:1.000000; stroke:none;">
<circle cx="32.750000" cy="39.750000" r="0.400000" /> 
</g>
<g style="fill:#000000; fill-opacity:1.000000; stroke:none;">
<circle cx="35.250000" cy="30.750000" r="0.400000" /> 
</g>
<g style="fill:#000000; fill-opacity:1.000000; stroke:none;">
<circle cx="22.049265" cy="35.799265" r="0.400000" /> 
</g>
<g style="fill:none; 
stroke:#000000; stroke-width:0.200000; stroke-opacity:1; 
stroke-linecap:round; stroke-linejoin:round;">
<path d="M17.825000 45.020000
L17.575000 45.270000
" />
<path d="M18.432500 45.020000
L17.825000 45.020000
" />
<path d="M17.575000 45.270000
L16.892500 45.270000
" />
<path d="M18.662500 45.250000
L18.432500 45.020000
" />
</g>
<g style="fill:none; 
stroke:#000000; stroke-width:0.300000; stroke-opacity:1; 
stroke-linecap:round; stroke-linejoin:round;">
<path d="M61.300000 66.500000
L58.237500 63.437500
" />
<path d="M59.330000 68.470000
L61.300000 66.500000
" />
<path d="M55.300000 68.470000
L59.330000 68.470000
" />
<path d="M58.237500 63.437500
L57.700000 63.437500
" />
<path d="M63.250000 59.000000
L60.750000 59.000000
" />
<path d="M60.500000 59.250000
L60.500000 65.700000
" />
<path d="M60.500000 65.700000
L61.300000 66.500000
" />
<path d="M60.750000 59.000000
L60.500000 59.250000
" />
</g>
<g style="fill:none; 
stroke:#000000; stroke-width:0.200000; stroke-opacity:1; 
stroke-linecap:round; stroke-linejoin:round;">
<path d="M54.150000 64.600000
L53.750000 65.000000
" />
<path d="M46.750000 67.637500
L46.750000 66.500000
" />
<path d="M51.750000 65.000000
L50.560000 66.190000
" />
<path d="M46.750000 66.500000
L47.060000 66.190000
" />
<path d="M54.150000 63.375000
L54.150000 64.600000
" />
<path d="M47.060000 66.190000
L49.000000 66.190000
" />
<path d="M50.560000 66.190000
L49.000000 66.190000
" />
<path d="M53.750000 65.000000
L51.750000 65.000000
" />
</g>
<g style="fill:none; 
stroke:#000000; stroke-width:0.300000; stroke-opacity:1; 
stroke-linecap:round; stroke-linejoin:round;">
<path d="M56.750000 61.562500
L53.262500 61.562500
" />
<path d="M53.262500 61.562500
L53.200000 61.500000
" />
<path d="M37.150000 67.750000
L38.400000 66.500000
" />
<path d="M33.465000 68.535000
L34.250000 67.750000
" />
<path d="M32.200000 68.535000
L33.465000 68.535000
" />
<path d="M35.200000 67.750000
L37.150000 67.750000
" />
<path d="M34.250000 67.750000
L35.200000 67.750000
" />
<path d="M35.200000 64.250000
L32.995000 64.250000
" />
<path d="M32.995000 64.250000
L32.200000 63.455000
" />
<path d="M36.500000 41.000000
L36.500000 30.750000
" />
<path d="M34.250000 43.250000
L36.500000 41.000000
" />
<path d="M33.250000 43.250000
L34.250000 43.250000
" />
</g>
<g style="fill:none; 
stroke:#000000; stroke-width:0.200000; stroke-opacity:1; 
stroke-linecap:round; stroke-linejoin:round;">
<path d="M32.750000 39.750000
L35.250000 37.250000
" />
<path d="M35.250000 37.250000
L35.250000 30.750000
" />
<path d="M22.250000 29.750000
L22.250000 30.500000
" />
<path d="M35.250000 30.750000
L22.500000 30.750000
" />
<path d="M24.000000 28.000000
L22.250000 29.750000
" />
<path d="M22.250000 31.000000
L22.250000 31.750000
" />
<path d="M22.500000 30.750000
L22.250000 31.000000
" />
<path d="M22.049265 35.200735
L22.250000 35.000000
" />
<path d="M22.250000 30.500000
L22.250000 31.000000
" />
<path d="M22.049265 35.799265
L22.049265 35.200735
" />
<path d="M22.250000 35.000000
L22.250000 31.750000
" />
<path style="fill:#000000; fill-opacity:1.000000; stroke:none;fill-rule:evenodd;"
d="M 67.831487,23.168513
67.849500,23.212000
67.849500,50.433000
67.831487,50.476487
67.788000,50.494500
47.811500,50.494500
47.684890,50.506565
47.621582,50.512598
47.426711,50.571039
47.383222,50.589053
47.225380,50.671502
47.225374,50.671506
47.066088,50.798060
47.066075,50.798073
46.935528,50.954097
46.935526,50.954100
46.839059,51.133211
46.839044,51.133242
46.821049,51.176684
46.821039,51.176713
46.765082,51.359097
46.765081,51.359100
46.744500,51.561492
46.744500,58.183000
46.726487,58.226487
46.683000,58.244500
37.817000,58.244500
37.773513,58.226487
37.755500,58.183000
37.755500,57.061505
37.755500,57.061500
37.737402,56.871585
37.678960,56.676710
37.660947,56.633223
37.578494,56.475375
37.451934,56.316082
37.430402,56.298066
37.295902,56.185528
37.295899,56.185526
37.116788,56.089059
37.116789,56.089059
37.116777,56.089053
37.116767,56.089048
37.116757,56.089044
37.073315,56.071049
37.073295,56.071042
37.073290,56.071040
36.890906,56.015083
36.890904,56.015082
36.890902,56.015082
36.890899,56.015081
36.688507,55.994500
36.688500,55.994500
12.712000,55.994500
12.668513,55.976487
12.650500,55.933000
12.650500,45.838938
12.668513,45.795451
12.712000,45.777438
12.755487,45.795451
12.770490,45.819933
12.772396,45.825801
12.879584,46.036169
13.014229,46.221493
13.695166,45.540555
13.722390,45.587708
13.824792,45.690110
13.871943,45.717332
13.191005,46.398269
13.376330,46.532915
13.586698,46.640103
13.811247,46.713064
13.811245,46.713064
14.044443,46.749999
14.044451,46.750000
14.280549,46.750000
14.280556,46.749999
14.513753,46.713064
14.738301,46.640103
14.948669,46.532915
15.133993,46.398269
14.453056,45.717332
14.500208,45.690110
14.602610,45.587708
14.629832,45.540556
15.310769,46.221493
15.441941,46.040951
15.482075,46.016357
15.523003,46.024165
15.536306,46.032033
15.691587,46.077145
15.727859,46.079999
15.807500,46.079999
15.807500,44.460000
16.057500,44.460000
16.057500,46.079999
16.137128,46.079999
16.173417,46.077144
16.328691,46.032033
16.467877,45.949718
16.467878,45.949718
16.583352,45.834244
16.626839,45.816231
16.636451,45.816987
16.721765,45.830500
17.063234,45.830499
17.154675,45.816017
17.264891,45.759859
17.352359,45.672391
17.361690,45.654079
17.369212,45.647654
17.372999,45.638513
17.386428,45.632950
17.397482,45.623510
17.416486,45.620500
17.423347,45.620500
17.466834,45.638513
17.481835,45.662993
17.484890,45.672392
17.503616,45.730026
17.592977,45.905407
17.708670,46.064644
17.847855,46.203829
18.007092,46.319522
18.007095,46.319524
18.182475,46.408884
18.369671,46.469708
18.369674,46.469709
18.564083,46.500500
18.564087,46.500500
18.760913,46.500500
18.760917,46.500500
18.955326,46.469709
19.142525,46.408884
19.317905,46.319524
19.477146,46.203828
19.616328,46.064646
19.732024,45.905405
19.821384,45.730025
19.882209,45.542826
19.913000,45.348417
19.913000,45.151583
19.882209,44.957174
19.821384,44.769975
19.732024,44.594595
19.669084,44.507966
19.616329,44.435355
19.477144,44.296170
19.317907,44.180477
19.142526,44.091116
18.955327,44.030291
18.955329,44.030291
18.760920,43.999500
18.760917,43.999500
18.564083,43.999500
18.564079,43.999500
18.369671,44.030291
18.182473,44.091116
18.007092,44.180477
17.847855,44.296170
17.847855,44.296171
17.847854,44.296172
17.708672,44.435354
17.708671,44.435355
17.708670,44.435355
17.592977,44.594592
17.503617,44.769971
17.471729,44.868109
17.456751,44.892565
17.455898,44.893418
17.412423,44.911456
17.368925,44.893469
17.357592,44.877880
17.352359,44.867609
17.352357,44.867607
17.352356,44.867605
17.264894,44.780143
17.264891,44.780141
17.154675,44.723983
17.154674,44.723982
17.154673,44.723982
17.079158,44.712022
17.063235,44.709500
17.063234,44.709500
16.721770,44.709500
16.721760,44.709501
16.636459,44.723011
16.590690,44.712022
16.583352,44.705755
16.467878,44.590281
16.328691,44.507966
16.328692,44.507966
16.173412,44.462854
16.137140,44.460000
16.057500,44.460000
15.807500,44.460000
15.727872,44.460000
15.691582,44.462855
15.536300,44.507969
15.533256,44.509286
15.486192,44.510019
15.454042,44.480761
15.445415,44.463830
15.310769,44.278505
14.629832,44.959442
14.602610,44.912292
14.500208,44.809890
14.453055,44.782666
15.133993,44.101729
14.948669,43.967084
14.738301,43.859896
14.513752,43.786935
14.513754,43.786935
14.280556,43.750000
14.044443,43.750000
13.811246,43.786935
13.586698,43.859896
13.376330,43.967084
13.191005,44.101729
13.871943,44.782667
13.824792,44.809890
13.722390,44.912292
13.695167,44.959443
13.014229,44.278505
12.879584,44.463830
12.772396,44.674199
12.772395,44.674202
12.770489,44.680068
12.739918,44.715859
12.692993,44.719550
12.657202,44.688979
12.650500,44.661061
12.650500,39.338938
12.668513,39.295451
12.712000,39.277438
12.755487,39.295451
12.770490,39.319933
12.772396,39.325801
12.879584,39.536169
13.014229,39.721493
13.695166,39.040555
13.722390,39.087708
13.824792,39.190110
13.871943,39.217332
13.191005,39.898269
13.376330,40.032915
13.586698,40.140103
13.811247,40.213064
13.811245,40.213064
14.044443,40.249999
14.044451,40.250000
14.280549,40.250000
14.280556,40.249999
14.513753,40.213064
14.738301,40.140103
14.948669,40.032915
15.133993,39.898269
14.453056,39.217332
14.500208,39.190110
14.602610,39.087708
14.629832,39.040556
15.310769,39.721493
15.445415,39.536169
15.552603,39.325801
15.625564,39.101253
15.662499,38.868056
15.662500,38.868048
15.662500,38.651579
17.412000,38.651579
17.412000,38.848420
17.442791,39.042828
17.503616,39.230026
17.592977,39.405407
17.708670,39.564644
17.847855,39.703829
17.999587,39.814069
18.007095,39.819524
18.182475,39.908884
18.369671,39.969708
18.369674,39.969709
18.564083,40.000500
18.564087,40.000500
18.760913,40.000500
18.760917,40.000500
18.955326,39.969709
19.142525,39.908884
19.317905,39.819524
19.477146,39.703828
19.616328,39.564646
19.732024,39.405405
19.821384,39.230025
19.882209,39.042826
19.913000,38.848417
19.913000,38.651583
19.882209,38.457174
19.821384,38.269975
19.732024,38.094595
19.616328,37.935354
19.477146,37.796172
19.477145,37.796171
19.477144,37.796170
19.317907,37.680477
19.142526,37.591116
18.955327,37.530291
18.955329,37.530291
18.760920,37.499500
18.760917,37.499500
18.564083,37.499500
18.564079,37.499500
18.369671,37.530291
18.182473,37.591116
18.007092,37.680477
17.847855,37.796170
17.847855,37.796171
17.847854,37.796172
17.708672,37.935354
17.708671,37.935355
17.708670,37.935355
17.592977,38.094592
17.503616,38.269973
17.442791,38.457171
17.412000,38.651579
15.662500,38.651579
15.662500,38.631951
15.662499,38.631943
15.625564,38.398746
15.552603,38.174198
15.445415,37.963830
15.310769,37.778505
14.629832,38.459442
14.602610,38.412292
14.500208,38.309890
14.453055,38.282666
15.133993,37.601729
14.948669,37.467084
14.738301,37.359896
14.513752,37.286935
14.513754,37.286935
14.280556,37.250000
14.044443,37.250000
13.811246,37.286935
13.586698,37.359896
13.376330,37.467084
13.191005,37.601729
13.871943,38.282667
13.824792,38.309890
13.722390,38.412292
13.695167,38.459443
13.014229,37.778505
12.879584,37.963830
12.772396,38.174199
12.772395,38.174202
12.770489,38.180068
12.739918,38.215859
12.692993,38.219550
12.657202,38.188979
12.650500,38.161061
12.650500,29.500000
18.000000,29.500000
18.000000,37.000000
21.750000,37.000000
21.750000,36.471442
21.768013,36.427955
21.811500,36.409942
21.835036,36.414624
21.859514,36.424763
21.859521,36.424766
21.985192,36.449764
21.985193,36.449765
21.985196,36.449765
22.113337,36.449765
22.113337,36.449764
22.239009,36.424766
22.239014,36.424763
22.239017,36.424763
22.274797,36.409942
22.357392,36.375730
22.463934,36.304541
22.554541,36.213934
22.625730,36.107392
22.674766,35.989009
22.699764,35.863337
22.699765,35.863337
22.699765,35.735193
22.699764,35.735192
22.674767,35.609526
22.674766,35.609525
22.674766,35.609521
22.640226,35.526136
22.640226,35.479068
22.673509,35.445784
22.720579,35.445783
22.728351,35.449666
22.833808,35.512033
22.989087,35.557145
23.025359,35.559999
23.105000,35.559999
23.355000,35.559999
23.434628,35.559999
23.470917,35.557144
23.626191,35.512033
23.765377,35.429718
23.765378,35.429718
23.879718,35.315378
23.879718,35.315377
23.962033,35.176191
24.007145,35.020912
24.010000,34.984640
24.010000,34.875000
23.355000,34.875000
23.355000,35.559999
23.105000,35.559999
23.105000,34.625000
23.355000,34.625000
24.009999,34.625000
24.009999,34.515372
24.007144,34.479082
23.962033,34.323808
23.879718,34.184622
23.879718,34.184621
23.765378,34.070281
23.626191,33.987966
23.626192,33.987966
23.470912,33.942854
23.434640,33.940000
23.355000,33.940000
23.355000,34.625000
23.105000,34.625000
23.105000,33.940000
23.025372,33.940000
22.989082,33.942855
22.833808,33.987966
22.693306,34.071059
22.646706,34.077691
22.609064,34.049429
22.600500,34.018123
22.600500,32.331024
22.618513,32.287537
22.627827,32.279892
22.664669,32.255276
22.755276,32.164669
22.826465,32.058127
22.875501,31.939744
22.900499,31.814072
22.900500,31.814072
22.900500,31.685928
22.900499,31.685927
22.875502,31.560261
22.875498,31.560247
22.826467,31.441879
22.826465,31.441873
22.755276,31.335331
22.664669,31.244724
22.664666,31.244721
22.628839,31.220782
22.625338,31.215542
22.619517,31.213131
22.612653,31.196556
22.602689,31.181644
22.603918,31.175465
22.601507,31.169643
22.608372,31.153071
22.611872,31.135479
22.619518,31.126162
22.627171,31.118510
22.628791,31.117839
22.670655,31.100500
34.668975,31.100500
34.712462,31.118513
34.720110,31.127833
34.744718,31.164662
34.744723,31.164668
34.744724,31.164669
34.835331,31.255276
34.872167,31.279889
34.898318,31.319025
34.899500,31.331024
34.899500,37.079343
34.881487,37.122830
32.913005,39.091311
32.869518,39.109324
32.857520,39.108142
32.814072,39.099500
32.814069,39.099500
32.685931,39.099500
32.685928,39.099500
32.560261,39.124497
32.560247,39.124501
32.441879,39.173532
32.441871,39.173536
32.335331,39.244723
32.244723,39.335331
32.173536,39.441871
32.173532,39.441879
32.124501,39.560247
32.124497,39.560261
32.099500,39.685927
32.099500,39.814072
32.124497,39.939738
32.124501,39.939752
32.173532,40.058120
32.173535,40.058127
32.173536,40.058128
32.244723,40.164668
32.335331,40.255276
32.335330,40.255276
32.388781,40.290990
32.441873,40.326465
32.489226,40.346079
32.560247,40.375498
32.560252,40.375499
32.560256,40.375501
32.685927,40.400499
32.685928,40.400500
32.685931,40.400500
32.814072,40.400500
32.814072,40.400499
32.939744,40.375501
32.939749,40.375498
32.939752,40.375498
32.970359,40.362819
33.058127,40.326465
33.164669,40.255276
33.255276,40.164669
33.326465,40.058127
33.375501,39.939744
33.400499,39.814072
33.400500,39.814072
33.400500,39.685930
33.398454,39.675650
33.391856,39.642478
33.401038,39.596314
33.408682,39.586998
35.530470,37.465212
35.576614,37.385288
35.585882,37.350698
35.600500,37.296146
35.600500,31.331024
35.618513,31.287537
35.627827,31.279892
35.664669,31.255276
35.755276,31.164669
35.826465,31.058127
35.870182,30.952584
35.903465,30.919302
35.950535,30.919302
35.983819,30.952586
35.986403,30.960200
35.987013,30.962477
35.987015,30.962482
35.987016,30.962485
36.059491,31.088015
36.059494,31.088018
36.081487,31.110011
36.099500,31.153498
36.099500,40.808633
36.081487,40.852120
34.102120,42.831487
34.058633,42.849500
33.653498,42.849500
33.610011,42.831487
33.588018,42.809494
33.588015,42.809491
33.462485,42.737016
33.462482,42.737015
33.462480,42.737014
33.322477,42.699500
33.322475,42.699500
33.177525,42.699500
33.177523,42.699500
33.037519,42.737014
33.037515,42.737016
32.911986,42.809490
32.911981,42.809494
32.809494,42.911981
32.809490,42.911986
32.737016,43.037515
32.737014,43.037519
32.699500,43.177522
32.699500,43.322477
32.737014,43.462480
32.737015,43.462482
32.737016,43.462485
32.809491,43.588015
32.911985,43.690509
33.037515,43.762984
33.037519,43.762985
33.177523,43.800500
33.177525,43.800500
33.322476,43.800500
33.384206,43.783958
33.462485,43.762984
33.588015,43.690509
33.610011,43.668513
33.653498,43.650500
34.302729,43.650500
34.302731,43.650499
34.404581,43.623209
34.404581,43.623208
34.404588,43.623207
34.495913,43.570480
36.740849,41.325541
36.740854,41.325538
36.745911,41.320480
36.745913,41.320480
36.820480,41.245913
36.873207,41.154587
36.883797,41.115062
36.900501,41.052728
36.900501,40.943511
36.900500,40.943493
36.900500,31.153498
36.918513,31.110011
36.928024,31.100500
36.940509,31.088015
37.012984,30.962485
37.024848,30.918207
37.038058,30.868909
49.000000,30.868909
49.000000,31.131090
49.034222,31.391028
49.102073,31.644249
49.102076,31.644258
49.202405,31.886472
49.333492,32.113523
49.493092,32.321519
49.497398,32.325825
50.352425,31.470797
50.378599,31.509970
50.490030,31.621401
50.529201,31.647574
49.674174,32.502601
49.678480,32.506907
49.886476,32.666507
50.113527,32.797594
50.355741,32.897923
50.355750,32.897926
50.608973,32.965777
50.608969,32.965777
50.868909,32.999999
50.868916,33.000000
51.131084,33.000000
51.131090,32.999999
51.391028,32.965777
51.644249,32.897926
51.644258,32.897923
51.886472,32.797594
52.113523,32.666507
52.321514,32.506911
52.325824,32.502599
51.470798,31.647574
51.509970,31.621401
51.621401,31.509970
51.647574,31.470798
52.502599,32.325824
52.506911,32.321514
52.666507,32.113523
52.797594,31.886472
52.897923,31.644258
52.897926,31.644249
52.965777,31.391028
52.999999,31.131090
53.000000,31.131084
53.000000,30.868915
52.999999,30.868909
52.965777,30.608971
52.897926,30.355750
52.897923,30.355741
52.797594,30.113527
52.666507,29.886476
52.506907,29.678480
52.502601,29.674174
51.647574,30.529200
51.621401,30.490030
51.509970,30.378599
51.470797,30.352424
52.325825,29.497398
52.321519,29.493092
52.113523,29.333492
51.886472,29.202405
51.644258,29.102076
51.644249,29.102073
51.391026,29.034222
51.391030,29.034222
51.131090,29.000000
50.868909,29.000000
50.608971,29.034222
50.355750,29.102073
50.355741,29.102076
50.113527,29.202405
49.886476,29.333492
49.678485,29.493088
49.678483,29.493090
49.674174,29.497398
50.529201,30.352425
50.490030,30.378599
50.378599,30.490030
50.352425,30.529201
49.497398,29.674174
49.493090,29.678483
49.493088,29.678485
49.333492,29.886476
49.202405,30.113527
49.102076,30.355741
49.102073,30.355750
49.034222,30.608971
49.000000,30.868909
37.038058,30.868909
37.042862,30.850982
37.050500,30.822477
37.050500,30.677522
37.013849,30.540744
37.012984,30.537515
36.940509,30.411985
36.838015,30.309491
36.712485,30.237016
36.712482,30.237015
36.712480,30.237014
36.572477,30.199500
36.572475,30.199500
36.427525,30.199500
36.427523,30.199500
36.287519,30.237014
36.287515,30.237016
36.161986,30.309490
36.161981,30.309494
36.059494,30.411981
36.059490,30.411986
35.987016,30.537515
35.987014,30.537519
35.986403,30.539801
35.985678,30.540744
35.985474,30.541239
35.985341,30.541184
35.957745,30.577142
35.911077,30.583281
35.873736,30.554623
35.870182,30.547413
35.843479,30.482949
35.826465,30.441873
35.755276,30.335331
35.664669,30.244724
35.664668,30.244723
35.664669,30.244723
35.558128,30.173536
35.558129,30.173536
35.558127,30.173535
35.558120,30.173532
35.439752,30.124501
35.439738,30.124497
35.314072,30.099500
35.314069,30.099500
35.185931,30.099500
35.185928,30.099500
35.060261,30.124497
35.060247,30.124501
34.941879,30.173532
34.941871,30.173536
34.835331,30.244723
34.744723,30.335331
34.744718,30.335337
34.720110,30.372167
34.680973,30.398318
34.668975,30.399500
22.662000,30.399500
22.618513,30.381487
22.600500,30.338000
22.600500,29.920655
22.618512,29.877169
23.836994,28.658686
23.880480,28.640674
23.892473,28.641855
23.925650,28.648454
23.935930,28.650500
23.935931,28.650500
24.064072,28.650500
24.064072,28.650499
24.189744,28.625501
24.189749,28.625498
24.189752,28.625498
24.220359,28.612819
24.308127,28.576465
24.414669,28.505276
24.505276,28.414669
24.576465,28.308127
24.625501,28.189744
24.650499,28.064072
24.650500,28.064072
24.650500,27.935928
24.650499,27.935927
24.625502,27.810261
24.625498,27.810247
24.576467,27.691879
24.576465,27.691873
24.505276,27.585331
24.414669,27.494724
24.414668,27.494723
24.414669,27.494723
24.308128,27.423536
24.308129,27.423536
24.308127,27.423535
24.308120,27.423532
24.189752,27.374501
24.189738,27.374497
24.064072,27.349500
24.064069,27.349500
23.935931,27.349500
23.935928,27.349500
23.810261,27.374497
23.810247,27.374501
23.691879,27.423532
23.691871,27.423536
23.585331,27.494723
23.494723,27.585331
23.423536,27.691871
23.423532,27.691879
23.374501,27.810247
23.374497,27.810261
23.349500,27.935927
23.349500,28.064072
23.358142,28.107520
23.348959,28.153686
23.341311,28.163005
21.969533,29.534784
21.969529,29.534789
21.923386,29.614712
21.923384,29.614716
21.899500,29.703853
21.899500,31.168974
21.897089,31.174794
21.898318,31.180972
21.888352,31.195887
21.881487,31.212461
21.872168,31.220109
21.845668,31.237816
21.799502,31.246999
21.760365,31.220849
21.750000,31.186681
21.750000,29.500000
18.000000,29.500000
12.650500,29.500000
12.650500,25.981249
30.427500,25.981249
30.427500,26.193750
30.460742,26.403626
30.526406,26.605721
30.526407,26.605722
30.622877,26.795054
30.736618,26.951604
31.346769,26.341452
31.377401,26.394507
31.470493,26.487599
31.523546,26.518229
30.913394,27.128380
31.069945,27.242122
31.259277,27.338592
31.259278,27.338593
31.461373,27.404257
31.671249,27.437499
31.671257,27.437500
31.883743,27.437500
31.883750,27.437499
32.093626,27.404257
32.295721,27.338593
32.295722,27.338592
32.485056,27.242121
32.641605,27.128381
32.031453,26.518229
32.084507,26.487599
32.177599,26.394507
32.208229,26.341453
32.818381,26.951605
32.932121,26.795056
33.028592,26.605722
33.028593,26.605721
33.094258,26.403625
33.113061,26.284904
33.137655,26.244770
33.183424,26.233781
33.223558,26.258375
33.234547,26.284902
33.244098,26.345204
33.297627,26.509946
33.376269,26.664290
33.478084,26.804426
33.600573,26.926915
33.634556,26.951605
33.740712,27.028732
33.895055,27.107373
34.059796,27.160901
34.059799,27.160902
34.230889,27.188000
34.230893,27.188000
34.404107,27.188000
34.404111,27.188000
34.575201,27.160902
34.739945,27.107373
34.894288,27.028732
35.034428,26.926914
35.156914,26.804428
35.258732,26.664288
35.337373,26.509945
35.390902,26.345201
35.418000,26.174111
35.418000,26.000889
35.417999,26.000885
35.757000,26.000885
35.757000,26.174114
35.784098,26.345203
35.837627,26.509946
35.916269,26.664290
36.018084,26.804426
36.140573,26.926915
36.174556,26.951605
36.280712,27.028732
36.435055,27.107373
36.599796,27.160901
36.599799,27.160902
36.770889,27.188000
36.770893,27.188000
36.944107,27.188000
36.944111,27.188000
37.115201,27.160902
37.279945,27.107373
37.434288,27.028732
37.574428,26.926914
37.696914,26.804428
37.798732,26.664288
37.877373,26.509945
37.930902,26.345201
37.958000,26.174111
37.958000,26.000889
37.930902,25.829799
37.877373,25.665055
37.798732,25.510712
37.696914,25.370572
37.574428,25.248086
37.574427,25.248085
37.574426,25.248084
37.525892,25.212822
38.297000,25.212822
38.297000,26.962177
38.311532,27.035238
38.339121,27.076528
38.366899,27.118101
38.429115,27.159672
38.449761,27.173467
38.507973,27.185045
38.522822,27.187999
38.522823,27.188000
38.522826,27.188000
40.272177,27.188000
40.272177,27.187999
40.301480,27.182170
40.345238,27.173467
40.345239,27.173466
40.345240,27.173466
40.428101,27.118101
40.483466,27.035240
40.483466,27.035239
40.483467,27.035238
40.497999,26.962177
40.498000,26.962177
40.498000,25.212823
40.497999,25.212822
40.483467,25.139761
40.469672,25.119115
40.428101,25.056899
40.364044,25.014098
40.345238,25.001532
40.272177,24.987000
40.272174,24.987000
38.522826,24.987000
38.522823,24.987000
38.449761,25.001532
38.366899,25.056899
38.311532,25.139761
38.297000,25.212822
37.525892,25.212822
37.434290,25.146269
37.279946,25.067627
37.115202,25.014098
37.115204,25.014098
36.944114,24.987000
36.944111,24.987000
36.770889,24.987000
36.770885,24.987000
36.599796,25.014098
36.435053,25.067627
36.280709,25.146269
36.140573,25.248084
36.140573,25.248085
36.140572,25.248086
36.018086,25.370572
36.018085,25.370573
36.018084,25.370573
35.916269,25.510709
35.837627,25.665053
35.784098,25.829796
35.757000,26.000885
35.417999,26.000885
35.390902,25.829799
35.337373,25.665055
35.258732,25.510712
35.156914,25.370572
35.034428,25.248086
35.034427,25.248085
35.034426,25.248084
34.894290,25.146269
34.739946,25.067627
34.575202,25.014098
34.575204,25.014098
34.404114,24.987000
34.404111,24.987000
34.230889,24.987000
34.230885,24.987000
34.059796,25.014098
33.895053,25.067627
33.740709,25.146269
33.600573,25.248084
33.600573,25.248085
33.600572,25.248086
33.478086,25.370572
33.478085,25.370573
33.478084,25.370573
33.376269,25.510709
33.297627,25.665053
33.244098,25.829795
33.234547,25.890097
33.209952,25.930230
33.164182,25.941218
33.124049,25.916623
33.113061,25.890095
33.094258,25.771374
33.028593,25.569278
33.028592,25.569277
32.932122,25.379945
32.818380,25.223394
32.208228,25.833545
32.177599,25.780493
32.084507,25.687401
32.031452,25.656769
32.641604,25.046618
32.485054,24.932877
32.295722,24.836407
32.295721,24.836406
32.093626,24.770742
31.883750,24.737500
31.671249,24.737500
31.461373,24.770742
31.259278,24.836406
31.259277,24.836407
31.069945,24.932877
30.913394,25.046618
31.523546,25.656770
31.470493,25.687401
31.377401,25.780493
31.346770,25.833546
30.736618,25.223394
30.622877,25.379945
30.526407,25.569277
30.526406,25.569278
30.460742,25.771373
30.427500,25.981249
12.650500,25.981249
12.650500,23.212000
12.668513,23.168513
12.712000,23.150500
67.788000,23.150500
Z" /> 
<path style="fill:#000000; fill-opacity:1.000000; stroke:none;fill-rule:evenodd;"
d="M 67.831487,51.518013
67.849500,51.561500
67.849500,72.288000
67.831487,72.331487
67.788000,72.349500
58.851034,72.349500
58.807547,72.331487
58.789534,72.288000
58.807547,72.244513
58.825600,72.232006
58.869619,72.212011
58.869618,72.212011
58.869628,72.212007
59.054655,72.083820
59.213820,71.924655
59.342007,71.739628
59.435097,71.534685
59.490096,71.316414
59.500500,71.184220
59.500500,69.660362
59.518513,69.616875
59.552377,69.599620
59.599409,69.592171
59.771639,69.536211
59.932994,69.453996
60.079501,69.347553
60.207553,69.219501
60.207553,69.219500
60.211049,69.216005
60.211060,69.215991
60.515509,68.911542
60.558995,68.893530
60.579307,68.896980
60.606682,68.906560
60.880491,68.969055
60.880500,68.969056
61.159561,69.000499
61.159575,69.000500
61.440425,69.000500
61.440438,69.000499
61.659709,68.975792
61.719509,68.969055
61.993318,68.906560
62.258408,68.813801
62.511445,68.691945
62.511449,68.691941
62.511456,68.691939
62.735852,68.550940
62.749248,68.542523
62.968825,68.367416
63.167416,68.168825
63.342523,67.949248
63.362625,67.917255
63.491939,67.711456
63.491941,67.711449
63.491945,67.711445
63.613801,67.458408
63.706560,67.193318
63.769055,66.919509
63.789025,66.742267
63.800499,66.640438
63.800500,66.640424
63.800500,66.359575
63.800499,66.359561
63.769056,66.080500
63.769055,66.080491
63.706560,65.806682
63.613801,65.541592
63.491945,65.288555
63.491944,65.288553
63.491939,65.288543
63.342526,65.050756
63.203306,64.876180
63.167416,64.831175
62.968825,64.632584
62.749248,64.457477
62.749243,64.457473
62.511456,64.308060
62.398882,64.253847
62.258408,64.186199
62.258405,64.186198
62.258401,64.186196
61.993318,64.093440
61.719509,64.030945
61.705111,64.029322
61.663915,64.006551
61.650500,63.968209
61.650500,61.435728
61.668513,61.392241
61.686560,61.379736
61.769626,61.342007
61.954654,61.213819
62.113819,61.054654
62.242007,60.869626
62.280052,60.785864
62.314435,60.753722
62.351070,60.751664
62.503588,60.790096
62.635783,60.800500
63.864216,60.800499
63.864219,60.800499
63.996412,60.790096
64.013195,60.785867
64.214683,60.735096
64.419626,60.642007
64.604654,60.513819
64.763819,60.354654
64.892007,60.169626
64.985096,59.964683
65.040096,59.746412
65.050500,59.614217
65.050499,58.385784
65.040096,58.253588
64.985096,58.035317
64.892007,57.830374
64.763819,57.645346
64.604654,57.486181
64.604652,57.486179
64.419628,57.357994
64.419626,57.357993
64.214687,57.264905
63.996412,57.209903
63.864220,57.199500
62.635780,57.199500
62.503587,57.209903
62.285312,57.264905
62.082097,57.357210
62.035053,57.358794
62.013176,57.344703
61.954652,57.286179
61.769628,57.157994
61.769626,57.157993
61.564687,57.064905
61.551174,57.061500
61.487719,57.045510
61.449952,57.017418
61.443111,56.970848
61.470461,56.933531
61.618344,56.842316
61.742316,56.718344
61.834358,56.569119
61.834361,56.569114
61.869755,56.462302
61.889503,56.402704
61.889504,56.402698
61.899999,56.299978
61.899999,55.940310
61.918012,55.896823
61.961499,55.878810
62.004986,55.896823
62.019989,55.921305
62.045243,55.999028
62.138139,56.181347
62.244913,56.328308
62.892473,55.680747
62.929920,55.745606
63.004394,55.820080
63.069250,55.857524
62.421689,56.505086
62.568648,56.611858
62.750971,56.704756
62.945581,56.767989
62.945579,56.767989
63.147684,56.799999
63.147692,56.800000
63.352308,56.800000
63.352315,56.799999
63.554419,56.767989
63.749028,56.704756
63.931351,56.611858
64.078309,56.505085
63.430749,55.857525
63.495606,55.820080
63.570080,55.745606
63.607525,55.680748
64.255085,56.328308
64.361858,56.181351
64.454756,55.999028
64.517989,55.804419
64.549999,55.602315
64.550000,55.602307
64.550000,55.397692
64.549999,55.397684
64.517989,55.195580
64.454756,55.000971
64.361858,54.818648
64.255086,54.671689
63.607524,55.319250
63.570080,55.254394
63.495606,55.179920
63.430747,55.142473
64.078308,54.494913
63.931347,54.388139
63.749028,54.295243
63.554418,54.232010
63.554420,54.232010
63.352315,54.200000
63.147684,54.200000
62.945580,54.232010
62.750971,54.295243
62.568652,54.388139
62.421690,54.494913
63.069251,55.142474
63.004394,55.179920
62.929920,55.254394
62.892474,55.319251
62.244913,54.671690
62.138139,54.818652
62.045243,55.000971
62.019989,55.078695
61.989419,55.114487
61.942494,55.118180
61.906702,55.087610
61.899999,55.059690
61.899999,54.200025
61.899998,54.200019
61.889504,54.097297
61.834361,53.930885
61.834358,53.930880
61.742316,53.781655
61.618344,53.657683
61.469119,53.565641
61.469114,53.565638
61.302704,53.510496
61.302698,53.510495
61.199978,53.500000
60.625000,53.500000
60.625000,55.188500
60.606987,55.231987
60.563500,55.250000
60.500000,55.250000
60.500000,55.313500
60.481987,55.356987
60.438500,55.375000
59.100001,55.375000
59.100001,56.299979
59.110495,56.402702
59.165638,56.569114
59.165641,56.569119
59.257683,56.718344
59.381655,56.842316
59.529538,56.933531
59.557094,56.971692
59.549596,57.018161
59.512279,57.045511
59.435312,57.064905
59.230373,57.157993
59.230371,57.157994
59.045347,57.286179
59.045347,57.286180
59.045346,57.286181
58.886181,57.445346
58.886180,57.445347
58.886179,57.445347
58.757994,57.630371
58.757993,57.630373
58.664905,57.835312
58.609903,58.053587
58.599500,58.185779
58.599500,60.314219
58.609903,60.446412
58.664905,60.664687
58.757993,60.869626
58.757994,60.869628
58.886179,61.054652
59.045347,61.213820
59.230367,61.342003
59.230370,61.342004
59.230374,61.342007
59.313435,61.379735
59.345578,61.414118
59.349500,61.435728
59.349500,62.773973
59.331487,62.817460
59.288000,62.835473
59.244513,62.817460
59.117205,62.690152
59.117201,62.690147
58.987001,62.559947
58.977350,62.552935
58.953633,62.517260
58.945532,62.482815
58.859409,62.287763
58.738911,62.111858
58.738909,62.111855
58.588144,61.961090
58.412243,61.840595
58.412242,61.840594
58.412237,61.840591
58.217185,61.754468
58.217180,61.754466
58.217178,61.754466
58.097919,61.726416
58.059711,61.698925
58.050500,61.666550
58.050500,60.903993
58.050499,60.903976
58.044349,60.815369
58.003574,60.642007
57.995532,60.607815
57.909409,60.412763
57.788911,60.236858
57.788909,60.236855
57.638144,60.086090
57.462243,59.965595
57.462242,59.965594
57.462237,59.965591
57.267185,59.879468
57.267180,59.879466
57.267178,59.879466
57.059629,59.830650
57.059631,59.830650
56.971023,59.824500
56.971012,59.824500
56.528988,59.824500
56.528976,59.824500
56.440369,59.830650
56.232821,59.879466
56.232817,59.879467
56.232815,59.879468
56.037763,59.965591
56.037760,59.965592
56.037756,59.965595
55.861855,60.086090
55.711090,60.236855
55.609434,60.385256
55.569998,60.410953
55.558697,60.412000
54.426741,60.412000
54.383254,60.393987
54.370481,60.375340
54.359409,60.350263
54.238911,60.174358
54.238909,60.174355
54.088144,60.023590
53.912243,59.903095
53.912242,59.903094
53.912237,59.903091
53.717185,59.816968
53.717180,59.816966
53.717178,59.816966
53.509629,59.768150
53.509631,59.768150
53.421023,59.762000
53.421012,59.762000
52.978988,59.762000
52.978976,59.762000
52.890369,59.768150
52.682821,59.816966
52.682817,59.816967
52.682815,59.816968
52.487763,59.903091
52.487760,59.903092
52.487756,59.903095
52.311855,60.023590
52.161090,60.174355
52.040595,60.350256
52.040592,60.350260
52.040591,60.350263
51.954470,60.545311
51.954466,60.545321
51.905650,60.752869
51.899500,60.841476
51.899500,61.604050
51.881487,61.647537
51.852081,61.663916
51.732821,61.691966
51.732817,61.691967
51.732815,61.691968
51.537763,61.778091
51.537760,61.778092
51.537756,61.778095
51.361855,61.898590
51.211090,62.049355
51.090595,62.225256
51.090592,62.225260
51.090591,62.225263
51.090590,62.225266
51.004470,62.420311
51.004466,62.420321
50.955650,62.627869
50.949500,62.716476
50.949500,64.033523
50.955650,64.122130
50.969872,64.182595
50.962294,64.229051
50.953493,64.240163
50.483277,64.710379
50.439790,64.728392
50.414357,64.722887
50.264684,64.654904
50.046412,64.599903
49.914220,64.589500
48.085780,64.589500
47.953587,64.599903
47.735312,64.654905
47.530373,64.747993
47.530371,64.747994
47.345347,64.876179
47.345347,64.876180
47.345346,64.876181
47.186181,65.035346
47.186180,65.035347
47.186179,65.035347
47.167006,65.063023
47.127434,65.088512
47.116453,65.089500
46.973385,65.089500
46.802298,65.116598
46.637552,65.170127
46.483209,65.248769
46.343073,65.350584
46.343073,65.350585
46.343072,65.350586
46.033072,65.660586
45.910586,65.783072
45.910585,65.783073
45.910584,65.783073
45.808769,65.923209
45.730127,66.077553
45.676598,66.242296
45.649500,66.413385
45.649500,66.424230
45.631487,66.467717
45.558315,66.540889
45.558314,66.540890
45.558313,66.540890
45.431412,66.724059
45.431403,66.724075
45.339250,66.926957
45.284798,67.143050
45.274500,67.273912
45.274500,68.001087
45.284798,68.131949
45.339250,68.348042
45.431403,68.550924
45.431412,68.550940
45.558313,68.734109
45.558314,68.734110
45.558315,68.734111
45.715889,68.891685
45.752851,68.917292
45.778340,68.956864
45.779010,68.974094
45.775000,69.013348
45.775000,69.237500
47.724999,69.237500
47.724999,69.013357
47.724998,69.013354
47.720988,68.974097
47.734488,68.929004
47.747142,68.917296
47.784111,68.891685
47.941685,68.734111
48.068592,68.550933
48.160751,68.348038
48.215201,68.131949
48.225500,68.001084
48.225500,67.851999
48.243513,67.808512
48.287000,67.790499
49.914219,67.790499
50.046412,67.780096
50.264683,67.725096
50.469626,67.632007
50.654654,67.503819
50.813819,67.344654
50.873520,67.258479
50.902393,67.235951
50.903712,67.235453
50.982445,67.209873
51.013125,67.194240
51.016321,67.193037
51.036686,67.193698
51.057004,67.192099
51.059752,67.194446
51.063367,67.194564
51.077301,67.209433
51.092797,67.222668
51.093862,67.227107
51.095552,67.228910
51.095402,67.233520
51.099500,67.250589
51.099500,71.184223
51.109903,71.316414
51.164904,71.534689
51.257988,71.739619
51.257997,71.739635
51.386178,71.924653
51.545346,72.083821
51.730364,72.212002
51.730368,72.212004
51.730372,72.212007
51.730376,72.212009
51.730380,72.212011
51.774400,72.232006
51.806545,72.266391
51.804960,72.313434
51.770575,72.345579
51.748966,72.349500
12.712000,72.349500
12.668513,72.331487
12.650500,72.288000
12.650500,71.149979
47.400001,71.149979
47.410495,71.252702
47.465638,71.419114
47.465641,71.419119
47.557683,71.568344
47.681655,71.692316
47.830880,71.784358
47.830885,71.784361
47.997295,71.839503
47.997301,71.839504
48.100022,71.849999
48.875000,71.849999
49.125000,71.849999
49.899973,71.849999
49.899979,71.849998
50.002702,71.839504
50.169114,71.784361
50.169119,71.784358
50.318344,71.692316
50.442316,71.568344
50.534358,71.419119
50.534361,71.419114
50.589503,71.252704
50.589504,71.252698
50.599999,71.149978
50.600000,71.149975
50.600000,70.875000
49.125000,70.875000
49.125000,71.849999
48.875000,71.849999
48.875000,70.875000
47.400001,70.875000
47.400001,71.149979
12.650500,71.149979
12.650500,61.868252
18.240000,61.868252
18.240000,63.375000
19.500000,63.375000
19.500000,63.625000
18.240000,63.625000
18.240000,65.131747
18.274392,65.392980
18.342584,65.647474
18.342586,65.647480
18.443417,65.890905
18.575159,66.119091
18.735557,66.328127
18.921872,66.514442
19.130908,66.674840
19.359094,66.806582
19.602519,66.907413
19.602525,66.907415
19.857019,66.975607
20.118252,67.009999
20.118261,67.010000
20.125000,67.010000
20.125000,65.499829
20.176131,65.510000
20.323869,65.510000
20.375000,65.499829
20.375000,67.010000
20.381739,67.010000
20.381747,67.009999
20.642980,66.975607
20.897474,66.907415
20.897480,66.907413
21.140905,66.806582
21.369091,66.674840
21.578127,66.514442
21.764442,66.328127
21.924840,66.119091
22.056582,65.890905
22.157413,65.647480
22.157415,65.647474
22.225607,65.392980
22.259999,65.131747
22.260000,65.131739
22.260000,63.625000
21.000000,63.625000
21.000000,63.375000
22.260000,63.375000
22.260000,61.868260
22.259999,61.868252
22.225607,61.607019
22.157415,61.352525
22.157413,61.352519
22.056582,61.109094
21.924840,60.880908
21.764442,60.671872
21.578127,60.485557
21.570090,60.479390
21.508279,60.431961
23.939500,60.431961
23.939500,66.568039
23.950111,66.687404
23.950114,66.687419
24.006091,66.883049
24.006090,66.883049
24.100299,67.063403
24.100301,67.063406
24.100302,67.063407
24.228891,67.221109
24.386593,67.349698
24.386597,67.349700
24.386596,67.349700
24.566950,67.443909
24.617598,67.458401
24.762582,67.499886
24.881963,67.510500
28.018036,67.510499
28.018039,67.510499
28.137404,67.499888
28.137410,67.499886
28.137418,67.499886
28.333049,67.443909
28.513407,67.349698
28.671109,67.221109
28.799698,67.063407
28.893909,66.883049
28.949886,66.687418
28.960500,66.568037
28.960499,61.996961
29.849500,61.996961
29.849500,64.913039
29.860111,65.032404
29.860114,65.032419
29.916091,65.228049
29.916090,65.228049
30.010299,65.408403
30.010301,65.408406
30.010302,65.408407
30.138891,65.566109
30.296593,65.694698
30.296597,65.694700
30.296596,65.694700
30.476950,65.788909
30.532927,65.804925
30.672582,65.844886
30.791963,65.855500
33.708036,65.855499
33.708039,65.855499
33.827404,65.844888
33.827410,65.844886
33.827418,65.844886
34.023049,65.788909
34.175413,65.709320
34.222296,65.705152
34.238905,65.713277
34.280374,65.742007
34.280379,65.742009
34.280382,65.742011
34.485312,65.835094
34.485313,65.835094
34.485317,65.835096
34.648146,65.876125
34.703587,65.890096
34.713867,65.890905
34.835783,65.900500
36.164216,65.900499
36.190599,65.898422
36.199687,65.901374
36.209110,65.899774
36.221230,65.908374
36.235365,65.912966
36.239703,65.921481
36.247499,65.927012
36.249988,65.941664
36.256735,65.954905
36.255383,65.973417
36.237326,66.052530
36.210088,66.090919
36.172543,66.100155
36.164220,66.099500
34.835780,66.099500
34.703587,66.109903
34.485312,66.164905
34.280373,66.257993
34.280371,66.257994
34.095347,66.386179
34.095347,66.386180
33.936181,66.545345
33.861350,66.653355
33.829806,66.676820
33.818806,66.680395
33.771881,66.676705
33.761457,66.669992
33.641289,66.574162
33.641287,66.574161
33.641285,66.574159
33.413004,66.430719
33.199968,66.328127
33.170079,66.313733
33.170076,66.313732
33.170072,66.313730
32.915591,66.224684
32.652730,66.164687
32.384814,66.134500
32.384809,66.134500
32.115191,66.134500
32.115185,66.134500
31.847269,66.164687
31.584408,66.224684
31.329927,66.313730
31.086995,66.430719
30.858715,66.574158
30.647913,66.742267
30.457267,66.932913
30.289158,67.143715
30.145719,67.371995
30.028730,67.614927
29.939684,67.869408
29.879687,68.132269
29.849500,68.400185
29.849500,68.669814
29.879687,68.937730
29.939684,69.200591
30.028730,69.455072
30.145719,69.698004
30.289158,69.926284
30.289162,69.926289
30.457266,70.137085
30.647915,70.327734
30.738533,70.399999
30.858715,70.495841
31.086995,70.639280
31.087001,70.639283
31.087003,70.639284
31.329921,70.756267
31.584409,70.845316
31.847268,70.905312
32.115191,70.935500
32.115201,70.935500
32.384799,70.935500
32.384809,70.935500
32.652732,70.905312
32.915591,70.845316
33.170079,70.756267
33.412997,70.639284
33.413001,70.639281
33.413004,70.639280
33.641284,70.495841
33.641283,70.495841
33.641289,70.495838
33.852085,70.327734
34.042734,70.137085
34.210838,69.926289
34.282238,69.812657
34.345707,69.711647
45.775001,69.711647
45.785320,69.812657
45.785321,69.812660
45.839542,69.976293
45.839546,69.976300
45.930055,70.123038
46.051961,70.244944
46.198699,70.335453
46.198706,70.335457
46.362337,70.389678
46.362346,70.389679
46.463354,70.399999
46.625000,70.399999
46.875000,70.399999
47.036641,70.399999
47.036647,70.399998
47.137657,70.389679
47.137660,70.389678
47.301298,70.335455
47.301302,70.335453
47.306210,70.332426
47.352678,70.324924
47.390841,70.352477
47.400000,70.384767
47.400000,70.625000
48.875000,70.625000
49.125000,70.625000
50.599999,70.625000
50.599999,70.350026
50.599998,70.350020
50.589504,70.247297
50.534361,70.080885
50.534358,70.080880
50.442316,69.931655
50.318344,69.807683
50.169119,69.715641
50.169114,69.715638
50.002704,69.660496
50.002698,69.660495
49.899978,69.650000
49.125000,69.650000
49.125000,70.625000
48.875000,70.625000
48.875000,69.650000
48.100025,69.650000
48.100019,69.650001
47.997297,69.660495
47.830885,69.715638
47.830872,69.715644
47.818783,69.723101
47.772314,69.730598
47.734155,69.703039
47.725000,69.670756
47.725000,69.487500
46.875000,69.487500
46.875000,70.399999
46.625000,70.399999
46.625000,69.487500
45.775001,69.487500
45.775001,69.711647
34.345707,69.711647
34.354280,69.698004
34.354281,69.698001
34.354284,69.697997
34.471267,69.455079
34.492421,69.394622
34.523784,69.359526
34.565495,69.355299
34.639506,69.373948
34.703587,69.390096
34.717206,69.391167
34.835783,69.400500
36.164216,69.400499
36.164219,69.400499
36.296412,69.390096
36.514683,69.335096
36.719626,69.242007
36.904654,69.113819
37.063819,68.954654
37.082993,68.926978
37.122564,68.901489
37.133546,68.900501
37.240542,68.900501
37.240546,68.900501
37.419409,68.872171
37.591639,68.816211
37.639780,68.791680
37.686705,68.787987
37.694386,68.791068
37.741587,68.813799
37.741590,68.813800
37.741592,68.813801
38.006682,68.906560
38.280491,68.969055
38.280500,68.969056
38.559561,69.000499
38.559575,69.000500
38.840425,69.000500
38.840438,69.000499
39.059709,68.975792
39.119509,68.969055
39.393318,68.906560
39.658408,68.813801
39.911445,68.691945
39.911449,68.691941
39.911456,68.691939
40.135852,68.550940
40.149248,68.542523
40.368825,68.367416
40.567416,68.168825
40.742523,67.949248
40.762625,67.917255
40.891939,67.711456
40.891941,67.711449
40.891945,67.711445
41.013801,67.458408
41.106560,67.193318
41.169055,66.919509
41.189025,66.742267
41.200499,66.640438
41.200500,66.640424
41.200500,66.359575
41.200499,66.359561
41.169056,66.080500
41.169055,66.080491
41.106560,65.806682
41.013801,65.541592
40.891945,65.288555
40.891944,65.288553
40.891939,65.288543
40.742526,65.050756
40.603306,64.876180
40.567416,64.831175
40.368825,64.632584
40.149248,64.457477
40.149243,64.457473
39.911456,64.308060
39.798882,64.253847
39.658408,64.186199
39.658405,64.186198
39.658401,64.186196
39.393318,64.093440
39.119517,64.030946
39.119499,64.030943
38.840438,63.999500
38.840425,63.999500
38.559575,63.999500
38.559561,63.999500
38.280500,64.030943
38.280482,64.030946
38.006681,64.093440
37.741598,64.186196
37.488546,64.308059
37.444718,64.335598
37.398313,64.343482
37.359925,64.316243
37.350499,64.283524
37.350499,63.785780
37.340096,63.653587
37.326125,63.598146
37.285096,63.435317
37.192007,63.230374
37.063819,63.045346
36.904654,62.886181
36.904652,62.886179
36.719628,62.757994
36.719626,62.757993
36.514687,62.664905
36.296412,62.609903
36.164220,62.599500
34.835780,62.599500
34.716824,62.608862
34.672058,62.594317
34.650689,62.552377
34.650499,62.547552
34.650499,61.996960
34.639888,61.877595
34.639886,61.877587
34.639886,61.877582
34.583909,61.681951
34.583908,61.681950
34.583909,61.681950
34.489700,61.501596
34.435992,61.435728
34.361109,61.343891
34.203407,61.215302
34.203403,61.215300
34.203402,61.215299
34.203403,61.215299
34.023049,61.121090
33.827418,61.065114
33.708038,61.054500
30.791960,61.054500
30.672595,61.065111
30.672580,61.065114
30.476950,61.121091
30.296596,61.215299
30.138891,61.343891
30.010299,61.501596
29.916090,61.681950
29.860114,61.877581
29.849500,61.996961
28.960499,61.996961
28.960499,60.431964
28.960499,60.431960
28.949888,60.312595
28.949886,60.312587
28.949886,60.312582
28.893909,60.116951
28.893908,60.116950
28.893909,60.116950
28.799700,59.936596
28.799698,59.936593
28.671109,59.778891
28.513407,59.650302
28.513403,59.650300
28.513402,59.650299
28.513403,59.650299
28.333049,59.556090
28.137418,59.500114
28.018038,59.489500
24.881960,59.489500
24.762595,59.500111
24.762580,59.500114
24.566950,59.556091
24.386596,59.650299
24.228891,59.778891
24.100299,59.936596
24.006090,60.116950
23.950114,60.312581
23.939500,60.431961
21.508279,60.431961
21.369091,60.325159
21.140905,60.193417
20.897480,60.092586
20.897474,60.092584
20.642980,60.024392
20.381747,59.990000
20.375000,59.990000
20.375000,61.500170
20.323869,61.490000
20.176131,61.490000
20.125000,61.500170
20.125000,59.990000
20.118252,59.990000
19.857019,60.024392
19.602525,60.092584
19.602519,60.092586
19.359094,60.193417
19.130908,60.325159
18.921872,60.485557
18.735557,60.671872
18.575159,60.880908
18.443417,61.109094
18.342586,61.352519
18.342584,61.352525
18.274392,61.607019
18.240000,61.868252
12.650500,61.868252
12.650500,57.061500
12.668513,57.018013
12.712000,57.000000
36.688500,57.000000
36.731987,57.018013
36.750000,57.061500
36.750000,59.250000
47.750000,59.250000
47.750000,54.200021
59.100000,54.200021
59.100000,55.125000
60.375000,55.125000
60.375000,53.500000
59.800025,53.500000
59.800019,53.500001
59.697297,53.510495
59.530885,53.565638
59.530880,53.565641
59.381655,53.657683
59.257683,53.781655
59.165641,53.930880
59.165638,53.930885
59.110496,54.097295
59.110495,54.097301
59.100000,54.200021
47.750000,54.200021
47.750000,51.561500
47.768013,51.518013
47.811500,51.500000
67.788000,51.500000
Z" /> 
</g> 
</svg>
