<?xml version="1.0" standalone="no"?>
 <!DOCTYPE svg PUBLIC "-//W3C//DTD SVG 1.1//EN" 
 "http://www.w3.org/Graphics/SVG/1.1/DTD/svg11.dtd"> 
<svg
  xmlns:svg="http://www.w3.org/2000/svg"
  xmlns="http://www.w3.org/2000/svg"
  xmlns:xlink="http://www.w3.org/1999/xlink"
  version="1.1"
  width="5.755cm" height="5.155cm" viewBox="11.475 21.975 57.55 51.55">
<title>SVG Image created as ECAD_main-B_Mask.svg date 2025/10/27 20:20:28 </title>
  <desc>Image generated by PCBNEW </desc>
<g style="fill:#000000; fill-opacity:1.000000;stroke:#000000; stroke-opacity:1.000000;
stroke-linecap:round; stroke-linejoin:round;"
 transform="translate(0 0) scale(1 1)">
</g>
<g style="fill:#000000; fill-opacity:1.000000; stroke:none;">
<circle cx="14.162500" cy="45.250000" r="1.000000" /> 
</g>
<g style="fill:#000000; fill-opacity:1.000000; stroke:none;">
<circle cx="14.162500" cy="38.750000" r="1.000000" /> 
</g>
<g style="fill:#000000; fill-opacity:1.000000; stroke:none;">
<circle cx="18.662500" cy="45.250000" r="1.000000" /> 
</g>
<g style="fill:#000000; fill-opacity:1.000000; stroke:none;">
<circle cx="18.662500" cy="38.750000" r="1.000000" /> 
<path style="fill:#000000; fill-opacity:1.000000; stroke:none;fill-rule:evenodd;"
d="M 62.700000,59.800000
62.604329,59.780970
62.523223,59.726777
62.469030,59.645671
62.450000,59.550000
62.450000,58.450000
62.469030,58.354329
62.523223,58.273223
62.604329,58.219030
62.700000,58.200000
63.800000,58.200000
63.895671,58.219030
63.976777,58.273223
64.030970,58.354329
64.050000,58.450000
64.050000,59.550000
64.030970,59.645671
63.976777,59.726777
63.895671,59.780970
63.800000,59.800000
Z" /> 
</g>
<g style="fill:#000000; fill-opacity:1.000000; stroke:none;">
<circle cx="63.250000" cy="55.500000" r="0.800000" /> 
</g>
<g style="fill:#000000; fill-opacity:1.000000; stroke:none;">
<circle cx="38.700000" cy="66.500000" r="1.500000" /> 
</g>
<g style="fill:#000000; fill-opacity:1.000000; stroke:none;">
<circle cx="61.300000" cy="66.500000" r="1.500000" /> 
</g>
<g style="fill:#000000; fill-opacity:1.000000; stroke:none;">
<circle cx="51.000000" cy="31.000000" r="1.500000" /> 
<path style="fill:#000000; fill-opacity:1.000000; stroke:none;fill-rule:evenodd;"
d="M 30.850000,64.855000
30.850000,62.055000
33.650000,62.055000
33.650000,64.855000
Z" /> 
</g>
<g style="fill:#000000; fill-opacity:1.000000; stroke:none;">
<circle cx="32.250000" cy="68.535000" r="1.400000" /> 
<path style="fill:#000000; fill-opacity:1.000000; stroke:none;fill-rule:evenodd;"
d="M 24.940000,66.510000
24.940000,60.490000
27.960000,60.490000
27.960000,66.510000
Z" /> 
</g>
<g style="fill:none; 
stroke:#000000; stroke-width:3.020000; stroke-opacity:1; 
stroke-linecap:round; stroke-linejoin:round;">
<path d="M20.250000 62.000000
L20.250000 65.000000
" />
<path style="fill:#000000; fill-opacity:1.000000; stroke:none;fill-rule:evenodd;"
d="M 38.547500,25.237500
40.247500,25.237500
40.247500,26.937500
38.547500,26.937500
Z" /> 
</g>
<g style="fill:#000000; fill-opacity:1.000000; stroke:none;">
<circle cx="36.857500" cy="26.087500" r="0.850000" /> 
</g>
<g style="fill:#000000; fill-opacity:1.000000; stroke:none;">
<circle cx="34.317500" cy="26.087500" r="0.850000" /> 
</g>
<g style="fill:#000000; fill-opacity:1.000000; stroke:none;">
<circle cx="31.777500" cy="26.087500" r="0.850000" /> 
<path style="fill:#000000; fill-opacity:1.000000; stroke:none;fill-rule:evenodd;"
d="M 46.987500,67.100000
47.078387,67.118079
47.155438,67.169562
47.206921,67.246613
47.225000,67.337500
47.225000,67.937500
47.206921,68.028387
47.155438,68.105438
47.078387,68.156921
46.987500,68.175000
46.512500,68.175000
46.421613,68.156921
46.344562,68.105438
46.293079,68.028387
46.275000,67.937500
46.275000,67.337500
46.293079,67.246613
46.344562,67.169562
46.421613,67.118079
46.512500,67.100000
Z" /> 
<path style="fill:#000000; fill-opacity:1.000000; stroke:none;fill-rule:evenodd;"
d="M 46.987500,68.825000
47.078387,68.843079
47.155438,68.894562
47.206921,68.971613
47.225000,69.062500
47.225000,69.662500
47.206921,69.753387
47.155438,69.830438
47.078387,69.881921
46.987500,69.900000
46.512500,69.900000
46.421613,69.881921
46.344562,69.830438
46.293079,69.753387
46.275000,69.662500
46.275000,69.062500
46.293079,68.971613
46.344562,68.894562
46.421613,68.843079
46.512500,68.825000
Z" /> 
<path style="fill:#000000; fill-opacity:1.000000; stroke:none;fill-rule:evenodd;"
d="M 23.510000,34.920000
23.499343,34.973576
23.468995,35.018995
23.423576,35.049343
23.370000,35.060000
23.090000,35.060000
23.036424,35.049343
22.991005,35.018995
22.960657,34.973576
22.950000,34.920000
22.950000,34.580000
22.960657,34.526424
22.991005,34.481005
23.036424,34.450657
23.090000,34.440000
23.370000,34.440000
23.423576,34.450657
23.468995,34.481005
23.499343,34.526424
23.510000,34.580000
Z" /> 
<path style="fill:#000000; fill-opacity:1.000000; stroke:none;fill-rule:evenodd;"
d="M 22.550000,34.920000
22.539343,34.973576
22.508995,35.018995
22.463576,35.049343
22.410000,35.060000
22.130000,35.060000
22.076424,35.049343
22.031005,35.018995
22.000657,34.973576
21.990000,34.920000
21.990000,34.580000
22.000657,34.526424
22.031005,34.481005
22.076424,34.450657
22.130000,34.440000
22.410000,34.440000
22.463576,34.450657
22.508995,34.481005
22.539343,34.526424
22.550000,34.580000
Z" /> 
<path style="fill:#000000; fill-opacity:1.000000; stroke:none;fill-rule:evenodd;"
d="M 47.900000,70.400000
47.919030,70.304329
47.973223,70.223223
48.054329,70.169030
48.150000,70.150000
49.850000,70.150000
49.945671,70.169030
50.026777,70.223223
50.080970,70.304329
50.100000,70.400000
50.100000,71.100000
50.080970,71.195671
50.026777,71.276777
49.945671,71.330970
49.850000,71.350000
48.150000,71.350000
48.054329,71.330970
47.973223,71.276777
47.919030,71.195671
47.900000,71.100000
Z" /> 
<path style="fill:#000000; fill-opacity:1.000000; stroke:none;fill-rule:evenodd;"
d="M 52.100000,65.819997
52.119030,65.724327
52.173222,65.643222
52.254327,65.589030
52.349998,65.570001
58.250003,65.570000
58.345673,65.589030
58.426778,65.643222
58.480970,65.724327
58.499999,65.819998
58.500000,71.120003
58.480970,71.215673
58.426778,71.296778
58.345673,71.350970
58.250002,71.369999
52.349997,71.370000
52.254327,71.350970
52.173222,71.296778
52.119030,71.215673
52.100001,71.120002
Z" /> 
<path style="fill:#000000; fill-opacity:1.000000; stroke:none;fill-rule:evenodd;"
d="M 47.900000,65.840000
47.919030,65.744329
47.973223,65.663223
48.054329,65.609030
48.150000,65.590000
49.850000,65.590000
49.945671,65.609030
50.026777,65.663223
50.080970,65.744329
50.100000,65.840000
50.100000,66.540000
50.080970,66.635671
50.026777,66.716777
49.945671,66.770970
49.850000,66.790000
48.150000,66.790000
48.054329,66.770970
47.973223,66.716777
47.919030,66.635671
47.900000,66.540000
Z" /> 
<path style="fill:#000000; fill-opacity:1.000000; stroke:none;fill-rule:evenodd;"
d="M 36.100000,63.600000
36.195671,63.619030
36.276777,63.673223
36.330970,63.754329
36.350000,63.850000
36.350000,64.650000
36.330970,64.745671
36.276777,64.826777
36.195671,64.880970
36.100000,64.900000
34.900000,64.900000
34.804329,64.880970
34.723223,64.826777
34.669030,64.745671
34.650000,64.650000
34.650000,63.850000
34.669030,63.754329
34.723223,63.673223
34.804329,63.619030
34.900000,63.600000
Z" /> 
<path style="fill:#000000; fill-opacity:1.000000; stroke:none;fill-rule:evenodd;"
d="M 36.100000,67.100000
36.195671,67.119030
36.276777,67.173223
36.330970,67.254329
36.350000,67.350000
36.350000,68.150000
36.330970,68.245671
36.276777,68.326777
36.195671,68.380970
36.100000,68.400000
34.900000,68.400000
34.804329,68.380970
34.723223,68.326777
34.669030,68.245671
34.650000,68.150000
34.650000,67.350000
34.669030,67.254329
34.723223,67.173223
34.804329,67.119030
34.900000,67.100000
Z" /> 
<path style="fill:#000000; fill-opacity:1.000000; stroke:none;fill-rule:evenodd;"
d="M 59.850000,60.500000
59.754329,60.480970
59.673223,60.426777
59.619030,60.345671
59.600000,60.250000
59.600000,58.250000
59.619030,58.154329
59.673223,58.073223
59.754329,58.019030
59.850000,58.000000
61.150000,58.000000
61.245671,58.019030
61.326777,58.073223
61.380970,58.154329
61.400000,58.250000
61.400000,60.250000
61.380970,60.345671
61.326777,60.426777
61.245671,60.480970
61.150000,60.500000
Z" /> 
<path style="fill:#000000; fill-opacity:1.000000; stroke:none;fill-rule:evenodd;"
d="M 59.850000,56.500000
59.754329,56.480970
59.673223,56.426777
59.619030,56.345671
59.600000,56.250000
59.600000,54.250000
59.619030,54.154329
59.673223,54.073223
59.754329,54.019030
59.850000,54.000000
61.150000,54.000000
61.245671,54.019030
61.326777,54.073223
61.380970,54.154329
61.400000,54.250000
61.400000,56.250000
61.380970,56.345671
61.326777,56.426777
61.245671,56.480970
61.150000,56.500000
Z" /> 
<path style="fill:#000000; fill-opacity:1.000000; stroke:none;fill-rule:evenodd;"
d="M 57.550000,64.175000
57.492597,64.163582
57.443934,64.131066
57.411418,64.082403
57.400000,64.025000
57.400000,62.850000
57.411418,62.792597
57.443934,62.743934
57.492597,62.711418
57.550000,62.700000
57.850000,62.700000
57.907403,62.711418
57.956066,62.743934
57.988582,62.792597
58.000000,62.850000
58.000000,64.025000
57.988582,64.082403
57.956066,64.131066
57.907403,64.163582
57.850000,64.175000
Z" /> 
<path style="fill:#000000; fill-opacity:1.000000; stroke:none;fill-rule:evenodd;"
d="M 55.650000,64.175000
55.592597,64.163582
55.543934,64.131066
55.511418,64.082403
55.500000,64.025000
55.500000,62.850000
55.511418,62.792597
55.543934,62.743934
55.592597,62.711418
55.650000,62.700000
55.950000,62.700000
56.007403,62.711418
56.056066,62.743934
56.088582,62.792597
56.100000,62.850000
56.100000,64.025000
56.088582,64.082403
56.056066,64.131066
56.007403,64.163582
55.950000,64.175000
Z" /> 
<path style="fill:#000000; fill-opacity:1.000000; stroke:none;fill-rule:evenodd;"
d="M 56.600000,62.300000
56.542597,62.288582
56.493934,62.256066
56.461418,62.207403
56.450000,62.150000
56.450000,60.975000
56.461418,60.917597
56.493934,60.868934
56.542597,60.836418
56.600000,60.825000
56.900000,60.825000
56.957403,60.836418
57.006066,60.868934
57.038582,60.917597
57.050000,60.975000
57.050000,62.150000
57.038582,62.207403
57.006066,62.256066
56.957403,62.288582
56.900000,62.300000
Z" /> 
<path style="fill:#000000; fill-opacity:1.000000; stroke:none;fill-rule:evenodd;"
d="M 54.000000,64.112500
53.942597,64.101082
53.893934,64.068566
53.861418,64.019903
53.850000,63.962500
53.850000,62.787500
53.861418,62.730097
53.893934,62.681434
53.942597,62.648918
54.000000,62.637500
54.300000,62.637500
54.357403,62.648918
54.406066,62.681434
54.438582,62.730097
54.450000,62.787500
54.450000,63.962500
54.438582,64.019903
54.406066,64.068566
54.357403,64.101082
54.300000,64.112500
Z" /> 
<path style="fill:#000000; fill-opacity:1.000000; stroke:none;fill-rule:evenodd;"
d="M 52.100000,64.112500
52.042597,64.101082
51.993934,64.068566
51.961418,64.019903
51.950000,63.962500
51.950000,62.787500
51.961418,62.730097
51.993934,62.681434
52.042597,62.648918
52.100000,62.637500
52.400000,62.637500
52.457403,62.648918
52.506066,62.681434
52.538582,62.730097
52.550000,62.787500
52.550000,63.962500
52.538582,64.019903
52.506066,64.068566
52.457403,64.101082
52.400000,64.112500
Z" /> 
<path style="fill:#000000; fill-opacity:1.000000; stroke:none;fill-rule:evenodd;"
d="M 53.050000,62.237500
52.992597,62.226082
52.943934,62.193566
52.911418,62.144903
52.900000,62.087500
52.900000,60.912500
52.911418,60.855097
52.943934,60.806434
52.992597,60.773918
53.050000,60.762500
53.350000,60.762500
53.407403,60.773918
53.456066,60.806434
53.488582,60.855097
53.500000,60.912500
53.500000,62.087500
53.488582,62.144903
53.456066,62.193566
53.407403,62.226082
53.350000,62.237500
Z" /> 
<path style="fill:#000000; fill-opacity:1.000000; stroke:none;fill-rule:evenodd;"
d="M 15.652500,45.100000
15.663157,45.046424
15.693505,45.001005
15.738924,44.970657
15.792500,44.960000
16.072500,44.960000
16.126076,44.970657
16.171495,45.001005
16.201843,45.046424
16.212500,45.100000
16.212500,45.440000
16.201843,45.493576
16.171495,45.538995
16.126076,45.569343
16.072500,45.580000
15.792500,45.580000
15.738924,45.569343
15.693505,45.538995
15.663157,45.493576
15.652500,45.440000
Z" /> 
<path style="fill:#000000; fill-opacity:1.000000; stroke:none;fill-rule:evenodd;"
d="M 16.612500,45.100000
16.623157,45.046424
16.653505,45.001005
16.698924,44.970657
16.752500,44.960000
17.032500,44.960000
17.086076,44.970657
17.131495,45.001005
17.161843,45.046424
17.172500,45.100000
17.172500,45.440000
17.161843,45.493576
17.131495,45.538995
17.086076,45.569343
17.032500,45.580000
16.752500,45.580000
16.698924,45.569343
16.653505,45.538995
16.623157,45.493576
16.612500,45.440000
Z" /> 
</g> 
</svg>
