<?xml version="1.0" standalone="no"?>
 <!DOCTYPE svg PUBLIC "-//W3C//DTD SVG 1.1//EN" 
 "http://www.w3.org/Graphics/SVG/1.1/DTD/svg11.dtd"> 
<svg
  xmlns:svg="http://www.w3.org/2000/svg"
  xmlns="http://www.w3.org/2000/svg"
  xmlns:xlink="http://www.w3.org/1999/xlink"
  version="1.1"
  width="5.755cm" height="5.155cm" viewBox="11.475 21.975 57.55 51.55">
<title>SVG Image created as ECAD_main-B_SilkS.svg date 2025/10/27 20:20:28 </title>
  <desc>Image generated by PCBNEW </desc>
<g style="fill:#000000; fill-opacity:1.000000;stroke:#000000; stroke-opacity:1.000000;
stroke-linecap:round; stroke-linejoin:round;"
 transform="translate(0 0) scale(1 1)">
</g>
<g style="fill:none; 
stroke:#000000; stroke-width:0.150000; stroke-opacity:1; 
stroke-linecap:round; stroke-linejoin:round;">
<text x="44.250000" y="69.000000"
transform="scale(-1 1) translate(-88.500000 0)"
textLength="3.154762" font-size="1.333333" lengthAdjust="spacingAndGlyphs"
text-anchor="middle" opacity="0" stroke-opacity="0">C11</text>
<g class="stroked-text"><desc>C11</desc>
<path d="M44.892857 68.859580
L44.940476 68.907200
" />
<path d="M44.940476 68.907200
L45.083333 68.954819
" />
<path d="M45.083333 68.954819
L45.178571 68.954819
" />
<path d="M45.178571 68.954819
L45.321428 68.907200
" />
<path d="M45.321428 68.907200
L45.416666 68.811961
" />
<path d="M45.416666 68.811961
L45.464285 68.716723
" />
<path d="M45.464285 68.716723
L45.511904 68.526247
" />
<path d="M45.511904 68.526247
L45.511904 68.383390
" />
<path d="M45.511904 68.383390
L45.464285 68.192914
" />
<path d="M45.464285 68.192914
L45.416666 68.097676
" />
<path d="M45.416666 68.097676
L45.321428 68.002438
" />
<path d="M45.321428 68.002438
L45.178571 67.954819
" />
<path d="M45.178571 67.954819
L45.083333 67.954819
" />
<path d="M45.083333 67.954819
L44.940476 68.002438
" />
<path d="M44.940476 68.002438
L44.892857 68.050057
" />
<path d="M43.940476 68.954819
L44.511904 68.954819
" />
<path d="M44.226190 68.954819
L44.226190 67.954819
" />
<path d="M44.226190 67.954819
L44.321428 68.097676
" />
<path d="M44.321428 68.097676
L44.416666 68.192914
" />
<path d="M44.416666 68.192914
L44.511904 68.240533
" />
<path d="M42.988095 68.954819
L43.559523 68.954819
" />
<path d="M43.273809 68.954819
L43.273809 67.954819
" />
<path d="M43.273809 67.954819
L43.369047 68.097676
" />
<path d="M43.369047 68.097676
L43.464285 68.192914
" />
<path d="M43.464285 68.192914
L43.559523 68.240533
" />
</g><text x="24.000000" y="33.750000"
transform="scale(-1 1) translate(-48.000000 0)"
textLength="2.202381" font-size="1.333333" lengthAdjust="spacingAndGlyphs"
text-anchor="middle" opacity="0" stroke-opacity="0">C2</text>
<g class="stroked-text"><desc>C2</desc>
<path d="M24.166666 33.609580
L24.214285 33.657200
" />
<path d="M24.214285 33.657200
L24.357142 33.704819
" />
<path d="M24.357142 33.704819
L24.452380 33.704819
" />
<path d="M24.452380 33.704819
L24.595237 33.657200
" />
<path d="M24.595237 33.657200
L24.690475 33.561961
" />
<path d="M24.690475 33.561961
L24.738094 33.466723
" />
<path d="M24.738094 33.466723
L24.785713 33.276247
" />
<path d="M24.785713 33.276247
L24.785713 33.133390
" />
<path d="M24.785713 33.133390
L24.738094 32.942914
" />
<path d="M24.738094 32.942914
L24.690475 32.847676
" />
<path d="M24.690475 32.847676
L24.595237 32.752438
" />
<path d="M24.595237 32.752438
L24.452380 32.704819
" />
<path d="M24.452380 32.704819
L24.357142 32.704819
" />
<path d="M24.357142 32.704819
L24.214285 32.752438
" />
<path d="M24.214285 32.752438
L24.166666 32.800057
" />
<path d="M23.785713 32.800057
L23.738094 32.752438
" />
<path d="M23.738094 32.752438
L23.642856 32.704819
" />
<path d="M23.642856 32.704819
L23.404761 32.704819
" />
<path d="M23.404761 32.704819
L23.309523 32.752438
" />
<path d="M23.309523 32.752438
L23.261904 32.800057
" />
<path d="M23.261904 32.800057
L23.214285 32.895295
" />
<path d="M23.214285 32.895295
L23.214285 32.990533
" />
<path d="M23.214285 32.990533
L23.261904 33.133390
" />
<path d="M23.261904 33.133390
L23.833332 33.704819
" />
<path d="M23.833332 33.704819
L23.214285 33.704819
" />
</g><text x="60.250000" y="70.750000"
transform="scale(-1 1) translate(-120.500000 0)"
textLength="2.250000" font-size="1.333333" lengthAdjust="spacingAndGlyphs"
text-anchor="middle" opacity="0" stroke-opacity="0">Q1</text>
<g class="stroked-text"><desc>Q1</desc>
<path d="M60.345238 70.800057
L60.440476 70.752438
" />
<path d="M60.440476 70.752438
L60.535714 70.657200
" />
<path d="M60.535714 70.657200
L60.678571 70.514342
" />
<path d="M60.678571 70.514342
L60.773809 70.466723
" />
<path d="M60.773809 70.466723
L60.869047 70.466723
" />
<path d="M60.821428 70.704819
L60.916666 70.657200
" />
<path d="M60.916666 70.657200
L61.011904 70.561961
" />
<path d="M61.011904 70.561961
L61.059523 70.371485
" />
<path d="M61.059523 70.371485
L61.059523 70.038152
" />
<path d="M61.059523 70.038152
L61.011904 69.847676
" />
<path d="M61.011904 69.847676
L60.916666 69.752438
" />
<path d="M60.916666 69.752438
L60.821428 69.704819
" />
<path d="M60.821428 69.704819
L60.630952 69.704819
" />
<path d="M60.630952 69.704819
L60.535714 69.752438
" />
<path d="M60.535714 69.752438
L60.440476 69.847676
" />
<path d="M60.440476 69.847676
L60.392857 70.038152
" />
<path d="M60.392857 70.038152
L60.392857 70.371485
" />
<path d="M60.392857 70.371485
L60.440476 70.561961
" />
<path d="M60.440476 70.561961
L60.535714 70.657200
" />
<path d="M60.535714 70.657200
L60.630952 70.704819
" />
<path d="M60.630952 70.704819
L60.821428 70.704819
" />
<path d="M59.440476 70.704819
L60.011904 70.704819
" />
<path d="M59.726190 70.704819
L59.726190 69.704819
" />
<path d="M59.726190 69.704819
L59.821428 69.847676
" />
<path d="M59.821428 69.847676
L59.916666 69.942914
" />
<path d="M59.916666 69.942914
L60.011904 69.990533
" />
</g><text x="36.500000" y="62.500000"
transform="scale(-1 1) translate(-73.000000 0)"
textLength="3.011905" font-size="1.333333" lengthAdjust="spacingAndGlyphs"
text-anchor="middle" opacity="0" stroke-opacity="0">TH1</text>
<g class="stroked-text"><desc>TH1</desc>
<path d="M37.785713 61.454819
L37.214285 61.454819
" />
<path d="M37.499999 62.454819
L37.499999 61.454819
" />
<path d="M36.880951 62.454819
L36.880951 61.454819
" />
<path d="M36.880951 61.931009
L36.309523 61.931009
" />
<path d="M36.309523 62.454819
L36.309523 61.454819
" />
<path d="M35.309523 62.454819
L35.880951 62.454819
" />
<path d="M35.595237 62.454819
L35.595237 61.454819
" />
<path d="M35.595237 61.454819
L35.690475 61.597676
" />
<path d="M35.690475 61.597676
L35.785713 61.692914
" />
<path d="M35.785713 61.692914
L35.880951 61.740533
" />
</g><text x="57.500000" y="57.500000"
transform="scale(-1 1) translate(-115.000000 0)"
textLength="2.202381" font-size="1.333333" lengthAdjust="spacingAndGlyphs"
text-anchor="middle" opacity="0" stroke-opacity="0">D6</text>
<g class="stroked-text"><desc>D6</desc>
<path d="M58.238094 57.454819
L58.238094 56.454819
" />
<path d="M58.238094 56.454819
L57.999999 56.454819
" />
<path d="M57.999999 56.454819
L57.857142 56.502438
" />
<path d="M57.857142 56.502438
L57.761904 56.597676
" />
<path d="M57.761904 56.597676
L57.714285 56.692914
" />
<path d="M57.714285 56.692914
L57.666666 56.883390
" />
<path d="M57.666666 56.883390
L57.666666 57.026247
" />
<path d="M57.666666 57.026247
L57.714285 57.216723
" />
<path d="M57.714285 57.216723
L57.761904 57.311961
" />
<path d="M57.761904 57.311961
L57.857142 57.407200
" />
<path d="M57.857142 57.407200
L57.999999 57.454819
" />
<path d="M57.999999 57.454819
L58.238094 57.454819
" />
<path d="M56.809523 56.454819
L56.999999 56.454819
" />
<path d="M56.999999 56.454819
L57.095237 56.502438
" />
<path d="M57.095237 56.502438
L57.142856 56.550057
" />
<path d="M57.142856 56.550057
L57.238094 56.692914
" />
<path d="M57.238094 56.692914
L57.285713 56.883390
" />
<path d="M57.285713 56.883390
L57.285713 57.264342
" />
<path d="M57.285713 57.264342
L57.238094 57.359580
" />
<path d="M57.238094 57.359580
L57.190475 57.407200
" />
<path d="M57.190475 57.407200
L57.095237 57.454819
" />
<path d="M57.095237 57.454819
L56.904761 57.454819
" />
<path d="M56.904761 57.454819
L56.809523 57.407200
" />
<path d="M56.809523 57.407200
L56.761904 57.359580
" />
<path d="M56.761904 57.359580
L56.714285 57.264342
" />
<path d="M56.714285 57.264342
L56.714285 57.026247
" />
<path d="M56.714285 57.026247
L56.761904 56.931009
" />
<path d="M56.761904 56.931009
L56.809523 56.883390
" />
<path d="M56.809523 56.883390
L56.904761 56.835771
" />
<path d="M56.904761 56.835771
L57.095237 56.835771
" />
<path d="M57.095237 56.835771
L57.190475 56.883390
" />
<path d="M57.190475 56.883390
L57.238094 56.931009
" />
<path d="M57.238094 56.931009
L57.285713 57.026247
" />
</g><text x="60.250000" y="63.500000"
transform="scale(-1 1) translate(-120.500000 0)"
textLength="2.202381" font-size="1.333333" lengthAdjust="spacingAndGlyphs"
text-anchor="middle" opacity="0" stroke-opacity="0">D5</text>
<g class="stroked-text"><desc>D5</desc>
<path d="M60.988094 63.454819
L60.988094 62.454819
" />
<path d="M60.988094 62.454819
L60.749999 62.454819
" />
<path d="M60.749999 62.454819
L60.607142 62.502438
" />
<path d="M60.607142 62.502438
L60.511904 62.597676
" />
<path d="M60.511904 62.597676
L60.464285 62.692914
" />
<path d="M60.464285 62.692914
L60.416666 62.883390
" />
<path d="M60.416666 62.883390
L60.416666 63.026247
" />
<path d="M60.416666 63.026247
L60.464285 63.216723
" />
<path d="M60.464285 63.216723
L60.511904 63.311961
" />
<path d="M60.511904 63.311961
L60.607142 63.407200
" />
<path d="M60.607142 63.407200
L60.749999 63.454819
" />
<path d="M60.749999 63.454819
L60.988094 63.454819
" />
<path d="M59.511904 62.454819
L59.988094 62.454819
" />
<path d="M59.988094 62.454819
L60.035713 62.931009
" />
<path d="M60.035713 62.931009
L59.988094 62.883390
" />
<path d="M59.988094 62.883390
L59.892856 62.835771
" />
<path d="M59.892856 62.835771
L59.654761 62.835771
" />
<path d="M59.654761 62.835771
L59.559523 62.883390
" />
<path d="M59.559523 62.883390
L59.511904 62.931009
" />
<path d="M59.511904 62.931009
L59.464285 63.026247
" />
<path d="M59.464285 63.026247
L59.464285 63.264342
" />
<path d="M59.464285 63.264342
L59.511904 63.359580
" />
<path d="M59.511904 63.359580
L59.559523 63.407200
" />
<path d="M59.559523 63.407200
L59.654761 63.454819
" />
<path d="M59.654761 63.454819
L59.892856 63.454819
" />
<path d="M59.892856 63.454819
L59.988094 63.407200
" />
<path d="M59.988094 63.407200
L60.035713 63.359580
" />
</g><text x="50.250000" y="62.937500"
transform="scale(-1 1) translate(-100.500000 0)"
textLength="2.202381" font-size="1.333333" lengthAdjust="spacingAndGlyphs"
text-anchor="middle" opacity="0" stroke-opacity="0">D7</text>
<g class="stroked-text"><desc>D7</desc>
<path d="M50.988094 62.892319
L50.988094 61.892319
" />
<path d="M50.988094 61.892319
L50.749999 61.892319
" />
<path d="M50.749999 61.892319
L50.607142 61.939938
" />
<path d="M50.607142 61.939938
L50.511904 62.035176
" />
<path d="M50.511904 62.035176
L50.464285 62.130414
" />
<path d="M50.464285 62.130414
L50.416666 62.320890
" />
<path d="M50.416666 62.320890
L50.416666 62.463747
" />
<path d="M50.416666 62.463747
L50.464285 62.654223
" />
<path d="M50.464285 62.654223
L50.511904 62.749461
" />
<path d="M50.511904 62.749461
L50.607142 62.844700
" />
<path d="M50.607142 62.844700
L50.749999 62.892319
" />
<path d="M50.749999 62.892319
L50.988094 62.892319
" />
<path d="M50.083332 61.892319
L49.416666 61.892319
" />
<path d="M49.416666 61.892319
L49.845237 62.892319
" />
</g><text x="16.520336" y="44.250000"
transform="scale(-1 1) translate(-33.040672 0)"
textLength="2.202381" font-size="1.333333" lengthAdjust="spacingAndGlyphs"
text-anchor="middle" opacity="0" stroke-opacity="0">C7</text>
<g class="stroked-text"><desc>C7</desc>
<path d="M16.687002 44.109580
L16.734621 44.157200
" />
<path d="M16.734621 44.157200
L16.877478 44.204819
" />
<path d="M16.877478 44.204819
L16.972716 44.204819
" />
<path d="M16.972716 44.204819
L17.115573 44.157200
" />
<path d="M17.115573 44.157200
L17.210811 44.061961
" />
<path d="M17.210811 44.061961
L17.258430 43.966723
" />
<path d="M17.258430 43.966723
L17.306049 43.776247
" />
<path d="M17.306049 43.776247
L17.306049 43.633390
" />
<path d="M17.306049 43.633390
L17.258430 43.442914
" />
<path d="M17.258430 43.442914
L17.210811 43.347676
" />
<path d="M17.210811 43.347676
L17.115573 43.252438
" />
<path d="M17.115573 43.252438
L16.972716 43.204819
" />
<path d="M16.972716 43.204819
L16.877478 43.204819
" />
<path d="M16.877478 43.204819
L16.734621 43.252438
" />
<path d="M16.734621 43.252438
L16.687002 43.300057
" />
<path d="M16.353668 43.204819
L15.687002 43.204819
" />
<path d="M15.687002 43.204819
L16.115573 44.204819
" />
</g></g>
<g style="fill:none; 
stroke:#000000; stroke-width:0.120000; stroke-opacity:1; 
stroke-linecap:round; stroke-linejoin:round;">
<path d="M46.240000 68.353733
L46.240000 68.646267
" />
<path d="M47.260000 68.353733
L47.260000 68.646267
" />
<path d="M22.857836 34.390000
L22.642164 34.390000
" />
<path d="M22.857836 35.110000
L22.642164 35.110000
" />
<path d="M50.730000 65.020000
L50.730000 65.290000
" />
<path d="M50.730000 71.920000
L50.730000 71.650000
" />
<path d="M57.150000 65.020000
L50.730000 65.020000
" />
<path d="M57.150000 71.920000
L50.730000 71.920000
" />
<path style="fill:#000000; fill-opacity:1.000000; 
stroke:#000000; stroke-width:0.120000; stroke-opacity:1; 
stroke-linecap:round; stroke-linejoin:round;fill-rule:evenodd;"
d="M 49.340000,72.080000
48.660000,72.080000
49.000000,71.610000
Z" /> 
</g>
<g style="fill:none; 
stroke:#000000; stroke-width:0.120000; stroke-opacity:1; 
stroke-linecap:round; stroke-linejoin:round;">
<path d="M34.390000 63.340000
L36.610000 63.340000
" />
<path d="M34.390000 67.750000
L34.390000 63.340000
" />
<path d="M36.610000 63.340000
L36.610000 67.750000
" />
<path d="M58.850000 60.760000
L58.850000 55.250000
" />
<path d="M62.150000 60.760000
L58.850000 60.760000
" />
<path d="M62.150000 60.760000
L62.150000 55.250000
" />
<path d="M55.190000 62.500000
L55.190000 61.850000
" />
<path d="M55.190000 62.500000
L55.190000 63.150000
" />
<path d="M58.310000 62.500000
L58.310000 61.850000
" />
<path d="M58.310000 62.500000
L58.310000 63.150000
" />
<path style="fill:#000000; fill-opacity:1.000000; 
stroke:#000000; stroke-width:0.120000; stroke-opacity:1; 
stroke-linecap:round; stroke-linejoin:round;fill-rule:evenodd;"
d="M 58.590000,63.902500
58.260000,63.662500
58.590000,63.422500
Z" /> 
</g>
<g style="fill:none; 
stroke:#000000; stroke-width:0.120000; stroke-opacity:1; 
stroke-linecap:round; stroke-linejoin:round;">
<path d="M51.640000 62.437500
L51.640000 61.787500
" />
<path d="M51.640000 62.437500
L51.640000 63.087500
" />
<path d="M54.760000 62.437500
L54.760000 61.787500
" />
<path d="M54.760000 62.437500
L54.760000 63.087500
" />
<path style="fill:#000000; fill-opacity:1.000000; 
stroke:#000000; stroke-width:0.120000; stroke-opacity:1; 
stroke-linecap:round; stroke-linejoin:round;fill-rule:evenodd;"
d="M 55.040000,63.840000
54.710000,63.600000
55.040000,63.360000
Z" /> 
</g>
<g style="fill:none; 
stroke:#000000; stroke-width:0.120000; stroke-opacity:1; 
stroke-linecap:round; stroke-linejoin:round;">
<path d="M16.304664 44.910000
L16.520336 44.910000
" />
<path d="M16.304664 45.630000
L16.520336 45.630000
" />
</g> 
</svg>
