<?xml version="1.0" standalone="no"?>
 <!DOCTYPE svg PUBLIC "-//W3C//DTD SVG 1.1//EN" 
 "http://www.w3.org/Graphics/SVG/1.1/DTD/svg11.dtd"> 
<svg
  xmlns:svg="http://www.w3.org/2000/svg"
  xmlns="http://www.w3.org/2000/svg"
  xmlns:xlink="http://www.w3.org/1999/xlink"
  version="1.1"
  width="5.755cm" height="5.155cm" viewBox="11.475 21.975 57.55 51.55">
<title>SVG Image created as ECAD_main-F_Mask.svg date 2025/10/27 20:20:28 </title>
  <desc>Image generated by PCBNEW </desc>
<g style="fill:#000000; fill-opacity:1.000000;stroke:#000000; stroke-opacity:1.000000;
stroke-linecap:round; stroke-linejoin:round;"
 transform="translate(0 0) scale(1 1)">
</g>
<g style="fill:#000000; fill-opacity:1.000000; stroke:none;">
<circle cx="40.000000" cy="31.700000" r="0.500000" /> 
</g>
<g style="fill:#000000; fill-opacity:1.000000; stroke:none;">
<circle cx="14.162500" cy="45.250000" r="1.000000" /> 
</g>
<g style="fill:#000000; fill-opacity:1.000000; stroke:none;">
<circle cx="14.162500" cy="38.750000" r="1.000000" /> 
</g>
<g style="fill:#000000; fill-opacity:1.000000; stroke:none;">
<circle cx="18.662500" cy="45.250000" r="1.000000" /> 
</g>
<g style="fill:#000000; fill-opacity:1.000000; stroke:none;">
<circle cx="18.662500" cy="38.750000" r="1.000000" /> 
<path style="fill:#000000; fill-opacity:1.000000; stroke:none;fill-rule:evenodd;"
d="M 62.700000,59.800000
62.604329,59.780970
62.523223,59.726777
62.469030,59.645671
62.450000,59.550000
62.450000,58.450000
62.469030,58.354329
62.523223,58.273223
62.604329,58.219030
62.700000,58.200000
63.800000,58.200000
63.895671,58.219030
63.976777,58.273223
64.030970,58.354329
64.050000,58.450000
64.050000,59.550000
64.030970,59.645671
63.976777,59.726777
63.895671,59.780970
63.800000,59.800000
Z" /> 
</g>
<g style="fill:#000000; fill-opacity:1.000000; stroke:none;">
<circle cx="63.250000" cy="55.500000" r="0.800000" /> 
<path style="fill:#000000; fill-opacity:1.000000; stroke:none;fill-rule:evenodd;"
d="M 13.262500,47.350000
13.280579,47.259113
13.332062,47.182062
13.409113,47.130579
13.500000,47.112500
14.075000,47.112500
14.165887,47.130579
14.242938,47.182062
14.294421,47.259113
14.312500,47.350000
14.312500,47.825000
14.294421,47.915887
14.242938,47.992938
14.165887,48.044421
14.075000,48.062500
13.500000,48.062500
13.409113,48.044421
13.332062,47.992938
13.280579,47.915887
13.262500,47.825000
Z" /> 
<path style="fill:#000000; fill-opacity:1.000000; stroke:none;fill-rule:evenodd;"
d="M 15.012500,47.350000
15.030579,47.259113
15.082062,47.182062
15.159113,47.130579
15.250000,47.112500
15.825000,47.112500
15.915887,47.130579
15.992938,47.182062
16.044421,47.259113
16.062500,47.350000
16.062500,47.825000
16.044421,47.915887
15.992938,47.992938
15.915887,48.044421
15.825000,48.062500
15.250000,48.062500
15.159113,48.044421
15.082062,47.992938
15.030579,47.915887
15.012500,47.825000
Z" /> 
<path style="fill:#000000; fill-opacity:1.000000; stroke:none;fill-rule:evenodd;"
d="M 29.187500,43.350000
29.205579,43.259113
29.257062,43.182062
29.334113,43.130579
29.425000,43.112500
30.000000,43.112500
30.090887,43.130579
30.167938,43.182062
30.219421,43.259113
30.237500,43.350000
30.237500,43.825000
30.219421,43.915887
30.167938,43.992938
30.090887,44.044421
30.000000,44.062500
29.425000,44.062500
29.334113,44.044421
29.257062,43.992938
29.205579,43.915887
29.187500,43.825000
Z" /> 
<path style="fill:#000000; fill-opacity:1.000000; stroke:none;fill-rule:evenodd;"
d="M 30.937500,43.350000
30.955579,43.259113
31.007062,43.182062
31.084113,43.130579
31.175000,43.112500
31.750000,43.112500
31.840887,43.130579
31.917938,43.182062
31.969421,43.259113
31.987500,43.350000
31.987500,43.825000
31.969421,43.915887
31.917938,43.992938
31.840887,44.044421
31.750000,44.062500
31.175000,44.062500
31.084113,44.044421
31.007062,43.992938
30.955579,43.915887
30.937500,43.825000
Z" /> 
<path style="fill:#000000; fill-opacity:1.000000; stroke:none;fill-rule:evenodd;"
d="M 35.987500,28.712500
36.004627,28.626396
36.053401,28.553401
36.126396,28.504627
36.212500,28.487500
36.662500,28.487500
36.748604,28.504627
36.821599,28.553401
36.870373,28.626396
36.887500,28.712500
36.887500,29.462500
36.870373,29.548604
36.821599,29.621599
36.748604,29.670373
36.662500,29.687500
36.212500,29.687500
36.126396,29.670373
36.053401,29.621599
36.004627,29.548604
35.987500,29.462500
Z" /> 
<path style="fill:#000000; fill-opacity:1.000000; stroke:none;fill-rule:evenodd;"
d="M 39.287500,28.712500
39.304627,28.626396
39.353401,28.553401
39.426396,28.504627
39.512500,28.487500
39.962500,28.487500
40.048604,28.504627
40.121599,28.553401
40.170373,28.626396
40.187500,28.712500
40.187500,29.462500
40.170373,29.548604
40.121599,29.621599
40.048604,29.670373
39.962500,29.687500
39.512500,29.687500
39.426396,29.670373
39.353401,29.621599
39.304627,29.548604
39.287500,29.462500
Z" /> 
<path style="fill:#000000; fill-opacity:1.000000; stroke:none;fill-rule:evenodd;"
d="M 22.420000,29.577500
22.473576,29.588157
22.518995,29.618505
22.549343,29.663924
22.560000,29.717500
22.560000,29.997500
22.549343,30.051076
22.518995,30.096495
22.473576,30.126843
22.420000,30.137500
22.080000,30.137500
22.026424,30.126843
21.981005,30.096495
21.950657,30.051076
21.940000,29.997500
21.940000,29.717500
21.950657,29.663924
21.981005,29.618505
22.026424,29.588157
22.080000,29.577500
Z" /> 
<path style="fill:#000000; fill-opacity:1.000000; stroke:none;fill-rule:evenodd;"
d="M 22.420000,30.537500
22.473576,30.548157
22.518995,30.578505
22.549343,30.623924
22.560000,30.677500
22.560000,30.957500
22.549343,31.011076
22.518995,31.056495
22.473576,31.086843
22.420000,31.097500
22.080000,31.097500
22.026424,31.086843
21.981005,31.056495
21.950657,31.011076
21.940000,30.957500
21.940000,30.677500
21.950657,30.623924
21.981005,30.578505
22.026424,30.548157
22.080000,30.537500
Z" /> 
</g>
<g style="fill:#000000; fill-opacity:1.000000; stroke:none;">
<circle cx="38.700000" cy="66.500000" r="1.500000" /> 
</g>
<g style="fill:#000000; fill-opacity:1.000000; stroke:none;">
<circle cx="61.300000" cy="66.500000" r="1.500000" /> 
<path style="fill:#000000; fill-opacity:1.000000; stroke:none;fill-rule:evenodd;"
d="M 17.850000,36.100000
17.868079,36.009113
17.919562,35.932062
17.996613,35.880579
18.087500,35.862500
18.687500,35.862500
18.778387,35.880579
18.855438,35.932062
18.906921,36.009113
18.925000,36.100000
18.925000,36.575000
18.906921,36.665887
18.855438,36.742938
18.778387,36.794421
18.687500,36.812500
18.087500,36.812500
17.996613,36.794421
17.919562,36.742938
17.868079,36.665887
17.850000,36.575000
Z" /> 
<path style="fill:#000000; fill-opacity:1.000000; stroke:none;fill-rule:evenodd;"
d="M 19.575000,36.100000
19.593079,36.009113
19.644562,35.932062
19.721613,35.880579
19.812500,35.862500
20.412500,35.862500
20.503387,35.880579
20.580438,35.932062
20.631921,36.009113
20.650000,36.100000
20.650000,36.575000
20.631921,36.665887
20.580438,36.742938
20.503387,36.794421
20.412500,36.812500
19.812500,36.812500
19.721613,36.794421
19.644562,36.742938
19.593079,36.665887
19.575000,36.575000
Z" /> 
<path style="fill:#000000; fill-opacity:1.000000; stroke:none;fill-rule:evenodd;"
d="M 47.650000,56.275000
47.669593,56.126179
47.727035,55.987500
47.818414,55.868414
47.937500,55.777035
48.076179,55.719593
48.225000,55.700000
49.375000,55.700000
49.523821,55.719593
49.662500,55.777035
49.781586,55.868414
49.872965,55.987500
49.930407,56.126179
49.950000,56.275000
49.950000,57.425000
49.930407,57.573821
49.872965,57.712500
49.781586,57.831586
49.662500,57.922965
49.523821,57.980407
49.375000,58.000000
48.225000,58.000000
48.076179,57.980407
47.937500,57.922965
47.818414,57.831586
47.727035,57.712500
47.669593,57.573821
47.650000,57.425000
Z" /> 
<path style="fill:#000000; fill-opacity:1.000000; stroke:none;fill-rule:evenodd;"
d="M 41.450000,56.275000
41.469593,56.126179
41.527035,55.987500
41.618414,55.868414
41.737500,55.777035
41.876179,55.719593
42.025000,55.700000
43.175000,55.700000
43.323821,55.719593
43.462500,55.777035
43.581586,55.868414
43.672965,55.987500
43.730407,56.126179
43.750000,56.275000
43.750000,57.425000
43.730407,57.573821
43.672965,57.712500
43.581586,57.831586
43.462500,57.922965
43.323821,57.980407
43.175000,58.000000
42.025000,58.000000
41.876179,57.980407
41.737500,57.922965
41.618414,57.831586
41.527035,57.712500
41.469593,57.573821
41.450000,57.425000
Z" /> 
<path style="fill:#000000; fill-opacity:1.000000; stroke:none;fill-rule:evenodd;"
d="M 47.650000,52.775000
47.669593,52.626179
47.727035,52.487500
47.818414,52.368414
47.937500,52.277035
48.076179,52.219593
48.225000,52.200000
49.375000,52.200000
49.523821,52.219593
49.662500,52.277035
49.781586,52.368414
49.872965,52.487500
49.930407,52.626179
49.950000,52.775000
49.950000,53.925000
49.930407,54.073821
49.872965,54.212500
49.781586,54.331586
49.662500,54.422965
49.523821,54.480407
49.375000,54.500000
48.225000,54.500000
48.076179,54.480407
47.937500,54.422965
47.818414,54.331586
47.727035,54.212500
47.669593,54.073821
47.650000,53.925000
Z" /> 
<path style="fill:#000000; fill-opacity:1.000000; stroke:none;fill-rule:evenodd;"
d="M 41.450000,52.775000
41.469593,52.626179
41.527035,52.487500
41.618414,52.368414
41.737500,52.277035
41.876179,52.219593
42.025000,52.200000
43.175000,52.200000
43.323821,52.219593
43.462500,52.277035
43.581586,52.368414
43.672965,52.487500
43.730407,52.626179
43.750000,52.775000
43.750000,53.925000
43.730407,54.073821
43.672965,54.212500
43.581586,54.331586
43.462500,54.422965
43.323821,54.480407
43.175000,54.500000
42.025000,54.500000
41.876179,54.480407
41.737500,54.422965
41.618414,54.331586
41.527035,54.212500
41.469593,54.073821
41.450000,53.925000
Z" /> 
<path style="fill:#000000; fill-opacity:1.000000; stroke:none;fill-rule:evenodd;"
d="M 34.080000,32.097500
34.026424,32.086843
33.981005,32.056495
33.950657,32.011076
33.940000,31.957500
33.940000,31.677500
33.950657,31.623924
33.981005,31.578505
34.026424,31.548157
34.080000,31.537500
34.420000,31.537500
34.473576,31.548157
34.518995,31.578505
34.549343,31.623924
34.560000,31.677500
34.560000,31.957500
34.549343,32.011076
34.518995,32.056495
34.473576,32.086843
34.420000,32.097500
Z" /> 
<path style="fill:#000000; fill-opacity:1.000000; stroke:none;fill-rule:evenodd;"
d="M 34.080000,31.137500
34.026424,31.126843
33.981005,31.096495
33.950657,31.051076
33.940000,30.997500
33.940000,30.717500
33.950657,30.663924
33.981005,30.618505
34.026424,30.588157
34.080000,30.577500
34.420000,30.577500
34.473576,30.588157
34.518995,30.618505
34.549343,30.663924
34.560000,30.717500
34.560000,30.997500
34.549343,31.051076
34.518995,31.096495
34.473576,31.126843
34.420000,31.137500
Z" /> 
<path style="fill:#000000; fill-opacity:1.000000; stroke:none;fill-rule:evenodd;"
d="M 16.762500,47.350000
16.780579,47.259113
16.832062,47.182062
16.909113,47.130579
17.000000,47.112500
17.500000,47.112500
17.590887,47.130579
17.667938,47.182062
17.719421,47.259113
17.737500,47.350000
17.737500,47.825000
17.719421,47.915887
17.667938,47.992938
17.590887,48.044421
17.500000,48.062500
17.000000,48.062500
16.909113,48.044421
16.832062,47.992938
16.780579,47.915887
16.762500,47.825000
Z" /> 
<path style="fill:#000000; fill-opacity:1.000000; stroke:none;fill-rule:evenodd;"
d="M 18.587500,47.350000
18.605579,47.259113
18.657062,47.182062
18.734113,47.130579
18.825000,47.112500
19.325000,47.112500
19.415887,47.130579
19.492938,47.182062
19.544421,47.259113
19.562500,47.350000
19.562500,47.825000
19.544421,47.915887
19.492938,47.992938
19.415887,48.044421
19.325000,48.062500
18.825000,48.062500
18.734113,48.044421
18.657062,47.992938
18.605579,47.915887
18.587500,47.825000
Z" /> 
<path style="fill:#000000; fill-opacity:1.000000; stroke:none;fill-rule:evenodd;"
d="M 24.225000,49.087500
24.320671,49.106530
24.401777,49.160723
24.455970,49.241829
24.475000,49.337500
24.475000,50.012500
24.455970,50.108171
24.401777,50.189277
24.320671,50.243470
24.225000,50.262500
23.275000,50.262500
23.179329,50.243470
23.098223,50.189277
23.044030,50.108171
23.025000,50.012500
23.025000,49.337500
23.044030,49.241829
23.098223,49.160723
23.179329,49.106530
23.275000,49.087500
Z" /> 
<path style="fill:#000000; fill-opacity:1.000000; stroke:none;fill-rule:evenodd;"
d="M 24.225000,51.162500
24.320671,51.181530
24.401777,51.235723
24.455970,51.316829
24.475000,51.412500
24.475000,52.087500
24.455970,52.183171
24.401777,52.264277
24.320671,52.318470
24.225000,52.337500
23.275000,52.337500
23.179329,52.318470
23.098223,52.264277
23.044030,52.183171
23.025000,52.087500
23.025000,51.412500
23.044030,51.316829
23.098223,51.235723
23.179329,51.181530
23.275000,51.162500
Z" /> 
<path style="fill:#000000; fill-opacity:1.000000; stroke:none;fill-rule:evenodd;"
d="M 13.137500,49.350000
13.155579,49.259113
13.207062,49.182062
13.284113,49.130579
13.375000,49.112500
13.950000,49.112500
14.040887,49.130579
14.117938,49.182062
14.169421,49.259113
14.187500,49.350000
14.187500,49.825000
14.169421,49.915887
14.117938,49.992938
14.040887,50.044421
13.950000,50.062500
13.375000,50.062500
13.284113,50.044421
13.207062,49.992938
13.155579,49.915887
13.137500,49.825000
Z" /> 
<path style="fill:#000000; fill-opacity:1.000000; stroke:none;fill-rule:evenodd;"
d="M 14.887500,49.350000
14.905579,49.259113
14.957062,49.182062
15.034113,49.130579
15.125000,49.112500
15.700000,49.112500
15.790887,49.130579
15.867938,49.182062
15.919421,49.259113
15.937500,49.350000
15.937500,49.825000
15.919421,49.915887
15.867938,49.992938
15.790887,50.044421
15.700000,50.062500
15.125000,50.062500
15.034113,50.044421
14.957062,49.992938
14.905579,49.915887
14.887500,49.825000
Z" /> 
<path style="fill:#000000; fill-opacity:1.000000; stroke:none;fill-rule:evenodd;"
d="M 26.510000,28.007500
26.499343,28.061076
26.468995,28.106495
26.423576,28.136843
26.370000,28.147500
26.090000,28.147500
26.036424,28.136843
25.991005,28.106495
25.960657,28.061076
25.950000,28.007500
25.950000,27.667500
25.960657,27.613924
25.991005,27.568505
26.036424,27.538157
26.090000,27.527500
26.370000,27.527500
26.423576,27.538157
26.468995,27.568505
26.499343,27.613924
26.510000,27.667500
Z" /> 
<path style="fill:#000000; fill-opacity:1.000000; stroke:none;fill-rule:evenodd;"
d="M 25.550000,28.007500
25.539343,28.061076
25.508995,28.106495
25.463576,28.136843
25.410000,28.147500
25.130000,28.147500
25.076424,28.136843
25.031005,28.106495
25.000657,28.061076
24.990000,28.007500
24.990000,27.667500
25.000657,27.613924
25.031005,27.568505
25.076424,27.538157
25.130000,27.527500
25.410000,27.527500
25.463576,27.538157
25.508995,27.568505
25.539343,27.613924
25.550000,27.667500
Z" /> 
<path style="fill:#000000; fill-opacity:1.000000; stroke:none;fill-rule:evenodd;"
d="M 30.490000,39.667500
30.500657,39.613924
30.531005,39.568505
30.576424,39.538157
30.630000,39.527500
30.910000,39.527500
30.963576,39.538157
31.008995,39.568505
31.039343,39.613924
31.050000,39.667500
31.050000,40.007500
31.039343,40.061076
31.008995,40.106495
30.963576,40.136843
30.910000,40.147500
30.630000,40.147500
30.576424,40.136843
30.531005,40.106495
30.500657,40.061076
30.490000,40.007500
Z" /> 
<path style="fill:#000000; fill-opacity:1.000000; stroke:none;fill-rule:evenodd;"
d="M 31.450000,39.667500
31.460657,39.613924
31.491005,39.568505
31.536424,39.538157
31.590000,39.527500
31.870000,39.527500
31.923576,39.538157
31.968995,39.568505
31.999343,39.613924
32.010000,39.667500
32.010000,40.007500
31.999343,40.061076
31.968995,40.106495
31.923576,40.136843
31.870000,40.147500
31.590000,40.147500
31.536424,40.136843
31.491005,40.106495
31.460657,40.061076
31.450000,40.007500
Z" /> 
</g>
<g style="fill:#000000; fill-opacity:1.000000; stroke:none;">
<circle cx="51.000000" cy="31.000000" r="1.500000" /> 
<path style="fill:#000000; fill-opacity:1.000000; stroke:none;fill-rule:evenodd;"
d="M 32.212500,42.062500
32.193470,42.158171
32.139277,42.239277
32.058171,42.293470
31.962500,42.312500
31.287500,42.312500
31.191829,42.293470
31.110723,42.239277
31.056530,42.158171
31.037500,42.062500
31.037500,41.112500
31.056530,41.016829
31.110723,40.935723
31.191829,40.881530
31.287500,40.862500
31.962500,40.862500
32.058171,40.881530
32.139277,40.935723
32.193470,41.016829
32.212500,41.112500
Z" /> 
<path style="fill:#000000; fill-opacity:1.000000; stroke:none;fill-rule:evenodd;"
d="M 30.137500,42.062500
30.118470,42.158171
30.064277,42.239277
29.983171,42.293470
29.887500,42.312500
29.212500,42.312500
29.116829,42.293470
29.035723,42.239277
28.981530,42.158171
28.962500,42.062500
28.962500,41.112500
28.981530,41.016829
29.035723,40.935723
29.116829,40.881530
29.212500,40.862500
29.887500,40.862500
29.983171,40.881530
30.064277,40.935723
30.118470,41.016829
30.137500,41.112500
Z" /> 
<path style="fill:#000000; fill-opacity:1.000000; stroke:none;fill-rule:evenodd;"
d="M 39.651600,53.358000
39.690021,53.365642
39.722594,53.387406
39.744358,53.419979
39.752000,53.458400
39.752000,54.581600
39.744358,54.620021
39.722594,54.652594
39.690021,54.674358
39.651600,54.682000
38.848400,54.682000
38.809979,54.674358
38.777406,54.652594
38.755642,54.620021
38.748000,54.581600
38.748000,53.458400
38.755642,53.419979
38.777406,53.387406
38.809979,53.365642
38.848400,53.358000
Z" /> 
<path style="fill:#000000; fill-opacity:1.000000; stroke:none;fill-rule:evenodd;"
d="M 39.651600,56.818000
39.690021,56.825642
39.722594,56.847406
39.744358,56.879979
39.752000,56.918400
39.752000,58.041600
39.744358,58.080021
39.722594,58.112594
39.690021,58.134358
39.651600,58.142000
38.848400,58.142000
38.809979,58.134358
38.777406,58.112594
38.755642,58.080021
38.748000,58.041600
38.748000,56.918400
38.755642,56.879979
38.777406,56.847406
38.809979,56.825642
38.848400,56.818000
Z" /> 
<path style="fill:#000000; fill-opacity:1.000000; stroke:none;fill-rule:evenodd;"
d="M 57.625000,58.450000
57.605970,58.545671
57.551777,58.626777
57.470671,58.680970
57.375000,58.700000
56.575000,58.700000
56.479329,58.680970
56.398223,58.626777
56.344030,58.545671
56.325000,58.450000
56.325000,55.550000
56.344030,55.454329
56.398223,55.373223
56.479329,55.319030
56.575000,55.300000
57.375000,55.300000
57.470671,55.319030
57.551777,55.373223
57.605970,55.454329
57.625000,55.550000
Z" /> 
<path style="fill:#000000; fill-opacity:1.000000; stroke:none;fill-rule:evenodd;"
d="M 53.175000,58.450000
53.155970,58.545671
53.101777,58.626777
53.020671,58.680970
52.925000,58.700000
52.125000,58.700000
52.029329,58.680970
51.948223,58.626777
51.894030,58.545671
51.875000,58.450000
51.875000,55.550000
51.894030,55.454329
51.948223,55.373223
52.029329,55.319030
52.125000,55.300000
52.925000,55.300000
53.020671,55.319030
53.101777,55.373223
53.155970,55.454329
53.175000,55.550000
Z" /> 
<path style="fill:#000000; fill-opacity:1.000000; stroke:none;fill-rule:evenodd;"
d="M 34.275000,47.625000
34.179329,47.605970
34.098223,47.551777
34.044030,47.470671
34.025000,47.375000
34.025000,46.700000
34.044030,46.604329
34.098223,46.523223
34.179329,46.469030
34.275000,46.450000
35.225000,46.450000
35.320671,46.469030
35.401777,46.523223
35.455970,46.604329
35.475000,46.700000
35.475000,47.375000
35.455970,47.470671
35.401777,47.551777
35.320671,47.605970
35.225000,47.625000
Z" /> 
<path style="fill:#000000; fill-opacity:1.000000; stroke:none;fill-rule:evenodd;"
d="M 34.275000,45.550000
34.179329,45.530970
34.098223,45.476777
34.044030,45.395671
34.025000,45.300000
34.025000,44.625000
34.044030,44.529329
34.098223,44.448223
34.179329,44.394030
34.275000,44.375000
35.225000,44.375000
35.320671,44.394030
35.401777,44.448223
35.455970,44.529329
35.475000,44.625000
35.475000,45.300000
35.455970,45.395671
35.401777,45.476777
35.320671,45.530970
35.225000,45.550000
Z" /> 
<path style="fill:#000000; fill-opacity:1.000000; stroke:none;fill-rule:evenodd;"
d="M 34.325000,43.540000
34.229329,43.520970
34.148223,43.466777
34.094030,43.385671
34.075000,43.290000
34.075000,42.615000
34.094030,42.519329
34.148223,42.438223
34.229329,42.384030
34.325000,42.365000
35.275000,42.365000
35.370671,42.384030
35.451777,42.438223
35.505970,42.519329
35.525000,42.615000
35.525000,43.290000
35.505970,43.385671
35.451777,43.466777
35.370671,43.520970
35.275000,43.540000
Z" /> 
<path style="fill:#000000; fill-opacity:1.000000; stroke:none;fill-rule:evenodd;"
d="M 34.325000,41.465000
34.229329,41.445970
34.148223,41.391777
34.094030,41.310671
34.075000,41.215000
34.075000,40.540000
34.094030,40.444329
34.148223,40.363223
34.229329,40.309030
34.325000,40.290000
35.275000,40.290000
35.370671,40.309030
35.451777,40.363223
35.505970,40.444329
35.525000,40.540000
35.525000,41.215000
35.505970,41.310671
35.451777,41.391777
35.370671,41.445970
35.275000,41.465000
Z" /> 
<path style="fill:#000000; fill-opacity:1.000000; stroke:none;fill-rule:evenodd;"
d="M 31.656330,51.249100
31.617449,51.241366
31.584488,51.219342
31.562464,51.186381
31.554730,51.147500
31.554730,48.277500
31.562464,48.238619
31.584488,48.205658
31.617449,48.183634
31.656330,48.175900
32.906330,48.175900
32.945211,48.183634
32.978172,48.205658
33.000196,48.238619
33.007930,48.277500
33.007930,51.147500
33.000196,51.186381
32.978172,51.219342
32.945211,51.241366
32.906330,51.249100
Z" /> 
<path style="fill:#000000; fill-opacity:1.000000; stroke:none;fill-rule:evenodd;"
d="M 29.116330,51.249100
29.077449,51.241366
29.044488,51.219342
29.022464,51.186381
29.014730,51.147500
29.014730,48.277500
29.022464,48.238619
29.044488,48.205658
29.077449,48.183634
29.116330,48.175900
30.366330,48.175900
30.405211,48.183634
30.438172,48.205658
30.460196,48.238619
30.467930,48.277500
30.467930,51.147500
30.460196,51.186381
30.438172,51.219342
30.405211,51.241366
30.366330,51.249100
Z" /> 
<path style="fill:#000000; fill-opacity:1.000000; stroke:none;fill-rule:evenodd;"
d="M 26.576330,51.249100
26.537449,51.241366
26.504488,51.219342
26.482464,51.186381
26.474730,51.147500
26.474730,48.277500
26.482464,48.238619
26.504488,48.205658
26.537449,48.183634
26.576330,48.175900
27.826330,48.175900
27.865211,48.183634
27.898172,48.205658
27.920196,48.238619
27.927930,48.277500
27.927930,51.147500
27.920196,51.186381
27.898172,51.219342
27.865211,51.241366
27.826330,51.249100
Z" /> 
<path style="fill:#000000; fill-opacity:1.000000; stroke:none;fill-rule:evenodd;"
d="M 27.726330,53.895900
27.765211,53.903634
27.798172,53.925658
27.820196,53.958619
27.827930,53.997500
27.827930,55.577500
27.820196,55.616381
27.798172,55.649342
27.765211,55.671366
27.726330,55.679100
26.676330,55.679100
26.637449,55.671366
26.604488,55.649342
26.582464,55.616381
26.574730,55.577500
26.574730,53.997500
26.582464,53.958619
26.604488,53.925658
26.637449,53.903634
26.676330,53.895900
Z" /> 
<path style="fill:#000000; fill-opacity:1.000000; stroke:none;fill-rule:evenodd;"
d="M 30.366330,52.605900
30.405211,52.613634
30.438172,52.635658
30.460196,52.668619
30.467930,52.707500
30.467930,55.577500
30.460196,55.616381
30.438172,55.649342
30.405211,55.671366
30.366330,55.679100
29.116330,55.679100
29.077449,55.671366
29.044488,55.649342
29.022464,55.616381
29.014730,55.577500
29.014730,52.707500
29.022464,52.668619
29.044488,52.635658
29.077449,52.613634
29.116330,52.605900
Z" /> 
<path style="fill:#000000; fill-opacity:1.000000; stroke:none;fill-rule:evenodd;"
d="M 32.806330,53.895900
32.845211,53.903634
32.878172,53.925658
32.900196,53.958619
32.907930,53.997500
32.907930,55.577500
32.900196,55.616381
32.878172,55.649342
32.845211,55.671366
32.806330,55.679100
31.756330,55.679100
31.717449,55.671366
31.684488,55.649342
31.662464,55.616381
31.654730,55.577500
31.654730,53.997500
31.662464,53.958619
31.684488,53.925658
31.717449,53.903634
31.756330,53.895900
Z" /> 
<path style="fill:#000000; fill-opacity:1.000000; stroke:none;fill-rule:evenodd;"
d="M 17.850000,30.100000
17.868079,30.009113
17.919562,29.932062
17.996613,29.880579
18.087500,29.862500
18.687500,29.862500
18.778387,29.880579
18.855438,29.932062
18.906921,30.009113
18.925000,30.100000
18.925000,30.575000
18.906921,30.665887
18.855438,30.742938
18.778387,30.794421
18.687500,30.812500
18.087500,30.812500
17.996613,30.794421
17.919562,30.742938
17.868079,30.665887
17.850000,30.575000
Z" /> 
<path style="fill:#000000; fill-opacity:1.000000; stroke:none;fill-rule:evenodd;"
d="M 19.575000,30.100000
19.593079,30.009113
19.644562,29.932062
19.721613,29.880579
19.812500,29.862500
20.412500,29.862500
20.503387,29.880579
20.580438,29.932062
20.631921,30.009113
20.650000,30.100000
20.650000,30.575000
20.631921,30.665887
20.580438,30.742938
20.503387,30.794421
20.412500,30.812500
19.812500,30.812500
19.721613,30.794421
19.644562,30.742938
19.593079,30.665887
19.575000,30.575000
Z" /> 
<path style="fill:#000000; fill-opacity:1.000000; stroke:none;fill-rule:evenodd;"
d="M 35.775000,55.625000
35.679329,55.605970
35.598223,55.551777
35.544030,55.470671
35.525000,55.375000
35.525000,54.700000
35.544030,54.604329
35.598223,54.523223
35.679329,54.469030
35.775000,54.450000
36.725000,54.450000
36.820671,54.469030
36.901777,54.523223
36.955970,54.604329
36.975000,54.700000
36.975000,55.375000
36.955970,55.470671
36.901777,55.551777
36.820671,55.605970
36.725000,55.625000
Z" /> 
<path style="fill:#000000; fill-opacity:1.000000; stroke:none;fill-rule:evenodd;"
d="M 35.775000,53.550000
35.679329,53.530970
35.598223,53.476777
35.544030,53.395671
35.525000,53.300000
35.525000,52.625000
35.544030,52.529329
35.598223,52.448223
35.679329,52.394030
35.775000,52.375000
36.725000,52.375000
36.820671,52.394030
36.901777,52.448223
36.955970,52.529329
36.975000,52.625000
36.975000,53.300000
36.955970,53.395671
36.901777,53.476777
36.820671,53.530970
36.725000,53.550000
Z" /> 
<path style="fill:#000000; fill-opacity:1.000000; stroke:none;fill-rule:evenodd;"
d="M 30.850000,64.855000
30.850000,62.055000
33.650000,62.055000
33.650000,64.855000
Z" /> 
</g>
<g style="fill:#000000; fill-opacity:1.000000; stroke:none;">
<circle cx="32.250000" cy="68.535000" r="1.400000" /> 
<path style="fill:#000000; fill-opacity:1.000000; stroke:none;fill-rule:evenodd;"
d="M 21.200000,33.450000
21.257403,33.461418
21.306066,33.493934
21.338582,33.542597
21.350000,33.600000
21.350000,34.800000
21.338582,34.857403
21.306066,34.906066
21.257403,34.938582
21.200000,34.950000
18.800000,34.950000
18.742597,34.938582
18.693934,34.906066
18.661418,34.857403
18.650000,34.800000
18.650000,33.600000
18.661418,33.542597
18.693934,33.493934
18.742597,33.461418
18.800000,33.450000
Z" /> 
<path style="fill:#000000; fill-opacity:1.000000; stroke:none;fill-rule:evenodd;"
d="M 21.200000,31.550000
21.257403,31.561418
21.306066,31.593934
21.338582,31.642597
21.350000,31.700000
21.350000,32.900000
21.338582,32.957403
21.306066,33.006066
21.257403,33.038582
21.200000,33.050000
18.800000,33.050000
18.742597,33.038582
18.693934,33.006066
18.661418,32.957403
18.650000,32.900000
18.650000,31.700000
18.661418,31.642597
18.693934,31.593934
18.742597,31.561418
18.800000,31.550000
Z" /> 
<path style="fill:#000000; fill-opacity:1.000000; stroke:none;fill-rule:evenodd;"
d="M 16.637500,49.350000
16.655579,49.259113
16.707062,49.182062
16.784113,49.130579
16.875000,49.112500
17.375000,49.112500
17.465887,49.130579
17.542938,49.182062
17.594421,49.259113
17.612500,49.350000
17.612500,49.825000
17.594421,49.915887
17.542938,49.992938
17.465887,50.044421
17.375000,50.062500
16.875000,50.062500
16.784113,50.044421
16.707062,49.992938
16.655579,49.915887
16.637500,49.825000
Z" /> 
<path style="fill:#000000; fill-opacity:1.000000; stroke:none;fill-rule:evenodd;"
d="M 18.462500,49.350000
18.480579,49.259113
18.532062,49.182062
18.609113,49.130579
18.700000,49.112500
19.200000,49.112500
19.290887,49.130579
19.367938,49.182062
19.419421,49.259113
19.437500,49.350000
19.437500,49.825000
19.419421,49.915887
19.367938,49.992938
19.290887,50.044421
19.200000,50.062500
18.700000,50.062500
18.609113,50.044421
18.532062,49.992938
18.480579,49.915887
18.462500,49.825000
Z" /> 
<path style="fill:#000000; fill-opacity:1.000000; stroke:none;fill-rule:evenodd;"
d="M 24.940000,66.510000
24.940000,60.490000
27.960000,60.490000
27.960000,66.510000
Z" /> 
</g>
<g style="fill:none; 
stroke:#000000; stroke-width:3.020000; stroke-opacity:1; 
stroke-linecap:round; stroke-linejoin:round;">
<path d="M20.250000 62.000000
L20.250000 65.000000
" />
</g>
<g style="fill:#000000; fill-opacity:1.000000; stroke:none;">
<circle cx="40.000000" cy="34.000000" r="0.500000" /> 
<path style="fill:#000000; fill-opacity:1.000000; stroke:none;fill-rule:evenodd;"
d="M 27.987500,24.850000
28.078387,24.868079
28.155438,24.919562
28.206921,24.996613
28.225000,25.087500
28.225000,25.587500
28.206921,25.678387
28.155438,25.755438
28.078387,25.806921
27.987500,25.825000
27.512500,25.825000
27.421613,25.806921
27.344562,25.755438
27.293079,25.678387
27.275000,25.587500
27.275000,25.087500
27.293079,24.996613
27.344562,24.919562
27.421613,24.868079
27.512500,24.850000
Z" /> 
<path style="fill:#000000; fill-opacity:1.000000; stroke:none;fill-rule:evenodd;"
d="M 27.987500,26.675000
28.078387,26.693079
28.155438,26.744562
28.206921,26.821613
28.225000,26.912500
28.225000,27.412500
28.206921,27.503387
28.155438,27.580438
28.078387,27.631921
27.987500,27.650000
27.512500,27.650000
27.421613,27.631921
27.344562,27.580438
27.293079,27.503387
27.275000,27.412500
27.275000,26.912500
27.293079,26.821613
27.344562,26.744562
27.421613,26.693079
27.512500,26.675000
Z" /> 
<path style="fill:#000000; fill-opacity:1.000000; stroke:none;fill-rule:evenodd;"
d="M 23.350000,31.175000
23.355709,31.146299
23.371967,31.121967
23.396299,31.105709
23.425000,31.100000
24.750000,31.100000
24.778701,31.105709
24.803033,31.121967
24.819291,31.146299
24.825000,31.175000
24.825000,31.325000
24.819291,31.353701
24.803033,31.378033
24.778701,31.394291
24.750000,31.400000
23.425000,31.400000
23.396299,31.394291
23.371967,31.378033
23.355709,31.353701
23.350000,31.325000
Z" /> 
<path style="fill:#000000; fill-opacity:1.000000; stroke:none;fill-rule:evenodd;"
d="M 23.350000,31.675000
23.355709,31.646299
23.371967,31.621967
23.396299,31.605709
23.425000,31.600000
24.750000,31.600000
24.778701,31.605709
24.803033,31.621967
24.819291,31.646299
24.825000,31.675000
24.825000,31.825000
24.819291,31.853701
24.803033,31.878033
24.778701,31.894291
24.750000,31.900000
23.425000,31.900000
23.396299,31.894291
23.371967,31.878033
23.355709,31.853701
23.350000,31.825000
Z" /> 
<path style="fill:#000000; fill-opacity:1.000000; stroke:none;fill-rule:evenodd;"
d="M 23.350000,32.175000
23.355709,32.146299
23.371967,32.121967
23.396299,32.105709
23.425000,32.100000
24.750000,32.100000
24.778701,32.105709
24.803033,32.121967
24.819291,32.146299
24.825000,32.175000
24.825000,32.325000
24.819291,32.353701
24.803033,32.378033
24.778701,32.394291
24.750000,32.400000
23.425000,32.400000
23.396299,32.394291
23.371967,32.378033
23.355709,32.353701
23.350000,32.325000
Z" /> 
<path style="fill:#000000; fill-opacity:1.000000; stroke:none;fill-rule:evenodd;"
d="M 23.350000,32.675000
23.355709,32.646299
23.371967,32.621967
23.396299,32.605709
23.425000,32.600000
24.750000,32.600000
24.778701,32.605709
24.803033,32.621967
24.819291,32.646299
24.825000,32.675000
24.825000,32.825000
24.819291,32.853701
24.803033,32.878033
24.778701,32.894291
24.750000,32.900000
23.425000,32.900000
23.396299,32.894291
23.371967,32.878033
23.355709,32.853701
23.350000,32.825000
Z" /> 
<path style="fill:#000000; fill-opacity:1.000000; stroke:none;fill-rule:evenodd;"
d="M 23.350000,33.175000
23.355709,33.146299
23.371967,33.121967
23.396299,33.105709
23.425000,33.100000
24.750000,33.100000
24.778701,33.105709
24.803033,33.121967
24.819291,33.146299
24.825000,33.175000
24.825000,33.325000
24.819291,33.353701
24.803033,33.378033
24.778701,33.394291
24.750000,33.400000
23.425000,33.400000
23.396299,33.394291
23.371967,33.378033
23.355709,33.353701
23.350000,33.325000
Z" /> 
<path style="fill:#000000; fill-opacity:1.000000; stroke:none;fill-rule:evenodd;"
d="M 23.350000,33.675000
23.355709,33.646299
23.371967,33.621967
23.396299,33.605709
23.425000,33.600000
24.750000,33.600000
24.778701,33.605709
24.803033,33.621967
24.819291,33.646299
24.825000,33.675000
24.825000,33.825000
24.819291,33.853701
24.803033,33.878033
24.778701,33.894291
24.750000,33.900000
23.425000,33.900000
23.396299,33.894291
23.371967,33.878033
23.355709,33.853701
23.350000,33.825000
Z" /> 
<path style="fill:#000000; fill-opacity:1.000000; stroke:none;fill-rule:evenodd;"
d="M 23.350000,34.175000
23.355709,34.146299
23.371967,34.121967
23.396299,34.105709
23.425000,34.100000
24.750000,34.100000
24.778701,34.105709
24.803033,34.121967
24.819291,34.146299
24.825000,34.175000
24.825000,34.325000
24.819291,34.353701
24.803033,34.378033
24.778701,34.394291
24.750000,34.400000
23.425000,34.400000
23.396299,34.394291
23.371967,34.378033
23.355709,34.353701
23.350000,34.325000
Z" /> 
<path style="fill:#000000; fill-opacity:1.000000; stroke:none;fill-rule:evenodd;"
d="M 23.350000,34.675000
23.355709,34.646299
23.371967,34.621967
23.396299,34.605709
23.425000,34.600000
24.750000,34.600000
24.778701,34.605709
24.803033,34.621967
24.819291,34.646299
24.825000,34.675000
24.825000,34.825000
24.819291,34.853701
24.803033,34.878033
24.778701,34.894291
24.750000,34.900000
23.425000,34.900000
23.396299,34.894291
23.371967,34.878033
23.355709,34.853701
23.350000,34.825000
Z" /> 
<path style="fill:#000000; fill-opacity:1.000000; stroke:none;fill-rule:evenodd;"
d="M 23.350000,35.175000
23.355709,35.146299
23.371967,35.121967
23.396299,35.105709
23.425000,35.100000
24.750000,35.100000
24.778701,35.105709
24.803033,35.121967
24.819291,35.146299
24.825000,35.175000
24.825000,35.325000
24.819291,35.353701
24.803033,35.378033
24.778701,35.394291
24.750000,35.400000
23.425000,35.400000
23.396299,35.394291
23.371967,35.378033
23.355709,35.353701
23.350000,35.325000
Z" /> 
<path style="fill:#000000; fill-opacity:1.000000; stroke:none;fill-rule:evenodd;"
d="M 23.350000,35.675000
23.355709,35.646299
23.371967,35.621967
23.396299,35.605709
23.425000,35.600000
24.750000,35.600000
24.778701,35.605709
24.803033,35.621967
24.819291,35.646299
24.825000,35.675000
24.825000,35.825000
24.819291,35.853701
24.803033,35.878033
24.778701,35.894291
24.750000,35.900000
23.425000,35.900000
23.396299,35.894291
23.371967,35.878033
23.355709,35.853701
23.350000,35.825000
Z" /> 
<path style="fill:#000000; fill-opacity:1.000000; stroke:none;fill-rule:evenodd;"
d="M 23.350000,36.175000
23.355709,36.146299
23.371967,36.121967
23.396299,36.105709
23.425000,36.100000
24.750000,36.100000
24.778701,36.105709
24.803033,36.121967
24.819291,36.146299
24.825000,36.175000
24.825000,36.325000
24.819291,36.353701
24.803033,36.378033
24.778701,36.394291
24.750000,36.400000
23.425000,36.400000
23.396299,36.394291
23.371967,36.378033
23.355709,36.353701
23.350000,36.325000
Z" /> 
<path style="fill:#000000; fill-opacity:1.000000; stroke:none;fill-rule:evenodd;"
d="M 23.350000,36.675000
23.355709,36.646299
23.371967,36.621967
23.396299,36.605709
23.425000,36.600000
24.750000,36.600000
24.778701,36.605709
24.803033,36.621967
24.819291,36.646299
24.825000,36.675000
24.825000,36.825000
24.819291,36.853701
24.803033,36.878033
24.778701,36.894291
24.750000,36.900000
23.425000,36.900000
23.396299,36.894291
23.371967,36.878033
23.355709,36.853701
23.350000,36.825000
Z" /> 
<path style="fill:#000000; fill-opacity:1.000000; stroke:none;fill-rule:evenodd;"
d="M 25.350000,37.500000
25.355709,37.471299
25.371967,37.446967
25.396299,37.430709
25.425000,37.425000
25.575000,37.425000
25.603701,37.430709
25.628033,37.446967
25.644291,37.471299
25.650000,37.500000
25.650000,38.825000
25.644291,38.853701
25.628033,38.878033
25.603701,38.894291
25.575000,38.900000
25.425000,38.900000
25.396299,38.894291
25.371967,38.878033
25.355709,38.853701
25.350000,38.825000
Z" /> 
<path style="fill:#000000; fill-opacity:1.000000; stroke:none;fill-rule:evenodd;"
d="M 25.850000,37.500000
25.855709,37.471299
25.871967,37.446967
25.896299,37.430709
25.925000,37.425000
26.075000,37.425000
26.103701,37.430709
26.128033,37.446967
26.144291,37.471299
26.150000,37.500000
26.150000,38.825000
26.144291,38.853701
26.128033,38.878033
26.103701,38.894291
26.075000,38.900000
25.925000,38.900000
25.896299,38.894291
25.871967,38.878033
25.855709,38.853701
25.850000,38.825000
Z" /> 
<path style="fill:#000000; fill-opacity:1.000000; stroke:none;fill-rule:evenodd;"
d="M 26.350000,37.500000
26.355709,37.471299
26.371967,37.446967
26.396299,37.430709
26.425000,37.425000
26.575000,37.425000
26.603701,37.430709
26.628033,37.446967
26.644291,37.471299
26.650000,37.500000
26.650000,38.825000
26.644291,38.853701
26.628033,38.878033
26.603701,38.894291
26.575000,38.900000
26.425000,38.900000
26.396299,38.894291
26.371967,38.878033
26.355709,38.853701
26.350000,38.825000
Z" /> 
<path style="fill:#000000; fill-opacity:1.000000; stroke:none;fill-rule:evenodd;"
d="M 26.850000,37.500000
26.855709,37.471299
26.871967,37.446967
26.896299,37.430709
26.925000,37.425000
27.075000,37.425000
27.103701,37.430709
27.128033,37.446967
27.144291,37.471299
27.150000,37.500000
27.150000,38.825000
27.144291,38.853701
27.128033,38.878033
27.103701,38.894291
27.075000,38.900000
26.925000,38.900000
26.896299,38.894291
26.871967,38.878033
26.855709,38.853701
26.850000,38.825000
Z" /> 
<path style="fill:#000000; fill-opacity:1.000000; stroke:none;fill-rule:evenodd;"
d="M 27.350000,37.500000
27.355709,37.471299
27.371967,37.446967
27.396299,37.430709
27.425000,37.425000
27.575000,37.425000
27.603701,37.430709
27.628033,37.446967
27.644291,37.471299
27.650000,37.500000
27.650000,38.825000
27.644291,38.853701
27.628033,38.878033
27.603701,38.894291
27.575000,38.900000
27.425000,38.900000
27.396299,38.894291
27.371967,38.878033
27.355709,38.853701
27.350000,38.825000
Z" /> 
<path style="fill:#000000; fill-opacity:1.000000; stroke:none;fill-rule:evenodd;"
d="M 27.850000,37.500000
27.855709,37.471299
27.871967,37.446967
27.896299,37.430709
27.925000,37.425000
28.075000,37.425000
28.103701,37.430709
28.128033,37.446967
28.144291,37.471299
28.150000,37.500000
28.150000,38.825000
28.144291,38.853701
28.128033,38.878033
28.103701,38.894291
28.075000,38.900000
27.925000,38.900000
27.896299,38.894291
27.871967,38.878033
27.855709,38.853701
27.850000,38.825000
Z" /> 
<path style="fill:#000000; fill-opacity:1.000000; stroke:none;fill-rule:evenodd;"
d="M 28.350000,37.500000
28.355709,37.471299
28.371967,37.446967
28.396299,37.430709
28.425000,37.425000
28.575000,37.425000
28.603701,37.430709
28.628033,37.446967
28.644291,37.471299
28.650000,37.500000
28.650000,38.825000
28.644291,38.853701
28.628033,38.878033
28.603701,38.894291
28.575000,38.900000
28.425000,38.900000
28.396299,38.894291
28.371967,38.878033
28.355709,38.853701
28.350000,38.825000
Z" /> 
<path style="fill:#000000; fill-opacity:1.000000; stroke:none;fill-rule:evenodd;"
d="M 28.850000,37.500000
28.855709,37.471299
28.871967,37.446967
28.896299,37.430709
28.925000,37.425000
29.075000,37.425000
29.103701,37.430709
29.128033,37.446967
29.144291,37.471299
29.150000,37.500000
29.150000,38.825000
29.144291,38.853701
29.128033,38.878033
29.103701,38.894291
29.075000,38.900000
28.925000,38.900000
28.896299,38.894291
28.871967,38.878033
28.855709,38.853701
28.850000,38.825000
Z" /> 
<path style="fill:#000000; fill-opacity:1.000000; stroke:none;fill-rule:evenodd;"
d="M 29.350000,37.500000
29.355709,37.471299
29.371967,37.446967
29.396299,37.430709
29.425000,37.425000
29.575000,37.425000
29.603701,37.430709
29.628033,37.446967
29.644291,37.471299
29.650000,37.500000
29.650000,38.825000
29.644291,38.853701
29.628033,38.878033
29.603701,38.894291
29.575000,38.900000
29.425000,38.900000
29.396299,38.894291
29.371967,38.878033
29.355709,38.853701
29.350000,38.825000
Z" /> 
<path style="fill:#000000; fill-opacity:1.000000; stroke:none;fill-rule:evenodd;"
d="M 29.850000,37.500000
29.855709,37.471299
29.871967,37.446967
29.896299,37.430709
29.925000,37.425000
30.075000,37.425000
30.103701,37.430709
30.128033,37.446967
30.144291,37.471299
30.150000,37.500000
30.150000,38.825000
30.144291,38.853701
30.128033,38.878033
30.103701,38.894291
30.075000,38.900000
29.925000,38.900000
29.896299,38.894291
29.871967,38.878033
29.855709,38.853701
29.850000,38.825000
Z" /> 
<path style="fill:#000000; fill-opacity:1.000000; stroke:none;fill-rule:evenodd;"
d="M 30.350000,37.500000
30.355709,37.471299
30.371967,37.446967
30.396299,37.430709
30.425000,37.425000
30.575000,37.425000
30.603701,37.430709
30.628033,37.446967
30.644291,37.471299
30.650000,37.500000
30.650000,38.825000
30.644291,38.853701
30.628033,38.878033
30.603701,38.894291
30.575000,38.900000
30.425000,38.900000
30.396299,38.894291
30.371967,38.878033
30.355709,38.853701
30.350000,38.825000
Z" /> 
<path style="fill:#000000; fill-opacity:1.000000; stroke:none;fill-rule:evenodd;"
d="M 30.850000,37.500000
30.855709,37.471299
30.871967,37.446967
30.896299,37.430709
30.925000,37.425000
31.075000,37.425000
31.103701,37.430709
31.128033,37.446967
31.144291,37.471299
31.150000,37.500000
31.150000,38.825000
31.144291,38.853701
31.128033,38.878033
31.103701,38.894291
31.075000,38.900000
30.925000,38.900000
30.896299,38.894291
30.871967,38.878033
30.855709,38.853701
30.850000,38.825000
Z" /> 
<path style="fill:#000000; fill-opacity:1.000000; stroke:none;fill-rule:evenodd;"
d="M 31.675000,36.675000
31.680709,36.646299
31.696967,36.621967
31.721299,36.605709
31.750000,36.600000
33.075000,36.600000
33.103701,36.605709
33.128033,36.621967
33.144291,36.646299
33.150000,36.675000
33.150000,36.825000
33.144291,36.853701
33.128033,36.878033
33.103701,36.894291
33.075000,36.900000
31.750000,36.900000
31.721299,36.894291
31.696967,36.878033
31.680709,36.853701
31.675000,36.825000
Z" /> 
<path style="fill:#000000; fill-opacity:1.000000; stroke:none;fill-rule:evenodd;"
d="M 31.675000,36.175000
31.680709,36.146299
31.696967,36.121967
31.721299,36.105709
31.750000,36.100000
33.075000,36.100000
33.103701,36.105709
33.128033,36.121967
33.144291,36.146299
33.150000,36.175000
33.150000,36.325000
33.144291,36.353701
33.128033,36.378033
33.103701,36.394291
33.075000,36.400000
31.750000,36.400000
31.721299,36.394291
31.696967,36.378033
31.680709,36.353701
31.675000,36.325000
Z" /> 
<path style="fill:#000000; fill-opacity:1.000000; stroke:none;fill-rule:evenodd;"
d="M 31.675000,35.675000
31.680709,35.646299
31.696967,35.621967
31.721299,35.605709
31.750000,35.600000
33.075000,35.600000
33.103701,35.605709
33.128033,35.621967
33.144291,35.646299
33.150000,35.675000
33.150000,35.825000
33.144291,35.853701
33.128033,35.878033
33.103701,35.894291
33.075000,35.900000
31.750000,35.900000
31.721299,35.894291
31.696967,35.878033
31.680709,35.853701
31.675000,35.825000
Z" /> 
<path style="fill:#000000; fill-opacity:1.000000; stroke:none;fill-rule:evenodd;"
d="M 31.675000,35.175000
31.680709,35.146299
31.696967,35.121967
31.721299,35.105709
31.750000,35.100000
33.075000,35.100000
33.103701,35.105709
33.128033,35.121967
33.144291,35.146299
33.150000,35.175000
33.150000,35.325000
33.144291,35.353701
33.128033,35.378033
33.103701,35.394291
33.075000,35.400000
31.750000,35.400000
31.721299,35.394291
31.696967,35.378033
31.680709,35.353701
31.675000,35.325000
Z" /> 
<path style="fill:#000000; fill-opacity:1.000000; stroke:none;fill-rule:evenodd;"
d="M 31.675000,34.675000
31.680709,34.646299
31.696967,34.621967
31.721299,34.605709
31.750000,34.600000
33.075000,34.600000
33.103701,34.605709
33.128033,34.621967
33.144291,34.646299
33.150000,34.675000
33.150000,34.825000
33.144291,34.853701
33.128033,34.878033
33.103701,34.894291
33.075000,34.900000
31.750000,34.900000
31.721299,34.894291
31.696967,34.878033
31.680709,34.853701
31.675000,34.825000
Z" /> 
<path style="fill:#000000; fill-opacity:1.000000; stroke:none;fill-rule:evenodd;"
d="M 31.675000,34.175000
31.680709,34.146299
31.696967,34.121967
31.721299,34.105709
31.750000,34.100000
33.075000,34.100000
33.103701,34.105709
33.128033,34.121967
33.144291,34.146299
33.150000,34.175000
33.150000,34.325000
33.144291,34.353701
33.128033,34.378033
33.103701,34.394291
33.075000,34.400000
31.750000,34.400000
31.721299,34.394291
31.696967,34.378033
31.680709,34.353701
31.675000,34.325000
Z" /> 
<path style="fill:#000000; fill-opacity:1.000000; stroke:none;fill-rule:evenodd;"
d="M 31.675000,33.675000
31.680709,33.646299
31.696967,33.621967
31.721299,33.605709
31.750000,33.600000
33.075000,33.600000
33.103701,33.605709
33.128033,33.621967
33.144291,33.646299
33.150000,33.675000
33.150000,33.825000
33.144291,33.853701
33.128033,33.878033
33.103701,33.894291
33.075000,33.900000
31.750000,33.900000
31.721299,33.894291
31.696967,33.878033
31.680709,33.853701
31.675000,33.825000
Z" /> 
<path style="fill:#000000; fill-opacity:1.000000; stroke:none;fill-rule:evenodd;"
d="M 31.675000,33.175000
31.680709,33.146299
31.696967,33.121967
31.721299,33.105709
31.750000,33.100000
33.075000,33.100000
33.103701,33.105709
33.128033,33.121967
33.144291,33.146299
33.150000,33.175000
33.150000,33.325000
33.144291,33.353701
33.128033,33.378033
33.103701,33.394291
33.075000,33.400000
31.750000,33.400000
31.721299,33.394291
31.696967,33.378033
31.680709,33.353701
31.675000,33.325000
Z" /> 
<path style="fill:#000000; fill-opacity:1.000000; stroke:none;fill-rule:evenodd;"
d="M 31.675000,32.675000
31.680709,32.646299
31.696967,32.621967
31.721299,32.605709
31.750000,32.600000
33.075000,32.600000
33.103701,32.605709
33.128033,32.621967
33.144291,32.646299
33.150000,32.675000
33.150000,32.825000
33.144291,32.853701
33.128033,32.878033
33.103701,32.894291
33.075000,32.900000
31.750000,32.900000
31.721299,32.894291
31.696967,32.878033
31.680709,32.853701
31.675000,32.825000
Z" /> 
<path style="fill:#000000; fill-opacity:1.000000; stroke:none;fill-rule:evenodd;"
d="M 31.675000,32.175000
31.680709,32.146299
31.696967,32.121967
31.721299,32.105709
31.750000,32.100000
33.075000,32.100000
33.103701,32.105709
33.128033,32.121967
33.144291,32.146299
33.150000,32.175000
33.150000,32.325000
33.144291,32.353701
33.128033,32.378033
33.103701,32.394291
33.075000,32.400000
31.750000,32.400000
31.721299,32.394291
31.696967,32.378033
31.680709,32.353701
31.675000,32.325000
Z" /> 
<path style="fill:#000000; fill-opacity:1.000000; stroke:none;fill-rule:evenodd;"
d="M 31.675000,31.675000
31.680709,31.646299
31.696967,31.621967
31.721299,31.605709
31.750000,31.600000
33.075000,31.600000
33.103701,31.605709
33.128033,31.621967
33.144291,31.646299
33.150000,31.675000
33.150000,31.825000
33.144291,31.853701
33.128033,31.878033
33.103701,31.894291
33.075000,31.900000
31.750000,31.900000
31.721299,31.894291
31.696967,31.878033
31.680709,31.853701
31.675000,31.825000
Z" /> 
<path style="fill:#000000; fill-opacity:1.000000; stroke:none;fill-rule:evenodd;"
d="M 31.675000,31.175000
31.680709,31.146299
31.696967,31.121967
31.721299,31.105709
31.750000,31.100000
33.075000,31.100000
33.103701,31.105709
33.128033,31.121967
33.144291,31.146299
33.150000,31.175000
33.150000,31.325000
33.144291,31.353701
33.128033,31.378033
33.103701,31.394291
33.075000,31.400000
31.750000,31.400000
31.721299,31.394291
31.696967,31.378033
31.680709,31.353701
31.675000,31.325000
Z" /> 
<path style="fill:#000000; fill-opacity:1.000000; stroke:none;fill-rule:evenodd;"
d="M 30.850000,29.175000
30.855709,29.146299
30.871967,29.121967
30.896299,29.105709
30.925000,29.100000
31.075000,29.100000
31.103701,29.105709
31.128033,29.121967
31.144291,29.146299
31.150000,29.175000
31.150000,30.500000
31.144291,30.528701
31.128033,30.553033
31.103701,30.569291
31.075000,30.575000
30.925000,30.575000
30.896299,30.569291
30.871967,30.553033
30.855709,30.528701
30.850000,30.500000
Z" /> 
<path style="fill:#000000; fill-opacity:1.000000; stroke:none;fill-rule:evenodd;"
d="M 30.350000,29.175000
30.355709,29.146299
30.371967,29.121967
30.396299,29.105709
30.425000,29.100000
30.575000,29.100000
30.603701,29.105709
30.628033,29.121967
30.644291,29.146299
30.650000,29.175000
30.650000,30.500000
30.644291,30.528701
30.628033,30.553033
30.603701,30.569291
30.575000,30.575000
30.425000,30.575000
30.396299,30.569291
30.371967,30.553033
30.355709,30.528701
30.350000,30.500000
Z" /> 
<path style="fill:#000000; fill-opacity:1.000000; stroke:none;fill-rule:evenodd;"
d="M 29.850000,29.175000
29.855709,29.146299
29.871967,29.121967
29.896299,29.105709
29.925000,29.100000
30.075000,29.100000
30.103701,29.105709
30.128033,29.121967
30.144291,29.146299
30.150000,29.175000
30.150000,30.500000
30.144291,30.528701
30.128033,30.553033
30.103701,30.569291
30.075000,30.575000
29.925000,30.575000
29.896299,30.569291
29.871967,30.553033
29.855709,30.528701
29.850000,30.500000
Z" /> 
<path style="fill:#000000; fill-opacity:1.000000; stroke:none;fill-rule:evenodd;"
d="M 29.350000,29.175000
29.355709,29.146299
29.371967,29.121967
29.396299,29.105709
29.425000,29.100000
29.575000,29.100000
29.603701,29.105709
29.628033,29.121967
29.644291,29.146299
29.650000,29.175000
29.650000,30.500000
29.644291,30.528701
29.628033,30.553033
29.603701,30.569291
29.575000,30.575000
29.425000,30.575000
29.396299,30.569291
29.371967,30.553033
29.355709,30.528701
29.350000,30.500000
Z" /> 
<path style="fill:#000000; fill-opacity:1.000000; stroke:none;fill-rule:evenodd;"
d="M 28.850000,29.175000
28.855709,29.146299
28.871967,29.121967
28.896299,29.105709
28.925000,29.100000
29.075000,29.100000
29.103701,29.105709
29.128033,29.121967
29.144291,29.146299
29.150000,29.175000
29.150000,30.500000
29.144291,30.528701
29.128033,30.553033
29.103701,30.569291
29.075000,30.575000
28.925000,30.575000
28.896299,30.569291
28.871967,30.553033
28.855709,30.528701
28.850000,30.500000
Z" /> 
<path style="fill:#000000; fill-opacity:1.000000; stroke:none;fill-rule:evenodd;"
d="M 28.350000,29.175000
28.355709,29.146299
28.371967,29.121967
28.396299,29.105709
28.425000,29.100000
28.575000,29.100000
28.603701,29.105709
28.628033,29.121967
28.644291,29.146299
28.650000,29.175000
28.650000,30.500000
28.644291,30.528701
28.628033,30.553033
28.603701,30.569291
28.575000,30.575000
28.425000,30.575000
28.396299,30.569291
28.371967,30.553033
28.355709,30.528701
28.350000,30.500000
Z" /> 
<path style="fill:#000000; fill-opacity:1.000000; stroke:none;fill-rule:evenodd;"
d="M 27.850000,29.175000
27.855709,29.146299
27.871967,29.121967
27.896299,29.105709
27.925000,29.100000
28.075000,29.100000
28.103701,29.105709
28.128033,29.121967
28.144291,29.146299
28.150000,29.175000
28.150000,30.500000
28.144291,30.528701
28.128033,30.553033
28.103701,30.569291
28.075000,30.575000
27.925000,30.575000
27.896299,30.569291
27.871967,30.553033
27.855709,30.528701
27.850000,30.500000
Z" /> 
<path style="fill:#000000; fill-opacity:1.000000; stroke:none;fill-rule:evenodd;"
d="M 27.350000,29.175000
27.355709,29.146299
27.371967,29.121967
27.396299,29.105709
27.425000,29.100000
27.575000,29.100000
27.603701,29.105709
27.628033,29.121967
27.644291,29.146299
27.650000,29.175000
27.650000,30.500000
27.644291,30.528701
27.628033,30.553033
27.603701,30.569291
27.575000,30.575000
27.425000,30.575000
27.396299,30.569291
27.371967,30.553033
27.355709,30.528701
27.350000,30.500000
Z" /> 
<path style="fill:#000000; fill-opacity:1.000000; stroke:none;fill-rule:evenodd;"
d="M 26.850000,29.175000
26.855709,29.146299
26.871967,29.121967
26.896299,29.105709
26.925000,29.100000
27.075000,29.100000
27.103701,29.105709
27.128033,29.121967
27.144291,29.146299
27.150000,29.175000
27.150000,30.500000
27.144291,30.528701
27.128033,30.553033
27.103701,30.569291
27.075000,30.575000
26.925000,30.575000
26.896299,30.569291
26.871967,30.553033
26.855709,30.528701
26.850000,30.500000
Z" /> 
<path style="fill:#000000; fill-opacity:1.000000; stroke:none;fill-rule:evenodd;"
d="M 26.350000,29.175000
26.355709,29.146299
26.371967,29.121967
26.396299,29.105709
26.425000,29.100000
26.575000,29.100000
26.603701,29.105709
26.628033,29.121967
26.644291,29.146299
26.650000,29.175000
26.650000,30.500000
26.644291,30.528701
26.628033,30.553033
26.603701,30.569291
26.575000,30.575000
26.425000,30.575000
26.396299,30.569291
26.371967,30.553033
26.355709,30.528701
26.350000,30.500000
Z" /> 
<path style="fill:#000000; fill-opacity:1.000000; stroke:none;fill-rule:evenodd;"
d="M 25.850000,29.175000
25.855709,29.146299
25.871967,29.121967
25.896299,29.105709
25.925000,29.100000
26.075000,29.100000
26.103701,29.105709
26.128033,29.121967
26.144291,29.146299
26.150000,29.175000
26.150000,30.500000
26.144291,30.528701
26.128033,30.553033
26.103701,30.569291
26.075000,30.575000
25.925000,30.575000
25.896299,30.569291
25.871967,30.553033
25.855709,30.528701
25.850000,30.500000
Z" /> 
<path style="fill:#000000; fill-opacity:1.000000; stroke:none;fill-rule:evenodd;"
d="M 25.350000,29.175000
25.355709,29.146299
25.371967,29.121967
25.396299,29.105709
25.425000,29.100000
25.575000,29.100000
25.603701,29.105709
25.628033,29.121967
25.644291,29.146299
25.650000,29.175000
25.650000,30.500000
25.644291,30.528701
25.628033,30.553033
25.603701,30.569291
25.575000,30.575000
25.425000,30.575000
25.396299,30.569291
25.371967,30.553033
25.355709,30.528701
25.350000,30.500000
Z" /> 
<path style="fill:#000000; fill-opacity:1.000000; stroke:none;fill-rule:evenodd;"
d="M 36.350000,40.575000
36.365590,40.467999
36.419807,40.357096
36.507096,40.269807
36.617999,40.215590
36.725000,40.200000
37.975000,40.200000
38.082001,40.215590
38.192904,40.269807
38.280193,40.357096
38.334410,40.467999
38.350000,40.575000
38.350000,41.325000
38.334410,41.432001
38.280193,41.542904
38.192904,41.630193
38.082001,41.684410
37.975000,41.700000
36.725000,41.700000
36.617999,41.684410
36.507096,41.630193
36.419807,41.542904
36.365590,41.432001
36.350000,41.325000
Z" /> 
<path style="fill:#000000; fill-opacity:1.000000; stroke:none;fill-rule:evenodd;"
d="M 36.350000,42.875000
36.365590,42.767999
36.419807,42.657096
36.507096,42.569807
36.617999,42.515590
36.725000,42.500000
37.975000,42.500000
38.082001,42.515590
38.192904,42.569807
38.280193,42.657096
38.334410,42.767999
38.350000,42.875000
38.350000,43.625000
38.334410,43.732001
38.280193,43.842904
38.192904,43.930193
38.082001,43.984410
37.975000,44.000000
36.725000,44.000000
36.617999,43.984410
36.507096,43.930193
36.419807,43.842904
36.365590,43.732001
36.350000,43.625000
Z" /> 
<path style="fill:#000000; fill-opacity:1.000000; stroke:none;fill-rule:evenodd;"
d="M 42.650000,41.850000
42.661427,41.743717
42.711161,41.610376
42.796447,41.496447
42.910376,41.411161
43.043717,41.361427
43.150000,41.350000
44.150000,41.350000
44.256283,41.361427
44.389624,41.411161
44.503553,41.496447
44.588839,41.610376
44.638573,41.743717
44.650000,41.850000
44.650000,44.650000
44.638573,44.756283
44.588839,44.889624
44.503553,45.003553
44.389624,45.088839
44.256283,45.138573
44.150000,45.150000
43.150000,45.150000
43.043717,45.138573
42.910376,45.088839
42.796447,45.003553
42.711161,44.889624
42.661427,44.756283
42.650000,44.650000
Z" /> 
<path style="fill:#000000; fill-opacity:1.000000; stroke:none;fill-rule:evenodd;"
d="M 36.350000,45.175000
36.365590,45.067999
36.419807,44.957096
36.507096,44.869807
36.617999,44.815590
36.725000,44.800000
37.975000,44.800000
38.082001,44.815590
38.192904,44.869807
38.280193,44.957096
38.334410,45.067999
38.350000,45.175000
38.350000,45.925000
38.334410,46.032001
38.280193,46.142904
38.192904,46.230193
38.082001,46.284410
37.975000,46.300000
36.725000,46.300000
36.617999,46.284410
36.507096,46.230193
36.419807,46.142904
36.365590,46.032001
36.350000,45.925000
Z" /> 
<path style="fill:#000000; fill-opacity:1.000000; stroke:none;fill-rule:evenodd;"
d="M 38.547500,25.237500
40.247500,25.237500
40.247500,26.937500
38.547500,26.937500
Z" /> 
</g>
<g style="fill:#000000; fill-opacity:1.000000; stroke:none;">
<circle cx="36.857500" cy="26.087500" r="0.850000" /> 
</g>
<g style="fill:#000000; fill-opacity:1.000000; stroke:none;">
<circle cx="34.317500" cy="26.087500" r="0.850000" /> 
</g>
<g style="fill:#000000; fill-opacity:1.000000; stroke:none;">
<circle cx="31.777500" cy="26.087500" r="0.850000" /> 
<path style="fill:#000000; fill-opacity:1.000000; stroke:none;fill-rule:evenodd;"
d="M 39.487500,49.850000
39.578387,49.868079
39.655438,49.919562
39.706921,49.996613
39.725000,50.087500
39.725000,50.662500
39.706921,50.753387
39.655438,50.830438
39.578387,50.881921
39.487500,50.900000
39.012500,50.900000
38.921613,50.881921
38.844562,50.830438
38.793079,50.753387
38.775000,50.662500
38.775000,50.087500
38.793079,49.996613
38.844562,49.919562
38.921613,49.868079
39.012500,49.850000
Z" /> 
<path style="fill:#000000; fill-opacity:1.000000; stroke:none;fill-rule:evenodd;"
d="M 39.487500,51.600000
39.578387,51.618079
39.655438,51.669562
39.706921,51.746613
39.725000,51.837500
39.725000,52.412500
39.706921,52.503387
39.655438,52.580438
39.578387,52.631921
39.487500,52.650000
39.012500,52.650000
38.921613,52.631921
38.844562,52.580438
38.793079,52.503387
38.775000,52.412500
38.775000,51.837500
38.793079,51.746613
38.844562,51.669562
38.921613,51.618079
39.012500,51.600000
Z" /> 
</g> 
</svg>
