<?xml version="1.0" standalone="no"?>
 <!DOCTYPE svg PUBLIC "-//W3C//DTD SVG 1.1//EN" 
 "http://www.w3.org/Graphics/SVG/1.1/DTD/svg11.dtd"> 
<svg
  xmlns:svg="http://www.w3.org/2000/svg"
  xmlns="http://www.w3.org/2000/svg"
  xmlns:xlink="http://www.w3.org/1999/xlink"
  version="1.1"
  width="5.755cm" height="5.155cm" viewBox="11.475 21.975 57.55 51.55">
<title>SVG Image created as ECAD_main-F_SilkS.svg date 2025/10/27 20:20:28 </title>
  <desc>Image generated by PCBNEW </desc>
<g style="fill:#000000; fill-opacity:1.000000;stroke:#000000; stroke-opacity:1.000000;
stroke-linecap:round; stroke-linejoin:round;"
 transform="translate(0 0) scale(1 1)">
</g>
<g style="fill:none; 
stroke:#000000; stroke-width:0.150000; stroke-opacity:1; 
stroke-linecap:round; stroke-linejoin:round;">
<text x="42.750000" y="32.250000"
textLength="2.964286" font-size="1.333333" lengthAdjust="spacingAndGlyphs"
text-anchor="middle" opacity="0" stroke-opacity="0">TP2</text>
<g class="stroked-text"><desc>TP2</desc>
<path d="M41.488095 31.204819
L42.059523 31.204819
" />
<path d="M41.773809 32.204819
L41.773809 31.204819
" />
<path d="M42.392857 32.204819
L42.392857 31.204819
" />
<path d="M42.392857 31.204819
L42.773809 31.204819
" />
<path d="M42.773809 31.204819
L42.869047 31.252438
" />
<path d="M42.869047 31.252438
L42.916666 31.300057
" />
<path d="M42.916666 31.300057
L42.964285 31.395295
" />
<path d="M42.964285 31.395295
L42.964285 31.538152
" />
<path d="M42.964285 31.538152
L42.916666 31.633390
" />
<path d="M42.916666 31.633390
L42.869047 31.681009
" />
<path d="M42.869047 31.681009
L42.773809 31.728628
" />
<path d="M42.773809 31.728628
L42.392857 31.728628
" />
<path d="M43.345238 31.300057
L43.392857 31.252438
" />
<path d="M43.392857 31.252438
L43.488095 31.204819
" />
<path d="M43.488095 31.204819
L43.726190 31.204819
" />
<path d="M43.726190 31.204819
L43.821428 31.252438
" />
<path d="M43.821428 31.252438
L43.869047 31.300057
" />
<path d="M43.869047 31.300057
L43.916666 31.395295
" />
<path d="M43.916666 31.395295
L43.916666 31.490533
" />
<path d="M43.916666 31.490533
L43.869047 31.633390
" />
<path d="M43.869047 31.633390
L43.297619 32.204819
" />
<path d="M43.297619 32.204819
L43.916666 32.204819
" />
</g><g transform="rotate(-90.000000 21.000000 42.000000)">
<text x="21.000000" y="42.500000"
textLength="3.297619" font-size="1.333333" lengthAdjust="spacingAndGlyphs"
text-anchor="middle" opacity="0" stroke-opacity="0">SW1</text>
</g>
<g class="stroked-text"><desc>SW1</desc>
<path d="M21.407200 43.333332
L21.454819 43.190475
" />
<path d="M21.454819 43.190475
L21.454819 42.952380
" />
<path d="M21.454819 42.952380
L21.407200 42.857142
" />
<path d="M21.407200 42.857142
L21.359580 42.809523
" />
<path d="M21.359580 42.809523
L21.264342 42.761904
" />
<path d="M21.264342 42.761904
L21.169104 42.761904
" />
<path d="M21.169104 42.761904
L21.073866 42.809523
" />
<path d="M21.073866 42.809523
L21.026247 42.857142
" />
<path d="M21.026247 42.857142
L20.978628 42.952380
" />
<path d="M20.978628 42.952380
L20.931009 43.142856
" />
<path d="M20.931009 43.142856
L20.883390 43.238094
" />
<path d="M20.883390 43.238094
L20.835771 43.285713
" />
<path d="M20.835771 43.285713
L20.740533 43.333332
" />
<path d="M20.740533 43.333332
L20.645295 43.333332
" />
<path d="M20.645295 43.333332
L20.550057 43.285713
" />
<path d="M20.550057 43.285713
L20.502438 43.238094
" />
<path d="M20.502438 43.238094
L20.454819 43.142856
" />
<path d="M20.454819 43.142856
L20.454819 42.904761
" />
<path d="M20.454819 42.904761
L20.502438 42.761904
" />
<path d="M20.454819 42.428570
L21.454819 42.190475
" />
<path d="M21.454819 42.190475
L20.740533 41.999999
" />
<path d="M20.740533 41.999999
L21.454819 41.809523
" />
<path d="M21.454819 41.809523
L20.454819 41.571428
" />
<path d="M21.454819 40.666666
L21.454819 41.238094
" />
<path d="M21.454819 40.952380
L20.454819 40.952380
" />
<path d="M20.454819 40.952380
L20.597676 41.047618
" />
<path d="M20.597676 41.047618
L20.692914 41.142856
" />
<path d="M20.692914 41.142856
L20.740533 41.238094
" />
</g><text x="59.250000" y="53.250000"
textLength="3.154762" font-size="1.333333" lengthAdjust="spacingAndGlyphs"
text-anchor="middle" opacity="0" stroke-opacity="0">C10</text>
<g class="stroked-text"><desc>C10</desc>
<path d="M58.607142 53.109580
L58.559523 53.157200
" />
<path d="M58.559523 53.157200
L58.416666 53.204819
" />
<path d="M58.416666 53.204819
L58.321428 53.204819
" />
<path d="M58.321428 53.204819
L58.178571 53.157200
" />
<path d="M58.178571 53.157200
L58.083333 53.061961
" />
<path d="M58.083333 53.061961
L58.035714 52.966723
" />
<path d="M58.035714 52.966723
L57.988095 52.776247
" />
<path d="M57.988095 52.776247
L57.988095 52.633390
" />
<path d="M57.988095 52.633390
L58.035714 52.442914
" />
<path d="M58.035714 52.442914
L58.083333 52.347676
" />
<path d="M58.083333 52.347676
L58.178571 52.252438
" />
<path d="M58.178571 52.252438
L58.321428 52.204819
" />
<path d="M58.321428 52.204819
L58.416666 52.204819
" />
<path d="M58.416666 52.204819
L58.559523 52.252438
" />
<path d="M58.559523 52.252438
L58.607142 52.300057
" />
<path d="M59.559523 53.204819
L58.988095 53.204819
" />
<path d="M59.273809 53.204819
L59.273809 52.204819
" />
<path d="M59.273809 52.204819
L59.178571 52.347676
" />
<path d="M59.178571 52.347676
L59.083333 52.442914
" />
<path d="M59.083333 52.442914
L58.988095 52.490533
" />
<path d="M60.178571 52.204819
L60.273809 52.204819
" />
<path d="M60.273809 52.204819
L60.369047 52.252438
" />
<path d="M60.369047 52.252438
L60.416666 52.300057
" />
<path d="M60.416666 52.300057
L60.464285 52.395295
" />
<path d="M60.464285 52.395295
L60.511904 52.585771
" />
<path d="M60.511904 52.585771
L60.511904 52.823866
" />
<path d="M60.511904 52.823866
L60.464285 53.014342
" />
<path d="M60.464285 53.014342
L60.416666 53.109580
" />
<path d="M60.416666 53.109580
L60.369047 53.157200
" />
<path d="M60.369047 53.157200
L60.273809 53.204819
" />
<path d="M60.273809 53.204819
L60.178571 53.204819
" />
<path d="M60.178571 53.204819
L60.083333 53.157200
" />
<path d="M60.083333 53.157200
L60.035714 53.109580
" />
<path d="M60.035714 53.109580
L59.988095 53.014342
" />
<path d="M59.988095 53.014342
L59.940476 52.823866
" />
<path d="M59.940476 52.823866
L59.940476 52.585771
" />
<path d="M59.940476 52.585771
L59.988095 52.395295
" />
<path d="M59.988095 52.395295
L60.035714 52.300057
" />
<path d="M60.035714 52.300057
L60.083333 52.252438
" />
<path d="M60.083333 52.252438
L60.178571 52.204819
" />
</g><text x="21.000000" y="48.000000"
textLength="2.202381" font-size="1.333333" lengthAdjust="spacingAndGlyphs"
text-anchor="middle" opacity="0" stroke-opacity="0">D2</text>
<g class="stroked-text"><desc>D2</desc>
<path d="M20.261905 47.954819
L20.261905 46.954819
" />
<path d="M20.261905 46.954819
L20.500000 46.954819
" />
<path d="M20.500000 46.954819
L20.642857 47.002438
" />
<path d="M20.642857 47.002438
L20.738095 47.097676
" />
<path d="M20.738095 47.097676
L20.785714 47.192914
" />
<path d="M20.785714 47.192914
L20.833333 47.383390
" />
<path d="M20.833333 47.383390
L20.833333 47.526247
" />
<path d="M20.833333 47.526247
L20.785714 47.716723
" />
<path d="M20.785714 47.716723
L20.738095 47.811961
" />
<path d="M20.738095 47.811961
L20.642857 47.907200
" />
<path d="M20.642857 47.907200
L20.500000 47.954819
" />
<path d="M20.500000 47.954819
L20.261905 47.954819
" />
<path d="M21.214286 47.050057
L21.261905 47.002438
" />
<path d="M21.261905 47.002438
L21.357143 46.954819
" />
<path d="M21.357143 46.954819
L21.595238 46.954819
" />
<path d="M21.595238 46.954819
L21.690476 47.002438
" />
<path d="M21.690476 47.002438
L21.738095 47.050057
" />
<path d="M21.738095 47.050057
L21.785714 47.145295
" />
<path d="M21.785714 47.145295
L21.785714 47.240533
" />
<path d="M21.785714 47.240533
L21.738095 47.383390
" />
<path d="M21.738095 47.383390
L21.166667 47.954819
" />
<path d="M21.166667 47.954819
L21.785714 47.954819
" />
</g><text x="27.500000" y="41.000000"
textLength="3.059524" font-size="1.333333" lengthAdjust="spacingAndGlyphs"
text-anchor="middle" opacity="0" stroke-opacity="0">FB1</text>
<g class="stroked-text"><desc>FB1</desc>
<path d="M26.666666 40.431009
L26.333333 40.431009
" />
<path d="M26.333333 40.954819
L26.333333 39.954819
" />
<path d="M26.333333 39.954819
L26.809523 39.954819
" />
<path d="M27.523809 40.431009
L27.666666 40.478628
" />
<path d="M27.666666 40.478628
L27.714285 40.526247
" />
<path d="M27.714285 40.526247
L27.761904 40.621485
" />
<path d="M27.761904 40.621485
L27.761904 40.764342
" />
<path d="M27.761904 40.764342
L27.714285 40.859580
" />
<path d="M27.714285 40.859580
L27.666666 40.907200
" />
<path d="M27.666666 40.907200
L27.571428 40.954819
" />
<path d="M27.571428 40.954819
L27.190476 40.954819
" />
<path d="M27.190476 40.954819
L27.190476 39.954819
" />
<path d="M27.190476 39.954819
L27.523809 39.954819
" />
<path d="M27.523809 39.954819
L27.619047 40.002438
" />
<path d="M27.619047 40.002438
L27.666666 40.050057
" />
<path d="M27.666666 40.050057
L27.714285 40.145295
" />
<path d="M27.714285 40.145295
L27.714285 40.240533
" />
<path d="M27.714285 40.240533
L27.666666 40.335771
" />
<path d="M27.666666 40.335771
L27.619047 40.383390
" />
<path d="M27.619047 40.383390
L27.523809 40.431009
" />
<path d="M27.523809 40.431009
L27.190476 40.431009
" />
<path d="M28.714285 40.954819
L28.142857 40.954819
" />
<path d="M28.428571 40.954819
L28.428571 39.954819
" />
<path d="M28.428571 39.954819
L28.333333 40.097676
" />
<path d="M28.333333 40.097676
L28.238095 40.192914
" />
<path d="M28.238095 40.192914
L28.142857 40.240533
" />
</g><text x="41.750000" y="30.000000"
textLength="2.202381" font-size="1.333333" lengthAdjust="spacingAndGlyphs"
text-anchor="middle" opacity="0" stroke-opacity="0">D1</text>
<g class="stroked-text"><desc>D1</desc>
<path d="M41.011905 29.954819
L41.011905 28.954819
" />
<path d="M41.011905 28.954819
L41.250000 28.954819
" />
<path d="M41.250000 28.954819
L41.392857 29.002438
" />
<path d="M41.392857 29.002438
L41.488095 29.097676
" />
<path d="M41.488095 29.097676
L41.535714 29.192914
" />
<path d="M41.535714 29.192914
L41.583333 29.383390
" />
<path d="M41.583333 29.383390
L41.583333 29.526247
" />
<path d="M41.583333 29.526247
L41.535714 29.716723
" />
<path d="M41.535714 29.716723
L41.488095 29.811961
" />
<path d="M41.488095 29.811961
L41.392857 29.907200
" />
<path d="M41.392857 29.907200
L41.250000 29.954819
" />
<path d="M41.250000 29.954819
L41.011905 29.954819
" />
<path d="M42.535714 29.954819
L41.964286 29.954819
" />
<path d="M42.250000 29.954819
L42.250000 28.954819
" />
<path d="M42.250000 28.954819
L42.154762 29.097676
" />
<path d="M42.154762 29.097676
L42.059524 29.192914
" />
<path d="M42.059524 29.192914
L41.964286 29.240533
" />
</g><g transform="rotate(-90.000000 23.410000 30.337500)">
<text x="23.410000" y="30.837500"
textLength="2.202381" font-size="1.333333" lengthAdjust="spacingAndGlyphs"
text-anchor="middle" opacity="0" stroke-opacity="0">C6</text>
</g>
<g class="stroked-text"><desc>C6</desc>
<path d="M23.769580 30.504166
L23.817200 30.551785
" />
<path d="M23.817200 30.551785
L23.864819 30.694642
" />
<path d="M23.864819 30.694642
L23.864819 30.789880
" />
<path d="M23.864819 30.789880
L23.817200 30.932737
" />
<path d="M23.817200 30.932737
L23.721961 31.027975
" />
<path d="M23.721961 31.027975
L23.626723 31.075594
" />
<path d="M23.626723 31.075594
L23.436247 31.123213
" />
<path d="M23.436247 31.123213
L23.293390 31.123213
" />
<path d="M23.293390 31.123213
L23.102914 31.075594
" />
<path d="M23.102914 31.075594
L23.007676 31.027975
" />
<path d="M23.007676 31.027975
L22.912438 30.932737
" />
<path d="M22.912438 30.932737
L22.864819 30.789880
" />
<path d="M22.864819 30.789880
L22.864819 30.694642
" />
<path d="M22.864819 30.694642
L22.912438 30.551785
" />
<path d="M22.912438 30.551785
L22.960057 30.504166
" />
<path d="M22.864819 29.647023
L22.864819 29.837499
" />
<path d="M22.864819 29.837499
L22.912438 29.932737
" />
<path d="M22.912438 29.932737
L22.960057 29.980356
" />
<path d="M22.960057 29.980356
L23.102914 30.075594
" />
<path d="M23.102914 30.075594
L23.293390 30.123213
" />
<path d="M23.293390 30.123213
L23.674342 30.123213
" />
<path d="M23.674342 30.123213
L23.769580 30.075594
" />
<path d="M23.769580 30.075594
L23.817200 30.027975
" />
<path d="M23.817200 30.027975
L23.864819 29.932737
" />
<path d="M23.864819 29.932737
L23.864819 29.742261
" />
<path d="M23.864819 29.742261
L23.817200 29.647023
" />
<path d="M23.817200 29.647023
L23.769580 29.599404
" />
<path d="M23.769580 29.599404
L23.674342 29.551785
" />
<path d="M23.674342 29.551785
L23.436247 29.551785
" />
<path d="M23.436247 29.551785
L23.341009 29.599404
" />
<path d="M23.341009 29.599404
L23.293390 29.647023
" />
<path d="M23.293390 29.647023
L23.245771 29.742261
" />
<path d="M23.245771 29.742261
L23.245771 29.932737
" />
<path d="M23.245771 29.932737
L23.293390 30.027975
" />
<path d="M23.293390 30.027975
L23.341009 30.075594
" />
<path d="M23.341009 30.075594
L23.436247 30.123213
" />
</g><text x="49.950000" y="61.000000"
textLength="2.059524" font-size="1.333333" lengthAdjust="spacingAndGlyphs"
text-anchor="middle" opacity="0" stroke-opacity="0">F1</text>
<g class="stroked-text"><desc>F1</desc>
<path d="M49.616666 60.431009
L49.283333 60.431009
" />
<path d="M49.283333 60.954819
L49.283333 59.954819
" />
<path d="M49.283333 59.954819
L49.759523 59.954819
" />
<path d="M50.664285 60.954819
L50.092857 60.954819
" />
<path d="M50.378571 60.954819
L50.378571 59.954819
" />
<path d="M50.378571 59.954819
L50.283333 60.097676
" />
<path d="M50.283333 60.097676
L50.188095 60.192914
" />
<path d="M50.188095 60.192914
L50.092857 60.240533
" />
</g><text x="19.250000" y="35.407500"
textLength="2.202381" font-size="1.333333" lengthAdjust="spacingAndGlyphs"
text-anchor="middle" opacity="0" stroke-opacity="0">C9</text>
<g class="stroked-text"><desc>C9</desc>
<path d="M19.083333 35.267080
L19.035714 35.314700
" />
<path d="M19.035714 35.314700
L18.892857 35.362319
" />
<path d="M18.892857 35.362319
L18.797619 35.362319
" />
<path d="M18.797619 35.362319
L18.654762 35.314700
" />
<path d="M18.654762 35.314700
L18.559524 35.219461
" />
<path d="M18.559524 35.219461
L18.511905 35.124223
" />
<path d="M18.511905 35.124223
L18.464286 34.933747
" />
<path d="M18.464286 34.933747
L18.464286 34.790890
" />
<path d="M18.464286 34.790890
L18.511905 34.600414
" />
<path d="M18.511905 34.600414
L18.559524 34.505176
" />
<path d="M18.559524 34.505176
L18.654762 34.409938
" />
<path d="M18.654762 34.409938
L18.797619 34.362319
" />
<path d="M18.797619 34.362319
L18.892857 34.362319
" />
<path d="M18.892857 34.362319
L19.035714 34.409938
" />
<path d="M19.035714 34.409938
L19.083333 34.457557
" />
<path d="M19.559524 35.362319
L19.750000 35.362319
" />
<path d="M19.750000 35.362319
L19.845238 35.314700
" />
<path d="M19.845238 35.314700
L19.892857 35.267080
" />
<path d="M19.892857 35.267080
L19.988095 35.124223
" />
<path d="M19.988095 35.124223
L20.035714 34.933747
" />
<path d="M20.035714 34.933747
L20.035714 34.552795
" />
<path d="M20.035714 34.552795
L19.988095 34.457557
" />
<path d="M19.988095 34.457557
L19.940476 34.409938
" />
<path d="M19.940476 34.409938
L19.845238 34.362319
" />
<path d="M19.845238 34.362319
L19.654762 34.362319
" />
<path d="M19.654762 34.362319
L19.559524 34.409938
" />
<path d="M19.559524 34.409938
L19.511905 34.457557
" />
<path d="M19.511905 34.457557
L19.464286 34.552795
" />
<path d="M19.464286 34.552795
L19.464286 34.790890
" />
<path d="M19.464286 34.790890
L19.511905 34.886128
" />
<path d="M19.511905 34.886128
L19.559524 34.933747
" />
<path d="M19.559524 34.933747
L19.654762 34.981366
" />
<path d="M19.654762 34.981366
L19.845238 34.981366
" />
<path d="M19.845238 34.981366
L19.940476 34.933747
" />
<path d="M19.940476 34.933747
L19.988095 34.886128
" />
<path d="M19.988095 34.886128
L20.035714 34.790890
" />
</g><text x="44.000000" y="50.500000"
textLength="2.869048" font-size="1.333333" lengthAdjust="spacingAndGlyphs"
text-anchor="middle" opacity="0" stroke-opacity="0">FL1</text>
<g class="stroked-text"><desc>FL1</desc>
<path d="M43.261904 49.931009
L42.928571 49.931009
" />
<path d="M42.928571 50.454819
L42.928571 49.454819
" />
<path d="M42.928571 49.454819
L43.404761 49.454819
" />
<path d="M44.261904 50.454819
L43.785714 50.454819
" />
<path d="M43.785714 50.454819
L43.785714 49.454819
" />
<path d="M45.119047 50.454819
L44.547619 50.454819
" />
<path d="M44.833333 50.454819
L44.833333 49.454819
" />
<path d="M44.833333 49.454819
L44.738095 49.597676
" />
<path d="M44.738095 49.597676
L44.642857 49.692914
" />
<path d="M44.642857 49.692914
L44.547619 49.740533
" />
</g><text x="36.000000" y="33.000000"
textLength="2.202381" font-size="1.333333" lengthAdjust="spacingAndGlyphs"
text-anchor="middle" opacity="0" stroke-opacity="0">C4</text>
<g class="stroked-text"><desc>C4</desc>
<path d="M35.833333 32.859580
L35.785714 32.907200
" />
<path d="M35.785714 32.907200
L35.642857 32.954819
" />
<path d="M35.642857 32.954819
L35.547619 32.954819
" />
<path d="M35.547619 32.954819
L35.404762 32.907200
" />
<path d="M35.404762 32.907200
L35.309524 32.811961
" />
<path d="M35.309524 32.811961
L35.261905 32.716723
" />
<path d="M35.261905 32.716723
L35.214286 32.526247
" />
<path d="M35.214286 32.526247
L35.214286 32.383390
" />
<path d="M35.214286 32.383390
L35.261905 32.192914
" />
<path d="M35.261905 32.192914
L35.309524 32.097676
" />
<path d="M35.309524 32.097676
L35.404762 32.002438
" />
<path d="M35.404762 32.002438
L35.547619 31.954819
" />
<path d="M35.547619 31.954819
L35.642857 31.954819
" />
<path d="M35.642857 31.954819
L35.785714 32.002438
" />
<path d="M35.785714 32.002438
L35.833333 32.050057
" />
<path d="M36.690476 32.288152
L36.690476 32.954819
" />
<path d="M36.452381 31.907200
L36.214286 32.621485
" />
<path d="M36.214286 32.621485
L36.833333 32.621485
" />
</g></g>
<g style="fill:none; 
stroke:#000000; stroke-width:0.300000; stroke-opacity:1; 
stroke-linecap:round; stroke-linejoin:round;">
<text x="337.973602" y="71.216713"
textLength="5.171429" font-size="2.000000" lengthAdjust="spacingAndGlyphs"
text-anchor="middle" opacity="0" stroke-opacity="0">HU1</text>
<g class="stroked-text"><desc>HU1</desc>
<path d="M336.045030 71.145041
L336.045030 69.645041
" />
<path d="M336.045030 70.359327
L336.902173 70.359327
" />
<path d="M336.902173 71.145041
L336.902173 69.645041
" />
<path d="M337.616459 69.645041
L337.616459 70.859327
" />
<path d="M337.616459 70.859327
L337.687888 71.002184
" />
<path d="M337.687888 71.002184
L337.759317 71.073613
" />
<path d="M337.759317 71.073613
L337.902174 71.145041
" />
<path d="M337.902174 71.145041
L338.187888 71.145041
" />
<path d="M338.187888 71.145041
L338.330745 71.073613
" />
<path d="M338.330745 71.073613
L338.402174 71.002184
" />
<path d="M338.402174 71.002184
L338.473602 70.859327
" />
<path d="M338.473602 70.859327
L338.473602 69.645041
" />
<path d="M339.973603 71.145041
L339.116460 71.145041
" />
<path d="M339.545031 71.145041
L339.545031 69.645041
" />
<path d="M339.545031 69.645041
L339.402174 69.859327
" />
<path d="M339.402174 69.859327
L339.259317 70.002184
" />
<path d="M339.259317 70.002184
L339.116460 70.073613
" />
</g></g>
<g style="fill:none; 
stroke:#000000; stroke-width:0.150000; stroke-opacity:1; 
stroke-linecap:round; stroke-linejoin:round;">
<text x="23.250000" y="48.000000"
textLength="2.202381" font-size="1.333333" lengthAdjust="spacingAndGlyphs"
text-anchor="middle" opacity="0" stroke-opacity="0">R2</text>
<g class="stroked-text"><desc>R2</desc>
<path d="M23.083333 47.954819
L22.750000 47.478628
" />
<path d="M22.511905 47.954819
L22.511905 46.954819
" />
<path d="M22.511905 46.954819
L22.892857 46.954819
" />
<path d="M22.892857 46.954819
L22.988095 47.002438
" />
<path d="M22.988095 47.002438
L23.035714 47.050057
" />
<path d="M23.035714 47.050057
L23.083333 47.145295
" />
<path d="M23.083333 47.145295
L23.083333 47.288152
" />
<path d="M23.083333 47.288152
L23.035714 47.383390
" />
<path d="M23.035714 47.383390
L22.988095 47.431009
" />
<path d="M22.988095 47.431009
L22.892857 47.478628
" />
<path d="M22.892857 47.478628
L22.511905 47.478628
" />
<path d="M23.464286 47.050057
L23.511905 47.002438
" />
<path d="M23.511905 47.002438
L23.607143 46.954819
" />
<path d="M23.607143 46.954819
L23.845238 46.954819
" />
<path d="M23.845238 46.954819
L23.940476 47.002438
" />
<path d="M23.940476 47.002438
L23.988095 47.050057
" />
<path d="M23.988095 47.050057
L24.035714 47.145295
" />
<path d="M24.035714 47.145295
L24.035714 47.240533
" />
<path d="M24.035714 47.240533
L23.988095 47.383390
" />
<path d="M23.988095 47.383390
L23.416667 47.954819
" />
<path d="M23.416667 47.954819
L24.035714 47.954819
" />
</g><g transform="rotate(-90.000000 21.500000 50.712500)">
<text x="21.500000" y="51.212500"
textLength="3.154762" font-size="1.333333" lengthAdjust="spacingAndGlyphs"
text-anchor="middle" opacity="0" stroke-opacity="0">C12</text>
</g>
<g class="stroked-text"><desc>C12</desc>
<path d="M21.859580 51.355357
L21.907200 51.402976
" />
<path d="M21.907200 51.402976
L21.954819 51.545833
" />
<path d="M21.954819 51.545833
L21.954819 51.641071
" />
<path d="M21.954819 51.641071
L21.907200 51.783928
" />
<path d="M21.907200 51.783928
L21.811961 51.879166
" />
<path d="M21.811961 51.879166
L21.716723 51.926785
" />
<path d="M21.716723 51.926785
L21.526247 51.974404
" />
<path d="M21.526247 51.974404
L21.383390 51.974404
" />
<path d="M21.383390 51.974404
L21.192914 51.926785
" />
<path d="M21.192914 51.926785
L21.097676 51.879166
" />
<path d="M21.097676 51.879166
L21.002438 51.783928
" />
<path d="M21.002438 51.783928
L20.954819 51.641071
" />
<path d="M20.954819 51.641071
L20.954819 51.545833
" />
<path d="M20.954819 51.545833
L21.002438 51.402976
" />
<path d="M21.002438 51.402976
L21.050057 51.355357
" />
<path d="M21.954819 50.402976
L21.954819 50.974404
" />
<path d="M21.954819 50.688690
L20.954819 50.688690
" />
<path d="M20.954819 50.688690
L21.097676 50.783928
" />
<path d="M21.097676 50.783928
L21.192914 50.879166
" />
<path d="M21.192914 50.879166
L21.240533 50.974404
" />
<path d="M21.050057 50.022023
L21.002438 49.974404
" />
<path d="M21.002438 49.974404
L20.954819 49.879166
" />
<path d="M20.954819 49.879166
L20.954819 49.641071
" />
<path d="M20.954819 49.641071
L21.002438 49.545833
" />
<path d="M21.002438 49.545833
L21.050057 49.498214
" />
<path d="M21.050057 49.498214
L21.145295 49.450595
" />
<path d="M21.145295 49.450595
L21.240533 49.450595
" />
<path d="M21.240533 49.450595
L21.383390 49.498214
" />
<path d="M21.383390 49.498214
L21.954819 50.069642
" />
<path d="M21.954819 50.069642
L21.954819 49.450595
" />
</g><text x="14.537500" y="52.250000"
textLength="2.202381" font-size="1.333333" lengthAdjust="spacingAndGlyphs"
text-anchor="middle" opacity="0" stroke-opacity="0">D3</text>
<g class="stroked-text"><desc>D3</desc>
<path d="M13.799405 52.204819
L13.799405 51.204819
" />
<path d="M13.799405 51.204819
L14.037500 51.204819
" />
<path d="M14.037500 51.204819
L14.180357 51.252438
" />
<path d="M14.180357 51.252438
L14.275595 51.347676
" />
<path d="M14.275595 51.347676
L14.323214 51.442914
" />
<path d="M14.323214 51.442914
L14.370833 51.633390
" />
<path d="M14.370833 51.633390
L14.370833 51.776247
" />
<path d="M14.370833 51.776247
L14.323214 51.966723
" />
<path d="M14.323214 51.966723
L14.275595 52.061961
" />
<path d="M14.275595 52.061961
L14.180357 52.157200
" />
<path d="M14.180357 52.157200
L14.037500 52.204819
" />
<path d="M14.037500 52.204819
L13.799405 52.204819
" />
<path d="M14.704167 51.204819
L15.323214 51.204819
" />
<path d="M15.323214 51.204819
L14.989881 51.585771
" />
<path d="M14.989881 51.585771
L15.132738 51.585771
" />
<path d="M15.132738 51.585771
L15.227976 51.633390
" />
<path d="M15.227976 51.633390
L15.275595 51.681009
" />
<path d="M15.275595 51.681009
L15.323214 51.776247
" />
<path d="M15.323214 51.776247
L15.323214 52.014342
" />
<path d="M15.323214 52.014342
L15.275595 52.109580
" />
<path d="M15.275595 52.109580
L15.227976 52.157200
" />
<path d="M15.227976 52.157200
L15.132738 52.204819
" />
<path d="M15.132738 52.204819
L14.847024 52.204819
" />
<path d="M14.847024 52.204819
L14.751786 52.157200
" />
<path d="M14.751786 52.157200
L14.704167 52.109580
" />
</g><text x="24.500000" y="27.250000"
textLength="2.202381" font-size="1.333333" lengthAdjust="spacingAndGlyphs"
text-anchor="middle" opacity="0" stroke-opacity="0">C5</text>
<g class="stroked-text"><desc>C5</desc>
<path d="M24.333333 27.109580
L24.285714 27.157200
" />
<path d="M24.285714 27.157200
L24.142857 27.204819
" />
<path d="M24.142857 27.204819
L24.047619 27.204819
" />
<path d="M24.047619 27.204819
L23.904762 27.157200
" />
<path d="M23.904762 27.157200
L23.809524 27.061961
" />
<path d="M23.809524 27.061961
L23.761905 26.966723
" />
<path d="M23.761905 26.966723
L23.714286 26.776247
" />
<path d="M23.714286 26.776247
L23.714286 26.633390
" />
<path d="M23.714286 26.633390
L23.761905 26.442914
" />
<path d="M23.761905 26.442914
L23.809524 26.347676
" />
<path d="M23.809524 26.347676
L23.904762 26.252438
" />
<path d="M23.904762 26.252438
L24.047619 26.204819
" />
<path d="M24.047619 26.204819
L24.142857 26.204819
" />
<path d="M24.142857 26.204819
L24.285714 26.252438
" />
<path d="M24.285714 26.252438
L24.333333 26.300057
" />
<path d="M25.238095 26.204819
L24.761905 26.204819
" />
<path d="M24.761905 26.204819
L24.714286 26.681009
" />
<path d="M24.714286 26.681009
L24.761905 26.633390
" />
<path d="M24.761905 26.633390
L24.857143 26.585771
" />
<path d="M24.857143 26.585771
L25.095238 26.585771
" />
<path d="M25.095238 26.585771
L25.190476 26.633390
" />
<path d="M25.190476 26.633390
L25.238095 26.681009
" />
<path d="M25.238095 26.681009
L25.285714 26.776247
" />
<path d="M25.285714 26.776247
L25.285714 27.014342
" />
<path d="M25.285714 27.014342
L25.238095 27.109580
" />
<path d="M25.238095 27.109580
L25.190476 27.157200
" />
<path d="M25.190476 27.157200
L25.095238 27.204819
" />
<path d="M25.095238 27.204819
L24.857143 27.204819
" />
<path d="M24.857143 27.204819
L24.761905 27.157200
" />
<path d="M24.761905 27.157200
L24.714286 27.109580
" />
</g><text x="32.750000" y="39.000000"
textLength="2.202381" font-size="1.333333" lengthAdjust="spacingAndGlyphs"
text-anchor="middle" opacity="0" stroke-opacity="0">C3</text>
<g class="stroked-text"><desc>C3</desc>
<path d="M32.583333 38.859580
L32.535714 38.907200
" />
<path d="M32.535714 38.907200
L32.392857 38.954819
" />
<path d="M32.392857 38.954819
L32.297619 38.954819
" />
<path d="M32.297619 38.954819
L32.154762 38.907200
" />
<path d="M32.154762 38.907200
L32.059524 38.811961
" />
<path d="M32.059524 38.811961
L32.011905 38.716723
" />
<path d="M32.011905 38.716723
L31.964286 38.526247
" />
<path d="M31.964286 38.526247
L31.964286 38.383390
" />
<path d="M31.964286 38.383390
L32.011905 38.192914
" />
<path d="M32.011905 38.192914
L32.059524 38.097676
" />
<path d="M32.059524 38.097676
L32.154762 38.002438
" />
<path d="M32.154762 38.002438
L32.297619 37.954819
" />
<path d="M32.297619 37.954819
L32.392857 37.954819
" />
<path d="M32.392857 37.954819
L32.535714 38.002438
" />
<path d="M32.535714 38.002438
L32.583333 38.050057
" />
<path d="M32.916667 37.954819
L33.535714 37.954819
" />
<path d="M33.535714 37.954819
L33.202381 38.335771
" />
<path d="M33.202381 38.335771
L33.345238 38.335771
" />
<path d="M33.345238 38.335771
L33.440476 38.383390
" />
<path d="M33.440476 38.383390
L33.488095 38.431009
" />
<path d="M33.488095 38.431009
L33.535714 38.526247
" />
<path d="M33.535714 38.526247
L33.535714 38.764342
" />
<path d="M33.535714 38.764342
L33.488095 38.859580
" />
<path d="M33.488095 38.859580
L33.440476 38.907200
" />
<path d="M33.440476 38.907200
L33.345238 38.954819
" />
<path d="M33.345238 38.954819
L33.059524 38.954819
" />
<path d="M33.059524 38.954819
L32.964286 38.907200
" />
<path d="M32.964286 38.907200
L32.916667 38.859580
" />
</g><text x="51.700000" y="34.500000"
textLength="2.964286" font-size="1.333333" lengthAdjust="spacingAndGlyphs"
text-anchor="middle" opacity="0" stroke-opacity="0">TP3</text>
<g class="stroked-text"><desc>TP3</desc>
<path d="M50.438095 33.454819
L51.009523 33.454819
" />
<path d="M50.723809 34.454819
L50.723809 33.454819
" />
<path d="M51.342857 34.454819
L51.342857 33.454819
" />
<path d="M51.342857 33.454819
L51.723809 33.454819
" />
<path d="M51.723809 33.454819
L51.819047 33.502438
" />
<path d="M51.819047 33.502438
L51.866666 33.550057
" />
<path d="M51.866666 33.550057
L51.914285 33.645295
" />
<path d="M51.914285 33.645295
L51.914285 33.788152
" />
<path d="M51.914285 33.788152
L51.866666 33.883390
" />
<path d="M51.866666 33.883390
L51.819047 33.931009
" />
<path d="M51.819047 33.931009
L51.723809 33.978628
" />
<path d="M51.723809 33.978628
L51.342857 33.978628
" />
<path d="M52.247619 33.454819
L52.866666 33.454819
" />
<path d="M52.866666 33.454819
L52.533333 33.835771
" />
<path d="M52.533333 33.835771
L52.676190 33.835771
" />
<path d="M52.676190 33.835771
L52.771428 33.883390
" />
<path d="M52.771428 33.883390
L52.819047 33.931009
" />
<path d="M52.819047 33.931009
L52.866666 34.026247
" />
<path d="M52.866666 34.026247
L52.866666 34.264342
" />
<path d="M52.866666 34.264342
L52.819047 34.359580
" />
<path d="M52.819047 34.359580
L52.771428 34.407200
" />
<path d="M52.771428 34.407200
L52.676190 34.454819
" />
<path d="M52.676190 34.454819
L52.390476 34.454819
" />
<path d="M52.390476 34.454819
L52.295238 34.407200
" />
<path d="M52.295238 34.407200
L52.247619 34.359580
" />
</g><text x="27.750000" y="44.000000"
textLength="2.202381" font-size="1.333333" lengthAdjust="spacingAndGlyphs"
text-anchor="middle" opacity="0" stroke-opacity="0">C1</text>
<g class="stroked-text"><desc>C1</desc>
<path d="M27.583333 43.859580
L27.535714 43.907200
" />
<path d="M27.535714 43.907200
L27.392857 43.954819
" />
<path d="M27.392857 43.954819
L27.297619 43.954819
" />
<path d="M27.297619 43.954819
L27.154762 43.907200
" />
<path d="M27.154762 43.907200
L27.059524 43.811961
" />
<path d="M27.059524 43.811961
L27.011905 43.716723
" />
<path d="M27.011905 43.716723
L26.964286 43.526247
" />
<path d="M26.964286 43.526247
L26.964286 43.383390
" />
<path d="M26.964286 43.383390
L27.011905 43.192914
" />
<path d="M27.011905 43.192914
L27.059524 43.097676
" />
<path d="M27.059524 43.097676
L27.154762 43.002438
" />
<path d="M27.154762 43.002438
L27.297619 42.954819
" />
<path d="M27.297619 42.954819
L27.392857 42.954819
" />
<path d="M27.392857 42.954819
L27.535714 43.002438
" />
<path d="M27.535714 43.002438
L27.583333 43.050057
" />
<path d="M28.535714 43.954819
L27.964286 43.954819
" />
<path d="M28.250000 43.954819
L28.250000 42.954819
" />
<path d="M28.250000 42.954819
L28.154762 43.097676
" />
<path d="M28.154762 43.097676
L28.059524 43.192914
" />
<path d="M28.059524 43.192914
L27.964286 43.240533
" />
</g><text x="39.250000" y="59.900039"
textLength="1.852043" font-size="1.066772" lengthAdjust="spacingAndGlyphs"
text-anchor="middle" opacity="0" stroke-opacity="0">D4</text>
<g class="stroked-text"><desc>D4</desc>
<path d="M38.659466 59.862332
L38.659466 59.062253
" />
<path d="M38.659466 59.062253
L38.849961 59.062253
" />
<path d="M38.849961 59.062253
L38.964258 59.100352
" />
<path d="M38.964258 59.100352
L39.040456 59.176550
" />
<path d="M39.040456 59.176550
L39.078555 59.252748
" />
<path d="M39.078555 59.252748
L39.116654 59.405144
" />
<path d="M39.116654 59.405144
L39.116654 59.519441
" />
<path d="M39.116654 59.519441
L39.078555 59.671837
" />
<path d="M39.078555 59.671837
L39.040456 59.748035
" />
<path d="M39.040456 59.748035
L38.964258 59.824233
" />
<path d="M38.964258 59.824233
L38.849961 59.862332
" />
<path d="M38.849961 59.862332
L38.659466 59.862332
" />
<path d="M39.802436 59.328946
L39.802436 59.862332
" />
<path d="M39.611941 59.024154
L39.421446 59.595639
" />
<path d="M39.421446 59.595639
L39.916733 59.595639
" />
</g><text x="54.750000" y="60.500000"
textLength="2.059524" font-size="1.333333" lengthAdjust="spacingAndGlyphs"
text-anchor="middle" opacity="0" stroke-opacity="0">F2</text>
<g class="stroked-text"><desc>F2</desc>
<path d="M54.416666 59.931009
L54.083333 59.931009
" />
<path d="M54.083333 60.454819
L54.083333 59.454819
" />
<path d="M54.083333 59.454819
L54.559523 59.454819
" />
<path d="M54.892857 59.550057
L54.940476 59.502438
" />
<path d="M54.940476 59.502438
L55.035714 59.454819
" />
<path d="M55.035714 59.454819
L55.273809 59.454819
" />
<path d="M55.273809 59.454819
L55.369047 59.502438
" />
<path d="M55.369047 59.502438
L55.416666 59.550057
" />
<path d="M55.416666 59.550057
L55.464285 59.645295
" />
<path d="M55.464285 59.645295
L55.464285 59.740533
" />
<path d="M55.464285 59.740533
L55.416666 59.883390
" />
<path d="M55.416666 59.883390
L54.845238 60.454819
" />
<path d="M54.845238 60.454819
L55.464285 60.454819
" />
</g><text x="31.750000" y="46.500000"
textLength="3.154762" font-size="1.333333" lengthAdjust="spacingAndGlyphs"
text-anchor="middle" opacity="0" stroke-opacity="0">C14</text>
<g class="stroked-text"><desc>C14</desc>
<path d="M31.107142 46.359580
L31.059523 46.407200
" />
<path d="M31.059523 46.407200
L30.916666 46.454819
" />
<path d="M30.916666 46.454819
L30.821428 46.454819
" />
<path d="M30.821428 46.454819
L30.678571 46.407200
" />
<path d="M30.678571 46.407200
L30.583333 46.311961
" />
<path d="M30.583333 46.311961
L30.535714 46.216723
" />
<path d="M30.535714 46.216723
L30.488095 46.026247
" />
<path d="M30.488095 46.026247
L30.488095 45.883390
" />
<path d="M30.488095 45.883390
L30.535714 45.692914
" />
<path d="M30.535714 45.692914
L30.583333 45.597676
" />
<path d="M30.583333 45.597676
L30.678571 45.502438
" />
<path d="M30.678571 45.502438
L30.821428 45.454819
" />
<path d="M30.821428 45.454819
L30.916666 45.454819
" />
<path d="M30.916666 45.454819
L31.059523 45.502438
" />
<path d="M31.059523 45.502438
L31.107142 45.550057
" />
<path d="M32.059523 46.454819
L31.488095 46.454819
" />
<path d="M31.773809 46.454819
L31.773809 45.454819
" />
<path d="M31.773809 45.454819
L31.678571 45.597676
" />
<path d="M31.678571 45.597676
L31.583333 45.692914
" />
<path d="M31.583333 45.692914
L31.488095 45.740533
" />
<path d="M32.916666 45.788152
L32.916666 46.454819
" />
<path d="M32.678571 45.407200
L32.440476 46.121485
" />
<path d="M32.440476 46.121485
L33.059523 46.121485
" />
</g><text x="35.250000" y="39.000000"
textLength="3.154762" font-size="1.333333" lengthAdjust="spacingAndGlyphs"
text-anchor="middle" opacity="0" stroke-opacity="0">C13</text>
<g class="stroked-text"><desc>C13</desc>
<path d="M34.607142 38.859580
L34.559523 38.907200
" />
<path d="M34.559523 38.907200
L34.416666 38.954819
" />
<path d="M34.416666 38.954819
L34.321428 38.954819
" />
<path d="M34.321428 38.954819
L34.178571 38.907200
" />
<path d="M34.178571 38.907200
L34.083333 38.811961
" />
<path d="M34.083333 38.811961
L34.035714 38.716723
" />
<path d="M34.035714 38.716723
L33.988095 38.526247
" />
<path d="M33.988095 38.526247
L33.988095 38.383390
" />
<path d="M33.988095 38.383390
L34.035714 38.192914
" />
<path d="M34.035714 38.192914
L34.083333 38.097676
" />
<path d="M34.083333 38.097676
L34.178571 38.002438
" />
<path d="M34.178571 38.002438
L34.321428 37.954819
" />
<path d="M34.321428 37.954819
L34.416666 37.954819
" />
<path d="M34.416666 37.954819
L34.559523 38.002438
" />
<path d="M34.559523 38.002438
L34.607142 38.050057
" />
<path d="M35.559523 38.954819
L34.988095 38.954819
" />
<path d="M35.273809 38.954819
L35.273809 37.954819
" />
<path d="M35.273809 37.954819
L35.178571 38.097676
" />
<path d="M35.178571 38.097676
L35.083333 38.192914
" />
<path d="M35.083333 38.192914
L34.988095 38.240533
" />
<path d="M35.892857 37.954819
L36.511904 37.954819
" />
<path d="M36.511904 37.954819
L36.178571 38.335771
" />
<path d="M36.178571 38.335771
L36.321428 38.335771
" />
<path d="M36.321428 38.335771
L36.416666 38.383390
" />
<path d="M36.416666 38.383390
L36.464285 38.431009
" />
<path d="M36.464285 38.431009
L36.511904 38.526247
" />
<path d="M36.511904 38.526247
L36.511904 38.764342
" />
<path d="M36.511904 38.764342
L36.464285 38.859580
" />
<path d="M36.464285 38.859580
L36.416666 38.907200
" />
<path d="M36.416666 38.907200
L36.321428 38.954819
" />
<path d="M36.321428 38.954819
L36.035714 38.954819
" />
<path d="M36.035714 38.954819
L35.940476 38.907200
" />
<path d="M35.940476 38.907200
L35.892857 38.859580
" />
</g><text x="27.000000" y="47.000000"
textLength="2.202381" font-size="1.333333" lengthAdjust="spacingAndGlyphs"
text-anchor="middle" opacity="0" stroke-opacity="0">D9</text>
<g class="stroked-text"><desc>D9</desc>
<path d="M26.261905 46.954819
L26.261905 45.954819
" />
<path d="M26.261905 45.954819
L26.500000 45.954819
" />
<path d="M26.500000 45.954819
L26.642857 46.002438
" />
<path d="M26.642857 46.002438
L26.738095 46.097676
" />
<path d="M26.738095 46.097676
L26.785714 46.192914
" />
<path d="M26.785714 46.192914
L26.833333 46.383390
" />
<path d="M26.833333 46.383390
L26.833333 46.526247
" />
<path d="M26.833333 46.526247
L26.785714 46.716723
" />
<path d="M26.785714 46.716723
L26.738095 46.811961
" />
<path d="M26.738095 46.811961
L26.642857 46.907200
" />
<path d="M26.642857 46.907200
L26.500000 46.954819
" />
<path d="M26.500000 46.954819
L26.261905 46.954819
" />
<path d="M27.309524 46.954819
L27.500000 46.954819
" />
<path d="M27.500000 46.954819
L27.595238 46.907200
" />
<path d="M27.595238 46.907200
L27.642857 46.859580
" />
<path d="M27.642857 46.859580
L27.738095 46.716723
" />
<path d="M27.738095 46.716723
L27.785714 46.526247
" />
<path d="M27.785714 46.526247
L27.785714 46.145295
" />
<path d="M27.785714 46.145295
L27.738095 46.050057
" />
<path d="M27.738095 46.050057
L27.690476 46.002438
" />
<path d="M27.690476 46.002438
L27.595238 45.954819
" />
<path d="M27.595238 45.954819
L27.404762 45.954819
" />
<path d="M27.404762 45.954819
L27.309524 46.002438
" />
<path d="M27.309524 46.002438
L27.261905 46.050057
" />
<path d="M27.261905 46.050057
L27.214286 46.145295
" />
<path d="M27.214286 46.145295
L27.214286 46.383390
" />
<path d="M27.214286 46.383390
L27.261905 46.478628
" />
<path d="M27.261905 46.478628
L27.309524 46.526247
" />
<path d="M27.309524 46.526247
L27.404762 46.573866
" />
<path d="M27.404762 46.573866
L27.595238 46.573866
" />
<path d="M27.595238 46.573866
L27.690476 46.526247
" />
<path d="M27.690476 46.526247
L27.738095 46.478628
" />
<path d="M27.738095 46.478628
L27.785714 46.383390
" />
</g><text x="19.250000" y="29.407500"
textLength="2.202381" font-size="1.333333" lengthAdjust="spacingAndGlyphs"
text-anchor="middle" opacity="0" stroke-opacity="0">C8</text>
<g class="stroked-text"><desc>C8</desc>
<path d="M19.083333 29.267080
L19.035714 29.314700
" />
<path d="M19.035714 29.314700
L18.892857 29.362319
" />
<path d="M18.892857 29.362319
L18.797619 29.362319
" />
<path d="M18.797619 29.362319
L18.654762 29.314700
" />
<path d="M18.654762 29.314700
L18.559524 29.219461
" />
<path d="M18.559524 29.219461
L18.511905 29.124223
" />
<path d="M18.511905 29.124223
L18.464286 28.933747
" />
<path d="M18.464286 28.933747
L18.464286 28.790890
" />
<path d="M18.464286 28.790890
L18.511905 28.600414
" />
<path d="M18.511905 28.600414
L18.559524 28.505176
" />
<path d="M18.559524 28.505176
L18.654762 28.409938
" />
<path d="M18.654762 28.409938
L18.797619 28.362319
" />
<path d="M18.797619 28.362319
L18.892857 28.362319
" />
<path d="M18.892857 28.362319
L19.035714 28.409938
" />
<path d="M19.035714 28.409938
L19.083333 28.457557
" />
<path d="M19.654762 28.790890
L19.559524 28.743271
" />
<path d="M19.559524 28.743271
L19.511905 28.695652
" />
<path d="M19.511905 28.695652
L19.464286 28.600414
" />
<path d="M19.464286 28.600414
L19.464286 28.552795
" />
<path d="M19.464286 28.552795
L19.511905 28.457557
" />
<path d="M19.511905 28.457557
L19.559524 28.409938
" />
<path d="M19.559524 28.409938
L19.654762 28.362319
" />
<path d="M19.654762 28.362319
L19.845238 28.362319
" />
<path d="M19.845238 28.362319
L19.940476 28.409938
" />
<path d="M19.940476 28.409938
L19.988095 28.457557
" />
<path d="M19.988095 28.457557
L20.035714 28.552795
" />
<path d="M20.035714 28.552795
L20.035714 28.600414
" />
<path d="M20.035714 28.600414
L19.988095 28.695652
" />
<path d="M19.988095 28.695652
L19.940476 28.743271
" />
<path d="M19.940476 28.743271
L19.845238 28.790890
" />
<path d="M19.845238 28.790890
L19.654762 28.790890
" />
<path d="M19.654762 28.790890
L19.559524 28.838509
" />
<path d="M19.559524 28.838509
L19.511905 28.886128
" />
<path d="M19.511905 28.886128
L19.464286 28.981366
" />
<path d="M19.464286 28.981366
L19.464286 29.171842
" />
<path d="M19.464286 29.171842
L19.511905 29.267080
" />
<path d="M19.511905 29.267080
L19.559524 29.314700
" />
<path d="M19.559524 29.314700
L19.654762 29.362319
" />
<path d="M19.654762 29.362319
L19.845238 29.362319
" />
<path d="M19.845238 29.362319
L19.940476 29.314700
" />
<path d="M19.940476 29.314700
L19.988095 29.267080
" />
<path d="M19.988095 29.267080
L20.035714 29.171842
" />
<path d="M20.035714 29.171842
L20.035714 28.981366
" />
<path d="M20.035714 28.981366
L19.988095 28.886128
" />
<path d="M19.988095 28.886128
L19.940476 28.838509
" />
<path d="M19.940476 28.838509
L19.845238 28.790890
" />
</g><g transform="rotate(-90.000000 36.250000 50.000000)">
<text x="36.250000" y="50.500000"
textLength="3.154762" font-size="1.333333" lengthAdjust="spacingAndGlyphs"
text-anchor="middle" opacity="0" stroke-opacity="0">C15</text>
</g>
<g class="stroked-text"><desc>C15</desc>
<path d="M36.609580 50.642857
L36.657200 50.690476
" />
<path d="M36.657200 50.690476
L36.704819 50.833333
" />
<path d="M36.704819 50.833333
L36.704819 50.928571
" />
<path d="M36.704819 50.928571
L36.657200 51.071428
" />
<path d="M36.657200 51.071428
L36.561961 51.166666
" />
<path d="M36.561961 51.166666
L36.466723 51.214285
" />
<path d="M36.466723 51.214285
L36.276247 51.261904
" />
<path d="M36.276247 51.261904
L36.133390 51.261904
" />
<path d="M36.133390 51.261904
L35.942914 51.214285
" />
<path d="M35.942914 51.214285
L35.847676 51.166666
" />
<path d="M35.847676 51.166666
L35.752438 51.071428
" />
<path d="M35.752438 51.071428
L35.704819 50.928571
" />
<path d="M35.704819 50.928571
L35.704819 50.833333
" />
<path d="M35.704819 50.833333
L35.752438 50.690476
" />
<path d="M35.752438 50.690476
L35.800057 50.642857
" />
<path d="M36.704819 49.690476
L36.704819 50.261904
" />
<path d="M36.704819 49.976190
L35.704819 49.976190
" />
<path d="M35.704819 49.976190
L35.847676 50.071428
" />
<path d="M35.847676 50.071428
L35.942914 50.166666
" />
<path d="M35.942914 50.166666
L35.990533 50.261904
" />
<path d="M35.704819 48.785714
L35.704819 49.261904
" />
<path d="M35.704819 49.261904
L36.181009 49.309523
" />
<path d="M36.181009 49.309523
L36.133390 49.261904
" />
<path d="M36.133390 49.261904
L36.085771 49.166666
" />
<path d="M36.085771 49.166666
L36.085771 48.928571
" />
<path d="M36.085771 48.928571
L36.133390 48.833333
" />
<path d="M36.133390 48.833333
L36.181009 48.785714
" />
<path d="M36.181009 48.785714
L36.276247 48.738095
" />
<path d="M36.276247 48.738095
L36.514342 48.738095
" />
<path d="M36.514342 48.738095
L36.609580 48.785714
" />
<path d="M36.609580 48.785714
L36.657200 48.833333
" />
<path d="M36.657200 48.833333
L36.704819 48.928571
" />
<path d="M36.704819 48.928571
L36.704819 49.166666
" />
<path d="M36.704819 49.166666
L36.657200 49.261904
" />
<path d="M36.657200 49.261904
L36.609580 49.309523
" />
</g><text x="32.250000" y="60.305000"
textLength="1.964286" font-size="1.333333" lengthAdjust="spacingAndGlyphs"
text-anchor="middle" opacity="0" stroke-opacity="0">J2</text>
<g class="stroked-text"><desc>J2</desc>
<path d="M31.916666 59.259819
L31.916666 59.974104
" />
<path d="M31.916666 59.974104
L31.869047 60.116961
" />
<path d="M31.869047 60.116961
L31.773809 60.212200
" />
<path d="M31.773809 60.212200
L31.630952 60.259819
" />
<path d="M31.630952 60.259819
L31.535714 60.259819
" />
<path d="M32.345238 59.355057
L32.392857 59.307438
" />
<path d="M32.392857 59.307438
L32.488095 59.259819
" />
<path d="M32.488095 59.259819
L32.726190 59.259819
" />
<path d="M32.726190 59.259819
L32.821428 59.307438
" />
<path d="M32.821428 59.307438
L32.869047 59.355057
" />
<path d="M32.869047 59.355057
L32.916666 59.450295
" />
<path d="M32.916666 59.450295
L32.916666 59.545533
" />
<path d="M32.916666 59.545533
L32.869047 59.688390
" />
<path d="M32.869047 59.688390
L32.297619 60.259819
" />
<path d="M32.297619 60.259819
L32.916666 60.259819
" />
</g><g transform="rotate(-90.000000 22.100000 33.250000)">
<text x="22.100000" y="33.750000"
textLength="2.059524" font-size="1.333333" lengthAdjust="spacingAndGlyphs"
text-anchor="middle" opacity="0" stroke-opacity="0">Y1</text>
</g>
<g class="stroked-text"><desc>Y1</desc>
<path d="M22.078628 33.726190
L22.554819 33.726190
" />
<path d="M21.554819 34.059523
L22.078628 33.726190
" />
<path d="M22.078628 33.726190
L21.554819 33.392857
" />
<path d="M22.554819 32.535714
L22.554819 33.107142
" />
<path d="M22.554819 32.821428
L21.554819 32.821428
" />
<path d="M21.554819 32.821428
L21.697676 32.916666
" />
<path d="M21.697676 32.916666
L21.792914 33.011904
" />
<path d="M21.792914 33.011904
L21.840533 33.107142
" />
</g><text x="18.037500" y="52.250000"
textLength="2.202381" font-size="1.333333" lengthAdjust="spacingAndGlyphs"
text-anchor="middle" opacity="0" stroke-opacity="0">R3</text>
<g class="stroked-text"><desc>R3</desc>
<path d="M17.870833 52.204819
L17.537500 51.728628
" />
<path d="M17.299405 52.204819
L17.299405 51.204819
" />
<path d="M17.299405 51.204819
L17.680357 51.204819
" />
<path d="M17.680357 51.204819
L17.775595 51.252438
" />
<path d="M17.775595 51.252438
L17.823214 51.300057
" />
<path d="M17.823214 51.300057
L17.870833 51.395295
" />
<path d="M17.870833 51.395295
L17.870833 51.538152
" />
<path d="M17.870833 51.538152
L17.823214 51.633390
" />
<path d="M17.823214 51.633390
L17.775595 51.681009
" />
<path d="M17.775595 51.681009
L17.680357 51.728628
" />
<path d="M17.680357 51.728628
L17.299405 51.728628
" />
<path d="M18.204167 51.204819
L18.823214 51.204819
" />
<path d="M18.823214 51.204819
L18.489881 51.585771
" />
<path d="M18.489881 51.585771
L18.632738 51.585771
" />
<path d="M18.632738 51.585771
L18.727976 51.633390
" />
<path d="M18.727976 51.633390
L18.775595 51.681009
" />
<path d="M18.775595 51.681009
L18.823214 51.776247
" />
<path d="M18.823214 51.776247
L18.823214 52.014342
" />
<path d="M18.823214 52.014342
L18.775595 52.109580
" />
<path d="M18.775595 52.109580
L18.727976 52.157200
" />
<path d="M18.727976 52.157200
L18.632738 52.204819
" />
<path d="M18.632738 52.204819
L18.347024 52.204819
" />
<path d="M18.347024 52.204819
L18.251786 52.157200
" />
<path d="M18.251786 52.157200
L18.204167 52.109580
" />
</g><text x="15.650000" y="57.000000"
textLength="1.964286" font-size="1.333333" lengthAdjust="spacingAndGlyphs"
text-anchor="middle" opacity="0" stroke-opacity="0">J3</text>
<g class="stroked-text"><desc>J3</desc>
<path d="M15.316666 55.954819
L15.316666 56.669104
" />
<path d="M15.316666 56.669104
L15.269047 56.811961
" />
<path d="M15.269047 56.811961
L15.173809 56.907200
" />
<path d="M15.173809 56.907200
L15.030952 56.954819
" />
<path d="M15.030952 56.954819
L14.935714 56.954819
" />
<path d="M15.697619 55.954819
L16.316666 55.954819
" />
<path d="M16.316666 55.954819
L15.983333 56.335771
" />
<path d="M15.983333 56.335771
L16.126190 56.335771
" />
<path d="M16.126190 56.335771
L16.221428 56.383390
" />
<path d="M16.221428 56.383390
L16.269047 56.431009
" />
<path d="M16.269047 56.431009
L16.316666 56.526247
" />
<path d="M16.316666 56.526247
L16.316666 56.764342
" />
<path d="M16.316666 56.764342
L16.269047 56.859580
" />
<path d="M16.269047 56.859580
L16.221428 56.907200
" />
<path d="M16.221428 56.907200
L16.126190 56.954819
" />
<path d="M16.126190 56.954819
L15.840476 56.954819
" />
<path d="M15.840476 56.954819
L15.745238 56.907200
" />
<path d="M15.745238 56.907200
L15.697619 56.859580
" />
</g><text x="42.750000" y="34.500000"
textLength="2.964286" font-size="1.333333" lengthAdjust="spacingAndGlyphs"
text-anchor="middle" opacity="0" stroke-opacity="0">TP1</text>
<g class="stroked-text"><desc>TP1</desc>
<path d="M41.488095 33.454819
L42.059523 33.454819
" />
<path d="M41.773809 34.454819
L41.773809 33.454819
" />
<path d="M42.392857 34.454819
L42.392857 33.454819
" />
<path d="M42.392857 33.454819
L42.773809 33.454819
" />
<path d="M42.773809 33.454819
L42.869047 33.502438
" />
<path d="M42.869047 33.502438
L42.916666 33.550057
" />
<path d="M42.916666 33.550057
L42.964285 33.645295
" />
<path d="M42.964285 33.645295
L42.964285 33.788152
" />
<path d="M42.964285 33.788152
L42.916666 33.883390
" />
<path d="M42.916666 33.883390
L42.869047 33.931009
" />
<path d="M42.869047 33.931009
L42.773809 33.978628
" />
<path d="M42.773809 33.978628
L42.392857 33.978628
" />
<path d="M43.916666 34.454819
L43.345238 34.454819
" />
<path d="M43.630952 34.454819
L43.630952 33.454819
" />
<path d="M43.630952 33.454819
L43.535714 33.597676
" />
<path d="M43.535714 33.597676
L43.440476 33.692914
" />
<path d="M43.440476 33.692914
L43.345238 33.740533
" />
</g><g transform="rotate(-90.000000 29.180000 26.250000)">
<text x="29.180000" y="26.750000"
textLength="2.202381" font-size="1.333333" lengthAdjust="spacingAndGlyphs"
text-anchor="middle" opacity="0" stroke-opacity="0">R1</text>
</g>
<g class="stroked-text"><desc>R1</desc>
<path d="M29.634819 26.416666
L29.158628 26.749999
" />
<path d="M29.634819 26.988094
L28.634819 26.988094
" />
<path d="M28.634819 26.988094
L28.634819 26.607142
" />
<path d="M28.634819 26.607142
L28.682438 26.511904
" />
<path d="M28.682438 26.511904
L28.730057 26.464285
" />
<path d="M28.730057 26.464285
L28.825295 26.416666
" />
<path d="M28.825295 26.416666
L28.968152 26.416666
" />
<path d="M28.968152 26.416666
L29.063390 26.464285
" />
<path d="M29.063390 26.464285
L29.111009 26.511904
" />
<path d="M29.111009 26.511904
L29.158628 26.607142
" />
<path d="M29.158628 26.607142
L29.158628 26.988094
" />
<path d="M29.634819 25.464285
L29.634819 26.035713
" />
<path d="M29.634819 25.749999
L28.634819 25.749999
" />
<path d="M28.634819 25.749999
L28.777676 25.845237
" />
<path d="M28.777676 25.845237
L28.872914 25.940475
" />
<path d="M28.872914 25.940475
L28.920533 26.035713
" />
</g><text x="33.000000" y="29.750000"
textLength="2.250000" font-size="1.333333" lengthAdjust="spacingAndGlyphs"
text-anchor="middle" opacity="0" stroke-opacity="0">U1</text>
<g class="stroked-text"><desc>U1</desc>
<path d="M32.238095 28.704819
L32.238095 29.514342
" />
<path d="M32.238095 29.514342
L32.285714 29.609580
" />
<path d="M32.285714 29.609580
L32.333333 29.657200
" />
<path d="M32.333333 29.657200
L32.428571 29.704819
" />
<path d="M32.428571 29.704819
L32.619047 29.704819
" />
<path d="M32.619047 29.704819
L32.714285 29.657200
" />
<path d="M32.714285 29.657200
L32.761904 29.609580
" />
<path d="M32.761904 29.609580
L32.809523 29.514342
" />
<path d="M32.809523 29.514342
L32.809523 28.704819
" />
<path d="M33.809523 29.704819
L33.238095 29.704819
" />
<path d="M33.523809 29.704819
L33.523809 28.704819
" />
<path d="M33.523809 28.704819
L33.428571 28.847676
" />
<path d="M33.428571 28.847676
L33.333333 28.942914
" />
<path d="M33.333333 28.942914
L33.238095 28.990533
" />
</g><text x="40.500000" y="39.250000"
textLength="2.250000" font-size="1.333333" lengthAdjust="spacingAndGlyphs"
text-anchor="middle" opacity="0" stroke-opacity="0">U2</text>
<g class="stroked-text"><desc>U2</desc>
<path d="M39.738095 38.204819
L39.738095 39.014342
" />
<path d="M39.738095 39.014342
L39.785714 39.109580
" />
<path d="M39.785714 39.109580
L39.833333 39.157200
" />
<path d="M39.833333 39.157200
L39.928571 39.204819
" />
<path d="M39.928571 39.204819
L40.119047 39.204819
" />
<path d="M40.119047 39.204819
L40.214285 39.157200
" />
<path d="M40.214285 39.157200
L40.261904 39.109580
" />
<path d="M40.261904 39.109580
L40.309523 39.014342
" />
<path d="M40.309523 39.014342
L40.309523 38.204819
" />
<path d="M40.738095 38.300057
L40.785714 38.252438
" />
<path d="M40.785714 38.252438
L40.880952 38.204819
" />
<path d="M40.880952 38.204819
L41.119047 38.204819
" />
<path d="M41.119047 38.204819
L41.214285 38.252438
" />
<path d="M41.214285 38.252438
L41.261904 38.300057
" />
<path d="M41.261904 38.300057
L41.309523 38.395295
" />
<path d="M41.309523 38.395295
L41.309523 38.490533
" />
<path d="M41.309523 38.490533
L41.261904 38.633390
" />
<path d="M41.261904 38.633390
L40.690476 39.204819
" />
<path d="M40.690476 39.204819
L41.309523 39.204819
" />
</g><g transform="rotate(-90.000000 42.250000 26.087500)">
<text x="42.250000" y="26.587500"
textLength="1.964286" font-size="1.333333" lengthAdjust="spacingAndGlyphs"
text-anchor="middle" opacity="0" stroke-opacity="0">J1</text>
</g>
<g class="stroked-text"><desc>J1</desc>
<path d="M41.704819 26.420833
L42.419104 26.420833
" />
<path d="M42.419104 26.420833
L42.561961 26.468452
" />
<path d="M42.561961 26.468452
L42.657200 26.563690
" />
<path d="M42.657200 26.563690
L42.704819 26.706547
" />
<path d="M42.704819 26.706547
L42.704819 26.801785
" />
<path d="M42.704819 25.420833
L42.704819 25.992261
" />
<path d="M42.704819 25.706547
L41.704819 25.706547
" />
<path d="M41.704819 25.706547
L41.847676 25.801785
" />
<path d="M41.847676 25.801785
L41.942914 25.897023
" />
<path d="M41.942914 25.897023
L41.990533 25.992261
" />
</g><text x="39.250000" y="49.250000"
textLength="2.202381" font-size="1.333333" lengthAdjust="spacingAndGlyphs"
text-anchor="middle" opacity="0" stroke-opacity="0">D8</text>
<g class="stroked-text"><desc>D8</desc>
<path d="M38.511905 49.204819
L38.511905 48.204819
" />
<path d="M38.511905 48.204819
L38.750000 48.204819
" />
<path d="M38.750000 48.204819
L38.892857 48.252438
" />
<path d="M38.892857 48.252438
L38.988095 48.347676
" />
<path d="M38.988095 48.347676
L39.035714 48.442914
" />
<path d="M39.035714 48.442914
L39.083333 48.633390
" />
<path d="M39.083333 48.633390
L39.083333 48.776247
" />
<path d="M39.083333 48.776247
L39.035714 48.966723
" />
<path d="M39.035714 48.966723
L38.988095 49.061961
" />
<path d="M38.988095 49.061961
L38.892857 49.157200
" />
<path d="M38.892857 49.157200
L38.750000 49.204819
" />
<path d="M38.750000 49.204819
L38.511905 49.204819
" />
<path d="M39.654762 48.633390
L39.559524 48.585771
" />
<path d="M39.559524 48.585771
L39.511905 48.538152
" />
<path d="M39.511905 48.538152
L39.464286 48.442914
" />
<path d="M39.464286 48.442914
L39.464286 48.395295
" />
<path d="M39.464286 48.395295
L39.511905 48.300057
" />
<path d="M39.511905 48.300057
L39.559524 48.252438
" />
<path d="M39.559524 48.252438
L39.654762 48.204819
" />
<path d="M39.654762 48.204819
L39.845238 48.204819
" />
<path d="M39.845238 48.204819
L39.940476 48.252438
" />
<path d="M39.940476 48.252438
L39.988095 48.300057
" />
<path d="M39.988095 48.300057
L40.035714 48.395295
" />
<path d="M40.035714 48.395295
L40.035714 48.442914
" />
<path d="M40.035714 48.442914
L39.988095 48.538152
" />
<path d="M39.988095 48.538152
L39.940476 48.585771
" />
<path d="M39.940476 48.585771
L39.845238 48.633390
" />
<path d="M39.845238 48.633390
L39.654762 48.633390
" />
<path d="M39.654762 48.633390
L39.559524 48.681009
" />
<path d="M39.559524 48.681009
L39.511905 48.728628
" />
<path d="M39.511905 48.728628
L39.464286 48.823866
" />
<path d="M39.464286 48.823866
L39.464286 49.014342
" />
<path d="M39.464286 49.014342
L39.511905 49.109580
" />
<path d="M39.511905 49.109580
L39.559524 49.157200
" />
<path d="M39.559524 49.157200
L39.654762 49.204819
" />
<path d="M39.654762 49.204819
L39.845238 49.204819
" />
<path d="M39.845238 49.204819
L39.940476 49.157200
" />
<path d="M39.940476 49.157200
L39.988095 49.109580
" />
<path d="M39.988095 49.109580
L40.035714 49.014342
" />
<path d="M40.035714 49.014342
L40.035714 48.823866
" />
<path d="M40.035714 48.823866
L39.988095 48.728628
" />
<path d="M39.988095 48.728628
L39.940476 48.681009
" />
<path d="M39.940476 48.681009
L39.845238 48.633390
" />
</g></g>
<g style="fill:none; 
stroke:#000000; stroke-width:0.120000; stroke-opacity:1; 
stroke-linecap:round; stroke-linejoin:round;">
<circle cx="40.000000" cy="31.700000" r="0.700000" /> 
<path d="M13.162500 39.750000
L13.162500 44.250000
" />
<path d="M15.662500 45.500000
L17.162500 45.500000
" />
<path d="M17.162500 38.500000
L15.662500 38.500000
" />
<path d="M19.662500 44.250000
L19.662500 39.750000
" />
<path d="M59.170000 57.210000
L67.330000 57.210000
" />
<path d="M59.170000 57.250000
L67.330000 57.250000
" />
<path d="M59.171000 57.170000
L67.329000 57.170000
" />
<path d="M59.172000 57.130000
L67.328000 57.130000
" />
<path d="M59.173000 57.090000
L67.327000 57.090000
" />
<path d="M59.175000 57.050000
L67.325000 57.050000
" />
<path d="M59.177000 57.010000
L67.323000 57.010000
" />
<path d="M59.180000 56.970000
L67.320000 56.970000
" />
<path d="M59.182000 56.930000
L67.318000 56.930000
" />
<path d="M59.186000 56.890000
L67.314000 56.890000
" />
<path d="M59.189000 56.850000
L67.311000 56.850000
" />
<path d="M59.194000 56.810000
L67.306000 56.810000
" />
<path d="M59.198000 56.770000
L67.302000 56.770000
" />
<path d="M59.203000 56.730000
L67.297000 56.730000
" />
<path d="M59.208000 56.690000
L67.292000 56.690000
" />
<path d="M59.214000 56.650000
L67.286000 56.650000
" />
<path d="M59.220000 56.610000
L67.280000 56.610000
" />
<path d="M59.227000 56.570000
L67.273000 56.570000
" />
<path d="M59.233000 56.530000
L62.210000 56.530000
" />
<path d="M59.241000 56.490000
L62.210000 56.490000
" />
<path d="M59.248000 56.450000
L62.210000 56.450000
" />
<path d="M59.257000 56.410000
L62.210000 56.410000
" />
<path d="M59.265000 56.370000
L62.210000 56.370000
" />
<path d="M59.274000 56.330000
L62.210000 56.330000
" />
<path d="M59.283000 56.290000
L62.210000 56.290000
" />
<path d="M59.293000 56.250000
L62.210000 56.250000
" />
<path d="M59.303000 56.210000
L62.210000 56.210000
" />
<path d="M59.314000 56.170000
L62.210000 56.170000
" />
<path d="M59.325000 56.130000
L62.210000 56.130000
" />
<path d="M59.337000 56.090000
L62.210000 56.090000
" />
<path d="M59.349000 56.050000
L62.210000 56.050000
" />
<path d="M59.361000 56.010000
L62.210000 56.010000
" />
<path d="M59.374000 55.970000
L62.210000 55.970000
" />
<path d="M59.387000 55.930000
L62.210000 55.930000
" />
<path d="M59.401000 55.890000
L62.210000 55.890000
" />
<path d="M59.415000 55.850000
L62.210000 55.850000
" />
<path d="M59.430000 55.810000
L62.210000 55.810000
" />
<path d="M59.445000 55.770000
L62.210000 55.770000
" />
<path d="M59.461000 55.730000
L62.210000 55.730000
" />
<path d="M59.477000 55.690000
L62.210000 55.690000
" />
<path d="M59.493000 55.650000
L62.210000 55.650000
" />
<path d="M59.510000 55.610000
L62.210000 55.610000
" />
<path d="M59.528000 55.570000
L62.210000 55.570000
" />
<path d="M59.546000 55.530000
L62.210000 55.530000
" />
<path d="M59.565000 55.490000
L62.210000 55.490000
" />
<path d="M59.584000 55.450000
L62.210000 55.450000
" />
<path d="M59.604000 55.410000
L62.210000 55.410000
" />
<path d="M59.624000 55.370000
L62.210000 55.370000
" />
<path d="M59.645000 55.330000
L62.210000 55.330000
" />
<path d="M59.666000 55.290000
L62.210000 55.290000
" />
<path d="M59.688000 55.250000
L62.210000 55.250000
" />
<path d="M59.711000 55.210000
L62.210000 55.210000
" />
<path d="M59.734000 55.170000
L62.210000 55.170000
" />
<path d="M59.757000 55.130000
L62.210000 55.130000
" />
<path d="M59.782000 55.090000
L62.210000 55.090000
" />
<path d="M59.807000 55.050000
L62.210000 55.050000
" />
<path d="M59.832000 55.010000
L62.210000 55.010000
" />
<path d="M59.858000 54.970000
L62.210000 54.970000
" />
<path d="M59.885000 54.930000
L62.210000 54.930000
" />
<path d="M59.913000 54.890000
L62.210000 54.890000
" />
<path d="M59.941000 54.850000
L62.210000 54.850000
" />
<path d="M59.970000 54.810000
L62.210000 54.810000
" />
<path d="M60.000000 54.770000
L62.210000 54.770000
" />
<path d="M60.031000 54.730000
L62.210000 54.730000
" />
<path d="M60.062000 54.690000
L62.210000 54.690000
" />
<path d="M60.094000 54.650000
L62.210000 54.650000
" />
<path d="M60.127000 54.610000
L62.210000 54.610000
" />
<path d="M60.161000 54.570000
L62.210000 54.570000
" />
<path d="M60.195000 54.530000
L62.210000 54.530000
" />
<path d="M60.231000 54.490000
L62.210000 54.490000
" />
<path d="M60.268000 54.450000
L66.232000 54.450000
" />
<path d="M60.305000 54.410000
L66.195000 54.410000
" />
<path d="M60.344000 54.370000
L66.156000 54.370000
" />
<path d="M60.383000 54.330000
L66.117000 54.330000
" />
<path d="M60.424000 54.290000
L66.076000 54.290000
" />
<path d="M60.466000 54.250000
L66.034000 54.250000
" />
<path d="M60.509000 54.210000
L65.991000 54.210000
" />
<path d="M60.535000 61.259698
L61.335000 61.259698
" />
<path d="M60.554000 54.170000
L65.946000 54.170000
" />
<path d="M60.599000 54.130000
L65.901000 54.130000
" />
<path d="M60.646000 54.090000
L65.854000 54.090000
" />
<path d="M60.695000 54.050000
L65.805000 54.050000
" />
<path d="M60.745000 54.010000
L65.755000 54.010000
" />
<path d="M60.797000 53.970000
L65.703000 53.970000
" />
<path d="M60.850000 53.930000
L65.650000 53.930000
" />
<path d="M60.906000 53.890000
L65.594000 53.890000
" />
<path d="M60.935000 61.659698
L60.935000 60.859698
" />
<path d="M60.963000 53.850000
L65.537000 53.850000
" />
<path d="M61.023000 53.810000
L65.477000 53.810000
" />
<path d="M61.085000 53.770000
L65.415000 53.770000
" />
<path d="M61.149000 53.730000
L65.351000 53.730000
" />
<path d="M61.216000 53.690000
L65.284000 53.690000
" />
<path d="M61.286000 53.650000
L65.214000 53.650000
" />
<path d="M61.360000 53.610000
L65.140000 53.610000
" />
<path d="M61.437000 53.570000
L65.063000 53.570000
" />
<path d="M61.519000 53.530000
L64.981000 53.530000
" />
<path d="M61.606000 53.490000
L64.894000 53.490000
" />
<path d="M61.698000 53.450000
L64.802000 53.450000
" />
<path d="M61.797000 53.410000
L64.703000 53.410000
" />
<path d="M61.904000 53.370000
L64.596000 53.370000
" />
<path d="M62.022000 53.330000
L64.478000 53.330000
" />
<path d="M62.153000 53.290000
L64.347000 53.290000
" />
<path d="M62.303000 53.250000
L64.197000 53.250000
" />
<path d="M62.482000 53.210000
L64.018000 53.210000
" />
<path d="M62.717000 53.170000
L63.783000 53.170000
" />
<path d="M64.290000 54.490000
L66.269000 54.490000
" />
<path d="M64.290000 54.530000
L66.305000 54.530000
" />
<path d="M64.290000 54.570000
L66.339000 54.570000
" />
<path d="M64.290000 54.610000
L66.373000 54.610000
" />
<path d="M64.290000 54.650000
L66.406000 54.650000
" />
<path d="M64.290000 54.690000
L66.438000 54.690000
" />
<path d="M64.290000 54.730000
L66.469000 54.730000
" />
<path d="M64.290000 54.770000
L66.500000 54.770000
" />
<path d="M64.290000 54.810000
L66.530000 54.810000
" />
<path d="M64.290000 54.850000
L66.559000 54.850000
" />
<path d="M64.290000 54.890000
L66.587000 54.890000
" />
<path d="M64.290000 54.930000
L66.615000 54.930000
" />
<path d="M64.290000 54.970000
L66.642000 54.970000
" />
<path d="M64.290000 55.010000
L66.668000 55.010000
" />
<path d="M64.290000 55.050000
L66.693000 55.050000
" />
<path d="M64.290000 55.090000
L66.718000 55.090000
" />
<path d="M64.290000 55.130000
L66.743000 55.130000
" />
<path d="M64.290000 55.170000
L66.766000 55.170000
" />
<path d="M64.290000 55.210000
L66.789000 55.210000
" />
<path d="M64.290000 55.250000
L66.812000 55.250000
" />
<path d="M64.290000 55.290000
L66.834000 55.290000
" />
<path d="M64.290000 55.330000
L66.855000 55.330000
" />
<path d="M64.290000 55.370000
L66.876000 55.370000
" />
<path d="M64.290000 55.410000
L66.896000 55.410000
" />
<path d="M64.290000 55.450000
L66.916000 55.450000
" />
<path d="M64.290000 55.490000
L66.935000 55.490000
" />
<path d="M64.290000 55.530000
L66.954000 55.530000
" />
<path d="M64.290000 55.570000
L66.972000 55.570000
" />
<path d="M64.290000 55.610000
L66.990000 55.610000
" />
<path d="M64.290000 55.650000
L67.007000 55.650000
" />
<path d="M64.290000 55.690000
L67.023000 55.690000
" />
<path d="M64.290000 55.730000
L67.039000 55.730000
" />
<path d="M64.290000 55.770000
L67.055000 55.770000
" />
<path d="M64.290000 55.810000
L67.070000 55.810000
" />
<path d="M64.290000 55.850000
L67.085000 55.850000
" />
<path d="M64.290000 55.890000
L67.099000 55.890000
" />
<path d="M64.290000 55.930000
L67.113000 55.930000
" />
<path d="M64.290000 55.970000
L67.126000 55.970000
" />
<path d="M64.290000 56.010000
L67.139000 56.010000
" />
<path d="M64.290000 56.050000
L67.151000 56.050000
" />
<path d="M64.290000 56.090000
L67.163000 56.090000
" />
<path d="M64.290000 56.130000
L67.175000 56.130000
" />
<path d="M64.290000 56.170000
L67.186000 56.170000
" />
<path d="M64.290000 56.210000
L67.197000 56.210000
" />
<path d="M64.290000 56.250000
L67.207000 56.250000
" />
<path d="M64.290000 56.290000
L67.217000 56.290000
" />
<path d="M64.290000 56.330000
L67.226000 56.330000
" />
<path d="M64.290000 56.370000
L67.235000 56.370000
" />
<path d="M64.290000 56.410000
L67.243000 56.410000
" />
<path d="M64.290000 56.450000
L67.252000 56.450000
" />
<path d="M64.290000 56.490000
L67.259000 56.490000
" />
<path d="M64.290000 56.530000
L67.267000 56.530000
" />
<circle cx="63.250000" cy="57.250000" r="4.120000" /> 
<path d="M13.002500 46.852500
L13.002500 48.322500
" />
<path d="M13.002500 48.322500
L15.462500 48.322500
" />
<path d="M15.462500 46.852500
L13.002500 46.852500
" />
<path d="M30.416233 43.077500
L30.758767 43.077500
" />
<path d="M30.416233 44.097500
L30.758767 44.097500
" />
<path d="M35.727500 28.087500
L35.727500 30.087500
" />
<path d="M35.727500 28.087500
L39.737500 28.087500
" />
<path d="M35.727500 30.087500
L39.737500 30.087500
" />
<path d="M21.890000 30.229664
L21.890000 30.445336
" />
<path d="M22.610000 30.229664
L22.610000 30.445336
" />
<path d="M38.700000 61.700000
L61.300000 61.700000
" />
<path d="M38.700000 64.500000
L38.700000 61.700000
" />
<path d="M38.700000 71.300000
L38.700000 68.500000
" />
<path d="M38.700000 71.300000
L61.300000 71.300000
" />
<path d="M61.300000 64.500000
L61.300000 61.700000
" />
<path d="M61.300000 71.300000
L61.300000 68.500000
" />
<path d="M19.103733 35.827500
L19.396267 35.827500
" />
<path d="M19.103733 36.847500
L19.396267 36.847500
" />
</g>
<g style="fill:none; 
stroke:#000000; stroke-width:0.100000; stroke-opacity:1; 
stroke-linecap:round; stroke-linejoin:round;">
<path d="M41.250000 51.350000
L41.250000 58.850000
" />
<path d="M49.250000 51.350000
L50.250000 52.350000
" />
<path d="M50.250000 52.350000
L50.250000 57.850000
" />
<path d="M50.250000 57.850000
L49.250000 58.850000
" />
</g>
<g style="fill:none; 
stroke:#000000; stroke-width:0.120000; stroke-opacity:1; 
stroke-linecap:round; stroke-linejoin:round;">
<path d="M33.890000 31.445336
L33.890000 31.229664
" />
<path d="M34.610000 31.445336
L34.610000 31.229664
" />
<path style="fill:#000000; fill-opacity:1.000000; stroke:none;fill-rule:evenodd;"
d="M 331.082504,69.638455
331.227067,69.678117
331.363189,69.740637
331.488334,69.825141
331.599963,69.930757
331.695538,70.056614
331.757167,70.167971
331.801936,70.275419
331.829829,70.377821
331.843388,70.486726
331.845716,70.570371
331.839547,70.698866
331.819844,70.812502
331.784199,70.921883
331.747168,71.004246
331.666169,71.137974
331.565011,71.254712
331.446678,71.352852
331.314156,71.430785
331.170431,71.486902
331.018486,71.519597
330.861308,71.527260
330.786564,71.521767
330.632309,71.490860
330.488039,71.435617
330.355975,71.358384
330.238341,71.261509
330.137358,71.147340
330.055250,71.018225
329.994239,70.876510
329.956548,70.724543
329.946359,70.634375
329.947200,70.567307
330.399202,70.567307
330.411099,70.689862
330.447154,70.798927
330.506689,70.893484
330.589029,70.972513
330.693496,71.034995
330.716680,71.045287
330.806551,71.070257
330.907516,71.076976
331.009972,71.065734
331.104315,71.036822
331.112218,71.033300
331.208499,70.975106
331.285655,70.900162
331.343303,70.812238
331.381060,70.715102
331.398542,70.612524
331.395367,70.508273
331.371150,70.406119
331.325510,70.309831
331.258061,70.223178
331.199805,70.171877
331.105529,70.114733
331.004875,70.082485
330.894116,70.073207
330.785684,70.083907
330.690948,70.115334
330.603861,70.170075
330.545526,70.222335
330.474300,70.306376
330.428039,70.393477
330.404099,70.489871
330.399202,70.567307
329.947200,70.567307
329.948203,70.487299
329.974001,70.344151
330.024845,70.199743
330.049010,70.147430
330.085281,70.077903
330.121270,70.021427
330.164130,69.968129
330.221015,69.908137
330.226165,69.902974
330.287079,69.844716
330.340541,69.801033
330.396424,69.764771
330.464599,69.728775
330.470622,69.725819
330.623561,69.665331
330.778213,69.631189
330.932040,69.622521
Z" /> 
<path style="fill:#000000; fill-opacity:1.000000; stroke:none;fill-rule:evenodd;"
d="M 343.417383,69.629416
343.570227,69.665069
343.684035,69.710271
343.758889,69.748747
343.809742,69.782474
343.839442,69.813873
343.850839,69.845361
343.851173,69.852236
343.842885,69.878080
343.819814,69.920917
343.784647,69.976131
343.751504,70.023501
343.703866,70.087410
343.666870,70.130187
343.635932,70.153943
343.606466,70.160795
343.573888,70.152855
343.533615,70.132239
343.525686,70.127633
343.416943,70.078500
343.306624,70.055750
343.197815,70.058371
343.093604,70.085350
342.997077,70.135675
342.911322,70.208334
342.839425,70.302313
342.806543,70.363500
342.768688,70.467447
342.755984,70.567527
342.767911,70.670512
342.779591,70.714463
342.827500,70.828206
342.897402,70.925405
342.990003,71.006918
343.052212,71.046132
343.087177,71.064297
343.118828,71.075749
343.155306,71.082008
343.204750,71.084594
343.260637,71.085039
343.325338,71.084517
343.371281,71.081607
343.407495,71.074292
343.443009,71.060557
343.486851,71.038383
343.499347,71.031725
343.549119,71.007281
343.592039,70.990061
343.620459,70.983031
343.624402,70.983214
343.644641,70.996759
343.675343,71.028556
343.712495,71.073134
343.752086,71.125022
343.790105,71.178747
343.822539,71.228839
343.845379,71.269825
343.854613,71.296236
343.854647,71.297263
343.849045,71.323842
343.829904,71.349376
343.793717,71.376750
343.736981,71.408851
343.691381,71.431696
343.555884,71.485120
343.413821,71.518281
343.272697,71.529861
343.170320,71.523366
343.011216,71.488644
342.862675,71.429558
342.727771,71.347497
342.660330,71.292921
342.551864,71.178564
342.465940,71.051303
342.402506,70.914156
342.361508,70.770137
342.342893,70.622261
342.346609,70.473546
342.372603,70.327006
342.420822,70.185658
342.491213,70.052516
342.583722,69.930598
342.685948,69.832877
342.817134,69.742606
342.959089,69.676729
343.108595,69.635642
343.262433,69.619739
Z" /> 
<path style="fill:#000000; fill-opacity:1.000000; stroke:none;fill-rule:evenodd;"
d="M 335.524883,69.640837
335.706719,69.677405
335.875455,69.730277
336.029747,69.797921
336.168251,69.878806
336.289621,69.971401
336.392515,70.074173
336.475586,70.185593
336.537490,70.304127
336.576884,70.428245
336.592422,70.556416
336.582760,70.687108
336.550277,70.808752
336.489295,70.941138
336.406414,71.060856
336.299924,71.169971
336.168204,71.270491
335.995937,71.369042
335.809793,71.443567
335.609916,71.494029
335.396449,71.520396
335.169538,71.522632
335.118186,71.519905
334.924688,71.495118
334.731366,71.446728
334.545759,71.377036
334.391630,71.298056
334.321342,71.249224
334.245370,71.184117
334.170115,71.109366
334.101978,71.031597
334.047361,70.957440
334.023374,70.916725
333.966828,70.780917
333.937986,70.645804
333.937320,70.570270
334.379666,70.570270
334.387064,70.627376
334.424607,70.715183
334.487135,70.797797
334.572060,70.873479
334.676791,70.940496
334.798740,70.997110
334.935319,71.041585
335.039414,71.064781
335.102142,71.071686
335.184371,71.074251
335.278212,71.072854
335.375779,71.067874
335.469184,71.059689
335.550542,71.048676
335.602817,71.037778
335.735908,70.993416
335.857317,70.934831
335.962999,70.864673
336.048909,70.785594
336.106816,70.707566
336.127373,70.667566
336.137046,70.630806
336.138401,70.584671
336.137071,70.558885
336.130597,70.501883
336.116543,70.458206
336.089885,70.413504
336.082489,70.403025
336.003611,70.315537
335.902501,70.239433
335.782800,70.175956
335.648151,70.126346
335.502192,70.091846
335.348567,70.073695
335.190915,70.073136
335.129000,70.077967
334.952272,70.106502
334.794267,70.154100
334.655706,70.220466
334.537306,70.305302
334.505329,70.334796
334.435873,70.415216
334.394018,70.493627
334.379666,70.570270
333.937320,70.570270
333.936795,70.510776
333.963201,70.375223
333.972628,70.345510
334.031058,70.215412
334.113418,70.095248
334.217288,69.986116
334.340251,69.889115
334.479888,69.805342
334.633780,69.735895
334.799510,69.681872
334.974659,69.644371
335.156808,69.624489
335.343540,69.623324
Z" /> 
<path style="fill:#000000; fill-opacity:1.000000; stroke:none;fill-rule:evenodd;"
d="M 341.417602,69.632712
341.556961,69.672331
341.688364,69.736239
341.808442,69.822700
341.913826,69.929978
341.939289,69.962241
342.006005,70.063852
342.052110,70.167056
342.082067,70.282506
342.087894,70.316690
342.099955,70.427592
342.097601,70.517642
342.080030,70.590217
342.046438,70.648693
341.997810,70.695121
341.987188,70.702307
341.974582,70.708232
341.957274,70.713059
341.932544,70.716951
341.897673,70.720072
341.849942,70.722584
341.786631,70.724651
341.705020,70.726436
341.602391,70.728103
341.476025,70.729814
341.404674,70.730717
340.849891,70.737665
340.889943,70.821034
340.951979,70.919792
341.032730,70.998800
341.130080,71.056699
341.241913,71.092130
341.329236,71.102918
341.447627,71.100109
341.563442,71.078205
341.683567,71.035568
341.756961,71.001181
341.820826,70.970597
341.864888,70.953659
341.892811,70.949134
341.903332,70.951855
341.919570,70.968206
341.946292,71.003208
341.979735,71.051653
342.014727,71.106060
342.056874,71.175744
342.083098,71.227240
342.093056,71.265368
342.086407,71.294950
342.062807,71.320807
342.021916,71.347762
341.996550,71.362224
341.857196,71.428304
341.705658,71.479169
341.549024,71.513361
341.394383,71.529422
341.248823,71.525896
341.218077,71.522258
341.062174,71.487663
340.917301,71.429359
340.785999,71.349222
340.670811,71.249123
340.574280,71.130937
340.498948,70.996538
340.496127,70.990205
340.454684,70.868631
340.428750,70.731495
340.418895,70.586672
340.425690,70.442035
340.440580,70.354553
340.877650,70.354553
340.889393,70.359541
340.925171,70.363478
340.985803,70.366397
341.072111,70.368329
341.184914,70.369306
341.259762,70.369448
341.641873,70.369448
341.641737,70.338184
341.632373,70.292172
341.608097,70.236490
341.574145,70.180615
341.535748,70.134021
341.522085,70.121542
341.468382,70.084846
341.410037,70.062448
341.338766,70.051902
341.280604,70.050246
341.191987,70.058803
341.114572,70.086177
341.040367,70.135660
341.011098,70.161175
340.972351,70.201596
340.934845,70.248580
340.903425,70.295110
340.882933,70.334164
340.877650,70.354553
340.440580,70.354553
340.447212,70.315589
340.495153,70.168635
340.564099,70.034587
340.651551,69.915549
340.755015,69.813626
340.871994,69.730919
340.999993,69.669534
341.136515,69.631573
341.273657,69.619120
Z" /> 
<path style="fill:#000000; fill-opacity:1.000000; stroke:none;fill-rule:evenodd;"
d="M 336.986576,69.669428
337.020925,69.693738
337.072849,69.732316
337.140304,69.783589
337.221247,69.845986
337.313635,69.917937
337.415426,69.997869
337.524576,70.084211
337.595122,70.140332
337.707332,70.229702
337.812950,70.313654
337.909997,70.390626
337.996493,70.459057
338.070458,70.517383
338.129913,70.564042
338.172877,70.597473
338.197370,70.616112
338.202434,70.619557
338.204133,70.606234
338.205929,70.568551
338.207736,70.509936
338.209467,70.433819
338.211036,70.343630
338.212358,70.242796
338.212697,70.210647
338.213993,70.086674
338.215628,69.987284
338.218322,69.909273
338.222794,69.849435
338.229763,69.804567
338.239948,69.771463
338.254069,69.746920
338.272844,69.727733
338.296994,69.710698
338.327237,69.692609
338.329230,69.691438
338.395366,69.667491
338.464984,69.667466
338.531754,69.689286
338.589344,69.730876
338.631423,69.790157
338.631657,69.790649
338.636521,69.803191
338.640648,69.820157
338.644100,69.843750
338.646934,69.876172
338.649210,69.919625
338.650986,69.976312
338.652321,70.048434
338.653274,70.138194
338.653905,70.247794
338.654271,70.379437
338.654433,70.535324
338.654455,70.643194
338.654310,70.824168
338.653852,70.978941
338.653050,71.109100
338.651871,71.216233
338.650283,71.301927
338.648254,71.367770
338.645752,71.415349
338.642744,71.446251
338.639198,71.462064
338.637781,71.464371
338.611025,71.477969
338.589996,71.481045
338.571533,71.472247
338.532320,71.446168
338.472985,71.403286
338.394155,71.344074
338.296459,71.269008
338.180524,71.178565
338.046979,71.073219
337.957080,71.001798
337.355276,70.522551
337.348328,70.936444
337.346157,71.056586
337.343977,71.152105
337.341568,71.226164
337.338710,71.281929
337.335181,71.322564
337.330762,71.351234
337.325231,71.371105
337.318369,71.385340
337.316871,71.387707
337.267365,71.439531
337.202824,71.473129
337.131572,71.485064
337.091271,71.480881
337.029754,71.460312
336.980703,71.424371
336.949413,71.388161
336.910637,71.337334
336.906732,70.524956
336.905957,70.353447
336.905445,70.207582
336.905246,70.085214
336.905409,69.984197
336.905985,69.902387
336.907024,69.837637
336.908576,69.787801
336.910690,69.750734
336.913417,69.724289
336.916806,69.706322
336.920908,69.694686
336.925772,69.687235
336.926254,69.686692
336.952696,69.666640
336.971844,69.660956
Z" /> 
<path style="fill:#000000; fill-opacity:1.000000; stroke:none;fill-rule:evenodd;"
d="M 333.216703,69.661091
333.374403,69.661944
333.506995,69.663354
333.613965,69.665310
333.694801,69.667802
333.748989,69.670822
333.776015,69.674358
333.778235,69.675188
333.799933,69.700228
333.805112,69.723674
333.797590,69.741951
333.774827,69.779188
333.736526,69.835797
333.682392,69.912192
333.612126,70.008787
333.525434,70.125993
333.422018,70.264225
333.324483,70.393617
332.843854,71.029459
333.254022,71.036406
333.371994,71.038496
333.465425,71.040488
333.537559,71.042644
333.591645,71.045224
333.630926,71.048487
333.658651,71.052694
333.678063,71.058105
333.692411,71.064980
333.703388,71.072421
333.759862,71.128876
333.794813,71.195486
333.807068,71.266829
333.795451,71.337486
333.771223,71.385517
333.758122,71.404908
333.745742,71.421482
333.731917,71.435461
333.714481,71.447064
333.691269,71.456513
333.660114,71.464028
333.618850,71.469830
333.565311,71.474141
333.497331,71.477181
333.412745,71.479171
333.309386,71.480332
333.185088,71.480884
333.037686,71.481048
332.865012,71.481046
332.834327,71.481045
332.664416,71.481024
332.520151,71.480914
332.399387,71.480640
332.299979,71.480132
332.219784,71.479316
332.156657,71.478119
332.108453,71.476470
332.073027,71.474296
332.048237,71.471525
332.031936,71.468083
332.021981,71.463898
332.016227,71.458898
332.012661,71.453255
332.005400,71.419543
332.014432,71.394202
332.025735,71.377526
332.052255,71.340817
332.092417,71.286188
332.144649,71.215751
332.207377,71.131618
332.279027,71.035900
332.358026,70.930712
332.442800,70.818163
332.501244,70.740750
332.588320,70.625407
332.670167,70.516771
332.745283,70.416848
332.812170,70.327644
332.869327,70.251166
332.915253,70.189421
332.948448,70.144415
332.967411,70.118155
332.971414,70.112003
332.958151,70.110176
332.920894,70.108545
332.863436,70.107184
332.789573,70.106168
332.703098,70.105572
332.637488,70.105444
332.520952,70.105082
332.428705,70.103606
332.357252,70.100428
332.303097,70.094961
332.262746,70.086618
332.232702,70.074811
332.209470,70.058954
332.189554,70.038459
332.181781,70.028891
332.145059,69.961674
332.132781,69.888798
332.144747,69.816503
332.180755,69.751032
332.191116,69.738989
332.206870,69.722189
332.222090,69.707985
332.239129,69.696162
332.260340,69.686499
332.288075,69.678779
332.324685,69.672784
332.372523,69.668297
332.433941,69.665098
332.511291,69.662970
332.606926,69.661695
332.723198,69.661054
332.862458,69.660830
333.027059,69.660805
333.034408,69.660805
Z" /> 
<path style="fill:#000000; fill-opacity:1.000000; stroke:none;fill-rule:evenodd;"
d="M 339.932613,68.688477
339.985270,68.689859
340.019551,68.692933
340.040160,68.698329
340.051802,68.706680
340.057358,68.715033
340.063324,68.740705
340.067721,68.789077
340.070593,68.855109
340.071984,68.933756
340.071936,69.019977
340.070493,69.108731
340.067700,69.194974
340.063599,69.273664
340.058233,69.339759
340.051648,69.388217
340.051542,69.388771
340.011940,69.526821
339.949146,69.653680
339.865477,69.765419
339.784334,69.841872
339.726194,69.888480
339.814000,69.968938
339.900258,70.058671
339.966067,70.153630
340.018059,70.263760
340.027703,70.289361
340.064383,70.390290
340.071536,71.018050
340.073250,71.172425
340.074850,71.301493
340.076755,71.407733
340.079390,71.493623
340.083174,71.561643
340.088531,71.614269
340.095883,71.653981
340.105651,71.683256
340.118257,71.704574
340.134123,71.720412
340.153672,71.733249
340.177324,71.745563
340.197081,71.755471
340.229510,71.769991
340.263207,71.779267
340.305587,71.784397
340.364063,71.786485
340.407676,71.786735
340.474670,71.787223
340.519213,71.789271
340.546632,71.793754
340.562259,71.801545
340.571423,71.813519
340.571472,71.813611
340.577154,71.837692
340.581777,71.882912
340.584842,71.942627
340.585856,72.005049
340.585252,72.089018
340.581361,72.149144
340.571066,72.189372
340.551249,72.213649
340.518792,72.225921
340.470576,72.230133
340.407907,72.230269
340.337164,72.227729
340.265498,72.221920
340.205091,72.213924
340.188611,72.210755
340.057718,72.168560
339.939966,72.102555
339.837047,72.014255
339.750654,71.905171
339.682476,71.776816
339.670623,71.747533
339.634942,71.654732
339.627549,71.035985
339.620155,70.417238
339.584659,70.348313
339.539914,70.281232
339.479782,70.226822
339.400937,70.183037
339.300053,70.147830
339.231096,70.130745
339.147727,70.112391
339.143902,69.902486
339.142966,69.814986
339.143970,69.751963
339.147115,69.710160
339.152603,69.686317
339.157797,69.678685
339.180178,69.668882
339.220566,69.657361
339.262316,69.648212
339.346741,69.628378
339.412620,69.602998
339.469170,69.567808
339.509420,69.533875
339.544557,69.498813
339.572019,69.463414
339.592726,69.423734
339.607597,69.375832
339.617551,69.315764
339.623507,69.239588
339.626384,69.143362
339.627103,69.029055
339.627373,68.928252
339.628346,68.851666
339.630265,68.795727
339.633376,68.756866
339.637923,68.731514
339.644149,68.716100
339.648938,68.709992
339.663264,68.700776
339.687623,68.694464
339.726565,68.690575
339.784641,68.688634
339.856874,68.688157
Z" /> 
<path style="fill:#000000; fill-opacity:1.000000; stroke:none;fill-rule:evenodd;"
d="M 344.428037,68.689058
344.488263,68.692158
344.536452,68.696952
344.566189,68.703360
344.571845,68.706750
344.576433,68.724417
344.580386,68.766043
344.583728,68.832330
344.586483,68.923977
344.588676,69.041687
344.590329,69.186159
344.590915,69.261622
344.594554,69.797901
344.674262,69.744317
344.778626,69.684097
344.883417,69.645771
344.998796,69.625963
345.039193,69.623006
345.186701,69.628154
345.326054,69.658633
345.455199,69.712662
345.572084,69.788460
345.674656,69.884245
345.760862,69.998238
345.828648,70.128657
345.875963,70.273721
345.893223,70.363918
345.896998,70.403841
345.900187,70.464789
345.902789,70.542968
345.904805,70.634583
345.906234,70.735840
345.907076,70.842944
345.907331,70.952102
345.907000,71.059517
345.906081,71.161397
345.904576,71.253946
345.902483,71.333370
345.899803,71.395874
345.896536,71.437665
345.893244,71.454169
345.885359,71.464898
345.872092,71.472334
345.848843,71.477071
345.811009,71.479705
345.753987,71.480830
345.685309,71.481045
345.607884,71.480748
345.553645,71.479458
345.517988,71.476582
345.496313,71.471524
345.484015,71.463690
345.477373,71.454169
345.473216,71.432125
345.469717,71.383554
345.466911,71.309712
345.464833,71.211856
345.463517,71.091242
345.462997,70.949125
345.462989,70.928682
345.462796,70.784584
345.461967,70.665282
345.460127,70.567781
345.456903,70.489089
345.451921,70.426211
345.444805,70.376155
345.435181,70.335926
345.422676,70.302532
345.406916,70.272978
345.387524,70.244272
345.375385,70.228034
345.301476,70.152607
345.214047,70.098879
345.117446,70.067265
345.016020,70.058178
344.914115,70.072032
344.816079,70.109241
344.730478,70.166608
344.701501,70.198612
344.668845,70.245862
344.640161,70.297024
344.594554,70.389624
344.590444,70.917308
344.588800,71.076678
344.586564,71.208778
344.583738,71.313507
344.580328,71.390764
344.576336,71.440447
344.571766,71.462455
344.571374,71.463019
344.555900,71.470928
344.522748,71.476380
344.468857,71.479642
344.391161,71.480979
344.364074,71.481045
344.286986,71.480753
344.233056,71.479471
344.197655,71.476590
344.176155,71.471498
344.163927,71.463588
344.157149,71.453790
344.154423,71.436398
344.152065,71.394835
344.150070,71.328713
344.148437,71.237642
344.147162,71.121230
344.146241,70.979090
344.145672,70.810831
344.145452,70.616062
344.145578,70.394395
344.146046,70.145439
344.146239,70.070732
344.146893,69.844009
344.147570,69.643492
344.148300,69.467600
344.149110,69.314749
344.150029,69.183356
344.151084,69.071839
344.152305,68.978615
344.153720,68.902100
344.155357,68.840712
344.157244,68.792867
344.159410,68.756984
344.161884,68.731479
344.164692,68.714769
344.167865,68.705272
344.170757,68.701756
344.194992,68.695190
344.239250,68.690717
344.297118,68.688257
344.362184,68.687731
Z" /> 
</g>
<g style="fill:none; 
stroke:#000000; stroke-width:0.120000; stroke-opacity:1; 
stroke-linecap:round; stroke-linejoin:round;">
<path d="M17.907776 47.065000
L18.417224 47.065000
" />
<path d="M17.907776 48.110000
L18.417224 48.110000
" />
<path d="M23.015000 50.451248
L23.015000 50.973752
" />
<path d="M24.485000 50.451248
L24.485000 50.973752
" />
<path d="M12.877500 48.852500
L12.877500 50.322500
" />
<path d="M12.877500 50.322500
L15.337500 50.322500
" />
<path d="M15.337500 48.852500
L12.877500 48.852500
" />
<path d="M25.857836 27.477500
L25.642164 27.477500
" />
<path d="M25.857836 28.197500
L25.642164 28.197500
" />
<path d="M31.142164 39.477500
L31.357836 39.477500
" />
<path d="M31.142164 40.197500
L31.357836 40.197500
" />
<circle cx="51.000000" cy="31.000000" r="1.700000" /> 
<path d="M30.848752 40.852500
L30.326248 40.852500
" />
<path d="M30.848752 42.322500
L30.326248 42.322500
" />
</g>
<g style="fill:none; 
stroke:#000000; stroke-width:0.127000; stroke-opacity:1; 
stroke-linecap:round; stroke-linejoin:round;">
<path d="M38.350000 54.400000
L38.350000 57.100000
" />
<path d="M39.250000 56.500000
L39.250000 55.000000
" />
<path d="M39.750000 55.375000
L38.750000 55.375000
" />
<path d="M40.150000 54.400000
L40.150000 57.100000
" />
<path style="fill:#000000; fill-opacity:1.000000; 
stroke:#000000; stroke-width:0.127000; stroke-opacity:1; 
stroke-linecap:round; stroke-linejoin:round;fill-rule:evenodd;"
d="M 39.750000,56.125000
38.750000,56.125000
39.250000,55.375000
Z" /> 
</g>
<g style="fill:none; 
stroke:#000000; stroke-width:0.120000; stroke-opacity:1; 
stroke-linecap:round; stroke-linejoin:round;">
<path d="M56.136252 55.290000
L53.363748 55.290000
" />
<path d="M56.136252 58.710000
L53.363748 58.710000
" />
<path d="M34.015000 46.261252
L34.015000 45.738748
" />
<path d="M35.485000 46.261252
L35.485000 45.738748
" />
<path d="M34.065000 42.176252
L34.065000 41.653748
" />
<path d="M35.535000 42.176252
L35.535000 41.653748
" />
</g>
<g style="fill:none; 
stroke:#000000; stroke-width:0.200000; stroke-opacity:1; 
stroke-linecap:round; stroke-linejoin:round;">
<path d="M25.091330 48.277500
L25.091330 55.577500
" />
<path d="M26.182660 48.277500
L25.097330 48.280000
" />
<path d="M26.182660 55.577500
L25.091330 55.577500
" />
<path d="M34.391330 48.277500
L33.306000 48.280000
" />
<path d="M34.391330 48.277500
L34.391330 55.577500
" />
<path d="M34.391330 55.577500
L33.300000 55.577500
" />
</g>
<g style="fill:none; 
stroke:#000000; stroke-width:0.500000; stroke-opacity:1; 
stroke-linecap:round; stroke-linejoin:round;">
<path d="M32.105334 47.515503 A0.200000 0.200000 0.0 1 0 32.114053 47.477064" />
</g>
<g style="fill:none; 
stroke:#000000; stroke-width:0.120000; stroke-opacity:1; 
stroke-linecap:round; stroke-linejoin:round;">
<path d="M19.103733 29.827500
L19.396267 29.827500
" />
<path d="M19.103733 30.847500
L19.396267 30.847500
" />
<path d="M35.515000 54.261252
L35.515000 53.738748
" />
<path d="M36.985000 54.261252
L36.985000 53.738748
" />
<path d="M28.965000 60.805000
L32.250000 60.805000
" />
<path d="M28.965000 63.455000
L28.965000 60.805000
" />
<path d="M28.965000 65.995000
L28.965000 71.185000
" />
<path d="M28.965000 65.995000
L35.535000 65.995000
" />
<path d="M28.965000 71.185000
L35.535000 71.185000
" />
<path d="M35.535000 65.995000
L35.535000 71.185000
" />
<path d="M18.550000 32.575000
L18.550000 33.925000
" />
<path d="M21.450000 32.575000
L21.450000 33.925000
" />
<path d="M17.782776 49.065000
L18.292224 49.065000
" />
<path d="M17.782776 50.110000
L18.292224 50.110000
" />
<path d="M12.450000 68.450000
L21.900000 68.445000
" />
<path d="M21.900000 58.555000
L12.450000 58.555000
" />
<path d="M21.900000 59.760000
L21.900000 58.555000
" />
<path d="M21.900000 67.240000
L27.670000 67.240000
" />
<path d="M21.900000 68.445000
L21.900000 67.240000
" />
<path d="M27.670000 59.760000
L21.900000 59.760000
" />
<path d="M27.670000 67.240000
L27.670000 59.760000
" />
<circle cx="40.000000" cy="34.000000" r="0.700000" /> 
<path d="M27.227500 25.995276
L27.227500 26.504724
" />
<path d="M28.272500 25.995276
L28.272500 26.504724
" />
<path d="M24.640000 30.390000
L24.640000 30.840000
" />
<path d="M24.640000 37.610000
L24.640000 37.160000
" />
<path d="M25.090000 30.390000
L24.640000 30.390000
" />
<path d="M25.090000 37.610000
L24.640000 37.610000
" />
<path d="M31.410000 30.390000
L31.860000 30.390000
" />
<path d="M31.410000 37.610000
L31.860000 37.610000
" />
<path d="M31.860000 30.390000
L31.860000 30.840000
" />
<path d="M31.860000 37.610000
L31.860000 37.160000
" />
<path style="fill:#000000; fill-opacity:1.000000; 
stroke:#000000; stroke-width:0.120000; stroke-opacity:1; 
stroke-linecap:round; stroke-linejoin:round;fill-rule:evenodd;"
d="M 24.050000,30.840000
23.710000,30.370000
24.390000,30.370000
Z" /> 
</g>
<g style="fill:none; 
stroke:#000000; stroke-width:0.120000; stroke-opacity:1; 
stroke-linecap:round; stroke-linejoin:round;">
<path d="M38.650000 39.840000
L42.410000 39.840000
" />
<path d="M38.650000 46.660000
L42.410000 46.660000
" />
<path d="M42.410000 39.840000
L42.410000 41.100000
" />
<path d="M42.410000 46.660000
L42.410000 45.400000
" />
<path style="fill:#000000; fill-opacity:1.000000; 
stroke:#000000; stroke-width:0.120000; stroke-opacity:1; 
stroke-linecap:round; stroke-linejoin:round;fill-rule:evenodd;"
d="M 37.370000,39.940000
37.130000,39.610000
37.610000,39.610000
Z" /> 
</g>
<g style="fill:none; 
stroke:#000000; stroke-width:0.120000; stroke-opacity:1; 
stroke-linecap:round; stroke-linejoin:round;">
<path d="M30.397500 24.707500
L30.397500 27.467500
" />
<path d="M38.127500 24.707500
L30.397500 24.707500
" />
<path d="M38.127500 24.707500
L38.127500 27.467500
" />
<path d="M38.127500 27.467500
L30.397500 27.467500
" />
<path d="M39.397500 24.707500
L40.777500 24.707500
" />
<path d="M40.777500 24.707500
L40.777500 26.087500
" />
<path d="M38.515000 49.590000
L38.515000 52.050000
" />
<path d="M39.985000 49.590000
L38.515000 49.590000
" />
<path d="M39.985000 52.050000
L39.985000 49.590000
" />
</g> 
</svg>
